  0
SECTION
  2
HEADER
  9
$ACADVER
  1
AC1009
  9
$FILLMODE
 70
 0
  9
$SPLFRAME
 70
 1
  9
$EXTMIN
 10
0
 20
0
 30
0.0
  9
$EXTMAX
 10
1058.33
 20
1058.33
 30
0.0
  0
ENDSEC
  0
SECTION
  2
TABLES
  0
TABLE
  2
LAYER
 70
1
  0
LAYER
  2
0
 70
     0
 62
     7
  6
CONTINUOUS
  0
ENDTAB
  0
ENDSEC
  0
SECTION
  2
ENTITIES
  0
LINE
  8
0
 62
     0
 10
0.0950846
 20
76.4575
 30
0.0
 11
266.795
 21
76.4575
 31
0.0
  0
LINE
  8
0
 62
     0
 10
266.795
 20
76.4575
 30
0.0
 11
266.795
 21
0.257693
 31
0.0
  0
LINE
  8
0
 62
     0
 10
266.795
 20
0.257693
 30
0.0
 11
0.0950846
 21
0.257693
 31
0.0
  0
LINE
  8
0
 62
     0
 10
0.0950846
 20
0.257693
 30
0.0
 11
0.0950846
 21
76.4575
 31
0.0
  0
LINE
  8
0
 62
     0
 10
85.9621
 20
16.7831
 30
0.0
 11
85.9621
 21
12.0826
 31
0.0
  0
LINE
  8
0
 62
     0
 10
85.9621
 20
12.0826
 30
0.0
 11
84.4381
 21
12.0826
 31
0.0
  0
LINE
  8
0
 62
     0
 10
84.4381
 20
12.0826
 30
0.0
 11
84.4381
 21
15.3128
 31
0.0
  0
LINE
  8
0
 62
     0
 10
84.4381
 20
15.3128
 30
0.0
 11
82.7126
 21
15.3128
 31
0.0
  0
LINE
  8
0
 62
     0
 10
82.7126
 20
15.3128
 30
0.0
 11
82.7126
 21
16.2347
 31
0.0
  0
LINE
  8
0
 62
     0
 10
82.7126
 20
16.2347
 30
0.0
 11
79.412
 21
16.2347
 31
0.0
  0
LINE
  8
0
 62
     0
 10
79.412
 20
16.2347
 30
0.0
 11
79.412
 21
15.3128
 31
0.0
  0
LINE
  8
0
 62
     0
 10
79.412
 20
15.3128
 30
0.0
 11
77.687
 21
15.3128
 31
0.0
  0
LINE
  8
0
 62
     0
 10
77.687
 20
15.3128
 30
0.0
 11
77.687
 21
12.0826
 31
0.0
  0
LINE
  8
0
 62
     0
 10
77.687
 20
12.0826
 30
0.0
 11
76.8629
 21
12.0826
 31
0.0
  0
LINE
  8
0
 62
     0
 10
76.8629
 20
12.0826
 30
0.0
 11
76.8629
 21
9.28384
 31
0.0
  0
LINE
  8
0
 62
     0
 10
76.8629
 20
9.28384
 30
0.0
 11
77.687
 21
9.28384
 31
0.0
  0
LINE
  8
0
 62
     0
 10
77.687
 20
9.28384
 30
0.0
 11
77.687
 21
3.01377
 31
0.0
  0
LINE
  8
0
 62
     0
 10
77.687
 20
3.01377
 30
0.0
 11
79.412
 21
3.01377
 31
0.0
  0
LINE
  8
0
 62
     0
 10
79.412
 20
3.01377
 30
0.0
 11
79.412
 21
2.03261
 31
0.0
  0
LINE
  8
0
 62
     0
 10
79.412
 20
2.03261
 30
0.0
 11
82.7126
 21
2.03261
 31
0.0
  0
LINE
  8
0
 62
     0
 10
82.7126
 20
2.03261
 30
0.0
 11
82.7126
 21
3.01377
 31
0.0
  0
LINE
  8
0
 62
     0
 10
82.7126
 20
3.01377
 30
0.0
 11
84.4381
 21
3.01377
 31
0.0
  0
LINE
  8
0
 62
     0
 10
84.4381
 20
3.01377
 30
0.0
 11
84.4381
 21
7.48273
 31
0.0
  0
LINE
  8
0
 62
     0
 10
84.4381
 20
7.48273
 30
0.0
 11
85.9621
 21
7.48273
 31
0.0
  0
LINE
  8
0
 62
     0
 10
85.9621
 20
7.48273
 30
0.0
 11
85.9621
 21
2.78364
 31
0.0
  0
LINE
  8
0
 62
     0
 10
85.9621
 20
2.78364
 30
0.0
 11
99.9628
 21
2.78364
 31
0.0
  0
LINE
  8
0
 62
     0
 10
99.9628
 20
2.78364
 30
0.0
 11
99.9628
 21
7.48273
 31
0.0
  0
LINE
  8
0
 62
     0
 10
99.9628
 20
7.48273
 30
0.0
 11
101.487
 21
7.48273
 31
0.0
  0
LINE
  8
0
 62
     0
 10
101.487
 20
7.48273
 30
0.0
 11
101.487
 21
3.01377
 31
0.0
  0
LINE
  8
0
 62
     0
 10
101.487
 20
3.01377
 30
0.0
 11
103.212
 21
3.01377
 31
0.0
  0
LINE
  8
0
 62
     0
 10
103.212
 20
3.01377
 30
0.0
 11
103.212
 21
2.03261
 31
0.0
  0
LINE
  8
0
 62
     0
 10
103.212
 20
2.03261
 30
0.0
 11
106.513
 21
2.03261
 31
0.0
  0
LINE
  8
0
 62
     0
 10
106.513
 20
2.03261
 30
0.0
 11
106.513
 21
3.01377
 31
0.0
  0
LINE
  8
0
 62
     0
 10
106.513
 20
3.01377
 30
0.0
 11
108.238
 21
3.01377
 31
0.0
  0
LINE
  8
0
 62
     0
 10
108.238
 20
3.01377
 30
0.0
 11
108.238
 21
9.28384
 31
0.0
  0
LINE
  8
0
 62
     0
 10
108.238
 20
9.28384
 30
0.0
 11
109.062
 21
9.28384
 31
0.0
  0
LINE
  8
0
 62
     0
 10
109.062
 20
9.28384
 30
0.0
 11
109.062
 21
12.0826
 31
0.0
  0
LINE
  8
0
 62
     0
 10
109.062
 20
12.0826
 30
0.0
 11
108.238
 21
12.0826
 31
0.0
  0
LINE
  8
0
 62
     0
 10
108.238
 20
12.0826
 30
0.0
 11
108.238
 21
15.3128
 31
0.0
  0
LINE
  8
0
 62
     0
 10
108.238
 20
15.3128
 30
0.0
 11
106.513
 21
15.3128
 31
0.0
  0
LINE
  8
0
 62
     0
 10
106.513
 20
15.3128
 30
0.0
 11
106.513
 21
16.2347
 31
0.0
  0
LINE
  8
0
 62
     0
 10
106.513
 20
16.2347
 30
0.0
 11
103.212
 21
16.2347
 31
0.0
  0
LINE
  8
0
 62
     0
 10
103.212
 20
16.2347
 30
0.0
 11
103.212
 21
15.3128
 31
0.0
  0
LINE
  8
0
 62
     0
 10
103.212
 20
15.3128
 30
0.0
 11
101.487
 21
15.3128
 31
0.0
  0
LINE
  8
0
 62
     0
 10
101.487
 20
15.3128
 30
0.0
 11
101.487
 21
12.0826
 31
0.0
  0
LINE
  8
0
 62
     0
 10
101.487
 20
12.0826
 30
0.0
 11
99.9628
 21
12.0826
 31
0.0
  0
LINE
  8
0
 62
     0
 10
99.9628
 20
12.0826
 30
0.0
 11
99.9628
 21
16.7831
 31
0.0
  0
LINE
  8
0
 62
     0
 10
99.9628
 20
16.7831
 30
0.0
 11
85.9621
 21
16.7831
 31
0.0
  0
LINE
  8
0
 62
     0
 10
157.401
 20
16.7831
 30
0.0
 11
157.401
 21
12.0826
 31
0.0
  0
LINE
  8
0
 62
     0
 10
157.401
 20
12.0826
 30
0.0
 11
155.876
 21
12.0826
 31
0.0
  0
LINE
  8
0
 62
     0
 10
155.876
 20
12.0826
 30
0.0
 11
155.876
 21
15.3128
 31
0.0
  0
LINE
  8
0
 62
     0
 10
155.876
 20
15.3128
 30
0.0
 11
154.15
 21
15.3128
 31
0.0
  0
LINE
  8
0
 62
     0
 10
154.15
 20
15.3128
 30
0.0
 11
154.15
 21
16.2347
 31
0.0
  0
LINE
  8
0
 62
     0
 10
154.15
 20
16.2347
 30
0.0
 11
150.851
 21
16.2347
 31
0.0
  0
LINE
  8
0
 62
     0
 10
150.851
 20
16.2347
 30
0.0
 11
150.851
 21
15.3128
 31
0.0
  0
LINE
  8
0
 62
     0
 10
150.851
 20
15.3128
 30
0.0
 11
149.126
 21
15.3128
 31
0.0
  0
LINE
  8
0
 62
     0
 10
149.126
 20
15.3128
 30
0.0
 11
149.126
 21
12.0826
 31
0.0
  0
LINE
  8
0
 62
     0
 10
149.126
 20
12.0826
 30
0.0
 11
148.3
 21
12.0826
 31
0.0
  0
LINE
  8
0
 62
     0
 10
148.3
 20
12.0826
 30
0.0
 11
148.3
 21
9.28384
 31
0.0
  0
LINE
  8
0
 62
     0
 10
148.3
 20
9.28384
 30
0.0
 11
149.126
 21
9.28384
 31
0.0
  0
LINE
  8
0
 62
     0
 10
149.126
 20
9.28384
 30
0.0
 11
149.126
 21
3.01377
 31
0.0
  0
LINE
  8
0
 62
     0
 10
149.126
 20
3.01377
 30
0.0
 11
150.851
 21
3.01377
 31
0.0
  0
LINE
  8
0
 62
     0
 10
150.851
 20
3.01377
 30
0.0
 11
150.851
 21
2.03261
 31
0.0
  0
LINE
  8
0
 62
     0
 10
150.851
 20
2.03261
 30
0.0
 11
154.15
 21
2.03261
 31
0.0
  0
LINE
  8
0
 62
     0
 10
154.15
 20
2.03261
 30
0.0
 11
154.15
 21
3.01377
 31
0.0
  0
LINE
  8
0
 62
     0
 10
154.15
 20
3.01377
 30
0.0
 11
155.876
 21
3.01377
 31
0.0
  0
LINE
  8
0
 62
     0
 10
155.876
 20
3.01377
 30
0.0
 11
155.876
 21
7.48273
 31
0.0
  0
LINE
  8
0
 62
     0
 10
155.876
 20
7.48273
 30
0.0
 11
157.401
 21
7.48273
 31
0.0
  0
LINE
  8
0
 62
     0
 10
157.401
 20
7.48273
 30
0.0
 11
157.401
 21
2.78364
 31
0.0
  0
LINE
  8
0
 62
     0
 10
157.401
 20
2.78364
 30
0.0
 11
171.4
 21
2.78364
 31
0.0
  0
LINE
  8
0
 62
     0
 10
171.4
 20
2.78364
 30
0.0
 11
171.4
 21
7.48273
 31
0.0
  0
LINE
  8
0
 62
     0
 10
171.4
 20
7.48273
 30
0.0
 11
172.926
 21
7.48273
 31
0.0
  0
LINE
  8
0
 62
     0
 10
172.926
 20
7.48273
 30
0.0
 11
172.926
 21
3.01377
 31
0.0
  0
LINE
  8
0
 62
     0
 10
172.926
 20
3.01377
 30
0.0
 11
174.651
 21
3.01377
 31
0.0
  0
LINE
  8
0
 62
     0
 10
174.651
 20
3.01377
 30
0.0
 11
174.651
 21
2.03261
 31
0.0
  0
LINE
  8
0
 62
     0
 10
174.651
 20
2.03261
 30
0.0
 11
177.95
 21
2.03261
 31
0.0
  0
LINE
  8
0
 62
     0
 10
177.95
 20
2.03261
 30
0.0
 11
177.95
 21
3.01377
 31
0.0
  0
LINE
  8
0
 62
     0
 10
177.95
 20
3.01377
 30
0.0
 11
179.675
 21
3.01377
 31
0.0
  0
LINE
  8
0
 62
     0
 10
179.675
 20
3.01377
 30
0.0
 11
179.675
 21
9.28384
 31
0.0
  0
LINE
  8
0
 62
     0
 10
179.675
 20
9.28384
 30
0.0
 11
180.501
 21
9.28384
 31
0.0
  0
LINE
  8
0
 62
     0
 10
180.501
 20
9.28384
 30
0.0
 11
180.501
 21
12.0826
 31
0.0
  0
LINE
  8
0
 62
     0
 10
180.501
 20
12.0826
 30
0.0
 11
179.675
 21
12.0826
 31
0.0
  0
LINE
  8
0
 62
     0
 10
179.675
 20
12.0826
 30
0.0
 11
179.675
 21
15.3128
 31
0.0
  0
LINE
  8
0
 62
     0
 10
179.675
 20
15.3128
 30
0.0
 11
177.95
 21
15.3128
 31
0.0
  0
LINE
  8
0
 62
     0
 10
177.95
 20
15.3128
 30
0.0
 11
177.95
 21
16.2347
 31
0.0
  0
LINE
  8
0
 62
     0
 10
177.95
 20
16.2347
 30
0.0
 11
174.651
 21
16.2347
 31
0.0
  0
LINE
  8
0
 62
     0
 10
174.651
 20
16.2347
 30
0.0
 11
174.651
 21
15.3128
 31
0.0
  0
LINE
  8
0
 62
     0
 10
174.651
 20
15.3128
 30
0.0
 11
172.926
 21
15.3128
 31
0.0
  0
LINE
  8
0
 62
     0
 10
172.926
 20
15.3128
 30
0.0
 11
172.926
 21
12.0826
 31
0.0
  0
LINE
  8
0
 62
     0
 10
172.926
 20
12.0826
 30
0.0
 11
171.4
 21
12.0826
 31
0.0
  0
LINE
  8
0
 62
     0
 10
171.4
 20
12.0826
 30
0.0
 11
171.4
 21
16.7831
 31
0.0
  0
LINE
  8
0
 62
     0
 10
171.4
 20
16.7831
 30
0.0
 11
157.401
 21
16.7831
 31
0.0
  0
LINE
  8
0
 62
     0
 10
2.61965
 20
16.7831
 30
0.0
 11
16.6192
 21
16.7831
 31
0.0
  0
LINE
  8
0
 62
     0
 10
16.6192
 20
16.7831
 30
0.0
 11
16.6192
 21
2.78364
 31
0.0
  0
LINE
  8
0
 62
     0
 10
16.6192
 20
2.78364
 30
0.0
 11
2.61965
 21
2.78364
 31
0.0
  0
LINE
  8
0
 62
     0
 10
2.61965
 20
2.78364
 30
0.0
 11
2.61965
 21
16.7831
 31
0.0
  0
LINE
  8
0
 62
     0
 10
24.0509
 20
16.7831
 30
0.0
 11
38.0503
 21
16.7831
 31
0.0
  0
LINE
  8
0
 62
     0
 10
38.0503
 20
16.7831
 30
0.0
 11
38.0503
 21
2.78364
 31
0.0
  0
LINE
  8
0
 62
     0
 10
38.0503
 20
2.78364
 30
0.0
 11
24.0509
 21
2.78364
 31
0.0
  0
LINE
  8
0
 62
     0
 10
24.0509
 20
2.78364
 30
0.0
 11
24.0509
 21
16.7831
 31
0.0
  0
LINE
  8
0
 62
     0
 10
47.8621
 20
16.7831
 30
0.0
 11
61.8628
 21
16.7831
 31
0.0
  0
LINE
  8
0
 62
     0
 10
61.8628
 20
16.7831
 30
0.0
 11
61.8628
 21
2.78364
 31
0.0
  0
LINE
  8
0
 62
     0
 10
61.8628
 20
2.78364
 30
0.0
 11
47.8621
 21
2.78364
 31
0.0
  0
LINE
  8
0
 62
     0
 10
47.8621
 20
2.78364
 30
0.0
 11
47.8621
 21
16.7831
 31
0.0
  0
LINE
  8
0
 62
     0
 10
121.682
 20
16.7831
 30
0.0
 11
135.682
 21
16.7831
 31
0.0
  0
LINE
  8
0
 62
     0
 10
135.682
 20
16.7831
 30
0.0
 11
135.682
 21
2.78364
 31
0.0
  0
LINE
  8
0
 62
     0
 10
135.682
 20
2.78364
 30
0.0
 11
121.682
 21
2.78364
 31
0.0
  0
LINE
  8
0
 62
     0
 10
121.682
 20
2.78364
 30
0.0
 11
121.682
 21
16.7831
 31
0.0
  0
LINE
  8
0
 62
     0
 10
193.12
 20
16.7831
 30
0.0
 11
207.119
 21
16.7831
 31
0.0
  0
LINE
  8
0
 62
     0
 10
207.119
 20
16.7831
 30
0.0
 11
207.119
 21
2.78364
 31
0.0
  0
LINE
  8
0
 62
     0
 10
207.119
 20
2.78364
 30
0.0
 11
193.12
 21
2.78364
 31
0.0
  0
LINE
  8
0
 62
     0
 10
193.12
 20
2.78364
 30
0.0
 11
193.12
 21
16.7831
 31
0.0
  0
LINE
  8
0
 62
     0
 10
212.17
 20
16.7831
 30
0.0
 11
226.169
 21
16.7831
 31
0.0
  0
LINE
  8
0
 62
     0
 10
226.169
 20
16.7831
 30
0.0
 11
226.169
 21
2.78364
 31
0.0
  0
LINE
  8
0
 62
     0
 10
226.169
 20
2.78364
 30
0.0
 11
212.17
 21
2.78364
 31
0.0
  0
LINE
  8
0
 62
     0
 10
212.17
 20
2.78364
 30
0.0
 11
212.17
 21
16.7831
 31
0.0
  0
LINE
  8
0
 62
     0
 10
231.22
 20
16.7831
 30
0.0
 11
245.219
 21
16.7831
 31
0.0
  0
LINE
  8
0
 62
     0
 10
245.219
 20
16.7831
 30
0.0
 11
245.219
 21
2.78364
 31
0.0
  0
LINE
  8
0
 62
     0
 10
245.219
 20
2.78364
 30
0.0
 11
231.22
 21
2.78364
 31
0.0
  0
LINE
  8
0
 62
     0
 10
231.22
 20
2.78364
 30
0.0
 11
231.22
 21
16.7831
 31
0.0
  0
LINE
  8
0
 62
     0
 10
250.27
 20
16.7831
 30
0.0
 11
264.269
 21
16.7831
 31
0.0
  0
LINE
  8
0
 62
     0
 10
264.269
 20
16.7831
 30
0.0
 11
264.269
 21
2.78364
 31
0.0
  0
LINE
  8
0
 62
     0
 10
264.269
 20
2.78364
 30
0.0
 11
250.27
 21
2.78364
 31
0.0
  0
LINE
  8
0
 62
     0
 10
250.27
 20
2.78364
 30
0.0
 11
250.27
 21
16.7831
 31
0.0
  0
LINE
  8
0
 62
     0
 10
12.1447
 20
35.833
 30
0.0
 11
12.1447
 21
31.1326
 31
0.0
  0
LINE
  8
0
 62
     0
 10
12.1447
 20
31.1326
 30
0.0
 11
10.6192
 21
31.1326
 31
0.0
  0
LINE
  8
0
 62
     0
 10
10.6192
 20
31.1326
 30
0.0
 11
10.6192
 21
34.3628
 31
0.0
  0
LINE
  8
0
 62
     0
 10
10.6192
 20
34.3628
 30
0.0
 11
8.89385
 21
34.3628
 31
0.0
  0
LINE
  8
0
 62
     0
 10
8.89385
 20
34.3628
 30
0.0
 11
8.89385
 21
35.2834
 31
0.0
  0
LINE
  8
0
 62
     0
 10
8.89385
 20
35.2834
 30
0.0
 11
5.59484
 21
35.2834
 31
0.0
  0
LINE
  8
0
 62
     0
 10
5.59484
 20
35.2834
 30
0.0
 11
5.59484
 21
34.3628
 31
0.0
  0
LINE
  8
0
 62
     0
 10
5.59484
 20
34.3628
 30
0.0
 11
3.86955
 21
34.3628
 31
0.0
  0
LINE
  8
0
 62
     0
 10
3.86955
 20
34.3628
 30
0.0
 11
3.86955
 21
31.1326
 31
0.0
  0
LINE
  8
0
 62
     0
 10
3.86955
 20
31.1326
 30
0.0
 11
3.04409
 21
31.1326
 31
0.0
  0
LINE
  8
0
 62
     0
 10
3.04409
 20
31.1326
 30
0.0
 11
3.04409
 21
28.3338
 31
0.0
  0
LINE
  8
0
 62
     0
 10
3.04409
 20
28.3338
 30
0.0
 11
3.86955
 21
28.3338
 31
0.0
  0
LINE
  8
0
 62
     0
 10
3.86955
 20
28.3338
 30
0.0
 11
3.86955
 21
22.0638
 31
0.0
  0
LINE
  8
0
 62
     0
 10
3.86955
 20
22.0638
 30
0.0
 11
5.59484
 21
22.0638
 31
0.0
  0
LINE
  8
0
 62
     0
 10
5.59484
 20
22.0638
 30
0.0
 11
5.59484
 21
21.0826
 31
0.0
  0
LINE
  8
0
 62
     0
 10
5.59484
 20
21.0826
 30
0.0
 11
8.89385
 21
21.0826
 31
0.0
  0
LINE
  8
0
 62
     0
 10
8.89385
 20
21.0826
 30
0.0
 11
8.89385
 21
22.0638
 31
0.0
  0
LINE
  8
0
 62
     0
 10
8.89385
 20
22.0638
 30
0.0
 11
10.6192
 21
22.0638
 31
0.0
  0
LINE
  8
0
 62
     0
 10
10.6192
 20
22.0638
 30
0.0
 11
10.6192
 21
26.5327
 31
0.0
  0
LINE
  8
0
 62
     0
 10
10.6192
 20
26.5327
 30
0.0
 11
12.1447
 21
26.5327
 31
0.0
  0
LINE
  8
0
 62
     0
 10
12.1447
 20
26.5327
 30
0.0
 11
12.1447
 21
21.8336
 31
0.0
  0
LINE
  8
0
 62
     0
 10
12.1447
 20
21.8336
 30
0.0
 11
26.1441
 21
21.8336
 31
0.0
  0
LINE
  8
0
 62
     0
 10
26.1441
 20
21.8336
 30
0.0
 11
26.1441
 21
26.5327
 31
0.0
  0
LINE
  8
0
 62
     0
 10
26.1441
 20
26.5327
 30
0.0
 11
27.6696
 21
26.5327
 31
0.0
  0
LINE
  8
0
 62
     0
 10
27.6696
 20
26.5327
 30
0.0
 11
27.6696
 21
22.0638
 31
0.0
  0
LINE
  8
0
 62
     0
 10
27.6696
 20
22.0638
 30
0.0
 11
29.3949
 21
22.0638
 31
0.0
  0
LINE
  8
0
 62
     0
 10
29.3949
 20
22.0638
 30
0.0
 11
29.3949
 21
21.0826
 31
0.0
  0
LINE
  8
0
 62
     0
 10
29.3949
 20
21.0826
 30
0.0
 11
32.694
 21
21.0826
 31
0.0
  0
LINE
  8
0
 62
     0
 10
32.694
 20
21.0826
 30
0.0
 11
32.694
 21
22.0638
 31
0.0
  0
LINE
  8
0
 62
     0
 10
32.694
 20
22.0638
 30
0.0
 11
34.4193
 21
22.0638
 31
0.0
  0
LINE
  8
0
 62
     0
 10
34.4193
 20
22.0638
 30
0.0
 11
34.4193
 21
28.3338
 31
0.0
  0
LINE
  8
0
 62
     0
 10
34.4193
 20
28.3338
 30
0.0
 11
35.2447
 21
28.3338
 31
0.0
  0
LINE
  8
0
 62
     0
 10
35.2447
 20
28.3338
 30
0.0
 11
35.2447
 21
31.1326
 31
0.0
  0
LINE
  8
0
 62
     0
 10
35.2447
 20
31.1326
 30
0.0
 11
34.4193
 21
31.1326
 31
0.0
  0
LINE
  8
0
 62
     0
 10
34.4193
 20
31.1326
 30
0.0
 11
34.4193
 21
34.3628
 31
0.0
  0
LINE
  8
0
 62
     0
 10
34.4193
 20
34.3628
 30
0.0
 11
32.694
 21
34.3628
 31
0.0
  0
LINE
  8
0
 62
     0
 10
32.694
 20
34.3628
 30
0.0
 11
32.694
 21
35.2834
 31
0.0
  0
LINE
  8
0
 62
     0
 10
32.694
 20
35.2834
 30
0.0
 11
29.3949
 21
35.2834
 31
0.0
  0
LINE
  8
0
 62
     0
 10
29.3949
 20
35.2834
 30
0.0
 11
29.3949
 21
34.3628
 31
0.0
  0
LINE
  8
0
 62
     0
 10
29.3949
 20
34.3628
 30
0.0
 11
27.6696
 21
34.3628
 31
0.0
  0
LINE
  8
0
 62
     0
 10
27.6696
 20
34.3628
 30
0.0
 11
27.6696
 21
31.1326
 31
0.0
  0
LINE
  8
0
 62
     0
 10
27.6696
 20
31.1326
 30
0.0
 11
26.1441
 21
31.1326
 31
0.0
  0
LINE
  8
0
 62
     0
 10
26.1441
 20
31.1326
 30
0.0
 11
26.1441
 21
35.833
 31
0.0
  0
LINE
  8
0
 62
     0
 10
26.1441
 20
35.833
 30
0.0
 11
12.1447
 21
35.833
 31
0.0
  0
LINE
  8
0
 62
     0
 10
240.745
 20
35.833
 30
0.0
 11
240.745
 21
31.1326
 31
0.0
  0
LINE
  8
0
 62
     0
 10
240.745
 20
31.1326
 30
0.0
 11
239.219
 21
31.1326
 31
0.0
  0
LINE
  8
0
 62
     0
 10
239.219
 20
31.1326
 30
0.0
 11
239.219
 21
34.3628
 31
0.0
  0
LINE
  8
0
 62
     0
 10
239.219
 20
34.3628
 30
0.0
 11
237.494
 21
34.3628
 31
0.0
  0
LINE
  8
0
 62
     0
 10
237.494
 20
34.3628
 30
0.0
 11
237.494
 21
35.2834
 31
0.0
  0
LINE
  8
0
 62
     0
 10
237.494
 20
35.2834
 30
0.0
 11
234.195
 21
35.2834
 31
0.0
  0
LINE
  8
0
 62
     0
 10
234.195
 20
35.2834
 30
0.0
 11
234.195
 21
34.3628
 31
0.0
  0
LINE
  8
0
 62
     0
 10
234.195
 20
34.3628
 30
0.0
 11
232.47
 21
34.3628
 31
0.0
  0
LINE
  8
0
 62
     0
 10
232.47
 20
34.3628
 30
0.0
 11
232.47
 21
31.1326
 31
0.0
  0
LINE
  8
0
 62
     0
 10
232.47
 20
31.1326
 30
0.0
 11
231.644
 21
31.1326
 31
0.0
  0
LINE
  8
0
 62
     0
 10
231.644
 20
31.1326
 30
0.0
 11
231.644
 21
28.3338
 31
0.0
  0
LINE
  8
0
 62
     0
 10
231.644
 20
28.3338
 30
0.0
 11
232.47
 21
28.3338
 31
0.0
  0
LINE
  8
0
 62
     0
 10
232.47
 20
28.3338
 30
0.0
 11
232.47
 21
22.0638
 31
0.0
  0
LINE
  8
0
 62
     0
 10
232.47
 20
22.0638
 30
0.0
 11
234.195
 21
22.0638
 31
0.0
  0
LINE
  8
0
 62
     0
 10
234.195
 20
22.0638
 30
0.0
 11
234.195
 21
21.0826
 31
0.0
  0
LINE
  8
0
 62
     0
 10
234.195
 20
21.0826
 30
0.0
 11
237.494
 21
21.0826
 31
0.0
  0
LINE
  8
0
 62
     0
 10
237.494
 20
21.0826
 30
0.0
 11
237.494
 21
22.0638
 31
0.0
  0
LINE
  8
0
 62
     0
 10
237.494
 20
22.0638
 30
0.0
 11
239.219
 21
22.0638
 31
0.0
  0
LINE
  8
0
 62
     0
 10
239.219
 20
22.0638
 30
0.0
 11
239.219
 21
26.5327
 31
0.0
  0
LINE
  8
0
 62
     0
 10
239.219
 20
26.5327
 30
0.0
 11
240.745
 21
26.5327
 31
0.0
  0
LINE
  8
0
 62
     0
 10
240.745
 20
26.5327
 30
0.0
 11
240.745
 21
21.8336
 31
0.0
  0
LINE
  8
0
 62
     0
 10
240.745
 20
21.8336
 30
0.0
 11
254.744
 21
21.8336
 31
0.0
  0
LINE
  8
0
 62
     0
 10
254.744
 20
21.8336
 30
0.0
 11
254.744
 21
26.5327
 31
0.0
  0
LINE
  8
0
 62
     0
 10
254.744
 20
26.5327
 30
0.0
 11
256.27
 21
26.5327
 31
0.0
  0
LINE
  8
0
 62
     0
 10
256.27
 20
26.5327
 30
0.0
 11
256.27
 21
22.0638
 31
0.0
  0
LINE
  8
0
 62
     0
 10
256.27
 20
22.0638
 30
0.0
 11
257.995
 21
22.0638
 31
0.0
  0
LINE
  8
0
 62
     0
 10
257.995
 20
22.0638
 30
0.0
 11
257.995
 21
21.0826
 31
0.0
  0
LINE
  8
0
 62
     0
 10
257.995
 20
21.0826
 30
0.0
 11
261.294
 21
21.0826
 31
0.0
  0
LINE
  8
0
 62
     0
 10
261.294
 20
21.0826
 30
0.0
 11
261.294
 21
22.0638
 31
0.0
  0
LINE
  8
0
 62
     0
 10
261.294
 20
22.0638
 30
0.0
 11
263.019
 21
22.0638
 31
0.0
  0
LINE
  8
0
 62
     0
 10
263.019
 20
22.0638
 30
0.0
 11
263.019
 21
28.3338
 31
0.0
  0
LINE
  8
0
 62
     0
 10
263.019
 20
28.3338
 30
0.0
 11
263.845
 21
28.3338
 31
0.0
  0
LINE
  8
0
 62
     0
 10
263.845
 20
28.3338
 30
0.0
 11
263.845
 21
31.1326
 31
0.0
  0
LINE
  8
0
 62
     0
 10
263.845
 20
31.1326
 30
0.0
 11
263.019
 21
31.1326
 31
0.0
  0
LINE
  8
0
 62
     0
 10
263.019
 20
31.1326
 30
0.0
 11
263.019
 21
34.3628
 31
0.0
  0
LINE
  8
0
 62
     0
 10
263.019
 20
34.3628
 30
0.0
 11
261.294
 21
34.3628
 31
0.0
  0
LINE
  8
0
 62
     0
 10
261.294
 20
34.3628
 30
0.0
 11
261.294
 21
35.2834
 31
0.0
  0
LINE
  8
0
 62
     0
 10
261.294
 20
35.2834
 30
0.0
 11
257.995
 21
35.2834
 31
0.0
  0
LINE
  8
0
 62
     0
 10
257.995
 20
35.2834
 30
0.0
 11
257.995
 21
34.3628
 31
0.0
  0
LINE
  8
0
 62
     0
 10
257.995
 20
34.3628
 30
0.0
 11
256.27
 21
34.3628
 31
0.0
  0
LINE
  8
0
 62
     0
 10
256.27
 20
34.3628
 30
0.0
 11
256.27
 21
31.1326
 31
0.0
  0
LINE
  8
0
 62
     0
 10
256.27
 20
31.1326
 30
0.0
 11
254.744
 21
31.1326
 31
0.0
  0
LINE
  8
0
 62
     0
 10
254.744
 20
31.1326
 30
0.0
 11
254.744
 21
35.833
 31
0.0
  0
LINE
  8
0
 62
     0
 10
254.744
 20
35.833
 30
0.0
 11
240.745
 21
35.833
 31
0.0
  0
LINE
  8
0
 62
     0
 10
40.7197
 20
35.833
 30
0.0
 11
54.719
 21
35.833
 31
0.0
  0
LINE
  8
0
 62
     0
 10
54.719
 20
35.833
 30
0.0
 11
54.719
 21
21.8336
 31
0.0
  0
LINE
  8
0
 62
     0
 10
54.719
 20
21.8336
 30
0.0
 11
40.7197
 21
21.8336
 31
0.0
  0
LINE
  8
0
 62
     0
 10
40.7197
 20
21.8336
 30
0.0
 11
40.7197
 21
35.833
 31
0.0
  0
LINE
  8
0
 62
     0
 10
59.7697
 20
35.833
 30
0.0
 11
73.769
 21
35.833
 31
0.0
  0
LINE
  8
0
 62
     0
 10
73.769
 20
35.833
 30
0.0
 11
73.769
 21
21.8336
 31
0.0
  0
LINE
  8
0
 62
     0
 10
73.769
 20
21.8336
 30
0.0
 11
59.7697
 21
21.8336
 31
0.0
  0
LINE
  8
0
 62
     0
 10
59.7697
 20
21.8336
 30
0.0
 11
59.7697
 21
35.833
 31
0.0
  0
LINE
  8
0
 62
     0
 10
78.8197
 20
35.833
 30
0.0
 11
92.819
 21
35.833
 31
0.0
  0
LINE
  8
0
 62
     0
 10
92.819
 20
35.833
 30
0.0
 11
92.819
 21
21.8336
 31
0.0
  0
LINE
  8
0
 62
     0
 10
92.819
 20
21.8336
 30
0.0
 11
78.8197
 21
21.8336
 31
0.0
  0
LINE
  8
0
 62
     0
 10
78.8197
 20
21.8336
 30
0.0
 11
78.8197
 21
35.833
 31
0.0
  0
LINE
  8
0
 62
     0
 10
97.8683
 20
35.833
 30
0.0
 11
111.869
 21
35.833
 31
0.0
  0
LINE
  8
0
 62
     0
 10
111.869
 20
35.833
 30
0.0
 11
111.869
 21
21.8336
 31
0.0
  0
LINE
  8
0
 62
     0
 10
111.869
 20
21.8336
 30
0.0
 11
97.8683
 21
21.8336
 31
0.0
  0
LINE
  8
0
 62
     0
 10
97.8683
 20
21.8336
 30
0.0
 11
97.8683
 21
35.833
 31
0.0
  0
LINE
  8
0
 62
     0
 10
116.918
 20
35.833
 30
0.0
 11
130.919
 21
35.833
 31
0.0
  0
LINE
  8
0
 62
     0
 10
130.919
 20
35.833
 30
0.0
 11
130.919
 21
21.8336
 31
0.0
  0
LINE
  8
0
 62
     0
 10
130.919
 20
21.8336
 30
0.0
 11
116.918
 21
21.8336
 31
0.0
  0
LINE
  8
0
 62
     0
 10
116.918
 20
21.8336
 30
0.0
 11
116.918
 21
35.833
 31
0.0
  0
LINE
  8
0
 62
     0
 10
135.97
 20
35.833
 30
0.0
 11
149.969
 21
35.833
 31
0.0
  0
LINE
  8
0
 62
     0
 10
149.969
 20
35.833
 30
0.0
 11
149.969
 21
21.8336
 31
0.0
  0
LINE
  8
0
 62
     0
 10
149.969
 20
21.8336
 30
0.0
 11
135.97
 21
21.8336
 31
0.0
  0
LINE
  8
0
 62
     0
 10
135.97
 20
21.8336
 30
0.0
 11
135.97
 21
35.833
 31
0.0
  0
LINE
  8
0
 62
     0
 10
155.02
 20
35.833
 30
0.0
 11
169.019
 21
35.833
 31
0.0
  0
LINE
  8
0
 62
     0
 10
169.019
 20
35.833
 30
0.0
 11
169.019
 21
21.8336
 31
0.0
  0
LINE
  8
0
 62
     0
 10
169.019
 20
21.8336
 30
0.0
 11
155.02
 21
21.8336
 31
0.0
  0
LINE
  8
0
 62
     0
 10
155.02
 20
21.8336
 30
0.0
 11
155.02
 21
35.833
 31
0.0
  0
LINE
  8
0
 62
     0
 10
174.07
 20
35.833
 30
0.0
 11
188.069
 21
35.833
 31
0.0
  0
LINE
  8
0
 62
     0
 10
188.069
 20
35.833
 30
0.0
 11
188.069
 21
21.8336
 31
0.0
  0
LINE
  8
0
 62
     0
 10
188.069
 20
21.8336
 30
0.0
 11
174.07
 21
21.8336
 31
0.0
  0
LINE
  8
0
 62
     0
 10
174.07
 20
21.8336
 30
0.0
 11
174.07
 21
35.833
 31
0.0
  0
LINE
  8
0
 62
     0
 10
193.12
 20
35.833
 30
0.0
 11
207.119
 21
35.833
 31
0.0
  0
LINE
  8
0
 62
     0
 10
207.119
 20
35.833
 30
0.0
 11
207.119
 21
21.8336
 31
0.0
  0
LINE
  8
0
 62
     0
 10
207.119
 20
21.8336
 30
0.0
 11
193.12
 21
21.8336
 31
0.0
  0
LINE
  8
0
 62
     0
 10
193.12
 20
21.8336
 30
0.0
 11
193.12
 21
35.833
 31
0.0
  0
LINE
  8
0
 62
     0
 10
212.17
 20
35.833
 30
0.0
 11
226.169
 21
35.833
 31
0.0
  0
LINE
  8
0
 62
     0
 10
226.169
 20
35.833
 30
0.0
 11
226.169
 21
21.8336
 31
0.0
  0
LINE
  8
0
 62
     0
 10
226.169
 20
21.8336
 30
0.0
 11
212.17
 21
21.8336
 31
0.0
  0
LINE
  8
0
 62
     0
 10
212.17
 20
21.8336
 30
0.0
 11
212.17
 21
35.833
 31
0.0
  0
LINE
  8
0
 62
     0
 10
7.38216
 20
54.8831
 30
0.0
 11
21.3817
 21
54.8831
 31
0.0
  0
LINE
  8
0
 62
     0
 10
21.3817
 20
54.8831
 30
0.0
 11
21.3817
 21
40.8838
 31
0.0
  0
LINE
  8
0
 62
     0
 10
21.3817
 20
40.8838
 30
0.0
 11
7.38216
 21
40.8838
 31
0.0
  0
LINE
  8
0
 62
     0
 10
7.38216
 20
40.8838
 30
0.0
 11
7.38216
 21
54.8831
 31
0.0
  0
LINE
  8
0
 62
     0
 10
31.1947
 20
54.8831
 30
0.0
 11
45.194
 21
54.8831
 31
0.0
  0
LINE
  8
0
 62
     0
 10
45.194
 20
54.8831
 30
0.0
 11
45.194
 21
40.8838
 31
0.0
  0
LINE
  8
0
 62
     0
 10
45.194
 20
40.8838
 30
0.0
 11
31.1947
 21
40.8838
 31
0.0
  0
LINE
  8
0
 62
     0
 10
31.1947
 20
40.8838
 30
0.0
 11
31.1947
 21
54.8831
 31
0.0
  0
LINE
  8
0
 62
     0
 10
50.2447
 20
54.8831
 30
0.0
 11
64.244
 21
54.8831
 31
0.0
  0
LINE
  8
0
 62
     0
 10
64.244
 20
54.8831
 30
0.0
 11
64.244
 21
40.8838
 31
0.0
  0
LINE
  8
0
 62
     0
 10
64.244
 20
40.8838
 30
0.0
 11
50.2447
 21
40.8838
 31
0.0
  0
LINE
  8
0
 62
     0
 10
50.2447
 20
40.8838
 30
0.0
 11
50.2447
 21
54.8831
 31
0.0
  0
LINE
  8
0
 62
     0
 10
69.2947
 20
54.8831
 30
0.0
 11
83.294
 21
54.8831
 31
0.0
  0
LINE
  8
0
 62
     0
 10
83.294
 20
54.8831
 30
0.0
 11
83.294
 21
40.8838
 31
0.0
  0
LINE
  8
0
 62
     0
 10
83.294
 20
40.8838
 30
0.0
 11
69.2947
 21
40.8838
 31
0.0
  0
LINE
  8
0
 62
     0
 10
69.2947
 20
40.8838
 30
0.0
 11
69.2947
 21
54.8831
 31
0.0
  0
LINE
  8
0
 62
     0
 10
88.3447
 20
54.8831
 30
0.0
 11
102.344
 21
54.8831
 31
0.0
  0
LINE
  8
0
 62
     0
 10
102.344
 20
54.8831
 30
0.0
 11
102.344
 21
40.8838
 31
0.0
  0
LINE
  8
0
 62
     0
 10
102.344
 20
40.8838
 30
0.0
 11
88.3447
 21
40.8838
 31
0.0
  0
LINE
  8
0
 62
     0
 10
88.3447
 20
40.8838
 30
0.0
 11
88.3447
 21
54.8831
 31
0.0
  0
LINE
  8
0
 62
     0
 10
107.395
 20
54.8831
 30
0.0
 11
121.394
 21
54.8831
 31
0.0
  0
LINE
  8
0
 62
     0
 10
121.394
 20
54.8831
 30
0.0
 11
121.394
 21
40.8838
 31
0.0
  0
LINE
  8
0
 62
     0
 10
121.394
 20
40.8838
 30
0.0
 11
107.395
 21
40.8838
 31
0.0
  0
LINE
  8
0
 62
     0
 10
107.395
 20
40.8838
 30
0.0
 11
107.395
 21
54.8831
 31
0.0
  0
LINE
  8
0
 62
     0
 10
126.445
 20
54.8831
 30
0.0
 11
140.444
 21
54.8831
 31
0.0
  0
LINE
  8
0
 62
     0
 10
140.444
 20
54.8831
 30
0.0
 11
140.444
 21
40.8838
 31
0.0
  0
LINE
  8
0
 62
     0
 10
140.444
 20
40.8838
 30
0.0
 11
126.445
 21
40.8838
 31
0.0
  0
LINE
  8
0
 62
     0
 10
126.445
 20
40.8838
 30
0.0
 11
126.445
 21
54.8831
 31
0.0
  0
LINE
  8
0
 62
     0
 10
145.495
 20
54.8831
 30
0.0
 11
159.494
 21
54.8831
 31
0.0
  0
LINE
  8
0
 62
     0
 10
159.494
 20
54.8831
 30
0.0
 11
159.494
 21
40.8838
 31
0.0
  0
LINE
  8
0
 62
     0
 10
159.494
 20
40.8838
 30
0.0
 11
145.495
 21
40.8838
 31
0.0
  0
LINE
  8
0
 62
     0
 10
145.495
 20
40.8838
 30
0.0
 11
145.495
 21
54.8831
 31
0.0
  0
LINE
  8
0
 62
     0
 10
164.545
 20
54.8831
 30
0.0
 11
178.544
 21
54.8831
 31
0.0
  0
LINE
  8
0
 62
     0
 10
178.544
 20
54.8831
 30
0.0
 11
178.544
 21
40.8838
 31
0.0
  0
LINE
  8
0
 62
     0
 10
178.544
 20
40.8838
 30
0.0
 11
164.545
 21
40.8838
 31
0.0
  0
LINE
  8
0
 62
     0
 10
164.545
 20
40.8838
 30
0.0
 11
164.545
 21
54.8831
 31
0.0
  0
LINE
  8
0
 62
     0
 10
183.595
 20
54.8831
 30
0.0
 11
197.594
 21
54.8831
 31
0.0
  0
LINE
  8
0
 62
     0
 10
197.594
 20
54.8831
 30
0.0
 11
197.594
 21
40.8838
 31
0.0
  0
LINE
  8
0
 62
     0
 10
197.594
 20
40.8838
 30
0.0
 11
183.595
 21
40.8838
 31
0.0
  0
LINE
  8
0
 62
     0
 10
183.595
 20
40.8838
 30
0.0
 11
183.595
 21
54.8831
 31
0.0
  0
LINE
  8
0
 62
     0
 10
202.645
 20
54.8831
 30
0.0
 11
216.644
 21
54.8831
 31
0.0
  0
LINE
  8
0
 62
     0
 10
216.644
 20
54.8831
 30
0.0
 11
216.644
 21
40.8838
 31
0.0
  0
LINE
  8
0
 62
     0
 10
216.644
 20
40.8838
 30
0.0
 11
202.645
 21
40.8838
 31
0.0
  0
LINE
  8
0
 62
     0
 10
202.645
 20
40.8838
 30
0.0
 11
202.645
 21
54.8831
 31
0.0
  0
LINE
  8
0
 62
     0
 10
221.695
 20
54.8831
 30
0.0
 11
235.694
 21
54.8831
 31
0.0
  0
LINE
  8
0
 62
     0
 10
235.694
 20
54.8831
 30
0.0
 11
235.694
 21
40.8838
 31
0.0
  0
LINE
  8
0
 62
     0
 10
235.694
 20
40.8838
 30
0.0
 11
221.695
 21
40.8838
 31
0.0
  0
LINE
  8
0
 62
     0
 10
221.695
 20
40.8838
 30
0.0
 11
221.695
 21
54.8831
 31
0.0
  0
LINE
  8
0
 62
     0
 10
245.507
 20
54.8831
 30
0.0
 11
259.507
 21
54.8831
 31
0.0
  0
LINE
  8
0
 62
     0
 10
259.507
 20
54.8831
 30
0.0
 11
259.507
 21
40.8838
 31
0.0
  0
LINE
  8
0
 62
     0
 10
259.507
 20
40.8838
 30
0.0
 11
245.507
 21
40.8838
 31
0.0
  0
LINE
  8
0
 62
     0
 10
245.507
 20
40.8838
 30
0.0
 11
245.507
 21
54.8831
 31
0.0
  0
LINE
  8
0
 62
     0
 10
2.61965
 20
73.9331
 30
0.0
 11
16.6192
 21
73.9331
 31
0.0
  0
LINE
  8
0
 62
     0
 10
16.6192
 20
73.9331
 30
0.0
 11
16.6192
 21
59.9338
 31
0.0
  0
LINE
  8
0
 62
     0
 10
16.6192
 20
59.9338
 30
0.0
 11
2.61965
 21
59.9338
 31
0.0
  0
LINE
  8
0
 62
     0
 10
2.61965
 20
59.9338
 30
0.0
 11
2.61965
 21
73.9331
 31
0.0
  0
LINE
  8
0
 62
     0
 10
21.6697
 20
73.9331
 30
0.0
 11
35.669
 21
73.9331
 31
0.0
  0
LINE
  8
0
 62
     0
 10
35.669
 20
73.9331
 30
0.0
 11
35.669
 21
59.9338
 31
0.0
  0
LINE
  8
0
 62
     0
 10
35.669
 20
59.9338
 30
0.0
 11
21.6697
 21
59.9338
 31
0.0
  0
LINE
  8
0
 62
     0
 10
21.6697
 20
59.9338
 30
0.0
 11
21.6697
 21
73.9331
 31
0.0
  0
LINE
  8
0
 62
     0
 10
40.7197
 20
73.9331
 30
0.0
 11
54.719
 21
73.9331
 31
0.0
  0
LINE
  8
0
 62
     0
 10
54.719
 20
73.9331
 30
0.0
 11
54.719
 21
59.9338
 31
0.0
  0
LINE
  8
0
 62
     0
 10
54.719
 20
59.9338
 30
0.0
 11
40.7197
 21
59.9338
 31
0.0
  0
LINE
  8
0
 62
     0
 10
40.7197
 20
59.9338
 30
0.0
 11
40.7197
 21
73.9331
 31
0.0
  0
LINE
  8
0
 62
     0
 10
59.7697
 20
73.9331
 30
0.0
 11
73.769
 21
73.9331
 31
0.0
  0
LINE
  8
0
 62
     0
 10
73.769
 20
73.9331
 30
0.0
 11
73.769
 21
59.9338
 31
0.0
  0
LINE
  8
0
 62
     0
 10
73.769
 20
59.9338
 30
0.0
 11
59.7697
 21
59.9338
 31
0.0
  0
LINE
  8
0
 62
     0
 10
59.7697
 20
59.9338
 30
0.0
 11
59.7697
 21
73.9331
 31
0.0
  0
LINE
  8
0
 62
     0
 10
78.8197
 20
73.9331
 30
0.0
 11
92.819
 21
73.9331
 31
0.0
  0
LINE
  8
0
 62
     0
 10
92.819
 20
73.9331
 30
0.0
 11
92.819
 21
59.9338
 31
0.0
  0
LINE
  8
0
 62
     0
 10
92.819
 20
59.9338
 30
0.0
 11
78.8197
 21
59.9338
 31
0.0
  0
LINE
  8
0
 62
     0
 10
78.8197
 20
59.9338
 30
0.0
 11
78.8197
 21
73.9331
 31
0.0
  0
LINE
  8
0
 62
     0
 10
97.8683
 20
73.9331
 30
0.0
 11
111.869
 21
73.9331
 31
0.0
  0
LINE
  8
0
 62
     0
 10
111.869
 20
73.9331
 30
0.0
 11
111.869
 21
59.9338
 31
0.0
  0
LINE
  8
0
 62
     0
 10
111.869
 20
59.9338
 30
0.0
 11
97.8683
 21
59.9338
 31
0.0
  0
LINE
  8
0
 62
     0
 10
97.8683
 20
59.9338
 30
0.0
 11
97.8683
 21
73.9331
 31
0.0
  0
LINE
  8
0
 62
     0
 10
116.918
 20
73.9331
 30
0.0
 11
130.919
 21
73.9331
 31
0.0
  0
LINE
  8
0
 62
     0
 10
130.919
 20
73.9331
 30
0.0
 11
130.919
 21
59.9338
 31
0.0
  0
LINE
  8
0
 62
     0
 10
130.919
 20
59.9338
 30
0.0
 11
116.918
 21
59.9338
 31
0.0
  0
LINE
  8
0
 62
     0
 10
116.918
 20
59.9338
 30
0.0
 11
116.918
 21
73.9331
 31
0.0
  0
LINE
  8
0
 62
     0
 10
135.97
 20
73.9331
 30
0.0
 11
149.969
 21
73.9331
 31
0.0
  0
LINE
  8
0
 62
     0
 10
149.969
 20
73.9331
 30
0.0
 11
149.969
 21
59.9338
 31
0.0
  0
LINE
  8
0
 62
     0
 10
149.969
 20
59.9338
 30
0.0
 11
135.97
 21
59.9338
 31
0.0
  0
LINE
  8
0
 62
     0
 10
135.97
 20
59.9338
 30
0.0
 11
135.97
 21
73.9331
 31
0.0
  0
LINE
  8
0
 62
     0
 10
155.02
 20
73.9331
 30
0.0
 11
169.019
 21
73.9331
 31
0.0
  0
LINE
  8
0
 62
     0
 10
169.019
 20
73.9331
 30
0.0
 11
169.019
 21
59.9338
 31
0.0
  0
LINE
  8
0
 62
     0
 10
169.019
 20
59.9338
 30
0.0
 11
155.02
 21
59.9338
 31
0.0
  0
LINE
  8
0
 62
     0
 10
155.02
 20
59.9338
 30
0.0
 11
155.02
 21
73.9331
 31
0.0
  0
LINE
  8
0
 62
     0
 10
174.07
 20
73.9331
 30
0.0
 11
188.069
 21
73.9331
 31
0.0
  0
LINE
  8
0
 62
     0
 10
188.069
 20
73.9331
 30
0.0
 11
188.069
 21
59.9338
 31
0.0
  0
LINE
  8
0
 62
     0
 10
188.069
 20
59.9338
 30
0.0
 11
174.07
 21
59.9338
 31
0.0
  0
LINE
  8
0
 62
     0
 10
174.07
 20
59.9338
 30
0.0
 11
174.07
 21
73.9331
 31
0.0
  0
LINE
  8
0
 62
     0
 10
193.12
 20
73.9331
 30
0.0
 11
207.119
 21
73.9331
 31
0.0
  0
LINE
  8
0
 62
     0
 10
207.119
 20
73.9331
 30
0.0
 11
207.119
 21
59.9338
 31
0.0
  0
LINE
  8
0
 62
     0
 10
207.119
 20
59.9338
 30
0.0
 11
193.12
 21
59.9338
 31
0.0
  0
LINE
  8
0
 62
     0
 10
193.12
 20
59.9338
 30
0.0
 11
193.12
 21
73.9331
 31
0.0
  0
LINE
  8
0
 62
     0
 10
212.17
 20
73.9331
 30
0.0
 11
226.169
 21
73.9331
 31
0.0
  0
LINE
  8
0
 62
     0
 10
226.169
 20
73.9331
 30
0.0
 11
226.169
 21
59.9338
 31
0.0
  0
LINE
  8
0
 62
     0
 10
226.169
 20
59.9338
 30
0.0
 11
212.17
 21
59.9338
 31
0.0
  0
LINE
  8
0
 62
     0
 10
212.17
 20
59.9338
 30
0.0
 11
212.17
 21
73.9331
 31
0.0
  0
LINE
  8
0
 62
     0
 10
231.22
 20
73.9331
 30
0.0
 11
245.219
 21
73.9331
 31
0.0
  0
LINE
  8
0
 62
     0
 10
245.219
 20
73.9331
 30
0.0
 11
245.219
 21
59.9338
 31
0.0
  0
LINE
  8
0
 62
     0
 10
245.219
 20
59.9338
 30
0.0
 11
231.22
 21
59.9338
 31
0.0
  0
LINE
  8
0
 62
     0
 10
231.22
 20
59.9338
 30
0.0
 11
231.22
 21
73.9331
 31
0.0
  0
LINE
  8
0
 62
     0
 10
250.27
 20
73.9331
 30
0.0
 11
264.269
 21
73.9331
 31
0.0
  0
LINE
  8
0
 62
     0
 10
264.269
 20
73.9331
 30
0.0
 11
264.269
 21
59.9338
 31
0.0
  0
LINE
  8
0
 62
     0
 10
264.269
 20
59.9338
 30
0.0
 11
250.27
 21
59.9338
 31
0.0
  0
LINE
  8
0
 62
     0
 10
250.27
 20
59.9338
 30
0.0
 11
250.27
 21
73.9331
 31
0.0
  0
ENDSEC
  0
EOF
