G04 #@! TF.GenerationSoftware,KiCad,Pcbnew,9.0.0*
G04 #@! TF.CreationDate,2026-05-10T02:55:57+09:00*
G04 #@! TF.ProjectId,keyboard,6b657962-6f61-4726-942e-6b696361645f,rev?*
G04 #@! TF.SameCoordinates,Original*
G04 #@! TF.FileFunction,Paste,Bot*
G04 #@! TF.FilePolarity,Positive*
%FSLAX46Y46*%
G04 Gerber Fmt 4.6, Leading zero omitted, Abs format (unit mm)*
G04 Created by KiCad (PCBNEW 9.0.0) date 2026-05-10 02:55:57*
%MOMM*%
%LPD*%
G01*
G04 APERTURE LIST*
G04 Aperture macros list*
%AMRoundRect*
0 Rectangle with rounded corners*
0 $1 Rounding radius*
0 $2 $3 $4 $5 $6 $7 $8 $9 X,Y pos of 4 corners*
0 Add a 4 corners polygon primitive as box body*
4,1,4,$2,$3,$4,$5,$6,$7,$8,$9,$2,$3,0*
0 Add four circle primitives for the rounded corners*
1,1,$1+$1,$2,$3*
1,1,$1+$1,$4,$5*
1,1,$1+$1,$6,$7*
1,1,$1+$1,$8,$9*
0 Add four rect primitives between the rounded corners*
20,1,$1+$1,$2,$3,$4,$5,0*
20,1,$1+$1,$4,$5,$6,$7,0*
20,1,$1+$1,$6,$7,$8,$9,0*
20,1,$1+$1,$8,$9,$2,$3,0*%
G04 Aperture macros list end*
%ADD10RoundRect,0.225000X0.225000X0.375000X-0.225000X0.375000X-0.225000X-0.375000X0.225000X-0.375000X0*%
G04 APERTURE END LIST*
D10*
G04 #@! TO.C,D36*
X202062500Y-67550000D03*
X198762500Y-67550000D03*
G04 #@! TD*
G04 #@! TO.C,D27*
X273500000Y-48500000D03*
X270200000Y-48500000D03*
G04 #@! TD*
G04 #@! TO.C,D17*
X78237500Y-48500000D03*
X74937500Y-48500000D03*
G04 #@! TD*
G04 #@! TO.C,D5*
X106812500Y-29450000D03*
X103512500Y-29450000D03*
G04 #@! TD*
G04 #@! TO.C,D16*
X59187500Y-48500000D03*
X55887500Y-48500000D03*
G04 #@! TD*
G04 #@! TO.C,D33*
X144912500Y-67550000D03*
X141612500Y-67550000D03*
G04 #@! TD*
G04 #@! TO.C,D35*
X183012500Y-67550000D03*
X179712500Y-67550000D03*
G04 #@! TD*
G04 #@! TO.C,D10*
X202062500Y-29450000D03*
X198762500Y-29450000D03*
G04 #@! TD*
G04 #@! TO.C,D44*
X149675000Y-86600000D03*
X146375000Y-86600000D03*
G04 #@! TD*
G04 #@! TO.C,D38*
X240162500Y-67550000D03*
X236862500Y-67550000D03*
G04 #@! TD*
G04 #@! TO.C,D22*
X173487500Y-48500000D03*
X170187500Y-48500000D03*
G04 #@! TD*
G04 #@! TO.C,D28*
X40137500Y-67550000D03*
X36837500Y-67550000D03*
G04 #@! TD*
G04 #@! TO.C,D41*
X52043750Y-86600000D03*
X48743750Y-86600000D03*
G04 #@! TD*
G04 #@! TO.C,D3*
X68712500Y-29450000D03*
X65412500Y-29450000D03*
G04 #@! TD*
G04 #@! TO.C,D9*
X183012500Y-29450000D03*
X179712500Y-29450000D03*
G04 #@! TD*
G04 #@! TO.C,D43*
X113956250Y-86600000D03*
X110656250Y-86600000D03*
G04 #@! TD*
G04 #@! TO.C,D1*
X30612500Y-29450000D03*
X27312500Y-29450000D03*
G04 #@! TD*
G04 #@! TO.C,D24*
X211587500Y-48500000D03*
X208287500Y-48500000D03*
G04 #@! TD*
G04 #@! TO.C,D42*
X75856250Y-86600000D03*
X72556250Y-86600000D03*
G04 #@! TD*
G04 #@! TO.C,D25*
X230637500Y-48500000D03*
X227337500Y-48500000D03*
G04 #@! TD*
G04 #@! TO.C,D18*
X97287500Y-48500000D03*
X93987500Y-48500000D03*
G04 #@! TD*
G04 #@! TO.C,D39*
X268737500Y-67550000D03*
X265437500Y-67550000D03*
G04 #@! TD*
G04 #@! TO.C,D37*
X221112500Y-67550000D03*
X217812500Y-67550000D03*
G04 #@! TD*
G04 #@! TO.C,D40*
X30612500Y-86600000D03*
X27312500Y-86600000D03*
G04 #@! TD*
G04 #@! TO.C,D47*
X240162500Y-86600000D03*
X236862500Y-86600000D03*
G04 #@! TD*
G04 #@! TO.C,D13*
X259212500Y-29450000D03*
X255912500Y-29450000D03*
G04 #@! TD*
G04 #@! TO.C,D34*
X163962500Y-67550000D03*
X160662500Y-67550000D03*
G04 #@! TD*
G04 #@! TO.C,D31*
X106812500Y-67550000D03*
X103512500Y-67550000D03*
G04 #@! TD*
G04 #@! TO.C,D21*
X154437500Y-48500000D03*
X151137500Y-48500000D03*
G04 #@! TD*
G04 #@! TO.C,D46*
X221112500Y-86600000D03*
X217812500Y-86600000D03*
G04 #@! TD*
G04 #@! TO.C,D32*
X125862500Y-67550000D03*
X122562500Y-67550000D03*
G04 #@! TD*
G04 #@! TO.C,D12*
X240162500Y-29450000D03*
X236862500Y-29450000D03*
G04 #@! TD*
G04 #@! TO.C,D7*
X144912500Y-29450000D03*
X141612500Y-29450000D03*
G04 #@! TD*
G04 #@! TO.C,D48*
X259212500Y-86600000D03*
X255912500Y-86600000D03*
G04 #@! TD*
G04 #@! TO.C,D8*
X163962500Y-29450000D03*
X160662500Y-29450000D03*
G04 #@! TD*
G04 #@! TO.C,D19*
X116337500Y-48500000D03*
X113037500Y-48500000D03*
G04 #@! TD*
G04 #@! TO.C,D4*
X87762500Y-29450000D03*
X84462500Y-29450000D03*
G04 #@! TD*
G04 #@! TO.C,D15*
X35375000Y-48500000D03*
X32075000Y-48500000D03*
G04 #@! TD*
G04 #@! TO.C,D26*
X249687500Y-48500000D03*
X246387500Y-48500000D03*
G04 #@! TD*
G04 #@! TO.C,D2*
X49662500Y-29450000D03*
X46362500Y-29450000D03*
G04 #@! TD*
G04 #@! TO.C,D20*
X135387500Y-48500000D03*
X132087500Y-48500000D03*
G04 #@! TD*
G04 #@! TO.C,D11*
X221112500Y-29450000D03*
X217812500Y-29450000D03*
G04 #@! TD*
G04 #@! TO.C,D14*
X278262500Y-29450000D03*
X274962500Y-29450000D03*
G04 #@! TD*
G04 #@! TO.C,D6*
X125862500Y-29450000D03*
X122562500Y-29450000D03*
G04 #@! TD*
G04 #@! TO.C,D29*
X68712500Y-67550000D03*
X65412500Y-67550000D03*
G04 #@! TD*
G04 #@! TO.C,D45*
X185393750Y-86600000D03*
X182093750Y-86600000D03*
G04 #@! TD*
G04 #@! TO.C,D23*
X192537500Y-48500000D03*
X189237500Y-48500000D03*
G04 #@! TD*
G04 #@! TO.C,D30*
X87762500Y-67550000D03*
X84462500Y-67550000D03*
G04 #@! TD*
G04 #@! TO.C,D49*
X278262500Y-86600000D03*
X274962500Y-86600000D03*
G04 #@! TD*
M02*
