M48
; DRILL file {KiCad 9.0.0} date 2026-05-10T02:55:58+0900
; FORMAT={-:-/ absolute / metric / decimal}
; #@! TF.CreationDate,2026-05-10T02:55:58+09:00
; #@! TF.GenerationSoftware,Kicad,Pcbnew,9.0.0
; #@! TF.FileFunction,NonPlated,1,2,NPTH
FMAT,2
METRIC
; #@! TA.AperFunction,NonPlated,NPTH,ComponentDrill
T1C1.750
; #@! TA.AperFunction,NonPlated,NPTH,ComponentDrill
T2C3.048
; #@! TA.AperFunction,NonPlated,NPTH,ComponentDrill
T3C3.988
; #@! TA.AperFunction,NonPlated,NPTH,ComponentDrill
T4C4.000
%
G90
G05
T1
X18.983Y-23.45
X18.983Y-80.6
X23.745Y-42.5
X28.508Y-61.55
X29.143Y-23.45
X29.143Y-80.6
X33.905Y-42.5
X38.033Y-23.45
X38.668Y-61.55
X40.414Y-80.6
X47.558Y-42.5
X48.193Y-23.45
X50.574Y-80.6
X57.083Y-23.45
X57.083Y-61.55
X57.718Y-42.5
X64.226Y-80.6
X66.608Y-42.5
X67.243Y-23.45
X67.243Y-61.55
X74.386Y-80.6
X76.133Y-23.45
X76.133Y-61.55
X76.768Y-42.5
X85.658Y-42.5
X86.293Y-23.45
X86.293Y-61.55
X95.183Y-23.45
X95.183Y-61.55
X95.818Y-42.5
X102.326Y-80.6
X104.708Y-42.5
X105.343Y-23.45
X105.343Y-61.55
X112.486Y-80.6
X114.233Y-23.45
X114.233Y-61.55
X114.868Y-42.5
X123.758Y-42.5
X124.393Y-23.45
X124.393Y-61.55
X133.283Y-23.45
X133.283Y-61.55
X133.918Y-42.5
X138.045Y-80.6
X142.808Y-42.5
X143.443Y-23.45
X143.443Y-61.55
X148.205Y-80.6
X152.333Y-23.45
X152.333Y-61.55
X152.968Y-42.5
X161.858Y-42.5
X162.493Y-23.45
X162.493Y-61.55
X171.383Y-23.45
X171.383Y-61.55
X172.018Y-42.5
X173.764Y-80.6
X180.908Y-42.5
X181.543Y-23.45
X181.543Y-61.55
X183.924Y-80.6
X190.433Y-23.45
X190.433Y-61.55
X191.068Y-42.5
X199.958Y-42.5
X200.593Y-23.45
X200.593Y-61.55
X209.483Y-23.45
X209.483Y-61.55
X209.483Y-80.6
X210.118Y-42.5
X219.008Y-42.5
X219.643Y-23.45
X219.643Y-61.55
X219.643Y-80.6
X228.533Y-23.45
X228.533Y-61.55
X228.533Y-80.6
X229.168Y-42.5
X238.058Y-42.5
X238.693Y-23.45
X238.693Y-61.55
X238.693Y-80.6
X247.583Y-23.45
X247.583Y-80.6
X248.218Y-42.5
X257.108Y-61.55
X257.743Y-23.45
X257.743Y-80.6
X261.87Y-42.5
X266.633Y-23.45
X266.633Y-80.6
X267.268Y-61.55
X272.03Y-42.5
X276.793Y-23.45
X276.793Y-80.6
T2
X21.65Y-68.535
X45.526Y-68.535
X95.468Y-87.585
X119.344Y-87.585
X166.906Y-87.585
X190.782Y-87.585
X250.25Y-68.535
X274.126Y-68.535
T3
X21.65Y-53.325
X45.526Y-53.325
X95.468Y-72.375
X119.344Y-72.375
X166.906Y-72.375
X190.782Y-72.375
X250.25Y-53.325
X274.126Y-53.325
T4
X24.063Y-23.45
X24.063Y-80.6
X28.825Y-42.5
X33.588Y-61.55
X43.113Y-23.45
X45.494Y-80.6
X52.638Y-42.5
X62.163Y-23.45
X62.163Y-61.55
X69.306Y-80.6
X71.688Y-42.5
X81.213Y-23.45
X81.213Y-61.55
X90.738Y-42.5
X100.263Y-23.45
X100.263Y-61.55
X107.406Y-80.6
X109.788Y-42.5
X119.313Y-23.45
X119.313Y-61.55
X128.838Y-42.5
X138.363Y-23.45
X138.363Y-61.55
X143.125Y-80.6
X147.888Y-42.5
X157.413Y-23.45
X157.413Y-61.55
X166.938Y-42.5
X176.463Y-23.45
X176.463Y-61.55
X178.844Y-80.6
X185.988Y-42.5
X195.513Y-23.45
X195.513Y-61.55
X205.038Y-42.5
X214.563Y-23.45
X214.563Y-61.55
X214.563Y-80.6
X224.088Y-42.5
X233.613Y-23.45
X233.613Y-61.55
X233.613Y-80.6
X243.138Y-42.5
X252.663Y-23.45
X252.663Y-80.6
X262.188Y-61.55
X266.95Y-42.5
X271.713Y-23.45
X271.713Y-80.6
M30
