G04 #@! TF.GenerationSoftware,KiCad,Pcbnew,9.0.0*
G04 #@! TF.CreationDate,2026-05-10T03:50:01+09:00*
G04 #@! TF.ProjectId,keyboard,6b657962-6f61-4726-942e-6b696361645f,rev?*
G04 #@! TF.SameCoordinates,Original*
G04 #@! TF.FileFunction,Legend,Bot*
G04 #@! TF.FilePolarity,Positive*
%FSLAX46Y46*%
G04 Gerber Fmt 4.6, Leading zero omitted, Abs format (unit mm)*
G04 Created by KiCad (PCBNEW 9.0.0) date 2026-05-10 03:50:01*
%MOMM*%
%LPD*%
G01*
G04 APERTURE LIST*
G04 Aperture macros list*
%AMRoundRect*
0 Rectangle with rounded corners*
0 $1 Rounding radius*
0 $2 $3 $4 $5 $6 $7 $8 $9 X,Y pos of 4 corners*
0 Add a 4 corners polygon primitive as box body*
4,1,4,$2,$3,$4,$5,$6,$7,$8,$9,$2,$3,0*
0 Add four circle primitives for the rounded corners*
1,1,$1+$1,$2,$3*
1,1,$1+$1,$4,$5*
1,1,$1+$1,$6,$7*
1,1,$1+$1,$8,$9*
0 Add four rect primitives between the rounded corners*
20,1,$1+$1,$2,$3,$4,$5,0*
20,1,$1+$1,$4,$5,$6,$7,0*
20,1,$1+$1,$6,$7,$8,$9,0*
20,1,$1+$1,$8,$9,$2,$3,0*%
G04 Aperture macros list end*
%ADD10C,0.120000*%
%ADD11C,1.750000*%
%ADD12C,4.000000*%
%ADD13C,2.500000*%
%ADD14C,2.000000*%
%ADD15C,3.048000*%
%ADD16C,3.987800*%
%ADD17RoundRect,0.225000X0.225000X0.375000X-0.225000X0.375000X-0.225000X-0.375000X0.225000X-0.375000X0*%
G04 APERTURE END LIST*
D10*
G04 #@! TO.C,D36*
X202772500Y-66550000D02*
X198762500Y-66550000D01*
X202772500Y-66550000D02*
X202772500Y-68550000D01*
X202772500Y-68550000D02*
X198762500Y-68550000D01*
G04 #@! TO.C,D27*
X274210000Y-47500000D02*
X270200000Y-47500000D01*
X274210000Y-47500000D02*
X274210000Y-49500000D01*
X274210000Y-49500000D02*
X270200000Y-49500000D01*
G04 #@! TO.C,D17*
X78947500Y-47500000D02*
X74937500Y-47500000D01*
X78947500Y-47500000D02*
X78947500Y-49500000D01*
X78947500Y-49500000D02*
X74937500Y-49500000D01*
G04 #@! TO.C,D5*
X107522500Y-28450000D02*
X103512500Y-28450000D01*
X107522500Y-28450000D02*
X107522500Y-30450000D01*
X107522500Y-30450000D02*
X103512500Y-30450000D01*
G04 #@! TO.C,D16*
X59897500Y-47500000D02*
X55887500Y-47500000D01*
X59897500Y-47500000D02*
X59897500Y-49500000D01*
X59897500Y-49500000D02*
X55887500Y-49500000D01*
G04 #@! TO.C,D33*
X145622500Y-66550000D02*
X141612500Y-66550000D01*
X145622500Y-66550000D02*
X145622500Y-68550000D01*
X145622500Y-68550000D02*
X141612500Y-68550000D01*
G04 #@! TO.C,D35*
X183722500Y-66550000D02*
X179712500Y-66550000D01*
X183722500Y-66550000D02*
X183722500Y-68550000D01*
X183722500Y-68550000D02*
X179712500Y-68550000D01*
G04 #@! TO.C,D10*
X202772500Y-28450000D02*
X198762500Y-28450000D01*
X202772500Y-28450000D02*
X202772500Y-30450000D01*
X202772500Y-30450000D02*
X198762500Y-30450000D01*
G04 #@! TO.C,D44*
X150385000Y-85600000D02*
X146375000Y-85600000D01*
X150385000Y-85600000D02*
X150385000Y-87600000D01*
X150385000Y-87600000D02*
X146375000Y-87600000D01*
G04 #@! TO.C,D38*
X240872500Y-66550000D02*
X236862500Y-66550000D01*
X240872500Y-66550000D02*
X240872500Y-68550000D01*
X240872500Y-68550000D02*
X236862500Y-68550000D01*
G04 #@! TO.C,D22*
X174197500Y-47500000D02*
X170187500Y-47500000D01*
X174197500Y-47500000D02*
X174197500Y-49500000D01*
X174197500Y-49500000D02*
X170187500Y-49500000D01*
G04 #@! TO.C,D28*
X40847500Y-66550000D02*
X36837500Y-66550000D01*
X40847500Y-66550000D02*
X40847500Y-68550000D01*
X40847500Y-68550000D02*
X36837500Y-68550000D01*
G04 #@! TO.C,D41*
X52753750Y-85600000D02*
X48743750Y-85600000D01*
X52753750Y-85600000D02*
X52753750Y-87600000D01*
X52753750Y-87600000D02*
X48743750Y-87600000D01*
G04 #@! TO.C,D3*
X69422500Y-28450000D02*
X65412500Y-28450000D01*
X69422500Y-28450000D02*
X69422500Y-30450000D01*
X69422500Y-30450000D02*
X65412500Y-30450000D01*
G04 #@! TO.C,D9*
X183722500Y-28450000D02*
X179712500Y-28450000D01*
X183722500Y-28450000D02*
X183722500Y-30450000D01*
X183722500Y-30450000D02*
X179712500Y-30450000D01*
G04 #@! TO.C,D43*
X114666250Y-85600000D02*
X110656250Y-85600000D01*
X114666250Y-85600000D02*
X114666250Y-87600000D01*
X114666250Y-87600000D02*
X110656250Y-87600000D01*
G04 #@! TO.C,D1*
X31322500Y-28450000D02*
X27312500Y-28450000D01*
X31322500Y-28450000D02*
X31322500Y-30450000D01*
X31322500Y-30450000D02*
X27312500Y-30450000D01*
G04 #@! TO.C,D24*
X212297500Y-47500000D02*
X208287500Y-47500000D01*
X212297500Y-47500000D02*
X212297500Y-49500000D01*
X212297500Y-49500000D02*
X208287500Y-49500000D01*
G04 #@! TO.C,D42*
X76566250Y-85600000D02*
X72556250Y-85600000D01*
X76566250Y-85600000D02*
X76566250Y-87600000D01*
X76566250Y-87600000D02*
X72556250Y-87600000D01*
G04 #@! TO.C,D25*
X231347500Y-47500000D02*
X227337500Y-47500000D01*
X231347500Y-47500000D02*
X231347500Y-49500000D01*
X231347500Y-49500000D02*
X227337500Y-49500000D01*
G04 #@! TO.C,D18*
X97997500Y-47500000D02*
X93987500Y-47500000D01*
X97997500Y-47500000D02*
X97997500Y-49500000D01*
X97997500Y-49500000D02*
X93987500Y-49500000D01*
G04 #@! TO.C,D39*
X269447500Y-66550000D02*
X265437500Y-66550000D01*
X269447500Y-66550000D02*
X269447500Y-68550000D01*
X269447500Y-68550000D02*
X265437500Y-68550000D01*
G04 #@! TO.C,D37*
X221822500Y-66550000D02*
X217812500Y-66550000D01*
X221822500Y-66550000D02*
X221822500Y-68550000D01*
X221822500Y-68550000D02*
X217812500Y-68550000D01*
G04 #@! TO.C,D40*
X31322500Y-85600000D02*
X27312500Y-85600000D01*
X31322500Y-85600000D02*
X31322500Y-87600000D01*
X31322500Y-87600000D02*
X27312500Y-87600000D01*
G04 #@! TO.C,D47*
X240872500Y-85600000D02*
X236862500Y-85600000D01*
X240872500Y-85600000D02*
X240872500Y-87600000D01*
X240872500Y-87600000D02*
X236862500Y-87600000D01*
G04 #@! TO.C,D13*
X259922500Y-28450000D02*
X255912500Y-28450000D01*
X259922500Y-28450000D02*
X259922500Y-30450000D01*
X259922500Y-30450000D02*
X255912500Y-30450000D01*
G04 #@! TO.C,D34*
X164672500Y-66550000D02*
X160662500Y-66550000D01*
X164672500Y-66550000D02*
X164672500Y-68550000D01*
X164672500Y-68550000D02*
X160662500Y-68550000D01*
G04 #@! TO.C,D31*
X107522500Y-66550000D02*
X103512500Y-66550000D01*
X107522500Y-66550000D02*
X107522500Y-68550000D01*
X107522500Y-68550000D02*
X103512500Y-68550000D01*
G04 #@! TO.C,D21*
X155147500Y-47500000D02*
X151137500Y-47500000D01*
X155147500Y-47500000D02*
X155147500Y-49500000D01*
X155147500Y-49500000D02*
X151137500Y-49500000D01*
G04 #@! TO.C,D46*
X221822500Y-85600000D02*
X217812500Y-85600000D01*
X221822500Y-85600000D02*
X221822500Y-87600000D01*
X221822500Y-87600000D02*
X217812500Y-87600000D01*
G04 #@! TO.C,D32*
X126572500Y-66550000D02*
X122562500Y-66550000D01*
X126572500Y-66550000D02*
X126572500Y-68550000D01*
X126572500Y-68550000D02*
X122562500Y-68550000D01*
G04 #@! TO.C,D12*
X240872500Y-28450000D02*
X236862500Y-28450000D01*
X240872500Y-28450000D02*
X240872500Y-30450000D01*
X240872500Y-30450000D02*
X236862500Y-30450000D01*
G04 #@! TO.C,D7*
X145622500Y-28450000D02*
X141612500Y-28450000D01*
X145622500Y-28450000D02*
X145622500Y-30450000D01*
X145622500Y-30450000D02*
X141612500Y-30450000D01*
G04 #@! TO.C,D48*
X259922500Y-85600000D02*
X255912500Y-85600000D01*
X259922500Y-85600000D02*
X259922500Y-87600000D01*
X259922500Y-87600000D02*
X255912500Y-87600000D01*
G04 #@! TO.C,D8*
X164672500Y-28450000D02*
X160662500Y-28450000D01*
X164672500Y-28450000D02*
X164672500Y-30450000D01*
X164672500Y-30450000D02*
X160662500Y-30450000D01*
G04 #@! TO.C,D19*
X117047500Y-47500000D02*
X113037500Y-47500000D01*
X117047500Y-47500000D02*
X117047500Y-49500000D01*
X117047500Y-49500000D02*
X113037500Y-49500000D01*
G04 #@! TO.C,D4*
X88472500Y-28450000D02*
X84462500Y-28450000D01*
X88472500Y-28450000D02*
X88472500Y-30450000D01*
X88472500Y-30450000D02*
X84462500Y-30450000D01*
G04 #@! TO.C,D15*
X36085000Y-47500000D02*
X32075000Y-47500000D01*
X36085000Y-47500000D02*
X36085000Y-49500000D01*
X36085000Y-49500000D02*
X32075000Y-49500000D01*
G04 #@! TO.C,D26*
X250397500Y-47500000D02*
X246387500Y-47500000D01*
X250397500Y-47500000D02*
X250397500Y-49500000D01*
X250397500Y-49500000D02*
X246387500Y-49500000D01*
G04 #@! TO.C,D2*
X50372500Y-28450000D02*
X46362500Y-28450000D01*
X50372500Y-28450000D02*
X50372500Y-30450000D01*
X50372500Y-30450000D02*
X46362500Y-30450000D01*
G04 #@! TO.C,D20*
X136097500Y-47500000D02*
X132087500Y-47500000D01*
X136097500Y-47500000D02*
X136097500Y-49500000D01*
X136097500Y-49500000D02*
X132087500Y-49500000D01*
G04 #@! TO.C,D11*
X221822500Y-28450000D02*
X217812500Y-28450000D01*
X221822500Y-28450000D02*
X221822500Y-30450000D01*
X221822500Y-30450000D02*
X217812500Y-30450000D01*
G04 #@! TO.C,D14*
X278972500Y-28450000D02*
X274962500Y-28450000D01*
X278972500Y-28450000D02*
X278972500Y-30450000D01*
X278972500Y-30450000D02*
X274962500Y-30450000D01*
G04 #@! TO.C,D6*
X126572500Y-28450000D02*
X122562500Y-28450000D01*
X126572500Y-28450000D02*
X126572500Y-30450000D01*
X126572500Y-30450000D02*
X122562500Y-30450000D01*
G04 #@! TO.C,D29*
X69422500Y-66550000D02*
X65412500Y-66550000D01*
X69422500Y-66550000D02*
X69422500Y-68550000D01*
X69422500Y-68550000D02*
X65412500Y-68550000D01*
G04 #@! TO.C,D45*
X186103750Y-85600000D02*
X182093750Y-85600000D01*
X186103750Y-85600000D02*
X186103750Y-87600000D01*
X186103750Y-87600000D02*
X182093750Y-87600000D01*
G04 #@! TO.C,D23*
X193247500Y-47500000D02*
X189237500Y-47500000D01*
X193247500Y-47500000D02*
X193247500Y-49500000D01*
X193247500Y-49500000D02*
X189237500Y-49500000D01*
G04 #@! TO.C,D30*
X88472500Y-66550000D02*
X84462500Y-66550000D01*
X88472500Y-66550000D02*
X88472500Y-68550000D01*
X88472500Y-68550000D02*
X84462500Y-68550000D01*
G04 #@! TO.C,D49*
X278972500Y-85600000D02*
X274962500Y-85600000D01*
X278972500Y-85600000D02*
X278972500Y-87600000D01*
X278972500Y-87600000D02*
X274962500Y-87600000D01*
G04 #@! TD*
%LPC*%
D11*
G04 #@! TO.C,SW7*
X143442501Y-23450000D03*
D12*
X138362501Y-23450000D03*
D11*
X133282501Y-23450000D03*
D13*
X142172501Y-25990000D03*
X135822501Y-28530000D03*
G04 #@! TD*
D11*
G04 #@! TO.C,SW12*
X238692501Y-23450000D03*
D12*
X233612501Y-23450000D03*
D11*
X228532501Y-23450000D03*
D13*
X237422501Y-25990000D03*
X231072501Y-28530000D03*
G04 #@! TD*
D11*
G04 #@! TO.C,SW2*
X48192501Y-23450000D03*
D12*
X43112501Y-23450000D03*
D11*
X38032501Y-23450000D03*
D13*
X46922501Y-25990000D03*
X40572501Y-28530000D03*
G04 #@! TD*
D11*
G04 #@! TO.C,SW33*
X143442501Y-61550000D03*
D12*
X138362501Y-61550000D03*
D11*
X133282501Y-61550000D03*
D13*
X142172501Y-64090000D03*
X135822501Y-66630000D03*
G04 #@! TD*
D11*
G04 #@! TO.C,SW48*
X257742501Y-80600000D03*
D12*
X252662501Y-80600000D03*
D11*
X247582501Y-80600000D03*
D13*
X256472501Y-83140000D03*
X250122501Y-85680000D03*
G04 #@! TD*
D14*
G04 #@! TO.C,J_ROW2*
X34562501Y-74950000D03*
G04 #@! TD*
D11*
G04 #@! TO.C,SW39*
X267267501Y-61550000D03*
D12*
X262187501Y-61550000D03*
D11*
X257107501Y-61550000D03*
D13*
X265997501Y-64090000D03*
X259647501Y-66630000D03*
G04 #@! TD*
D11*
G04 #@! TO.C,SW18*
X95817501Y-42500000D03*
D12*
X90737501Y-42500000D03*
D11*
X85657501Y-42500000D03*
D13*
X94547501Y-45040000D03*
X88197501Y-47580000D03*
G04 #@! TD*
D11*
G04 #@! TO.C,SW5*
X105342501Y-23450000D03*
D12*
X100262501Y-23450000D03*
D11*
X95182501Y-23450000D03*
D13*
X104072501Y-25990000D03*
X97722501Y-28530000D03*
G04 #@! TD*
D11*
G04 #@! TO.C,SW17*
X76767501Y-42500000D03*
D12*
X71687501Y-42500000D03*
D11*
X66607501Y-42500000D03*
D13*
X75497501Y-45040000D03*
X69147501Y-47580000D03*
G04 #@! TD*
D11*
G04 #@! TO.C,SW11*
X219642501Y-23450000D03*
D12*
X214562501Y-23450000D03*
D11*
X209482501Y-23450000D03*
D13*
X218372501Y-25990000D03*
X212022501Y-28530000D03*
G04 #@! TD*
D14*
G04 #@! TO.C,J_ROW1*
X40062501Y-47450000D03*
G04 #@! TD*
D11*
G04 #@! TO.C,SW22*
X172017501Y-42500000D03*
D12*
X166937501Y-42500000D03*
D11*
X161857501Y-42500000D03*
D13*
X170747501Y-45040000D03*
X164397501Y-47580000D03*
G04 #@! TD*
D11*
G04 #@! TO.C,SW10*
X200592501Y-23450000D03*
D12*
X195512501Y-23450000D03*
D11*
X190432501Y-23450000D03*
D13*
X199322501Y-25990000D03*
X192972501Y-28530000D03*
G04 #@! TD*
D11*
G04 #@! TO.C,SW25*
X229167501Y-42500000D03*
D12*
X224087501Y-42500000D03*
D11*
X219007501Y-42500000D03*
D13*
X227897501Y-45040000D03*
X221547501Y-47580000D03*
G04 #@! TD*
D15*
G04 #@! TO.C,ST45*
X190781751Y-87585000D03*
D16*
X190781751Y-72375000D03*
D15*
X166905751Y-87585000D03*
D16*
X166905751Y-72375000D03*
G04 #@! TD*
D11*
G04 #@! TO.C,SW27*
X272030001Y-42500000D03*
D12*
X266950001Y-42500000D03*
D11*
X261870001Y-42500000D03*
D13*
X270760001Y-45040000D03*
X264410001Y-47580000D03*
G04 #@! TD*
D11*
G04 #@! TO.C,SW15*
X33905001Y-42500000D03*
D12*
X28825001Y-42500000D03*
D11*
X23745001Y-42500000D03*
D13*
X32635001Y-45040000D03*
X26285001Y-47580000D03*
G04 #@! TD*
D11*
G04 #@! TO.C,SW1*
X29142501Y-23450000D03*
D12*
X24062501Y-23450000D03*
D11*
X18982501Y-23450000D03*
D13*
X27872501Y-25990000D03*
X21522501Y-28530000D03*
G04 #@! TD*
D15*
G04 #@! TO.C,ST43*
X119344251Y-87585000D03*
D16*
X119344251Y-72375000D03*
D15*
X95468251Y-87585000D03*
D16*
X95468251Y-72375000D03*
G04 #@! TD*
D11*
G04 #@! TO.C,SW16*
X57717501Y-42500000D03*
D12*
X52637501Y-42500000D03*
D11*
X47557501Y-42500000D03*
D13*
X56447501Y-45040000D03*
X50097501Y-47580000D03*
G04 #@! TD*
D11*
G04 #@! TO.C,SW32*
X124392501Y-61550000D03*
D12*
X119312501Y-61550000D03*
D11*
X114232501Y-61550000D03*
D13*
X123122501Y-64090000D03*
X116772501Y-66630000D03*
G04 #@! TD*
D11*
G04 #@! TO.C,SW47*
X238692501Y-80600000D03*
D12*
X233612501Y-80600000D03*
D11*
X228532501Y-80600000D03*
D13*
X237422501Y-83140000D03*
X231072501Y-85680000D03*
G04 #@! TD*
D11*
G04 #@! TO.C,SW37*
X219642501Y-61550000D03*
D12*
X214562501Y-61550000D03*
D11*
X209482501Y-61550000D03*
D13*
X218372501Y-64090000D03*
X212022501Y-66630000D03*
G04 #@! TD*
D11*
G04 #@! TO.C,SW4*
X86292501Y-23450000D03*
D12*
X81212501Y-23450000D03*
D11*
X76132501Y-23450000D03*
D13*
X85022501Y-25990000D03*
X78672501Y-28530000D03*
G04 #@! TD*
D11*
G04 #@! TO.C,SW42*
X74386251Y-80600000D03*
D12*
X69306251Y-80600000D03*
D11*
X64226251Y-80600000D03*
D13*
X73116251Y-83140000D03*
X66766251Y-85680000D03*
G04 #@! TD*
D11*
G04 #@! TO.C,SW24*
X210117501Y-42500000D03*
D12*
X205037501Y-42500000D03*
D11*
X199957501Y-42500000D03*
D13*
X208847501Y-45040000D03*
X202497501Y-47580000D03*
G04 #@! TD*
D11*
G04 #@! TO.C,SW38*
X238692501Y-61550000D03*
D12*
X233612501Y-61550000D03*
D11*
X228532501Y-61550000D03*
D13*
X237422501Y-64090000D03*
X231072501Y-66630000D03*
G04 #@! TD*
D11*
G04 #@! TO.C,SW49*
X276792501Y-80600000D03*
D12*
X271712501Y-80600000D03*
D11*
X266632501Y-80600000D03*
D13*
X275522501Y-83140000D03*
X269172501Y-85680000D03*
G04 #@! TD*
D11*
G04 #@! TO.C,SW30*
X86292501Y-61550000D03*
D12*
X81212501Y-61550000D03*
D11*
X76132501Y-61550000D03*
D13*
X85022501Y-64090000D03*
X78672501Y-66630000D03*
G04 #@! TD*
D11*
G04 #@! TO.C,SW9*
X181542501Y-23450000D03*
D12*
X176462501Y-23450000D03*
D11*
X171382501Y-23450000D03*
D13*
X180272501Y-25990000D03*
X173922501Y-28530000D03*
G04 #@! TD*
D11*
G04 #@! TO.C,SW43*
X112486251Y-80600000D03*
D12*
X107406251Y-80600000D03*
D11*
X102326251Y-80600000D03*
D13*
X111216251Y-83140000D03*
X104866251Y-85680000D03*
G04 #@! TD*
D11*
G04 #@! TO.C,SW36*
X200592501Y-61550000D03*
D12*
X195512501Y-61550000D03*
D11*
X190432501Y-61550000D03*
D13*
X199322501Y-64090000D03*
X192972501Y-66630000D03*
G04 #@! TD*
D14*
G04 #@! TO.C,J_ROW3*
X34562501Y-84950000D03*
G04 #@! TD*
D11*
G04 #@! TO.C,SW23*
X191067501Y-42500000D03*
D12*
X185987501Y-42500000D03*
D11*
X180907501Y-42500000D03*
D13*
X189797501Y-45040000D03*
X183447501Y-47580000D03*
G04 #@! TD*
D11*
G04 #@! TO.C,SW6*
X124392501Y-23450000D03*
D12*
X119312501Y-23450000D03*
D11*
X114232501Y-23450000D03*
D13*
X123122501Y-25990000D03*
X116772501Y-28530000D03*
G04 #@! TD*
D11*
G04 #@! TO.C,SW14*
X276792501Y-23450000D03*
D12*
X271712501Y-23450000D03*
D11*
X266632501Y-23450000D03*
D13*
X275522501Y-25990000D03*
X269172501Y-28530000D03*
G04 #@! TD*
D11*
G04 #@! TO.C,SW28*
X38667501Y-61550000D03*
D12*
X33587501Y-61550000D03*
D11*
X28507501Y-61550000D03*
D13*
X37397501Y-64090000D03*
X31047501Y-66630000D03*
G04 #@! TD*
D11*
G04 #@! TO.C,SW21*
X152967501Y-42500000D03*
D12*
X147887501Y-42500000D03*
D11*
X142807501Y-42500000D03*
D13*
X151697501Y-45040000D03*
X145347501Y-47580000D03*
G04 #@! TD*
D14*
G04 #@! TO.C,J_ROW0*
X40062501Y-36950000D03*
G04 #@! TD*
D11*
G04 #@! TO.C,SW44*
X148205001Y-80600000D03*
D12*
X143125001Y-80600000D03*
D11*
X138045001Y-80600000D03*
D13*
X146935001Y-83140000D03*
X140585001Y-85680000D03*
G04 #@! TD*
D11*
G04 #@! TO.C,SW20*
X133917501Y-42500000D03*
D12*
X128837501Y-42500000D03*
D11*
X123757501Y-42500000D03*
D13*
X132647501Y-45040000D03*
X126297501Y-47580000D03*
G04 #@! TD*
D11*
G04 #@! TO.C,SW34*
X162492501Y-61550000D03*
D12*
X157412501Y-61550000D03*
D11*
X152332501Y-61550000D03*
D13*
X161222501Y-64090000D03*
X154872501Y-66630000D03*
G04 #@! TD*
D11*
G04 #@! TO.C,SW26*
X248217501Y-42500000D03*
D12*
X243137501Y-42500000D03*
D11*
X238057501Y-42500000D03*
D13*
X246947501Y-45040000D03*
X240597501Y-47580000D03*
G04 #@! TD*
D11*
G04 #@! TO.C,SW45*
X183923751Y-80600000D03*
D12*
X178843751Y-80600000D03*
D11*
X173763751Y-80600000D03*
D13*
X182653751Y-83140000D03*
X176303751Y-85680000D03*
G04 #@! TD*
D15*
G04 #@! TO.C,ST28*
X45525501Y-68535000D03*
D16*
X45525501Y-53325000D03*
D15*
X21649501Y-68535000D03*
D16*
X21649501Y-53325000D03*
G04 #@! TD*
D11*
G04 #@! TO.C,SW29*
X67242501Y-61550000D03*
D12*
X62162501Y-61550000D03*
D11*
X57082501Y-61550000D03*
D13*
X65972501Y-64090000D03*
X59622501Y-66630000D03*
G04 #@! TD*
D11*
G04 #@! TO.C,SW40*
X29142501Y-80600000D03*
D12*
X24062501Y-80600000D03*
D11*
X18982501Y-80600000D03*
D13*
X27872501Y-83140000D03*
X21522501Y-85680000D03*
G04 #@! TD*
D11*
G04 #@! TO.C,SW46*
X219642501Y-80600000D03*
D12*
X214562501Y-80600000D03*
D11*
X209482501Y-80600000D03*
D13*
X218372501Y-83140000D03*
X212022501Y-85680000D03*
G04 #@! TD*
D11*
G04 #@! TO.C,SW31*
X105342501Y-61550000D03*
D12*
X100262501Y-61550000D03*
D11*
X95182501Y-61550000D03*
D13*
X104072501Y-64090000D03*
X97722501Y-66630000D03*
G04 #@! TD*
D11*
G04 #@! TO.C,SW8*
X162492501Y-23450000D03*
D12*
X157412501Y-23450000D03*
D11*
X152332501Y-23450000D03*
D13*
X161222501Y-25990000D03*
X154872501Y-28530000D03*
G04 #@! TD*
D11*
G04 #@! TO.C,SW3*
X67242501Y-23450000D03*
D12*
X62162501Y-23450000D03*
D11*
X57082501Y-23450000D03*
D13*
X65972501Y-25990000D03*
X59622501Y-28530000D03*
G04 #@! TD*
D15*
G04 #@! TO.C,ST39*
X274125501Y-68535000D03*
D16*
X274125501Y-53325000D03*
D15*
X250249501Y-68535000D03*
D16*
X250249501Y-53325000D03*
G04 #@! TD*
D11*
G04 #@! TO.C,SW19*
X114867501Y-42500000D03*
D12*
X109787501Y-42500000D03*
D11*
X104707501Y-42500000D03*
D13*
X113597501Y-45040000D03*
X107247501Y-47580000D03*
G04 #@! TD*
D11*
G04 #@! TO.C,SW41*
X50573751Y-80600000D03*
D12*
X45493751Y-80600000D03*
D11*
X40413751Y-80600000D03*
D13*
X49303751Y-83140000D03*
X42953751Y-85680000D03*
G04 #@! TD*
D11*
G04 #@! TO.C,SW13*
X257742501Y-23450000D03*
D12*
X252662501Y-23450000D03*
D11*
X247582501Y-23450000D03*
D13*
X256472501Y-25990000D03*
X250122501Y-28530000D03*
G04 #@! TD*
D11*
G04 #@! TO.C,SW35*
X181542501Y-61550000D03*
D12*
X176462501Y-61550000D03*
D11*
X171382501Y-61550000D03*
D13*
X180272501Y-64090000D03*
X173922501Y-66630000D03*
G04 #@! TD*
D17*
G04 #@! TO.C,D36*
X202062500Y-67550000D03*
X198762500Y-67550000D03*
G04 #@! TD*
G04 #@! TO.C,D27*
X273500000Y-48500000D03*
X270200000Y-48500000D03*
G04 #@! TD*
G04 #@! TO.C,D17*
X78237500Y-48500000D03*
X74937500Y-48500000D03*
G04 #@! TD*
G04 #@! TO.C,D5*
X106812500Y-29450000D03*
X103512500Y-29450000D03*
G04 #@! TD*
G04 #@! TO.C,D16*
X59187500Y-48500000D03*
X55887500Y-48500000D03*
G04 #@! TD*
G04 #@! TO.C,D33*
X144912500Y-67550000D03*
X141612500Y-67550000D03*
G04 #@! TD*
G04 #@! TO.C,D35*
X183012500Y-67550000D03*
X179712500Y-67550000D03*
G04 #@! TD*
G04 #@! TO.C,D10*
X202062500Y-29450000D03*
X198762500Y-29450000D03*
G04 #@! TD*
G04 #@! TO.C,D44*
X149675000Y-86600000D03*
X146375000Y-86600000D03*
G04 #@! TD*
G04 #@! TO.C,D38*
X240162500Y-67550000D03*
X236862500Y-67550000D03*
G04 #@! TD*
G04 #@! TO.C,D22*
X173487500Y-48500000D03*
X170187500Y-48500000D03*
G04 #@! TD*
G04 #@! TO.C,D28*
X40137500Y-67550000D03*
X36837500Y-67550000D03*
G04 #@! TD*
G04 #@! TO.C,D41*
X52043750Y-86600000D03*
X48743750Y-86600000D03*
G04 #@! TD*
G04 #@! TO.C,D3*
X68712500Y-29450000D03*
X65412500Y-29450000D03*
G04 #@! TD*
G04 #@! TO.C,D9*
X183012500Y-29450000D03*
X179712500Y-29450000D03*
G04 #@! TD*
G04 #@! TO.C,D43*
X113956250Y-86600000D03*
X110656250Y-86600000D03*
G04 #@! TD*
G04 #@! TO.C,D1*
X30612500Y-29450000D03*
X27312500Y-29450000D03*
G04 #@! TD*
G04 #@! TO.C,D24*
X211587500Y-48500000D03*
X208287500Y-48500000D03*
G04 #@! TD*
G04 #@! TO.C,D42*
X75856250Y-86600000D03*
X72556250Y-86600000D03*
G04 #@! TD*
G04 #@! TO.C,D25*
X230637500Y-48500000D03*
X227337500Y-48500000D03*
G04 #@! TD*
G04 #@! TO.C,D18*
X97287500Y-48500000D03*
X93987500Y-48500000D03*
G04 #@! TD*
G04 #@! TO.C,D39*
X268737500Y-67550000D03*
X265437500Y-67550000D03*
G04 #@! TD*
G04 #@! TO.C,D37*
X221112500Y-67550000D03*
X217812500Y-67550000D03*
G04 #@! TD*
G04 #@! TO.C,D40*
X30612500Y-86600000D03*
X27312500Y-86600000D03*
G04 #@! TD*
G04 #@! TO.C,D47*
X240162500Y-86600000D03*
X236862500Y-86600000D03*
G04 #@! TD*
G04 #@! TO.C,D13*
X259212500Y-29450000D03*
X255912500Y-29450000D03*
G04 #@! TD*
G04 #@! TO.C,D34*
X163962500Y-67550000D03*
X160662500Y-67550000D03*
G04 #@! TD*
G04 #@! TO.C,D31*
X106812500Y-67550000D03*
X103512500Y-67550000D03*
G04 #@! TD*
G04 #@! TO.C,D21*
X154437500Y-48500000D03*
X151137500Y-48500000D03*
G04 #@! TD*
G04 #@! TO.C,D46*
X221112500Y-86600000D03*
X217812500Y-86600000D03*
G04 #@! TD*
G04 #@! TO.C,D32*
X125862500Y-67550000D03*
X122562500Y-67550000D03*
G04 #@! TD*
G04 #@! TO.C,D12*
X240162500Y-29450000D03*
X236862500Y-29450000D03*
G04 #@! TD*
G04 #@! TO.C,D7*
X144912500Y-29450000D03*
X141612500Y-29450000D03*
G04 #@! TD*
G04 #@! TO.C,D48*
X259212500Y-86600000D03*
X255912500Y-86600000D03*
G04 #@! TD*
G04 #@! TO.C,D8*
X163962500Y-29450000D03*
X160662500Y-29450000D03*
G04 #@! TD*
G04 #@! TO.C,D19*
X116337500Y-48500000D03*
X113037500Y-48500000D03*
G04 #@! TD*
G04 #@! TO.C,D4*
X87762500Y-29450000D03*
X84462500Y-29450000D03*
G04 #@! TD*
G04 #@! TO.C,D15*
X35375000Y-48500000D03*
X32075000Y-48500000D03*
G04 #@! TD*
G04 #@! TO.C,D26*
X249687500Y-48500000D03*
X246387500Y-48500000D03*
G04 #@! TD*
G04 #@! TO.C,D2*
X49662500Y-29450000D03*
X46362500Y-29450000D03*
G04 #@! TD*
G04 #@! TO.C,D20*
X135387500Y-48500000D03*
X132087500Y-48500000D03*
G04 #@! TD*
G04 #@! TO.C,D11*
X221112500Y-29450000D03*
X217812500Y-29450000D03*
G04 #@! TD*
G04 #@! TO.C,D14*
X278262500Y-29450000D03*
X274962500Y-29450000D03*
G04 #@! TD*
G04 #@! TO.C,D6*
X125862500Y-29450000D03*
X122562500Y-29450000D03*
G04 #@! TD*
G04 #@! TO.C,D29*
X68712500Y-67550000D03*
X65412500Y-67550000D03*
G04 #@! TD*
G04 #@! TO.C,D45*
X185393750Y-86600000D03*
X182093750Y-86600000D03*
G04 #@! TD*
G04 #@! TO.C,D23*
X192537500Y-48500000D03*
X189237500Y-48500000D03*
G04 #@! TD*
G04 #@! TO.C,D30*
X87762500Y-67550000D03*
X84462500Y-67550000D03*
G04 #@! TD*
G04 #@! TO.C,D49*
X278262500Y-86600000D03*
X274962500Y-86600000D03*
G04 #@! TD*
%LPD*%
M02*
