%TF.GenerationSoftware,KiCad,Pcbnew,10.0.3*%
%TF.CreationDate,2026-07-08T09:26:39+09:00*%
%TF.ProjectId,keyboard,6b657962-6f61-4726-942e-6b696361645f,rev?*%
%TF.SameCoordinates,Original*%
%TF.FileFunction,Copper,L2,Bot*%
%TF.FilePolarity,Positive*%
%FSLAX46Y46*%
G04 Gerber Fmt 4.6, Leading zero omitted, Abs format (unit mm)*
G04 Created by KiCad (PCBNEW 10.0.3) date 2026-07-08 09:26:39*
%MOMM*%
%LPD*%
G01*
G04 APERTURE LIST*
%TA.AperFunction,ComponentPad*%
%ADD10R,1.700000X1.700000*%
%TD*%
%TA.AperFunction,ComponentPad*%
%ADD11C,1.700000*%
%TD*%
%TA.AperFunction,SMDPad,CuDef*%
%ADD12R,2.900000X2.500000*%
%TD*%
%TA.AperFunction,ComponentPad*%
%ADD13C,1.600000*%
%TD*%
%TA.AperFunction,Conductor*%
%ADD14C,0.250000*%
%TD*%
G04 APERTURE END LIST*
D10*
%TO.P,J1,1*%
%TO.N,COL0*%
X51434999Y12000000D03*
D11*
%TO.P,J1,2*%
%TO.N,COL1*%
X53974999Y12000000D03*
%TO.P,J1,3*%
%TO.N,COL2*%
X56514999Y12000000D03*
%TO.P,J1,4*%
%TO.N,COL3*%
X59054999Y12000000D03*
%TO.P,J1,5*%
%TO.N,COL4*%
X61594999Y12000000D03*
%TO.P,J1,6*%
%TO.N,COL5*%
X64134999Y12000000D03*
%TO.P,J1,7*%
%TO.N,COL6*%
X66674999Y12000000D03*
%TO.P,J1,8*%
%TO.N,COL7*%
X69214999Y12000000D03*
%TO.P,J1,9*%
%TO.N,ROW0*%
X71754999Y12000000D03*
%TO.P,J1,10*%
%TO.N,ROW1*%
X74294999Y12000000D03*
%TO.P,J1,11*%
%TO.N,ROW2*%
X76834999Y12000000D03*
%TO.P,J1,12*%
%TO.N,ROW3*%
X79374999Y12000000D03*
%TO.P,J1,13*%
%TO.N,ROW4*%
X81914999Y12000000D03*
%TD*%
D12*
%TO.P,SW31,1*%
%TO.N,COL2*%
X61803750Y-78740000D03*
%TO.P,SW31,2*%
%TO.N,Net-(D31-A)*%
X49003750Y-81280000D03*
%TD*%
D13*
%TO.P,D31,1*%
%TO.N,ROW4*%
X55658750Y-72200000D03*
%TO.P,D31,2*%
%TO.N,Net-(D31-A)*%
X48038750Y-72200000D03*
%TD*%
D12*
%TO.P,SW19,1*%
%TO.N,COL3*%
X78472500Y-40640000D03*
%TO.P,SW19,2*%
%TO.N,Net-(D19-A)*%
X65672500Y-43180000D03*
%TD*%
%TO.P,SW15,1*%
%TO.N,COL6*%
X135622500Y-21590000D03*
%TO.P,SW15,2*%
%TO.N,Net-(D15-A)*%
X122822500Y-24130000D03*
%TD*%
%TO.P,SW28,1*%
%TO.N,COL5*%
X102285000Y-59690000D03*
%TO.P,SW28,2*%
%TO.N,Net-(D28-A)*%
X89485000Y-62230000D03*
%TD*%
D13*
%TO.P,D12,1*%
%TO.N,ROW1*%
X67565000Y-15050000D03*
%TO.P,D12,2*%
%TO.N,Net-(D12-A)*%
X59945000Y-15050000D03*
%TD*%
%TO.P,D7,1*%
%TO.N,ROW0*%
X115190000Y4000000D03*
%TO.P,D7,2*%
%TO.N,Net-(D7-A)*%
X107570000Y4000000D03*
%TD*%
D12*
%TO.P,SW11,1*%
%TO.N,COL2*%
X54660000Y-21590000D03*
%TO.P,SW11,2*%
%TO.N,Net-(D11-A)*%
X41860000Y-24130000D03*
%TD*%
D13*
%TO.P,D4,1*%
%TO.N,ROW0*%
X58040000Y4000000D03*
%TO.P,D4,2*%
%TO.N,Net-(D4-A)*%
X50420000Y4000000D03*
%TD*%
%TO.P,D25,1*%
%TO.N,ROW3*%
X38990000Y-53150000D03*
%TO.P,D25,2*%
%TO.N,Net-(D25-A)*%
X31370000Y-53150000D03*
%TD*%
D12*
%TO.P,SW8,1*%
%TO.N,COL7*%
X140385000Y-2540000D03*
%TO.P,SW8,2*%
%TO.N,Net-(D8-A)*%
X127585000Y-5080000D03*
%TD*%
D13*
%TO.P,D26,1*%
%TO.N,ROW3*%
X58040000Y-53150000D03*
%TO.P,D26,2*%
%TO.N,Net-(D26-A)*%
X50420000Y-53150000D03*
%TD*%
D12*
%TO.P,SW21,1*%
%TO.N,COL5*%
X116572500Y-40640000D03*
%TO.P,SW21,2*%
%TO.N,Net-(D21-A)*%
X103772500Y-43180000D03*
%TD*%
%TO.P,SW1,1*%
%TO.N,COL0*%
X7035000Y-2540000D03*
%TO.P,SW1,2*%
%TO.N,Net-(D1-A)*%
X-5765000Y-5080000D03*
%TD*%
D13*
%TO.P,D5,1*%
%TO.N,ROW0*%
X77090000Y4000000D03*
%TO.P,D5,2*%
%TO.N,Net-(D5-A)*%
X69470000Y4000000D03*
%TD*%
%TO.P,D15,1*%
%TO.N,ROW1*%
X129477500Y-15050000D03*
%TO.P,D15,2*%
%TO.N,Net-(D15-A)*%
X121857500Y-15050000D03*
%TD*%
%TO.P,D8,1*%
%TO.N,ROW0*%
X134240000Y4000000D03*
%TO.P,D8,2*%
%TO.N,Net-(D8-A)*%
X126620000Y4000000D03*
%TD*%
D12*
%TO.P,SW34,1*%
%TO.N,COL6*%
X121335000Y-78740000D03*
%TO.P,SW34,2*%
%TO.N,Net-(D34-A)*%
X108535000Y-81280000D03*
%TD*%
D13*
%TO.P,D32,1*%
%TO.N,ROW4*%
X77090000Y-72200000D03*
%TO.P,D32,2*%
%TO.N,Net-(D32-A)*%
X69470000Y-72200000D03*
%TD*%
%TO.P,D24,1*%
%TO.N,ROW3*%
X19940000Y-53150000D03*
%TO.P,D24,2*%
%TO.N,Net-(D24-A)*%
X12320000Y-53150000D03*
%TD*%
%TO.P,D14,1*%
%TO.N,ROW1*%
X105665000Y-15050000D03*
%TO.P,D14,2*%
%TO.N,Net-(D14-A)*%
X98045000Y-15050000D03*
%TD*%
%TO.P,D22,1*%
%TO.N,ROW2*%
X131858750Y-34100000D03*
%TO.P,D22,2*%
%TO.N,Net-(D22-A)*%
X124238750Y-34100000D03*
%TD*%
D12*
%TO.P,SW16,1*%
%TO.N,COL0*%
X21322500Y-40640000D03*
%TO.P,SW16,2*%
%TO.N,Net-(D16-A)*%
X8522500Y-43180000D03*
%TD*%
%TO.P,SW4,1*%
%TO.N,COL3*%
X64185000Y-2540000D03*
%TO.P,SW4,2*%
%TO.N,Net-(D4-A)*%
X51385000Y-5080000D03*
%TD*%
D13*
%TO.P,D33,1*%
%TO.N,ROW4*%
X96140000Y-72200000D03*
%TO.P,D33,2*%
%TO.N,Net-(D33-A)*%
X88520000Y-72200000D03*
%TD*%
%TO.P,D35,1*%
%TO.N,ROW4*%
X134240000Y-72200000D03*
%TO.P,D35,2*%
%TO.N,Net-(D35-A)*%
X126620000Y-72200000D03*
%TD*%
D12*
%TO.P,SW3,1*%
%TO.N,COL2*%
X45135000Y-2540000D03*
%TO.P,SW3,2*%
%TO.N,Net-(D3-A)*%
X32335000Y-5080000D03*
%TD*%
%TO.P,SW23,1*%
%TO.N,COL0*%
X7035000Y-59690000D03*
%TO.P,SW23,2*%
%TO.N,Net-(D23-A)*%
X-5765000Y-62230000D03*
%TD*%
D13*
%TO.P,D6,1*%
%TO.N,ROW0*%
X96140000Y4000000D03*
%TO.P,D6,2*%
%TO.N,Net-(D6-A)*%
X88520000Y4000000D03*
%TD*%
D12*
%TO.P,SW30,1*%
%TO.N,COL0*%
X23703750Y-78740000D03*
%TO.P,SW30,2*%
%TO.N,Net-(D30-A)*%
X10903750Y-81280000D03*
%TD*%
%TO.P,SW27,1*%
%TO.N,COL4*%
X83235000Y-59690000D03*
%TO.P,SW27,2*%
%TO.N,Net-(D27-A)*%
X70435000Y-62230000D03*
%TD*%
D13*
%TO.P,D28,1*%
%TO.N,ROW3*%
X96140000Y-53150000D03*
%TO.P,D28,2*%
%TO.N,Net-(D28-A)*%
X88520000Y-53150000D03*
%TD*%
D12*
%TO.P,SW14,1*%
%TO.N,COL5*%
X111810000Y-21590000D03*
%TO.P,SW14,2*%
%TO.N,Net-(D14-A)*%
X99010000Y-24130000D03*
%TD*%
%TO.P,SW33,1*%
%TO.N,COL5*%
X102285000Y-78740000D03*
%TO.P,SW33,2*%
%TO.N,Net-(D33-A)*%
X89485000Y-81280000D03*
%TD*%
D13*
%TO.P,D13,1*%
%TO.N,ROW1*%
X86615000Y-15050000D03*
%TO.P,D13,2*%
%TO.N,Net-(D13-A)*%
X78995000Y-15050000D03*
%TD*%
%TO.P,D27,1*%
%TO.N,ROW3*%
X77090000Y-53150000D03*
%TO.P,D27,2*%
%TO.N,Net-(D27-A)*%
X69470000Y-53150000D03*
%TD*%
%TO.P,D1,1*%
%TO.N,ROW0*%
X890000Y4000000D03*
%TO.P,D1,2*%
%TO.N,Net-(D1-A)*%
X-6730000Y4000000D03*
%TD*%
D12*
%TO.P,SW35,1*%
%TO.N,COL7*%
X140385000Y-78740000D03*
%TO.P,SW35,2*%
%TO.N,Net-(D35-A)*%
X127585000Y-81280000D03*
%TD*%
%TO.P,SW7,1*%
%TO.N,COL6*%
X121335000Y-2540000D03*
%TO.P,SW7,2*%
%TO.N,Net-(D7-A)*%
X108535000Y-5080000D03*
%TD*%
D13*
%TO.P,D9,1*%
%TO.N,ROW1*%
X10415000Y-15050000D03*
%TO.P,D9,2*%
%TO.N,Net-(D9-A)*%
X2795000Y-15050000D03*
%TD*%
D12*
%TO.P,SW12,1*%
%TO.N,COL3*%
X73710000Y-21590000D03*
%TO.P,SW12,2*%
%TO.N,Net-(D12-A)*%
X60910000Y-24130000D03*
%TD*%
D13*
%TO.P,D11,1*%
%TO.N,ROW1*%
X48515000Y-15050000D03*
%TO.P,D11,2*%
%TO.N,Net-(D11-A)*%
X40895000Y-15050000D03*
%TD*%
D12*
%TO.P,SW26,1*%
%TO.N,COL3*%
X64185000Y-59690000D03*
%TO.P,SW26,2*%
%TO.N,Net-(D26-A)*%
X51385000Y-62230000D03*
%TD*%
D13*
%TO.P,D20,1*%
%TO.N,ROW2*%
X91377500Y-34100000D03*
%TO.P,D20,2*%
%TO.N,Net-(D20-A)*%
X83757500Y-34100000D03*
%TD*%
D12*
%TO.P,SW32,1*%
%TO.N,COL4*%
X83235000Y-78740000D03*
%TO.P,SW32,2*%
%TO.N,Net-(D32-A)*%
X70435000Y-81280000D03*
%TD*%
%TO.P,SW18,1*%
%TO.N,COL2*%
X59422500Y-40640000D03*
%TO.P,SW18,2*%
%TO.N,Net-(D18-A)*%
X46622500Y-43180000D03*
%TD*%
%TO.P,SW25,1*%
%TO.N,COL2*%
X45135000Y-59690000D03*
%TO.P,SW25,2*%
%TO.N,Net-(D25-A)*%
X32335000Y-62230000D03*
%TD*%
D13*
%TO.P,D3,1*%
%TO.N,ROW0*%
X38990000Y4000000D03*
%TO.P,D3,2*%
%TO.N,Net-(D3-A)*%
X31370000Y4000000D03*
%TD*%
D12*
%TO.P,SW9,1*%
%TO.N,COL0*%
X16560000Y-21590000D03*
%TO.P,SW9,2*%
%TO.N,Net-(D9-A)*%
X3760000Y-24130000D03*
%TD*%
D13*
%TO.P,D19,1*%
%TO.N,ROW2*%
X72327500Y-34100000D03*
%TO.P,D19,2*%
%TO.N,Net-(D19-A)*%
X64707500Y-34100000D03*
%TD*%
D12*
%TO.P,SW2,1*%
%TO.N,COL1*%
X26085000Y-2540000D03*
%TO.P,SW2,2*%
%TO.N,Net-(D2-A)*%
X13285000Y-5080000D03*
%TD*%
%TO.P,SW29,1*%
%TO.N,COL6*%
X130860000Y-59690000D03*
%TO.P,SW29,2*%
%TO.N,Net-(D29-A)*%
X118060000Y-62230000D03*
%TD*%
%TO.P,SW10,1*%
%TO.N,COL1*%
X35610000Y-21590000D03*
%TO.P,SW10,2*%
%TO.N,Net-(D10-A)*%
X22810000Y-24130000D03*
%TD*%
D13*
%TO.P,D29,1*%
%TO.N,ROW3*%
X124715000Y-53150000D03*
%TO.P,D29,2*%
%TO.N,Net-(D29-A)*%
X117095000Y-53150000D03*
%TD*%
D12*
%TO.P,SW17,1*%
%TO.N,COL1*%
X40372500Y-40640000D03*
%TO.P,SW17,2*%
%TO.N,Net-(D17-A)*%
X27572500Y-43180000D03*
%TD*%
D13*
%TO.P,D23,1*%
%TO.N,ROW3*%
X890000Y-53150000D03*
%TO.P,D23,2*%
%TO.N,Net-(D23-A)*%
X-6730000Y-53150000D03*
%TD*%
%TO.P,D34,1*%
%TO.N,ROW4*%
X115190000Y-72200000D03*
%TO.P,D34,2*%
%TO.N,Net-(D34-A)*%
X107570000Y-72200000D03*
%TD*%
%TO.P,D18,1*%
%TO.N,ROW2*%
X53277500Y-34100000D03*
%TO.P,D18,2*%
%TO.N,Net-(D18-A)*%
X45657500Y-34100000D03*
%TD*%
%TO.P,D10,1*%
%TO.N,ROW1*%
X29465000Y-15050000D03*
%TO.P,D10,2*%
%TO.N,Net-(D10-A)*%
X21845000Y-15050000D03*
%TD*%
D12*
%TO.P,SW22,1*%
%TO.N,COL6*%
X138003750Y-40640000D03*
%TO.P,SW22,2*%
%TO.N,Net-(D22-A)*%
X125203750Y-43180000D03*
%TD*%
%TO.P,SW24,1*%
%TO.N,COL1*%
X26085000Y-59690000D03*
%TO.P,SW24,2*%
%TO.N,Net-(D24-A)*%
X13285000Y-62230000D03*
%TD*%
%TO.P,SW5,1*%
%TO.N,COL4*%
X83235000Y-2540000D03*
%TO.P,SW5,2*%
%TO.N,Net-(D5-A)*%
X70435000Y-5080000D03*
%TD*%
%TO.P,SW13,1*%
%TO.N,COL4*%
X92760000Y-21590000D03*
%TO.P,SW13,2*%
%TO.N,Net-(D13-A)*%
X79960000Y-24130000D03*
%TD*%
%TO.P,SW20,1*%
%TO.N,COL4*%
X97522500Y-40640000D03*
%TO.P,SW20,2*%
%TO.N,Net-(D20-A)*%
X84722500Y-43180000D03*
%TD*%
D13*
%TO.P,D21,1*%
%TO.N,ROW2*%
X110427500Y-34100000D03*
%TO.P,D21,2*%
%TO.N,Net-(D21-A)*%
X102807500Y-34100000D03*
%TD*%
%TO.P,D30,1*%
%TO.N,ROW4*%
X17558750Y-72200000D03*
%TO.P,D30,2*%
%TO.N,Net-(D30-A)*%
X9938750Y-72200000D03*
%TD*%
%TO.P,D2,1*%
%TO.N,ROW0*%
X19940000Y4000000D03*
%TO.P,D2,2*%
%TO.N,Net-(D2-A)*%
X12320000Y4000000D03*
%TD*%
D12*
%TO.P,SW6,1*%
%TO.N,COL5*%
X102285000Y-2540000D03*
%TO.P,SW6,2*%
%TO.N,Net-(D6-A)*%
X89485000Y-5080000D03*
%TD*%
D13*
%TO.P,D16,1*%
%TO.N,ROW2*%
X15177500Y-34100000D03*
%TO.P,D16,2*%
%TO.N,Net-(D16-A)*%
X7557500Y-34100000D03*
%TD*%
%TO.P,D17,1*%
%TO.N,ROW2*%
X34227500Y-34100000D03*
%TO.P,D17,2*%
%TO.N,Net-(D17-A)*%
X26607500Y-34100000D03*
%TD*%
%TO.N,COL0*%
D14*
X7035000Y7965000D02*
X7035000Y-2540000D01*
X13500000Y-51000000D02*
X7500000Y-51000000D01*
X21322500Y-40640000D02*
X21322500Y-43177500D01*
X21322500Y-43177500D02*
X13500000Y-51000000D01*
X23703750Y-69703750D02*
X23703750Y-78740000D01*
X21322500Y-33677500D02*
X21322500Y-40640000D01*
X11000000Y12000000D02*
X7000000Y8000000D01*
X7000000Y8000000D02*
X7035000Y7965000D01*
X16560000Y-14060000D02*
X16560000Y-21590000D01*
X7035000Y-4535000D02*
X16560000Y-14060000D01*
X51434999Y12000000D02*
X11000000Y12000000D01*
X7035000Y-62535000D02*
X13500000Y-69000000D01*
X7035000Y-59690000D02*
X7035000Y-62535000D01*
X7500000Y-51000000D02*
X7035000Y-51465000D01*
X7035000Y-51465000D02*
X7035000Y-59690000D01*
X13500000Y-69000000D02*
X23000000Y-69000000D01*
X16560000Y-21590000D02*
X16560000Y-28560000D01*
X7035000Y-2540000D02*
X7035000Y-4535000D01*
X16560000Y-28560000D02*
X21500000Y-33500000D01*
X23000000Y-69000000D02*
X23703750Y-69703750D01*
X21500000Y-33500000D02*
X21322500Y-33677500D01*
%TO.N,COL1*%
X53974999Y12000000D02*
X51974999Y10000000D01*
X35610000Y-25610000D02*
X40372500Y-30372500D01*
X26000000Y9500000D02*
X26085000Y9415000D01*
X40372500Y-41627500D02*
X32000000Y-50000000D01*
X35610000Y-21590000D02*
X35610000Y-25610000D01*
X26085000Y-52085000D02*
X26085000Y-59690000D01*
X26085000Y9415000D02*
X26085000Y-2540000D01*
X35610000Y-15610000D02*
X35610000Y-21590000D01*
X26000000Y-52000000D02*
X26085000Y-52085000D01*
X26085000Y-6085000D02*
X35610000Y-15610000D01*
X26000000Y10000000D02*
X26000000Y9500000D01*
X26085000Y-2540000D02*
X26085000Y-6085000D01*
X32000000Y-50000000D02*
X28000000Y-50000000D01*
X40372500Y-40640000D02*
X40372500Y-41627500D01*
X51974999Y10000000D02*
X26000000Y10000000D01*
X40372500Y-30372500D02*
X40372500Y-40640000D01*
X28000000Y-50000000D02*
X26000000Y-52000000D01*
%TO.N,COL2*%
X54660000Y-12660000D02*
X54660000Y-21590000D01*
X48500000Y-50000000D02*
X45135000Y-53365000D01*
X56514999Y12000000D02*
X53514999Y9000000D01*
X50500000Y-69000000D02*
X61500000Y-69000000D01*
X54660000Y-26160000D02*
X59422500Y-30922500D01*
X59422500Y-43577500D02*
X53000000Y-50000000D01*
X54000000Y-12000000D02*
X54660000Y-12660000D01*
X45000000Y8500000D02*
X45135000Y8365000D01*
X45135000Y-59690000D02*
X45135000Y-63635000D01*
X61500000Y-69000000D02*
X61803750Y-69303750D01*
X45135000Y-6135000D02*
X51000000Y-12000000D01*
X53000000Y-50000000D02*
X48500000Y-50000000D01*
X54660000Y-21590000D02*
X54660000Y-26160000D01*
X59422500Y-40640000D02*
X59422500Y-43577500D01*
X51000000Y-12000000D02*
X54000000Y-12000000D01*
X45135000Y8365000D02*
X45135000Y-2540000D01*
X45135000Y-53365000D02*
X45135000Y-59690000D01*
X45135000Y-63635000D02*
X50500000Y-69000000D01*
X61803750Y-69303750D02*
X61803750Y-78740000D01*
X45135000Y-2540000D02*
X45135000Y-6135000D01*
X53514999Y9000000D02*
X45000000Y9000000D01*
X59422500Y-30922500D02*
X59422500Y-40640000D01*
X45000000Y9000000D02*
X45000000Y8500000D01*
%TO.N,COL3*%
X64185000Y-51315000D02*
X64185000Y-59690000D01*
X73710000Y-21590000D02*
X73710000Y-25710000D01*
X59054999Y12000000D02*
X64185000Y6869999D01*
X66000000Y-49500000D02*
X64185000Y-51315000D01*
X78472500Y-40640000D02*
X78472500Y-42527500D01*
X64185000Y-2540000D02*
X64185000Y-3685000D01*
X78472500Y-42527500D02*
X71500000Y-49500000D01*
X64185000Y-3685000D02*
X73710000Y-13210000D01*
X64185000Y6869999D02*
X64185000Y-2540000D01*
X71500000Y-49500000D02*
X66000000Y-49500000D01*
X73710000Y-25710000D02*
X78472500Y-30472500D01*
X73710000Y-13210000D02*
X73710000Y-21590000D01*
X78472500Y-30472500D02*
X78472500Y-40640000D01*
%TO.N,COL4*%
X92760000Y-21590000D02*
X92760000Y-26260000D01*
X83235000Y-53265000D02*
X83235000Y-59690000D01*
X83235000Y-2540000D02*
X83235000Y-5735000D01*
X92760000Y-15260000D02*
X92760000Y-21590000D01*
X83235000Y-59690000D02*
X83235000Y-78740000D01*
X65000000Y7500000D02*
X83235000Y7500000D01*
X92760000Y-26260000D02*
X97522500Y-31022500D01*
X61594999Y12000000D02*
X61594999Y10905001D01*
X92000000Y-48500000D02*
X88000000Y-48500000D01*
X88000000Y-48500000D02*
X83235000Y-53265000D01*
X83235000Y7500000D02*
X83235000Y-2540000D01*
X97522500Y-31022500D02*
X97522500Y-40640000D01*
X61594999Y10905001D02*
X65000000Y7500000D01*
X97522500Y-42977500D02*
X92000000Y-48500000D01*
X83235000Y-5735000D02*
X92760000Y-15260000D01*
X97522500Y-40640000D02*
X97522500Y-42977500D01*
%TO.N,COL5*%
X65500000Y8500000D02*
X102285000Y8500000D01*
X102285000Y-2540000D02*
X102285000Y-4785000D01*
X102285000Y8500000D02*
X102285000Y-2540000D01*
X102285000Y-4785000D02*
X111810000Y-14310000D01*
X111810000Y-21590000D02*
X111810000Y-28310000D01*
X115500000Y-45000000D02*
X109500000Y-45000000D01*
X116572500Y-40640000D02*
X116572500Y-43927500D01*
X64134999Y9865001D02*
X65500000Y8500000D01*
X116572500Y-43927500D02*
X115500000Y-45000000D01*
X116572500Y-33072500D02*
X116572500Y-40640000D01*
X102285000Y-59690000D02*
X102285000Y-78740000D01*
X109500000Y-45000000D02*
X102285000Y-52215000D01*
X111810000Y-14310000D02*
X111810000Y-21590000D01*
X64134999Y12000000D02*
X64134999Y9865001D01*
X102285000Y-52215000D02*
X102285000Y-59690000D01*
X111810000Y-28310000D02*
X116572500Y-33072500D01*
%TO.N,COL6*%
X130860000Y-45640000D02*
X130860000Y-59690000D01*
X138003750Y-40640000D02*
X138003750Y-42996250D01*
X121335000Y-2540000D02*
X121335000Y-7835000D01*
X122000000Y9500000D02*
X121335000Y8835000D01*
X134000000Y-11500000D02*
X135622500Y-13122500D01*
X138003750Y-23971250D02*
X138003750Y-40640000D01*
X132000000Y-44500000D02*
X130860000Y-45640000D01*
X121335000Y8835000D02*
X121335000Y-2540000D01*
X136500000Y-44500000D02*
X132000000Y-44500000D01*
X66674999Y12000000D02*
X66674999Y9825001D01*
X125000000Y-11500000D02*
X134000000Y-11500000D01*
X121335000Y-71165000D02*
X121335000Y-78740000D01*
X138003750Y-42996250D02*
X136500000Y-44500000D01*
X121335000Y-7835000D02*
X125000000Y-11500000D01*
X135622500Y-21590000D02*
X138003750Y-23971250D01*
X130860000Y-59690000D02*
X130860000Y-61640000D01*
X135622500Y-13122500D02*
X135622500Y-21590000D01*
X66674999Y9825001D02*
X67000000Y9500000D01*
X130860000Y-61640000D02*
X121335000Y-71165000D01*
X67000000Y9500000D02*
X122000000Y9500000D01*
%TO.N,COL7*%
X140385000Y7385000D02*
X140385000Y-2540000D01*
X140385000Y-2540000D02*
X140385000Y-78740000D01*
X69214999Y12000000D02*
X69214999Y10785001D01*
X69500000Y10500000D02*
X137500000Y10500000D01*
X140500000Y7500000D02*
X140385000Y7385000D01*
X69214999Y10785001D02*
X69500000Y10500000D01*
X137500000Y10500000D02*
X140500000Y7500000D01*
%TO.N,Net-(D31-A)*%
X48038750Y-80315000D02*
X49003750Y-81280000D01*
X48038750Y-72200000D02*
X48038750Y-80315000D01*
%TO.N,Net-(D19-A)*%
X64707500Y-34100000D02*
X64707500Y-42215000D01*
X64707500Y-42215000D02*
X65672500Y-43180000D01*
%TO.N,Net-(D15-A)*%
X121857500Y-15050000D02*
X121857500Y-23165000D01*
X121857500Y-23165000D02*
X122822500Y-24130000D01*
%TO.N,Net-(D28-A)*%
X88520000Y-61265000D02*
X89485000Y-62230000D01*
X88520000Y-53150000D02*
X88520000Y-61265000D01*
%TO.N,Net-(D12-A)*%
X59945000Y-23165000D02*
X60910000Y-24130000D01*
X59945000Y-15050000D02*
X59945000Y-23165000D01*
%TO.N,Net-(D7-A)*%
X107570000Y4000000D02*
X107570000Y-4115000D01*
X107570000Y-4115000D02*
X108535000Y-5080000D01*
%TO.N,Net-(D11-A)*%
X40895000Y-15050000D02*
X40895000Y-23165000D01*
X40895000Y-23165000D02*
X41860000Y-24130000D01*
%TO.N,Net-(D4-A)*%
X50420000Y-4115000D02*
X51385000Y-5080000D01*
X50420000Y4000000D02*
X50420000Y-4115000D01*
%TO.N,Net-(D25-A)*%
X31370000Y-61265000D02*
X32335000Y-62230000D01*
X31370000Y-53150000D02*
X31370000Y-61265000D01*
%TO.N,Net-(D8-A)*%
X126620000Y4000000D02*
X126620000Y-4115000D01*
X126620000Y-4115000D02*
X127585000Y-5080000D01*
%TO.N,Net-(D26-A)*%
X50420000Y-53150000D02*
X50420000Y-61265000D01*
X50420000Y-61265000D02*
X51385000Y-62230000D01*
%TO.N,Net-(D21-A)*%
X102807500Y-42215000D02*
X103772500Y-43180000D01*
X102807500Y-34100000D02*
X102807500Y-42215000D01*
%TO.N,Net-(D1-A)*%
X-6730000Y4000000D02*
X-6730000Y-4115000D01*
X-6730000Y-4115000D02*
X-5765000Y-5080000D01*
%TO.N,Net-(D5-A)*%
X69470000Y4000000D02*
X69470000Y-4115000D01*
X69470000Y-4115000D02*
X70435000Y-5080000D01*
%TO.N,Net-(D34-A)*%
X107570000Y-72200000D02*
X107570000Y-80315000D01*
X107570000Y-80315000D02*
X108535000Y-81280000D01*
%TO.N,Net-(D32-A)*%
X69470000Y-72200000D02*
X69470000Y-80315000D01*
X69470000Y-80315000D02*
X70435000Y-81280000D01*
%TO.N,Net-(D24-A)*%
X12320000Y-61265000D02*
X13285000Y-62230000D01*
X12320000Y-53150000D02*
X12320000Y-61265000D01*
%TO.N,Net-(D14-A)*%
X98045000Y-23165000D02*
X99010000Y-24130000D01*
X98045000Y-15050000D02*
X98045000Y-23165000D01*
%TO.N,Net-(D22-A)*%
X124238750Y-34100000D02*
X124238750Y-42215000D01*
X124238750Y-42215000D02*
X125203750Y-43180000D01*
%TO.N,Net-(D16-A)*%
X7557500Y-34100000D02*
X7557500Y-42215000D01*
X7557500Y-42215000D02*
X8522500Y-43180000D01*
%TO.N,Net-(D33-A)*%
X88520000Y-72200000D02*
X88520000Y-80315000D01*
X88520000Y-80315000D02*
X89485000Y-81280000D01*
%TO.N,Net-(D35-A)*%
X126620000Y-80315000D02*
X127585000Y-81280000D01*
X126620000Y-72200000D02*
X126620000Y-80315000D01*
%TO.N,Net-(D3-A)*%
X31370000Y-4115000D02*
X32335000Y-5080000D01*
X31370000Y4000000D02*
X31370000Y-4115000D01*
%TO.N,Net-(D23-A)*%
X-6730000Y-53150000D02*
X-6730000Y-61265000D01*
X-6730000Y-61265000D02*
X-5765000Y-62230000D01*
%TO.N,Net-(D6-A)*%
X88520000Y-4115000D02*
X89485000Y-5080000D01*
X88520000Y4000000D02*
X88520000Y-4115000D01*
%TO.N,Net-(D30-A)*%
X9938750Y-72200000D02*
X9938750Y-80315000D01*
X9938750Y-80315000D02*
X10903750Y-81280000D01*
%TO.N,Net-(D27-A)*%
X69470000Y-53150000D02*
X69470000Y-61265000D01*
X69470000Y-61265000D02*
X70435000Y-62230000D01*
%TO.N,Net-(D13-A)*%
X78995000Y-23165000D02*
X79960000Y-24130000D01*
X78995000Y-15050000D02*
X78995000Y-23165000D01*
%TO.N,Net-(D9-A)*%
X2795000Y-15050000D02*
X2795000Y-23165000D01*
X2795000Y-23165000D02*
X3760000Y-24130000D01*
%TO.N,Net-(D20-A)*%
X83757500Y-42215000D02*
X84722500Y-43180000D01*
X83757500Y-34100000D02*
X83757500Y-42215000D01*
%TO.N,Net-(D18-A)*%
X45657500Y-34100000D02*
X45657500Y-42215000D01*
X45657500Y-42215000D02*
X46622500Y-43180000D01*
%TO.N,Net-(D2-A)*%
X12320000Y-4115000D02*
X13285000Y-5080000D01*
X12320000Y4000000D02*
X12320000Y-4115000D01*
%TO.N,Net-(D29-A)*%
X117095000Y-53150000D02*
X117095000Y-61265000D01*
X117095000Y-61265000D02*
X118060000Y-62230000D01*
%TO.N,Net-(D10-A)*%
X21845000Y-23165000D02*
X22810000Y-24130000D01*
X21845000Y-15050000D02*
X21845000Y-23165000D01*
%TO.N,Net-(D17-A)*%
X26607500Y-34100000D02*
X26607500Y-42215000D01*
X26607500Y-42215000D02*
X27572500Y-43180000D01*
%TD*%
M02*
