%TF.GenerationSoftware,KiCad,Pcbnew,10.0.3*%
%TF.CreationDate,2026-07-08T09:26:39+09:00*%
%TF.ProjectId,keyboard,6b657962-6f61-4726-942e-6b696361645f,rev?*%
%TF.SameCoordinates,Original*%
%TF.FileFunction,Copper,L1,Top*%
%TF.FilePolarity,Positive*%
%FSLAX46Y46*%
G04 Gerber Fmt 4.6, Leading zero omitted, Abs format (unit mm)*
G04 Created by KiCad (PCBNEW 10.0.3) date 2026-07-08 09:26:39*
%MOMM*%
%LPD*%
G01*
G04 APERTURE LIST*
%TA.AperFunction,ComponentPad*%
%ADD10R,1.700000X1.700000*%
%TD*%
%TA.AperFunction,ComponentPad*%
%ADD11C,1.700000*%
%TD*%
%TA.AperFunction,ComponentPad*%
%ADD12C,1.600000*%
%TD*%
%TA.AperFunction,Conductor*%
%ADD13C,0.250000*%
%TD*%
G04 APERTURE END LIST*
D10*
%TO.P,J1,1*%
%TO.N,COL0*%
X51434999Y12000000D03*
D11*
%TO.P,J1,2*%
%TO.N,COL1*%
X53974999Y12000000D03*
%TO.P,J1,3*%
%TO.N,COL2*%
X56514999Y12000000D03*
%TO.P,J1,4*%
%TO.N,COL3*%
X59054999Y12000000D03*
%TO.P,J1,5*%
%TO.N,COL4*%
X61594999Y12000000D03*
%TO.P,J1,6*%
%TO.N,COL5*%
X64134999Y12000000D03*
%TO.P,J1,7*%
%TO.N,COL6*%
X66674999Y12000000D03*
%TO.P,J1,8*%
%TO.N,COL7*%
X69214999Y12000000D03*
%TO.P,J1,9*%
%TO.N,ROW0*%
X71754999Y12000000D03*
%TO.P,J1,10*%
%TO.N,ROW1*%
X74294999Y12000000D03*
%TO.P,J1,11*%
%TO.N,ROW2*%
X76834999Y12000000D03*
%TO.P,J1,12*%
%TO.N,ROW3*%
X79374999Y12000000D03*
%TO.P,J1,13*%
%TO.N,ROW4*%
X81914999Y12000000D03*
%TD*%
D12*
%TO.P,D31,1*%
%TO.N,ROW4*%
X55658750Y-72200000D03*
%TO.P,D31,2*%
%TO.N,Net-(D31-A)*%
X48038750Y-72200000D03*
%TD*%
%TO.P,D12,1*%
%TO.N,ROW1*%
X67565000Y-15050000D03*
%TO.P,D12,2*%
%TO.N,Net-(D12-A)*%
X59945000Y-15050000D03*
%TD*%
%TO.P,D7,1*%
%TO.N,ROW0*%
X115190000Y4000000D03*
%TO.P,D7,2*%
%TO.N,Net-(D7-A)*%
X107570000Y4000000D03*
%TD*%
%TO.P,D4,1*%
%TO.N,ROW0*%
X58040000Y4000000D03*
%TO.P,D4,2*%
%TO.N,Net-(D4-A)*%
X50420000Y4000000D03*
%TD*%
%TO.P,D25,1*%
%TO.N,ROW3*%
X38990000Y-53150000D03*
%TO.P,D25,2*%
%TO.N,Net-(D25-A)*%
X31370000Y-53150000D03*
%TD*%
%TO.P,D26,1*%
%TO.N,ROW3*%
X58040000Y-53150000D03*
%TO.P,D26,2*%
%TO.N,Net-(D26-A)*%
X50420000Y-53150000D03*
%TD*%
%TO.P,D5,1*%
%TO.N,ROW0*%
X77090000Y4000000D03*
%TO.P,D5,2*%
%TO.N,Net-(D5-A)*%
X69470000Y4000000D03*
%TD*%
%TO.P,D15,1*%
%TO.N,ROW1*%
X129477500Y-15050000D03*
%TO.P,D15,2*%
%TO.N,Net-(D15-A)*%
X121857500Y-15050000D03*
%TD*%
%TO.P,D8,1*%
%TO.N,ROW0*%
X134240000Y4000000D03*
%TO.P,D8,2*%
%TO.N,Net-(D8-A)*%
X126620000Y4000000D03*
%TD*%
%TO.P,D32,1*%
%TO.N,ROW4*%
X77090000Y-72200000D03*
%TO.P,D32,2*%
%TO.N,Net-(D32-A)*%
X69470000Y-72200000D03*
%TD*%
%TO.P,D24,1*%
%TO.N,ROW3*%
X19940000Y-53150000D03*
%TO.P,D24,2*%
%TO.N,Net-(D24-A)*%
X12320000Y-53150000D03*
%TD*%
%TO.P,D14,1*%
%TO.N,ROW1*%
X105665000Y-15050000D03*
%TO.P,D14,2*%
%TO.N,Net-(D14-A)*%
X98045000Y-15050000D03*
%TD*%
%TO.P,D22,1*%
%TO.N,ROW2*%
X131858750Y-34100000D03*
%TO.P,D22,2*%
%TO.N,Net-(D22-A)*%
X124238750Y-34100000D03*
%TD*%
%TO.P,D33,1*%
%TO.N,ROW4*%
X96140000Y-72200000D03*
%TO.P,D33,2*%
%TO.N,Net-(D33-A)*%
X88520000Y-72200000D03*
%TD*%
%TO.P,D35,1*%
%TO.N,ROW4*%
X134240000Y-72200000D03*
%TO.P,D35,2*%
%TO.N,Net-(D35-A)*%
X126620000Y-72200000D03*
%TD*%
%TO.P,D6,1*%
%TO.N,ROW0*%
X96140000Y4000000D03*
%TO.P,D6,2*%
%TO.N,Net-(D6-A)*%
X88520000Y4000000D03*
%TD*%
%TO.P,D28,1*%
%TO.N,ROW3*%
X96140000Y-53150000D03*
%TO.P,D28,2*%
%TO.N,Net-(D28-A)*%
X88520000Y-53150000D03*
%TD*%
%TO.P,D13,1*%
%TO.N,ROW1*%
X86615000Y-15050000D03*
%TO.P,D13,2*%
%TO.N,Net-(D13-A)*%
X78995000Y-15050000D03*
%TD*%
%TO.P,D27,1*%
%TO.N,ROW3*%
X77090000Y-53150000D03*
%TO.P,D27,2*%
%TO.N,Net-(D27-A)*%
X69470000Y-53150000D03*
%TD*%
%TO.P,D1,1*%
%TO.N,ROW0*%
X890000Y4000000D03*
%TO.P,D1,2*%
%TO.N,Net-(D1-A)*%
X-6730000Y4000000D03*
%TD*%
%TO.P,D9,1*%
%TO.N,ROW1*%
X10415000Y-15050000D03*
%TO.P,D9,2*%
%TO.N,Net-(D9-A)*%
X2795000Y-15050000D03*
%TD*%
%TO.P,D11,1*%
%TO.N,ROW1*%
X48515000Y-15050000D03*
%TO.P,D11,2*%
%TO.N,Net-(D11-A)*%
X40895000Y-15050000D03*
%TD*%
%TO.P,D20,1*%
%TO.N,ROW2*%
X91377500Y-34100000D03*
%TO.P,D20,2*%
%TO.N,Net-(D20-A)*%
X83757500Y-34100000D03*
%TD*%
%TO.P,D3,1*%
%TO.N,ROW0*%
X38990000Y4000000D03*
%TO.P,D3,2*%
%TO.N,Net-(D3-A)*%
X31370000Y4000000D03*
%TD*%
%TO.P,D19,1*%
%TO.N,ROW2*%
X72327500Y-34100000D03*
%TO.P,D19,2*%
%TO.N,Net-(D19-A)*%
X64707500Y-34100000D03*
%TD*%
%TO.P,D29,1*%
%TO.N,ROW3*%
X124715000Y-53150000D03*
%TO.P,D29,2*%
%TO.N,Net-(D29-A)*%
X117095000Y-53150000D03*
%TD*%
%TO.P,D23,1*%
%TO.N,ROW3*%
X890000Y-53150000D03*
%TO.P,D23,2*%
%TO.N,Net-(D23-A)*%
X-6730000Y-53150000D03*
%TD*%
%TO.P,D34,1*%
%TO.N,ROW4*%
X115190000Y-72200000D03*
%TO.P,D34,2*%
%TO.N,Net-(D34-A)*%
X107570000Y-72200000D03*
%TD*%
%TO.P,D18,1*%
%TO.N,ROW2*%
X53277500Y-34100000D03*
%TO.P,D18,2*%
%TO.N,Net-(D18-A)*%
X45657500Y-34100000D03*
%TD*%
%TO.P,D10,1*%
%TO.N,ROW1*%
X29465000Y-15050000D03*
%TO.P,D10,2*%
%TO.N,Net-(D10-A)*%
X21845000Y-15050000D03*
%TD*%
%TO.P,D21,1*%
%TO.N,ROW2*%
X110427500Y-34100000D03*
%TO.P,D21,2*%
%TO.N,Net-(D21-A)*%
X102807500Y-34100000D03*
%TD*%
%TO.P,D30,1*%
%TO.N,ROW4*%
X17558750Y-72200000D03*
%TO.P,D30,2*%
%TO.N,Net-(D30-A)*%
X9938750Y-72200000D03*
%TD*%
%TO.P,D2,1*%
%TO.N,ROW0*%
X19940000Y4000000D03*
%TO.P,D2,2*%
%TO.N,Net-(D2-A)*%
X12320000Y4000000D03*
%TD*%
%TO.P,D16,1*%
%TO.N,ROW2*%
X15177500Y-34100000D03*
%TO.P,D16,2*%
%TO.N,Net-(D16-A)*%
X7557500Y-34100000D03*
%TD*%
%TO.P,D17,1*%
%TO.N,ROW2*%
X34227500Y-34100000D03*
%TO.P,D17,2*%
%TO.N,Net-(D17-A)*%
X26607500Y-34100000D03*
%TD*%
%TO.N,ROW0*%
D13*
X76254999Y7500000D02*
X137000000Y7500000D01*
X40115000Y5125000D02*
X56915000Y5125000D01*
X139500000Y5000000D02*
X139500000Y4000000D01*
X38990000Y4000000D02*
X40115000Y5125000D01*
X37865000Y5125000D02*
X38990000Y4000000D01*
X96140000Y4000000D02*
X97265000Y5125000D01*
X890000Y4000000D02*
X2015000Y5125000D01*
X19940000Y4000000D02*
X21065000Y5125000D01*
X71754999Y12000000D02*
X76254999Y7500000D01*
X59165000Y5125000D02*
X75965000Y5125000D01*
X58040000Y4000000D02*
X59165000Y5125000D01*
X115190000Y4000000D02*
X116315000Y5125000D01*
X97265000Y5125000D02*
X114065000Y5125000D01*
X21065000Y5125000D02*
X37865000Y5125000D01*
X77090000Y4000000D02*
X78215000Y5125000D01*
X137000000Y7500000D02*
X139500000Y5000000D01*
X18815000Y5125000D02*
X19940000Y4000000D01*
X116315000Y5125000D02*
X133115000Y5125000D01*
X95015000Y5125000D02*
X96140000Y4000000D01*
X75965000Y5125000D02*
X77090000Y4000000D01*
X133115000Y5125000D02*
X134240000Y4000000D01*
X114065000Y5125000D02*
X115190000Y4000000D01*
X139500000Y4000000D02*
X134240000Y4000000D01*
X78215000Y5125000D02*
X95015000Y5125000D01*
X56915000Y5125000D02*
X58040000Y4000000D01*
X2015000Y5125000D02*
X18815000Y5125000D01*
%TO.N,ROW1*%
X74500000Y12000000D02*
X76500000Y10000000D01*
X79000000Y8500000D02*
X83000000Y8500000D01*
X143000000Y3000000D02*
X143000000Y-14500000D01*
X11540000Y-13925000D02*
X28340000Y-13925000D01*
X143000000Y-14500000D02*
X142450000Y-15050000D01*
X74294999Y12000000D02*
X74500000Y12000000D01*
X49640000Y-13925000D02*
X66440000Y-13925000D01*
X29465000Y-15050000D02*
X30590000Y-13925000D01*
X106790000Y-13925000D02*
X128352500Y-13925000D01*
X48515000Y-15050000D02*
X49640000Y-13925000D01*
X68690000Y-13925000D02*
X85490000Y-13925000D01*
X137000000Y9000000D02*
X143000000Y3000000D01*
X10415000Y-15050000D02*
X11540000Y-13925000D01*
X66440000Y-13925000D02*
X67565000Y-15050000D01*
X47390000Y-13925000D02*
X48515000Y-15050000D01*
X85490000Y-13925000D02*
X86615000Y-15050000D01*
X77500000Y10000000D02*
X79000000Y8500000D01*
X28340000Y-13925000D02*
X29465000Y-15050000D01*
X105665000Y-15050000D02*
X106790000Y-13925000D01*
X30590000Y-13925000D02*
X47390000Y-13925000D01*
X104540000Y-13925000D02*
X105665000Y-15050000D01*
X83000000Y8500000D02*
X83500000Y9000000D01*
X76500000Y10000000D02*
X77500000Y10000000D01*
X67565000Y-15050000D02*
X68690000Y-13925000D01*
X142450000Y-15050000D02*
X129477500Y-15050000D01*
X87740000Y-13925000D02*
X104540000Y-13925000D01*
X128352500Y-13925000D02*
X129477500Y-15050000D01*
X86615000Y-15050000D02*
X87740000Y-13925000D01*
X83500000Y9000000D02*
X137000000Y9000000D01*
%TO.N,ROW2*%
X90252500Y-32975000D02*
X91377500Y-34100000D01*
X53277500Y-34100000D02*
X54402500Y-32975000D01*
X144000000Y-30500000D02*
X140400000Y-34100000D01*
X54402500Y-32975000D02*
X71202500Y-32975000D01*
X79334999Y9500000D02*
X83000000Y9500000D01*
X140400000Y-34100000D02*
X131858750Y-34100000D01*
X111552500Y-32975000D02*
X130733750Y-32975000D01*
X33102500Y-32975000D02*
X34227500Y-34100000D01*
X144000000Y3500000D02*
X144000000Y-30500000D01*
X35352500Y-32975000D02*
X52152500Y-32975000D01*
X109302500Y-32975000D02*
X110427500Y-34100000D01*
X16302500Y-32975000D02*
X33102500Y-32975000D01*
X83500000Y10000000D02*
X137500000Y10000000D01*
X34227500Y-34100000D02*
X35352500Y-32975000D01*
X130733750Y-32975000D02*
X131858750Y-34100000D01*
X71202500Y-32975000D02*
X72327500Y-34100000D01*
X76834999Y12000000D02*
X79334999Y9500000D01*
X72327500Y-34100000D02*
X73452500Y-32975000D01*
X73452500Y-32975000D02*
X90252500Y-32975000D01*
X137500000Y10000000D02*
X144000000Y3500000D01*
X92502500Y-32975000D02*
X109302500Y-32975000D01*
X91377500Y-34100000D02*
X92502500Y-32975000D01*
X83000000Y9500000D02*
X83500000Y10000000D01*
X15177500Y-34100000D02*
X16302500Y-32975000D01*
X110427500Y-34100000D02*
X111552500Y-32975000D01*
X52152500Y-32975000D02*
X53277500Y-34100000D01*
%TO.N,ROW3*%
X2015000Y-52025000D02*
X18815000Y-52025000D01*
X56915000Y-52025000D02*
X58040000Y-53150000D01*
X80874999Y10500000D02*
X83000000Y10500000D01*
X78215000Y-52025000D02*
X95015000Y-52025000D01*
X83500000Y11000000D02*
X138000000Y11000000D01*
X38990000Y-53150000D02*
X40115000Y-52025000D01*
X122565000Y-51000000D02*
X124715000Y-53150000D01*
X139000000Y-45500000D02*
X132365000Y-45500000D01*
X59165000Y-52025000D02*
X75965000Y-52025000D01*
X21065000Y-52025000D02*
X37865000Y-52025000D01*
X145000000Y-31000000D02*
X140000000Y-36000000D01*
X145000000Y4000000D02*
X145000000Y-31000000D01*
X77090000Y-53150000D02*
X78215000Y-52025000D01*
X19940000Y-53150000D02*
X21065000Y-52025000D01*
X83000000Y10500000D02*
X83500000Y11000000D01*
X132365000Y-45500000D02*
X124715000Y-53150000D01*
X18815000Y-52025000D02*
X19940000Y-53150000D01*
X140000000Y-36000000D02*
X140000000Y-44500000D01*
X96140000Y-53150000D02*
X113850000Y-53150000D01*
X40115000Y-52025000D02*
X56915000Y-52025000D01*
X75965000Y-52025000D02*
X77090000Y-53150000D01*
X140000000Y-44500000D02*
X139000000Y-45500000D01*
X113850000Y-53150000D02*
X116000000Y-51000000D01*
X116000000Y-51000000D02*
X122565000Y-51000000D01*
X95015000Y-52025000D02*
X96140000Y-53150000D01*
X79374999Y12000000D02*
X80874999Y10500000D01*
X58040000Y-53150000D02*
X59165000Y-52025000D01*
X138000000Y11000000D02*
X145000000Y4000000D01*
X37865000Y-52025000D02*
X38990000Y-53150000D01*
X890000Y-53150000D02*
X2015000Y-52025000D01*
%TO.N,ROW4*%
X51958750Y-68500000D02*
X55658750Y-72200000D01*
X146000000Y-31500000D02*
X141000000Y-36500000D01*
X55658750Y-72200000D02*
X56783750Y-71075000D01*
X133115000Y-71075000D02*
X134240000Y-72200000D01*
X19300000Y-72200000D02*
X28000000Y-63500000D01*
X96140000Y-72200000D02*
X97265000Y-71075000D01*
X78215000Y-71075000D02*
X95015000Y-71075000D01*
X95015000Y-71075000D02*
X96140000Y-72200000D01*
X141000000Y-70000000D02*
X138800000Y-72200000D01*
X138500000Y12000000D02*
X146000000Y4500000D01*
X29000000Y-64500000D02*
X32000000Y-64500000D01*
X115190000Y-72200000D02*
X116315000Y-71075000D01*
X28000000Y-63500000D02*
X29000000Y-64500000D01*
X138800000Y-72200000D02*
X134240000Y-72200000D01*
X56783750Y-71075000D02*
X75965000Y-71075000D01*
X75965000Y-71075000D02*
X77090000Y-72200000D01*
X141000000Y-36500000D02*
X141000000Y-70000000D01*
X81914999Y12000000D02*
X138500000Y12000000D01*
X17558750Y-72200000D02*
X19300000Y-72200000D01*
X36000000Y-68500000D02*
X51958750Y-68500000D01*
X97265000Y-71075000D02*
X114065000Y-71075000D01*
X114065000Y-71075000D02*
X115190000Y-72200000D01*
X116315000Y-71075000D02*
X133115000Y-71075000D01*
X146000000Y4500000D02*
X146000000Y-31500000D01*
X32000000Y-64500000D02*
X36000000Y-68500000D01*
X77090000Y-72200000D02*
X78215000Y-71075000D01*
%TD*%
M02*
