M48
; DRILL file KiCad 10.0.3 date 2026-07-08T09:26:39
; FORMAT={-:-/ absolute / metric / decimal}
; #@! TF.CreationDate,2026-07-08T09:26:39+09:00
; #@! TF.GenerationSoftware,Kicad,Pcbnew,10.0.3
; #@! TF.FileFunction,MixedPlating,1,2
FMAT,2
METRIC
; #@! TA.AperFunction,Plated,PTH,ComponentDrill
T1C0.800
; #@! TA.AperFunction,Plated,PTH,ComponentDrill
T2C1.000
; #@! TA.AperFunction,NonPlated,NPTH,ComponentDrill
T3C1.750
; #@! TA.AperFunction,NonPlated,NPTH,ComponentDrill
T4C3.048
; #@! TA.AperFunction,NonPlated,NPTH,ComponentDrill
T5C3.050
; #@! TA.AperFunction,NonPlated,NPTH,ComponentDrill
T6C3.988
; #@! TA.AperFunction,NonPlated,NPTH,ComponentDrill
T7C4.000
; #@! TA.AperFunction,NonPlated,NPTH,ComponentDrill
T8C5.400
%
G90
G05
T1
X-6.73Y4.0
X-6.73Y-53.15
X0.89Y4.0
X0.89Y-53.15
X2.795Y-15.05
X7.557Y-34.1
X9.939Y-72.2
X10.415Y-15.05
X12.32Y4.0
X12.32Y-53.15
X15.177Y-34.1
X17.559Y-72.2
X19.94Y4.0
X19.94Y-53.15
X21.845Y-15.05
X26.607Y-34.1
X29.465Y-15.05
X31.37Y4.0
X31.37Y-53.15
X34.227Y-34.1
X38.99Y4.0
X38.99Y-53.15
X40.895Y-15.05
X45.657Y-34.1
X48.039Y-72.2
X48.515Y-15.05
X50.42Y4.0
X50.42Y-53.15
X53.277Y-34.1
X55.659Y-72.2
X58.04Y4.0
X58.04Y-53.15
X59.945Y-15.05
X64.707Y-34.1
X67.565Y-15.05
X69.47Y4.0
X69.47Y-53.15
X69.47Y-72.2
X72.328Y-34.1
X77.09Y4.0
X77.09Y-53.15
X77.09Y-72.2
X78.995Y-15.05
X83.757Y-34.1
X86.615Y-15.05
X88.52Y4.0
X88.52Y-53.15
X88.52Y-72.2
X91.377Y-34.1
X96.14Y4.0
X96.14Y-53.15
X96.14Y-72.2
X98.045Y-15.05
X102.807Y-34.1
X105.665Y-15.05
X107.57Y4.0
X107.57Y-72.2
X110.427Y-34.1
X115.19Y4.0
X115.19Y-72.2
X117.095Y-53.15
X121.857Y-15.05
X124.239Y-34.1
X124.715Y-53.15
X126.62Y4.0
X126.62Y-72.2
X129.477Y-15.05
X131.859Y-34.1
X134.24Y4.0
X134.24Y-72.2
T2
X51.435Y12.0
X53.975Y12.0
X56.515Y12.0
X59.055Y12.0
X61.595Y12.0
X64.135Y12.0
X66.675Y12.0
X69.215Y12.0
X71.755Y12.0
X74.295Y12.0
X76.835Y12.0
X79.375Y12.0
X81.915Y12.0
T3
X-5.08Y0.0
X-5.08Y-57.15
X4.445Y-19.05
X5.08Y0.0
X5.08Y-57.15
X9.207Y-38.1
X11.589Y-76.2
X13.97Y0.0
X13.97Y-57.15
X14.605Y-19.05
X19.367Y-38.1
X21.749Y-76.2
X23.495Y-19.05
X24.13Y0.0
X24.13Y-57.15
X28.258Y-38.1
X33.02Y0.0
X33.02Y-57.15
X33.655Y-19.05
X38.417Y-38.1
X42.545Y-19.05
X43.18Y0.0
X43.18Y-57.15
X47.307Y-38.1
X49.689Y-76.2
X52.07Y0.0
X52.07Y-57.15
X52.705Y-19.05
X57.467Y-38.1
X59.849Y-76.2
X61.595Y-19.05
X62.23Y0.0
X62.23Y-57.15
X66.358Y-38.1
X71.12Y0.0
X71.12Y-57.15
X71.12Y-76.2
X71.755Y-19.05
X76.517Y-38.1
X80.645Y-19.05
X81.28Y0.0
X81.28Y-57.15
X81.28Y-76.2
X85.407Y-38.1
X90.17Y0.0
X90.17Y-57.15
X90.17Y-76.2
X90.805Y-19.05
X95.567Y-38.1
X99.695Y-19.05
X100.33Y0.0
X100.33Y-57.15
X100.33Y-76.2
X104.457Y-38.1
X109.22Y0.0
X109.22Y-76.2
X109.855Y-19.05
X114.617Y-38.1
X118.745Y-57.15
X119.38Y0.0
X119.38Y-76.2
X123.507Y-19.05
X125.889Y-38.1
X128.27Y0.0
X128.27Y-76.2
X128.905Y-57.15
X133.667Y-19.05
X136.049Y-38.1
X138.43Y0.0
X138.43Y-76.2
T4
X4.731Y-83.185
X28.607Y-83.185
X111.887Y-64.135
X135.763Y-64.135
T5
X-2.54Y-5.08
X-2.54Y-62.23
X3.81Y-2.54
X3.81Y-59.69
X6.985Y-24.13
X11.747Y-43.18
X13.335Y-21.59
X14.129Y-81.28
X16.51Y-5.08
X16.51Y-62.23
X18.098Y-40.64
X20.479Y-78.74
X22.86Y-2.54
X22.86Y-59.69
X26.035Y-24.13
X30.797Y-43.18
X32.385Y-21.59
X35.56Y-5.08
X35.56Y-62.23
X37.148Y-40.64
X41.91Y-2.54
X41.91Y-59.69
X45.085Y-24.13
X49.847Y-43.18
X51.435Y-21.59
X52.229Y-81.28
X54.61Y-5.08
X54.61Y-62.23
X56.197Y-40.64
X58.579Y-78.74
X60.96Y-2.54
X60.96Y-59.69
X64.135Y-24.13
X68.897Y-43.18
X70.485Y-21.59
X73.66Y-5.08
X73.66Y-62.23
X73.66Y-81.28
X75.248Y-40.64
X80.01Y-2.54
X80.01Y-59.69
X80.01Y-78.74
X83.185Y-24.13
X87.947Y-43.18
X89.535Y-21.59
X92.71Y-5.08
X92.71Y-62.23
X92.71Y-81.28
X94.297Y-40.64
X99.06Y-2.54
X99.06Y-59.69
X99.06Y-78.74
X102.235Y-24.13
X106.997Y-43.18
X108.585Y-21.59
X111.76Y-5.08
X111.76Y-81.28
X113.347Y-40.64
X118.11Y-2.54
X118.11Y-78.74
X121.285Y-62.23
X126.047Y-24.13
X127.635Y-59.69
X128.429Y-43.18
X130.81Y-5.08
X130.81Y-81.28
X132.398Y-21.59
X134.779Y-40.64
X137.16Y-2.54
X137.16Y-78.74
T6
X4.731Y-67.975
X28.607Y-67.975
X111.887Y-48.925
X135.763Y-48.925
T7
X0.0Y0.0
X0.0Y-57.15
X9.525Y-19.05
X14.287Y-38.1
X16.669Y-76.2
X19.05Y0.0
X19.05Y-57.15
X28.575Y-19.05
X33.337Y-38.1
X38.1Y0.0
X38.1Y-57.15
X47.625Y-19.05
X52.387Y-38.1
X54.769Y-76.2
X57.15Y0.0
X57.15Y-57.15
X66.675Y-19.05
X71.438Y-38.1
X76.2Y0.0
X76.2Y-57.15
X76.2Y-76.2
X85.725Y-19.05
X90.487Y-38.1
X95.25Y0.0
X95.25Y-57.15
X95.25Y-76.2
X104.775Y-19.05
X109.537Y-38.1
X114.3Y0.0
X114.3Y-76.2
X123.825Y-57.15
X128.588Y-19.05
X130.969Y-38.1
X133.35Y0.0
X133.35Y-76.2
T8
X-12.025Y12.025
X-12.025Y-38.1
X-12.025Y-88.225
X145.375Y12.025
X145.375Y-38.1
X145.375Y-88.225
M30
