<?xml version="1.0" standalone="no"?>
 <!DOCTYPE svg PUBLIC "-//W3C//DTD SVG 1.1//EN" 
 "http://www.w3.org/Graphics/SVG/1.1/DTD/svg11.dtd"> 
<svg
  xmlns:svg="http://www.w3.org/2000/svg"
  xmlns="http://www.w3.org/2000/svg"
  xmlns:xlink="http://www.w3.org/1999/xlink"
  version="1.1"
  width="82.0674mm" height="95.3262mm" viewBox="0.0000 0.0000 82.0674 95.3262">
<title>SVG Image created as back.svg date 2026/04/17 08:48:40 </title>
  <desc>Image generated by PCBNEW </desc>
<g style="fill:#000000; fill-opacity:1.0000;stroke:#000000; stroke-opacity:1.0000;
stroke-linecap:round; stroke-linejoin:round;"
 transform="translate(0 0) scale(1 1)">
<path style="fill:#4D7FC4; fill-opacity:1.0000; stroke:none;fill-rule:evenodd;"
d="M 56.0350,51.2150
56.0160,51.3107
55.9618,51.3918
55.8807,51.4460
55.7850,51.4650
53.7350,51.4650
53.6393,51.4460
53.5582,51.3918
53.5040,51.3107
53.4850,51.2150
53.4850,49.2150
53.5040,49.1193
53.5582,49.0382
53.6393,48.9840
53.7350,48.9650
55.7850,48.9650
55.8807,48.9840
55.9618,49.0382
56.0160,49.1193
56.0350,49.2150
Z" /> 
<path style="fill:#4D7FC4; fill-opacity:1.0000; stroke:none;fill-rule:evenodd;"
d="M 43.1080,53.7550
43.0890,53.8507
43.0348,53.9318
42.9537,53.9860
42.8580,54.0050
40.8080,54.0050
40.7123,53.9860
40.6312,53.9318
40.5770,53.8507
40.5580,53.7550
40.5580,51.7550
40.5770,51.6593
40.6312,51.5782
40.7123,51.5240
40.8080,51.5050
42.8580,51.5050
42.9537,51.5240
43.0348,51.5782
43.0890,51.6593
43.1080,51.7550
Z" /> 
<path style="fill:#4D7FC4; fill-opacity:1.0000; stroke:none;fill-rule:evenodd;"
d="M 36.9850,51.2150
36.9660,51.3107
36.9118,51.3918
36.8307,51.4460
36.7350,51.4650
34.6850,51.4650
34.5893,51.4460
34.5082,51.3918
34.4540,51.3107
34.4350,51.2150
34.4350,49.2150
34.4540,49.1193
34.5082,49.0382
34.5893,48.9840
34.6850,48.9650
36.7350,48.9650
36.8307,48.9840
36.9118,49.0382
36.9660,49.1193
36.9850,49.2150
Z" /> 
<path style="fill:#4D7FC4; fill-opacity:1.0000; stroke:none;fill-rule:evenodd;"
d="M 24.0580,53.7550
24.0390,53.8507
23.9848,53.9318
23.9037,53.9860
23.8080,54.0050
21.7580,54.0050
21.6623,53.9860
21.5812,53.9318
21.5270,53.8507
21.5080,53.7550
21.5080,51.7550
21.5270,51.6593
21.5812,51.5782
21.6623,51.5240
21.7580,51.5050
23.8080,51.5050
23.9037,51.5240
23.9848,51.5782
24.0390,51.6593
24.0580,51.7550
Z" /> 
<path style="fill:#4D7FC4; fill-opacity:1.0000; stroke:none;fill-rule:evenodd;"
d="M 75.0850,79.7900
75.0660,79.8857
75.0118,79.9668
74.9307,80.0210
74.8350,80.0400
72.7850,80.0400
72.6893,80.0210
72.6082,79.9668
72.5540,79.8857
72.5350,79.7900
72.5350,77.7900
72.5540,77.6943
72.6082,77.6132
72.6893,77.5590
72.7850,77.5400
74.8350,77.5400
74.9307,77.5590
75.0118,77.6132
75.0660,77.6943
75.0850,77.7900
Z" /> 
<path style="fill:#4D7FC4; fill-opacity:1.0000; stroke:none;fill-rule:evenodd;"
d="M 62.1580,82.3300
62.1390,82.4257
62.0848,82.5068
62.0037,82.5610
61.9080,82.5800
59.8580,82.5800
59.7623,82.5610
59.6812,82.5068
59.6270,82.4257
59.6080,82.3300
59.6080,80.3300
59.6270,80.2343
59.6812,80.1532
59.7623,80.0990
59.8580,80.0800
61.9080,80.0800
62.0037,80.0990
62.0848,80.1532
62.1390,80.2343
62.1580,80.3300
Z" /> 
<path style="fill:#4D7FC4; fill-opacity:1.0000; stroke:none;fill-rule:evenodd;"
d="M 56.0350,70.2650
56.0160,70.3607
55.9618,70.4418
55.8807,70.4960
55.7850,70.5150
53.7350,70.5150
53.6393,70.4960
53.5582,70.4418
53.5040,70.3607
53.4850,70.2650
53.4850,68.2650
53.5040,68.1693
53.5582,68.0882
53.6393,68.0340
53.7350,68.0150
55.7850,68.0150
55.8807,68.0340
55.9618,68.0882
56.0160,68.1693
56.0350,68.2650
Z" /> 
<path style="fill:#4D7FC4; fill-opacity:1.0000; stroke:none;fill-rule:evenodd;"
d="M 43.1080,72.8050
43.0890,72.9007
43.0348,72.9818
42.9537,73.0360
42.8580,73.0550
40.8080,73.0550
40.7123,73.0360
40.6312,72.9818
40.5770,72.9007
40.5580,72.8050
40.5580,70.8050
40.5770,70.7093
40.6312,70.6282
40.7123,70.5740
40.8080,70.5550
42.8580,70.5550
42.9537,70.5740
43.0348,70.6282
43.0890,70.7093
43.1080,70.8050
Z" /> 
<path style="fill:#4D7FC4; fill-opacity:1.0000; stroke:none;fill-rule:evenodd;"
d="M 75.0850,13.1150
75.0660,13.2107
75.0118,13.2918
74.9307,13.3460
74.8350,13.3650
72.7850,13.3650
72.6893,13.3460
72.6082,13.2918
72.5540,13.2107
72.5350,13.1150
72.5350,11.1150
72.5540,11.0193
72.6082,10.9382
72.6893,10.8840
72.7850,10.8650
74.8350,10.8650
74.9307,10.8840
75.0118,10.9382
75.0660,11.0193
75.0850,11.1150
Z" /> 
<path style="fill:#4D7FC4; fill-opacity:1.0000; stroke:none;fill-rule:evenodd;"
d="M 62.1580,15.6550
62.1390,15.7507
62.0848,15.8318
62.0037,15.8860
61.9080,15.9050
59.8580,15.9050
59.7623,15.8860
59.6812,15.8318
59.6270,15.7507
59.6080,15.6550
59.6080,13.6550
59.6270,13.5593
59.6812,13.4782
59.7623,13.4240
59.8580,13.4050
61.9080,13.4050
62.0037,13.4240
62.0848,13.4782
62.1390,13.5593
62.1580,13.6550
Z" /> 
<path style="fill:#4D7FC4; fill-opacity:1.0000; stroke:none;fill-rule:evenodd;"
d="M 56.0350,32.1650
56.0160,32.2607
55.9618,32.3418
55.8807,32.3960
55.7850,32.4150
53.7350,32.4150
53.6393,32.3960
53.5582,32.3418
53.5040,32.2607
53.4850,32.1650
53.4850,30.1650
53.5040,30.0693
53.5582,29.9882
53.6393,29.9340
53.7350,29.9150
55.7850,29.9150
55.8807,29.9340
55.9618,29.9882
56.0160,30.0693
56.0350,30.1650
Z" /> 
<path style="fill:#4D7FC4; fill-opacity:1.0000; stroke:none;fill-rule:evenodd;"
d="M 43.1080,34.7050
43.0890,34.8007
43.0348,34.8818
42.9537,34.9360
42.8580,34.9550
40.8080,34.9550
40.7123,34.9360
40.6312,34.8818
40.5770,34.8007
40.5580,34.7050
40.5580,32.7050
40.5770,32.6093
40.6312,32.5282
40.7123,32.4740
40.8080,32.4550
42.8580,32.4550
42.9537,32.4740
43.0348,32.5282
43.0890,32.6093
43.1080,32.7050
Z" /> 
<path style="fill:#4D7FC4; fill-opacity:1.0000; stroke:none;fill-rule:evenodd;"
d="M 17.9350,51.2150
17.9160,51.3107
17.8618,51.3918
17.7807,51.4460
17.6850,51.4650
15.6350,51.4650
15.5393,51.4460
15.4582,51.3918
15.4040,51.3107
15.3850,51.2150
15.3850,49.2150
15.4040,49.1193
15.4582,49.0382
15.5393,48.9840
15.6350,48.9650
17.6850,48.9650
17.7807,48.9840
17.8618,49.0382
17.9160,49.1193
17.9350,49.2150
Z" /> 
<path style="fill:#4D7FC4; fill-opacity:1.0000; stroke:none;fill-rule:evenodd;"
d="M 5.0080,53.7550
4.9890,53.8507
4.9348,53.9318
4.8537,53.9860
4.7580,54.0050
2.7080,54.0050
2.6123,53.9860
2.5312,53.9318
2.4770,53.8507
2.4580,53.7550
2.4580,51.7550
2.4770,51.6593
2.5312,51.5782
2.6123,51.5240
2.7080,51.5050
4.7580,51.5050
4.8537,51.5240
4.9348,51.5782
4.9890,51.6593
5.0080,51.7550
Z" /> 
<path style="fill:#4D7FC4; fill-opacity:1.0000; stroke:none;fill-rule:evenodd;"
d="M 27.4600,89.3150
27.4410,89.4107
27.3868,89.4918
27.3057,89.5460
27.2100,89.5650
25.1600,89.5650
25.0643,89.5460
24.9832,89.4918
24.9290,89.4107
24.9100,89.3150
24.9100,87.3150
24.9290,87.2193
24.9832,87.1382
25.0643,87.0840
25.1600,87.0650
27.2100,87.0650
27.3057,87.0840
27.3868,87.1382
27.4410,87.2193
27.4600,87.3150
Z" /> 
<path style="fill:#4D7FC4; fill-opacity:1.0000; stroke:none;fill-rule:evenodd;"
d="M 14.5330,91.8550
14.5140,91.9507
14.4598,92.0318
14.3787,92.0860
14.2830,92.1050
12.2330,92.1050
12.1373,92.0860
12.0562,92.0318
12.0020,91.9507
11.9830,91.8550
11.9830,89.8550
12.0020,89.7593
12.0562,89.6782
12.1373,89.6240
12.2330,89.6050
14.2830,89.6050
14.3787,89.6240
14.4598,89.6782
14.5140,89.7593
14.5330,89.8550
Z" /> 
<path style="fill:#4D7FC4; fill-opacity:1.0000; stroke:none;fill-rule:evenodd;"
d="M 36.9850,70.2650
36.9660,70.3607
36.9118,70.4418
36.8307,70.4960
36.7350,70.5150
34.6850,70.5150
34.5893,70.4960
34.5082,70.4418
34.4540,70.3607
34.4350,70.2650
34.4350,68.2650
34.4540,68.1693
34.5082,68.0882
34.5893,68.0340
34.6850,68.0150
36.7350,68.0150
36.8307,68.0340
36.9118,68.0882
36.9660,68.1693
36.9850,68.2650
Z" /> 
<path style="fill:#4D7FC4; fill-opacity:1.0000; stroke:none;fill-rule:evenodd;"
d="M 24.0580,72.8050
24.0390,72.9007
23.9848,72.9818
23.9037,73.0360
23.8080,73.0550
21.7580,73.0550
21.6623,73.0360
21.5812,72.9818
21.5270,72.9007
21.5080,72.8050
21.5080,70.8050
21.5270,70.7093
21.5812,70.6282
21.6623,70.5740
21.7580,70.5550
23.8080,70.5550
23.9037,70.5740
23.9848,70.6282
24.0390,70.7093
24.0580,70.8050
Z" /> 
<path style="fill:#4D7FC4; fill-opacity:1.0000; stroke:none;fill-rule:evenodd;"
d="M 17.9350,70.2650
17.9160,70.3607
17.8618,70.4418
17.7807,70.4960
17.6850,70.5150
15.6350,70.5150
15.5393,70.4960
15.4582,70.4418
15.4040,70.3607
15.3850,70.2650
15.3850,68.2650
15.4040,68.1693
15.4582,68.0882
15.5393,68.0340
15.6350,68.0150
17.6850,68.0150
17.7807,68.0340
17.8618,68.0882
17.9160,68.1693
17.9350,68.2650
Z" /> 
<path style="fill:#4D7FC4; fill-opacity:1.0000; stroke:none;fill-rule:evenodd;"
d="M 5.0080,72.8050
4.9890,72.9007
4.9348,72.9818
4.8537,73.0360
4.7580,73.0550
2.7080,73.0550
2.6123,73.0360
2.5312,72.9818
2.4770,72.9007
2.4580,72.8050
2.4580,70.8050
2.4770,70.7093
2.5312,70.6282
2.6123,70.5740
2.7080,70.5550
4.7580,70.5550
4.8537,70.5740
4.9348,70.6282
4.9890,70.7093
5.0080,70.8050
Z" /> 
<path style="fill:#4D7FC4; fill-opacity:1.0000; stroke:none;fill-rule:evenodd;"
d="M 56.0350,89.3150
56.0160,89.4107
55.9618,89.4918
55.8807,89.5460
55.7850,89.5650
53.7350,89.5650
53.6393,89.5460
53.5582,89.4918
53.5040,89.4107
53.4850,89.3150
53.4850,87.3150
53.5040,87.2193
53.5582,87.1382
53.6393,87.0840
53.7350,87.0650
55.7850,87.0650
55.8807,87.0840
55.9618,87.1382
56.0160,87.2193
56.0350,87.3150
Z" /> 
<path style="fill:#4D7FC4; fill-opacity:1.0000; stroke:none;fill-rule:evenodd;"
d="M 43.1080,91.8550
43.0890,91.9507
43.0348,92.0318
42.9537,92.0860
42.8580,92.1050
40.8080,92.1050
40.7123,92.0860
40.6312,92.0318
40.5770,91.9507
40.5580,91.8550
40.5580,89.8550
40.5770,89.7593
40.6312,89.6782
40.7123,89.6240
40.8080,89.6050
42.8580,89.6050
42.9537,89.6240
43.0348,89.6782
43.0890,89.7593
43.1080,89.8550
Z" /> 
<path style="fill:#4D7FC4; fill-opacity:1.0000; stroke:none;fill-rule:evenodd;"
d="M 17.9350,32.1650
17.9160,32.2607
17.8618,32.3418
17.7807,32.3960
17.6850,32.4150
15.6350,32.4150
15.5393,32.3960
15.4582,32.3418
15.4040,32.2607
15.3850,32.1650
15.3850,30.1650
15.4040,30.0693
15.4582,29.9882
15.5393,29.9340
15.6350,29.9150
17.6850,29.9150
17.7807,29.9340
17.8618,29.9882
17.9160,30.0693
17.9350,30.1650
Z" /> 
<path style="fill:#4D7FC4; fill-opacity:1.0000; stroke:none;fill-rule:evenodd;"
d="M 5.0080,34.7050
4.9890,34.8007
4.9348,34.8818
4.8537,34.9360
4.7580,34.9550
2.7080,34.9550
2.6123,34.9360
2.5312,34.8818
2.4770,34.8007
2.4580,34.7050
2.4580,32.7050
2.4770,32.6093
2.5312,32.5282
2.6123,32.4740
2.7080,32.4550
4.7580,32.4550
4.8537,32.4740
4.9348,32.5282
4.9890,32.6093
5.0080,32.7050
Z" /> 
<path style="fill:#4D7FC4; fill-opacity:1.0000; stroke:none;fill-rule:evenodd;"
d="M 36.9850,32.1650
36.9660,32.2607
36.9118,32.3418
36.8307,32.3960
36.7350,32.4150
34.6850,32.4150
34.5893,32.3960
34.5082,32.3418
34.4540,32.2607
34.4350,32.1650
34.4350,30.1650
34.4540,30.0693
34.5082,29.9882
34.5893,29.9340
34.6850,29.9150
36.7350,29.9150
36.8307,29.9340
36.9118,29.9882
36.9660,30.0693
36.9850,30.1650
Z" /> 
<path style="fill:#4D7FC4; fill-opacity:1.0000; stroke:none;fill-rule:evenodd;"
d="M 24.0580,34.7050
24.0390,34.8007
23.9848,34.8818
23.9037,34.9360
23.8080,34.9550
21.7580,34.9550
21.6623,34.9360
21.5812,34.8818
21.5270,34.8007
21.5080,34.7050
21.5080,32.7050
21.5270,32.6093
21.5812,32.5282
21.6623,32.4740
21.7580,32.4550
23.8080,32.4550
23.9037,32.4740
23.9848,32.5282
24.0390,32.6093
24.0580,32.7050
Z" /> 
<path style="fill:#4D7FC4; fill-opacity:1.0000; stroke:none;fill-rule:evenodd;"
d="M 75.0850,41.6900
75.0660,41.7857
75.0118,41.8668
74.9307,41.9210
74.8350,41.9400
72.7850,41.9400
72.6893,41.9210
72.6082,41.8668
72.5540,41.7857
72.5350,41.6900
72.5350,39.6900
72.5540,39.5943
72.6082,39.5132
72.6893,39.4590
72.7850,39.4400
74.8350,39.4400
74.9307,39.4590
75.0118,39.5132
75.0660,39.5943
75.0850,39.6900
Z" /> 
<path style="fill:#4D7FC4; fill-opacity:1.0000; stroke:none;fill-rule:evenodd;"
d="M 62.1580,44.2300
62.1390,44.3257
62.0848,44.4068
62.0037,44.4610
61.9080,44.4800
59.8580,44.4800
59.7623,44.4610
59.6812,44.4068
59.6270,44.3257
59.6080,44.2300
59.6080,42.2300
59.6270,42.1343
59.6812,42.0532
59.7623,41.9990
59.8580,41.9800
61.9080,41.9800
62.0037,41.9990
62.0848,42.0532
62.1390,42.1343
62.1580,42.2300
Z" /> 
<path style="fill:#4D7FC4; fill-opacity:1.0000; stroke:none;fill-rule:evenodd;"
d="M 43.9450,81.8875
43.9364,81.9306
43.9121,81.9671
43.8756,81.9914
43.8325,82.0000
43.4575,82.0000
43.4144,81.9914
43.3780,81.9671
43.3536,81.9306
43.3450,81.8875
43.3450,81.6625
43.3536,81.6194
43.3780,81.5829
43.4144,81.5586
43.4575,81.5500
43.8325,81.5500
43.8756,81.5586
43.9121,81.5829
43.9364,81.6194
43.9450,81.6625
Z" /> 
<path style="fill:#4D7FC4; fill-opacity:1.0000; stroke:none;fill-rule:evenodd;"
d="M 41.8450,81.8875
41.8364,81.9306
41.8121,81.9671
41.7756,81.9914
41.7325,82.0000
41.3575,82.0000
41.3144,81.9914
41.2780,81.9671
41.2536,81.9306
41.2450,81.8875
41.2450,81.6625
41.2536,81.6194
41.2780,81.5829
41.3144,81.5586
41.3575,81.5500
41.7325,81.5500
41.7756,81.5586
41.8121,81.5829
41.8364,81.6194
41.8450,81.6625
Z" /> 
<path style="fill:#4D7FC4; fill-opacity:1.0000; stroke:none;fill-rule:evenodd;"
d="M 43.9450,24.7375
43.9364,24.7806
43.9121,24.8170
43.8756,24.8414
43.8325,24.8500
43.4575,24.8500
43.4144,24.8414
43.3780,24.8170
43.3536,24.7806
43.3450,24.7375
43.3450,24.5125
43.3536,24.4694
43.3780,24.4329
43.4144,24.4086
43.4575,24.4000
43.8325,24.4000
43.8756,24.4086
43.9121,24.4329
43.9364,24.4694
43.9450,24.5125
Z" /> 
<path style="fill:#4D7FC4; fill-opacity:1.0000; stroke:none;fill-rule:evenodd;"
d="M 41.8450,24.7375
41.8364,24.7806
41.8121,24.8170
41.7756,24.8414
41.7325,24.8500
41.3575,24.8500
41.3144,24.8414
41.2780,24.8170
41.2536,24.7806
41.2450,24.7375
41.2450,24.5125
41.2536,24.4694
41.2780,24.4329
41.3144,24.4086
41.3575,24.4000
41.7325,24.4000
41.7756,24.4086
41.8121,24.4329
41.8364,24.4694
41.8450,24.5125
Z" /> 
<path style="fill:#4D7FC4; fill-opacity:1.0000; stroke:none;fill-rule:evenodd;"
d="M 62.9950,34.2625
62.9864,34.3056
62.9621,34.3421
62.9256,34.3664
62.8825,34.3750
62.5075,34.3750
62.4644,34.3664
62.4280,34.3421
62.4036,34.3056
62.3950,34.2625
62.3950,34.0375
62.4036,33.9944
62.4280,33.9579
62.4644,33.9336
62.5075,33.9250
62.8825,33.9250
62.9256,33.9336
62.9621,33.9579
62.9864,33.9944
62.9950,34.0375
Z" /> 
<path style="fill:#4D7FC4; fill-opacity:1.0000; stroke:none;fill-rule:evenodd;"
d="M 60.8950,34.2625
60.8864,34.3056
60.8621,34.3421
60.8256,34.3664
60.7825,34.3750
60.4075,34.3750
60.3644,34.3664
60.3280,34.3421
60.3036,34.3056
60.2950,34.2625
60.2950,34.0375
60.3036,33.9944
60.3280,33.9579
60.3644,33.9336
60.4075,33.9250
60.7825,33.9250
60.8256,33.9336
60.8621,33.9579
60.8864,33.9944
60.8950,34.0375
Z" /> 
<path style="fill:#4D7FC4; fill-opacity:1.0000; stroke:none;fill-rule:evenodd;"
d="M 5.8450,24.7375
5.8364,24.7806
5.8121,24.8170
5.7756,24.8414
5.7325,24.8500
5.3575,24.8500
5.3144,24.8414
5.2780,24.8170
5.2536,24.7806
5.2450,24.7375
5.2450,24.5125
5.2536,24.4694
5.2780,24.4329
5.3144,24.4086
5.3575,24.4000
5.7325,24.4000
5.7756,24.4086
5.8121,24.4329
5.8364,24.4694
5.8450,24.5125
Z" /> 
<path style="fill:#4D7FC4; fill-opacity:1.0000; stroke:none;fill-rule:evenodd;"
d="M 3.7450,24.7375
3.7364,24.7806
3.7121,24.8170
3.6756,24.8414
3.6325,24.8500
3.2575,24.8500
3.2144,24.8414
3.1780,24.8170
3.1536,24.7806
3.1450,24.7375
3.1450,24.5125
3.1536,24.4694
3.1780,24.4329
3.2144,24.4086
3.2575,24.4000
3.6325,24.4000
3.6756,24.4086
3.7121,24.4329
3.7364,24.4694
3.7450,24.5125
Z" /> 
<path style="fill:#4D7FC4; fill-opacity:1.0000; stroke:none;fill-rule:evenodd;"
d="M 62.9950,5.6875
62.9864,5.7306
62.9621,5.7670
62.9256,5.7914
62.8825,5.8000
62.5075,5.8000
62.4644,5.7914
62.4280,5.7670
62.4036,5.7306
62.3950,5.6875
62.3950,5.4625
62.4036,5.4194
62.4280,5.3830
62.4644,5.3586
62.5075,5.3500
62.8825,5.3500
62.9256,5.3586
62.9621,5.3830
62.9864,5.4194
62.9950,5.4625
Z" /> 
<path style="fill:#4D7FC4; fill-opacity:1.0000; stroke:none;fill-rule:evenodd;"
d="M 60.8950,5.6875
60.8864,5.7306
60.8621,5.7670
60.8256,5.7914
60.7825,5.8000
60.4075,5.8000
60.3644,5.7914
60.3280,5.7670
60.3036,5.7306
60.2950,5.6875
60.2950,5.4625
60.3036,5.4194
60.3280,5.3830
60.3644,5.3586
60.4075,5.3500
60.7825,5.3500
60.8256,5.3586
60.8621,5.3830
60.8864,5.4194
60.8950,5.4625
Z" /> 
<path style="fill:#4D7FC4; fill-opacity:1.0000; stroke:none;fill-rule:evenodd;"
d="M 24.8950,24.7375
24.8864,24.7806
24.8621,24.8170
24.8256,24.8414
24.7825,24.8500
24.4075,24.8500
24.3644,24.8414
24.3280,24.8170
24.3036,24.7806
24.2950,24.7375
24.2950,24.5125
24.3036,24.4694
24.3280,24.4329
24.3644,24.4086
24.4075,24.4000
24.7825,24.4000
24.8256,24.4086
24.8621,24.4329
24.8864,24.4694
24.8950,24.5125
Z" /> 
<path style="fill:#4D7FC4; fill-opacity:1.0000; stroke:none;fill-rule:evenodd;"
d="M 22.7950,24.7375
22.7864,24.7806
22.7621,24.8170
22.7256,24.8414
22.6825,24.8500
22.3075,24.8500
22.2644,24.8414
22.2280,24.8170
22.2036,24.7806
22.1950,24.7375
22.1950,24.5125
22.2036,24.4694
22.2280,24.4329
22.2644,24.4086
22.3075,24.4000
22.6825,24.4000
22.7256,24.4086
22.7621,24.4329
22.7864,24.4694
22.7950,24.5125
Z" /> 
<path style="fill:#4D7FC4; fill-opacity:1.0000; stroke:none;fill-rule:evenodd;"
d="M 15.3700,81.8875
15.3614,81.9306
15.3371,81.9671
15.3006,81.9914
15.2575,82.0000
14.8825,82.0000
14.8394,81.9914
14.8030,81.9671
14.7786,81.9306
14.7700,81.8875
14.7700,81.6625
14.7786,81.6194
14.8030,81.5829
14.8394,81.5586
14.8825,81.5500
15.2575,81.5500
15.3006,81.5586
15.3371,81.5829
15.3614,81.6194
15.3700,81.6625
Z" /> 
<path style="fill:#4D7FC4; fill-opacity:1.0000; stroke:none;fill-rule:evenodd;"
d="M 13.2700,81.8875
13.2614,81.9306
13.2371,81.9671
13.2006,81.9914
13.1575,82.0000
12.7825,82.0000
12.7394,81.9914
12.7030,81.9671
12.6786,81.9306
12.6700,81.8875
12.6700,81.6625
12.6786,81.6194
12.7030,81.5829
12.7394,81.5586
12.7825,81.5500
13.1575,81.5500
13.2006,81.5586
13.2371,81.5829
13.2614,81.6194
13.2700,81.6625
Z" /> 
<path style="fill:#4D7FC4; fill-opacity:1.0000; stroke:none;fill-rule:evenodd;"
d="M 24.8950,43.7875
24.8864,43.8306
24.8621,43.8670
24.8256,43.8914
24.7825,43.9000
24.4075,43.9000
24.3644,43.8914
24.3280,43.8670
24.3036,43.8306
24.2950,43.7875
24.2950,43.5625
24.3036,43.5194
24.3280,43.4829
24.3644,43.4586
24.4075,43.4500
24.7825,43.4500
24.8256,43.4586
24.8621,43.4829
24.8864,43.5194
24.8950,43.5625
Z" /> 
<path style="fill:#4D7FC4; fill-opacity:1.0000; stroke:none;fill-rule:evenodd;"
d="M 22.7950,43.7875
22.7864,43.8306
22.7621,43.8670
22.7256,43.8914
22.6825,43.9000
22.3075,43.9000
22.2644,43.8914
22.2280,43.8670
22.2036,43.8306
22.1950,43.7875
22.1950,43.5625
22.2036,43.5194
22.2280,43.4829
22.2644,43.4586
22.3075,43.4500
22.6825,43.4500
22.7256,43.4586
22.7621,43.4829
22.7864,43.5194
22.7950,43.5625
Z" /> 
<path style="fill:#4D7FC4; fill-opacity:1.0000; stroke:none;fill-rule:evenodd;"
d="M 62.9950,72.3625
62.9864,72.4056
62.9621,72.4420
62.9256,72.4664
62.8825,72.4750
62.5075,72.4750
62.4644,72.4664
62.4280,72.4420
62.4036,72.4056
62.3950,72.3625
62.3950,72.1375
62.4036,72.0944
62.4280,72.0579
62.4644,72.0336
62.5075,72.0250
62.8825,72.0250
62.9256,72.0336
62.9621,72.0579
62.9864,72.0944
62.9950,72.1375
Z" /> 
<path style="fill:#4D7FC4; fill-opacity:1.0000; stroke:none;fill-rule:evenodd;"
d="M 60.8950,72.3625
60.8864,72.4056
60.8621,72.4420
60.8256,72.4664
60.7825,72.4750
60.4075,72.4750
60.3644,72.4664
60.3280,72.4420
60.3036,72.4056
60.2950,72.3625
60.2950,72.1375
60.3036,72.0944
60.3280,72.0579
60.3644,72.0336
60.4075,72.0250
60.7825,72.0250
60.8256,72.0336
60.8621,72.0579
60.8864,72.0944
60.8950,72.1375
Z" /> 
<path style="fill:#4D7FC4; fill-opacity:1.0000; stroke:none;fill-rule:evenodd;"
d="M 5.8450,43.7875
5.8364,43.8306
5.8121,43.8670
5.7756,43.8914
5.7325,43.9000
5.3575,43.9000
5.3144,43.8914
5.2780,43.8670
5.2536,43.8306
5.2450,43.7875
5.2450,43.5625
5.2536,43.5194
5.2780,43.4829
5.3144,43.4586
5.3575,43.4500
5.7325,43.4500
5.7756,43.4586
5.8121,43.4829
5.8364,43.5194
5.8450,43.5625
Z" /> 
<path style="fill:#4D7FC4; fill-opacity:1.0000; stroke:none;fill-rule:evenodd;"
d="M 3.7450,43.7875
3.7364,43.8306
3.7121,43.8670
3.6756,43.8914
3.6325,43.9000
3.2575,43.9000
3.2144,43.8914
3.1780,43.8670
3.1536,43.8306
3.1450,43.7875
3.1450,43.5625
3.1536,43.5194
3.1780,43.4829
3.2144,43.4586
3.2575,43.4500
3.6325,43.4500
3.6756,43.4586
3.7121,43.4829
3.7364,43.5194
3.7450,43.5625
Z" /> 
<path style="fill:#4D7FC4; fill-opacity:1.0000; stroke:none;fill-rule:evenodd;"
d="M 24.8950,62.8375
24.8864,62.8806
24.8621,62.9170
24.8256,62.9414
24.7825,62.9500
24.4075,62.9500
24.3644,62.9414
24.3280,62.9170
24.3036,62.8806
24.2950,62.8375
24.2950,62.6125
24.3036,62.5694
24.3280,62.5329
24.3644,62.5086
24.4075,62.5000
24.7825,62.5000
24.8256,62.5086
24.8621,62.5329
24.8864,62.5694
24.8950,62.6125
Z" /> 
<path style="fill:#4D7FC4; fill-opacity:1.0000; stroke:none;fill-rule:evenodd;"
d="M 22.7950,62.8375
22.7864,62.8806
22.7621,62.9170
22.7256,62.9414
22.6825,62.9500
22.3075,62.9500
22.2644,62.9414
22.2280,62.9170
22.2036,62.8806
22.1950,62.8375
22.1950,62.6125
22.2036,62.5694
22.2280,62.5329
22.2644,62.5086
22.3075,62.5000
22.6825,62.5000
22.7256,62.5086
22.7621,62.5329
22.7864,62.5694
22.7950,62.6125
Z" /> 
<path style="fill:#4D7FC4; fill-opacity:1.0000; stroke:none;fill-rule:evenodd;"
d="M 43.9450,62.8375
43.9364,62.8806
43.9121,62.9170
43.8756,62.9414
43.8325,62.9500
43.4575,62.9500
43.4144,62.9414
43.3780,62.9170
43.3536,62.8806
43.3450,62.8375
43.3450,62.6125
43.3536,62.5694
43.3780,62.5329
43.4144,62.5086
43.4575,62.5000
43.8325,62.5000
43.8756,62.5086
43.9121,62.5329
43.9364,62.5694
43.9450,62.6125
Z" /> 
<path style="fill:#4D7FC4; fill-opacity:1.0000; stroke:none;fill-rule:evenodd;"
d="M 41.8450,62.8375
41.8364,62.8806
41.8121,62.9170
41.7756,62.9414
41.7325,62.9500
41.3575,62.9500
41.3144,62.9414
41.2780,62.9170
41.2536,62.8806
41.2450,62.8375
41.2450,62.6125
41.2536,62.5694
41.2780,62.5329
41.3144,62.5086
41.3575,62.5000
41.7325,62.5000
41.7756,62.5086
41.8121,62.5329
41.8364,62.5694
41.8450,62.6125
Z" /> 
<path style="fill:#4D7FC4; fill-opacity:1.0000; stroke:none;fill-rule:evenodd;"
d="M 5.8450,62.8375
5.8364,62.8806
5.8121,62.9170
5.7756,62.9414
5.7325,62.9500
5.3575,62.9500
5.3144,62.9414
5.2780,62.9170
5.2536,62.8806
5.2450,62.8375
5.2450,62.6125
5.2536,62.5694
5.2780,62.5329
5.3144,62.5086
5.3575,62.5000
5.7325,62.5000
5.7756,62.5086
5.8121,62.5329
5.8364,62.5694
5.8450,62.6125
Z" /> 
<path style="fill:#4D7FC4; fill-opacity:1.0000; stroke:none;fill-rule:evenodd;"
d="M 3.7450,62.8375
3.7364,62.8806
3.7121,62.9170
3.6756,62.9414
3.6325,62.9500
3.2575,62.9500
3.2144,62.9414
3.1780,62.9170
3.1536,62.8806
3.1450,62.8375
3.1450,62.6125
3.1536,62.5694
3.1780,62.5329
3.2144,62.5086
3.2575,62.5000
3.6325,62.5000
3.6756,62.5086
3.7121,62.5329
3.7364,62.5694
3.7450,62.6125
Z" /> 
<path style="fill:#4D7FC4; fill-opacity:1.0000; stroke:none;fill-rule:evenodd;"
d="M 43.9450,43.7875
43.9364,43.8306
43.9121,43.8670
43.8756,43.8914
43.8325,43.9000
43.4575,43.9000
43.4144,43.8914
43.3780,43.8670
43.3536,43.8306
43.3450,43.7875
43.3450,43.5625
43.3536,43.5194
43.3780,43.4829
43.4144,43.4586
43.4575,43.4500
43.8325,43.4500
43.8756,43.4586
43.9121,43.4829
43.9364,43.5194
43.9450,43.5625
Z" /> 
<path style="fill:#4D7FC4; fill-opacity:1.0000; stroke:none;fill-rule:evenodd;"
d="M 41.8450,43.7875
41.8364,43.8306
41.8121,43.8670
41.7756,43.8914
41.7325,43.9000
41.3575,43.9000
41.3144,43.8914
41.2780,43.8670
41.2536,43.8306
41.2450,43.7875
41.2450,43.5625
41.2536,43.5194
41.2780,43.4829
41.3144,43.4586
41.3575,43.4500
41.7325,43.4500
41.7756,43.4586
41.8121,43.4829
41.8364,43.5194
41.8450,43.5625
Z" /> 
</g>
<g style="fill:none; 
stroke:#4D7FC4; stroke-width:0.2000; stroke-opacity:1; 
stroke-linecap:round; stroke-linejoin:round;">
<path d="M16.6600 31.1650
L16.6600 50.2150
" />
<path d="M16.6600 69.2650
L26.1850 78.7900
" />
<path d="M16.6600 50.2150
L16.6600 69.2650
" />
<path d="M26.1850 78.7900
L26.1850 88.3150
" />
<path d="M35.7100 31.1650
L35.7100 50.2150
" />
<path d="M35.7100 50.2150
L35.7100 69.2650
" />
<path d="M73.8100 12.1150
L73.8100 40.6900
" />
<path d="M73.8100 40.6900
L73.8100 78.7900
" />
<path d="M60.8830 14.6550
L60.5950 14.3670
" />
<path d="M60.5950 14.3670
L60.5950 5.5750
" />
<path d="M22.4950 71.5170
L22.4950 62.7250
" />
<path d="M22.7830 71.8050
L22.4950 71.5170
" />
<path d="M41.8330 71.8050
L41.5450 71.5170
" />
<path d="M41.5450 71.5170
L41.5450 62.7250
" />
<path d="M60.8830 81.3300
L60.5950 81.0420
" />
<path d="M60.5950 81.0420
L60.5950 72.2500
" />
<path d="M12.9700 90.5670
L12.9700 81.7750
" />
<path d="M13.2580 90.8550
L12.9700 90.5670
" />
<path d="M41.8330 90.8550
L41.5450 90.5670
" />
<path d="M41.5450 90.5670
L41.5450 81.7750
" />
<path d="M3.7330 33.7050
L3.4450 33.4170
" />
<path d="M3.4450 33.4170
L3.4450 24.6250
" />
<path d="M22.7830 33.7050
L22.4950 33.4170
" />
<path d="M22.4950 33.4170
L22.4950 24.6250
" />
<path d="M41.5450 33.4170
L41.5450 24.6250
" />
<path d="M41.8330 33.7050
L41.5450 33.4170
" />
<path d="M60.5950 42.9420
L60.5950 34.1500
" />
<path d="M60.8830 43.2300
L60.5950 42.9420
" />
<path d="M3.4450 52.4670
L3.4450 43.6750
" />
<path d="M3.7330 52.7550
L3.4450 52.4670
" />
<path d="M22.7830 52.7550
L22.4950 52.4670
" />
<path d="M22.4950 52.4670
L22.4950 43.6750
" />
<path d="M41.5450 52.4670
L41.5450 43.6750
" />
<path d="M41.8330 52.7550
L41.5450 52.4670
" />
<path d="M3.4450 71.5170
L3.4450 62.7250
" />
<path d="M3.7330 71.8050
L3.4450 71.5170
" />
<path d="M53.1700 24.6250
L62.6950 34.1500
" />
<path d="M43.6450 24.6250
L53.1700 24.6250
" />
<path d="M53.1700 62.7250
L62.6950 72.2500
" />
<path d="M43.6450 62.7250
L53.1700 62.7250
" />
</g>
<g style="fill:none; 
stroke:#E8B2A7; stroke-width:0.1500; stroke-opacity:1; 
stroke-linecap:round; stroke-linejoin:round;">
<text x="42.5950" y="80.4250"
transform="scale(-1 1) translate(-85.190002 0)"
textLength="3.1548" font-size="1.3333" lengthAdjust="spacingAndGlyphs"
text-anchor="middle" opacity="0" stroke-opacity="0">D14</text>
<g class="stroked-text"><desc>D14</desc>
<path d="M43.8093 80.3798
L43.8093 79.3798
" />
<path d="M43.8093 79.3798
L43.5712 79.3798
" />
<path d="M43.5712 79.3798
L43.4283 79.4274
" />
<path d="M43.4283 79.4274
L43.3331 79.5227
" />
<path d="M43.3331 79.5227
L43.2855 79.6179
" />
<path d="M43.2855 79.6179
L43.2379 79.8084
" />
<path d="M43.2379 79.8084
L43.2379 79.9512
" />
<path d="M43.2379 79.9512
L43.2855 80.1417
" />
<path d="M43.2855 80.1417
L43.3331 80.2370
" />
<path d="M43.3331 80.2370
L43.4283 80.3322
" />
<path d="M43.4283 80.3322
L43.5712 80.3798
" />
<path d="M43.5712 80.3798
L43.8093 80.3798
" />
<path d="M42.2855 80.3798
L42.8569 80.3798
" />
<path d="M42.5712 80.3798
L42.5712 79.3798
" />
<path d="M42.5712 79.3798
L42.6664 79.5227
" />
<path d="M42.6664 79.5227
L42.7617 79.6179
" />
<path d="M42.7617 79.6179
L42.8569 79.6655
" />
<path d="M41.4283 79.7132
L41.4283 80.3798
" />
<path d="M41.6664 79.3322
L41.9045 80.0465
" />
<path d="M41.9045 80.0465
L41.2855 80.0465
" />
</g><text x="42.5950" y="23.2750"
transform="scale(-1 1) translate(-85.190002 0)"
textLength="2.2024" font-size="1.3333" lengthAdjust="spacingAndGlyphs"
text-anchor="middle" opacity="0" stroke-opacity="0">D4</text>
<g class="stroked-text"><desc>D4</desc>
<path d="M43.3331 23.2298
L43.3331 22.2298
" />
<path d="M43.3331 22.2298
L43.0950 22.2298
" />
<path d="M43.0950 22.2298
L42.9521 22.2774
" />
<path d="M42.9521 22.2774
L42.8569 22.3727
" />
<path d="M42.8569 22.3727
L42.8093 22.4679
" />
<path d="M42.8093 22.4679
L42.7617 22.6584
" />
<path d="M42.7617 22.6584
L42.7617 22.8012
" />
<path d="M42.7617 22.8012
L42.8093 22.9917
" />
<path d="M42.8093 22.9917
L42.8569 23.0870
" />
<path d="M42.8569 23.0870
L42.9521 23.1822
" />
<path d="M42.9521 23.1822
L43.0950 23.2298
" />
<path d="M43.0950 23.2298
L43.3331 23.2298
" />
<path d="M41.9045 22.5632
L41.9045 23.2298
" />
<path d="M42.1426 22.1822
L42.3807 22.8965
" />
<path d="M42.3807 22.8965
L41.7617 22.8965
" />
</g><text x="61.6450" y="32.8000"
transform="scale(-1 1) translate(-123.290002 0)"
textLength="2.2024" font-size="1.3333" lengthAdjust="spacingAndGlyphs"
text-anchor="middle" opacity="0" stroke-opacity="0">D5</text>
<g class="stroked-text"><desc>D5</desc>
<path d="M62.3831 32.7548
L62.3831 31.7548
" />
<path d="M62.3831 31.7548
L62.1450 31.7548
" />
<path d="M62.1450 31.7548
L62.0021 31.8024
" />
<path d="M62.0021 31.8024
L61.9069 31.8977
" />
<path d="M61.9069 31.8977
L61.8593 31.9929
" />
<path d="M61.8593 31.9929
L61.8117 32.1834
" />
<path d="M61.8117 32.1834
L61.8117 32.3262
" />
<path d="M61.8117 32.3262
L61.8593 32.5167
" />
<path d="M61.8593 32.5167
L61.9069 32.6120
" />
<path d="M61.9069 32.6120
L62.0021 32.7072
" />
<path d="M62.0021 32.7072
L62.1450 32.7548
" />
<path d="M62.1450 32.7548
L62.3831 32.7548
" />
<path d="M60.9069 31.7548
L61.3831 31.7548
" />
<path d="M61.3831 31.7548
L61.4307 32.2310
" />
<path d="M61.4307 32.2310
L61.3831 32.1834
" />
<path d="M61.3831 32.1834
L61.2879 32.1358
" />
<path d="M61.2879 32.1358
L61.0498 32.1358
" />
<path d="M61.0498 32.1358
L60.9545 32.1834
" />
<path d="M60.9545 32.1834
L60.9069 32.2310
" />
<path d="M60.9069 32.2310
L60.8593 32.3262
" />
<path d="M60.8593 32.3262
L60.8593 32.5643
" />
<path d="M60.8593 32.5643
L60.9069 32.6596
" />
<path d="M60.9069 32.6596
L60.9545 32.7072
" />
<path d="M60.9545 32.7072
L61.0498 32.7548
" />
<path d="M61.0498 32.7548
L61.2879 32.7548
" />
<path d="M61.2879 32.7548
L61.3831 32.7072
" />
<path d="M61.3831 32.7072
L61.4307 32.6596
" />
</g><text x="4.4950" y="23.2750"
transform="scale(-1 1) translate(-8.990002 0)"
textLength="2.2024" font-size="1.3333" lengthAdjust="spacingAndGlyphs"
text-anchor="middle" opacity="0" stroke-opacity="0">D2</text>
<g class="stroked-text"><desc>D2</desc>
<path d="M5.2331 23.2298
L5.2331 22.2298
" />
<path d="M5.2331 22.2298
L4.9950 22.2298
" />
<path d="M4.9950 22.2298
L4.8521 22.2774
" />
<path d="M4.8521 22.2774
L4.7569 22.3727
" />
<path d="M4.7569 22.3727
L4.7093 22.4679
" />
<path d="M4.7093 22.4679
L4.6617 22.6584
" />
<path d="M4.6617 22.6584
L4.6617 22.8012
" />
<path d="M4.6617 22.8012
L4.7093 22.9917
" />
<path d="M4.7093 22.9917
L4.7569 23.0870
" />
<path d="M4.7569 23.0870
L4.8521 23.1822
" />
<path d="M4.8521 23.1822
L4.9950 23.2298
" />
<path d="M4.9950 23.2298
L5.2331 23.2298
" />
<path d="M4.2807 22.3251
L4.2331 22.2774
" />
<path d="M4.2331 22.2774
L4.1379 22.2298
" />
<path d="M4.1379 22.2298
L3.8998 22.2298
" />
<path d="M3.8998 22.2298
L3.8045 22.2774
" />
<path d="M3.8045 22.2774
L3.7569 22.3251
" />
<path d="M3.7569 22.3251
L3.7093 22.4203
" />
<path d="M3.7093 22.4203
L3.7093 22.5155
" />
<path d="M3.7093 22.5155
L3.7569 22.6584
" />
<path d="M3.7569 22.6584
L4.3283 23.2298
" />
<path d="M4.3283 23.2298
L3.7093 23.2298
" />
</g><text x="61.6450" y="4.2250"
transform="scale(-1 1) translate(-123.290002 0)"
textLength="2.2024" font-size="1.3333" lengthAdjust="spacingAndGlyphs"
text-anchor="middle" opacity="0" stroke-opacity="0">D1</text>
<g class="stroked-text"><desc>D1</desc>
<path d="M62.3831 4.1798
L62.3831 3.1798
" />
<path d="M62.3831 3.1798
L62.1450 3.1798
" />
<path d="M62.1450 3.1798
L62.0021 3.2274
" />
<path d="M62.0021 3.2274
L61.9069 3.3227
" />
<path d="M61.9069 3.3227
L61.8593 3.4179
" />
<path d="M61.8593 3.4179
L61.8117 3.6084
" />
<path d="M61.8117 3.6084
L61.8117 3.7512
" />
<path d="M61.8117 3.7512
L61.8593 3.9417
" />
<path d="M61.8593 3.9417
L61.9069 4.0370
" />
<path d="M61.9069 4.0370
L62.0021 4.1322
" />
<path d="M62.0021 4.1322
L62.1450 4.1798
" />
<path d="M62.1450 4.1798
L62.3831 4.1798
" />
<path d="M60.8593 4.1798
L61.4307 4.1798
" />
<path d="M61.1450 4.1798
L61.1450 3.1798
" />
<path d="M61.1450 3.1798
L61.2402 3.3227
" />
<path d="M61.2402 3.3227
L61.3355 3.4179
" />
<path d="M61.3355 3.4179
L61.4307 3.4655
" />
</g><text x="23.5450" y="23.2750"
transform="scale(-1 1) translate(-47.090002 0)"
textLength="2.2024" font-size="1.3333" lengthAdjust="spacingAndGlyphs"
text-anchor="middle" opacity="0" stroke-opacity="0">D3</text>
<g class="stroked-text"><desc>D3</desc>
<path d="M24.2831 23.2298
L24.2831 22.2298
" />
<path d="M24.2831 22.2298
L24.0450 22.2298
" />
<path d="M24.0450 22.2298
L23.9021 22.2774
" />
<path d="M23.9021 22.2774
L23.8069 22.3727
" />
<path d="M23.8069 22.3727
L23.7593 22.4679
" />
<path d="M23.7593 22.4679
L23.7117 22.6584
" />
<path d="M23.7117 22.6584
L23.7117 22.8012
" />
<path d="M23.7117 22.8012
L23.7593 22.9917
" />
<path d="M23.7593 22.9917
L23.8069 23.0870
" />
<path d="M23.8069 23.0870
L23.9021 23.1822
" />
<path d="M23.9021 23.1822
L24.0450 23.2298
" />
<path d="M24.0450 23.2298
L24.2831 23.2298
" />
<path d="M23.3783 22.2298
L22.7593 22.2298
" />
<path d="M22.7593 22.2298
L23.0926 22.6108
" />
<path d="M23.0926 22.6108
L22.9498 22.6108
" />
<path d="M22.9498 22.6108
L22.8545 22.6584
" />
<path d="M22.8545 22.6584
L22.8069 22.7060
" />
<path d="M22.8069 22.7060
L22.7593 22.8012
" />
<path d="M22.7593 22.8012
L22.7593 23.0393
" />
<path d="M22.7593 23.0393
L22.8069 23.1346
" />
<path d="M22.8069 23.1346
L22.8545 23.1822
" />
<path d="M22.8545 23.1822
L22.9498 23.2298
" />
<path d="M22.9498 23.2298
L23.2355 23.2298
" />
<path d="M23.2355 23.2298
L23.3307 23.1822
" />
<path d="M23.3307 23.1822
L23.3783 23.1346
" />
</g><text x="14.0200" y="80.4250"
transform="scale(-1 1) translate(-28.040002 0)"
textLength="3.1548" font-size="1.3333" lengthAdjust="spacingAndGlyphs"
text-anchor="middle" opacity="0" stroke-opacity="0">D13</text>
<g class="stroked-text"><desc>D13</desc>
<path d="M15.2343 80.3798
L15.2343 79.3798
" />
<path d="M15.2343 79.3798
L14.9962 79.3798
" />
<path d="M14.9962 79.3798
L14.8533 79.4274
" />
<path d="M14.8533 79.4274
L14.7581 79.5227
" />
<path d="M14.7581 79.5227
L14.7105 79.6179
" />
<path d="M14.7105 79.6179
L14.6629 79.8084
" />
<path d="M14.6629 79.8084
L14.6629 79.9512
" />
<path d="M14.6629 79.9512
L14.7105 80.1417
" />
<path d="M14.7105 80.1417
L14.7581 80.2370
" />
<path d="M14.7581 80.2370
L14.8533 80.3322
" />
<path d="M14.8533 80.3322
L14.9962 80.3798
" />
<path d="M14.9962 80.3798
L15.2343 80.3798
" />
<path d="M13.7105 80.3798
L14.2819 80.3798
" />
<path d="M13.9962 80.3798
L13.9962 79.3798
" />
<path d="M13.9962 79.3798
L14.0914 79.5227
" />
<path d="M14.0914 79.5227
L14.1867 79.6179
" />
<path d="M14.1867 79.6179
L14.2819 79.6655
" />
<path d="M13.3771 79.3798
L12.7581 79.3798
" />
<path d="M12.7581 79.3798
L13.0914 79.7608
" />
<path d="M13.0914 79.7608
L12.9486 79.7608
" />
<path d="M12.9486 79.7608
L12.8533 79.8084
" />
<path d="M12.8533 79.8084
L12.8057 79.8560
" />
<path d="M12.8057 79.8560
L12.7581 79.9512
" />
<path d="M12.7581 79.9512
L12.7581 80.1893
" />
<path d="M12.7581 80.1893
L12.8057 80.2846
" />
<path d="M12.8057 80.2846
L12.8533 80.3322
" />
<path d="M12.8533 80.3322
L12.9486 80.3798
" />
<path d="M12.9486 80.3798
L13.2343 80.3798
" />
<path d="M13.2343 80.3798
L13.3295 80.3322
" />
<path d="M13.3295 80.3322
L13.3771 80.2846
" />
</g><text x="23.5450" y="42.3250"
transform="scale(-1 1) translate(-47.090002 0)"
textLength="2.2024" font-size="1.3333" lengthAdjust="spacingAndGlyphs"
text-anchor="middle" opacity="0" stroke-opacity="0">D7</text>
<g class="stroked-text"><desc>D7</desc>
<path d="M24.2831 42.2798
L24.2831 41.2798
" />
<path d="M24.2831 41.2798
L24.0450 41.2798
" />
<path d="M24.0450 41.2798
L23.9021 41.3274
" />
<path d="M23.9021 41.3274
L23.8069 41.4227
" />
<path d="M23.8069 41.4227
L23.7593 41.5179
" />
<path d="M23.7593 41.5179
L23.7117 41.7084
" />
<path d="M23.7117 41.7084
L23.7117 41.8512
" />
<path d="M23.7117 41.8512
L23.7593 42.0417
" />
<path d="M23.7593 42.0417
L23.8069 42.1370
" />
<path d="M23.8069 42.1370
L23.9021 42.2322
" />
<path d="M23.9021 42.2322
L24.0450 42.2798
" />
<path d="M24.0450 42.2798
L24.2831 42.2798
" />
<path d="M23.3783 41.2798
L22.7117 41.2798
" />
<path d="M22.7117 41.2798
L23.1402 42.2798
" />
</g><text x="61.6450" y="70.9000"
transform="scale(-1 1) translate(-123.290002 0)"
textLength="3.1548" font-size="1.3333" lengthAdjust="spacingAndGlyphs"
text-anchor="middle" opacity="0" stroke-opacity="0">D12</text>
<g class="stroked-text"><desc>D12</desc>
<path d="M62.8593 70.8548
L62.8593 69.8548
" />
<path d="M62.8593 69.8548
L62.6212 69.8548
" />
<path d="M62.6212 69.8548
L62.4783 69.9024
" />
<path d="M62.4783 69.9024
L62.3831 69.9977
" />
<path d="M62.3831 69.9977
L62.3355 70.0929
" />
<path d="M62.3355 70.0929
L62.2879 70.2834
" />
<path d="M62.2879 70.2834
L62.2879 70.4262
" />
<path d="M62.2879 70.4262
L62.3355 70.6167
" />
<path d="M62.3355 70.6167
L62.3831 70.7120
" />
<path d="M62.3831 70.7120
L62.4783 70.8072
" />
<path d="M62.4783 70.8072
L62.6212 70.8548
" />
<path d="M62.6212 70.8548
L62.8593 70.8548
" />
<path d="M61.3355 70.8548
L61.9069 70.8548
" />
<path d="M61.6212 70.8548
L61.6212 69.8548
" />
<path d="M61.6212 69.8548
L61.7164 69.9977
" />
<path d="M61.7164 69.9977
L61.8117 70.0929
" />
<path d="M61.8117 70.0929
L61.9069 70.1405
" />
<path d="M60.9545 69.9501
L60.9069 69.9024
" />
<path d="M60.9069 69.9024
L60.8117 69.8548
" />
<path d="M60.8117 69.8548
L60.5736 69.8548
" />
<path d="M60.5736 69.8548
L60.4783 69.9024
" />
<path d="M60.4783 69.9024
L60.4307 69.9501
" />
<path d="M60.4307 69.9501
L60.3831 70.0453
" />
<path d="M60.3831 70.0453
L60.3831 70.1405
" />
<path d="M60.3831 70.1405
L60.4307 70.2834
" />
<path d="M60.4307 70.2834
L61.0021 70.8548
" />
<path d="M61.0021 70.8548
L60.3831 70.8548
" />
</g><text x="4.4950" y="42.3250"
transform="scale(-1 1) translate(-8.990002 0)"
textLength="2.2024" font-size="1.3333" lengthAdjust="spacingAndGlyphs"
text-anchor="middle" opacity="0" stroke-opacity="0">D6</text>
<g class="stroked-text"><desc>D6</desc>
<path d="M5.2331 42.2798
L5.2331 41.2798
" />
<path d="M5.2331 41.2798
L4.9950 41.2798
" />
<path d="M4.9950 41.2798
L4.8521 41.3274
" />
<path d="M4.8521 41.3274
L4.7569 41.4227
" />
<path d="M4.7569 41.4227
L4.7093 41.5179
" />
<path d="M4.7093 41.5179
L4.6617 41.7084
" />
<path d="M4.6617 41.7084
L4.6617 41.8512
" />
<path d="M4.6617 41.8512
L4.7093 42.0417
" />
<path d="M4.7093 42.0417
L4.7569 42.1370
" />
<path d="M4.7569 42.1370
L4.8521 42.2322
" />
<path d="M4.8521 42.2322
L4.9950 42.2798
" />
<path d="M4.9950 42.2798
L5.2331 42.2798
" />
<path d="M3.8045 41.2798
L3.9950 41.2798
" />
<path d="M3.9950 41.2798
L4.0902 41.3274
" />
<path d="M4.0902 41.3274
L4.1379 41.3751
" />
<path d="M4.1379 41.3751
L4.2331 41.5179
" />
<path d="M4.2331 41.5179
L4.2807 41.7084
" />
<path d="M4.2807 41.7084
L4.2807 42.0893
" />
<path d="M4.2807 42.0893
L4.2331 42.1846
" />
<path d="M4.2331 42.1846
L4.1855 42.2322
" />
<path d="M4.1855 42.2322
L4.0902 42.2798
" />
<path d="M4.0902 42.2798
L3.8998 42.2798
" />
<path d="M3.8998 42.2798
L3.8045 42.2322
" />
<path d="M3.8045 42.2322
L3.7569 42.1846
" />
<path d="M3.7569 42.1846
L3.7093 42.0893
" />
<path d="M3.7093 42.0893
L3.7093 41.8512
" />
<path d="M3.7093 41.8512
L3.7569 41.7560
" />
<path d="M3.7569 41.7560
L3.8045 41.7084
" />
<path d="M3.8045 41.7084
L3.8998 41.6608
" />
<path d="M3.8998 41.6608
L4.0902 41.6608
" />
<path d="M4.0902 41.6608
L4.1855 41.7084
" />
<path d="M4.1855 41.7084
L4.2331 41.7560
" />
<path d="M4.2331 41.7560
L4.2807 41.8512
" />
</g><text x="23.5450" y="61.3750"
transform="scale(-1 1) translate(-47.090002 0)"
textLength="3.1548" font-size="1.3333" lengthAdjust="spacingAndGlyphs"
text-anchor="middle" opacity="0" stroke-opacity="0">D10</text>
<g class="stroked-text"><desc>D10</desc>
<path d="M24.7593 61.3298
L24.7593 60.3298
" />
<path d="M24.7593 60.3298
L24.5212 60.3298
" />
<path d="M24.5212 60.3298
L24.3783 60.3774
" />
<path d="M24.3783 60.3774
L24.2831 60.4727
" />
<path d="M24.2831 60.4727
L24.2355 60.5679
" />
<path d="M24.2355 60.5679
L24.1879 60.7584
" />
<path d="M24.1879 60.7584
L24.1879 60.9012
" />
<path d="M24.1879 60.9012
L24.2355 61.0917
" />
<path d="M24.2355 61.0917
L24.2831 61.1870
" />
<path d="M24.2831 61.1870
L24.3783 61.2822
" />
<path d="M24.3783 61.2822
L24.5212 61.3298
" />
<path d="M24.5212 61.3298
L24.7593 61.3298
" />
<path d="M23.2355 61.3298
L23.8069 61.3298
" />
<path d="M23.5212 61.3298
L23.5212 60.3298
" />
<path d="M23.5212 60.3298
L23.6164 60.4727
" />
<path d="M23.6164 60.4727
L23.7117 60.5679
" />
<path d="M23.7117 60.5679
L23.8069 60.6155
" />
<path d="M22.6164 60.3298
L22.5212 60.3298
" />
<path d="M22.5212 60.3298
L22.4260 60.3774
" />
<path d="M22.4260 60.3774
L22.3783 60.4251
" />
<path d="M22.3783 60.4251
L22.3307 60.5203
" />
<path d="M22.3307 60.5203
L22.2831 60.7108
" />
<path d="M22.2831 60.7108
L22.2831 60.9489
" />
<path d="M22.2831 60.9489
L22.3307 61.1393
" />
<path d="M22.3307 61.1393
L22.3783 61.2346
" />
<path d="M22.3783 61.2346
L22.4260 61.2822
" />
<path d="M22.4260 61.2822
L22.5212 61.3298
" />
<path d="M22.5212 61.3298
L22.6164 61.3298
" />
<path d="M22.6164 61.3298
L22.7117 61.2822
" />
<path d="M22.7117 61.2822
L22.7593 61.2346
" />
<path d="M22.7593 61.2346
L22.8069 61.1393
" />
<path d="M22.8069 61.1393
L22.8545 60.9489
" />
<path d="M22.8545 60.9489
L22.8545 60.7108
" />
<path d="M22.8545 60.7108
L22.8069 60.5203
" />
<path d="M22.8069 60.5203
L22.7593 60.4251
" />
<path d="M22.7593 60.4251
L22.7117 60.3774
" />
<path d="M22.7117 60.3774
L22.6164 60.3298
" />
</g><text x="42.5950" y="61.3750"
transform="scale(-1 1) translate(-85.190002 0)"
textLength="3.1548" font-size="1.3333" lengthAdjust="spacingAndGlyphs"
text-anchor="middle" opacity="0" stroke-opacity="0">D11</text>
<g class="stroked-text"><desc>D11</desc>
<path d="M43.8093 61.3298
L43.8093 60.3298
" />
<path d="M43.8093 60.3298
L43.5712 60.3298
" />
<path d="M43.5712 60.3298
L43.4283 60.3774
" />
<path d="M43.4283 60.3774
L43.3331 60.4727
" />
<path d="M43.3331 60.4727
L43.2855 60.5679
" />
<path d="M43.2855 60.5679
L43.2379 60.7584
" />
<path d="M43.2379 60.7584
L43.2379 60.9012
" />
<path d="M43.2379 60.9012
L43.2855 61.0917
" />
<path d="M43.2855 61.0917
L43.3331 61.1870
" />
<path d="M43.3331 61.1870
L43.4283 61.2822
" />
<path d="M43.4283 61.2822
L43.5712 61.3298
" />
<path d="M43.5712 61.3298
L43.8093 61.3298
" />
<path d="M42.2855 61.3298
L42.8569 61.3298
" />
<path d="M42.5712 61.3298
L42.5712 60.3298
" />
<path d="M42.5712 60.3298
L42.6664 60.4727
" />
<path d="M42.6664 60.4727
L42.7617 60.5679
" />
<path d="M42.7617 60.5679
L42.8569 60.6155
" />
<path d="M41.3331 61.3298
L41.9045 61.3298
" />
<path d="M41.6188 61.3298
L41.6188 60.3298
" />
<path d="M41.6188 60.3298
L41.7140 60.4727
" />
<path d="M41.7140 60.4727
L41.8093 60.5679
" />
<path d="M41.8093 60.5679
L41.9045 60.6155
" />
</g><text x="4.4950" y="61.3750"
transform="scale(-1 1) translate(-8.990002 0)"
textLength="2.2024" font-size="1.3333" lengthAdjust="spacingAndGlyphs"
text-anchor="middle" opacity="0" stroke-opacity="0">D9</text>
<g class="stroked-text"><desc>D9</desc>
<path d="M5.2331 61.3298
L5.2331 60.3298
" />
<path d="M5.2331 60.3298
L4.9950 60.3298
" />
<path d="M4.9950 60.3298
L4.8521 60.3774
" />
<path d="M4.8521 60.3774
L4.7569 60.4727
" />
<path d="M4.7569 60.4727
L4.7093 60.5679
" />
<path d="M4.7093 60.5679
L4.6617 60.7584
" />
<path d="M4.6617 60.7584
L4.6617 60.9012
" />
<path d="M4.6617 60.9012
L4.7093 61.0917
" />
<path d="M4.7093 61.0917
L4.7569 61.1870
" />
<path d="M4.7569 61.1870
L4.8521 61.2822
" />
<path d="M4.8521 61.2822
L4.9950 61.3298
" />
<path d="M4.9950 61.3298
L5.2331 61.3298
" />
<path d="M4.1855 61.3298
L3.9950 61.3298
" />
<path d="M3.9950 61.3298
L3.8998 61.2822
" />
<path d="M3.8998 61.2822
L3.8521 61.2346
" />
<path d="M3.8521 61.2346
L3.7569 61.0917
" />
<path d="M3.7569 61.0917
L3.7093 60.9012
" />
<path d="M3.7093 60.9012
L3.7093 60.5203
" />
<path d="M3.7093 60.5203
L3.7569 60.4251
" />
<path d="M3.7569 60.4251
L3.8045 60.3774
" />
<path d="M3.8045 60.3774
L3.8998 60.3298
" />
<path d="M3.8998 60.3298
L4.0902 60.3298
" />
<path d="M4.0902 60.3298
L4.1855 60.3774
" />
<path d="M4.1855 60.3774
L4.2331 60.4251
" />
<path d="M4.2331 60.4251
L4.2807 60.5203
" />
<path d="M4.2807 60.5203
L4.2807 60.7584
" />
<path d="M4.2807 60.7584
L4.2331 60.8536
" />
<path d="M4.2331 60.8536
L4.1855 60.9012
" />
<path d="M4.1855 60.9012
L4.0902 60.9489
" />
<path d="M4.0902 60.9489
L3.8998 60.9489
" />
<path d="M3.8998 60.9489
L3.8045 60.9012
" />
<path d="M3.8045 60.9012
L3.7569 60.8536
" />
<path d="M3.7569 60.8536
L3.7093 60.7584
" />
</g><text x="42.5950" y="42.3250"
transform="scale(-1 1) translate(-85.190002 0)"
textLength="2.2024" font-size="1.3333" lengthAdjust="spacingAndGlyphs"
text-anchor="middle" opacity="0" stroke-opacity="0">D8</text>
<g class="stroked-text"><desc>D8</desc>
<path d="M43.3331 42.2798
L43.3331 41.2798
" />
<path d="M43.3331 41.2798
L43.0950 41.2798
" />
<path d="M43.0950 41.2798
L42.9521 41.3274
" />
<path d="M42.9521 41.3274
L42.8569 41.4227
" />
<path d="M42.8569 41.4227
L42.8093 41.5179
" />
<path d="M42.8093 41.5179
L42.7617 41.7084
" />
<path d="M42.7617 41.7084
L42.7617 41.8512
" />
<path d="M42.7617 41.8512
L42.8093 42.0417
" />
<path d="M42.8093 42.0417
L42.8569 42.1370
" />
<path d="M42.8569 42.1370
L42.9521 42.2322
" />
<path d="M42.9521 42.2322
L43.0950 42.2798
" />
<path d="M43.0950 42.2798
L43.3331 42.2798
" />
<path d="M42.1902 41.7084
L42.2855 41.6608
" />
<path d="M42.2855 41.6608
L42.3331 41.6132
" />
<path d="M42.3331 41.6132
L42.3807 41.5179
" />
<path d="M42.3807 41.5179
L42.3807 41.4703
" />
<path d="M42.3807 41.4703
L42.3331 41.3751
" />
<path d="M42.3331 41.3751
L42.2855 41.3274
" />
<path d="M42.2855 41.3274
L42.1902 41.2798
" />
<path d="M42.1902 41.2798
L41.9998 41.2798
" />
<path d="M41.9998 41.2798
L41.9045 41.3274
" />
<path d="M41.9045 41.3274
L41.8569 41.3751
" />
<path d="M41.8569 41.3751
L41.8093 41.4703
" />
<path d="M41.8093 41.4703
L41.8093 41.5179
" />
<path d="M41.8093 41.5179
L41.8569 41.6132
" />
<path d="M41.8569 41.6132
L41.9045 41.6608
" />
<path d="M41.9045 41.6608
L41.9998 41.7084
" />
<path d="M41.9998 41.7084
L42.1902 41.7084
" />
<path d="M42.1902 41.7084
L42.2855 41.7560
" />
<path d="M42.2855 41.7560
L42.3331 41.8036
" />
<path d="M42.3331 41.8036
L42.3807 41.8989
" />
<path d="M42.3807 41.8989
L42.3807 42.0893
" />
<path d="M42.3807 42.0893
L42.3331 42.1846
" />
<path d="M42.3331 42.1846
L42.2855 42.2322
" />
<path d="M42.2855 42.2322
L42.1902 42.2798
" />
<path d="M42.1902 42.2798
L41.9998 42.2798
" />
<path d="M41.9998 42.2798
L41.9045 42.2322
" />
<path d="M41.9045 42.2322
L41.8569 42.1846
" />
<path d="M41.8569 42.1846
L41.8093 42.0893
" />
<path d="M41.8093 42.0893
L41.8093 41.8989
" />
<path d="M41.8093 41.8989
L41.8569 41.8036
" />
<path d="M41.8569 41.8036
L41.9045 41.7560
" />
<path d="M41.9045 41.7560
L41.9998 41.7084
" />
</g></g>
<g style="fill:none; 
stroke:#E8B2A7; stroke-width:0.1200; stroke-opacity:1; 
stroke-linecap:round; stroke-linejoin:round;">
<path d="M47.8750 50.3750
L42.7750 50.3750
" />
<path d="M51.7750 54.5750
L46.6750 54.5750
" />
<path d="M47.8750 50.3750 A2.0000 2.0000 0.0 0 0 49.8750 48.3750" />
<path d="M51.7750 54.5750 A2.0000 2.0000 0.0 0 0 53.7750 52.5750" />
<path d="M28.8250 50.3750
L23.7250 50.3750
" />
<path d="M32.7250 54.5750
L27.6250 54.5750
" />
<path d="M28.8250 50.3750 A2.0000 2.0000 0.0 0 0 30.8250 48.3750" />
<path d="M32.7250 54.5750 A2.0000 2.0000 0.0 0 0 34.7250 52.5750" />
<path d="M66.9250 78.9500
L61.8250 78.9500
" />
<path d="M70.8250 83.1500
L65.7250 83.1500
" />
<path d="M66.9250 78.9500 A2.0000 2.0000 0.0 0 0 68.9250 76.9500" />
<path d="M70.8250 83.1500 A2.0000 2.0000 0.0 0 0 72.8250 81.1500" />
<path d="M47.8750 69.4250
L42.7750 69.4250
" />
<path d="M51.7750 73.6250
L46.6750 73.6250
" />
<path d="M47.8750 69.4250 A2.0000 2.0000 0.0 0 0 49.8750 67.4250" />
<path d="M51.7750 73.6250 A2.0000 2.0000 0.0 0 0 53.7750 71.6250" />
<path d="M66.9250 12.2750
L61.8250 12.2750
" />
<path d="M70.8250 16.4750
L65.7250 16.4750
" />
<path d="M66.9250 12.2750 A2.0000 2.0000 0.0 0 0 68.9250 10.2750" />
<path d="M70.8250 16.4750 A2.0000 2.0000 0.0 0 0 72.8250 14.4750" />
<path d="M47.8750 31.3250
L42.7750 31.3250
" />
<path d="M51.7750 35.5250
L46.6750 35.5250
" />
<path d="M47.8750 31.3250 A2.0000 2.0000 0.0 0 0 49.8750 29.3250" />
<path d="M51.7750 35.5250 A2.0000 2.0000 0.0 0 0 53.7750 33.5250" />
<path d="M9.7750 50.3750
L4.6750 50.3750
" />
<path d="M13.6750 54.5750
L8.5750 54.5750
" />
<path d="M9.7750 50.3750 A2.0000 2.0000 0.0 0 0 11.7750 48.3750" />
<path d="M13.6750 54.5750 A2.0000 2.0000 0.0 0 0 15.6750 52.5750" />
<path d="M19.3000 88.4750
L14.2000 88.4750
" />
<path d="M23.2000 92.6750
L18.1000 92.6750
" />
<path d="M19.3000 88.4750 A2.0000 2.0000 0.0 0 0 21.3000 86.4750" />
<path d="M23.2000 92.6750 A2.0000 2.0000 0.0 0 0 25.2000 90.6750" />
<path d="M28.8250 69.4250
L23.7250 69.4250
" />
<path d="M32.7250 73.6250
L27.6250 73.6250
" />
<path d="M28.8250 69.4250 A2.0000 2.0000 0.0 0 0 30.8250 67.4250" />
<path d="M32.7250 73.6250 A2.0000 2.0000 0.0 0 0 34.7250 71.6250" />
<path d="M9.7750 69.4250
L4.6750 69.4250
" />
<path d="M13.6750 73.6250
L8.5750 73.6250
" />
<path d="M9.7750 69.4250 A2.0000 2.0000 0.0 0 0 11.7750 67.4250" />
<path d="M13.6750 73.6250 A2.0000 2.0000 0.0 0 0 15.6750 71.6250" />
<path d="M47.8750 88.4750
L42.7750 88.4750
" />
<path d="M51.7750 92.6750
L46.6750 92.6750
" />
<path d="M47.8750 88.4750 A2.0000 2.0000 0.0 0 0 49.8750 86.4750" />
<path d="M51.7750 92.6750 A2.0000 2.0000 0.0 0 0 53.7750 90.6750" />
<path d="M9.7750 31.3250
L4.6750 31.3250
" />
<path d="M13.6750 35.5250
L8.5750 35.5250
" />
<path d="M9.7750 31.3250 A2.0000 2.0000 0.0 0 0 11.7750 29.3250" />
<path d="M13.6750 35.5250 A2.0000 2.0000 0.0 0 0 15.6750 33.5250" />
<path d="M28.8250 31.3250
L23.7250 31.3250
" />
<path d="M32.7250 35.5250
L27.6250 35.5250
" />
<path d="M28.8250 31.3250 A2.0000 2.0000 0.0 0 0 30.8250 29.3250" />
<path d="M32.7250 35.5250 A2.0000 2.0000 0.0 0 0 34.7250 33.5250" />
<path d="M66.9250 40.8500
L61.8250 40.8500
" />
<path d="M70.8250 45.0500
L65.7250 45.0500
" />
<path d="M66.9250 40.8500 A2.0000 2.0000 0.0 0 0 68.9250 38.8500" />
<path d="M70.8250 45.0500 A2.0000 2.0000 0.0 0 0 72.8250 43.0500" />
<path d="M44.2050 80.9250
L41.5450 80.9250
" />
<path d="M44.2050 80.9250
L44.2050 82.6250
" />
<path d="M44.2050 82.6250
L41.5450 82.6250
" />
<path d="M44.2050 23.7750
L41.5450 23.7750
" />
<path d="M44.2050 23.7750
L44.2050 25.4750
" />
<path d="M44.2050 25.4750
L41.5450 25.4750
" />
<path d="M63.2550 33.3000
L60.5950 33.3000
" />
<path d="M63.2550 33.3000
L63.2550 35.0000
" />
<path d="M63.2550 35.0000
L60.5950 35.0000
" />
<path d="M6.1050 23.7750
L3.4450 23.7750
" />
<path d="M6.1050 23.7750
L6.1050 25.4750
" />
<path d="M6.1050 25.4750
L3.4450 25.4750
" />
<path d="M63.2550 4.7250
L60.5950 4.7250
" />
<path d="M63.2550 4.7250
L63.2550 6.4250
" />
<path d="M63.2550 6.4250
L60.5950 6.4250
" />
<path d="M25.1550 23.7750
L22.4950 23.7750
" />
<path d="M25.1550 23.7750
L25.1550 25.4750
" />
<path d="M25.1550 25.4750
L22.4950 25.4750
" />
<path d="M15.6300 80.9250
L12.9700 80.9250
" />
<path d="M15.6300 80.9250
L15.6300 82.6250
" />
<path d="M15.6300 82.6250
L12.9700 82.6250
" />
<path d="M25.1550 42.8250
L22.4950 42.8250
" />
<path d="M25.1550 42.8250
L25.1550 44.5250
" />
<path d="M25.1550 44.5250
L22.4950 44.5250
" />
<path d="M63.2550 71.4000
L60.5950 71.4000
" />
<path d="M63.2550 71.4000
L63.2550 73.1000
" />
<path d="M63.2550 73.1000
L60.5950 73.1000
" />
<path d="M6.1050 42.8250
L3.4450 42.8250
" />
<path d="M6.1050 42.8250
L6.1050 44.5250
" />
<path d="M6.1050 44.5250
L3.4450 44.5250
" />
<path d="M25.1550 61.8750
L22.4950 61.8750
" />
<path d="M25.1550 61.8750
L25.1550 63.5750
" />
<path d="M25.1550 63.5750
L22.4950 63.5750
" />
<path d="M44.2050 61.8750
L41.5450 61.8750
" />
<path d="M44.2050 61.8750
L44.2050 63.5750
" />
<path d="M44.2050 63.5750
L41.5450 63.5750
" />
<path d="M6.1050 61.8750
L3.4450 61.8750
" />
<path d="M6.1050 61.8750
L6.1050 63.5750
" />
<path d="M6.1050 63.5750
L3.4450 63.5750
" />
<path d="M44.2050 42.8250
L41.5450 42.8250
" />
<path d="M44.2050 42.8250
L44.2050 44.5250
" />
<path d="M44.2050 44.5250
L41.5450 44.5250
" />
</g>
<g style="fill:#FFFFFF; fill-opacity:1.0000; stroke:none;">
<circle cx="31.0380" cy="92.7600" r="1.5240" /> 
</g>
<g style="fill:#FFFFFF; fill-opacity:1.0000; stroke:none;">
<circle cx="31.0380" cy="77.5500" r="1.9939" /> 
</g>
<g style="fill:#FFFFFF; fill-opacity:1.0000; stroke:none;">
<circle cx="7.1620" cy="92.7600" r="1.5240" /> 
</g>
<g style="fill:#FFFFFF; fill-opacity:1.0000; stroke:none;">
<circle cx="7.1620" cy="77.5500" r="1.9939" /> 
</g>
<g style="fill:#FFFFFF; fill-opacity:1.0000; stroke:none;">
<circle cx="52.7550" cy="47.6750" r="0.8750" /> 
</g>
<g style="fill:#FFFFFF; fill-opacity:1.0000; stroke:none;">
<circle cx="51.4850" cy="50.2150" r="1.5250" /> 
</g>
<g style="fill:#FFFFFF; fill-opacity:1.0000; stroke:none;">
<circle cx="47.6750" cy="47.6750" r="2.0000" /> 
</g>
<g style="fill:#FFFFFF; fill-opacity:1.0000; stroke:none;">
<circle cx="45.1350" cy="52.7550" r="1.5250" /> 
</g>
<g style="fill:#FFFFFF; fill-opacity:1.0000; stroke:none;">
<circle cx="42.5950" cy="47.6750" r="0.8750" /> 
</g>
<g style="fill:#FFFFFF; fill-opacity:1.0000; stroke:none;">
<circle cx="33.7050" cy="47.6750" r="0.8750" /> 
</g>
<g style="fill:#FFFFFF; fill-opacity:1.0000; stroke:none;">
<circle cx="32.4350" cy="50.2150" r="1.5250" /> 
</g>
<g style="fill:#FFFFFF; fill-opacity:1.0000; stroke:none;">
<circle cx="28.6250" cy="47.6750" r="2.0000" /> 
</g>
<g style="fill:#FFFFFF; fill-opacity:1.0000; stroke:none;">
<circle cx="26.0850" cy="52.7550" r="1.5250" /> 
</g>
<g style="fill:#FFFFFF; fill-opacity:1.0000; stroke:none;">
<circle cx="23.5450" cy="47.6750" r="0.8750" /> 
</g>
<g style="fill:#FFFFFF; fill-opacity:1.0000; stroke:none;">
<circle cx="71.8050" cy="76.2500" r="0.8750" /> 
</g>
<g style="fill:#FFFFFF; fill-opacity:1.0000; stroke:none;">
<circle cx="70.5350" cy="78.7900" r="1.5250" /> 
</g>
<g style="fill:#FFFFFF; fill-opacity:1.0000; stroke:none;">
<circle cx="66.7250" cy="76.2500" r="2.0000" /> 
</g>
<g style="fill:#FFFFFF; fill-opacity:1.0000; stroke:none;">
<circle cx="64.1850" cy="81.3300" r="1.5250" /> 
</g>
<g style="fill:#FFFFFF; fill-opacity:1.0000; stroke:none;">
<circle cx="61.6450" cy="76.2500" r="0.8750" /> 
</g>
<g style="fill:#FFFFFF; fill-opacity:1.0000; stroke:none;">
<circle cx="52.7550" cy="66.7250" r="0.8750" /> 
</g>
<g style="fill:#FFFFFF; fill-opacity:1.0000; stroke:none;">
<circle cx="51.4850" cy="69.2650" r="1.5250" /> 
</g>
<g style="fill:#FFFFFF; fill-opacity:1.0000; stroke:none;">
<circle cx="47.6750" cy="66.7250" r="2.0000" /> 
</g>
<g style="fill:#FFFFFF; fill-opacity:1.0000; stroke:none;">
<circle cx="45.1350" cy="71.8050" r="1.5250" /> 
</g>
<g style="fill:#FFFFFF; fill-opacity:1.0000; stroke:none;">
<circle cx="42.5950" cy="66.7250" r="0.8750" /> 
</g>
<g style="fill:#FFFFFF; fill-opacity:1.0000; stroke:none;">
<circle cx="78.6630" cy="83.2350" r="1.5240" /> 
</g>
<g style="fill:#FFFFFF; fill-opacity:1.0000; stroke:none;">
<circle cx="78.6630" cy="68.0250" r="1.9939" /> 
</g>
<g style="fill:#FFFFFF; fill-opacity:1.0000; stroke:none;">
<circle cx="54.7870" cy="83.2350" r="1.5240" /> 
</g>
<g style="fill:#FFFFFF; fill-opacity:1.0000; stroke:none;">
<circle cx="54.7870" cy="68.0250" r="1.9939" /> 
</g>
<g style="fill:#FFFFFF; fill-opacity:1.0000; stroke:none;">
<circle cx="71.8050" cy="9.5750" r="0.8750" /> 
</g>
<g style="fill:#FFFFFF; fill-opacity:1.0000; stroke:none;">
<circle cx="70.5350" cy="12.1150" r="1.5250" /> 
</g>
<g style="fill:#FFFFFF; fill-opacity:1.0000; stroke:none;">
<circle cx="66.7250" cy="9.5750" r="2.0000" /> 
</g>
<g style="fill:#FFFFFF; fill-opacity:1.0000; stroke:none;">
<circle cx="64.1850" cy="14.6550" r="1.5250" /> 
</g>
<g style="fill:#FFFFFF; fill-opacity:1.0000; stroke:none;">
<circle cx="61.6450" cy="9.5750" r="0.8750" /> 
</g>
<g style="fill:#FFFFFF; fill-opacity:1.0000; stroke:none;">
<circle cx="52.7550" cy="28.6250" r="0.8750" /> 
</g>
<g style="fill:#FFFFFF; fill-opacity:1.0000; stroke:none;">
<circle cx="51.4850" cy="31.1650" r="1.5250" /> 
</g>
<g style="fill:#FFFFFF; fill-opacity:1.0000; stroke:none;">
<circle cx="47.6750" cy="28.6250" r="2.0000" /> 
</g>
<g style="fill:#FFFFFF; fill-opacity:1.0000; stroke:none;">
<circle cx="45.1350" cy="33.7050" r="1.5250" /> 
</g>
<g style="fill:#FFFFFF; fill-opacity:1.0000; stroke:none;">
<circle cx="42.5950" cy="28.6250" r="0.8750" /> 
</g>
<g style="fill:#FFFFFF; fill-opacity:1.0000; stroke:none;">
<circle cx="14.6550" cy="47.6750" r="0.8750" /> 
</g>
<g style="fill:#FFFFFF; fill-opacity:1.0000; stroke:none;">
<circle cx="13.3850" cy="50.2150" r="1.5250" /> 
</g>
<g style="fill:#FFFFFF; fill-opacity:1.0000; stroke:none;">
<circle cx="9.5750" cy="47.6750" r="2.0000" /> 
</g>
<g style="fill:#FFFFFF; fill-opacity:1.0000; stroke:none;">
<circle cx="7.0350" cy="52.7550" r="1.5250" /> 
</g>
<g style="fill:#FFFFFF; fill-opacity:1.0000; stroke:none;">
<circle cx="4.4950" cy="47.6750" r="0.8750" /> 
</g>
<g style="fill:#FFFFFF; fill-opacity:1.0000; stroke:none;">
<circle cx="24.1800" cy="85.7750" r="0.8750" /> 
</g>
<g style="fill:#FFFFFF; fill-opacity:1.0000; stroke:none;">
<circle cx="22.9100" cy="88.3150" r="1.5250" /> 
</g>
<g style="fill:#FFFFFF; fill-opacity:1.0000; stroke:none;">
<circle cx="19.1000" cy="85.7750" r="2.0000" /> 
</g>
<g style="fill:#FFFFFF; fill-opacity:1.0000; stroke:none;">
<circle cx="16.5600" cy="90.8550" r="1.5250" /> 
</g>
<g style="fill:#FFFFFF; fill-opacity:1.0000; stroke:none;">
<circle cx="14.0200" cy="85.7750" r="0.8750" /> 
</g>
<g style="fill:#FFFFFF; fill-opacity:1.0000; stroke:none;">
<circle cx="33.7050" cy="66.7250" r="0.8750" /> 
</g>
<g style="fill:#FFFFFF; fill-opacity:1.0000; stroke:none;">
<circle cx="32.4350" cy="69.2650" r="1.5250" /> 
</g>
<g style="fill:#FFFFFF; fill-opacity:1.0000; stroke:none;">
<circle cx="28.6250" cy="66.7250" r="2.0000" /> 
</g>
<g style="fill:#FFFFFF; fill-opacity:1.0000; stroke:none;">
<circle cx="26.0850" cy="71.8050" r="1.5250" /> 
</g>
<g style="fill:#FFFFFF; fill-opacity:1.0000; stroke:none;">
<circle cx="23.5450" cy="66.7250" r="0.8750" /> 
</g>
<g style="fill:#FFFFFF; fill-opacity:1.0000; stroke:none;">
<circle cx="14.6550" cy="66.7250" r="0.8750" /> 
</g>
<g style="fill:#FFFFFF; fill-opacity:1.0000; stroke:none;">
<circle cx="13.3850" cy="69.2650" r="1.5250" /> 
</g>
<g style="fill:#FFFFFF; fill-opacity:1.0000; stroke:none;">
<circle cx="9.5750" cy="66.7250" r="2.0000" /> 
</g>
<g style="fill:#FFFFFF; fill-opacity:1.0000; stroke:none;">
<circle cx="7.0350" cy="71.8050" r="1.5250" /> 
</g>
<g style="fill:#FFFFFF; fill-opacity:1.0000; stroke:none;">
<circle cx="4.4950" cy="66.7250" r="0.8750" /> 
</g>
<g style="fill:#FFFFFF; fill-opacity:1.0000; stroke:none;">
<circle cx="78.6630" cy="45.1350" r="1.5240" /> 
</g>
<g style="fill:#FFFFFF; fill-opacity:1.0000; stroke:none;">
<circle cx="78.6630" cy="29.9250" r="1.9939" /> 
</g>
<g style="fill:#FFFFFF; fill-opacity:1.0000; stroke:none;">
<circle cx="54.7870" cy="45.1350" r="1.5240" /> 
</g>
<g style="fill:#FFFFFF; fill-opacity:1.0000; stroke:none;">
<circle cx="54.7870" cy="29.9250" r="1.9939" /> 
</g>
<g style="fill:#FFFFFF; fill-opacity:1.0000; stroke:none;">
<circle cx="52.7550" cy="85.7750" r="0.8750" /> 
</g>
<g style="fill:#FFFFFF; fill-opacity:1.0000; stroke:none;">
<circle cx="51.4850" cy="88.3150" r="1.5250" /> 
</g>
<g style="fill:#FFFFFF; fill-opacity:1.0000; stroke:none;">
<circle cx="47.6750" cy="85.7750" r="2.0000" /> 
</g>
<g style="fill:#FFFFFF; fill-opacity:1.0000; stroke:none;">
<circle cx="45.1350" cy="90.8550" r="1.5250" /> 
</g>
<g style="fill:#FFFFFF; fill-opacity:1.0000; stroke:none;">
<circle cx="42.5950" cy="85.7750" r="0.8750" /> 
</g>
<g style="fill:#FFFFFF; fill-opacity:1.0000; stroke:none;">
<circle cx="14.6550" cy="28.6250" r="0.8750" /> 
</g>
<g style="fill:#FFFFFF; fill-opacity:1.0000; stroke:none;">
<circle cx="13.3850" cy="31.1650" r="1.5250" /> 
</g>
<g style="fill:#FFFFFF; fill-opacity:1.0000; stroke:none;">
<circle cx="9.5750" cy="28.6250" r="2.0000" /> 
</g>
<g style="fill:#FFFFFF; fill-opacity:1.0000; stroke:none;">
<circle cx="7.0350" cy="33.7050" r="1.5250" /> 
</g>
<g style="fill:#FFFFFF; fill-opacity:1.0000; stroke:none;">
<circle cx="4.4950" cy="28.6250" r="0.8750" /> 
</g>
<g style="fill:#FFFFFF; fill-opacity:1.0000; stroke:none;">
<circle cx="33.7050" cy="28.6250" r="0.8750" /> 
</g>
<g style="fill:#FFFFFF; fill-opacity:1.0000; stroke:none;">
<circle cx="32.4350" cy="31.1650" r="1.5250" /> 
</g>
<g style="fill:#FFFFFF; fill-opacity:1.0000; stroke:none;">
<circle cx="28.6250" cy="28.6250" r="2.0000" /> 
</g>
<g style="fill:#FFFFFF; fill-opacity:1.0000; stroke:none;">
<circle cx="26.0850" cy="33.7050" r="1.5250" /> 
</g>
<g style="fill:#FFFFFF; fill-opacity:1.0000; stroke:none;">
<circle cx="23.5450" cy="28.6250" r="0.8750" /> 
</g>
<g style="fill:#FFFFFF; fill-opacity:1.0000; stroke:none;">
<circle cx="71.8050" cy="38.1500" r="0.8750" /> 
</g>
<g style="fill:#FFFFFF; fill-opacity:1.0000; stroke:none;">
<circle cx="70.5350" cy="40.6900" r="1.5250" /> 
</g>
<g style="fill:#FFFFFF; fill-opacity:1.0000; stroke:none;">
<circle cx="66.7250" cy="38.1500" r="2.0000" /> 
</g>
<g style="fill:#FFFFFF; fill-opacity:1.0000; stroke:none;">
<circle cx="64.1850" cy="43.2300" r="1.5250" /> 
</g>
<g style="fill:#FFFFFF; fill-opacity:1.0000; stroke:none;">
<circle cx="61.6450" cy="38.1500" r="0.8750" /> 
</g> 
</svg>
