<?xml version="1.0" standalone="no"?>
 <!DOCTYPE svg PUBLIC "-//W3C//DTD SVG 1.1//EN" 
 "http://www.w3.org/Graphics/SVG/1.1/DTD/svg11.dtd"> 
<svg
  xmlns:svg="http://www.w3.org/2000/svg"
  xmlns="http://www.w3.org/2000/svg"
  xmlns:xlink="http://www.w3.org/1999/xlink"
  version="1.1"
  width="82.0674mm" height="95.3262mm" viewBox="0.0000 0.0000 82.0674 95.3262">
<title>SVG Image created as front.svg date 2026/04/17 08:48:39 </title>
  <desc>Image generated by PCBNEW </desc>
<g style="fill:#000000; fill-opacity:1.0000;stroke:#000000; stroke-opacity:1.0000;
stroke-linecap:round; stroke-linejoin:round;"
 transform="translate(0 0) scale(1 1)">
</g>
<g style="fill:none; 
stroke:#F2EDA1; stroke-width:0.1500; stroke-opacity:1; 
stroke-linecap:round; stroke-linejoin:round;">
<text x="19.1000" y="88.2750"
textLength="3.8690" font-size="1.3333" lengthAdjust="spacingAndGlyphs"
text-anchor="middle" opacity="0" stroke-opacity="0">ST13</text>
<g class="stroked-text"><desc>ST13</desc>
<path d="M17.4810 88.1822
L17.6238 88.2298
" />
<path d="M17.6238 88.2298
L17.8619 88.2298
" />
<path d="M17.8619 88.2298
L17.9571 88.1822
" />
<path d="M17.9571 88.1822
L18.0048 88.1346
" />
<path d="M18.0048 88.1346
L18.0524 88.0393
" />
<path d="M18.0524 88.0393
L18.0524 87.9441
" />
<path d="M18.0524 87.9441
L18.0048 87.8489
" />
<path d="M18.0048 87.8489
L17.9571 87.8012
" />
<path d="M17.9571 87.8012
L17.8619 87.7536
" />
<path d="M17.8619 87.7536
L17.6714 87.7060
" />
<path d="M17.6714 87.7060
L17.5762 87.6584
" />
<path d="M17.5762 87.6584
L17.5286 87.6108
" />
<path d="M17.5286 87.6108
L17.4810 87.5155
" />
<path d="M17.4810 87.5155
L17.4810 87.4203
" />
<path d="M17.4810 87.4203
L17.5286 87.3251
" />
<path d="M17.5286 87.3251
L17.5762 87.2774
" />
<path d="M17.5762 87.2774
L17.6714 87.2298
" />
<path d="M17.6714 87.2298
L17.9095 87.2298
" />
<path d="M17.9095 87.2298
L18.0524 87.2774
" />
<path d="M18.3381 87.2298
L18.9095 87.2298
" />
<path d="M18.6238 88.2298
L18.6238 87.2298
" />
<path d="M19.7667 88.2298
L19.1952 88.2298
" />
<path d="M19.4810 88.2298
L19.4810 87.2298
" />
<path d="M19.4810 87.2298
L19.3857 87.3727
" />
<path d="M19.3857 87.3727
L19.2905 87.4679
" />
<path d="M19.2905 87.4679
L19.1952 87.5155
" />
<path d="M20.1000 87.2298
L20.7190 87.2298
" />
<path d="M20.7190 87.2298
L20.3857 87.6108
" />
<path d="M20.3857 87.6108
L20.5286 87.6108
" />
<path d="M20.5286 87.6108
L20.6238 87.6584
" />
<path d="M20.6238 87.6584
L20.6714 87.7060
" />
<path d="M20.6714 87.7060
L20.7190 87.8012
" />
<path d="M20.7190 87.8012
L20.7190 88.0393
" />
<path d="M20.7190 88.0393
L20.6714 88.1346
" />
<path d="M20.6714 88.1346
L20.6238 88.1822
" />
<path d="M20.6238 88.1822
L20.5286 88.2298
" />
<path d="M20.5286 88.2298
L20.2429 88.2298
" />
<path d="M20.2429 88.2298
L20.1476 88.1822
" />
<path d="M20.1476 88.1822
L20.1000 88.1346
" />
</g><text x="47.6750" y="56.1750"
textLength="3.2976" font-size="1.3333" lengthAdjust="spacingAndGlyphs"
text-anchor="middle" opacity="0" stroke-opacity="0">SW8</text>
<g class="stroked-text"><desc>SW8</desc>
<path d="M46.3417 56.0822
L46.4845 56.1298
" />
<path d="M46.4845 56.1298
L46.7226 56.1298
" />
<path d="M46.7226 56.1298
L46.8179 56.0822
" />
<path d="M46.8179 56.0822
L46.8655 56.0346
" />
<path d="M46.8655 56.0346
L46.9131 55.9393
" />
<path d="M46.9131 55.9393
L46.9131 55.8441
" />
<path d="M46.9131 55.8441
L46.8655 55.7489
" />
<path d="M46.8655 55.7489
L46.8179 55.7012
" />
<path d="M46.8179 55.7012
L46.7226 55.6536
" />
<path d="M46.7226 55.6536
L46.5321 55.6060
" />
<path d="M46.5321 55.6060
L46.4369 55.5584
" />
<path d="M46.4369 55.5584
L46.3893 55.5108
" />
<path d="M46.3893 55.5108
L46.3417 55.4155
" />
<path d="M46.3417 55.4155
L46.3417 55.3203
" />
<path d="M46.3417 55.3203
L46.3893 55.2251
" />
<path d="M46.3893 55.2251
L46.4369 55.1774
" />
<path d="M46.4369 55.1774
L46.5321 55.1298
" />
<path d="M46.5321 55.1298
L46.7702 55.1298
" />
<path d="M46.7702 55.1298
L46.9131 55.1774
" />
<path d="M47.2464 55.1298
L47.4845 56.1298
" />
<path d="M47.4845 56.1298
L47.6750 55.4155
" />
<path d="M47.6750 55.4155
L47.8655 56.1298
" />
<path d="M47.8655 56.1298
L48.1036 55.1298
" />
<path d="M48.6274 55.5584
L48.5321 55.5108
" />
<path d="M48.5321 55.5108
L48.4845 55.4632
" />
<path d="M48.4845 55.4632
L48.4369 55.3679
" />
<path d="M48.4369 55.3679
L48.4369 55.3203
" />
<path d="M48.4369 55.3203
L48.4845 55.2251
" />
<path d="M48.4845 55.2251
L48.5321 55.1774
" />
<path d="M48.5321 55.1774
L48.6274 55.1298
" />
<path d="M48.6274 55.1298
L48.8179 55.1298
" />
<path d="M48.8179 55.1298
L48.9131 55.1774
" />
<path d="M48.9131 55.1774
L48.9607 55.2251
" />
<path d="M48.9607 55.2251
L49.0083 55.3203
" />
<path d="M49.0083 55.3203
L49.0083 55.3679
" />
<path d="M49.0083 55.3679
L48.9607 55.4632
" />
<path d="M48.9607 55.4632
L48.9131 55.5108
" />
<path d="M48.9131 55.5108
L48.8179 55.5584
" />
<path d="M48.8179 55.5584
L48.6274 55.5584
" />
<path d="M48.6274 55.5584
L48.5321 55.6060
" />
<path d="M48.5321 55.6060
L48.4845 55.6536
" />
<path d="M48.4845 55.6536
L48.4369 55.7489
" />
<path d="M48.4369 55.7489
L48.4369 55.9393
" />
<path d="M48.4369 55.9393
L48.4845 56.0346
" />
<path d="M48.4845 56.0346
L48.5321 56.0822
" />
<path d="M48.5321 56.0822
L48.6274 56.1298
" />
<path d="M48.6274 56.1298
L48.8179 56.1298
" />
<path d="M48.8179 56.1298
L48.9131 56.0822
" />
<path d="M48.9131 56.0822
L48.9607 56.0346
" />
<path d="M48.9607 56.0346
L49.0083 55.9393
" />
<path d="M49.0083 55.9393
L49.0083 55.7489
" />
<path d="M49.0083 55.7489
L48.9607 55.6536
" />
<path d="M48.9607 55.6536
L48.9131 55.6060
" />
<path d="M48.9131 55.6060
L48.8179 55.5584
" />
</g><text x="28.6250" y="56.1750"
textLength="3.2976" font-size="1.3333" lengthAdjust="spacingAndGlyphs"
text-anchor="middle" opacity="0" stroke-opacity="0">SW7</text>
<g class="stroked-text"><desc>SW7</desc>
<path d="M27.2917 56.0822
L27.4345 56.1298
" />
<path d="M27.4345 56.1298
L27.6726 56.1298
" />
<path d="M27.6726 56.1298
L27.7679 56.0822
" />
<path d="M27.7679 56.0822
L27.8155 56.0346
" />
<path d="M27.8155 56.0346
L27.8631 55.9393
" />
<path d="M27.8631 55.9393
L27.8631 55.8441
" />
<path d="M27.8631 55.8441
L27.8155 55.7489
" />
<path d="M27.8155 55.7489
L27.7679 55.7012
" />
<path d="M27.7679 55.7012
L27.6726 55.6536
" />
<path d="M27.6726 55.6536
L27.4821 55.6060
" />
<path d="M27.4821 55.6060
L27.3869 55.5584
" />
<path d="M27.3869 55.5584
L27.3393 55.5108
" />
<path d="M27.3393 55.5108
L27.2917 55.4155
" />
<path d="M27.2917 55.4155
L27.2917 55.3203
" />
<path d="M27.2917 55.3203
L27.3393 55.2251
" />
<path d="M27.3393 55.2251
L27.3869 55.1774
" />
<path d="M27.3869 55.1774
L27.4821 55.1298
" />
<path d="M27.4821 55.1298
L27.7202 55.1298
" />
<path d="M27.7202 55.1298
L27.8631 55.1774
" />
<path d="M28.1964 55.1298
L28.4345 56.1298
" />
<path d="M28.4345 56.1298
L28.6250 55.4155
" />
<path d="M28.6250 55.4155
L28.8155 56.1298
" />
<path d="M28.8155 56.1298
L29.0536 55.1298
" />
<path d="M29.3393 55.1298
L30.0060 55.1298
" />
<path d="M30.0060 55.1298
L29.5774 56.1298
" />
</g><text x="66.7250" y="84.7500"
textLength="4.2500" font-size="1.3333" lengthAdjust="spacingAndGlyphs"
text-anchor="middle" opacity="0" stroke-opacity="0">SW12</text>
<g class="stroked-text"><desc>SW12</desc>
<path d="M64.9155 84.6572
L65.0583 84.7048
" />
<path d="M65.0583 84.7048
L65.2964 84.7048
" />
<path d="M65.2964 84.7048
L65.3917 84.6572
" />
<path d="M65.3917 84.6572
L65.4393 84.6096
" />
<path d="M65.4393 84.6096
L65.4869 84.5143
" />
<path d="M65.4869 84.5143
L65.4869 84.4191
" />
<path d="M65.4869 84.4191
L65.4393 84.3239
" />
<path d="M65.4393 84.3239
L65.3917 84.2762
" />
<path d="M65.3917 84.2762
L65.2964 84.2286
" />
<path d="M65.2964 84.2286
L65.1060 84.1810
" />
<path d="M65.1060 84.1810
L65.0107 84.1334
" />
<path d="M65.0107 84.1334
L64.9631 84.0858
" />
<path d="M64.9631 84.0858
L64.9155 83.9905
" />
<path d="M64.9155 83.9905
L64.9155 83.8953
" />
<path d="M64.9155 83.8953
L64.9631 83.8001
" />
<path d="M64.9631 83.8001
L65.0107 83.7524
" />
<path d="M65.0107 83.7524
L65.1060 83.7048
" />
<path d="M65.1060 83.7048
L65.3440 83.7048
" />
<path d="M65.3440 83.7048
L65.4869 83.7524
" />
<path d="M65.8202 83.7048
L66.0583 84.7048
" />
<path d="M66.0583 84.7048
L66.2488 83.9905
" />
<path d="M66.2488 83.9905
L66.4393 84.7048
" />
<path d="M66.4393 84.7048
L66.6774 83.7048
" />
<path d="M67.5821 84.7048
L67.0107 84.7048
" />
<path d="M67.2964 84.7048
L67.2964 83.7048
" />
<path d="M67.2964 83.7048
L67.2012 83.8477
" />
<path d="M67.2012 83.8477
L67.1060 83.9429
" />
<path d="M67.1060 83.9429
L67.0107 83.9905
" />
<path d="M67.9631 83.8001
L68.0107 83.7524
" />
<path d="M68.0107 83.7524
L68.1060 83.7048
" />
<path d="M68.1060 83.7048
L68.3440 83.7048
" />
<path d="M68.3440 83.7048
L68.4393 83.7524
" />
<path d="M68.4393 83.7524
L68.4869 83.8001
" />
<path d="M68.4869 83.8001
L68.5345 83.8953
" />
<path d="M68.5345 83.8953
L68.5345 83.9905
" />
<path d="M68.5345 83.9905
L68.4869 84.1334
" />
<path d="M68.4869 84.1334
L67.9155 84.7048
" />
<path d="M67.9155 84.7048
L68.5345 84.7048
" />
</g><text x="47.6750" y="75.2250"
textLength="4.2500" font-size="1.3333" lengthAdjust="spacingAndGlyphs"
text-anchor="middle" opacity="0" stroke-opacity="0">SW11</text>
<g class="stroked-text"><desc>SW11</desc>
<path d="M45.8655 75.1322
L46.0083 75.1798
" />
<path d="M46.0083 75.1798
L46.2464 75.1798
" />
<path d="M46.2464 75.1798
L46.3417 75.1322
" />
<path d="M46.3417 75.1322
L46.3893 75.0846
" />
<path d="M46.3893 75.0846
L46.4369 74.9893
" />
<path d="M46.4369 74.9893
L46.4369 74.8941
" />
<path d="M46.4369 74.8941
L46.3893 74.7989
" />
<path d="M46.3893 74.7989
L46.3417 74.7512
" />
<path d="M46.3417 74.7512
L46.2464 74.7036
" />
<path d="M46.2464 74.7036
L46.0560 74.6560
" />
<path d="M46.0560 74.6560
L45.9607 74.6084
" />
<path d="M45.9607 74.6084
L45.9131 74.5608
" />
<path d="M45.9131 74.5608
L45.8655 74.4655
" />
<path d="M45.8655 74.4655
L45.8655 74.3703
" />
<path d="M45.8655 74.3703
L45.9131 74.2751
" />
<path d="M45.9131 74.2751
L45.9607 74.2274
" />
<path d="M45.9607 74.2274
L46.0560 74.1798
" />
<path d="M46.0560 74.1798
L46.2940 74.1798
" />
<path d="M46.2940 74.1798
L46.4369 74.2274
" />
<path d="M46.7702 74.1798
L47.0083 75.1798
" />
<path d="M47.0083 75.1798
L47.1988 74.4655
" />
<path d="M47.1988 74.4655
L47.3893 75.1798
" />
<path d="M47.3893 75.1798
L47.6274 74.1798
" />
<path d="M48.5321 75.1798
L47.9607 75.1798
" />
<path d="M48.2464 75.1798
L48.2464 74.1798
" />
<path d="M48.2464 74.1798
L48.1512 74.3227
" />
<path d="M48.1512 74.3227
L48.0560 74.4179
" />
<path d="M48.0560 74.4179
L47.9607 74.4655
" />
<path d="M49.4845 75.1798
L48.9131 75.1798
" />
<path d="M49.1988 75.1798
L49.1988 74.1798
" />
<path d="M49.1988 74.1798
L49.1036 74.3227
" />
<path d="M49.1036 74.3227
L49.0083 74.4179
" />
<path d="M49.0083 74.4179
L48.9131 74.4655
" />
</g><text x="66.7250" y="78.7500"
textLength="3.8690" font-size="1.3333" lengthAdjust="spacingAndGlyphs"
text-anchor="middle" opacity="0" stroke-opacity="0">ST12</text>
<g class="stroked-text"><desc>ST12</desc>
<path d="M65.1060 78.6572
L65.2488 78.7048
" />
<path d="M65.2488 78.7048
L65.4869 78.7048
" />
<path d="M65.4869 78.7048
L65.5821 78.6572
" />
<path d="M65.5821 78.6572
L65.6298 78.6096
" />
<path d="M65.6298 78.6096
L65.6774 78.5143
" />
<path d="M65.6774 78.5143
L65.6774 78.4191
" />
<path d="M65.6774 78.4191
L65.6298 78.3239
" />
<path d="M65.6298 78.3239
L65.5821 78.2762
" />
<path d="M65.5821 78.2762
L65.4869 78.2286
" />
<path d="M65.4869 78.2286
L65.2964 78.1810
" />
<path d="M65.2964 78.1810
L65.2012 78.1334
" />
<path d="M65.2012 78.1334
L65.1536 78.0858
" />
<path d="M65.1536 78.0858
L65.1060 77.9905
" />
<path d="M65.1060 77.9905
L65.1060 77.8953
" />
<path d="M65.1060 77.8953
L65.1536 77.8001
" />
<path d="M65.1536 77.8001
L65.2012 77.7524
" />
<path d="M65.2012 77.7524
L65.2964 77.7048
" />
<path d="M65.2964 77.7048
L65.5345 77.7048
" />
<path d="M65.5345 77.7048
L65.6774 77.7524
" />
<path d="M65.9631 77.7048
L66.5345 77.7048
" />
<path d="M66.2488 78.7048
L66.2488 77.7048
" />
<path d="M67.3917 78.7048
L66.8202 78.7048
" />
<path d="M67.1060 78.7048
L67.1060 77.7048
" />
<path d="M67.1060 77.7048
L67.0107 77.8477
" />
<path d="M67.0107 77.8477
L66.9155 77.9429
" />
<path d="M66.9155 77.9429
L66.8202 77.9905
" />
<path d="M67.7726 77.8001
L67.8202 77.7524
" />
<path d="M67.8202 77.7524
L67.9155 77.7048
" />
<path d="M67.9155 77.7048
L68.1536 77.7048
" />
<path d="M68.1536 77.7048
L68.2488 77.7524
" />
<path d="M68.2488 77.7524
L68.2964 77.8001
" />
<path d="M68.2964 77.8001
L68.3440 77.8953
" />
<path d="M68.3440 77.8953
L68.3440 77.9905
" />
<path d="M68.3440 77.9905
L68.2964 78.1334
" />
<path d="M68.2964 78.1334
L67.7250 78.7048
" />
<path d="M67.7250 78.7048
L68.3440 78.7048
" />
</g><text x="66.7250" y="18.0750"
textLength="3.2976" font-size="1.3333" lengthAdjust="spacingAndGlyphs"
text-anchor="middle" opacity="0" stroke-opacity="0">SW1</text>
<g class="stroked-text"><desc>SW1</desc>
<path d="M65.3917 17.9822
L65.5345 18.0298
" />
<path d="M65.5345 18.0298
L65.7726 18.0298
" />
<path d="M65.7726 18.0298
L65.8679 17.9822
" />
<path d="M65.8679 17.9822
L65.9155 17.9346
" />
<path d="M65.9155 17.9346
L65.9631 17.8393
" />
<path d="M65.9631 17.8393
L65.9631 17.7441
" />
<path d="M65.9631 17.7441
L65.9155 17.6489
" />
<path d="M65.9155 17.6489
L65.8679 17.6012
" />
<path d="M65.8679 17.6012
L65.7726 17.5536
" />
<path d="M65.7726 17.5536
L65.5821 17.5060
" />
<path d="M65.5821 17.5060
L65.4869 17.4584
" />
<path d="M65.4869 17.4584
L65.4393 17.4108
" />
<path d="M65.4393 17.4108
L65.3917 17.3155
" />
<path d="M65.3917 17.3155
L65.3917 17.2203
" />
<path d="M65.3917 17.2203
L65.4393 17.1251
" />
<path d="M65.4393 17.1251
L65.4869 17.0774
" />
<path d="M65.4869 17.0774
L65.5821 17.0298
" />
<path d="M65.5821 17.0298
L65.8202 17.0298
" />
<path d="M65.8202 17.0298
L65.9631 17.0774
" />
<path d="M66.2964 17.0298
L66.5345 18.0298
" />
<path d="M66.5345 18.0298
L66.7250 17.3155
" />
<path d="M66.7250 17.3155
L66.9155 18.0298
" />
<path d="M66.9155 18.0298
L67.1536 17.0298
" />
<path d="M68.0583 18.0298
L67.4869 18.0298
" />
<path d="M67.7726 18.0298
L67.7726 17.0298
" />
<path d="M67.7726 17.0298
L67.6774 17.1727
" />
<path d="M67.6774 17.1727
L67.5821 17.2679
" />
<path d="M67.5821 17.2679
L67.4869 17.3155
" />
</g><text x="47.6750" y="37.1250"
textLength="3.2976" font-size="1.3333" lengthAdjust="spacingAndGlyphs"
text-anchor="middle" opacity="0" stroke-opacity="0">SW4</text>
<g class="stroked-text"><desc>SW4</desc>
<path d="M46.3417 37.0322
L46.4845 37.0798
" />
<path d="M46.4845 37.0798
L46.7226 37.0798
" />
<path d="M46.7226 37.0798
L46.8179 37.0322
" />
<path d="M46.8179 37.0322
L46.8655 36.9846
" />
<path d="M46.8655 36.9846
L46.9131 36.8893
" />
<path d="M46.9131 36.8893
L46.9131 36.7941
" />
<path d="M46.9131 36.7941
L46.8655 36.6989
" />
<path d="M46.8655 36.6989
L46.8179 36.6512
" />
<path d="M46.8179 36.6512
L46.7226 36.6036
" />
<path d="M46.7226 36.6036
L46.5321 36.5560
" />
<path d="M46.5321 36.5560
L46.4369 36.5084
" />
<path d="M46.4369 36.5084
L46.3893 36.4608
" />
<path d="M46.3893 36.4608
L46.3417 36.3655
" />
<path d="M46.3417 36.3655
L46.3417 36.2703
" />
<path d="M46.3417 36.2703
L46.3893 36.1751
" />
<path d="M46.3893 36.1751
L46.4369 36.1274
" />
<path d="M46.4369 36.1274
L46.5321 36.0798
" />
<path d="M46.5321 36.0798
L46.7702 36.0798
" />
<path d="M46.7702 36.0798
L46.9131 36.1274
" />
<path d="M47.2464 36.0798
L47.4845 37.0798
" />
<path d="M47.4845 37.0798
L47.6750 36.3655
" />
<path d="M47.6750 36.3655
L47.8655 37.0798
" />
<path d="M47.8655 37.0798
L48.1036 36.0798
" />
<path d="M48.9131 36.4132
L48.9131 37.0798
" />
<path d="M48.6750 36.0322
L48.4369 36.7465
" />
<path d="M48.4369 36.7465
L49.0560 36.7465
" />
</g><text x="9.5750" y="56.1750"
textLength="3.2976" font-size="1.3333" lengthAdjust="spacingAndGlyphs"
text-anchor="middle" opacity="0" stroke-opacity="0">SW6</text>
<g class="stroked-text"><desc>SW6</desc>
<path d="M8.2417 56.0822
L8.3845 56.1298
" />
<path d="M8.3845 56.1298
L8.6226 56.1298
" />
<path d="M8.6226 56.1298
L8.7179 56.0822
" />
<path d="M8.7179 56.0822
L8.7655 56.0346
" />
<path d="M8.7655 56.0346
L8.8131 55.9393
" />
<path d="M8.8131 55.9393
L8.8131 55.8441
" />
<path d="M8.8131 55.8441
L8.7655 55.7489
" />
<path d="M8.7655 55.7489
L8.7179 55.7012
" />
<path d="M8.7179 55.7012
L8.6226 55.6536
" />
<path d="M8.6226 55.6536
L8.4321 55.6060
" />
<path d="M8.4321 55.6060
L8.3369 55.5584
" />
<path d="M8.3369 55.5584
L8.2893 55.5108
" />
<path d="M8.2893 55.5108
L8.2417 55.4155
" />
<path d="M8.2417 55.4155
L8.2417 55.3203
" />
<path d="M8.2417 55.3203
L8.2893 55.2251
" />
<path d="M8.2893 55.2251
L8.3369 55.1774
" />
<path d="M8.3369 55.1774
L8.4321 55.1298
" />
<path d="M8.4321 55.1298
L8.6702 55.1298
" />
<path d="M8.6702 55.1298
L8.8131 55.1774
" />
<path d="M9.1464 55.1298
L9.3845 56.1298
" />
<path d="M9.3845 56.1298
L9.5750 55.4155
" />
<path d="M9.5750 55.4155
L9.7655 56.1298
" />
<path d="M9.7655 56.1298
L10.0036 55.1298
" />
<path d="M10.8131 55.1298
L10.6226 55.1298
" />
<path d="M10.6226 55.1298
L10.5274 55.1774
" />
<path d="M10.5274 55.1774
L10.4798 55.2251
" />
<path d="M10.4798 55.2251
L10.3845 55.3679
" />
<path d="M10.3845 55.3679
L10.3369 55.5584
" />
<path d="M10.3369 55.5584
L10.3369 55.9393
" />
<path d="M10.3369 55.9393
L10.3845 56.0346
" />
<path d="M10.3845 56.0346
L10.4321 56.0822
" />
<path d="M10.4321 56.0822
L10.5274 56.1298
" />
<path d="M10.5274 56.1298
L10.7179 56.1298
" />
<path d="M10.7179 56.1298
L10.8131 56.0822
" />
<path d="M10.8131 56.0822
L10.8607 56.0346
" />
<path d="M10.8607 56.0346
L10.9083 55.9393
" />
<path d="M10.9083 55.9393
L10.9083 55.7012
" />
<path d="M10.9083 55.7012
L10.8607 55.6060
" />
<path d="M10.8607 55.6060
L10.8131 55.5584
" />
<path d="M10.8131 55.5584
L10.7179 55.5108
" />
<path d="M10.7179 55.5108
L10.5274 55.5108
" />
<path d="M10.5274 55.5108
L10.4321 55.5584
" />
<path d="M10.4321 55.5584
L10.3845 55.6060
" />
<path d="M10.3845 55.6060
L10.3369 55.7012
" />
</g><text x="19.1000" y="94.2750"
textLength="4.2500" font-size="1.3333" lengthAdjust="spacingAndGlyphs"
text-anchor="middle" opacity="0" stroke-opacity="0">SW13</text>
<g class="stroked-text"><desc>SW13</desc>
<path d="M17.2905 94.1822
L17.4333 94.2298
" />
<path d="M17.4333 94.2298
L17.6714 94.2298
" />
<path d="M17.6714 94.2298
L17.7667 94.1822
" />
<path d="M17.7667 94.1822
L17.8143 94.1346
" />
<path d="M17.8143 94.1346
L17.8619 94.0393
" />
<path d="M17.8619 94.0393
L17.8619 93.9441
" />
<path d="M17.8619 93.9441
L17.8143 93.8489
" />
<path d="M17.8143 93.8489
L17.7667 93.8012
" />
<path d="M17.7667 93.8012
L17.6714 93.7536
" />
<path d="M17.6714 93.7536
L17.4810 93.7060
" />
<path d="M17.4810 93.7060
L17.3857 93.6584
" />
<path d="M17.3857 93.6584
L17.3381 93.6108
" />
<path d="M17.3381 93.6108
L17.2905 93.5155
" />
<path d="M17.2905 93.5155
L17.2905 93.4203
" />
<path d="M17.2905 93.4203
L17.3381 93.3251
" />
<path d="M17.3381 93.3251
L17.3857 93.2774
" />
<path d="M17.3857 93.2774
L17.4810 93.2298
" />
<path d="M17.4810 93.2298
L17.7190 93.2298
" />
<path d="M17.7190 93.2298
L17.8619 93.2774
" />
<path d="M18.1952 93.2298
L18.4333 94.2298
" />
<path d="M18.4333 94.2298
L18.6238 93.5155
" />
<path d="M18.6238 93.5155
L18.8143 94.2298
" />
<path d="M18.8143 94.2298
L19.0524 93.2298
" />
<path d="M19.9571 94.2298
L19.3857 94.2298
" />
<path d="M19.6714 94.2298
L19.6714 93.2298
" />
<path d="M19.6714 93.2298
L19.5762 93.3727
" />
<path d="M19.5762 93.3727
L19.4810 93.4679
" />
<path d="M19.4810 93.4679
L19.3857 93.5155
" />
<path d="M20.2905 93.2298
L20.9095 93.2298
" />
<path d="M20.9095 93.2298
L20.5762 93.6108
" />
<path d="M20.5762 93.6108
L20.7190 93.6108
" />
<path d="M20.7190 93.6108
L20.8143 93.6584
" />
<path d="M20.8143 93.6584
L20.8619 93.7060
" />
<path d="M20.8619 93.7060
L20.9095 93.8012
" />
<path d="M20.9095 93.8012
L20.9095 94.0393
" />
<path d="M20.9095 94.0393
L20.8619 94.1346
" />
<path d="M20.8619 94.1346
L20.8143 94.1822
" />
<path d="M20.8143 94.1822
L20.7190 94.2298
" />
<path d="M20.7190 94.2298
L20.4333 94.2298
" />
<path d="M20.4333 94.2298
L20.3381 94.1822
" />
<path d="M20.3381 94.1822
L20.2905 94.1346
" />
</g><text x="28.6250" y="75.2250"
textLength="4.2500" font-size="1.3333" lengthAdjust="spacingAndGlyphs"
text-anchor="middle" opacity="0" stroke-opacity="0">SW10</text>
<g class="stroked-text"><desc>SW10</desc>
<path d="M26.8155 75.1322
L26.9583 75.1798
" />
<path d="M26.9583 75.1798
L27.1964 75.1798
" />
<path d="M27.1964 75.1798
L27.2917 75.1322
" />
<path d="M27.2917 75.1322
L27.3393 75.0846
" />
<path d="M27.3393 75.0846
L27.3869 74.9893
" />
<path d="M27.3869 74.9893
L27.3869 74.8941
" />
<path d="M27.3869 74.8941
L27.3393 74.7989
" />
<path d="M27.3393 74.7989
L27.2917 74.7512
" />
<path d="M27.2917 74.7512
L27.1964 74.7036
" />
<path d="M27.1964 74.7036
L27.0060 74.6560
" />
<path d="M27.0060 74.6560
L26.9107 74.6084
" />
<path d="M26.9107 74.6084
L26.8631 74.5608
" />
<path d="M26.8631 74.5608
L26.8155 74.4655
" />
<path d="M26.8155 74.4655
L26.8155 74.3703
" />
<path d="M26.8155 74.3703
L26.8631 74.2751
" />
<path d="M26.8631 74.2751
L26.9107 74.2274
" />
<path d="M26.9107 74.2274
L27.0060 74.1798
" />
<path d="M27.0060 74.1798
L27.2440 74.1798
" />
<path d="M27.2440 74.1798
L27.3869 74.2274
" />
<path d="M27.7202 74.1798
L27.9583 75.1798
" />
<path d="M27.9583 75.1798
L28.1488 74.4655
" />
<path d="M28.1488 74.4655
L28.3393 75.1798
" />
<path d="M28.3393 75.1798
L28.5774 74.1798
" />
<path d="M29.4821 75.1798
L28.9107 75.1798
" />
<path d="M29.1964 75.1798
L29.1964 74.1798
" />
<path d="M29.1964 74.1798
L29.1012 74.3227
" />
<path d="M29.1012 74.3227
L29.0060 74.4179
" />
<path d="M29.0060 74.4179
L28.9107 74.4655
" />
<path d="M30.1012 74.1798
L30.1964 74.1798
" />
<path d="M30.1964 74.1798
L30.2917 74.2274
" />
<path d="M30.2917 74.2274
L30.3393 74.2751
" />
<path d="M30.3393 74.2751
L30.3869 74.3703
" />
<path d="M30.3869 74.3703
L30.4345 74.5608
" />
<path d="M30.4345 74.5608
L30.4345 74.7989
" />
<path d="M30.4345 74.7989
L30.3869 74.9893
" />
<path d="M30.3869 74.9893
L30.3393 75.0846
" />
<path d="M30.3393 75.0846
L30.2917 75.1322
" />
<path d="M30.2917 75.1322
L30.1964 75.1798
" />
<path d="M30.1964 75.1798
L30.1012 75.1798
" />
<path d="M30.1012 75.1798
L30.0060 75.1322
" />
<path d="M30.0060 75.1322
L29.9583 75.0846
" />
<path d="M29.9583 75.0846
L29.9107 74.9893
" />
<path d="M29.9107 74.9893
L29.8631 74.7989
" />
<path d="M29.8631 74.7989
L29.8631 74.5608
" />
<path d="M29.8631 74.5608
L29.9107 74.3703
" />
<path d="M29.9107 74.3703
L29.9583 74.2751
" />
<path d="M29.9583 74.2751
L30.0060 74.2274
" />
<path d="M30.0060 74.2274
L30.1012 74.1798
" />
</g><text x="9.5750" y="75.2250"
textLength="3.2976" font-size="1.3333" lengthAdjust="spacingAndGlyphs"
text-anchor="middle" opacity="0" stroke-opacity="0">SW9</text>
<g class="stroked-text"><desc>SW9</desc>
<path d="M8.2417 75.1322
L8.3845 75.1798
" />
<path d="M8.3845 75.1798
L8.6226 75.1798
" />
<path d="M8.6226 75.1798
L8.7179 75.1322
" />
<path d="M8.7179 75.1322
L8.7655 75.0846
" />
<path d="M8.7655 75.0846
L8.8131 74.9893
" />
<path d="M8.8131 74.9893
L8.8131 74.8941
" />
<path d="M8.8131 74.8941
L8.7655 74.7989
" />
<path d="M8.7655 74.7989
L8.7179 74.7512
" />
<path d="M8.7179 74.7512
L8.6226 74.7036
" />
<path d="M8.6226 74.7036
L8.4321 74.6560
" />
<path d="M8.4321 74.6560
L8.3369 74.6084
" />
<path d="M8.3369 74.6084
L8.2893 74.5608
" />
<path d="M8.2893 74.5608
L8.2417 74.4655
" />
<path d="M8.2417 74.4655
L8.2417 74.3703
" />
<path d="M8.2417 74.3703
L8.2893 74.2751
" />
<path d="M8.2893 74.2751
L8.3369 74.2274
" />
<path d="M8.3369 74.2274
L8.4321 74.1798
" />
<path d="M8.4321 74.1798
L8.6702 74.1798
" />
<path d="M8.6702 74.1798
L8.8131 74.2274
" />
<path d="M9.1464 74.1798
L9.3845 75.1798
" />
<path d="M9.3845 75.1798
L9.5750 74.4655
" />
<path d="M9.5750 74.4655
L9.7655 75.1798
" />
<path d="M9.7655 75.1798
L10.0036 74.1798
" />
<path d="M10.4321 75.1798
L10.6226 75.1798
" />
<path d="M10.6226 75.1798
L10.7179 75.1322
" />
<path d="M10.7179 75.1322
L10.7655 75.0846
" />
<path d="M10.7655 75.0846
L10.8607 74.9417
" />
<path d="M10.8607 74.9417
L10.9083 74.7512
" />
<path d="M10.9083 74.7512
L10.9083 74.3703
" />
<path d="M10.9083 74.3703
L10.8607 74.2751
" />
<path d="M10.8607 74.2751
L10.8131 74.2274
" />
<path d="M10.8131 74.2274
L10.7179 74.1798
" />
<path d="M10.7179 74.1798
L10.5274 74.1798
" />
<path d="M10.5274 74.1798
L10.4321 74.2274
" />
<path d="M10.4321 74.2274
L10.3845 74.2751
" />
<path d="M10.3845 74.2751
L10.3369 74.3703
" />
<path d="M10.3369 74.3703
L10.3369 74.6084
" />
<path d="M10.3369 74.6084
L10.3845 74.7036
" />
<path d="M10.3845 74.7036
L10.4321 74.7512
" />
<path d="M10.4321 74.7512
L10.5274 74.7989
" />
<path d="M10.5274 74.7989
L10.7179 74.7989
" />
<path d="M10.7179 74.7989
L10.8131 74.7512
" />
<path d="M10.8131 74.7512
L10.8607 74.7036
" />
<path d="M10.8607 74.7036
L10.9083 74.6084
" />
</g><text x="66.7250" y="40.6500"
textLength="2.9167" font-size="1.3333" lengthAdjust="spacingAndGlyphs"
text-anchor="middle" opacity="0" stroke-opacity="0">ST5</text>
<g class="stroked-text"><desc>ST5</desc>
<path d="M65.5821 40.5572
L65.7250 40.6048
" />
<path d="M65.7250 40.6048
L65.9631 40.6048
" />
<path d="M65.9631 40.6048
L66.0583 40.5572
" />
<path d="M66.0583 40.5572
L66.1060 40.5096
" />
<path d="M66.1060 40.5096
L66.1536 40.4143
" />
<path d="M66.1536 40.4143
L66.1536 40.3191
" />
<path d="M66.1536 40.3191
L66.1060 40.2239
" />
<path d="M66.1060 40.2239
L66.0583 40.1762
" />
<path d="M66.0583 40.1762
L65.9631 40.1286
" />
<path d="M65.9631 40.1286
L65.7726 40.0810
" />
<path d="M65.7726 40.0810
L65.6774 40.0334
" />
<path d="M65.6774 40.0334
L65.6298 39.9858
" />
<path d="M65.6298 39.9858
L65.5821 39.8905
" />
<path d="M65.5821 39.8905
L65.5821 39.7953
" />
<path d="M65.5821 39.7953
L65.6298 39.7001
" />
<path d="M65.6298 39.7001
L65.6774 39.6524
" />
<path d="M65.6774 39.6524
L65.7726 39.6048
" />
<path d="M65.7726 39.6048
L66.0107 39.6048
" />
<path d="M66.0107 39.6048
L66.1536 39.6524
" />
<path d="M66.4393 39.6048
L67.0107 39.6048
" />
<path d="M66.7250 40.6048
L66.7250 39.6048
" />
<path d="M67.8202 39.6048
L67.3440 39.6048
" />
<path d="M67.3440 39.6048
L67.2964 40.0810
" />
<path d="M67.2964 40.0810
L67.3440 40.0334
" />
<path d="M67.3440 40.0334
L67.4393 39.9858
" />
<path d="M67.4393 39.9858
L67.6774 39.9858
" />
<path d="M67.6774 39.9858
L67.7726 40.0334
" />
<path d="M67.7726 40.0334
L67.8202 40.0810
" />
<path d="M67.8202 40.0810
L67.8679 40.1762
" />
<path d="M67.8679 40.1762
L67.8679 40.4143
" />
<path d="M67.8679 40.4143
L67.8202 40.5096
" />
<path d="M67.8202 40.5096
L67.7726 40.5572
" />
<path d="M67.7726 40.5572
L67.6774 40.6048
" />
<path d="M67.6774 40.6048
L67.4393 40.6048
" />
<path d="M67.4393 40.6048
L67.3440 40.5572
" />
<path d="M67.3440 40.5572
L67.2964 40.5096
" />
</g><text x="47.6750" y="94.2750"
textLength="4.2500" font-size="1.3333" lengthAdjust="spacingAndGlyphs"
text-anchor="middle" opacity="0" stroke-opacity="0">SW14</text>
<g class="stroked-text"><desc>SW14</desc>
<path d="M45.8655 94.1822
L46.0083 94.2298
" />
<path d="M46.0083 94.2298
L46.2464 94.2298
" />
<path d="M46.2464 94.2298
L46.3417 94.1822
" />
<path d="M46.3417 94.1822
L46.3893 94.1346
" />
<path d="M46.3893 94.1346
L46.4369 94.0393
" />
<path d="M46.4369 94.0393
L46.4369 93.9441
" />
<path d="M46.4369 93.9441
L46.3893 93.8489
" />
<path d="M46.3893 93.8489
L46.3417 93.8012
" />
<path d="M46.3417 93.8012
L46.2464 93.7536
" />
<path d="M46.2464 93.7536
L46.0560 93.7060
" />
<path d="M46.0560 93.7060
L45.9607 93.6584
" />
<path d="M45.9607 93.6584
L45.9131 93.6108
" />
<path d="M45.9131 93.6108
L45.8655 93.5155
" />
<path d="M45.8655 93.5155
L45.8655 93.4203
" />
<path d="M45.8655 93.4203
L45.9131 93.3251
" />
<path d="M45.9131 93.3251
L45.9607 93.2774
" />
<path d="M45.9607 93.2774
L46.0560 93.2298
" />
<path d="M46.0560 93.2298
L46.2940 93.2298
" />
<path d="M46.2940 93.2298
L46.4369 93.2774
" />
<path d="M46.7702 93.2298
L47.0083 94.2298
" />
<path d="M47.0083 94.2298
L47.1988 93.5155
" />
<path d="M47.1988 93.5155
L47.3893 94.2298
" />
<path d="M47.3893 94.2298
L47.6274 93.2298
" />
<path d="M48.5321 94.2298
L47.9607 94.2298
" />
<path d="M48.2464 94.2298
L48.2464 93.2298
" />
<path d="M48.2464 93.2298
L48.1512 93.3727
" />
<path d="M48.1512 93.3727
L48.0560 93.4679
" />
<path d="M48.0560 93.4679
L47.9607 93.5155
" />
<path d="M49.3893 93.5632
L49.3893 94.2298
" />
<path d="M49.1512 93.1822
L48.9131 93.8965
" />
<path d="M48.9131 93.8965
L49.5321 93.8965
" />
</g><text x="9.5750" y="37.1250"
textLength="3.2976" font-size="1.3333" lengthAdjust="spacingAndGlyphs"
text-anchor="middle" opacity="0" stroke-opacity="0">SW2</text>
<g class="stroked-text"><desc>SW2</desc>
<path d="M8.2417 37.0322
L8.3845 37.0798
" />
<path d="M8.3845 37.0798
L8.6226 37.0798
" />
<path d="M8.6226 37.0798
L8.7179 37.0322
" />
<path d="M8.7179 37.0322
L8.7655 36.9846
" />
<path d="M8.7655 36.9846
L8.8131 36.8893
" />
<path d="M8.8131 36.8893
L8.8131 36.7941
" />
<path d="M8.8131 36.7941
L8.7655 36.6989
" />
<path d="M8.7655 36.6989
L8.7179 36.6512
" />
<path d="M8.7179 36.6512
L8.6226 36.6036
" />
<path d="M8.6226 36.6036
L8.4321 36.5560
" />
<path d="M8.4321 36.5560
L8.3369 36.5084
" />
<path d="M8.3369 36.5084
L8.2893 36.4608
" />
<path d="M8.2893 36.4608
L8.2417 36.3655
" />
<path d="M8.2417 36.3655
L8.2417 36.2703
" />
<path d="M8.2417 36.2703
L8.2893 36.1751
" />
<path d="M8.2893 36.1751
L8.3369 36.1274
" />
<path d="M8.3369 36.1274
L8.4321 36.0798
" />
<path d="M8.4321 36.0798
L8.6702 36.0798
" />
<path d="M8.6702 36.0798
L8.8131 36.1274
" />
<path d="M9.1464 36.0798
L9.3845 37.0798
" />
<path d="M9.3845 37.0798
L9.5750 36.3655
" />
<path d="M9.5750 36.3655
L9.7655 37.0798
" />
<path d="M9.7655 37.0798
L10.0036 36.0798
" />
<path d="M10.3369 36.1751
L10.3845 36.1274
" />
<path d="M10.3845 36.1274
L10.4798 36.0798
" />
<path d="M10.4798 36.0798
L10.7179 36.0798
" />
<path d="M10.7179 36.0798
L10.8131 36.1274
" />
<path d="M10.8131 36.1274
L10.8607 36.1751
" />
<path d="M10.8607 36.1751
L10.9083 36.2703
" />
<path d="M10.9083 36.2703
L10.9083 36.3655
" />
<path d="M10.9083 36.3655
L10.8607 36.5084
" />
<path d="M10.8607 36.5084
L10.2893 37.0798
" />
<path d="M10.2893 37.0798
L10.9083 37.0798
" />
</g><text x="28.6250" y="37.1250"
textLength="3.2976" font-size="1.3333" lengthAdjust="spacingAndGlyphs"
text-anchor="middle" opacity="0" stroke-opacity="0">SW3</text>
<g class="stroked-text"><desc>SW3</desc>
<path d="M27.2917 37.0322
L27.4345 37.0798
" />
<path d="M27.4345 37.0798
L27.6726 37.0798
" />
<path d="M27.6726 37.0798
L27.7679 37.0322
" />
<path d="M27.7679 37.0322
L27.8155 36.9846
" />
<path d="M27.8155 36.9846
L27.8631 36.8893
" />
<path d="M27.8631 36.8893
L27.8631 36.7941
" />
<path d="M27.8631 36.7941
L27.8155 36.6989
" />
<path d="M27.8155 36.6989
L27.7679 36.6512
" />
<path d="M27.7679 36.6512
L27.6726 36.6036
" />
<path d="M27.6726 36.6036
L27.4821 36.5560
" />
<path d="M27.4821 36.5560
L27.3869 36.5084
" />
<path d="M27.3869 36.5084
L27.3393 36.4608
" />
<path d="M27.3393 36.4608
L27.2917 36.3655
" />
<path d="M27.2917 36.3655
L27.2917 36.2703
" />
<path d="M27.2917 36.2703
L27.3393 36.1751
" />
<path d="M27.3393 36.1751
L27.3869 36.1274
" />
<path d="M27.3869 36.1274
L27.4821 36.0798
" />
<path d="M27.4821 36.0798
L27.7202 36.0798
" />
<path d="M27.7202 36.0798
L27.8631 36.1274
" />
<path d="M28.1964 36.0798
L28.4345 37.0798
" />
<path d="M28.4345 37.0798
L28.6250 36.3655
" />
<path d="M28.6250 36.3655
L28.8155 37.0798
" />
<path d="M28.8155 37.0798
L29.0536 36.0798
" />
<path d="M29.3393 36.0798
L29.9583 36.0798
" />
<path d="M29.9583 36.0798
L29.6250 36.4608
" />
<path d="M29.6250 36.4608
L29.7679 36.4608
" />
<path d="M29.7679 36.4608
L29.8631 36.5084
" />
<path d="M29.8631 36.5084
L29.9107 36.5560
" />
<path d="M29.9107 36.5560
L29.9583 36.6512
" />
<path d="M29.9583 36.6512
L29.9583 36.8893
" />
<path d="M29.9583 36.8893
L29.9107 36.9846
" />
<path d="M29.9107 36.9846
L29.8631 37.0322
" />
<path d="M29.8631 37.0322
L29.7679 37.0798
" />
<path d="M29.7679 37.0798
L29.4821 37.0798
" />
<path d="M29.4821 37.0798
L29.3869 37.0322
" />
<path d="M29.3869 37.0322
L29.3393 36.9846
" />
</g><text x="66.7250" y="46.6500"
textLength="3.2976" font-size="1.3333" lengthAdjust="spacingAndGlyphs"
text-anchor="middle" opacity="0" stroke-opacity="0">SW5</text>
<g class="stroked-text"><desc>SW5</desc>
<path d="M65.3917 46.5572
L65.5345 46.6048
" />
<path d="M65.5345 46.6048
L65.7726 46.6048
" />
<path d="M65.7726 46.6048
L65.8679 46.5572
" />
<path d="M65.8679 46.5572
L65.9155 46.5096
" />
<path d="M65.9155 46.5096
L65.9631 46.4143
" />
<path d="M65.9631 46.4143
L65.9631 46.3191
" />
<path d="M65.9631 46.3191
L65.9155 46.2239
" />
<path d="M65.9155 46.2239
L65.8679 46.1762
" />
<path d="M65.8679 46.1762
L65.7726 46.1286
" />
<path d="M65.7726 46.1286
L65.5821 46.0810
" />
<path d="M65.5821 46.0810
L65.4869 46.0334
" />
<path d="M65.4869 46.0334
L65.4393 45.9858
" />
<path d="M65.4393 45.9858
L65.3917 45.8905
" />
<path d="M65.3917 45.8905
L65.3917 45.7953
" />
<path d="M65.3917 45.7953
L65.4393 45.7001
" />
<path d="M65.4393 45.7001
L65.4869 45.6524
" />
<path d="M65.4869 45.6524
L65.5821 45.6048
" />
<path d="M65.5821 45.6048
L65.8202 45.6048
" />
<path d="M65.8202 45.6048
L65.9631 45.6524
" />
<path d="M66.2964 45.6048
L66.5345 46.6048
" />
<path d="M66.5345 46.6048
L66.7250 45.8905
" />
<path d="M66.7250 45.8905
L66.9155 46.6048
" />
<path d="M66.9155 46.6048
L67.1536 45.6048
" />
<path d="M68.0107 45.6048
L67.5345 45.6048
" />
<path d="M67.5345 45.6048
L67.4869 46.0810
" />
<path d="M67.4869 46.0810
L67.5345 46.0334
" />
<path d="M67.5345 46.0334
L67.6298 45.9858
" />
<path d="M67.6298 45.9858
L67.8679 45.9858
" />
<path d="M67.8679 45.9858
L67.9631 46.0334
" />
<path d="M67.9631 46.0334
L68.0107 46.0810
" />
<path d="M68.0107 46.0810
L68.0583 46.1762
" />
<path d="M68.0583 46.1762
L68.0583 46.4143
" />
<path d="M68.0583 46.4143
L68.0107 46.5096
" />
<path d="M68.0107 46.5096
L67.9631 46.5572
" />
<path d="M67.9631 46.5572
L67.8679 46.6048
" />
<path d="M67.8679 46.6048
L67.6298 46.6048
" />
<path d="M67.6298 46.6048
L67.5345 46.5572
" />
<path d="M67.5345 46.5572
L67.4869 46.5096
" />
</g></g>
<g style="fill:none; 
stroke:#F2EDA1; stroke-width:0.1200; stroke-opacity:1; 
stroke-linecap:round; stroke-linejoin:round;">
<path d="M40.5750 40.5750
L40.5750 54.7750
" />
<path d="M40.5750 54.7750
L54.7750 54.7750
" />
<path d="M54.7750 40.5750
L40.5750 40.5750
" />
<path d="M54.7750 54.7750
L54.7750 40.5750
" />
<path d="M21.5250 40.5750
L21.5250 54.7750
" />
<path d="M21.5250 54.7750
L35.7250 54.7750
" />
<path d="M35.7250 40.5750
L21.5250 40.5750
" />
<path d="M35.7250 54.7750
L35.7250 40.5750
" />
<path d="M59.6250 69.1500
L59.6250 83.3500
" />
<path d="M59.6250 83.3500
L73.8250 83.3500
" />
<path d="M73.8250 69.1500
L59.6250 69.1500
" />
<path d="M73.8250 83.3500
L73.8250 69.1500
" />
<path d="M40.5750 59.6250
L40.5750 73.8250
" />
<path d="M40.5750 73.8250
L54.7750 73.8250
" />
<path d="M54.7750 59.6250
L40.5750 59.6250
" />
<path d="M54.7750 73.8250
L54.7750 59.6250
" />
<path d="M59.6250 2.4750
L59.6250 16.6750
" />
<path d="M59.6250 16.6750
L73.8250 16.6750
" />
<path d="M73.8250 2.4750
L59.6250 2.4750
" />
<path d="M73.8250 16.6750
L73.8250 2.4750
" />
<path d="M40.5750 21.5250
L40.5750 35.7250
" />
<path d="M40.5750 35.7250
L54.7750 35.7250
" />
<path d="M54.7750 21.5250
L40.5750 21.5250
" />
<path d="M54.7750 35.7250
L54.7750 21.5250
" />
<path d="M2.4750 40.5750
L2.4750 54.7750
" />
<path d="M2.4750 54.7750
L16.6750 54.7750
" />
<path d="M16.6750 40.5750
L2.4750 40.5750
" />
<path d="M16.6750 54.7750
L16.6750 40.5750
" />
<path d="M12.0000 78.6750
L12.0000 92.8750
" />
<path d="M12.0000 92.8750
L26.2000 92.8750
" />
<path d="M26.2000 78.6750
L12.0000 78.6750
" />
<path d="M26.2000 92.8750
L26.2000 78.6750
" />
<path d="M21.5250 59.6250
L21.5250 73.8250
" />
<path d="M21.5250 73.8250
L35.7250 73.8250
" />
<path d="M35.7250 59.6250
L21.5250 59.6250
" />
<path d="M35.7250 73.8250
L35.7250 59.6250
" />
<path d="M2.4750 59.6250
L2.4750 73.8250
" />
<path d="M2.4750 73.8250
L16.6750 73.8250
" />
<path d="M16.6750 59.6250
L2.4750 59.6250
" />
<path d="M16.6750 73.8250
L16.6750 59.6250
" />
<path d="M40.5750 78.6750
L40.5750 92.8750
" />
<path d="M40.5750 92.8750
L54.7750 92.8750
" />
<path d="M54.7750 78.6750
L40.5750 78.6750
" />
<path d="M54.7750 92.8750
L54.7750 78.6750
" />
<path d="M2.4750 21.5250
L2.4750 35.7250
" />
<path d="M2.4750 35.7250
L16.6750 35.7250
" />
<path d="M16.6750 21.5250
L2.4750 21.5250
" />
<path d="M16.6750 35.7250
L16.6750 21.5250
" />
<path d="M21.5250 21.5250
L21.5250 35.7250
" />
<path d="M21.5250 35.7250
L35.7250 35.7250
" />
<path d="M35.7250 21.5250
L21.5250 21.5250
" />
<path d="M35.7250 35.7250
L35.7250 21.5250
" />
<path d="M59.6250 31.0500
L59.6250 45.2500
" />
<path d="M59.6250 45.2500
L73.8250 45.2500
" />
<path d="M73.8250 31.0500
L59.6250 31.0500
" />
<path d="M73.8250 45.2500
L73.8250 31.0500
" />
</g>
<g style="fill:#FFFFFF; fill-opacity:1.0000; stroke:none;">
<circle cx="31.0380" cy="92.7600" r="1.5240" /> 
</g>
<g style="fill:#FFFFFF; fill-opacity:1.0000; stroke:none;">
<circle cx="31.0380" cy="77.5500" r="1.9939" /> 
</g>
<g style="fill:#FFFFFF; fill-opacity:1.0000; stroke:none;">
<circle cx="7.1620" cy="92.7600" r="1.5240" /> 
</g>
<g style="fill:#FFFFFF; fill-opacity:1.0000; stroke:none;">
<circle cx="7.1620" cy="77.5500" r="1.9939" /> 
</g>
<g style="fill:#FFFFFF; fill-opacity:1.0000; stroke:none;">
<circle cx="52.7550" cy="47.6750" r="0.8750" /> 
</g>
<g style="fill:#FFFFFF; fill-opacity:1.0000; stroke:none;">
<circle cx="51.4850" cy="50.2150" r="1.5250" /> 
</g>
<g style="fill:#FFFFFF; fill-opacity:1.0000; stroke:none;">
<circle cx="47.6750" cy="47.6750" r="2.0000" /> 
</g>
<g style="fill:#FFFFFF; fill-opacity:1.0000; stroke:none;">
<circle cx="45.1350" cy="52.7550" r="1.5250" /> 
</g>
<g style="fill:#FFFFFF; fill-opacity:1.0000; stroke:none;">
<circle cx="42.5950" cy="47.6750" r="0.8750" /> 
</g>
<g style="fill:#FFFFFF; fill-opacity:1.0000; stroke:none;">
<circle cx="33.7050" cy="47.6750" r="0.8750" /> 
</g>
<g style="fill:#FFFFFF; fill-opacity:1.0000; stroke:none;">
<circle cx="32.4350" cy="50.2150" r="1.5250" /> 
</g>
<g style="fill:#FFFFFF; fill-opacity:1.0000; stroke:none;">
<circle cx="28.6250" cy="47.6750" r="2.0000" /> 
</g>
<g style="fill:#FFFFFF; fill-opacity:1.0000; stroke:none;">
<circle cx="26.0850" cy="52.7550" r="1.5250" /> 
</g>
<g style="fill:#FFFFFF; fill-opacity:1.0000; stroke:none;">
<circle cx="23.5450" cy="47.6750" r="0.8750" /> 
</g>
<g style="fill:#FFFFFF; fill-opacity:1.0000; stroke:none;">
<circle cx="71.8050" cy="76.2500" r="0.8750" /> 
</g>
<g style="fill:#FFFFFF; fill-opacity:1.0000; stroke:none;">
<circle cx="70.5350" cy="78.7900" r="1.5250" /> 
</g>
<g style="fill:#FFFFFF; fill-opacity:1.0000; stroke:none;">
<circle cx="66.7250" cy="76.2500" r="2.0000" /> 
</g>
<g style="fill:#FFFFFF; fill-opacity:1.0000; stroke:none;">
<circle cx="64.1850" cy="81.3300" r="1.5250" /> 
</g>
<g style="fill:#FFFFFF; fill-opacity:1.0000; stroke:none;">
<circle cx="61.6450" cy="76.2500" r="0.8750" /> 
</g>
<g style="fill:#FFFFFF; fill-opacity:1.0000; stroke:none;">
<circle cx="52.7550" cy="66.7250" r="0.8750" /> 
</g>
<g style="fill:#FFFFFF; fill-opacity:1.0000; stroke:none;">
<circle cx="51.4850" cy="69.2650" r="1.5250" /> 
</g>
<g style="fill:#FFFFFF; fill-opacity:1.0000; stroke:none;">
<circle cx="47.6750" cy="66.7250" r="2.0000" /> 
</g>
<g style="fill:#FFFFFF; fill-opacity:1.0000; stroke:none;">
<circle cx="45.1350" cy="71.8050" r="1.5250" /> 
</g>
<g style="fill:#FFFFFF; fill-opacity:1.0000; stroke:none;">
<circle cx="42.5950" cy="66.7250" r="0.8750" /> 
</g>
<g style="fill:#FFFFFF; fill-opacity:1.0000; stroke:none;">
<circle cx="78.6630" cy="83.2350" r="1.5240" /> 
</g>
<g style="fill:#FFFFFF; fill-opacity:1.0000; stroke:none;">
<circle cx="78.6630" cy="68.0250" r="1.9939" /> 
</g>
<g style="fill:#FFFFFF; fill-opacity:1.0000; stroke:none;">
<circle cx="54.7870" cy="83.2350" r="1.5240" /> 
</g>
<g style="fill:#FFFFFF; fill-opacity:1.0000; stroke:none;">
<circle cx="54.7870" cy="68.0250" r="1.9939" /> 
</g>
<g style="fill:#FFFFFF; fill-opacity:1.0000; stroke:none;">
<circle cx="71.8050" cy="9.5750" r="0.8750" /> 
</g>
<g style="fill:#FFFFFF; fill-opacity:1.0000; stroke:none;">
<circle cx="70.5350" cy="12.1150" r="1.5250" /> 
</g>
<g style="fill:#FFFFFF; fill-opacity:1.0000; stroke:none;">
<circle cx="66.7250" cy="9.5750" r="2.0000" /> 
</g>
<g style="fill:#FFFFFF; fill-opacity:1.0000; stroke:none;">
<circle cx="64.1850" cy="14.6550" r="1.5250" /> 
</g>
<g style="fill:#FFFFFF; fill-opacity:1.0000; stroke:none;">
<circle cx="61.6450" cy="9.5750" r="0.8750" /> 
</g>
<g style="fill:#FFFFFF; fill-opacity:1.0000; stroke:none;">
<circle cx="52.7550" cy="28.6250" r="0.8750" /> 
</g>
<g style="fill:#FFFFFF; fill-opacity:1.0000; stroke:none;">
<circle cx="51.4850" cy="31.1650" r="1.5250" /> 
</g>
<g style="fill:#FFFFFF; fill-opacity:1.0000; stroke:none;">
<circle cx="47.6750" cy="28.6250" r="2.0000" /> 
</g>
<g style="fill:#FFFFFF; fill-opacity:1.0000; stroke:none;">
<circle cx="45.1350" cy="33.7050" r="1.5250" /> 
</g>
<g style="fill:#FFFFFF; fill-opacity:1.0000; stroke:none;">
<circle cx="42.5950" cy="28.6250" r="0.8750" /> 
</g>
<g style="fill:#FFFFFF; fill-opacity:1.0000; stroke:none;">
<circle cx="14.6550" cy="47.6750" r="0.8750" /> 
</g>
<g style="fill:#FFFFFF; fill-opacity:1.0000; stroke:none;">
<circle cx="13.3850" cy="50.2150" r="1.5250" /> 
</g>
<g style="fill:#FFFFFF; fill-opacity:1.0000; stroke:none;">
<circle cx="9.5750" cy="47.6750" r="2.0000" /> 
</g>
<g style="fill:#FFFFFF; fill-opacity:1.0000; stroke:none;">
<circle cx="7.0350" cy="52.7550" r="1.5250" /> 
</g>
<g style="fill:#FFFFFF; fill-opacity:1.0000; stroke:none;">
<circle cx="4.4950" cy="47.6750" r="0.8750" /> 
</g>
<g style="fill:#FFFFFF; fill-opacity:1.0000; stroke:none;">
<circle cx="24.1800" cy="85.7750" r="0.8750" /> 
</g>
<g style="fill:#FFFFFF; fill-opacity:1.0000; stroke:none;">
<circle cx="22.9100" cy="88.3150" r="1.5250" /> 
</g>
<g style="fill:#FFFFFF; fill-opacity:1.0000; stroke:none;">
<circle cx="19.1000" cy="85.7750" r="2.0000" /> 
</g>
<g style="fill:#FFFFFF; fill-opacity:1.0000; stroke:none;">
<circle cx="16.5600" cy="90.8550" r="1.5250" /> 
</g>
<g style="fill:#FFFFFF; fill-opacity:1.0000; stroke:none;">
<circle cx="14.0200" cy="85.7750" r="0.8750" /> 
</g>
<g style="fill:#FFFFFF; fill-opacity:1.0000; stroke:none;">
<circle cx="33.7050" cy="66.7250" r="0.8750" /> 
</g>
<g style="fill:#FFFFFF; fill-opacity:1.0000; stroke:none;">
<circle cx="32.4350" cy="69.2650" r="1.5250" /> 
</g>
<g style="fill:#FFFFFF; fill-opacity:1.0000; stroke:none;">
<circle cx="28.6250" cy="66.7250" r="2.0000" /> 
</g>
<g style="fill:#FFFFFF; fill-opacity:1.0000; stroke:none;">
<circle cx="26.0850" cy="71.8050" r="1.5250" /> 
</g>
<g style="fill:#FFFFFF; fill-opacity:1.0000; stroke:none;">
<circle cx="23.5450" cy="66.7250" r="0.8750" /> 
</g>
<g style="fill:#FFFFFF; fill-opacity:1.0000; stroke:none;">
<circle cx="14.6550" cy="66.7250" r="0.8750" /> 
</g>
<g style="fill:#FFFFFF; fill-opacity:1.0000; stroke:none;">
<circle cx="13.3850" cy="69.2650" r="1.5250" /> 
</g>
<g style="fill:#FFFFFF; fill-opacity:1.0000; stroke:none;">
<circle cx="9.5750" cy="66.7250" r="2.0000" /> 
</g>
<g style="fill:#FFFFFF; fill-opacity:1.0000; stroke:none;">
<circle cx="7.0350" cy="71.8050" r="1.5250" /> 
</g>
<g style="fill:#FFFFFF; fill-opacity:1.0000; stroke:none;">
<circle cx="4.4950" cy="66.7250" r="0.8750" /> 
</g>
<g style="fill:#FFFFFF; fill-opacity:1.0000; stroke:none;">
<circle cx="78.6630" cy="45.1350" r="1.5240" /> 
</g>
<g style="fill:#FFFFFF; fill-opacity:1.0000; stroke:none;">
<circle cx="78.6630" cy="29.9250" r="1.9939" /> 
</g>
<g style="fill:#FFFFFF; fill-opacity:1.0000; stroke:none;">
<circle cx="54.7870" cy="45.1350" r="1.5240" /> 
</g>
<g style="fill:#FFFFFF; fill-opacity:1.0000; stroke:none;">
<circle cx="54.7870" cy="29.9250" r="1.9939" /> 
</g>
<g style="fill:#FFFFFF; fill-opacity:1.0000; stroke:none;">
<circle cx="52.7550" cy="85.7750" r="0.8750" /> 
</g>
<g style="fill:#FFFFFF; fill-opacity:1.0000; stroke:none;">
<circle cx="51.4850" cy="88.3150" r="1.5250" /> 
</g>
<g style="fill:#FFFFFF; fill-opacity:1.0000; stroke:none;">
<circle cx="47.6750" cy="85.7750" r="2.0000" /> 
</g>
<g style="fill:#FFFFFF; fill-opacity:1.0000; stroke:none;">
<circle cx="45.1350" cy="90.8550" r="1.5250" /> 
</g>
<g style="fill:#FFFFFF; fill-opacity:1.0000; stroke:none;">
<circle cx="42.5950" cy="85.7750" r="0.8750" /> 
</g>
<g style="fill:#FFFFFF; fill-opacity:1.0000; stroke:none;">
<circle cx="14.6550" cy="28.6250" r="0.8750" /> 
</g>
<g style="fill:#FFFFFF; fill-opacity:1.0000; stroke:none;">
<circle cx="13.3850" cy="31.1650" r="1.5250" /> 
</g>
<g style="fill:#FFFFFF; fill-opacity:1.0000; stroke:none;">
<circle cx="9.5750" cy="28.6250" r="2.0000" /> 
</g>
<g style="fill:#FFFFFF; fill-opacity:1.0000; stroke:none;">
<circle cx="7.0350" cy="33.7050" r="1.5250" /> 
</g>
<g style="fill:#FFFFFF; fill-opacity:1.0000; stroke:none;">
<circle cx="4.4950" cy="28.6250" r="0.8750" /> 
</g>
<g style="fill:#FFFFFF; fill-opacity:1.0000; stroke:none;">
<circle cx="33.7050" cy="28.6250" r="0.8750" /> 
</g>
<g style="fill:#FFFFFF; fill-opacity:1.0000; stroke:none;">
<circle cx="32.4350" cy="31.1650" r="1.5250" /> 
</g>
<g style="fill:#FFFFFF; fill-opacity:1.0000; stroke:none;">
<circle cx="28.6250" cy="28.6250" r="2.0000" /> 
</g>
<g style="fill:#FFFFFF; fill-opacity:1.0000; stroke:none;">
<circle cx="26.0850" cy="33.7050" r="1.5250" /> 
</g>
<g style="fill:#FFFFFF; fill-opacity:1.0000; stroke:none;">
<circle cx="23.5450" cy="28.6250" r="0.8750" /> 
</g>
<g style="fill:#FFFFFF; fill-opacity:1.0000; stroke:none;">
<circle cx="71.8050" cy="38.1500" r="0.8750" /> 
</g>
<g style="fill:#FFFFFF; fill-opacity:1.0000; stroke:none;">
<circle cx="70.5350" cy="40.6900" r="1.5250" /> 
</g>
<g style="fill:#FFFFFF; fill-opacity:1.0000; stroke:none;">
<circle cx="66.7250" cy="38.1500" r="2.0000" /> 
</g>
<g style="fill:#FFFFFF; fill-opacity:1.0000; stroke:none;">
<circle cx="64.1850" cy="43.2300" r="1.5250" /> 
</g>
<g style="fill:#FFFFFF; fill-opacity:1.0000; stroke:none;">
<circle cx="61.6450" cy="38.1500" r="0.8750" /> 
</g> 
</svg>
