0
SECTION
2
HEADER
9
$INSUNITS
70
4
0
ENDSEC
0
SECTION
2
TABLES
0
TABLE
2
LTYPE
0
LTYPE
72
65
70
0
2
CONTINUOUS
3
______
73
0
40
0
0
LTYPE
72
65
70
0
2
DASHED
3
_ _ _ 
73
2
40
7.5
49
5
49
-2.5
0
LTYPE
72
65
70
0
2
DOTTED
3
. . . 
73
2
40
1.5
49
0.5
49
-1
0
ENDTAB
0
TABLE
2
LAYER
0
ENDTAB
0
ENDSEC
0
SECTION
2
ENTITIES
0
POLYLINE
8
0
6
CONTINUOUS
66
1
70
1
0
VERTEX
8
0
10
50.15
20
-7
0
VERTEX
8
0
10
64.15
20
-7
0
VERTEX
8
0
10
64.15
20
7
0
VERTEX
8
0
10
50.15
20
7
0
SEQEND
0
POLYLINE
8
0
6
CONTINUOUS
66
1
70
1
0
VERTEX
8
0
10
50.15
20
-45.1
0
VERTEX
8
0
10
64.15
20
-45.1
0
VERTEX
8
0
10
64.15
20
-31.1
0
VERTEX
8
0
10
50.15
20
-31.1
0
SEQEND
0
POLYLINE
8
0
6
CONTINUOUS
66
1
70
1
0
VERTEX
8
0
10
21.575
20
-26.05
0
VERTEX
8
0
10
35.575
20
-26.05
0
VERTEX
8
0
10
35.575
20
-12.05
0
VERTEX
8
0
10
21.575
20
-12.05
0
SEQEND
0
POLYLINE
8
0
6
CONTINUOUS
66
1
70
1
0
VERTEX
8
0
10
-7
20
-7
0
VERTEX
8
0
10
7
20
-7
0
VERTEX
8
0
10
7
20
7
0
VERTEX
8
0
10
-7
20
7
0
SEQEND
0
POLYLINE
8
0
6
CONTINUOUS
66
1
70
1
0
VERTEX
8
0
10
12.05
20
-7
0
VERTEX
8
0
10
26.05
20
-7
0
VERTEX
8
0
10
26.05
20
7
0
VERTEX
8
0
10
12.05
20
7
0
SEQEND
0
POLYLINE
8
0
6
CONTINUOUS
66
1
70
1
0
VERTEX
8
0
10
31.1
20
-7
0
VERTEX
8
0
10
45.1
20
-7
0
VERTEX
8
0
10
45.1
20
7
0
VERTEX
8
0
10
31.1
20
7
0
SEQEND
0
POLYLINE
8
0
6
CONTINUOUS
66
1
70
1
0
VERTEX
8
0
10
69.2
20
-7
0
VERTEX
8
0
10
83.2
20
-7
0
VERTEX
8
0
10
83.2
20
7
0
VERTEX
8
0
10
69.2
20
7
0
SEQEND
0
POLYLINE
8
0
6
CONTINUOUS
66
1
70
1
0
VERTEX
8
0
10
88.25
20
-7
0
VERTEX
8
0
10
102.25
20
-7
0
VERTEX
8
0
10
102.25
20
7
0
VERTEX
8
0
10
88.25
20
7
0
SEQEND
0
POLYLINE
8
0
6
CONTINUOUS
66
1
70
1
0
VERTEX
8
0
10
107.3
20
-7
0
VERTEX
8
0
10
121.3
20
-7
0
VERTEX
8
0
10
121.3
20
7
0
VERTEX
8
0
10
107.3
20
7
0
SEQEND
0
POLYLINE
8
0
6
CONTINUOUS
66
1
70
1
0
VERTEX
8
0
10
126.35
20
-7
0
VERTEX
8
0
10
140.35
20
-7
0
VERTEX
8
0
10
140.35
20
7
0
VERTEX
8
0
10
126.35
20
7
0
SEQEND
0
POLYLINE
8
0
6
CONTINUOUS
66
1
70
1
0
VERTEX
8
0
10
145.4
20
-7
0
VERTEX
8
0
10
159.4
20
-7
0
VERTEX
8
0
10
159.4
20
7
0
VERTEX
8
0
10
145.4
20
7
0
SEQEND
0
POLYLINE
8
0
6
CONTINUOUS
66
1
70
1
0
VERTEX
8
0
10
164.45
20
-7
0
VERTEX
8
0
10
178.45
20
-7
0
VERTEX
8
0
10
178.45
20
7
0
VERTEX
8
0
10
164.45
20
7
0
SEQEND
0
POLYLINE
8
0
6
CONTINUOUS
66
1
70
1
0
VERTEX
8
0
10
183.5
20
-7
0
VERTEX
8
0
10
197.5
20
-7
0
VERTEX
8
0
10
197.5
20
7
0
VERTEX
8
0
10
183.5
20
7
0
SEQEND
0
POLYLINE
8
0
6
CONTINUOUS
66
1
70
1
0
VERTEX
8
0
10
202.55
20
-7
0
VERTEX
8
0
10
216.55
20
-7
0
VERTEX
8
0
10
216.55
20
7
0
VERTEX
8
0
10
202.55
20
7
0
SEQEND
0
POLYLINE
8
0
6
CONTINUOUS
66
1
70
1
0
VERTEX
8
0
10
221.6
20
-7
0
VERTEX
8
0
10
235.6
20
-7
0
VERTEX
8
0
10
235.6
20
7
0
VERTEX
8
0
10
221.6
20
7
0
SEQEND
0
POLYLINE
8
0
6
CONTINUOUS
66
1
70
1
0
VERTEX
8
0
10
240.65
20
-7
0
VERTEX
8
0
10
254.65
20
-7
0
VERTEX
8
0
10
254.65
20
7
0
VERTEX
8
0
10
240.65
20
7
0
SEQEND
0
POLYLINE
8
0
6
CONTINUOUS
66
1
70
1
0
VERTEX
8
0
10
-2.2375
20
-26.05
0
VERTEX
8
0
10
11.7625
20
-26.05
0
VERTEX
8
0
10
11.7625
20
-12.05
0
VERTEX
8
0
10
-2.2375
20
-12.05
0
SEQEND
0
POLYLINE
8
0
6
CONTINUOUS
66
1
70
1
0
VERTEX
8
0
10
40.625
20
-26.05
0
VERTEX
8
0
10
54.625
20
-26.05
0
VERTEX
8
0
10
54.625
20
-12.05
0
VERTEX
8
0
10
40.625
20
-12.05
0
SEQEND
0
POLYLINE
8
0
6
CONTINUOUS
66
1
70
1
0
VERTEX
8
0
10
59.675
20
-26.05
0
VERTEX
8
0
10
73.675
20
-26.05
0
VERTEX
8
0
10
73.675
20
-12.05
0
VERTEX
8
0
10
59.675
20
-12.05
0
SEQEND
0
POLYLINE
8
0
6
CONTINUOUS
66
1
70
1
0
VERTEX
8
0
10
78.725
20
-26.05
0
VERTEX
8
0
10
92.725
20
-26.05
0
VERTEX
8
0
10
92.725
20
-12.05
0
VERTEX
8
0
10
78.725
20
-12.05
0
SEQEND
0
POLYLINE
8
0
6
CONTINUOUS
66
1
70
1
0
VERTEX
8
0
10
97.775
20
-26.05
0
VERTEX
8
0
10
111.775
20
-26.05
0
VERTEX
8
0
10
111.775
20
-12.05
0
VERTEX
8
0
10
97.775
20
-12.05
0
SEQEND
0
POLYLINE
8
0
6
CONTINUOUS
66
1
70
1
0
VERTEX
8
0
10
135.875
20
-26.05
0
VERTEX
8
0
10
149.875
20
-26.05
0
VERTEX
8
0
10
149.875
20
-12.05
0
VERTEX
8
0
10
135.875
20
-12.05
0
SEQEND
0
POLYLINE
8
0
6
CONTINUOUS
66
1
70
1
0
VERTEX
8
0
10
154.925
20
-26.05
0
VERTEX
8
0
10
168.925
20
-26.05
0
VERTEX
8
0
10
168.925
20
-12.05
0
VERTEX
8
0
10
154.925
20
-12.05
0
SEQEND
0
POLYLINE
8
0
6
CONTINUOUS
66
1
70
1
0
VERTEX
8
0
10
173.975
20
-26.05
0
VERTEX
8
0
10
187.975
20
-26.05
0
VERTEX
8
0
10
187.975
20
-12.05
0
VERTEX
8
0
10
173.975
20
-12.05
0
SEQEND
0
POLYLINE
8
0
6
CONTINUOUS
66
1
70
1
0
VERTEX
8
0
10
193.025
20
-26.05
0
VERTEX
8
0
10
207.025
20
-26.05
0
VERTEX
8
0
10
207.025
20
-12.05
0
VERTEX
8
0
10
193.025
20
-12.05
0
SEQEND
0
POLYLINE
8
0
6
CONTINUOUS
66
1
70
1
0
VERTEX
8
0
10
212.075
20
-26.05
0
VERTEX
8
0
10
226.075
20
-26.05
0
VERTEX
8
0
10
226.075
20
-12.05
0
VERTEX
8
0
10
212.075
20
-12.05
0
SEQEND
0
POLYLINE
8
0
6
CONTINUOUS
66
1
70
1
0
VERTEX
8
0
10
235.8875
20
-26.05
0
VERTEX
8
0
10
249.8875
20
-26.05
0
VERTEX
8
0
10
249.8875
20
-12.05
0
VERTEX
8
0
10
235.8875
20
-12.05
0
SEQEND
0
POLYLINE
8
0
6
CONTINUOUS
66
1
70
1
0
VERTEX
8
0
10
2.525
20
-45.1
0
VERTEX
8
0
10
16.525
20
-45.1
0
VERTEX
8
0
10
16.525
20
-31.1
0
VERTEX
8
0
10
2.525
20
-31.1
0
SEQEND
0
POLYLINE
8
0
6
CONTINUOUS
66
1
70
1
0
VERTEX
8
0
10
31.1
20
-45.1
0
VERTEX
8
0
10
45.1
20
-45.1
0
VERTEX
8
0
10
45.1
20
-31.1
0
VERTEX
8
0
10
31.1
20
-31.1
0
SEQEND
0
POLYLINE
8
0
6
CONTINUOUS
66
1
70
1
0
VERTEX
8
0
10
69.2
20
-45.1
0
VERTEX
8
0
10
83.2
20
-45.1
0
VERTEX
8
0
10
83.2
20
-31.1
0
VERTEX
8
0
10
69.2
20
-31.1
0
SEQEND
0
POLYLINE
8
0
6
CONTINUOUS
66
1
70
1
0
VERTEX
8
0
10
88.25
20
-45.1
0
VERTEX
8
0
10
102.25
20
-45.1
0
VERTEX
8
0
10
102.25
20
-31.1
0
VERTEX
8
0
10
88.25
20
-31.1
0
SEQEND
0
POLYLINE
8
0
6
CONTINUOUS
66
1
70
1
0
VERTEX
8
0
10
107.3
20
-45.1
0
VERTEX
8
0
10
121.3
20
-45.1
0
VERTEX
8
0
10
121.3
20
-31.1
0
VERTEX
8
0
10
107.3
20
-31.1
0
SEQEND
0
POLYLINE
8
0
6
CONTINUOUS
66
1
70
1
0
VERTEX
8
0
10
126.35
20
-45.1
0
VERTEX
8
0
10
140.35
20
-45.1
0
VERTEX
8
0
10
140.35
20
-31.1
0
VERTEX
8
0
10
126.35
20
-31.1
0
SEQEND
0
POLYLINE
8
0
6
CONTINUOUS
66
1
70
1
0
VERTEX
8
0
10
145.4
20
-45.1
0
VERTEX
8
0
10
159.4
20
-45.1
0
VERTEX
8
0
10
159.4
20
-31.1
0
VERTEX
8
0
10
145.4
20
-31.1
0
SEQEND
0
POLYLINE
8
0
6
CONTINUOUS
66
1
70
1
0
VERTEX
8
0
10
164.45
20
-45.1
0
VERTEX
8
0
10
178.45
20
-45.1
0
VERTEX
8
0
10
178.45
20
-31.1
0
VERTEX
8
0
10
164.45
20
-31.1
0
SEQEND
0
POLYLINE
8
0
6
CONTINUOUS
66
1
70
1
0
VERTEX
8
0
10
183.5
20
-45.1
0
VERTEX
8
0
10
197.5
20
-45.1
0
VERTEX
8
0
10
197.5
20
-31.1
0
VERTEX
8
0
10
183.5
20
-31.1
0
SEQEND
0
POLYLINE
8
0
6
CONTINUOUS
66
1
70
1
0
VERTEX
8
0
10
202.55
20
-45.1
0
VERTEX
8
0
10
216.55
20
-45.1
0
VERTEX
8
0
10
216.55
20
-31.1
0
VERTEX
8
0
10
202.55
20
-31.1
0
SEQEND
0
POLYLINE
8
0
6
CONTINUOUS
66
1
70
1
0
VERTEX
8
0
10
231.125
20
-45.1
0
VERTEX
8
0
10
245.125
20
-45.1
0
VERTEX
8
0
10
245.125
20
-31.1
0
VERTEX
8
0
10
231.125
20
-31.1
0
SEQEND
0
POLYLINE
8
0
6
CONTINUOUS
66
1
70
1
0
VERTEX
8
0
10
-7
20
-64.15
0
VERTEX
8
0
10
7
20
-64.15
0
VERTEX
8
0
10
7
20
-50.15
0
VERTEX
8
0
10
-7
20
-50.15
0
SEQEND
0
POLYLINE
8
0
6
CONTINUOUS
66
1
70
1
0
VERTEX
8
0
10
14.43125
20
-64.15
0
VERTEX
8
0
10
28.43125
20
-64.15
0
VERTEX
8
0
10
28.43125
20
-50.15
0
VERTEX
8
0
10
14.43125
20
-50.15
0
SEQEND
0
POLYLINE
8
0
6
CONTINUOUS
66
1
70
1
0
VERTEX
8
0
10
38.24375
20
-64.15
0
VERTEX
8
0
10
52.24375
20
-64.15
0
VERTEX
8
0
10
52.24375
20
-50.15
0
VERTEX
8
0
10
38.24375
20
-50.15
0
SEQEND
0
POLYLINE
8
0
6
CONTINUOUS
66
1
70
1
0
VERTEX
8
0
10
76.34375
20
-64.15
0
VERTEX
8
0
10
90.34375
20
-64.15
0
VERTEX
8
0
10
90.34375
20
-50.15
0
VERTEX
8
0
10
76.34375
20
-50.15
0
SEQEND
0
POLYLINE
8
0
6
CONTINUOUS
66
1
70
1
0
VERTEX
8
0
10
112.0625
20
-64.15
0
VERTEX
8
0
10
126.0625
20
-64.15
0
VERTEX
8
0
10
126.0625
20
-50.15
0
VERTEX
8
0
10
112.0625
20
-50.15
0
SEQEND
0
POLYLINE
8
0
6
CONTINUOUS
66
1
70
1
0
VERTEX
8
0
10
147.78125
20
-64.15
0
VERTEX
8
0
10
161.78125
20
-64.15
0
VERTEX
8
0
10
161.78125
20
-50.15
0
VERTEX
8
0
10
147.78125
20
-50.15
0
SEQEND
0
POLYLINE
8
0
6
CONTINUOUS
66
1
70
1
0
VERTEX
8
0
10
183.5
20
-64.15
0
VERTEX
8
0
10
197.5
20
-64.15
0
VERTEX
8
0
10
197.5
20
-50.15
0
VERTEX
8
0
10
183.5
20
-50.15
0
SEQEND
0
POLYLINE
8
0
6
CONTINUOUS
66
1
70
1
0
VERTEX
8
0
10
202.55
20
-64.15
0
VERTEX
8
0
10
216.55
20
-64.15
0
VERTEX
8
0
10
216.55
20
-50.15
0
VERTEX
8
0
10
202.55
20
-50.15
0
SEQEND
0
POLYLINE
8
0
6
CONTINUOUS
66
1
70
1
0
VERTEX
8
0
10
221.6
20
-64.15
0
VERTEX
8
0
10
235.6
20
-64.15
0
VERTEX
8
0
10
235.6
20
-50.15
0
VERTEX
8
0
10
221.6
20
-50.15
0
SEQEND
0
POLYLINE
8
0
6
CONTINUOUS
66
1
70
1
0
VERTEX
8
0
10
240.65
20
-64.15
0
VERTEX
8
0
10
254.65
20
-64.15
0
VERTEX
8
0
10
254.65
20
-50.15
0
VERTEX
8
0
10
240.65
20
-50.15
0
SEQEND
0
POLYLINE
8
0
6
CONTINUOUS
66
1
70
1
0
VERTEX
8
0
10
116.825
20
-26.05
0
VERTEX
8
0
10
130.825
20
-26.05
0
VERTEX
8
0
10
130.825
20
-12.05
0
VERTEX
8
0
10
116.825
20
-12.05
0
SEQEND
0
POLYLINE
8
0
6
CONTINUOUS
66
1
70
1
0
VERTEX
8
0
10
-5.913
20
-47.1
0
VERTEX
8
0
10
1.087
20
-47.1
0
VERTEX
8
0
10
1.087
20
-32.1
0
VERTEX
8
0
10
-5.913
20
-32.1
0
SEQEND
0
POLYLINE
8
0
6
CONTINUOUS
66
1
70
1
0
VERTEX
8
0
10
17.963
20
-47.1
0
VERTEX
8
0
10
24.963
20
-47.1
0
VERTEX
8
0
10
24.963
20
-32.1
0
VERTEX
8
0
10
17.963
20
-32.1
0
SEQEND
0
POLYLINE
8
0
6
CONTINUOUS
66
1
70
1
0
VERTEX
8
0
10
222.687
20
-47.1
0
VERTEX
8
0
10
229.687
20
-47.1
0
VERTEX
8
0
10
229.687
20
-32.1
0
VERTEX
8
0
10
222.687
20
-32.1
0
SEQEND
0
POLYLINE
8
0
6
CONTINUOUS
66
1
70
1
0
VERTEX
8
0
10
246.563
20
-47.1
0
VERTEX
8
0
10
253.563
20
-47.1
0
VERTEX
8
0
10
253.563
20
-32.1
0
VERTEX
8
0
10
246.563
20
-32.1
0
SEQEND
0
POLYLINE
8
0
6
CONTINUOUS
66
1
70
1
0
VERTEX
8
0
10
67.90575
20
-66.15
0
VERTEX
8
0
10
74.90575
20
-66.15
0
VERTEX
8
0
10
74.90575
20
-51.15
0
VERTEX
8
0
10
67.90575
20
-51.15
0
SEQEND
0
POLYLINE
8
0
6
CONTINUOUS
66
1
70
1
0
VERTEX
8
0
10
91.78175
20
-66.15
0
VERTEX
8
0
10
98.78175
20
-66.15
0
VERTEX
8
0
10
98.78175
20
-51.15
0
VERTEX
8
0
10
91.78175
20
-51.15
0
SEQEND
0
POLYLINE
8
0
6
CONTINUOUS
66
1
70
1
0
VERTEX
8
0
10
139.34325
20
-66.15
0
VERTEX
8
0
10
146.34325
20
-66.15
0
VERTEX
8
0
10
146.34325
20
-51.15
0
VERTEX
8
0
10
139.34325
20
-51.15
0
SEQEND
0
POLYLINE
8
0
6
CONTINUOUS
66
1
70
1
0
VERTEX
8
0
10
163.21925
20
-66.15
0
VERTEX
8
0
10
170.21925
20
-66.15
0
VERTEX
8
0
10
170.21925
20
-51.15
0
VERTEX
8
0
10
163.21925
20
-51.15
0
SEQEND
0
POLYLINE
8
0
6
CONTINUOUS
66
1
70
1
0
VERTEX
8
0
10
-9.975
20
-72.625
42
0.1989125
0
VERTEX
8
0
10
-10.4143398
20
-71.5643398
42
0.1989125
0
VERTEX
8
0
10
-11.475
20
-71.125
42
0.1989125
0
VERTEX
8
0
10
-12.5356602
20
-71.5643398
42
0.1989125
0
VERTEX
8
0
10
-12.975
20
-72.625
42
0.1989125
0
VERTEX
8
0
10
-12.5356602
20
-73.6856602
42
0.1989125
0
VERTEX
8
0
10
-11.475
20
-74.125
42
0.1989125
0
VERTEX
8
0
10
-10.4143398
20
-73.6856602
42
0.1989125
0
SEQEND
0
POLYLINE
8
0
6
CONTINUOUS
66
1
70
1
0
VERTEX
8
0
10
260.625
20
-72.625
42
0.1989125
0
VERTEX
8
0
10
260.1856602
20
-71.5643398
42
0.1989125
0
VERTEX
8
0
10
259.125
20
-71.125
42
0.1989125
0
VERTEX
8
0
10
258.0643398
20
-71.5643398
42
0.1989125
0
VERTEX
8
0
10
257.625
20
-72.625
42
0.1989125
0
VERTEX
8
0
10
258.0643398
20
-73.6856602
42
0.1989125
0
VERTEX
8
0
10
259.125
20
-74.125
42
0.1989125
0
VERTEX
8
0
10
260.1856602
20
-73.6856602
42
0.1989125
0
SEQEND
0
POLYLINE
8
0
6
CONTINUOUS
66
1
70
1
0
VERTEX
8
0
10
-9.975
20
11.475
42
0.1989125
0
VERTEX
8
0
10
-10.4143398
20
12.5356602
42
0.1989125
0
VERTEX
8
0
10
-11.475
20
12.975
42
0.1989125
0
VERTEX
8
0
10
-12.5356602
20
12.5356602
42
0.1989125
0
VERTEX
8
0
10
-12.975
20
11.475
42
0.1989125
0
VERTEX
8
0
10
-12.5356602
20
10.4143398
42
0.1989125
0
VERTEX
8
0
10
-11.475
20
9.975
42
0.1989125
0
VERTEX
8
0
10
-10.4143398
20
10.4143398
42
0.1989125
0
SEQEND
0
POLYLINE
8
0
6
CONTINUOUS
66
1
70
1
0
VERTEX
8
0
10
260.625
20
11.475
42
0.1989125
0
VERTEX
8
0
10
260.1856602
20
12.5356602
42
0.1989125
0
VERTEX
8
0
10
259.125
20
12.975
42
0.1989125
0
VERTEX
8
0
10
258.0643398
20
12.5356602
42
0.1989125
0
VERTEX
8
0
10
257.625
20
11.475
42
0.1989125
0
VERTEX
8
0
10
258.0643398
20
10.4143398
42
0.1989125
0
VERTEX
8
0
10
259.125
20
9.975
42
0.1989125
0
VERTEX
8
0
10
260.1856602
20
10.4143398
42
0.1989125
0
SEQEND
0
POLYLINE
8
outline
6
CONTINUOUS
66
1
70
1
0
VERTEX
8
outline
10
-14.475
20
-74.625
42
0.4142136
0
VERTEX
8
outline
10
-13.475
20
-75.625
0
VERTEX
8
outline
10
261.125
20
-75.625
42
0.4142136
0
VERTEX
8
outline
10
262.125
20
-74.625
0
VERTEX
8
outline
10
262.125
20
13.475
42
0.4142136
0
VERTEX
8
outline
10
261.125
20
14.475
0
VERTEX
8
outline
10
-13.475
20
14.475
42
0.4142136
0
VERTEX
8
outline
10
-14.475
20
13.475
0
SEQEND
0
ENDSEC
0
EOF