0
SECTION
2
HEADER
9
$INSUNITS
70
4
0
ENDSEC
0
SECTION
2
TABLES
0
TABLE
2
LTYPE
0
LTYPE
72
65
70
0
2
CONTINUOUS
3
______
73
0
40
0
0
LTYPE
72
65
70
0
2
DASHED
3
_ _ _ 
73
2
40
7.5
49
5
49
-2.5
0
LTYPE
72
65
70
0
2
DOTTED
3
. . . 
73
2
40
1.5
49
0.5
49
-1
0
ENDTAB
0
TABLE
2
LAYER
0
ENDTAB
0
ENDSEC
0
SECTION
2
ENTITIES
0
POLYLINE
8
0
6
CONTINUOUS
66
1
70
1
0
VERTEX
8
0
10
-7
20
-6.5
42
0.4142136
0
VERTEX
8
0
10
-6.5
20
-7
0
VERTEX
8
0
10
6.5
20
-7
42
0.4142136
0
VERTEX
8
0
10
7
20
-6.5
0
VERTEX
8
0
10
7
20
6.5
42
0.4142136
0
VERTEX
8
0
10
6.5
20
7
0
VERTEX
8
0
10
-6.5
20
7
42
0.4142136
0
VERTEX
8
0
10
-7
20
6.5
0
SEQEND
0
POLYLINE
8
0
6
CONTINUOUS
66
1
70
1
0
VERTEX
8
0
10
12.05
20
-6.5
42
0.4142136
0
VERTEX
8
0
10
12.55
20
-7
0
VERTEX
8
0
10
25.55
20
-7
42
0.4142136
0
VERTEX
8
0
10
26.05
20
-6.5
0
VERTEX
8
0
10
26.05
20
6.5
42
0.4142136
0
VERTEX
8
0
10
25.55
20
7
0
VERTEX
8
0
10
12.55
20
7
42
0.4142136
0
VERTEX
8
0
10
12.05
20
6.5
0
SEQEND
0
POLYLINE
8
0
6
CONTINUOUS
66
1
70
1
0
VERTEX
8
0
10
31.1
20
-6.5
42
0.4142136
0
VERTEX
8
0
10
31.6
20
-7
0
VERTEX
8
0
10
44.6
20
-7
42
0.4142136
0
VERTEX
8
0
10
45.1
20
-6.5
0
VERTEX
8
0
10
45.1
20
6.5
42
0.4142136
0
VERTEX
8
0
10
44.6
20
7
0
VERTEX
8
0
10
31.6
20
7
42
0.4142136
0
VERTEX
8
0
10
31.1
20
6.5
0
SEQEND
0
POLYLINE
8
0
6
CONTINUOUS
66
1
70
1
0
VERTEX
8
0
10
50.15
20
-6.5
42
0.4142136
0
VERTEX
8
0
10
50.65
20
-7
0
VERTEX
8
0
10
63.65
20
-7
42
0.4142136
0
VERTEX
8
0
10
64.15
20
-6.5
0
VERTEX
8
0
10
64.15
20
6.5
42
0.4142136
0
VERTEX
8
0
10
63.65
20
7
0
VERTEX
8
0
10
50.65
20
7
42
0.4142136
0
VERTEX
8
0
10
50.15
20
6.5
0
SEQEND
0
POLYLINE
8
0
6
CONTINUOUS
66
1
70
1
0
VERTEX
8
0
10
69.2
20
-6.5
42
0.4142136
0
VERTEX
8
0
10
69.7
20
-7
0
VERTEX
8
0
10
82.7
20
-7
42
0.4142136
0
VERTEX
8
0
10
83.2
20
-6.5
0
VERTEX
8
0
10
83.2
20
6.5
42
0.4142136
0
VERTEX
8
0
10
82.7
20
7
0
VERTEX
8
0
10
69.7
20
7
42
0.4142136
0
VERTEX
8
0
10
69.2
20
6.5
0
SEQEND
0
POLYLINE
8
0
6
CONTINUOUS
66
1
70
1
0
VERTEX
8
0
10
88.25
20
-6.5
42
0.4142136
0
VERTEX
8
0
10
88.75
20
-7
0
VERTEX
8
0
10
101.75
20
-7
42
0.4142136
0
VERTEX
8
0
10
102.25
20
-6.5
0
VERTEX
8
0
10
102.25
20
6.5
42
0.4142136
0
VERTEX
8
0
10
101.75
20
7
0
VERTEX
8
0
10
88.75
20
7
42
0.4142136
0
VERTEX
8
0
10
88.25
20
6.5
0
SEQEND
0
POLYLINE
8
0
6
CONTINUOUS
66
1
70
1
0
VERTEX
8
0
10
107.3
20
-6.5
42
0.4142136
0
VERTEX
8
0
10
107.8
20
-7
0
VERTEX
8
0
10
120.8
20
-7
42
0.4142136
0
VERTEX
8
0
10
121.3
20
-6.5
0
VERTEX
8
0
10
121.3
20
6.5
42
0.4142136
0
VERTEX
8
0
10
120.8
20
7
0
VERTEX
8
0
10
107.8
20
7
42
0.4142136
0
VERTEX
8
0
10
107.3
20
6.5
0
SEQEND
0
POLYLINE
8
0
6
CONTINUOUS
66
1
70
1
0
VERTEX
8
0
10
126.35
20
-6.5
42
0.4142136
0
VERTEX
8
0
10
126.85
20
-7
0
VERTEX
8
0
10
139.85
20
-7
42
0.4142136
0
VERTEX
8
0
10
140.35
20
-6.5
0
VERTEX
8
0
10
140.35
20
6.5
42
0.4142136
0
VERTEX
8
0
10
139.85
20
7
0
VERTEX
8
0
10
126.85
20
7
42
0.4142136
0
VERTEX
8
0
10
126.35
20
6.5
0
SEQEND
0
POLYLINE
8
0
6
CONTINUOUS
66
1
70
1
0
VERTEX
8
0
10
145.4
20
-6.5
42
0.4142136
0
VERTEX
8
0
10
145.9
20
-7
0
VERTEX
8
0
10
158.9
20
-7
42
0.4142136
0
VERTEX
8
0
10
159.4
20
-6.5
0
VERTEX
8
0
10
159.4
20
6.5
42
0.4142136
0
VERTEX
8
0
10
158.9
20
7
0
VERTEX
8
0
10
145.9
20
7
42
0.4142136
0
VERTEX
8
0
10
145.4
20
6.5
0
SEQEND
0
POLYLINE
8
0
6
CONTINUOUS
66
1
70
1
0
VERTEX
8
0
10
164.45
20
-6.5
42
0.4142136
0
VERTEX
8
0
10
164.95
20
-7
0
VERTEX
8
0
10
177.95
20
-7
42
0.4142136
0
VERTEX
8
0
10
178.45
20
-6.5
0
VERTEX
8
0
10
178.45
20
6.5
42
0.4142136
0
VERTEX
8
0
10
177.95
20
7
0
VERTEX
8
0
10
164.95
20
7
42
0.4142136
0
VERTEX
8
0
10
164.45
20
6.5
0
SEQEND
0
POLYLINE
8
0
6
CONTINUOUS
66
1
70
1
0
VERTEX
8
0
10
183.5
20
-6.5
42
0.4142136
0
VERTEX
8
0
10
184
20
-7
0
VERTEX
8
0
10
197
20
-7
42
0.4142136
0
VERTEX
8
0
10
197.5
20
-6.5
0
VERTEX
8
0
10
197.5
20
6.5
42
0.4142136
0
VERTEX
8
0
10
197
20
7
0
VERTEX
8
0
10
184
20
7
42
0.4142136
0
VERTEX
8
0
10
183.5
20
6.5
0
SEQEND
0
POLYLINE
8
0
6
CONTINUOUS
66
1
70
1
0
VERTEX
8
0
10
202.55
20
-6.5
42
0.4142136
0
VERTEX
8
0
10
203.05
20
-7
0
VERTEX
8
0
10
216.05
20
-7
42
0.4142136
0
VERTEX
8
0
10
216.55
20
-6.5
0
VERTEX
8
0
10
216.55
20
6.5
42
0.4142136
0
VERTEX
8
0
10
216.05
20
7
0
VERTEX
8
0
10
203.05
20
7
42
0.4142136
0
VERTEX
8
0
10
202.55
20
6.5
0
SEQEND
0
POLYLINE
8
0
6
CONTINUOUS
66
1
70
1
0
VERTEX
8
0
10
221.6
20
-6.5
42
0.4142136
0
VERTEX
8
0
10
222.1
20
-7
0
VERTEX
8
0
10
235.1
20
-7
42
0.4142136
0
VERTEX
8
0
10
235.6
20
-6.5
0
VERTEX
8
0
10
235.6
20
6.5
42
0.4142136
0
VERTEX
8
0
10
235.1
20
7
0
VERTEX
8
0
10
222.1
20
7
42
0.4142136
0
VERTEX
8
0
10
221.6
20
6.5
0
SEQEND
0
POLYLINE
8
0
6
CONTINUOUS
66
1
70
1
0
VERTEX
8
0
10
240.65
20
-6.5
42
0.4142136
0
VERTEX
8
0
10
241.15
20
-7
0
VERTEX
8
0
10
254.15
20
-7
42
0.4142136
0
VERTEX
8
0
10
254.65
20
-6.5
0
VERTEX
8
0
10
254.65
20
6.5
42
0.4142136
0
VERTEX
8
0
10
254.15
20
7
0
VERTEX
8
0
10
241.15
20
7
42
0.4142136
0
VERTEX
8
0
10
240.65
20
6.5
0
SEQEND
0
POLYLINE
8
0
6
CONTINUOUS
66
1
70
1
0
VERTEX
8
0
10
-2.2375
20
-25.55
42
0.4142136
0
VERTEX
8
0
10
-1.7375
20
-26.05
0
VERTEX
8
0
10
11.2625
20
-26.05
42
0.4142136
0
VERTEX
8
0
10
11.7625
20
-25.55
0
VERTEX
8
0
10
11.7625
20
-12.55
42
0.4142136
0
VERTEX
8
0
10
11.2625
20
-12.05
0
VERTEX
8
0
10
-1.7375
20
-12.05
42
0.4142136
0
VERTEX
8
0
10
-2.2375
20
-12.55
0
SEQEND
0
POLYLINE
8
0
6
CONTINUOUS
66
1
70
1
0
VERTEX
8
0
10
21.575
20
-25.55
42
0.4142136
0
VERTEX
8
0
10
22.075
20
-26.05
0
VERTEX
8
0
10
35.075
20
-26.05
42
0.4142136
0
VERTEX
8
0
10
35.575
20
-25.55
0
VERTEX
8
0
10
35.575
20
-12.55
42
0.4142136
0
VERTEX
8
0
10
35.075
20
-12.05
0
VERTEX
8
0
10
22.075
20
-12.05
42
0.4142136
0
VERTEX
8
0
10
21.575
20
-12.55
0
SEQEND
0
POLYLINE
8
0
6
CONTINUOUS
66
1
70
1
0
VERTEX
8
0
10
40.625
20
-25.55
42
0.4142136
0
VERTEX
8
0
10
41.125
20
-26.05
0
VERTEX
8
0
10
54.125
20
-26.05
42
0.4142136
0
VERTEX
8
0
10
54.625
20
-25.55
0
VERTEX
8
0
10
54.625
20
-12.55
42
0.4142136
0
VERTEX
8
0
10
54.125
20
-12.05
0
VERTEX
8
0
10
41.125
20
-12.05
42
0.4142136
0
VERTEX
8
0
10
40.625
20
-12.55
0
SEQEND
0
POLYLINE
8
0
6
CONTINUOUS
66
1
70
1
0
VERTEX
8
0
10
59.675
20
-25.55
42
0.4142136
0
VERTEX
8
0
10
60.175
20
-26.05
0
VERTEX
8
0
10
73.175
20
-26.05
42
0.4142136
0
VERTEX
8
0
10
73.675
20
-25.55
0
VERTEX
8
0
10
73.675
20
-12.55
42
0.4142136
0
VERTEX
8
0
10
73.175
20
-12.05
0
VERTEX
8
0
10
60.175
20
-12.05
42
0.4142136
0
VERTEX
8
0
10
59.675
20
-12.55
0
SEQEND
0
POLYLINE
8
0
6
CONTINUOUS
66
1
70
1
0
VERTEX
8
0
10
78.725
20
-25.55
42
0.4142136
0
VERTEX
8
0
10
79.225
20
-26.05
0
VERTEX
8
0
10
92.225
20
-26.05
42
0.4142136
0
VERTEX
8
0
10
92.725
20
-25.55
0
VERTEX
8
0
10
92.725
20
-12.55
42
0.4142136
0
VERTEX
8
0
10
92.225
20
-12.05
0
VERTEX
8
0
10
79.225
20
-12.05
42
0.4142136
0
VERTEX
8
0
10
78.725
20
-12.55
0
SEQEND
0
POLYLINE
8
0
6
CONTINUOUS
66
1
70
1
0
VERTEX
8
0
10
97.775
20
-25.55
42
0.4142136
0
VERTEX
8
0
10
98.275
20
-26.05
0
VERTEX
8
0
10
111.275
20
-26.05
42
0.4142136
0
VERTEX
8
0
10
111.775
20
-25.55
0
VERTEX
8
0
10
111.775
20
-12.55
42
0.4142136
0
VERTEX
8
0
10
111.275
20
-12.05
0
VERTEX
8
0
10
98.275
20
-12.05
42
0.4142136
0
VERTEX
8
0
10
97.775
20
-12.55
0
SEQEND
0
POLYLINE
8
0
6
CONTINUOUS
66
1
70
1
0
VERTEX
8
0
10
116.825
20
-25.55
42
0.4142136
0
VERTEX
8
0
10
117.325
20
-26.05
0
VERTEX
8
0
10
130.325
20
-26.05
42
0.4142136
0
VERTEX
8
0
10
130.825
20
-25.55
0
VERTEX
8
0
10
130.825
20
-12.55
42
0.4142136
0
VERTEX
8
0
10
130.325
20
-12.05
0
VERTEX
8
0
10
117.325
20
-12.05
42
0.4142136
0
VERTEX
8
0
10
116.825
20
-12.55
0
SEQEND
0
POLYLINE
8
0
6
CONTINUOUS
66
1
70
1
0
VERTEX
8
0
10
135.875
20
-25.55
42
0.4142136
0
VERTEX
8
0
10
136.375
20
-26.05
0
VERTEX
8
0
10
149.375
20
-26.05
42
0.4142136
0
VERTEX
8
0
10
149.875
20
-25.55
0
VERTEX
8
0
10
149.875
20
-12.55
42
0.4142136
0
VERTEX
8
0
10
149.375
20
-12.05
0
VERTEX
8
0
10
136.375
20
-12.05
42
0.4142136
0
VERTEX
8
0
10
135.875
20
-12.55
0
SEQEND
0
POLYLINE
8
0
6
CONTINUOUS
66
1
70
1
0
VERTEX
8
0
10
154.925
20
-25.55
42
0.4142136
0
VERTEX
8
0
10
155.425
20
-26.05
0
VERTEX
8
0
10
168.425
20
-26.05
42
0.4142136
0
VERTEX
8
0
10
168.925
20
-25.55
0
VERTEX
8
0
10
168.925
20
-12.55
42
0.4142136
0
VERTEX
8
0
10
168.425
20
-12.05
0
VERTEX
8
0
10
155.425
20
-12.05
42
0.4142136
0
VERTEX
8
0
10
154.925
20
-12.55
0
SEQEND
0
POLYLINE
8
0
6
CONTINUOUS
66
1
70
1
0
VERTEX
8
0
10
173.975
20
-25.55
42
0.4142136
0
VERTEX
8
0
10
174.475
20
-26.05
0
VERTEX
8
0
10
187.475
20
-26.05
42
0.4142136
0
VERTEX
8
0
10
187.975
20
-25.55
0
VERTEX
8
0
10
187.975
20
-12.55
42
0.4142136
0
VERTEX
8
0
10
187.475
20
-12.05
0
VERTEX
8
0
10
174.475
20
-12.05
42
0.4142136
0
VERTEX
8
0
10
173.975
20
-12.55
0
SEQEND
0
POLYLINE
8
0
6
CONTINUOUS
66
1
70
1
0
VERTEX
8
0
10
193.025
20
-25.55
42
0.4142136
0
VERTEX
8
0
10
193.525
20
-26.05
0
VERTEX
8
0
10
206.525
20
-26.05
42
0.4142136
0
VERTEX
8
0
10
207.025
20
-25.55
0
VERTEX
8
0
10
207.025
20
-12.55
42
0.4142136
0
VERTEX
8
0
10
206.525
20
-12.05
0
VERTEX
8
0
10
193.525
20
-12.05
42
0.4142136
0
VERTEX
8
0
10
193.025
20
-12.55
0
SEQEND
0
POLYLINE
8
0
6
CONTINUOUS
66
1
70
1
0
VERTEX
8
0
10
212.075
20
-25.55
42
0.4142136
0
VERTEX
8
0
10
212.575
20
-26.05
0
VERTEX
8
0
10
225.575
20
-26.05
42
0.4142136
0
VERTEX
8
0
10
226.075
20
-25.55
0
VERTEX
8
0
10
226.075
20
-12.55
42
0.4142136
0
VERTEX
8
0
10
225.575
20
-12.05
0
VERTEX
8
0
10
212.575
20
-12.05
42
0.4142136
0
VERTEX
8
0
10
212.075
20
-12.55
0
SEQEND
0
POLYLINE
8
0
6
CONTINUOUS
66
1
70
1
0
VERTEX
8
0
10
235.8875
20
-25.55
42
0.4142136
0
VERTEX
8
0
10
236.3875
20
-26.05
0
VERTEX
8
0
10
249.3875
20
-26.05
42
0.4142136
0
VERTEX
8
0
10
249.8875
20
-25.55
0
VERTEX
8
0
10
249.8875
20
-12.55
42
0.4142136
0
VERTEX
8
0
10
249.3875
20
-12.05
0
VERTEX
8
0
10
236.3875
20
-12.05
42
0.4142136
0
VERTEX
8
0
10
235.8875
20
-12.55
0
SEQEND
0
POLYLINE
8
0
6
CONTINUOUS
66
1
70
1
0
VERTEX
8
0
10
2.525
20
-44.6
42
0.4142136
0
VERTEX
8
0
10
3.025
20
-45.1
0
VERTEX
8
0
10
16.025
20
-45.1
42
0.4142136
0
VERTEX
8
0
10
16.525
20
-44.6
0
VERTEX
8
0
10
16.525
20
-31.6
42
0.4142136
0
VERTEX
8
0
10
16.025
20
-31.1
0
VERTEX
8
0
10
3.025
20
-31.1
42
0.4142136
0
VERTEX
8
0
10
2.525
20
-31.6
0
SEQEND
0
POLYLINE
8
0
6
CONTINUOUS
66
1
70
1
0
VERTEX
8
0
10
31.1
20
-44.6
42
0.4142136
0
VERTEX
8
0
10
31.6
20
-45.1
0
VERTEX
8
0
10
44.6
20
-45.1
42
0.4142136
0
VERTEX
8
0
10
45.1
20
-44.6
0
VERTEX
8
0
10
45.1
20
-31.6
42
0.4142136
0
VERTEX
8
0
10
44.6
20
-31.1
0
VERTEX
8
0
10
31.6
20
-31.1
42
0.4142136
0
VERTEX
8
0
10
31.1
20
-31.6
0
SEQEND
0
POLYLINE
8
0
6
CONTINUOUS
66
1
70
1
0
VERTEX
8
0
10
50.15
20
-44.6
42
0.4142136
0
VERTEX
8
0
10
50.65
20
-45.1
0
VERTEX
8
0
10
63.65
20
-45.1
42
0.4142136
0
VERTEX
8
0
10
64.15
20
-44.6
0
VERTEX
8
0
10
64.15
20
-31.6
42
0.4142136
0
VERTEX
8
0
10
63.65
20
-31.1
0
VERTEX
8
0
10
50.65
20
-31.1
42
0.4142136
0
VERTEX
8
0
10
50.15
20
-31.6
0
SEQEND
0
POLYLINE
8
0
6
CONTINUOUS
66
1
70
1
0
VERTEX
8
0
10
69.2
20
-44.6
42
0.4142136
0
VERTEX
8
0
10
69.7
20
-45.1
0
VERTEX
8
0
10
82.7
20
-45.1
42
0.4142136
0
VERTEX
8
0
10
83.2
20
-44.6
0
VERTEX
8
0
10
83.2
20
-31.6
42
0.4142136
0
VERTEX
8
0
10
82.7
20
-31.1
0
VERTEX
8
0
10
69.7
20
-31.1
42
0.4142136
0
VERTEX
8
0
10
69.2
20
-31.6
0
SEQEND
0
POLYLINE
8
0
6
CONTINUOUS
66
1
70
1
0
VERTEX
8
0
10
88.25
20
-44.6
42
0.4142136
0
VERTEX
8
0
10
88.75
20
-45.1
0
VERTEX
8
0
10
101.75
20
-45.1
42
0.4142136
0
VERTEX
8
0
10
102.25
20
-44.6
0
VERTEX
8
0
10
102.25
20
-31.6
42
0.4142136
0
VERTEX
8
0
10
101.75
20
-31.1
0
VERTEX
8
0
10
88.75
20
-31.1
42
0.4142136
0
VERTEX
8
0
10
88.25
20
-31.6
0
SEQEND
0
POLYLINE
8
0
6
CONTINUOUS
66
1
70
1
0
VERTEX
8
0
10
107.3
20
-44.6
42
0.4142136
0
VERTEX
8
0
10
107.8
20
-45.1
0
VERTEX
8
0
10
120.8
20
-45.1
42
0.4142136
0
VERTEX
8
0
10
121.3
20
-44.6
0
VERTEX
8
0
10
121.3
20
-31.6
42
0.4142136
0
VERTEX
8
0
10
120.8
20
-31.1
0
VERTEX
8
0
10
107.8
20
-31.1
42
0.4142136
0
VERTEX
8
0
10
107.3
20
-31.6
0
SEQEND
0
POLYLINE
8
0
6
CONTINUOUS
66
1
70
1
0
VERTEX
8
0
10
126.35
20
-44.6
42
0.4142136
0
VERTEX
8
0
10
126.85
20
-45.1
0
VERTEX
8
0
10
139.85
20
-45.1
42
0.4142136
0
VERTEX
8
0
10
140.35
20
-44.6
0
VERTEX
8
0
10
140.35
20
-31.6
42
0.4142136
0
VERTEX
8
0
10
139.85
20
-31.1
0
VERTEX
8
0
10
126.85
20
-31.1
42
0.4142136
0
VERTEX
8
0
10
126.35
20
-31.6
0
SEQEND
0
POLYLINE
8
0
6
CONTINUOUS
66
1
70
1
0
VERTEX
8
0
10
145.4
20
-44.6
42
0.4142136
0
VERTEX
8
0
10
145.9
20
-45.1
0
VERTEX
8
0
10
158.9
20
-45.1
42
0.4142136
0
VERTEX
8
0
10
159.4
20
-44.6
0
VERTEX
8
0
10
159.4
20
-31.6
42
0.4142136
0
VERTEX
8
0
10
158.9
20
-31.1
0
VERTEX
8
0
10
145.9
20
-31.1
42
0.4142136
0
VERTEX
8
0
10
145.4
20
-31.6
0
SEQEND
0
POLYLINE
8
0
6
CONTINUOUS
66
1
70
1
0
VERTEX
8
0
10
164.45
20
-44.6
42
0.4142136
0
VERTEX
8
0
10
164.95
20
-45.1
0
VERTEX
8
0
10
177.95
20
-45.1
42
0.4142136
0
VERTEX
8
0
10
178.45
20
-44.6
0
VERTEX
8
0
10
178.45
20
-31.6
42
0.4142136
0
VERTEX
8
0
10
177.95
20
-31.1
0
VERTEX
8
0
10
164.95
20
-31.1
42
0.4142136
0
VERTEX
8
0
10
164.45
20
-31.6
0
SEQEND
0
POLYLINE
8
0
6
CONTINUOUS
66
1
70
1
0
VERTEX
8
0
10
183.5
20
-44.6
42
0.4142136
0
VERTEX
8
0
10
184
20
-45.1
0
VERTEX
8
0
10
197
20
-45.1
42
0.4142136
0
VERTEX
8
0
10
197.5
20
-44.6
0
VERTEX
8
0
10
197.5
20
-31.6
42
0.4142136
0
VERTEX
8
0
10
197
20
-31.1
0
VERTEX
8
0
10
184
20
-31.1
42
0.4142136
0
VERTEX
8
0
10
183.5
20
-31.6
0
SEQEND
0
POLYLINE
8
0
6
CONTINUOUS
66
1
70
1
0
VERTEX
8
0
10
202.55
20
-44.6
42
0.4142136
0
VERTEX
8
0
10
203.05
20
-45.1
0
VERTEX
8
0
10
216.05
20
-45.1
42
0.4142136
0
VERTEX
8
0
10
216.55
20
-44.6
0
VERTEX
8
0
10
216.55
20
-31.6
42
0.4142136
0
VERTEX
8
0
10
216.05
20
-31.1
0
VERTEX
8
0
10
203.05
20
-31.1
42
0.4142136
0
VERTEX
8
0
10
202.55
20
-31.6
0
SEQEND
0
POLYLINE
8
0
6
CONTINUOUS
66
1
70
1
0
VERTEX
8
0
10
231.125
20
-44.6
42
0.4142136
0
VERTEX
8
0
10
231.625
20
-45.1
0
VERTEX
8
0
10
244.625
20
-45.1
42
0.4142136
0
VERTEX
8
0
10
245.125
20
-44.6
0
VERTEX
8
0
10
245.125
20
-31.6
42
0.4142136
0
VERTEX
8
0
10
244.625
20
-31.1
0
VERTEX
8
0
10
231.625
20
-31.1
42
0.4142136
0
VERTEX
8
0
10
231.125
20
-31.6
0
SEQEND
0
POLYLINE
8
0
6
CONTINUOUS
66
1
70
1
0
VERTEX
8
0
10
-7
20
-63.65
42
0.4142136
0
VERTEX
8
0
10
-6.5
20
-64.15
0
VERTEX
8
0
10
6.5
20
-64.15
42
0.4142136
0
VERTEX
8
0
10
7
20
-63.65
0
VERTEX
8
0
10
7
20
-50.65
42
0.4142136
0
VERTEX
8
0
10
6.5
20
-50.15
0
VERTEX
8
0
10
-6.5
20
-50.15
42
0.4142136
0
VERTEX
8
0
10
-7
20
-50.65
0
SEQEND
0
POLYLINE
8
0
6
CONTINUOUS
66
1
70
1
0
VERTEX
8
0
10
14.43125
20
-63.65
42
0.4142136
0
VERTEX
8
0
10
14.93125
20
-64.15
0
VERTEX
8
0
10
27.93125
20
-64.15
42
0.4142136
0
VERTEX
8
0
10
28.43125
20
-63.65
0
VERTEX
8
0
10
28.43125
20
-50.65
42
0.4142136
0
VERTEX
8
0
10
27.93125
20
-50.15
0
VERTEX
8
0
10
14.93125
20
-50.15
42
0.4142136
0
VERTEX
8
0
10
14.43125
20
-50.65
0
SEQEND
0
POLYLINE
8
0
6
CONTINUOUS
66
1
70
1
0
VERTEX
8
0
10
38.24375
20
-63.65
42
0.4142136
0
VERTEX
8
0
10
38.74375
20
-64.15
0
VERTEX
8
0
10
51.74375
20
-64.15
42
0.4142136
0
VERTEX
8
0
10
52.24375
20
-63.65
0
VERTEX
8
0
10
52.24375
20
-50.65
42
0.4142136
0
VERTEX
8
0
10
51.74375
20
-50.15
0
VERTEX
8
0
10
38.74375
20
-50.15
42
0.4142136
0
VERTEX
8
0
10
38.24375
20
-50.65
0
SEQEND
0
POLYLINE
8
0
6
CONTINUOUS
66
1
70
1
0
VERTEX
8
0
10
109.68125
20
-63.65
42
0.4142136
0
VERTEX
8
0
10
110.18125
20
-64.15
0
VERTEX
8
0
10
123.18125
20
-64.15
42
0.4142136
0
VERTEX
8
0
10
123.68125
20
-63.65
0
VERTEX
8
0
10
123.68125
20
-50.65
42
0.4142136
0
VERTEX
8
0
10
123.18125
20
-50.15
0
VERTEX
8
0
10
110.18125
20
-50.15
42
0.4142136
0
VERTEX
8
0
10
109.68125
20
-50.65
0
SEQEND
0
POLYLINE
8
0
6
CONTINUOUS
66
1
70
1
0
VERTEX
8
0
10
181.11875
20
-63.65
42
0.4142136
0
VERTEX
8
0
10
181.61875
20
-64.15
0
VERTEX
8
0
10
194.61875
20
-64.15
42
0.4142136
0
VERTEX
8
0
10
195.11875
20
-63.65
0
VERTEX
8
0
10
195.11875
20
-50.65
42
0.4142136
0
VERTEX
8
0
10
194.61875
20
-50.15
0
VERTEX
8
0
10
181.61875
20
-50.15
42
0.4142136
0
VERTEX
8
0
10
181.11875
20
-50.65
0
SEQEND
0
POLYLINE
8
0
6
CONTINUOUS
66
1
70
1
0
VERTEX
8
0
10
202.55
20
-63.65
42
0.4142136
0
VERTEX
8
0
10
203.05
20
-64.15
0
VERTEX
8
0
10
216.05
20
-64.15
42
0.4142136
0
VERTEX
8
0
10
216.55
20
-63.65
0
VERTEX
8
0
10
216.55
20
-50.65
42
0.4142136
0
VERTEX
8
0
10
216.05
20
-50.15
0
VERTEX
8
0
10
203.05
20
-50.15
42
0.4142136
0
VERTEX
8
0
10
202.55
20
-50.65
0
SEQEND
0
POLYLINE
8
0
6
CONTINUOUS
66
1
70
1
0
VERTEX
8
0
10
221.6
20
-63.65
42
0.4142136
0
VERTEX
8
0
10
222.1
20
-64.15
0
VERTEX
8
0
10
235.1
20
-64.15
42
0.4142136
0
VERTEX
8
0
10
235.6
20
-63.65
0
VERTEX
8
0
10
235.6
20
-50.65
42
0.4142136
0
VERTEX
8
0
10
235.1
20
-50.15
0
VERTEX
8
0
10
222.1
20
-50.15
42
0.4142136
0
VERTEX
8
0
10
221.6
20
-50.65
0
SEQEND
0
POLYLINE
8
0
6
CONTINUOUS
66
1
70
1
0
VERTEX
8
0
10
240.65
20
-63.65
42
0.4142136
0
VERTEX
8
0
10
241.15
20
-64.15
0
VERTEX
8
0
10
254.15
20
-64.15
42
0.4142136
0
VERTEX
8
0
10
254.65
20
-63.65
0
VERTEX
8
0
10
254.65
20
-50.65
42
0.4142136
0
VERTEX
8
0
10
254.15
20
-50.15
0
VERTEX
8
0
10
241.15
20
-50.15
42
0.4142136
0
VERTEX
8
0
10
240.65
20
-50.65
0
SEQEND
0
POLYLINE
8
0
6
CONTINUOUS
66
1
70
1
0
VERTEX
8
0
10
-5.913
20
-46.6
42
0.4142136
0
VERTEX
8
0
10
-5.413
20
-47.1
0
VERTEX
8
0
10
0.587
20
-47.1
42
0.4142136
0
VERTEX
8
0
10
1.087
20
-46.6
0
VERTEX
8
0
10
1.087
20
-32.6
42
0.4142136
0
VERTEX
8
0
10
0.587
20
-32.1
0
VERTEX
8
0
10
-5.413
20
-32.1
42
0.4142136
0
VERTEX
8
0
10
-5.913
20
-32.6
0
SEQEND
0
POLYLINE
8
0
6
CONTINUOUS
66
1
70
1
0
VERTEX
8
0
10
17.963
20
-46.6
42
0.4142136
0
VERTEX
8
0
10
18.463
20
-47.1
0
VERTEX
8
0
10
24.463
20
-47.1
42
0.4142136
0
VERTEX
8
0
10
24.963
20
-46.6
0
VERTEX
8
0
10
24.963
20
-32.6
42
0.4142136
0
VERTEX
8
0
10
24.463
20
-32.1
0
VERTEX
8
0
10
18.463
20
-32.1
42
0.4142136
0
VERTEX
8
0
10
17.963
20
-32.6
0
SEQEND
0
POLYLINE
8
0
6
CONTINUOUS
66
1
70
1
0
VERTEX
8
0
10
222.687
20
-46.6
42
0.4142136
0
VERTEX
8
0
10
223.187
20
-47.1
0
VERTEX
8
0
10
229.187
20
-47.1
42
0.4142136
0
VERTEX
8
0
10
229.687
20
-46.6
0
VERTEX
8
0
10
229.687
20
-32.6
42
0.4142136
0
VERTEX
8
0
10
229.187
20
-32.1
0
VERTEX
8
0
10
223.187
20
-32.1
42
0.4142136
0
VERTEX
8
0
10
222.687
20
-32.6
0
SEQEND
0
POLYLINE
8
0
6
CONTINUOUS
66
1
70
1
0
VERTEX
8
0
10
246.563
20
-46.6
42
0.4142136
0
VERTEX
8
0
10
247.063
20
-47.1
0
VERTEX
8
0
10
253.063
20
-47.1
42
0.4142136
0
VERTEX
8
0
10
253.563
20
-46.6
0
VERTEX
8
0
10
253.563
20
-32.6
42
0.4142136
0
VERTEX
8
0
10
253.063
20
-32.1
0
VERTEX
8
0
10
247.063
20
-32.1
42
0.4142136
0
VERTEX
8
0
10
246.563
20
-32.6
0
SEQEND
0
POLYLINE
8
0
6
CONTINUOUS
66
1
70
1
0
VERTEX
8
0
10
63.18125
20
-65.65
42
0.4142136
0
VERTEX
8
0
10
63.68125
20
-66.15
0
VERTEX
8
0
10
69.68125
20
-66.15
42
0.4142136
0
VERTEX
8
0
10
70.18125
20
-65.65
0
VERTEX
8
0
10
70.18125
20
-51.65
42
0.4142136
0
VERTEX
8
0
10
69.68125
20
-51.15
0
VERTEX
8
0
10
63.68125
20
-51.15
42
0.4142136
0
VERTEX
8
0
10
63.18125
20
-51.65
0
SEQEND
0
POLYLINE
8
0
6
CONTINUOUS
66
1
70
1
0
VERTEX
8
0
10
163.18125
20
-65.65
42
0.4142136
0
VERTEX
8
0
10
163.68125
20
-66.15
0
VERTEX
8
0
10
169.68125
20
-66.15
42
0.4142136
0
VERTEX
8
0
10
170.18125
20
-65.65
0
VERTEX
8
0
10
170.18125
20
-51.65
42
0.4142136
0
VERTEX
8
0
10
169.68125
20
-51.15
0
VERTEX
8
0
10
163.68125
20
-51.15
42
0.4142136
0
VERTEX
8
0
10
163.18125
20
-51.65
0
SEQEND
0
POLYLINE
8
0
6
CONTINUOUS
66
1
70
1
0
VERTEX
8
0
10
-8.75
20
-69.4
42
0.1989125
0
VERTEX
8
0
10
-9.1893398
20
-68.3393398
42
0.1989125
0
VERTEX
8
0
10
-10.25
20
-67.9
42
0.1989125
0
VERTEX
8
0
10
-11.3106602
20
-68.3393398
42
0.1989125
0
VERTEX
8
0
10
-11.75
20
-69.4
42
0.1989125
0
VERTEX
8
0
10
-11.3106602
20
-70.4606602
42
0.1989125
0
VERTEX
8
0
10
-10.25
20
-70.9
42
0.1989125
0
VERTEX
8
0
10
-9.1893398
20
-70.4606602
42
0.1989125
0
SEQEND
0
POLYLINE
8
0
6
CONTINUOUS
66
1
70
1
0
VERTEX
8
0
10
259.4
20
-69.4
42
0.1989125
0
VERTEX
8
0
10
258.9606602
20
-68.3393398
42
0.1989125
0
VERTEX
8
0
10
257.9
20
-67.9
42
0.1989125
0
VERTEX
8
0
10
256.8393398
20
-68.3393398
42
0.1989125
0
VERTEX
8
0
10
256.4
20
-69.4
42
0.1989125
0
VERTEX
8
0
10
256.8393398
20
-70.4606602
42
0.1989125
0
VERTEX
8
0
10
257.9
20
-70.9
42
0.1989125
0
VERTEX
8
0
10
258.9606602
20
-70.4606602
42
0.1989125
0
SEQEND
0
POLYLINE
8
0
6
CONTINUOUS
66
1
70
1
0
VERTEX
8
0
10
-8.75
20
10.25
42
0.1989125
0
VERTEX
8
0
10
-9.1893398
20
11.3106602
42
0.1989125
0
VERTEX
8
0
10
-10.25
20
11.75
42
0.1989125
0
VERTEX
8
0
10
-11.3106602
20
11.3106602
42
0.1989125
0
VERTEX
8
0
10
-11.75
20
10.25
42
0.1989125
0
VERTEX
8
0
10
-11.3106602
20
9.1893398
42
0.1989125
0
VERTEX
8
0
10
-10.25
20
8.75
42
0.1989125
0
VERTEX
8
0
10
-9.1893398
20
9.1893398
42
0.1989125
0
SEQEND
0
POLYLINE
8
0
6
CONTINUOUS
66
1
70
1
0
VERTEX
8
0
10
259.4
20
10.25
42
0.1989125
0
VERTEX
8
0
10
258.9606602
20
11.3106602
42
0.1989125
0
VERTEX
8
0
10
257.9
20
11.75
42
0.1989125
0
VERTEX
8
0
10
256.8393398
20
11.3106602
42
0.1989125
0
VERTEX
8
0
10
256.4
20
10.25
42
0.1989125
0
VERTEX
8
0
10
256.8393398
20
9.1893398
42
0.1989125
0
VERTEX
8
0
10
257.9
20
8.75
42
0.1989125
0
VERTEX
8
0
10
258.9606602
20
9.1893398
42
0.1989125
0
SEQEND
0
POLYLINE
8
0
6
CONTINUOUS
66
1
70
1
0
VERTEX
8
0
10
106.275
20
-29.05125
42
0.1989125
0
VERTEX
8
0
10
105.8356602
20
-27.9905898
42
0.1989125
0
VERTEX
8
0
10
104.775
20
-27.55125
42
0.1989125
0
VERTEX
8
0
10
103.7143398
20
-27.9905898
42
0.1989125
0
VERTEX
8
0
10
103.275
20
-29.05125
42
0.1989125
0
VERTEX
8
0
10
103.7143398
20
-30.1119102
42
0.1989125
0
VERTEX
8
0
10
104.775
20
-30.55125
42
0.1989125
0
VERTEX
8
0
10
105.8356602
20
-30.1119102
42
0.1989125
0
SEQEND
0
POLYLINE
8
0
6
CONTINUOUS
66
1
70
1
0
VERTEX
8
0
10
144.375
20
-29.05125
42
0.1989125
0
VERTEX
8
0
10
143.9356602
20
-27.9905898
42
0.1989125
0
VERTEX
8
0
10
142.875
20
-27.55125
42
0.1989125
0
VERTEX
8
0
10
141.8143398
20
-27.9905898
42
0.1989125
0
VERTEX
8
0
10
141.375
20
-29.05125
42
0.1989125
0
VERTEX
8
0
10
141.8143398
20
-30.1119102
42
0.1989125
0
VERTEX
8
0
10
142.875
20
-30.55125
42
0.1989125
0
VERTEX
8
0
10
143.9356602
20
-30.1119102
42
0.1989125
0
SEQEND
0
POLYLINE
8
outline
6
CONTINUOUS
66
1
70
1
0
VERTEX
8
outline
10
-14
20
-72.65
42
0.4142136
0
VERTEX
8
outline
10
-13.5
20
-73.15
0
VERTEX
8
outline
10
261.15
20
-73.15
42
0.4142136
0
VERTEX
8
outline
10
261.65
20
-72.65
0
VERTEX
8
outline
10
261.65
20
13.5
42
0.4142136
0
VERTEX
8
outline
10
261.15
20
14
0
VERTEX
8
outline
10
-13.5
20
14
42
0.4142136
0
VERTEX
8
outline
10
-14
20
13.5
0
SEQEND
0
ENDSEC
0
EOF