999
Created by JSCAD
  0
SECTION
  2
HEADER
  9
$ACADVER
  1
AC1027
  9
$ACADMAINTVER
 70
8
  9
$DWGCODEPAGE
  3
ANSI_1252
  9
$LASTSAVEDBY
  1
unknown
  9
$REQUIREDVERSIONS
160
0
  9
$INSBASE
 10
0.0
 20
0.0
 30
0.0
  9
$EXTMIN
 10
1e+20
 20
1e+20
 30
1e+20
  9
$EXTMAX
 10
-1e+20
 20
-1e+20
 30
-1e+20
  9
$LIMMIN
 10
0.0
 20
0.0
  9
$LIMMAX
 10
12.0
 20
9.0
  9
$ORTHOMODE
 70
0
  9
$REGENMODE
 70
1
  9
$FILLMODE
 70
1
  9
$QTEXTMODE
 70
0
  9
$MIRRTEXT
 70
0
  9
$LTSCALE
 40
1.0
  9
$ATTMODE
 70
1
  9
$TEXTSIZE
 40
0.2
  9
$TRACEWID
 40
0.05
  9
$TEXTSTYLE
  7
Notes
  9
$CLAYER
  8
0
  9
$CELTYPE
  6
ByLayer
  9
$CECOLOR
 62
256
  9
$CELTSCALE
 40
1.0
  9
$DISPSILH
 70
0
  9
$DIMSCALE
 40
1.0
  9
$DIMASZ
 40
3.0
  9
$DIMEXO
 40
1.5
  9
$DIMDLI
 40
6.0
  9
$DIMRND
 40
0.0
  9
$DIMDLE
 40
0.0
  9
$DIMEXE
 40
3.0
  9
$DIMTP
 40
0.0
  9
$DIMTM
 40
0.0
  9
$DIMTXT
 40
3.0
  9
$DIMCEN
 40
3.0
  9
$DIMTSZ
 40
0.0
  9
$DIMTOL
 70
0
  9
$DIMLIM
 70
0
  9
$DIMTIH
 70
0
  9
$DIMTOH
 70
0
  9
$DIMSE1
 70
0
  9
$DIMSE2
 70
0
  9
$DIMTAD
 70
1
  9
$DIMZIN
 70
3
  9
$DIMBLK
  1

  9
$DIMASO
 70
1
  9
$DIMSHO
 70
1
  9
$DIMPOST
  1

  9
$DIMAPOST
  1

  9
$DIMALT
 70
0
  9
$DIMALTD
 70
2
  9
$DIMALTF
 40
25.4
  9
$DIMLFAC
 40
1.0
  9
$DIMTOFL
 70
0
  9
$DIMTVP
 40
0.0
  9
$DIMTIX
 70
0
  9
$DIMSOXD
 70
0
  9
$DIMSAH
 70
0
  9
$DIMBLK1
  1

  9
$DIMBLK2
  1

  9
$DIMSTYLE
  2
Civil-Metric
  9
$DIMCLRD
 70
0
  9
$DIMCLRE
 70
0
  9
$DIMCLRT
 70
0
  9
$DIMTFAC
 40
1.0
  9
$DIMGAP
 40
2.0
  9
$DIMJUST
 70
0
  9
$DIMSD1
 70
0
  9
$DIMSD2
 70
0
  9
$DIMTOLJ
 70
1
  9
$DIMTZIN
 70
0
  9
$DIMALTZ
 70
0
  9
$DIMALTTZ
 70
0
  9
$DIMUPT
 70
0
  9
$DIMDEC
 70
2
  9
$DIMTDEC
 70
2
  9
$DIMALTU
 70
2
  9
$DIMALTTD
 70
2
  9
$DIMTXSTY
  7
Standard
  9
$DIMAUNIT
 70
0
  9
$DIMADEC
 70
2
  9
$DIMALTRND
 40
0.0
  9
$DIMAZIN
 70
2
  9
$DIMDSEP
 70
46
  9
$DIMATFIT
 70
3
  9
$DIMFRAC
 70
1
  9
$DIMLDRBLK
  1

  9
$DIMLUNIT
 70
2
  9
$DIMLWD
 70
-2
  9
$DIMLWE
 70
-2
  9
$DIMTMOVE
 70
0
  9
$DIMFXL
 40
1.0
  9
$DIMFXLON
 70
0
  9
$DIMJOGANG
 40
0.785398163397
  9
$DIMTFILL
 70
0
  9
$DIMTFILLCLR
 70
0
  9
$DIMARCSYM
 70
0
  9
$DIMLTYPE
  6

  9
$DIMLTEX1
  6

  9
$DIMLTEX2
  6

  9
$DIMTXTDIRECTION
 70
0
  9
$LUNITS
 70
2
  9
$LUPREC
 70
4
  9
$SKETCHINC
 40
0.1
  9
$FILLETRAD
 40
0.0
  9
$AUNITS
 70
4
  9
$AUPREC
 70
5
  9
$MENU
  1
.
  9
$ELEVATION
 40
0.0
  9
$PELEVATION
 40
0.0
  9
$THICKNESS
 40
0.0
  9
$LIMCHECK
 70
0
  9
$CHAMFERA
 40
0.0
  9
$CHAMFERB
 40
0.0
  9
$CHAMFERC
 40
0.0
  9
$CHAMFERD
 40
0.0
  9
$SKPOLY
 70
0
  9
$TDCREATE
 40
2457986.69756
  9
$TDUCREATE
 40
2455631.2632
  9
$TDUPDATE
 40
2457986.69756
  9
$TDUUPDATE
 40
2456436.43179
  9
$TDINDWG
 40
0.0003490741
  9
$TDUSRTIMER
 40
0.0003487153
  9
$USRTIMER
 70
1
  9
$ANGBASE
 50
0.0
  9
$ANGDIR
 70
0
  9
$PDMODE
 70
0
  9
$PDSIZE
 40
0.0
  9
$PLINEWID
 40
0.0
  9
$SPLFRAME
 70
0
  9
$SPLINETYPE
 70
6
  9
$SPLINESEGS
 70
8
  9
$HANDSEED
  5
5C7
  9
$SURFTAB1
 70
6
  9
$SURFTAB2
 70
6
  9
$SURFTYPE
 70
6
  9
$SURFU
 70
6
  9
$SURFV
 70
6
  9
$UCSBASE
  2

  9
$UCSNAME
  2

  9
$UCSORG
 10
0.0
 20
0.0
 30
0.0
  9
$UCSXDIR
 10
1.0
 20
0.0
 30
0.0
  9
$UCSYDIR
 10
0.0
 20
1.0
 30
0.0
  9
$UCSORTHOREF
  2

  9
$UCSORTHOVIEW
 70
0
  9
$UCSORGTOP
 10
0.0
 20
0.0
 30
0.0
  9
$UCSORGBOTTOM
 10
0.0
 20
0.0
 30
0.0
  9
$UCSORGLEFT
 10
0.0
 20
0.0
 30
0.0
  9
$UCSORGRIGHT
 10
0.0
 20
0.0
 30
0.0
  9
$UCSORGFRONT
 10
0.0
 20
0.0
 30
0.0
  9
$UCSORGBACK
 10
0.0
 20
0.0
 30
0.0
  9
$PUCSBASE
  2

  9
$PUCSNAME
  2

  9
$PUCSORG
 10
0.0
 20
0.0
 30
0.0
  9
$PUCSXDIR
 10
1.0
 20
0.0
 30
0.0
  9
$PUCSYDIR
 10
0.0
 20
1.0
 30
0.0
  9
$PUCSORTHOREF
  2

  9
$PUCSORTHOVIEW
 70
0
  9
$PUCSORGTOP
 10
0.0
 20
0.0
 30
0.0
  9
$PUCSORGBOTTOM
 10
0.0
 20
0.0
 30
0.0
  9
$PUCSORGLEFT
 10
0.0
 20
0.0
 30
0.0
  9
$PUCSORGRIGHT
 10
0.0
 20
0.0
 30
0.0
  9
$PUCSORGFRONT
 10
0.0
 20
0.0
 30
0.0
  9
$PUCSORGBACK
 10
0.0
 20
0.0
 30
0.0
  9
$USERI1
 70
0
  9
$USERI2
 70
0
  9
$USERI3
 70
0
  9
$USERI4
 70
0
  9
$USERI5
 70
0
  9
$USERR1
 40
0.0
  9
$USERR2
 40
0.0
  9
$USERR3
 40
0.0
  9
$USERR4
 40
0.0
  9
$USERR5
 40
0.0
  9
$WORLDVIEW
 70
1
  9
$SHADEDGE
 70
3
  9
$SHADEDIF
 70
70
  9
$TILEMODE
 70
1
  9
$MAXACTVP
 70
64
  9
$PINSBASE
 10
0.0
 20
0.0
 30
0.0
  9
$PLIMCHECK
 70
0
  9
$PEXTMIN
 10
0.628866766397
 20
0.799999952316
 30
0.0
  9
$PEXTMAX
 10
9.02886638493
 20
7.19999957085
 30
0.0
  9
$PLIMMIN
 10
-0.700541819174
 20
-0.228100386192
  9
$PLIMMAX
 10
10.2994579405
 20
8.27189937351
  9
$UNITMODE
 70
0
  9
$VISRETAIN
 70
1
  9
$PLINEGEN
 70
0
  9
$PSLTSCALE
 70
1
  9
$TREEDEPTH
 70
3020
  9
$CMLSTYLE
  2
Standard
  9
$CMLJUST
 70
0
  9
$CMLSCALE
 40
1.0
  9
$PROXYGRAPHICS
 70
1
  9
$MEASUREMENT
 70
1
  9
$CELWEIGHT
370
-1
  9
$ENDCAPS
280
0
  9
$JOINSTYLE
280
0
  9
$LWDISPLAY
290
0
  9
$INSUNITS
 70
4
  9
$HYPERLINKBASE
  1

  9
$STYLESHEET
  1

  9
$XEDIT
290
1
  9
$CEPSNTYPE
380
0
  9
$PSTYLEMODE
290
1
  9
$FINGERPRINTGUID
  2
{39DB1BDD-BC6C-46D3-A333-DFCC0DC4782D}
  9
$VERSIONGUID
  2
{69EEBB2D-7039-498F-9366-3F994E4A07E7}
  9
$EXTNAMES
290
1
  9
$PSVPSCALE
 40
0.0
  9
$OLESTARTUP
290
0
  9
$SORTENTS
280
127
  9
$INDEXCTL
280
0
  9
$HIDETEXT
280
1
  9
$XCLIPFRAME
280
0
  9
$HALOGAP
280
0
  9
$OBSCOLOR
 70
257
  9
$OBSLTYPE
280
0
  9
$INTERSECTIONDISPLAY
280
0
  9
$INTERSECTIONCOLOR
 70
257
  9
$DIMASSOC
280
2
  9
$PROJECTNAME
  1

  9
$CAMERADISPLAY
290
0
  9
$LENSLENGTH
 40
50.0
  9
$CAMERAHEIGHT
 40
0.0
  9
$STEPSPERSEC
 40
2.0
  9
$STEPSIZE
 40
6.0
  9
$3DDWFPREC
 40
2.0
  9
$PSOLWIDTH
 40
0.25
  9
$PSOLHEIGHT
 40
4.0
  9
$LOFTANG1
 40
1.57079632679
  9
$LOFTANG2
 40
1.57079632679
  9
$LOFTMAG1
 40
0.0
  9
$LOFTMAG2
 40
0.0
  9
$LOFTPARAM
 70
7
  9
$LOFTNORMALS
280
1
  9
$LATITUDE
 40
37.795
  9
$LONGITUDE
 40
-122.394
  9
$NORTHDIRECTION
 40
0.0
  9
$TIMEZONE
 70
-8000
  9
$LIGHTGLYPHDISPLAY
280
1
  9
$TILEMODELIGHTSYNCH
280
1
  9
$CMATERIAL
347
96
  9
$SOLIDHIST
280
1
  9
$SHOWHIST
280
1
  9
$DWFFRAME
280
2
  9
$DGNFRAME
280
0
  9
$REALWORLDSCALE
290
1
  9
$INTERFERECOLOR
 62
1
  9
$INTERFEREOBJVS
345
A3
  9
$INTERFEREVPVS
346
A0
  9
$CSHADOW
280
0
  9
$SHADOWPLANELOCATION
 40
0.0
  0
ENDSEC
  0
SECTION
  2
CLASSES
  0
CLASS
  1
ACDBDICTIONARYWDFLT
  2
AcDbDictionaryWithDefault
  3
ObjectDBX Classes
 90
0
 91
1
280
0
281
0
  0
CLASS
  1
DICTIONARYVAR
  2
AcDbDictionaryVar
  3
ObjectDBX Classes
 90
0
 91
15
280
0
281
0
  0
CLASS
  1
TABLESTYLE
  2
AcDbTableStyle
  3
ObjectDBX Classes
 90
4095
 91
1
280
0
281
0
  0
CLASS
  1
MATERIAL
  2
AcDbMaterial
  3
ObjectDBX Classes
 90
1153
 91
3
280
0
281
0
  0
CLASS
  1
VISUALSTYLE
  2
AcDbVisualStyle
  3
ObjectDBX Classes
 90
4095
 91
26
280
0
281
0
  0
CLASS
  1
SCALE
  2
AcDbScale
  3
ObjectDBX Classes
 90
1153
 91
17
280
0
281
0
  0
CLASS
  1
MLEADERSTYLE
  2
AcDbMLeaderStyle
  3
ACDB_MLEADERSTYLE_CLASS
 90
4095
 91
3
280
0
281
0
  0
CLASS
  1
CELLSTYLEMAP
  2
AcDbCellStyleMap
  3
ObjectDBX Classes
 90
1152
 91
2
280
0
281
0
  0
CLASS
  1
EXACXREFPANELOBJECT
  2
ExAcXREFPanelObject
  3
EXAC_ESW
 90
1025
 91
0
280
0
281
0
  0
CLASS
  1
NPOCOLLECTION
  2
AcDbImpNonPersistentObjectsCollection
  3
ObjectDBX Classes
 90
1153
 91
0
280
0
281
0
  0
CLASS
  1
LAYER_INDEX
  2
AcDbLayerIndex
  3
ObjectDBX Classes
 90
0
 91
0
280
0
281
0
  0
CLASS
  1
SPATIAL_INDEX
  2
AcDbSpatialIndex
  3
ObjectDBX Classes
 90
0
 91
0
280
0
281
0
  0
CLASS
  1
IDBUFFER
  2
AcDbIdBuffer
  3
ObjectDBX Classes
 90
0
 91
0
280
0
281
0
  0
CLASS
  1
DIMASSOC
  2
AcDbDimAssoc
  3
"AcDbDimAssoc|Product Desc:     AcDim ARX App For Dimension|Company:          Autodesk, Inc.|WEB Address:      www.autodesk.com"
 90
0
 91
0
280
0
281
0
  0
CLASS
  1
ACDBSECTIONVIEWSTYLE
  2
AcDbSectionViewStyle
  3
ObjectDBX Classes
 90
1025
 91
1
280
0
281
0
  0
CLASS
  1
ACDBDETAILVIEWSTYLE
  2
AcDbDetailViewStyle
  3
ObjectDBX Classes
 90
1025
 91
1
280
0
281
0
  0
CLASS
  1
IMAGEDEF
  2
AcDbRasterImageDef
  3
ISM
 90
0
 91
1
280
0
281
0
  0
CLASS
  1
RASTERVARIABLES
  2
AcDbRasterVariables
  3
ISM
 90
0
 91
1
280
0
281
0
  0
CLASS
  1
IMAGEDEF_REACTOR
  2
AcDbRasterImageDefReactor
  3
ISM
 90
1
 91
1
280
0
281
0
  0
CLASS
  1
IMAGE
  2
AcDbRasterImage
  3
ISM
 90
2175
 91
1
280
0
281
1
  0
CLASS
  1
PDFDEFINITION
  2
AcDbPdfDefinition
  3
ObjectDBX Classes
 90
1153
 91
1
280
0
281
0
  0
CLASS
  1
PDFUNDERLAY
  2
AcDbPdfReference
  3
ObjectDBX Classes
 90
4095
 91
1
280
0
281
1
  0
CLASS
  1
DWFDEFINITION
  2
AcDbDwfDefinition
  3
ObjectDBX Classes
 90
1153
 91
2
280
0
281
0
  0
CLASS
  1
DWFUNDERLAY
  2
AcDbDwfReference
  3
ObjectDBX Classes
 90
1153
 91
1
280
0
281
1
  0
CLASS
  1
DGNDEFINITION
  2
AcDbDgnDefinition
  3
ObjectDBX Classes
 90
1153
 91
2
280
0
281
0
  0
CLASS
  1
DGNUNDERLAY
  2
AcDbDgnReference
  3
ObjectDBX Classes
 90
1153
 91
1
280
0
281
1
  0
ENDSEC
  0
SECTION
  2
TABLES
  0
TABLE
  2
VPORT
  5
8
330
0
100
AcDbSymbolTable
 70
0
  0
ENDTAB
  0
TABLE
  2
LTYPE
  5
5F
330
0
100
AcDbSymbolTable
 70
7
  0
LTYPE
  5
14
330
5F
100
AcDbSymbolTableRecord
100
AcDbLinetypeTableRecord
  2
ByBlock
 70
0
  3

 72
65
 73
0
 40
0.0
  0
LTYPE
  5
15
330
5F
100
AcDbSymbolTableRecord
100
AcDbLinetypeTableRecord
  2
ByLayer
 70
0
  3

 72
65
 73
0
 40
0.0
  0
LTYPE
  5
16
330
5F
100
AcDbSymbolTableRecord
100
AcDbLinetypeTableRecord
  2
Continuous
 70
0
  3
Solid line
 72
65
 73
0
 40
0.0
  0
LTYPE
  5
1B1
330
5F
100
AcDbSymbolTableRecord
100
AcDbLinetypeTableRecord
  2
CENTER
 70
0
  3
Center ____ _ ____ _ ____ _ ____ _ ____ _ ____
 72
65
 73
4
 40
2.0
 49
1.25
 74
0
 49
-0.25
 74
0
 49
0.25
 74
0
 49
-0.25
 74
0
  0
LTYPE
  5
1B2
330
5F
100
AcDbSymbolTableRecord
100
AcDbLinetypeTableRecord
  2
DASHED
 70
0
  3
Dashed __ __ __ __ __ __ __ __ __ __ __ __ __ _
 72
65
 73
2
 40
0.75
 49
0.5
 74
0
 49
-0.25
 74
0
  0
LTYPE
  5
1B3
330
5F
100
AcDbSymbolTableRecord
100
AcDbLinetypeTableRecord
  2
PHANTOM
 70
0
  3
Phantom ______  __  __  ______  __  __  ______
 72
65
 73
6
 40
2.5
 49
1.25
 74
0
 49
-0.25
 74
0
 49
0.25
 74
0
 49
-0.25
 74
0
 49
0.25
 74
0
 49
-0.25
 74
0
  0
LTYPE
  5
39E
330
5F
100
AcDbSymbolTableRecord
100
AcDbLinetypeTableRecord
  2
HIDDEN
 70
0
  3
Hidden __ __ __ __ __ __ __ __ __ __ __ __ __ __
 72
65
 73
2
 40
9.525
 49
6.35
 74
0
 49
-3.175
 74
0
  0
ENDTAB
  0
TABLE
  2
LAYER
  5
2
330
0
100
AcDbSymbolTable
 70
3
  0
LAYER
  5
10
330
2
100
AcDbSymbolTableRecord
100
AcDbLayerTableRecord
  2
0
 70
0
  6
Continuous
370
-3
390
F
347
98
348
0
  0
LAYER
  5
1B4
330
2
100
AcDbSymbolTableRecord
100
AcDbLayerTableRecord
  2
View Port
 70
0
  6
Continuous
290
0
370
-3
390
F
347
98
348
0
  0
LAYER
  5
21D
330
2
100
AcDbSymbolTableRecord
100
AcDbLayerTableRecord
  2
Defpoints
 70
0
  6
Continuous
290
0
370
-3
390
F
347
98
348
0
  0
ENDTAB
  0
TABLE
  2
STYLE
  5
3
330
0
100
AcDbSymbolTable
 70
3
  0
STYLE
  5
11
330
3
100
AcDbSymbolTableRecord
100
AcDbTextStyleTableRecord
  2
Standard
 70
0
 40
0.0
 41
1.0
 50
0.0
 71
0
 42
0.2
  3
arial.ttf
  4

  0
STYLE
  5
DC
330
3
100
AcDbSymbolTableRecord
100
AcDbTextStyleTableRecord
  2
Annotative
 70
0
 40
0.0
 41
1.0
 50
0.0
 71
0
 42
0.2
  3
arial.ttf
  4

  0
STYLE
  5
178
330
3
100
AcDbSymbolTableRecord
100
AcDbTextStyleTableRecord
  2
Notes
 70
0
 40
3.0
 41
1.0
 50
0.0
 71
0
 42
0.2
  3
arial.ttf
  4

  0
ENDTAB
  0
TABLE
  2
VIEW
  5
6
330
0
100
AcDbSymbolTable
 70
0
  0
ENDTAB
  0
TABLE
  2
UCS
  5
7
330
0
100
AcDbSymbolTable
 70
0
  0
ENDTAB
  0
TABLE
  2
APPID
  5
9
330
0
100
AcDbSymbolTable
 70
12
  0
APPID
  5
12
330
9
100
AcDbSymbolTableRecord
100
AcDbRegAppTableRecord
  2
ACAD
 70
0
  0
APPID
  5
DD
330
9
100
AcDbSymbolTableRecord
100
AcDbRegAppTableRecord
  2
AcadAnnoPO
 70
0
  0
APPID
  5
DE
330
9
100
AcDbSymbolTableRecord
100
AcDbRegAppTableRecord
  2
AcadAnnotative
 70
0
  0
APPID
  5
DF
330
9
100
AcDbSymbolTableRecord
100
AcDbRegAppTableRecord
  2
ACAD_DSTYLE_DIMJAG
 70
0
  0
APPID
  5
E0
330
9
100
AcDbSymbolTableRecord
100
AcDbRegAppTableRecord
  2
ACAD_DSTYLE_DIMTALN
 70
0
  0
APPID
  5
107
330
9
100
AcDbSymbolTableRecord
100
AcDbRegAppTableRecord
  2
ACAD_MLEADERVER
 70
0
  0
APPID
  5
1B5
330
9
100
AcDbSymbolTableRecord
100
AcDbRegAppTableRecord
  2
AcAecLayerStandard
 70
0
  0
APPID
  5
1BA
330
9
100
AcDbSymbolTableRecord
100
AcDbRegAppTableRecord
  2
ACAD_EXEMPT_FROM_CAD_STANDARDS
 70
0
  0
APPID
  5
237
330
9
100
AcDbSymbolTableRecord
100
AcDbRegAppTableRecord
  2
ACAD_DSTYLE_DIMBREAK
 70
0
  0
APPID
  5
28E
330
9
100
AcDbSymbolTableRecord
100
AcDbRegAppTableRecord
  2
ACAD_PSEXT
 70
0
  0
APPID
  5
4B0
330
9
100
AcDbSymbolTableRecord
100
AcDbRegAppTableRecord
  2
ACAD_NAV_VCDISPLAY
 70
0
  0
APPID
  5
4E3
330
9
100
AcDbSymbolTableRecord
100
AcDbRegAppTableRecord
  2
HATCHBACKGROUNDCOLOR
 70
0
  0
ENDTAB
  0
TABLE
  2
DIMSTYLE
  5
A
330
0
100
AcDbSymbolTable
 70
3
100
AcDbDimStyleTable
 71
3
340
242
340
27
340
E1
  0
DIMSTYLE
105
27
330
A
100
AcDbSymbolTableRecord
100
AcDbDimStyleTableRecord
  2
Standard
 70
0
 41
3.0
 42
2.0
 43
9.0
 44
5.0
140
3.0
141
2.0
147
2.0
340
11
1001
ACAD_DSTYLE_DIMJAG
1070
388
1040
38.0
1001
ACAD_DSTYLE_DIMBREAK
1070
391
1040
90.0
1001
ACAD_DSTYLE_DIMTALN
1070
392
1070
0
  0
DIMSTYLE
105
E1
330
A
100
AcDbSymbolTableRecord
100
AcDbDimStyleTableRecord
  2
Annotative
 70
0
 40
0.0
 41
3.0
 42
2.5
 43
10.0
 44
5.0
140
3.0
141
2.0
147
2.0
340
11
1001
AcadAnnotative
1000
AnnotativeData
1002
{
1070
1
1070
1
1002
}
1001
ACAD_DSTYLE_DIMJAG
1070
388
1040
38.0
1001
ACAD_DSTYLE_DIMBREAK
1070
391
1040
90.0
1001
ACAD_DSTYLE_DIMTALN
1070
392
1070
0
  0
DIMSTYLE
105
242
330
A
100
AcDbSymbolTableRecord
100
AcDbDimStyleTableRecord
  2
Civil-Metric
 70
0
 41
3.0
 42
1.5
 43
6.0
 44
3.0
 73
0
 74
0
 77
1
 78
3
 79
2
140
3.0
141
3.0
147
2.0
179
2
271
2
272
2
276
1
340
11
1001
ACAD_DSTYLE_DIMBREAK
1070
391
1040
3.0
1001
ACAD_DSTYLE_DIMJAG
1070
388
1040
38.0
1001
ACAD_DSTYLE_DIMTALN
1070
392
1070
0
  0
ENDTAB
  0
TABLE
  2
BLOCK_RECORD
  5
1
330
0
100
AcDbSymbolTable
 70
4
  0
BLOCK_RECORD
  5
1F
330
1
100
AcDbSymbolTableRecord
100
AcDbBlockTableRecord
  2
*Model_Space
340
530
 70
0
280
1
281
0
  0
BLOCK_RECORD
  5
58
330
1
100
AcDbSymbolTableRecord
100
AcDbBlockTableRecord
  2
*Paper_Space
340
531
 70
0
280
1
281
0
  0
BLOCK_RECORD
  5
238
330
1
100
AcDbSymbolTableRecord
100
AcDbBlockTableRecord
  2
_ArchTick
340
0
 70
0
280
1
281
0
  0
BLOCK_RECORD
  5
23C
330
1
100
AcDbSymbolTableRecord
100
AcDbBlockTableRecord
  2
_Open30
340
0
 70
0
280
1
281
0
  0
ENDTAB
  0
ENDSEC
  0
SECTION
  2
BLOCKS
  0
BLOCK
  5
23A
330
238
100
AcDbEntity
  8
0
100
AcDbBlockBegin
  2
_ArchTick
 70
0
 10
0.0
 20
0.0
 30
0.0
  3
_ArchTick
  1

  0
ENDBLK
  5
23B
330
238
100
AcDbEntity
  8
0
100
AcDbBlockEnd
  0
BLOCK
  5
20
330
1F
100
AcDbEntity
  8
0
100
AcDbBlockBegin
  2
*Model_Space
 70
0
 10
0.0
 20
0.0
 30
0.0
  3
*Model_Space
  1

  0
ENDBLK
  5
21
330
1F
100
AcDbEntity
  8
0
100
AcDbBlockEnd
  0
BLOCK
  5
5A
330
58
100
AcDbEntity
 67
1
  8
0
100
AcDbBlockBegin
  2
*Paper_Space
 70
0
 10
0.0
 20
0.0
 30
0.0
  3
*Paper_Space
  1

  0
ENDBLK
  5
5B
330
58
100
AcDbEntity
 67
1
  8
0
100
AcDbBlockEnd
  0
BLOCK
  5
240
330
23C
100
AcDbEntity
  8
0
100
AcDbBlockBegin
  2
_Open30
 70
0
 10
0.0
 20
0.0
 30
0.0
  3
_Open30
  1

  0
ENDBLK
  5
241
330
23C
100
AcDbEntity
  8
0
100
AcDbBlockEnd
  0
ENDSEC
  0
SECTION
  2
ENTITIES
  0
LWPOLYLINE
  5
CAD00001
  100
AcDbEntity
  3
CAD00001
  8
0
  67
0
  62
256
  100
AcDbPolyline
  90
37
  70
1
  10
259.650496
  20
11.000143999999999
  10
259.6302773333333
  20
11.195194666666666
  10
259.57437866666663
  20
11.383109333333332
  10
259.48161066666665
  20
11.555562666666665
  10
259.35673066666664
  20
11.706608
  10
259.2056853333333
  20
11.831487999999998
  10
259.033232
  20
11.924256
  10
258.8453173333333
  20
11.981344
  10
258.65026666666665
  20
12.000373333333332
  10
-11.000143999999999
  20
12.000373333333332
  10
-11.195194666666666
  20
11.981344
  10
-11.383109333333332
  20
11.924256
  10
-11.555562666666665
  20
11.831487999999998
  10
-11.706608
  20
11.706608
  10
-11.831487999999998
  20
11.555562666666665
  10
-11.924256
  20
11.383109333333332
  10
-11.981344
  20
11.195194666666666
  10
-12.000373333333332
  20
11.000143999999999
  10
-12.000373333333332
  20
-70.150448
  10
-11.981344
  20
-70.34549866666666
  10
-11.924256
  20
-70.532224
  10
-11.831487999999998
  20
-70.70586666666667
  10
-11.706608
  20
-70.856912
  10
-11.555562666666665
  20
-70.981792
  10
-11.383109333333332
  20
-71.07337066666666
  10
-11.195194666666666
  20
-71.13045866666666
  10
-11.000143999999999
  20
-71.14948799999999
  10
258.65026666666665
  20
-71.14948799999999
  10
258.8453173333333
  20
-71.13045866666666
  10
259.033232
  20
-71.07337066666666
  10
259.2056853333333
  20
-70.981792
  10
259.35673066666664
  20
-70.856912
  10
259.48161066666665
  20
-70.70586666666667
  10
259.57437866666663
  20
-70.532224
  10
259.6302773333333
  20
-70.34549866666666
  10
259.650496
  20
-70.150448
  10
259.650496
  20
11.000143999999999
  0
LWPOLYLINE
  5
CAD00002
  100
AcDbEntity
  3
CAD00002
  8
0
  67
0
  62
256
  100
AcDbPolyline
  90
33
  70
1
  10
258.12101333333334
  20
-68.44256533333333
  10
258.0353813333333
  20
-68.72443733333333
  10
257.8974186666666
  20
-68.983712
  10
257.7106933333333
  20
-69.21087466666667
  10
257.48353066666664
  20
-69.3976
  10
257.22425599999997
  20
-69.53556266666666
  10
256.942384
  20
-69.62119466666667
  10
256.649808
  20
-69.64973866666666
  10
256.357232
  20
-69.62119466666667
  10
256.07536
  20
-69.53556266666666
  10
255.81608533333332
  20
-69.3976
  10
255.58892266666666
  20
-69.21087466666667
  10
255.4021973333333
  20
-68.983712
  10
255.26423466666665
  20
-68.72443733333333
  10
255.17860266666665
  20
-68.44256533333333
  10
255.15005866666664
  20
-68.14998933333332
  10
255.17860266666665
  20
-67.85741333333333
  10
255.26423466666665
  20
-67.57554133333333
  10
255.4021973333333
  20
-67.31626666666666
  10
255.58892266666666
  20
-67.08910399999999
  10
255.81608533333332
  20
-66.90237866666666
  10
256.07536
  20
-66.764416
  10
256.357232
  20
-66.678784
  10
256.649808
  20
-66.65024
  10
256.942384
  20
-66.678784
  10
257.22425599999997
  20
-66.764416
  10
257.48353066666664
  20
-66.90237866666666
  10
257.7106933333333
  20
-67.08910399999999
  10
257.8974186666666
  20
-67.31626666666666
  10
258.0353813333333
  20
-67.57554133333333
  10
258.12101333333334
  20
-67.85741333333333
  10
258.15074666666663
  20
-68.14998933333332
  10
258.12101333333334
  20
-68.44256533333333
  0
LWPOLYLINE
  5
CAD00003
  100
AcDbEntity
  3
CAD00003
  8
0
  67
0
  62
256
  100
AcDbPolyline
  90
33
  70
1
  10
-7.529669333333333
  20
8.707109333333333
  10
-7.6141119999999995
  20
8.426426666666666
  10
-7.753264
  20
8.167152
  10
-7.939989333333333
  20
7.939989333333333
  10
-8.167152
  20
7.753264
  10
-8.426426666666666
  20
7.6141119999999995
  10
-8.707109333333333
  20
7.529669333333333
  10
-9.000874666666666
  20
7.499936
  10
-9.292261333333332
  20
7.529669333333333
  10
-9.574133333333332
  20
7.6141119999999995
  10
-9.833407999999999
  20
7.753264
  10
-10.060570666666665
  20
7.939989333333333
  10
-10.247295999999999
  20
8.167152
  10
-10.386448
  20
8.426426666666666
  10
-10.470890666666666
  20
8.707109333333333
  10
-10.499434666666666
  20
9.000874666666666
  10
-10.470890666666666
  20
9.292261333333332
  10
-10.386448
  20
9.574133333333332
  10
-10.247295999999999
  20
9.833407999999999
  10
-10.060570666666665
  20
10.060570666666665
  10
-9.833407999999999
  20
10.247295999999999
  10
-9.574133333333332
  20
10.386448
  10
-9.292261333333332
  20
10.470890666666666
  10
-9.000874666666666
  20
10.499434666666666
  10
-8.707109333333333
  20
10.470890666666666
  10
-8.426426666666666
  20
10.386448
  10
-8.167152
  20
10.247295999999999
  10
-7.939989333333333
  20
10.060570666666665
  10
-7.753264
  20
9.833407999999999
  10
-7.6141119999999995
  20
9.574133333333332
  10
-7.529669333333333
  20
9.292261333333332
  10
-7.499936
  20
9.000874666666666
  10
-7.529669333333333
  20
8.707109333333333
  0
LWPOLYLINE
  5
CAD00004
  100
AcDbEntity
  3
CAD00004
  8
0
  67
0
  62
256
  100
AcDbPolyline
  90
33
  70
1
  10
258.12101333333334
  20
8.707109333333333
  10
258.0353813333333
  20
8.426426666666666
  10
257.8974186666666
  20
8.167152
  10
257.7106933333333
  20
7.939989333333333
  10
257.48353066666664
  20
7.753264
  10
257.22425599999997
  20
7.6141119999999995
  10
256.942384
  20
7.529669333333333
  10
256.649808
  20
7.499936
  10
256.357232
  20
7.529669333333333
  10
256.07536
  20
7.6141119999999995
  10
255.81608533333332
  20
7.753264
  10
255.58892266666666
  20
7.939989333333333
  10
255.4021973333333
  20
8.167152
  10
255.26423466666665
  20
8.426426666666666
  10
255.17860266666665
  20
8.707109333333333
  10
255.15005866666664
  20
9.000874666666666
  10
255.17860266666665
  20
9.292261333333332
  10
255.26423466666665
  20
9.574133333333332
  10
255.4021973333333
  20
9.833407999999999
  10
255.58892266666666
  20
10.060570666666665
  10
255.81608533333332
  20
10.247295999999999
  10
256.07536
  20
10.386448
  10
256.357232
  20
10.470890666666666
  10
256.649808
  20
10.499434666666666
  10
256.942384
  20
10.470890666666666
  10
257.22425599999997
  20
10.386448
  10
257.48353066666664
  20
10.247295999999999
  10
257.7106933333333
  20
10.060570666666665
  10
257.8974186666666
  20
9.833407999999999
  10
258.0353813333333
  20
9.574133333333332
  10
258.12101333333334
  20
9.292261333333332
  10
258.15074666666663
  20
9.000874666666666
  10
258.12101333333334
  20
8.707109333333333
  0
LWPOLYLINE
  5
CAD00005
  100
AcDbEntity
  3
CAD00005
  8
0
  67
0
  62
256
  100
AcDbPolyline
  90
37
  70
1
  10
6.999226666666666
  20
-63.65074133333333
  10
6.989712
  20
-63.74707733333333
  10
6.962357333333333
  20
-63.841034666666665
  10
6.915973333333333
  20
-63.927856
  10
6.852938666666666
  20
-64.00397333333333
  10
6.778010666666666
  20
-64.06581866666666
  10
6.691189333333333
  20
-64.11220266666666
  10
6.597232
  20
-64.14074666666666
  10
6.500896
  20
-64.14907199999999
  10
-6.500896
  20
-64.14907199999999
  10
-6.597232
  20
-64.14074666666666
  10
-6.691189333333333
  20
-64.11220266666666
  10
-6.778010666666666
  20
-64.06581866666666
  10
-6.852938666666666
  20
-64.00397333333333
  10
-6.915973333333333
  20
-63.927856
  10
-6.962357333333333
  20
-63.841034666666665
  10
-6.989712
  20
-63.74707733333333
  10
-6.999226666666666
  20
-63.65074133333333
  10
-6.999226666666666
  20
-50.65013866666666
  10
-6.989712
  20
-50.55261333333333
  10
-6.962357333333333
  20
-50.458656
  10
-6.915973333333333
  20
-50.373023999999994
  10
-6.852938666666666
  20
-50.296906666666665
  10
-6.778010666666666
  20
-50.23506133333333
  10
-6.691189333333333
  20
-50.187487999999995
  10
-6.597232
  20
-50.16013333333333
  10
-6.500896
  20
-50.15061866666667
  10
6.500896
  20
-50.15061866666667
  10
6.597232
  20
-50.16013333333333
  10
6.691189333333333
  20
-50.187487999999995
  10
6.778010666666666
  20
-50.23506133333333
  10
6.852938666666666
  20
-50.296906666666665
  10
6.915973333333333
  20
-50.373023999999994
  10
6.962357333333333
  20
-50.458656
  10
6.989712
  20
-50.55261333333333
  10
6.999226666666666
  20
-50.65013866666666
  10
6.999226666666666
  20
-63.65074133333333
  0
LWPOLYLINE
  5
CAD00006
  100
AcDbEntity
  3
CAD00006
  8
0
  67
0
  62
256
  100
AcDbPolyline
  90
37
  70
1
  10
6.999226666666666
  20
-6.500896
  10
6.989712
  20
-6.597232
  10
6.962357333333333
  20
-6.691189333333333
  10
6.915973333333333
  20
-6.778010666666666
  10
6.852938666666666
  20
-6.852938666666666
  10
6.778010666666666
  20
-6.915973333333333
  10
6.691189333333333
  20
-6.962357333333333
  10
6.597232
  20
-6.989712
  10
6.500896
  20
-6.999226666666666
  10
-6.500896
  20
-6.999226666666666
  10
-6.597232
  20
-6.989712
  10
-6.691189333333333
  20
-6.962357333333333
  10
-6.778010666666666
  20
-6.915973333333333
  10
-6.852938666666666
  20
-6.852938666666666
  10
-6.915973333333333
  20
-6.778010666666666
  10
-6.962357333333333
  20
-6.691189333333333
  10
-6.989712
  20
-6.597232
  10
-6.999226666666666
  20
-6.500896
  10
-6.999226666666666
  20
6.500896
  10
-6.989712
  20
6.597232
  10
-6.962357333333333
  20
6.691189333333333
  10
-6.915973333333333
  20
6.778010666666666
  10
-6.852938666666666
  20
6.852938666666666
  10
-6.778010666666666
  20
6.915973333333333
  10
-6.691189333333333
  20
6.962357333333333
  10
-6.597232
  20
6.989712
  10
-6.500896
  20
6.999226666666666
  10
6.500896
  20
6.999226666666666
  10
6.597232
  20
6.989712
  10
6.691189333333333
  20
6.962357333333333
  10
6.778010666666666
  20
6.915973333333333
  10
6.852938666666666
  20
6.852938666666666
  10
6.915973333333333
  20
6.778010666666666
  10
6.962357333333333
  20
6.691189333333333
  10
6.989712
  20
6.597232
  10
6.999226666666666
  20
6.500896
  10
6.999226666666666
  20
-6.500896
  0
LWPOLYLINE
  5
CAD00007
  100
AcDbEntity
  3
CAD00007
  8
0
  67
0
  62
256
  100
AcDbPolyline
  90
37
  70
1
  10
254.14982933333332
  20
6.999226666666666
  10
254.24735466666664
  20
6.989712
  10
254.341312
  20
6.962357333333333
  10
254.4281333333333
  20
6.915973333333333
  10
254.5030613333333
  20
6.852938666666666
  10
254.566096
  20
6.778010666666666
  10
254.61129066666666
  20
6.691189333333333
  10
254.63983466666664
  20
6.597232
  10
254.65053866666665
  20
6.500896
  10
254.65053866666665
  20
-6.500896
  10
254.63983466666664
  20
-6.597232
  10
254.61129066666666
  20
-6.691189333333333
  10
254.566096
  20
-6.778010666666666
  10
254.5030613333333
  20
-6.852938666666666
  10
254.4281333333333
  20
-6.915973333333333
  10
254.341312
  20
-6.962357333333333
  10
254.24735466666664
  20
-6.989712
  10
254.14982933333332
  20
-6.999226666666666
  10
241.15041599999998
  20
-6.999226666666666
  10
241.0517013333333
  20
-6.989712
  10
240.9589333333333
  20
-6.962357333333333
  10
240.872112
  20
-6.915973333333333
  10
240.79599466666664
  20
-6.852938666666666
  10
240.7341493333333
  20
-6.778010666666666
  10
240.68895466666666
  20
-6.691189333333333
  10
240.6592213333333
  20
-6.597232
  10
240.64970666666665
  20
-6.500896
  10
240.64970666666665
  20
6.500896
  10
240.6592213333333
  20
6.597232
  10
240.68895466666666
  20
6.691189333333333
  10
240.7341493333333
  20
6.778010666666666
  10
240.79599466666664
  20
6.852938666666666
  10
240.872112
  20
6.915973333333333
  10
240.9589333333333
  20
6.962357333333333
  10
241.0517013333333
  20
6.989712
  10
241.15041599999998
  20
6.999226666666666
  10
254.14982933333332
  20
6.999226666666666
  0
LWPOLYLINE
  5
CAD00008
  100
AcDbEntity
  3
CAD00008
  8
0
  67
0
  62
256
  100
AcDbPolyline
  90
37
  70
1
  10
235.1002773333333
  20
6.999226666666666
  10
235.19780266666666
  20
6.989712
  10
235.29057066666664
  20
6.962357333333333
  10
235.377392
  20
6.915973333333333
  10
235.45350933333333
  20
6.852938666666666
  10
235.51535466666664
  20
6.778010666666666
  10
235.56173866666666
  20
6.691189333333333
  10
235.59028266666664
  20
6.597232
  10
235.59979733333333
  20
6.500896
  10
235.59979733333333
  20
-6.500896
  10
235.59028266666664
  20
-6.597232
  10
235.56173866666666
  20
-6.691189333333333
  10
235.51535466666664
  20
-6.778010666666666
  10
235.45350933333333
  20
-6.852938666666666
  10
235.377392
  20
-6.915973333333333
  10
235.29057066666664
  20
-6.962357333333333
  10
235.19780266666666
  20
-6.989712
  10
235.1002773333333
  20
-6.999226666666666
  10
222.09967466666666
  20
-6.999226666666666
  10
222.0021493333333
  20
-6.989712
  10
221.90938133333333
  20
-6.962357333333333
  10
221.82255999999998
  20
-6.915973333333333
  10
221.74644266666667
  20
-6.852938666666666
  10
221.68459733333333
  20
-6.778010666666666
  10
221.6382133333333
  20
-6.691189333333333
  10
221.60966933333333
  20
-6.597232
  10
221.60015466666664
  20
-6.500896
  10
221.60015466666664
  20
6.500896
  10
221.60966933333333
  20
6.597232
  10
221.6382133333333
  20
6.691189333333333
  10
221.68459733333333
  20
6.778010666666666
  10
221.74644266666667
  20
6.852938666666666
  10
221.82255999999998
  20
6.915973333333333
  10
221.90938133333333
  20
6.962357333333333
  10
222.0021493333333
  20
6.989712
  10
222.09967466666666
  20
6.999226666666666
  10
235.1002773333333
  20
6.999226666666666
  0
LWPOLYLINE
  5
CAD00009
  100
AcDbEntity
  3
CAD00009
  8
0
  67
0
  62
256
  100
AcDbPolyline
  90
37
  70
1
  10
216.049536
  20
6.999226666666666
  10
216.14825066666666
  20
6.989712
  10
216.24101866666666
  20
6.962357333333333
  10
216.32783999999998
  20
6.915973333333333
  10
216.40395733333332
  20
6.852938666666666
  10
216.46580266666666
  20
6.778010666666666
  10
216.5109973333333
  20
6.691189333333333
  10
216.54073066666666
  20
6.597232
  10
216.55024533333332
  20
6.500896
  10
216.55024533333332
  20
-6.500896
  10
216.54073066666666
  20
-6.597232
  10
216.5109973333333
  20
-6.691189333333333
  10
216.46580266666666
  20
-6.778010666666666
  10
216.40395733333332
  20
-6.852938666666666
  10
216.32783999999998
  20
-6.915973333333333
  10
216.24101866666666
  20
-6.962357333333333
  10
216.14825066666666
  20
-6.989712
  10
216.049536
  20
-6.999226666666666
  10
203.05012266666665
  20
-6.999226666666666
  10
202.95259733333333
  20
-6.989712
  10
202.85863999999998
  20
-6.962357333333333
  10
202.77181866666666
  20
-6.915973333333333
  10
202.69689066666666
  20
-6.852938666666666
  10
202.63385599999998
  20
-6.778010666666666
  10
202.58866133333333
  20
-6.691189333333333
  10
202.56011733333332
  20
-6.597232
  10
202.54941333333332
  20
-6.500896
  10
202.54941333333332
  20
6.500896
  10
202.56011733333332
  20
6.597232
  10
202.58866133333333
  20
6.691189333333333
  10
202.63385599999998
  20
6.778010666666666
  10
202.69689066666666
  20
6.852938666666666
  10
202.77181866666666
  20
6.915973333333333
  10
202.85863999999998
  20
6.962357333333333
  10
202.95259733333333
  20
6.989712
  10
203.05012266666665
  20
6.999226666666666
  10
216.049536
  20
6.999226666666666
  0
LWPOLYLINE
  5
CAD0000A
  100
AcDbEntity
  3
CAD0000A
  8
0
  67
0
  62
256
  100
AcDbPolyline
  90
37
  70
1
  10
196.99998399999998
  20
6.999226666666666
  10
197.09750933333333
  20
6.989712
  10
197.19146666666666
  20
6.962357333333333
  10
197.27828799999997
  20
6.915973333333333
  10
197.35321599999997
  20
6.852938666666666
  10
197.41625066666666
  20
6.778010666666666
  10
197.46144533333333
  20
6.691189333333333
  10
197.4899893333333
  20
6.597232
  10
197.50069333333332
  20
6.500896
  10
197.50069333333332
  20
-6.500896
  10
197.4899893333333
  20
-6.597232
  10
197.46144533333333
  20
-6.691189333333333
  10
197.41625066666666
  20
-6.778010666666666
  10
197.35321599999997
  20
-6.852938666666666
  10
197.27828799999997
  20
-6.915973333333333
  10
197.19146666666666
  20
-6.962357333333333
  10
197.09750933333333
  20
-6.989712
  10
196.99998399999998
  20
-6.999226666666666
  10
184.00057066666665
  20
-6.999226666666666
  10
183.90185599999998
  20
-6.989712
  10
183.80908799999997
  20
-6.962357333333333
  10
183.72226666666666
  20
-6.915973333333333
  10
183.6461493333333
  20
-6.852938666666666
  10
183.58430399999997
  20
-6.778010666666666
  10
183.53910933333333
  20
-6.691189333333333
  10
183.50937599999997
  20
-6.597232
  10
183.4998613333333
  20
-6.500896
  10
183.4998613333333
  20
6.500896
  10
183.50937599999997
  20
6.597232
  10
183.53910933333333
  20
6.691189333333333
  10
183.58430399999997
  20
6.778010666666666
  10
183.6461493333333
  20
6.852938666666666
  10
183.72226666666666
  20
6.915973333333333
  10
183.80908799999997
  20
6.962357333333333
  10
183.90185599999998
  20
6.989712
  10
184.00057066666665
  20
6.999226666666666
  10
196.99998399999998
  20
6.999226666666666
  0
LWPOLYLINE
  5
CAD0000B
  100
AcDbEntity
  3
CAD0000B
  8
0
  67
0
  62
256
  100
AcDbPolyline
  90
37
  70
1
  10
177.95043199999998
  20
6.999226666666666
  10
178.04795733333333
  20
6.989712
  10
178.14072533333334
  20
6.962357333333333
  10
178.22754666666665
  20
6.915973333333333
  10
178.303664
  20
6.852938666666666
  10
178.36550933333334
  20
6.778010666666666
  10
178.41189333333332
  20
6.691189333333333
  10
178.44043733333334
  20
6.597232
  10
178.449952
  20
6.500896
  10
178.449952
  20
-6.500896
  10
178.44043733333334
  20
-6.597232
  10
178.41189333333332
  20
-6.691189333333333
  10
178.36550933333334
  20
-6.778010666666666
  10
178.303664
  20
-6.852938666666666
  10
178.22754666666665
  20
-6.915973333333333
  10
178.14072533333334
  20
-6.962357333333333
  10
178.04795733333333
  20
-6.989712
  10
177.95043199999998
  20
-6.999226666666666
  10
164.94982933333333
  20
-6.999226666666666
  10
164.852304
  20
-6.989712
  10
164.759536
  20
-6.962357333333333
  10
164.67271466666665
  20
-6.915973333333333
  10
164.59659733333334
  20
-6.852938666666666
  10
164.534752
  20
-6.778010666666666
  10
164.48836799999998
  20
-6.691189333333333
  10
164.459824
  20
-6.597232
  10
164.45030933333334
  20
-6.500896
  10
164.45030933333334
  20
6.500896
  10
164.459824
  20
6.597232
  10
164.48836799999998
  20
6.691189333333333
  10
164.534752
  20
6.778010666666666
  10
164.59659733333334
  20
6.852938666666666
  10
164.67271466666665
  20
6.915973333333333
  10
164.759536
  20
6.962357333333333
  10
164.852304
  20
6.989712
  10
164.94982933333333
  20
6.999226666666666
  10
177.95043199999998
  20
6.999226666666666
  0
LWPOLYLINE
  5
CAD0000C
  100
AcDbEntity
  3
CAD0000C
  8
0
  67
0
  62
256
  100
AcDbPolyline
  90
37
  70
1
  10
158.89969066666666
  20
6.999226666666666
  10
158.99721599999998
  20
6.989712
  10
159.09117333333333
  20
6.962357333333333
  10
159.17799466666665
  20
6.915973333333333
  10
159.254112
  20
6.852938666666666
  10
159.31595733333333
  20
6.778010666666666
  10
159.36115199999998
  20
6.691189333333333
  10
159.39088533333333
  20
6.597232
  10
159.4004
  20
6.500896
  10
159.4004
  20
-6.500896
  10
159.39088533333333
  20
-6.597232
  10
159.36115199999998
  20
-6.691189333333333
  10
159.31595733333333
  20
-6.778010666666666
  10
159.254112
  20
-6.852938666666666
  10
159.17799466666665
  20
-6.915973333333333
  10
159.09117333333333
  20
-6.962357333333333
  10
158.99721599999998
  20
-6.989712
  10
158.89969066666666
  20
-6.999226666666666
  10
145.90027733333332
  20
-6.999226666666666
  10
145.802752
  20
-6.989712
  10
145.70879466666665
  20
-6.962357333333333
  10
145.62197333333333
  20
-6.915973333333333
  10
145.54704533333333
  20
-6.852938666666666
  10
145.48401066666665
  20
-6.778010666666666
  10
145.43762666666666
  20
-6.691189333333333
  10
145.410272
  20
-6.597232
  10
145.399568
  20
-6.500896
  10
145.399568
  20
6.500896
  10
145.410272
  20
6.597232
  10
145.43762666666666
  20
6.691189333333333
  10
145.48401066666665
  20
6.778010666666666
  10
145.54704533333333
  20
6.852938666666666
  10
145.62197333333333
  20
6.915973333333333
  10
145.70879466666665
  20
6.962357333333333
  10
145.802752
  20
6.989712
  10
145.90027733333332
  20
6.999226666666666
  10
158.89969066666666
  20
6.999226666666666
  0
LWPOLYLINE
  5
CAD0000D
  100
AcDbEntity
  3
CAD0000D
  8
0
  67
0
  62
256
  100
AcDbPolyline
  90
37
  70
1
  10
139.85013866666665
  20
6.999226666666666
  10
139.94647466666666
  20
6.989712
  10
140.04162133333332
  20
6.962357333333333
  10
140.12844266666667
  20
6.915973333333333
  10
140.20337066666667
  20
6.852938666666666
  10
140.26640533333332
  20
6.778010666666666
  10
140.3116
  20
6.691189333333333
  10
140.34014399999998
  20
6.597232
  10
140.35084799999998
  20
6.500896
  10
140.35084799999998
  20
-6.500896
  10
140.34014399999998
  20
-6.597232
  10
140.3116
  20
-6.691189333333333
  10
140.26640533333332
  20
-6.778010666666666
  10
140.20337066666667
  20
-6.852938666666666
  10
140.12844266666667
  20
-6.915973333333333
  10
140.04162133333332
  20
-6.962357333333333
  10
139.94647466666666
  20
-6.989712
  10
139.85013866666665
  20
-6.999226666666666
  10
126.85072533333333
  20
-6.999226666666666
  10
126.75201066666666
  20
-6.989712
  10
126.65924266666666
  20
-6.962357333333333
  10
126.57242133333332
  20
-6.915973333333333
  10
126.496304
  20
-6.852938666666666
  10
126.43445866666666
  20
-6.778010666666666
  10
126.38807466666665
  20
-6.691189333333333
  10
126.35953066666666
  20
-6.597232
  10
126.350016
  20
-6.500896
  10
126.350016
  20
6.500896
  10
126.35953066666666
  20
6.597232
  10
126.38807466666665
  20
6.691189333333333
  10
126.43445866666666
  20
6.778010666666666
  10
126.496304
  20
6.852938666666666
  10
126.57242133333332
  20
6.915973333333333
  10
126.65924266666666
  20
6.962357333333333
  10
126.75201066666666
  20
6.989712
  10
126.85072533333333
  20
6.999226666666666
  10
139.85013866666665
  20
6.999226666666666
  0
LWPOLYLINE
  5
CAD0000E
  100
AcDbEntity
  3
CAD0000E
  8
0
  67
0
  62
256
  100
AcDbPolyline
  90
37
  70
1
  10
120.80058666666666
  20
6.999226666666666
  10
120.89692266666665
  20
6.989712
  10
120.99087999999999
  20
6.962357333333333
  10
121.07770133333332
  20
6.915973333333333
  10
121.15381866666665
  20
6.852938666666666
  10
121.21566399999999
  20
6.778010666666666
  10
121.262048
  20
6.691189333333333
  10
121.29059199999999
  20
6.597232
  10
121.30010666666666
  20
6.500896
  10
121.30010666666666
  20
-6.500896
  10
121.29059199999999
  20
-6.597232
  10
121.262048
  20
-6.691189333333333
  10
121.21566399999999
  20
-6.778010666666666
  10
121.15381866666665
  20
-6.852938666666666
  10
121.07770133333332
  20
-6.915973333333333
  10
120.99087999999999
  20
-6.962357333333333
  10
120.89692266666665
  20
-6.989712
  10
120.80058666666666
  20
-6.999226666666666
  10
107.799984
  20
-6.999226666666666
  10
107.70245866666666
  20
-6.989712
  10
107.60850133333332
  20
-6.962357333333333
  10
107.52286933333333
  20
-6.915973333333333
  10
107.44675199999999
  20
-6.852938666666666
  10
107.38490666666667
  20
-6.778010666666666
  10
107.33733333333333
  20
-6.691189333333333
  10
107.30997866666667
  20
-6.597232
  10
107.30046399999999
  20
-6.500896
  10
107.30046399999999
  20
6.500896
  10
107.30997866666667
  20
6.597232
  10
107.33733333333333
  20
6.691189333333333
  10
107.38490666666667
  20
6.778010666666666
  10
107.44675199999999
  20
6.852938666666666
  10
107.52286933333333
  20
6.915973333333333
  10
107.60850133333332
  20
6.962357333333333
  10
107.70245866666666
  20
6.989712
  10
107.799984
  20
6.999226666666666
  10
120.80058666666666
  20
6.999226666666666
  0
LWPOLYLINE
  5
CAD0000F
  100
AcDbEntity
  3
CAD0000F
  8
0
  67
0
  62
256
  100
AcDbPolyline
  90
37
  70
1
  10
101.74984533333333
  20
6.999226666666666
  10
101.84737066666666
  20
6.989712
  10
101.941328
  20
6.962357333333333
  10
102.02814933333333
  20
6.915973333333333
  10
102.10426666666666
  20
6.852938666666666
  10
102.166112
  20
6.778010666666666
  10
102.21130666666666
  20
6.691189333333333
  10
102.24104
  20
6.597232
  10
102.25055466666666
  20
6.500896
  10
102.25055466666666
  20
-6.500896
  10
102.24104
  20
-6.597232
  10
102.21130666666666
  20
-6.691189333333333
  10
102.166112
  20
-6.778010666666666
  10
102.10426666666666
  20
-6.852938666666666
  10
102.02814933333333
  20
-6.915973333333333
  10
101.941328
  20
-6.962357333333333
  10
101.84737066666666
  20
-6.989712
  10
101.74984533333333
  20
-6.999226666666666
  10
88.75043199999999
  20
-6.999226666666666
  10
88.65290666666667
  20
-6.989712
  10
88.55775999999999
  20
-6.962357333333333
  10
88.472128
  20
-6.915973333333333
  10
88.3972
  20
-6.852938666666666
  10
88.33416533333333
  20
-6.778010666666666
  10
88.28778133333333
  20
-6.691189333333333
  10
88.26042666666666
  20
-6.597232
  10
88.24972266666666
  20
-6.500896
  10
88.24972266666666
  20
6.500896
  10
88.26042666666666
  20
6.597232
  10
88.28778133333333
  20
6.691189333333333
  10
88.33416533333333
  20
6.778010666666666
  10
88.3972
  20
6.852938666666666
  10
88.472128
  20
6.915973333333333
  10
88.55775999999999
  20
6.962357333333333
  10
88.65290666666667
  20
6.989712
  10
88.75043199999999
  20
6.999226666666666
  10
101.74984533333333
  20
6.999226666666666
  0
LWPOLYLINE
  5
CAD00010
  100
AcDbEntity
  3
CAD00010
  8
0
  67
0
  62
256
  100
AcDbPolyline
  90
37
  70
1
  10
82.70029333333333
  20
6.999226666666666
  10
82.79662933333333
  20
6.989712
  10
82.891776
  20
6.962357333333333
  10
82.97859733333333
  20
6.915973333333333
  10
83.05352533333333
  20
6.852938666666666
  10
83.11655999999999
  20
6.778010666666666
  10
83.16175466666667
  20
6.691189333333333
  10
83.19029866666666
  20
6.597232
  10
83.19981333333332
  20
6.500896
  10
83.19981333333332
  20
-6.500896
  10
83.19029866666666
  20
-6.597232
  10
83.16175466666667
  20
-6.691189333333333
  10
83.11655999999999
  20
-6.778010666666666
  10
83.05352533333333
  20
-6.852938666666666
  10
82.97859733333333
  20
-6.915973333333333
  10
82.891776
  20
-6.962357333333333
  10
82.79662933333333
  20
-6.989712
  10
82.70029333333333
  20
-6.999226666666666
  10
69.70088
  20
-6.999226666666666
  10
69.60216533333333
  20
-6.989712
  10
69.508208
  20
-6.962357333333333
  10
69.42257599999999
  20
-6.915973333333333
  10
69.34645866666666
  20
-6.852938666666666
  10
69.28461333333333
  20
-6.778010666666666
  10
69.23822933333332
  20
-6.691189333333333
  10
69.20968533333333
  20
-6.597232
  10
69.20017066666666
  20
-6.500896
  10
69.20017066666666
  20
6.500896
  10
69.20968533333333
  20
6.597232
  10
69.23822933333332
  20
6.691189333333333
  10
69.28461333333333
  20
6.778010666666666
  10
69.34645866666666
  20
6.852938666666666
  10
69.42257599999999
  20
6.915973333333333
  10
69.508208
  20
6.962357333333333
  10
69.60216533333333
  20
6.989712
  10
69.70088
  20
6.999226666666666
  10
82.70029333333333
  20
6.999226666666666
  0
LWPOLYLINE
  5
CAD00011
  100
AcDbEntity
  3
CAD00011
  8
0
  67
0
  62
256
  100
AcDbPolyline
  90
37
  70
1
  10
63.65074133333333
  20
6.999226666666666
  10
63.74707733333333
  20
6.989712
  10
63.841034666666665
  20
6.962357333333333
  10
63.927856
  20
6.915973333333333
  10
64.00397333333333
  20
6.852938666666666
  10
64.06581866666666
  20
6.778010666666666
  10
64.11220266666666
  20
6.691189333333333
  10
64.14074666666666
  20
6.597232
  10
64.14907199999999
  20
6.500896
  10
64.14907199999999
  20
-6.500896
  10
64.14074666666666
  20
-6.597232
  10
64.11220266666666
  20
-6.691189333333333
  10
64.06581866666666
  20
-6.778010666666666
  10
64.00397333333333
  20
-6.852938666666666
  10
63.927856
  20
-6.915973333333333
  10
63.841034666666665
  20
-6.962357333333333
  10
63.74707733333333
  20
-6.989712
  10
63.65074133333333
  20
-6.999226666666666
  10
50.65013866666666
  20
-6.999226666666666
  10
50.55261333333333
  20
-6.989712
  10
50.458656
  20
-6.962357333333333
  10
50.373023999999994
  20
-6.915973333333333
  10
50.296906666666665
  20
-6.852938666666666
  10
50.23506133333333
  20
-6.778010666666666
  10
50.187487999999995
  20
-6.691189333333333
  10
50.16013333333333
  20
-6.597232
  10
50.15061866666667
  20
-6.500896
  10
50.15061866666667
  20
6.500896
  10
50.16013333333333
  20
6.597232
  10
50.187487999999995
  20
6.691189333333333
  10
50.23506133333333
  20
6.778010666666666
  10
50.296906666666665
  20
6.852938666666666
  10
50.373023999999994
  20
6.915973333333333
  10
50.458656
  20
6.962357333333333
  10
50.55261333333333
  20
6.989712
  10
50.65013866666666
  20
6.999226666666666
  10
63.65074133333333
  20
6.999226666666666
  0
LWPOLYLINE
  5
CAD00012
  100
AcDbEntity
  3
CAD00012
  8
0
  67
0
  62
256
  100
AcDbPolyline
  90
37
  70
1
  10
44.599999999999994
  20
6.999226666666666
  10
44.69752533333333
  20
6.989712
  10
44.79148266666667
  20
6.962357333333333
  10
44.878304
  20
6.915973333333333
  10
44.95442133333333
  20
6.852938666666666
  10
45.01626666666667
  20
6.778010666666666
  10
45.061461333333334
  20
6.691189333333333
  10
45.09119466666667
  20
6.597232
  10
45.09952
  20
6.500896
  10
45.09952
  20
-6.500896
  10
45.09119466666667
  20
-6.597232
  10
45.061461333333334
  20
-6.691189333333333
  10
45.01626666666667
  20
-6.778010666666666
  10
44.95442133333333
  20
-6.852938666666666
  10
44.878304
  20
-6.915973333333333
  10
44.79148266666667
  20
-6.962357333333333
  10
44.69752533333333
  20
-6.989712
  10
44.599999999999994
  20
-6.999226666666666
  10
31.600586666666665
  20
-6.999226666666666
  10
31.50306133333333
  20
-6.989712
  10
31.407914666666663
  20
-6.962357333333333
  10
31.322282666666666
  20
-6.915973333333333
  10
31.247354666666666
  20
-6.852938666666666
  10
31.18432
  20
-6.778010666666666
  10
31.137935999999996
  20
-6.691189333333333
  10
31.110581333333332
  20
-6.597232
  10
31.099877333333332
  20
-6.500896
  10
31.099877333333332
  20
6.500896
  10
31.110581333333332
  20
6.597232
  10
31.137935999999996
  20
6.691189333333333
  10
31.18432
  20
6.778010666666666
  10
31.247354666666666
  20
6.852938666666666
  10
31.322282666666666
  20
6.915973333333333
  10
31.407914666666663
  20
6.962357333333333
  10
31.50306133333333
  20
6.989712
  10
31.600586666666665
  20
6.999226666666666
  10
44.599999999999994
  20
6.999226666666666
  0
LWPOLYLINE
  5
CAD00013
  100
AcDbEntity
  3
CAD00013
  8
0
  67
0
  62
256
  100
AcDbPolyline
  90
37
  70
1
  10
25.550448
  20
6.999226666666666
  10
25.646783999999997
  20
6.989712
  10
25.741930666666665
  20
6.962357333333333
  10
25.828751999999998
  20
6.915973333333333
  10
25.902490666666665
  20
6.852938666666666
  10
25.966714666666665
  20
6.778010666666666
  10
26.01190933333333
  20
6.691189333333333
  10
26.040453333333332
  20
6.597232
  10
26.049968
  20
6.500896
  10
26.049968
  20
-6.500896
  10
26.040453333333332
  20
-6.597232
  10
26.01190933333333
  20
-6.691189333333333
  10
25.966714666666665
  20
-6.778010666666666
  10
25.902490666666665
  20
-6.852938666666666
  10
25.828751999999998
  20
-6.915973333333333
  10
25.741930666666665
  20
-6.962357333333333
  10
25.646783999999997
  20
-6.989712
  10
25.550448
  20
-6.999226666666666
  10
12.551034666666666
  20
-6.999226666666666
  10
12.452319999999999
  20
-6.989712
  10
12.358362666666666
  20
-6.962357333333333
  10
12.272730666666666
  20
-6.915973333333333
  10
12.196613333333332
  20
-6.852938666666666
  10
12.133578666666667
  20
-6.778010666666666
  10
12.088384
  20
-6.691189333333333
  10
12.05984
  20
-6.597232
  10
12.050325333333333
  20
-6.500896
  10
12.050325333333333
  20
6.500896
  10
12.05984
  20
6.597232
  10
12.088384
  20
6.691189333333333
  10
12.133578666666667
  20
6.778010666666666
  10
12.196613333333332
  20
6.852938666666666
  10
12.272730666666666
  20
6.915973333333333
  10
12.358362666666666
  20
6.962357333333333
  10
12.452319999999999
  20
6.989712
  10
12.551034666666666
  20
6.999226666666666
  10
25.550448
  20
6.999226666666666
  0
LWPOLYLINE
  5
CAD00014
  100
AcDbEntity
  3
CAD00014
  8
0
  67
0
  62
256
  100
AcDbPolyline
  90
37
  70
1
  10
45.09952
  20
-44.599999999999994
  10
45.09119466666667
  20
-44.69752533333333
  10
45.061461333333334
  20
-44.79148266666667
  10
45.01626666666667
  20
-44.878304
  10
44.95442133333333
  20
-44.95442133333333
  10
44.878304
  20
-45.01626666666667
  10
44.79148266666667
  20
-45.061461333333334
  10
44.69752533333333
  20
-45.09119466666667
  10
44.599999999999994
  20
-45.09952
  10
31.600586666666665
  20
-45.09952
  10
31.50306133333333
  20
-45.09119466666667
  10
31.407914666666663
  20
-45.061461333333334
  10
31.322282666666666
  20
-45.01626666666667
  10
31.247354666666666
  20
-44.95442133333333
  10
31.18432
  20
-44.878304
  10
31.137935999999996
  20
-44.79148266666667
  10
31.110581333333332
  20
-44.69752533333333
  10
31.099877333333332
  20
-44.599999999999994
  10
31.099877333333332
  20
-31.600586666666665
  10
31.110581333333332
  20
-31.50306133333333
  10
31.137935999999996
  20
-31.407914666666663
  10
31.18432
  20
-31.322282666666666
  10
31.247354666666666
  20
-31.247354666666666
  10
31.322282666666666
  20
-31.18432
  10
31.407914666666663
  20
-31.137935999999996
  10
31.50306133333333
  20
-31.110581333333332
  10
31.600586666666665
  20
-31.099877333333332
  10
44.599999999999994
  20
-31.099877333333332
  10
44.69752533333333
  20
-31.110581333333332
  10
44.79148266666667
  20
-31.137935999999996
  10
44.878304
  20
-31.18432
  10
44.95442133333333
  20
-31.247354666666666
  10
45.01626666666667
  20
-31.322282666666666
  10
45.061461333333334
  20
-31.407914666666663
  10
45.09119466666667
  20
-31.50306133333333
  10
45.09952
  20
-31.600586666666665
  10
45.09952
  20
-44.599999999999994
  0
LWPOLYLINE
  5
CAD00015
  100
AcDbEntity
  3
CAD00015
  8
0
  67
0
  62
256
  100
AcDbPolyline
  90
37
  70
1
  10
64.14907199999999
  20
-44.599999999999994
  10
64.14074666666666
  20
-44.69752533333333
  10
64.11220266666666
  20
-44.79148266666667
  10
64.06581866666666
  20
-44.878304
  10
64.00397333333333
  20
-44.95442133333333
  10
63.927856
  20
-45.01626666666667
  10
63.841034666666665
  20
-45.061461333333334
  10
63.74707733333333
  20
-45.09119466666667
  10
63.65074133333333
  20
-45.09952
  10
50.65013866666666
  20
-45.09952
  10
50.55261333333333
  20
-45.09119466666667
  10
50.458656
  20
-45.061461333333334
  10
50.373023999999994
  20
-45.01626666666667
  10
50.296906666666665
  20
-44.95442133333333
  10
50.23506133333333
  20
-44.878304
  10
50.187487999999995
  20
-44.79148266666667
  10
50.16013333333333
  20
-44.69752533333333
  10
50.15061866666667
  20
-44.599999999999994
  10
50.15061866666667
  20
-31.600586666666665
  10
50.16013333333333
  20
-31.50306133333333
  10
50.187487999999995
  20
-31.407914666666663
  10
50.23506133333333
  20
-31.322282666666666
  10
50.296906666666665
  20
-31.247354666666666
  10
50.373023999999994
  20
-31.18432
  10
50.458656
  20
-31.137935999999996
  10
50.55261333333333
  20
-31.110581333333332
  10
50.65013866666666
  20
-31.099877333333332
  10
63.65074133333333
  20
-31.099877333333332
  10
63.74707733333333
  20
-31.110581333333332
  10
63.841034666666665
  20
-31.137935999999996
  10
63.927856
  20
-31.18432
  10
64.00397333333333
  20
-31.247354666666666
  10
64.06581866666666
  20
-31.322282666666666
  10
64.11220266666666
  20
-31.407914666666663
  10
64.14074666666666
  20
-31.50306133333333
  10
64.14907199999999
  20
-31.600586666666665
  10
64.14907199999999
  20
-44.599999999999994
  0
LWPOLYLINE
  5
CAD00016
  100
AcDbEntity
  3
CAD00016
  8
0
  67
0
  62
256
  100
AcDbPolyline
  90
37
  70
1
  10
83.19981333333332
  20
-44.599999999999994
  10
83.19029866666666
  20
-44.69752533333333
  10
83.16175466666667
  20
-44.79148266666667
  10
83.11655999999999
  20
-44.878304
  10
83.05352533333333
  20
-44.95442133333333
  10
82.97859733333333
  20
-45.01626666666667
  10
82.891776
  20
-45.061461333333334
  10
82.79662933333333
  20
-45.09119466666667
  10
82.70029333333333
  20
-45.09952
  10
69.70088
  20
-45.09952
  10
69.60216533333333
  20
-45.09119466666667
  10
69.508208
  20
-45.061461333333334
  10
69.42257599999999
  20
-45.01626666666667
  10
69.34645866666666
  20
-44.95442133333333
  10
69.28461333333333
  20
-44.878304
  10
69.23822933333332
  20
-44.79148266666667
  10
69.20968533333333
  20
-44.69752533333333
  10
69.20017066666666
  20
-44.599999999999994
  10
69.20017066666666
  20
-31.600586666666665
  10
69.20968533333333
  20
-31.50306133333333
  10
69.23822933333332
  20
-31.407914666666663
  10
69.28461333333333
  20
-31.322282666666666
  10
69.34645866666666
  20
-31.247354666666666
  10
69.42257599999999
  20
-31.18432
  10
69.508208
  20
-31.137935999999996
  10
69.60216533333333
  20
-31.110581333333332
  10
69.70088
  20
-31.099877333333332
  10
82.70029333333333
  20
-31.099877333333332
  10
82.79662933333333
  20
-31.110581333333332
  10
82.891776
  20
-31.137935999999996
  10
82.97859733333333
  20
-31.18432
  10
83.05352533333333
  20
-31.247354666666666
  10
83.11655999999999
  20
-31.322282666666666
  10
83.16175466666667
  20
-31.407914666666663
  10
83.19029866666666
  20
-31.50306133333333
  10
83.19981333333332
  20
-31.600586666666665
  10
83.19981333333332
  20
-44.599999999999994
  0
LWPOLYLINE
  5
CAD00017
  100
AcDbEntity
  3
CAD00017
  8
0
  67
0
  62
256
  100
AcDbPolyline
  90
37
  70
1
  10
102.25055466666666
  20
-44.599999999999994
  10
102.24104
  20
-44.69752533333333
  10
102.21130666666666
  20
-44.79148266666667
  10
102.166112
  20
-44.878304
  10
102.10426666666666
  20
-44.95442133333333
  10
102.02814933333333
  20
-45.01626666666667
  10
101.941328
  20
-45.061461333333334
  10
101.84737066666666
  20
-45.09119466666667
  10
101.74984533333333
  20
-45.09952
  10
88.75043199999999
  20
-45.09952
  10
88.65290666666667
  20
-45.09119466666667
  10
88.55775999999999
  20
-45.061461333333334
  10
88.472128
  20
-45.01626666666667
  10
88.3972
  20
-44.95442133333333
  10
88.33416533333333
  20
-44.878304
  10
88.28778133333333
  20
-44.79148266666667
  10
88.26042666666666
  20
-44.69752533333333
  10
88.24972266666666
  20
-44.599999999999994
  10
88.24972266666666
  20
-31.600586666666665
  10
88.26042666666666
  20
-31.50306133333333
  10
88.28778133333333
  20
-31.407914666666663
  10
88.33416533333333
  20
-31.322282666666666
  10
88.3972
  20
-31.247354666666666
  10
88.472128
  20
-31.18432
  10
88.55775999999999
  20
-31.137935999999996
  10
88.65290666666667
  20
-31.110581333333332
  10
88.75043199999999
  20
-31.099877333333332
  10
101.74984533333333
  20
-31.099877333333332
  10
101.84737066666666
  20
-31.110581333333332
  10
101.941328
  20
-31.137935999999996
  10
102.02814933333333
  20
-31.18432
  10
102.10426666666666
  20
-31.247354666666666
  10
102.166112
  20
-31.322282666666666
  10
102.21130666666666
  20
-31.407914666666663
  10
102.24104
  20
-31.50306133333333
  10
102.25055466666666
  20
-31.600586666666665
  10
102.25055466666666
  20
-44.599999999999994
  0
LWPOLYLINE
  5
CAD00018
  100
AcDbEntity
  3
CAD00018
  8
0
  67
0
  62
256
  100
AcDbPolyline
  90
37
  70
1
  10
121.30010666666666
  20
-44.599999999999994
  10
121.29059199999999
  20
-44.69752533333333
  10
121.262048
  20
-44.79148266666667
  10
121.21566399999999
  20
-44.878304
  10
121.15381866666665
  20
-44.95442133333333
  10
121.07770133333332
  20
-45.01626666666667
  10
120.99087999999999
  20
-45.061461333333334
  10
120.89692266666665
  20
-45.09119466666667
  10
120.80058666666666
  20
-45.09952
  10
107.799984
  20
-45.09952
  10
107.70245866666666
  20
-45.09119466666667
  10
107.60850133333332
  20
-45.061461333333334
  10
107.52286933333333
  20
-45.01626666666667
  10
107.44675199999999
  20
-44.95442133333333
  10
107.38490666666667
  20
-44.878304
  10
107.33733333333333
  20
-44.79148266666667
  10
107.30997866666667
  20
-44.69752533333333
  10
107.30046399999999
  20
-44.599999999999994
  10
107.30046399999999
  20
-31.600586666666665
  10
107.30997866666667
  20
-31.50306133333333
  10
107.33733333333333
  20
-31.407914666666663
  10
107.38490666666667
  20
-31.322282666666666
  10
107.44675199999999
  20
-31.247354666666666
  10
107.52286933333333
  20
-31.18432
  10
107.60850133333332
  20
-31.137935999999996
  10
107.70245866666666
  20
-31.110581333333332
  10
107.799984
  20
-31.099877333333332
  10
120.80058666666666
  20
-31.099877333333332
  10
120.89692266666665
  20
-31.110581333333332
  10
120.99087999999999
  20
-31.137935999999996
  10
121.07770133333332
  20
-31.18432
  10
121.15381866666665
  20
-31.247354666666666
  10
121.21566399999999
  20
-31.322282666666666
  10
121.262048
  20
-31.407914666666663
  10
121.29059199999999
  20
-31.50306133333333
  10
121.30010666666666
  20
-31.600586666666665
  10
121.30010666666666
  20
-44.599999999999994
  0
LWPOLYLINE
  5
CAD00019
  100
AcDbEntity
  3
CAD00019
  8
0
  67
0
  62
256
  100
AcDbPolyline
  90
37
  70
1
  10
140.35084799999998
  20
-44.599999999999994
  10
140.34014399999998
  20
-44.69752533333333
  10
140.3116
  20
-44.79148266666667
  10
140.26640533333332
  20
-44.878304
  10
140.20337066666667
  20
-44.95442133333333
  10
140.12844266666667
  20
-45.01626666666667
  10
140.04162133333332
  20
-45.061461333333334
  10
139.94647466666666
  20
-45.09119466666667
  10
139.85013866666665
  20
-45.09952
  10
126.85072533333333
  20
-45.09952
  10
126.75201066666666
  20
-45.09119466666667
  10
126.65924266666666
  20
-45.061461333333334
  10
126.57242133333332
  20
-45.01626666666667
  10
126.496304
  20
-44.95442133333333
  10
126.43445866666666
  20
-44.878304
  10
126.38807466666665
  20
-44.79148266666667
  10
126.35953066666666
  20
-44.69752533333333
  10
126.350016
  20
-44.599999999999994
  10
126.350016
  20
-31.600586666666665
  10
126.35953066666666
  20
-31.50306133333333
  10
126.38807466666665
  20
-31.407914666666663
  10
126.43445866666666
  20
-31.322282666666666
  10
126.496304
  20
-31.247354666666666
  10
126.57242133333332
  20
-31.18432
  10
126.65924266666666
  20
-31.137935999999996
  10
126.75201066666666
  20
-31.110581333333332
  10
126.85072533333333
  20
-31.099877333333332
  10
139.85013866666665
  20
-31.099877333333332
  10
139.94647466666666
  20
-31.110581333333332
  10
140.04162133333332
  20
-31.137935999999996
  10
140.12844266666667
  20
-31.18432
  10
140.20337066666667
  20
-31.247354666666666
  10
140.26640533333332
  20
-31.322282666666666
  10
140.3116
  20
-31.407914666666663
  10
140.34014399999998
  20
-31.50306133333333
  10
140.35084799999998
  20
-31.600586666666665
  10
140.35084799999998
  20
-44.599999999999994
  0
LWPOLYLINE
  5
CAD0001A
  100
AcDbEntity
  3
CAD0001A
  8
0
  67
0
  62
256
  100
AcDbPolyline
  90
37
  70
1
  10
159.4004
  20
-44.599999999999994
  10
159.39088533333333
  20
-44.69752533333333
  10
159.36115199999998
  20
-44.79148266666667
  10
159.31595733333333
  20
-44.878304
  10
159.254112
  20
-44.95442133333333
  10
159.17799466666665
  20
-45.01626666666667
  10
159.09117333333333
  20
-45.061461333333334
  10
158.99721599999998
  20
-45.09119466666667
  10
158.89969066666666
  20
-45.09952
  10
145.90027733333332
  20
-45.09952
  10
145.802752
  20
-45.09119466666667
  10
145.70879466666665
  20
-45.061461333333334
  10
145.62197333333333
  20
-45.01626666666667
  10
145.54704533333333
  20
-44.95442133333333
  10
145.48401066666665
  20
-44.878304
  10
145.43762666666666
  20
-44.79148266666667
  10
145.410272
  20
-44.69752533333333
  10
145.399568
  20
-44.599999999999994
  10
145.399568
  20
-31.600586666666665
  10
145.410272
  20
-31.50306133333333
  10
145.43762666666666
  20
-31.407914666666663
  10
145.48401066666665
  20
-31.322282666666666
  10
145.54704533333333
  20
-31.247354666666666
  10
145.62197333333333
  20
-31.18432
  10
145.70879466666665
  20
-31.137935999999996
  10
145.802752
  20
-31.110581333333332
  10
145.90027733333332
  20
-31.099877333333332
  10
158.89969066666666
  20
-31.099877333333332
  10
158.99721599999998
  20
-31.110581333333332
  10
159.09117333333333
  20
-31.137935999999996
  10
159.17799466666665
  20
-31.18432
  10
159.254112
  20
-31.247354666666666
  10
159.31595733333333
  20
-31.322282666666666
  10
159.36115199999998
  20
-31.407914666666663
  10
159.39088533333333
  20
-31.50306133333333
  10
159.4004
  20
-31.600586666666665
  10
159.4004
  20
-44.599999999999994
  0
LWPOLYLINE
  5
CAD0001B
  100
AcDbEntity
  3
CAD0001B
  8
0
  67
0
  62
256
  100
AcDbPolyline
  90
37
  70
1
  10
178.449952
  20
-44.599999999999994
  10
178.44043733333334
  20
-44.69752533333333
  10
178.41189333333332
  20
-44.79148266666667
  10
178.36550933333334
  20
-44.878304
  10
178.303664
  20
-44.95442133333333
  10
178.22754666666665
  20
-45.01626666666667
  10
178.14072533333334
  20
-45.061461333333334
  10
178.04795733333333
  20
-45.09119466666667
  10
177.95043199999998
  20
-45.09952
  10
164.94982933333333
  20
-45.09952
  10
164.852304
  20
-45.09119466666667
  10
164.759536
  20
-45.061461333333334
  10
164.67271466666665
  20
-45.01626666666667
  10
164.59659733333334
  20
-44.95442133333333
  10
164.534752
  20
-44.878304
  10
164.48836799999998
  20
-44.79148266666667
  10
164.459824
  20
-44.69752533333333
  10
164.45030933333334
  20
-44.599999999999994
  10
164.45030933333334
  20
-31.600586666666665
  10
164.459824
  20
-31.50306133333333
  10
164.48836799999998
  20
-31.407914666666663
  10
164.534752
  20
-31.322282666666666
  10
164.59659733333334
  20
-31.247354666666666
  10
164.67271466666665
  20
-31.18432
  10
164.759536
  20
-31.137935999999996
  10
164.852304
  20
-31.110581333333332
  10
164.94982933333333
  20
-31.099877333333332
  10
177.95043199999998
  20
-31.099877333333332
  10
178.04795733333333
  20
-31.110581333333332
  10
178.14072533333334
  20
-31.137935999999996
  10
178.22754666666665
  20
-31.18432
  10
178.303664
  20
-31.247354666666666
  10
178.36550933333334
  20
-31.322282666666666
  10
178.41189333333332
  20
-31.407914666666663
  10
178.44043733333334
  20
-31.50306133333333
  10
178.449952
  20
-31.600586666666665
  10
178.449952
  20
-44.599999999999994
  0
LWPOLYLINE
  5
CAD0001C
  100
AcDbEntity
  3
CAD0001C
  8
0
  67
0
  62
256
  100
AcDbPolyline
  90
37
  70
1
  10
197.50069333333332
  20
-63.65074133333333
  10
197.4899893333333
  20
-63.74707733333333
  10
197.46144533333333
  20
-63.841034666666665
  10
197.41625066666666
  20
-63.927856
  10
197.35321599999997
  20
-64.00397333333333
  10
197.27828799999997
  20
-64.06581866666666
  10
197.19146666666666
  20
-64.11220266666666
  10
197.09750933333333
  20
-64.14074666666666
  10
196.99998399999998
  20
-64.14907199999999
  10
184.00057066666665
  20
-64.14907199999999
  10
183.90185599999998
  20
-64.14074666666666
  10
183.80908799999997
  20
-64.11220266666666
  10
183.72226666666666
  20
-64.06581866666666
  10
183.6461493333333
  20
-64.00397333333333
  10
183.58430399999997
  20
-63.927856
  10
183.53910933333333
  20
-63.841034666666665
  10
183.50937599999997
  20
-63.74707733333333
  10
183.4998613333333
  20
-63.65074133333333
  10
183.4998613333333
  20
-50.65013866666666
  10
183.50937599999997
  20
-50.55261333333333
  10
183.53910933333333
  20
-50.458656
  10
183.58430399999997
  20
-50.373023999999994
  10
183.6461493333333
  20
-50.296906666666665
  10
183.72226666666666
  20
-50.23506133333333
  10
183.80908799999997
  20
-50.187487999999995
  10
183.90185599999998
  20
-50.16013333333333
  10
184.00057066666665
  20
-50.15061866666667
  10
196.99998399999998
  20
-50.15061866666667
  10
197.09750933333333
  20
-50.16013333333333
  10
197.19146666666666
  20
-50.187487999999995
  10
197.27828799999997
  20
-50.23506133333333
  10
197.35321599999997
  20
-50.296906666666665
  10
197.41625066666666
  20
-50.373023999999994
  10
197.46144533333333
  20
-50.458656
  10
197.4899893333333
  20
-50.55261333333333
  10
197.50069333333332
  20
-50.65013866666666
  10
197.50069333333332
  20
-63.65074133333333
  0
LWPOLYLINE
  5
CAD0001D
  100
AcDbEntity
  3
CAD0001D
  8
0
  67
0
  62
256
  100
AcDbPolyline
  90
37
  70
1
  10
197.50069333333332
  20
-44.599999999999994
  10
197.4899893333333
  20
-44.69752533333333
  10
197.46144533333333
  20
-44.79148266666667
  10
197.41625066666666
  20
-44.878304
  10
197.35321599999997
  20
-44.95442133333333
  10
197.27828799999997
  20
-45.01626666666667
  10
197.19146666666666
  20
-45.061461333333334
  10
197.09750933333333
  20
-45.09119466666667
  10
196.99998399999998
  20
-45.09952
  10
184.00057066666665
  20
-45.09952
  10
183.90185599999998
  20
-45.09119466666667
  10
183.80908799999997
  20
-45.061461333333334
  10
183.72226666666666
  20
-45.01626666666667
  10
183.6461493333333
  20
-44.95442133333333
  10
183.58430399999997
  20
-44.878304
  10
183.53910933333333
  20
-44.79148266666667
  10
183.50937599999997
  20
-44.69752533333333
  10
183.4998613333333
  20
-44.599999999999994
  10
183.4998613333333
  20
-31.600586666666665
  10
183.50937599999997
  20
-31.50306133333333
  10
183.53910933333333
  20
-31.407914666666663
  10
183.58430399999997
  20
-31.322282666666666
  10
183.6461493333333
  20
-31.247354666666666
  10
183.72226666666666
  20
-31.18432
  10
183.80908799999997
  20
-31.137935999999996
  10
183.90185599999998
  20
-31.110581333333332
  10
184.00057066666665
  20
-31.099877333333332
  10
196.99998399999998
  20
-31.099877333333332
  10
197.09750933333333
  20
-31.110581333333332
  10
197.19146666666666
  20
-31.137935999999996
  10
197.27828799999997
  20
-31.18432
  10
197.35321599999997
  20
-31.247354666666666
  10
197.41625066666666
  20
-31.322282666666666
  10
197.46144533333333
  20
-31.407914666666663
  10
197.4899893333333
  20
-31.50306133333333
  10
197.50069333333332
  20
-31.600586666666665
  10
197.50069333333332
  20
-44.599999999999994
  0
LWPOLYLINE
  5
CAD0001E
  100
AcDbEntity
  3
CAD0001E
  8
0
  67
0
  62
256
  100
AcDbPolyline
  90
37
  70
1
  10
216.55024533333332
  20
-63.65074133333333
  10
216.54073066666666
  20
-63.74707733333333
  10
216.5109973333333
  20
-63.841034666666665
  10
216.46580266666666
  20
-63.927856
  10
216.40395733333332
  20
-64.00397333333333
  10
216.32783999999998
  20
-64.06581866666666
  10
216.24101866666666
  20
-64.11220266666666
  10
216.14825066666666
  20
-64.14074666666666
  10
216.049536
  20
-64.14907199999999
  10
203.05012266666665
  20
-64.14907199999999
  10
202.95259733333333
  20
-64.14074666666666
  10
202.85863999999998
  20
-64.11220266666666
  10
202.77181866666666
  20
-64.06581866666666
  10
202.69689066666666
  20
-64.00397333333333
  10
202.63385599999998
  20
-63.927856
  10
202.58866133333333
  20
-63.841034666666665
  10
202.56011733333332
  20
-63.74707733333333
  10
202.54941333333332
  20
-63.65074133333333
  10
202.54941333333332
  20
-50.65013866666666
  10
202.56011733333332
  20
-50.55261333333333
  10
202.58866133333333
  20
-50.458656
  10
202.63385599999998
  20
-50.373023999999994
  10
202.69689066666666
  20
-50.296906666666665
  10
202.77181866666666
  20
-50.23506133333333
  10
202.85863999999998
  20
-50.187487999999995
  10
202.95259733333333
  20
-50.16013333333333
  10
203.05012266666665
  20
-50.15061866666667
  10
216.049536
  20
-50.15061866666667
  10
216.14825066666666
  20
-50.16013333333333
  10
216.24101866666666
  20
-50.187487999999995
  10
216.32783999999998
  20
-50.23506133333333
  10
216.40395733333332
  20
-50.296906666666665
  10
216.46580266666666
  20
-50.373023999999994
  10
216.5109973333333
  20
-50.458656
  10
216.54073066666666
  20
-50.55261333333333
  10
216.55024533333332
  20
-50.65013866666666
  10
216.55024533333332
  20
-63.65074133333333
  0
LWPOLYLINE
  5
CAD0001F
  100
AcDbEntity
  3
CAD0001F
  8
0
  67
0
  62
256
  100
AcDbPolyline
  90
37
  70
1
  10
216.55024533333332
  20
-44.599999999999994
  10
216.54073066666666
  20
-44.69752533333333
  10
216.5109973333333
  20
-44.79148266666667
  10
216.46580266666666
  20
-44.878304
  10
216.40395733333332
  20
-44.95442133333333
  10
216.32783999999998
  20
-45.01626666666667
  10
216.24101866666666
  20
-45.061461333333334
  10
216.14825066666666
  20
-45.09119466666667
  10
216.049536
  20
-45.09952
  10
203.05012266666665
  20
-45.09952
  10
202.95259733333333
  20
-45.09119466666667
  10
202.85863999999998
  20
-45.061461333333334
  10
202.77181866666666
  20
-45.01626666666667
  10
202.69689066666666
  20
-44.95442133333333
  10
202.63385599999998
  20
-44.878304
  10
202.58866133333333
  20
-44.79148266666667
  10
202.56011733333332
  20
-44.69752533333333
  10
202.54941333333332
  20
-44.599999999999994
  10
202.54941333333332
  20
-31.600586666666665
  10
202.56011733333332
  20
-31.50306133333333
  10
202.58866133333333
  20
-31.407914666666663
  10
202.63385599999998
  20
-31.322282666666666
  10
202.69689066666666
  20
-31.247354666666666
  10
202.77181866666666
  20
-31.18432
  10
202.85863999999998
  20
-31.137935999999996
  10
202.95259733333333
  20
-31.110581333333332
  10
203.05012266666665
  20
-31.099877333333332
  10
216.049536
  20
-31.099877333333332
  10
216.14825066666666
  20
-31.110581333333332
  10
216.24101866666666
  20
-31.137935999999996
  10
216.32783999999998
  20
-31.18432
  10
216.40395733333332
  20
-31.247354666666666
  10
216.46580266666666
  20
-31.322282666666666
  10
216.5109973333333
  20
-31.407914666666663
  10
216.54073066666666
  20
-31.50306133333333
  10
216.55024533333332
  20
-31.600586666666665
  10
216.55024533333332
  20
-44.599999999999994
  0
LWPOLYLINE
  5
CAD00020
  100
AcDbEntity
  3
CAD00020
  8
0
  67
0
  62
256
  100
AcDbPolyline
  90
37
  70
1
  10
235.59979733333333
  20
-63.65074133333333
  10
235.59028266666664
  20
-63.74707733333333
  10
235.56173866666666
  20
-63.841034666666665
  10
235.51535466666664
  20
-63.927856
  10
235.45350933333333
  20
-64.00397333333333
  10
235.377392
  20
-64.06581866666666
  10
235.29057066666664
  20
-64.11220266666666
  10
235.19780266666666
  20
-64.14074666666666
  10
235.1002773333333
  20
-64.14907199999999
  10
222.09967466666666
  20
-64.14907199999999
  10
222.0021493333333
  20
-64.14074666666666
  10
221.90938133333333
  20
-64.11220266666666
  10
221.82255999999998
  20
-64.06581866666666
  10
221.74644266666667
  20
-64.00397333333333
  10
221.68459733333333
  20
-63.927856
  10
221.6382133333333
  20
-63.841034666666665
  10
221.60966933333333
  20
-63.74707733333333
  10
221.60015466666664
  20
-63.65074133333333
  10
221.60015466666664
  20
-50.65013866666666
  10
221.60966933333333
  20
-50.55261333333333
  10
221.6382133333333
  20
-50.458656
  10
221.68459733333333
  20
-50.373023999999994
  10
221.74644266666667
  20
-50.296906666666665
  10
221.82255999999998
  20
-50.23506133333333
  10
221.90938133333333
  20
-50.187487999999995
  10
222.0021493333333
  20
-50.16013333333333
  10
222.09967466666666
  20
-50.15061866666667
  10
235.1002773333333
  20
-50.15061866666667
  10
235.19780266666666
  20
-50.16013333333333
  10
235.29057066666664
  20
-50.187487999999995
  10
235.377392
  20
-50.23506133333333
  10
235.45350933333333
  20
-50.296906666666665
  10
235.51535466666664
  20
-50.373023999999994
  10
235.56173866666666
  20
-50.458656
  10
235.59028266666664
  20
-50.55261333333333
  10
235.59979733333333
  20
-50.65013866666666
  10
235.59979733333333
  20
-63.65074133333333
  0
LWPOLYLINE
  5
CAD00021
  100
AcDbEntity
  3
CAD00021
  8
0
  67
0
  62
256
  100
AcDbPolyline
  90
37
  70
1
  10
254.65053866666665
  20
-63.65074133333333
  10
254.63983466666664
  20
-63.74707733333333
  10
254.61129066666666
  20
-63.841034666666665
  10
254.566096
  20
-63.927856
  10
254.5030613333333
  20
-64.00397333333333
  10
254.4281333333333
  20
-64.06581866666666
  10
254.341312
  20
-64.11220266666666
  10
254.24735466666664
  20
-64.14074666666666
  10
254.14982933333332
  20
-64.14907199999999
  10
241.15041599999998
  20
-64.14907199999999
  10
241.0517013333333
  20
-64.14074666666666
  10
240.9589333333333
  20
-64.11220266666666
  10
240.872112
  20
-64.06581866666666
  10
240.79599466666664
  20
-64.00397333333333
  10
240.7341493333333
  20
-63.927856
  10
240.68895466666666
  20
-63.841034666666665
  10
240.6592213333333
  20
-63.74707733333333
  10
240.64970666666665
  20
-63.65074133333333
  10
240.64970666666665
  20
-50.65013866666666
  10
240.6592213333333
  20
-50.55261333333333
  10
240.68895466666666
  20
-50.458656
  10
240.7341493333333
  20
-50.373023999999994
  10
240.79599466666664
  20
-50.296906666666665
  10
240.872112
  20
-50.23506133333333
  10
240.9589333333333
  20
-50.187487999999995
  10
241.0517013333333
  20
-50.16013333333333
  10
241.15041599999998
  20
-50.15061866666667
  10
254.14982933333332
  20
-50.15061866666667
  10
254.24735466666664
  20
-50.16013333333333
  10
254.341312
  20
-50.187487999999995
  10
254.4281333333333
  20
-50.23506133333333
  10
254.5030613333333
  20
-50.296906666666665
  10
254.566096
  20
-50.373023999999994
  10
254.61129066666666
  20
-50.458656
  10
254.63983466666664
  20
-50.55261333333333
  10
254.65053866666665
  20
-50.65013866666666
  10
254.65053866666665
  20
-63.65074133333333
  0
LWPOLYLINE
  5
CAD00022
  100
AcDbEntity
  3
CAD00022
  8
0
  67
0
  62
256
  100
AcDbPolyline
  90
37
  70
1
  10
11.762506666666665
  20
-25.550448
  10
11.752991999999999
  20
-25.646783999999997
  10
11.724447999999999
  20
-25.741930666666665
  10
11.678064
  20
-25.828751999999998
  10
11.616218666666667
  20
-25.902490666666665
  10
11.540101333333332
  20
-25.966714666666665
  10
11.45328
  20
-26.01190933333333
  10
11.360512
  20
-26.040453333333332
  10
11.262986666666666
  20
-26.049968
  10
-1.7376159999999998
  20
-26.049968
  10
-1.8351413333333333
  20
-26.040453333333332
  10
-1.9290986666666665
  20
-26.01190933333333
  10
-2.0147306666666664
  20
-25.966714666666665
  10
-2.090848
  20
-25.902490666666665
  10
-2.152693333333333
  20
-25.828751999999998
  10
-2.1990773333333333
  20
-25.741930666666665
  10
-2.227621333333333
  20
-25.646783999999997
  10
-2.237136
  20
-25.550448
  10
-2.237136
  20
-12.551034666666666
  10
-2.227621333333333
  20
-12.452319999999999
  10
-2.1990773333333333
  20
-12.358362666666666
  10
-2.152693333333333
  20
-12.272730666666666
  10
-2.090848
  20
-12.196613333333332
  10
-2.0147306666666664
  20
-12.133578666666667
  10
-1.9290986666666665
  20
-12.088384
  10
-1.8351413333333333
  20
-12.05984
  10
-1.7376159999999998
  20
-12.050325333333333
  10
11.262986666666666
  20
-12.050325333333333
  10
11.360512
  20
-12.05984
  10
11.45328
  20
-12.088384
  10
11.540101333333332
  20
-12.133578666666667
  10
11.616218666666667
  20
-12.196613333333332
  10
11.678064
  20
-12.272730666666666
  10
11.724447999999999
  20
-12.358362666666666
  10
11.752991999999999
  20
-12.452319999999999
  10
11.762506666666665
  20
-12.551034666666666
  10
11.762506666666665
  20
-25.550448
  0
LWPOLYLINE
  5
CAD00023
  100
AcDbEntity
  3
CAD00023
  8
0
  67
0
  62
256
  100
AcDbPolyline
  90
37
  70
1
  10
249.38773866666665
  20
-12.050325333333333
  10
249.48526399999997
  20
-12.05984
  10
249.57922133333332
  20
-12.088384
  10
249.66604266666664
  20
-12.133578666666667
  10
249.74097066666664
  20
-12.196613333333332
  10
249.80400533333332
  20
-12.272730666666666
  10
249.8492
  20
-12.358362666666666
  10
249.87893333333332
  20
-12.452319999999999
  10
249.88725866666664
  20
-12.551034666666666
  10
249.88725866666664
  20
-25.550448
  10
249.87893333333332
  20
-25.646783999999997
  10
249.8492
  20
-25.741930666666665
  10
249.80400533333332
  20
-25.828751999999998
  10
249.74097066666664
  20
-25.902490666666665
  10
249.66604266666664
  20
-25.966714666666665
  10
249.57922133333332
  20
-26.01190933333333
  10
249.48526399999997
  20
-26.040453333333332
  10
249.38773866666665
  20
-26.049968
  10
236.3883253333333
  20
-26.049968
  10
236.28961066666665
  20
-26.040453333333332
  10
236.19565333333333
  20
-26.01190933333333
  10
236.11002133333332
  20
-25.966714666666665
  10
236.03390399999998
  20
-25.902490666666665
  10
235.97205866666664
  20
-25.828751999999998
  10
235.92567466666665
  20
-25.741930666666665
  10
235.89713066666664
  20
-25.646783999999997
  10
235.88761599999998
  20
-25.550448
  10
235.88761599999998
  20
-12.551034666666666
  10
235.89713066666664
  20
-12.452319999999999
  10
235.92567466666665
  20
-12.358362666666666
  10
235.97205866666664
  20
-12.272730666666666
  10
236.03390399999998
  20
-12.196613333333332
  10
236.11002133333332
  20
-12.133578666666667
  10
236.19565333333333
  20
-12.088384
  10
236.28961066666665
  20
-12.05984
  10
236.3883253333333
  20
-12.050325333333333
  10
249.38773866666665
  20
-12.050325333333333
  0
LWPOLYLINE
  5
CAD00024
  100
AcDbEntity
  3
CAD00024
  8
0
  67
0
  62
256
  100
AcDbPolyline
  90
37
  70
1
  10
225.57490666666666
  20
-12.050325333333333
  10
225.672432
  20
-12.05984
  10
225.7663893333333
  20
-12.088384
  10
225.85321066666666
  20
-12.133578666666667
  10
225.92813866666665
  20
-12.196613333333332
  10
225.9911733333333
  20
-12.272730666666666
  10
226.03636799999998
  20
-12.358362666666666
  10
226.064912
  20
-12.452319999999999
  10
226.075616
  20
-12.551034666666666
  10
226.075616
  20
-25.550448
  10
226.064912
  20
-25.646783999999997
  10
226.03636799999998
  20
-25.741930666666665
  10
225.9911733333333
  20
-25.828751999999998
  10
225.92813866666665
  20
-25.902490666666665
  10
225.85321066666666
  20
-25.966714666666665
  10
225.7663893333333
  20
-26.01190933333333
  10
225.672432
  20
-26.040453333333332
  10
225.57490666666666
  20
-26.049968
  10
212.57549333333333
  20
-26.049968
  10
212.47677866666666
  20
-26.040453333333332
  10
212.38401066666665
  20
-26.01190933333333
  10
212.2971893333333
  20
-25.966714666666665
  10
212.221072
  20
-25.902490666666665
  10
212.15922666666665
  20
-25.828751999999998
  10
212.11403199999998
  20
-25.741930666666665
  10
212.08429866666665
  20
-25.646783999999997
  10
212.074784
  20
-25.550448
  10
212.074784
  20
-12.551034666666666
  10
212.08429866666665
  20
-12.452319999999999
  10
212.11403199999998
  20
-12.358362666666666
  10
212.15922666666665
  20
-12.272730666666666
  10
212.221072
  20
-12.196613333333332
  10
212.2971893333333
  20
-12.133578666666667
  10
212.38401066666665
  20
-12.088384
  10
212.47677866666666
  20
-12.05984
  10
212.57549333333333
  20
-12.050325333333333
  10
225.57490666666666
  20
-12.050325333333333
  0
LWPOLYLINE
  5
CAD00025
  100
AcDbEntity
  3
CAD00025
  8
0
  67
0
  62
256
  100
AcDbPolyline
  90
37
  70
1
  10
206.52535466666666
  20
-12.050325333333333
  10
206.62287999999998
  20
-12.05984
  10
206.715648
  20
-12.088384
  10
206.8024693333333
  20
-12.133578666666667
  10
206.87858666666665
  20
-12.196613333333332
  10
206.940432
  20
-12.272730666666666
  10
206.98681599999998
  20
-12.358362666666666
  10
207.01536
  20
-12.452319999999999
  10
207.02487466666665
  20
-12.551034666666666
  10
207.02487466666665
  20
-25.550448
  10
207.01536
  20
-25.646783999999997
  10
206.98681599999998
  20
-25.741930666666665
  10
206.940432
  20
-25.828751999999998
  10
206.87858666666665
  20
-25.902490666666665
  10
206.8024693333333
  20
-25.966714666666665
  10
206.715648
  20
-26.01190933333333
  10
206.62287999999998
  20
-26.040453333333332
  10
206.52535466666666
  20
-26.049968
  10
193.52475199999998
  20
-26.049968
  10
193.42722666666666
  20
-26.040453333333332
  10
193.33445866666665
  20
-26.01190933333333
  10
193.24763733333333
  20
-25.966714666666665
  10
193.17152
  20
-25.902490666666665
  10
193.10967466666665
  20
-25.828751999999998
  10
193.06329066666666
  20
-25.741930666666665
  10
193.03474666666665
  20
-25.646783999999997
  10
193.025232
  20
-25.550448
  10
193.025232
  20
-12.551034666666666
  10
193.03474666666665
  20
-12.452319999999999
  10
193.06329066666666
  20
-12.358362666666666
  10
193.10967466666665
  20
-12.272730666666666
  10
193.17152
  20
-12.196613333333332
  10
193.24763733333333
  20
-12.133578666666667
  10
193.33445866666665
  20
-12.088384
  10
193.42722666666666
  20
-12.05984
  10
193.52475199999998
  20
-12.050325333333333
  10
206.52535466666666
  20
-12.050325333333333
  0
LWPOLYLINE
  5
CAD00026
  100
AcDbEntity
  3
CAD00026
  8
0
  67
0
  62
256
  100
AcDbPolyline
  90
37
  70
1
  10
187.4746133333333
  20
-12.050325333333333
  10
187.57332799999998
  20
-12.05984
  10
187.66609599999998
  20
-12.088384
  10
187.75291733333333
  20
-12.133578666666667
  10
187.82903466666664
  20
-12.196613333333332
  10
187.89087999999998
  20
-12.272730666666666
  10
187.93607466666666
  20
-12.358362666666666
  10
187.96580799999998
  20
-12.452319999999999
  10
187.97532266666664
  20
-12.551034666666666
  10
187.97532266666664
  20
-25.550448
  10
187.96580799999998
  20
-25.646783999999997
  10
187.93607466666666
  20
-25.741930666666665
  10
187.89087999999998
  20
-25.828751999999998
  10
187.82903466666664
  20
-25.902490666666665
  10
187.75291733333333
  20
-25.966714666666665
  10
187.66609599999998
  20
-26.01190933333333
  10
187.57332799999998
  20
-26.040453333333332
  10
187.4746133333333
  20
-26.049968
  10
174.4752
  20
-26.049968
  10
174.37767466666665
  20
-26.040453333333332
  10
174.28371733333333
  20
-26.01190933333333
  10
174.19689599999998
  20
-25.966714666666665
  10
174.12196799999998
  20
-25.902490666666665
  10
174.05893333333333
  20
-25.828751999999998
  10
174.01373866666665
  20
-25.741930666666665
  10
173.98519466666664
  20
-25.646783999999997
  10
173.97449066666667
  20
-25.550448
  10
173.97449066666667
  20
-12.551034666666666
  10
173.98519466666664
  20
-12.452319999999999
  10
174.01373866666665
  20
-12.358362666666666
  10
174.05893333333333
  20
-12.272730666666666
  10
174.12196799999998
  20
-12.196613333333332
  10
174.19689599999998
  20
-12.133578666666667
  10
174.28371733333333
  20
-12.088384
  10
174.37767466666665
  20
-12.05984
  10
174.4752
  20
-12.050325333333333
  10
187.4746133333333
  20
-12.050325333333333
  0
LWPOLYLINE
  5
CAD00027
  100
AcDbEntity
  3
CAD00027
  8
0
  67
0
  62
256
  100
AcDbPolyline
  90
37
  70
1
  10
168.42506133333333
  20
-12.050325333333333
  10
168.5213973333333
  20
-12.05984
  10
168.61654399999998
  20
-12.088384
  10
168.70336533333332
  20
-12.133578666666667
  10
168.77829333333332
  20
-12.196613333333332
  10
168.84132799999998
  20
-12.272730666666666
  10
168.88652266666665
  20
-12.358362666666666
  10
168.91506666666666
  20
-12.452319999999999
  10
168.92577066666666
  20
-12.551034666666666
  10
168.92577066666666
  20
-25.550448
  10
168.91506666666666
  20
-25.646783999999997
  10
168.88652266666665
  20
-25.741930666666665
  10
168.84132799999998
  20
-25.828751999999998
  10
168.77829333333332
  20
-25.902490666666665
  10
168.70336533333332
  20
-25.966714666666665
  10
168.61654399999998
  20
-26.01190933333333
  10
168.5213973333333
  20
-26.040453333333332
  10
168.42506133333333
  20
-26.049968
  10
155.425648
  20
-26.049968
  10
155.32693333333333
  20
-26.040453333333332
  10
155.23416533333332
  20
-26.01190933333333
  10
155.147344
  20
-25.966714666666665
  10
155.07122666666666
  20
-25.902490666666665
  10
155.00938133333332
  20
-25.828751999999998
  10
154.96299733333333
  20
-25.741930666666665
  10
154.93445333333332
  20
-25.646783999999997
  10
154.92493866666666
  20
-25.550448
  10
154.92493866666666
  20
-12.551034666666666
  10
154.93445333333332
  20
-12.452319999999999
  10
154.96299733333333
  20
-12.358362666666666
  10
155.00938133333332
  20
-12.272730666666666
  10
155.07122666666666
  20
-12.196613333333332
  10
155.147344
  20
-12.133578666666667
  10
155.23416533333332
  20
-12.088384
  10
155.32693333333333
  20
-12.05984
  10
155.425648
  20
-12.050325333333333
  10
168.42506133333333
  20
-12.050325333333333
  0
LWPOLYLINE
  5
CAD00028
  100
AcDbEntity
  3
CAD00028
  8
0
  67
0
  62
256
  100
AcDbPolyline
  90
37
  70
1
  10
149.37550933333333
  20
-12.050325333333333
  10
149.47184533333333
  20
-12.05984
  10
149.56580266666666
  20
-12.088384
  10
149.652624
  20
-12.133578666666667
  10
149.72874133333332
  20
-12.196613333333332
  10
149.79058666666666
  20
-12.272730666666666
  10
149.83697066666664
  20
-12.358362666666666
  10
149.86551466666666
  20
-12.452319999999999
  10
149.87502933333332
  20
-12.551034666666666
  10
149.87502933333332
  20
-25.550448
  10
149.86551466666666
  20
-25.646783999999997
  10
149.83697066666664
  20
-25.741930666666665
  10
149.79058666666666
  20
-25.828751999999998
  10
149.72874133333332
  20
-25.902490666666665
  10
149.652624
  20
-25.966714666666665
  10
149.56580266666666
  20
-26.01190933333333
  10
149.47184533333333
  20
-26.040453333333332
  10
149.37550933333333
  20
-26.049968
  10
136.37490666666665
  20
-26.049968
  10
136.27738133333332
  20
-26.040453333333332
  10
136.18461333333332
  20
-26.01190933333333
  10
136.097792
  20
-25.966714666666665
  10
136.02167466666666
  20
-25.902490666666665
  10
135.95982933333332
  20
-25.828751999999998
  10
135.91225599999999
  20
-25.741930666666665
  10
135.88490133333332
  20
-25.646783999999997
  10
135.87538666666666
  20
-25.550448
  10
135.87538666666666
  20
-12.551034666666666
  10
135.88490133333332
  20
-12.452319999999999
  10
135.91225599999999
  20
-12.358362666666666
  10
135.95982933333332
  20
-12.272730666666666
  10
136.02167466666666
  20
-12.196613333333332
  10
136.097792
  20
-12.133578666666667
  10
136.18461333333332
  20
-12.088384
  10
136.27738133333332
  20
-12.05984
  10
136.37490666666665
  20
-12.050325333333333
  10
149.37550933333333
  20
-12.050325333333333
  0
LWPOLYLINE
  5
CAD00029
  100
AcDbEntity
  3
CAD00029
  8
0
  67
0
  62
256
  100
AcDbPolyline
  90
37
  70
1
  10
130.324768
  20
-12.050325333333333
  10
130.42229333333333
  20
-12.05984
  10
130.51625066666665
  20
-12.088384
  10
130.603072
  20
-12.133578666666667
  10
130.6791893333333
  20
-12.196613333333332
  10
130.74103466666665
  20
-12.272730666666666
  10
130.78622933333332
  20
-12.358362666666666
  10
130.81596266666665
  20
-12.452319999999999
  10
130.82547733333334
  20
-12.551034666666666
  10
130.82547733333334
  20
-25.550448
  10
130.81596266666665
  20
-25.646783999999997
  10
130.78622933333332
  20
-25.741930666666665
  10
130.74103466666665
  20
-25.828751999999998
  10
130.6791893333333
  20
-25.902490666666665
  10
130.603072
  20
-25.966714666666665
  10
130.51625066666665
  20
-26.01190933333333
  10
130.42229333333333
  20
-26.040453333333332
  10
130.324768
  20
-26.049968
  10
117.32535466666666
  20
-26.049968
  10
117.22782933333333
  20
-26.040453333333332
  10
117.133872
  20
-26.01190933333333
  10
117.04705066666666
  20
-25.966714666666665
  10
116.97212266666666
  20
-25.902490666666665
  10
116.909088
  20
-25.828751999999998
  10
116.862704
  20
-25.741930666666665
  10
116.83534933333333
  20
-25.646783999999997
  10
116.82464533333332
  20
-25.550448
  10
116.82464533333332
  20
-12.551034666666666
  10
116.83534933333333
  20
-12.452319999999999
  10
116.862704
  20
-12.358362666666666
  10
116.909088
  20
-12.272730666666666
  10
116.97212266666666
  20
-12.196613333333332
  10
117.04705066666666
  20
-12.133578666666667
  10
117.133872
  20
-12.088384
  10
117.22782933333333
  20
-12.05984
  10
117.32535466666666
  20
-12.050325333333333
  10
130.324768
  20
-12.050325333333333
  0
LWPOLYLINE
  5
CAD0002A
  100
AcDbEntity
  3
CAD0002A
  8
0
  67
0
  62
256
  100
AcDbPolyline
  90
37
  70
1
  10
111.27521599999999
  20
-12.050325333333333
  10
111.371552
  20
-12.05984
  10
111.46669866666666
  20
-12.088384
  10
111.55351999999999
  20
-12.133578666666667
  10
111.62844799999999
  20
-12.196613333333332
  10
111.69148266666666
  20
-12.272730666666666
  10
111.73667733333333
  20
-12.358362666666666
  10
111.76522133333333
  20
-12.452319999999999
  10
111.77592533333333
  20
-12.551034666666666
  10
111.77592533333333
  20
-25.550448
  10
111.76522133333333
  20
-25.646783999999997
  10
111.73667733333333
  20
-25.741930666666665
  10
111.69148266666666
  20
-25.828751999999998
  10
111.62844799999999
  20
-25.902490666666665
  10
111.55351999999999
  20
-25.966714666666665
  10
111.46669866666666
  20
-26.01190933333333
  10
111.371552
  20
-26.040453333333332
  10
111.27521599999999
  20
-26.049968
  10
98.27580266666666
  20
-26.049968
  10
98.177088
  20
-26.040453333333332
  10
98.08313066666666
  20
-26.01190933333333
  10
97.99749866666666
  20
-25.966714666666665
  10
97.92138133333333
  20
-25.902490666666665
  10
97.85953599999999
  20
-25.828751999999998
  10
97.81315199999999
  20
-25.741930666666665
  10
97.78460799999999
  20
-25.646783999999997
  10
97.77509333333333
  20
-25.550448
  10
97.77509333333333
  20
-12.551034666666666
  10
97.78460799999999
  20
-12.452319999999999
  10
97.81315199999999
  20
-12.358362666666666
  10
97.85953599999999
  20
-12.272730666666666
  10
97.92138133333333
  20
-12.196613333333332
  10
97.99749866666666
  20
-12.133578666666667
  10
98.08313066666666
  20
-12.088384
  10
98.177088
  20
-12.05984
  10
98.27580266666666
  20
-12.050325333333333
  10
111.27521599999999
  20
-12.050325333333333
  0
LWPOLYLINE
  5
CAD0002B
  100
AcDbEntity
  3
CAD0002B
  8
0
  67
0
  62
256
  100
AcDbPolyline
  90
37
  70
1
  10
92.225664
  20
-12.050325333333333
  10
92.32199999999999
  20
-12.05984
  10
92.41595733333332
  20
-12.088384
  10
92.50277866666666
  20
-12.133578666666667
  10
92.578896
  20
-12.196613333333332
  10
92.64074133333332
  20
-12.272730666666666
  10
92.68712533333333
  20
-12.358362666666666
  10
92.71566933333332
  20
-12.452319999999999
  10
92.725184
  20
-12.551034666666666
  10
92.725184
  20
-25.550448
  10
92.71566933333332
  20
-25.646783999999997
  10
92.68712533333333
  20
-25.741930666666665
  10
92.64074133333332
  20
-25.828751999999998
  10
92.578896
  20
-25.902490666666665
  10
92.50277866666666
  20
-25.966714666666665
  10
92.41595733333332
  20
-26.01190933333333
  10
92.32199999999999
  20
-26.040453333333332
  10
92.225664
  20
-26.049968
  10
79.22506133333333
  20
-26.049968
  10
79.12753599999999
  20
-26.040453333333332
  10
79.03357866666666
  20
-26.01190933333333
  10
78.94794666666667
  20
-25.966714666666665
  10
78.87182933333332
  20
-25.902490666666665
  10
78.809984
  20
-25.828751999999998
  10
78.76241066666667
  20
-25.741930666666665
  10
78.735056
  20
-25.646783999999997
  10
78.72554133333333
  20
-25.550448
  10
78.72554133333333
  20
-12.551034666666666
  10
78.735056
  20
-12.452319999999999
  10
78.76241066666667
  20
-12.358362666666666
  10
78.809984
  20
-12.272730666666666
  10
78.87182933333332
  20
-12.196613333333332
  10
78.94794666666667
  20
-12.133578666666667
  10
79.03357866666666
  20
-12.088384
  10
79.12753599999999
  20
-12.05984
  10
79.22506133333333
  20
-12.050325333333333
  10
92.225664
  20
-12.050325333333333
  0
LWPOLYLINE
  5
CAD0002C
  100
AcDbEntity
  3
CAD0002C
  8
0
  67
0
  62
256
  100
AcDbPolyline
  90
37
  70
1
  10
73.17492266666666
  20
-12.050325333333333
  10
73.272448
  20
-12.05984
  10
73.36640533333333
  20
-12.088384
  10
73.45322666666667
  20
-12.133578666666667
  10
73.529344
  20
-12.196613333333332
  10
73.59118933333333
  20
-12.272730666666666
  10
73.63638399999999
  20
-12.358362666666666
  10
73.66611733333333
  20
-12.452319999999999
  10
73.67444266666666
  20
-12.551034666666666
  10
73.67444266666666
  20
-25.550448
  10
73.66611733333333
  20
-25.646783999999997
  10
73.63638399999999
  20
-25.741930666666665
  10
73.59118933333333
  20
-25.828751999999998
  10
73.529344
  20
-25.902490666666665
  10
73.45322666666667
  20
-25.966714666666665
  10
73.36640533333333
  20
-26.01190933333333
  10
73.272448
  20
-26.040453333333332
  10
73.17492266666666
  20
-26.049968
  10
60.17550933333333
  20
-26.049968
  10
60.077983999999994
  20
-26.040453333333332
  10
59.98283733333333
  20
-26.01190933333333
  10
59.89720533333333
  20
-25.966714666666665
  10
59.82227733333333
  20
-25.902490666666665
  10
59.759242666666665
  20
-25.828751999999998
  10
59.71285866666666
  20
-25.741930666666665
  10
59.685503999999995
  20
-25.646783999999997
  10
59.6748
  20
-25.550448
  10
59.6748
  20
-12.551034666666666
  10
59.685503999999995
  20
-12.452319999999999
  10
59.71285866666666
  20
-12.358362666666666
  10
59.759242666666665
  20
-12.272730666666666
  10
59.82227733333333
  20
-12.196613333333332
  10
59.89720533333333
  20
-12.133578666666667
  10
59.98283733333333
  20
-12.088384
  10
60.077983999999994
  20
-12.05984
  10
60.17550933333333
  20
-12.050325333333333
  10
73.17492266666666
  20
-12.050325333333333
  0
LWPOLYLINE
  5
CAD0002D
  100
AcDbEntity
  3
CAD0002D
  8
0
  67
0
  62
256
  100
AcDbPolyline
  90
37
  70
1
  10
54.12537066666666
  20
-12.050325333333333
  10
54.22170666666666
  20
-12.05984
  10
54.31685333333333
  20
-12.088384
  10
54.40367466666666
  20
-12.133578666666667
  10
54.47860266666666
  20
-12.196613333333332
  10
54.54163733333333
  20
-12.272730666666666
  10
54.586831999999994
  20
-12.358362666666666
  10
54.615376
  20
-12.452319999999999
  10
54.624890666666666
  20
-12.551034666666666
  10
54.624890666666666
  20
-25.550448
  10
54.615376
  20
-25.646783999999997
  10
54.586831999999994
  20
-25.741930666666665
  10
54.54163733333333
  20
-25.828751999999998
  10
54.47860266666666
  20
-25.902490666666665
  10
54.40367466666666
  20
-25.966714666666665
  10
54.31685333333333
  20
-26.01190933333333
  10
54.22170666666666
  20
-26.040453333333332
  10
54.12537066666666
  20
-26.049968
  10
41.12595733333333
  20
-26.049968
  10
41.027242666666666
  20
-26.040453333333332
  10
40.93328533333333
  20
-26.01190933333333
  10
40.847653333333334
  20
-25.966714666666665
  10
40.771536
  20
-25.902490666666665
  10
40.70969066666667
  20
-25.828751999999998
  10
40.663306666666664
  20
-25.741930666666665
  10
40.63476266666667
  20
-25.646783999999997
  10
40.625248
  20
-25.550448
  10
40.625248
  20
-12.551034666666666
  10
40.63476266666667
  20
-12.452319999999999
  10
40.663306666666664
  20
-12.358362666666666
  10
40.70969066666667
  20
-12.272730666666666
  10
40.771536
  20
-12.196613333333332
  10
40.847653333333334
  20
-12.133578666666667
  10
40.93328533333333
  20
-12.088384
  10
41.027242666666666
  20
-12.05984
  10
41.12595733333333
  20
-12.050325333333333
  10
54.12537066666666
  20
-12.050325333333333
  0
LWPOLYLINE
  5
CAD0002E
  100
AcDbEntity
  3
CAD0002E
  8
0
  67
0
  62
256
  100
AcDbPolyline
  90
37
  70
1
  10
35.07581866666666
  20
-12.050325333333333
  10
35.172154666666664
  20
-12.05984
  10
35.266112
  20
-12.088384
  10
35.35293333333333
  20
-12.133578666666667
  10
35.42905066666666
  20
-12.196613333333332
  10
35.490896
  20
-12.272730666666666
  10
35.537279999999996
  20
-12.358362666666666
  10
35.565824
  20
-12.452319999999999
  10
35.57414933333333
  20
-12.551034666666666
  10
35.57414933333333
  20
-25.550448
  10
35.565824
  20
-25.646783999999997
  10
35.537279999999996
  20
-25.741930666666665
  10
35.490896
  20
-25.828751999999998
  10
35.42905066666666
  20
-25.902490666666665
  10
35.35293333333333
  20
-25.966714666666665
  10
35.266112
  20
-26.01190933333333
  10
35.172154666666664
  20
-26.040453333333332
  10
35.07581866666666
  20
-26.049968
  10
22.075215999999998
  20
-26.049968
  10
21.977690666666664
  20
-26.040453333333332
  10
21.883733333333332
  20
-26.01190933333333
  10
21.79810133333333
  20
-25.966714666666665
  10
21.721984
  20
-25.902490666666665
  10
21.660138666666665
  20
-25.828751999999998
  10
21.612565333333333
  20
-25.741930666666665
  10
21.585210666666665
  20
-25.646783999999997
  10
21.575695999999997
  20
-25.550448
  10
21.575695999999997
  20
-12.551034666666666
  10
21.585210666666665
  20
-12.452319999999999
  10
21.612565333333333
  20
-12.358362666666666
  10
21.660138666666665
  20
-12.272730666666666
  10
21.721984
  20
-12.196613333333332
  10
21.79810133333333
  20
-12.133578666666667
  10
21.883733333333332
  20
-12.088384
  10
21.977690666666664
  20
-12.05984
  10
22.075215999999998
  20
-12.050325333333333
  10
35.07581866666666
  20
-12.050325333333333
  0
LWPOLYLINE
  5
CAD0002F
  100
AcDbEntity
  3
CAD0002F
  8
0
  67
0
  62
256
  100
AcDbPolyline
  90
37
  70
1
  10
16.524597333333332
  20
-44.599999999999994
  10
16.515082666666665
  20
-44.69752533333333
  10
16.486538666666664
  20
-44.79148266666667
  10
16.441343999999997
  20
-44.878304
  10
16.378309333333334
  20
-44.95442133333333
  10
16.30338133333333
  20
-45.01626666666667
  10
16.216559999999998
  20
-45.061461333333334
  10
16.122602666666666
  20
-45.09119466666667
  10
16.025077333333332
  20
-45.09952
  10
3.0244746666666664
  20
-45.09952
  10
2.9281386666666664
  20
-45.09119466666667
  10
2.832992
  20
-45.061461333333334
  10
2.7461706666666665
  20
-45.01626666666667
  10
2.6724319999999997
  20
-44.95442133333333
  10
2.608208
  20
-44.878304
  10
2.563013333333333
  20
-44.79148266666667
  10
2.5356586666666665
  20
-44.69752533333333
  10
2.5249546666666665
  20
-44.599999999999994
  10
2.5249546666666665
  20
-31.600586666666665
  10
2.5356586666666665
  20
-31.50306133333333
  10
2.563013333333333
  20
-31.407914666666663
  10
2.608208
  20
-31.322282666666666
  10
2.6724319999999997
  20
-31.247354666666666
  10
2.7461706666666665
  20
-31.18432
  10
2.832992
  20
-31.137935999999996
  10
2.9281386666666664
  20
-31.110581333333332
  10
3.0244746666666664
  20
-31.099877333333332
  10
16.025077333333332
  20
-31.099877333333332
  10
16.122602666666666
  20
-31.110581333333332
  10
16.216559999999998
  20
-31.137935999999996
  10
16.30338133333333
  20
-31.18432
  10
16.378309333333334
  20
-31.247354666666666
  10
16.441343999999997
  20
-31.322282666666666
  10
16.486538666666664
  20
-31.407914666666663
  10
16.515082666666665
  20
-31.50306133333333
  10
16.524597333333332
  20
-31.600586666666665
  10
16.524597333333332
  20
-44.599999999999994
  0
LWPOLYLINE
  5
CAD00030
  100
AcDbEntity
  3
CAD00030
  8
0
  67
0
  62
256
  100
AcDbPolyline
  90
37
  70
1
  10
244.62445866666664
  20
-31.099877333333332
  10
244.7231733333333
  20
-31.110581333333332
  10
244.8159413333333
  20
-31.137935999999996
  10
244.90276266666666
  20
-31.18432
  10
244.97887999999998
  20
-31.247354666666666
  10
245.0407253333333
  20
-31.322282666666666
  10
245.08592
  20
-31.407914666666663
  10
245.1156533333333
  20
-31.50306133333333
  10
245.12516799999997
  20
-31.600586666666665
  10
245.12516799999997
  20
-44.599999999999994
  10
245.1156533333333
  20
-44.69752533333333
  10
245.08592
  20
-44.79148266666667
  10
245.0407253333333
  20
-44.878304
  10
244.97887999999998
  20
-44.95442133333333
  10
244.90276266666666
  20
-45.01626666666667
  10
244.8159413333333
  20
-45.061461333333334
  10
244.7231733333333
  20
-45.09119466666667
  10
244.62445866666664
  20
-45.09952
  10
231.62504533333333
  20
-45.09952
  10
231.52751999999998
  20
-45.09119466666667
  10
231.43356266666666
  20
-45.061461333333334
  10
231.3467413333333
  20
-45.01626666666667
  10
231.2718133333333
  20
-44.95442133333333
  10
231.20877866666666
  20
-44.878304
  10
231.163584
  20
-44.79148266666667
  10
231.13503999999998
  20
-44.69752533333333
  10
231.124336
  20
-44.599999999999994
  10
231.124336
  20
-31.600586666666665
  10
231.13503999999998
  20
-31.50306133333333
  10
231.163584
  20
-31.407914666666663
  10
231.20877866666666
  20
-31.322282666666666
  10
231.2718133333333
  20
-31.247354666666666
  10
231.3467413333333
  20
-31.18432
  10
231.43356266666666
  20
-31.137935999999996
  10
231.52751999999998
  20
-31.110581333333332
  10
231.62504533333333
  20
-31.099877333333332
  10
244.62445866666664
  20
-31.099877333333332
  0
LWPOLYLINE
  5
CAD00031
  100
AcDbEntity
  3
CAD00031
  8
0
  67
0
  62
256
  100
AcDbPolyline
  90
37
  70
1
  10
161.28192533333333
  20
-50.15061866666667
  10
161.3782613333333
  20
-50.16013333333333
  10
161.47221866666666
  20
-50.187487999999995
  10
161.55903999999998
  20
-50.23506133333333
  10
161.63515733333332
  20
-50.296906666666665
  10
161.69700266666666
  20
-50.373023999999994
  10
161.74338666666665
  20
-50.458656
  10
161.77193066666666
  20
-50.55261333333333
  10
161.78025599999998
  20
-50.65013866666666
  10
161.78025599999998
  20
-63.65074133333333
  10
161.77193066666666
  20
-63.74707733333333
  10
161.74338666666665
  20
-63.841034666666665
  10
161.69700266666666
  20
-63.927856
  10
161.63515733333332
  20
-64.00397333333333
  10
161.55903999999998
  20
-64.06581866666666
  10
161.47221866666666
  20
-64.11220266666666
  10
161.3782613333333
  20
-64.14074666666666
  10
161.28192533333333
  20
-64.14907199999999
  10
148.28132266666665
  20
-64.14907199999999
  10
148.18379733333333
  20
-64.14074666666666
  10
148.08983999999998
  20
-64.11220266666666
  10
148.00420799999998
  20
-64.06581866666666
  10
147.92809066666666
  20
-64.00397333333333
  10
147.86624533333332
  20
-63.927856
  10
147.818672
  20
-63.841034666666665
  10
147.79131733333332
  20
-63.74707733333333
  10
147.78180266666666
  20
-63.65074133333333
  10
147.78180266666666
  20
-50.65013866666666
  10
147.79131733333332
  20
-50.55261333333333
  10
147.818672
  20
-50.458656
  10
147.86624533333332
  20
-50.373023999999994
  10
147.92809066666666
  20
-50.296906666666665
  10
148.00420799999998
  20
-50.23506133333333
  10
148.08983999999998
  20
-50.187487999999995
  10
148.18379733333333
  20
-50.16013333333333
  10
148.28132266666665
  20
-50.15061866666667
  10
161.28192533333333
  20
-50.15061866666667
  0
LWPOLYLINE
  5
CAD00032
  100
AcDbEntity
  3
CAD00032
  8
0
  67
0
  62
256
  100
AcDbPolyline
  90
37
  70
1
  10
125.56267733333333
  20
-50.15061866666667
  10
125.66020266666666
  20
-50.16013333333333
  10
125.75416
  20
-50.187487999999995
  10
125.83979199999999
  20
-50.23506133333333
  10
125.91590933333333
  20
-50.296906666666665
  10
125.97775466666666
  20
-50.373023999999994
  10
126.02532799999999
  20
-50.458656
  10
126.05268266666666
  20
-50.55261333333333
  10
126.06219733333333
  20
-50.65013866666666
  10
126.06219733333333
  20
-63.65074133333333
  10
126.05268266666666
  20
-63.74707733333333
  10
126.02532799999999
  20
-63.841034666666665
  10
125.97775466666666
  20
-63.927856
  10
125.91590933333333
  20
-64.00397333333333
  10
125.83979199999999
  20
-64.06581866666666
  10
125.75416
  20
-64.11220266666666
  10
125.66020266666666
  20
-64.14074666666666
  10
125.56267733333333
  20
-64.14907199999999
  10
112.56207466666666
  20
-64.14907199999999
  10
112.46573866666665
  20
-64.14074666666666
  10
112.37059199999999
  20
-64.11220266666666
  10
112.28496
  20
-64.06581866666666
  10
112.20884266666665
  20
-64.00397333333333
  10
112.14699733333333
  20
-63.927856
  10
112.10061333333333
  20
-63.841034666666665
  10
112.07206933333333
  20
-63.74707733333333
  10
112.06255466666666
  20
-63.65074133333333
  10
112.06255466666666
  20
-50.65013866666666
  10
112.07206933333333
  20
-50.55261333333333
  10
112.10061333333333
  20
-50.458656
  10
112.14699733333333
  20
-50.373023999999994
  10
112.20884266666665
  20
-50.296906666666665
  10
112.28496
  20
-50.23506133333333
  10
112.37059199999999
  20
-50.187487999999995
  10
112.46573866666665
  20
-50.16013333333333
  10
112.56207466666666
  20
-50.15061866666667
  10
125.56267733333333
  20
-50.15061866666667
  0
LWPOLYLINE
  5
CAD00033
  100
AcDbEntity
  3
CAD00033
  8
0
  67
0
  62
256
  100
AcDbPolyline
  90
37
  70
1
  10
89.84342933333333
  20
-50.15061866666667
  10
89.942144
  20
-50.16013333333333
  10
90.03491199999999
  20
-50.187487999999995
  10
90.12173333333332
  20
-50.23506133333333
  10
90.19785066666667
  20
-50.296906666666665
  10
90.25969599999999
  20
-50.373023999999994
  10
90.30489066666667
  20
-50.458656
  10
90.33462399999999
  20
-50.55261333333333
  10
90.34413866666667
  20
-50.65013866666666
  10
90.34413866666667
  20
-63.65074133333333
  10
90.33462399999999
  20
-63.74707733333333
  10
90.30489066666667
  20
-63.841034666666665
  10
90.25969599999999
  20
-63.927856
  10
90.19785066666667
  20
-64.00397333333333
  10
90.12173333333332
  20
-64.06581866666666
  10
90.03491199999999
  20
-64.11220266666666
  10
89.942144
  20
-64.14074666666666
  10
89.84342933333333
  20
-64.14907199999999
  10
76.844016
  20
-64.14907199999999
  10
76.74530133333333
  20
-64.14074666666666
  10
76.65253333333332
  20
-64.11220266666666
  10
76.56571199999999
  20
-64.06581866666666
  10
76.49078399999999
  20
-64.00397333333333
  10
76.42774933333332
  20
-63.927856
  10
76.38255466666666
  20
-63.841034666666665
  10
76.35282133333332
  20
-63.74707733333333
  10
76.34330666666666
  20
-63.65074133333333
  10
76.34330666666666
  20
-50.65013866666666
  10
76.35282133333332
  20
-50.55261333333333
  10
76.38255466666666
  20
-50.458656
  10
76.42774933333332
  20
-50.373023999999994
  10
76.49078399999999
  20
-50.296906666666665
  10
76.56571199999999
  20
-50.23506133333333
  10
76.65253333333332
  20
-50.187487999999995
  10
76.74530133333333
  20
-50.16013333333333
  10
76.844016
  20
-50.15061866666667
  10
89.84342933333333
  20
-50.15061866666667
  0
LWPOLYLINE
  5
CAD00034
  100
AcDbEntity
  3
CAD00034
  8
0
  67
0
  62
256
  100
AcDbPolyline
  90
37
  70
1
  10
51.74432533333333
  20
-50.15061866666667
  10
51.84066133333333
  20
-50.16013333333333
  10
51.934618666666665
  20
-50.187487999999995
  10
52.02144
  20
-50.23506133333333
  10
52.09755733333333
  20
-50.296906666666665
  10
52.159402666666665
  20
-50.373023999999994
  10
52.20578666666666
  20
-50.458656
  10
52.234330666666665
  20
-50.55261333333333
  10
52.24384533333333
  20
-50.65013866666666
  10
52.24384533333333
  20
-63.65074133333333
  10
52.234330666666665
  20
-63.74707733333333
  10
52.20578666666666
  20
-63.841034666666665
  10
52.159402666666665
  20
-63.927856
  10
52.09755733333333
  20
-64.00397333333333
  10
52.02144
  20
-64.06581866666666
  10
51.934618666666665
  20
-64.11220266666666
  10
51.84066133333333
  20
-64.14074666666666
  10
51.74432533333333
  20
-64.14907199999999
  10
38.74372266666666
  20
-64.14907199999999
  10
38.64619733333333
  20
-64.14074666666666
  10
38.553429333333334
  20
-64.11220266666666
  10
38.466608
  20
-64.06581866666666
  10
38.390490666666665
  20
-64.00397333333333
  10
38.328645333333334
  20
-63.927856
  10
38.281071999999995
  20
-63.841034666666665
  10
38.253717333333334
  20
-63.74707733333333
  10
38.244202666666666
  20
-63.65074133333333
  10
38.244202666666666
  20
-50.65013866666666
  10
38.253717333333334
  20
-50.55261333333333
  10
38.281071999999995
  20
-50.458656
  10
38.328645333333334
  20
-50.373023999999994
  10
38.390490666666665
  20
-50.296906666666665
  10
38.466608
  20
-50.23506133333333
  10
38.553429333333334
  20
-50.187487999999995
  10
38.64619733333333
  20
-50.16013333333333
  10
38.74372266666666
  20
-50.15061866666667
  10
51.74432533333333
  20
-50.15061866666667
  0
LWPOLYLINE
  5
CAD00035
  100
AcDbEntity
  3
CAD00035
  8
0
  67
0
  62
256
  100
AcDbPolyline
  90
37
  70
1
  10
27.930304
  20
-50.15061866666667
  10
28.029018666666666
  20
-50.16013333333333
  10
28.122975999999998
  20
-50.187487999999995
  10
28.208607999999998
  20
-50.23506133333333
  10
28.28472533333333
  20
-50.296906666666665
  10
28.346570666666665
  20
-50.373023999999994
  10
28.394143999999997
  20
-50.458656
  10
28.421498666666665
  20
-50.55261333333333
  10
28.431013333333333
  20
-50.65013866666666
  10
28.431013333333333
  20
-63.65074133333333
  10
28.421498666666665
  20
-63.74707733333333
  10
28.394143999999997
  20
-63.841034666666665
  10
28.346570666666665
  20
-63.927856
  10
28.28472533333333
  20
-64.00397333333333
  10
28.208607999999998
  20
-64.06581866666666
  10
28.122975999999998
  20
-64.11220266666666
  10
28.029018666666666
  20
-64.14074666666666
  10
27.930304
  20
-64.14907199999999
  10
14.930890666666667
  20
-64.14907199999999
  10
14.834554666666666
  20
-64.14074666666666
  10
14.739408
  20
-64.11220266666666
  10
14.652586666666666
  20
-64.06581866666666
  10
14.577658666666666
  20
-64.00397333333333
  10
14.514624
  20
-63.927856
  10
14.469429333333332
  20
-63.841034666666665
  10
14.440885333333332
  20
-63.74707733333333
  10
14.430181333333332
  20
-63.65074133333333
  10
14.430181333333332
  20
-50.65013866666666
  10
14.440885333333332
  20
-50.55261333333333
  10
14.469429333333332
  20
-50.458656
  10
14.514624
  20
-50.373023999999994
  10
14.577658666666666
  20
-50.296906666666665
  10
14.652586666666666
  20
-50.23506133333333
  10
14.739408
  20
-50.187487999999995
  10
14.834554666666666
  20
-50.16013333333333
  10
14.930890666666667
  20
-50.15061866666667
  10
27.930304
  20
-50.15061866666667
  0
LWPOLYLINE
  5
CAD00036
  100
AcDbEntity
  3
CAD00036
  8
0
  67
0
  62
256
  100
AcDbPolyline
  90
37
  70
1
  10
1.0870506666666666
  20
-46.60045866666666
  10
1.0775359999999998
  20
-46.69679466666666
  10
1.048992
  20
-46.790752
  10
1.0037973333333332
  20
-46.87757333333333
  10
0.9395733333333333
  20
-46.95369066666667
  10
0.8658346666666666
  20
-47.015536
  10
0.7790133333333333
  20
-47.06191999999999
  10
0.6838666666666666
  20
-47.090464
  10
0.5875306666666666
  20
-47.099978666666665
  10
-5.412655999999999
  20
-47.099978666666665
  10
-5.511370666666666
  20
-47.090464
  10
-5.604138666666667
  20
-47.06191999999999
  10
-5.69096
  20
-47.015536
  10
-5.7658879999999995
  20
-46.95369066666667
  10
-5.828922666666666
  20
-46.87757333333333
  10
-5.875306666666666
  20
-46.790752
  10
-5.903850666666666
  20
-46.69679466666666
  10
-5.913365333333333
  20
-46.60045866666666
  10
-5.913365333333333
  20
-32.599626666666666
  10
-5.903850666666666
  20
-32.503290666666665
  10
-5.875306666666666
  20
-32.40933333333333
  10
-5.828922666666666
  20
-32.322511999999996
  10
-5.7658879999999995
  20
-32.24639466666667
  10
-5.69096
  20
-32.18454933333333
  10
-5.604138666666667
  20
-32.13816533333333
  10
-5.511370666666666
  20
-32.10962133333333
  10
-5.412655999999999
  20
-32.10010666666666
  10
0.5875306666666666
  20
-32.10010666666666
  10
0.6838666666666666
  20
-32.10962133333333
  10
0.7790133333333333
  20
-32.13816533333333
  10
0.8658346666666666
  20
-32.18454933333333
  10
0.9395733333333333
  20
-32.24639466666667
  10
1.0037973333333332
  20
-32.322511999999996
  10
1.048992
  20
-32.40933333333333
  10
1.0775359999999998
  20
-32.503290666666665
  10
1.0870506666666666
  20
-32.599626666666666
  10
1.0870506666666666
  20
-46.60045866666666
  0
LWPOLYLINE
  5
CAD00037
  100
AcDbEntity
  3
CAD00037
  8
0
  67
0
  62
256
  100
AcDbPolyline
  90
37
  70
1
  10
253.06277866666665
  20
-32.10010666666666
  10
253.160304
  20
-32.10962133333333
  10
253.25426133333332
  20
-32.13816533333333
  10
253.34108266666664
  20
-32.18454933333333
  10
253.41719999999998
  20
-32.24639466666667
  10
253.47904533333332
  20
-32.322511999999996
  10
253.5254293333333
  20
-32.40933333333333
  10
253.55397333333332
  20
-32.503290666666665
  10
253.56348799999998
  20
-32.599626666666666
  10
253.56348799999998
  20
-46.60045866666666
  10
253.55397333333332
  20
-46.69679466666666
  10
253.5254293333333
  20
-46.790752
  10
253.47904533333332
  20
-46.87757333333333
  10
253.41719999999998
  20
-46.95369066666667
  10
253.34108266666664
  20
-47.015536
  10
253.25426133333332
  20
-47.06191999999999
  10
253.160304
  20
-47.090464
  10
253.06277866666665
  20
-47.099978666666665
  10
247.062592
  20
-47.099978666666665
  10
246.96506666666664
  20
-47.090464
  10
246.87229866666664
  20
-47.06191999999999
  10
246.78547733333332
  20
-47.015536
  10
246.70935999999998
  20
-46.95369066666667
  10
246.64751466666664
  20
-46.87757333333333
  10
246.60113066666665
  20
-46.790752
  10
246.57258666666664
  20
-46.69679466666666
  10
246.56307199999998
  20
-46.60045866666666
  10
246.56307199999998
  20
-32.599626666666666
  10
246.57258666666664
  20
-32.503290666666665
  10
246.60113066666665
  20
-32.40933333333333
  10
246.64751466666664
  20
-32.322511999999996
  10
246.70935999999998
  20
-32.24639466666667
  10
246.78547733333332
  20
-32.18454933333333
  10
246.87229866666664
  20
-32.13816533333333
  10
246.96506666666664
  20
-32.10962133333333
  10
247.062592
  20
-32.10010666666666
  10
253.06277866666665
  20
-32.10010666666666
  0
LWPOLYLINE
  5
CAD00038
  100
AcDbEntity
  3
CAD00038
  8
0
  67
0
  62
256
  100
AcDbPolyline
  90
37
  70
1
  10
229.18691199999998
  20
-32.10010666666666
  10
229.28443733333333
  20
-32.10962133333333
  10
229.37839466666665
  20
-32.13816533333333
  10
229.465216
  20
-32.18454933333333
  10
229.540144
  20
-32.24639466666667
  10
229.60317866666665
  20
-32.322511999999996
  10
229.64837333333332
  20
-32.40933333333333
  10
229.6769173333333
  20
-32.503290666666665
  10
229.6876213333333
  20
-32.599626666666666
  10
229.6876213333333
  20
-46.60045866666666
  10
229.6769173333333
  20
-46.69679466666666
  10
229.64837333333332
  20
-46.790752
  10
229.60317866666665
  20
-46.87757333333333
  10
229.540144
  20
-46.95369066666667
  10
229.465216
  20
-47.015536
  10
229.37839466666665
  20
-47.06191999999999
  10
229.28443733333333
  20
-47.090464
  10
229.18691199999998
  20
-47.099978666666665
  10
223.18672533333333
  20
-47.099978666666665
  10
223.08919999999998
  20
-47.090464
  10
222.99524266666666
  20
-47.06191999999999
  10
222.9084213333333
  20
-47.015536
  10
222.8334933333333
  20
-46.95369066666667
  10
222.77045866666666
  20
-46.87757333333333
  10
222.72526399999998
  20
-46.790752
  10
222.69553066666666
  20
-46.69679466666666
  10
222.6872053333333
  20
-46.60045866666666
  10
222.6872053333333
  20
-32.599626666666666
  10
222.69553066666666
  20
-32.503290666666665
  10
222.72526399999998
  20
-32.40933333333333
  10
222.77045866666666
  20
-32.322511999999996
  10
222.8334933333333
  20
-32.24639466666667
  10
222.9084213333333
  20
-32.18454933333333
  10
222.99524266666666
  20
-32.13816533333333
  10
223.08919999999998
  20
-32.10962133333333
  10
223.18672533333333
  20
-32.10010666666666
  10
229.18691199999998
  20
-32.10010666666666
  0
LWPOLYLINE
  5
CAD00039
  100
AcDbEntity
  3
CAD00039
  8
0
  67
0
  62
256
  100
AcDbPolyline
  90
37
  70
1
  10
24.462207999999997
  20
-32.10010666666666
  10
24.560922666666666
  20
-32.10962133333333
  10
24.653690666666666
  20
-32.13816533333333
  10
24.740512
  20
-32.18454933333333
  10
24.81662933333333
  20
-32.24639466666667
  10
24.878474666666666
  20
-32.322511999999996
  10
24.926047999999998
  20
-32.40933333333333
  10
24.953402666666666
  20
-32.503290666666665
  10
24.962917333333333
  20
-32.599626666666666
  10
24.962917333333333
  20
-46.60045866666666
  10
24.953402666666666
  20
-46.69679466666666
  10
24.926047999999998
  20
-46.790752
  10
24.878474666666666
  20
-46.87757333333333
  10
24.81662933333333
  20
-46.95369066666667
  10
24.740512
  20
-47.015536
  10
24.653690666666666
  20
-47.06191999999999
  10
24.560922666666666
  20
-47.090464
  10
24.462207999999997
  20
-47.099978666666665
  10
18.462021333333333
  20
-47.099978666666665
  10
18.36568533333333
  20
-47.090464
  10
18.271728
  20
-47.06191999999999
  10
18.184906666666667
  20
-47.015536
  10
18.109978666666667
  20
-46.95369066666667
  10
18.046944
  20
-46.87757333333333
  10
18.00056
  20
-46.790752
  10
17.973205333333333
  20
-46.69679466666666
  10
17.963690666666665
  20
-46.60045866666666
  10
17.963690666666665
  20
-32.599626666666666
  10
17.973205333333333
  20
-32.503290666666665
  10
18.00056
  20
-32.40933333333333
  10
18.046944
  20
-32.322511999999996
  10
18.109978666666667
  20
-32.24639466666667
  10
18.184906666666667
  20
-32.18454933333333
  10
18.271728
  20
-32.13816533333333
  10
18.36568533333333
  20
-32.10962133333333
  10
18.462021333333333
  20
-32.10010666666666
  10
24.462207999999997
  20
-32.10010666666666
  0
LWPOLYLINE
  5
CAD0003A
  100
AcDbEntity
  3
CAD0003A
  8
0
  67
0
  62
256
  100
AcDbPolyline
  90
37
  70
1
  10
74.90659199999999
  20
-65.65001066666666
  10
74.895888
  20
-65.747536
  10
74.86734399999999
  20
-65.84149333333333
  10
74.82096
  20
-65.92831466666667
  10
74.75911466666666
  20
-66.00324266666667
  10
74.68299733333333
  20
-66.06627733333333
  10
74.59736533333333
  20
-66.11147199999999
  10
74.503408
  20
-66.140016
  10
74.40588266666666
  20
-66.15071999999999
  10
68.40569599999999
  20
-66.15071999999999
  10
68.30817066666667
  20
-66.140016
  10
68.21421333333333
  20
-66.11147199999999
  10
68.127392
  20
-66.06627733333333
  10
68.05127466666666
  20
-66.00324266666667
  10
67.98942933333333
  20
-65.92831466666667
  10
67.94423466666666
  20
-65.84149333333333
  10
67.91450133333333
  20
-65.747536
  10
67.90498666666666
  20
-65.65001066666666
  10
67.90498666666666
  20
-51.649178666666664
  10
67.91450133333333
  20
-51.55284266666666
  10
67.94423466666666
  20
-51.45888533333333
  10
67.98942933333333
  20
-51.372063999999995
  10
68.05127466666666
  20
-51.295946666666666
  10
68.127392
  20
-51.23410133333333
  10
68.21421333333333
  20
-51.18771733333333
  10
68.30817066666667
  20
-51.15917333333333
  10
68.40569599999999
  20
-51.14965866666666
  10
74.40588266666666
  20
-51.14965866666666
  10
74.503408
  20
-51.15917333333333
  10
74.59736533333333
  20
-51.18771733333333
  10
74.68299733333333
  20
-51.23410133333333
  10
74.75911466666666
  20
-51.295946666666666
  10
74.82096
  20
-51.372063999999995
  10
74.86734399999999
  20
-51.45888533333333
  10
74.895888
  20
-51.55284266666666
  10
74.90659199999999
  20
-51.649178666666664
  10
74.90659199999999
  20
-65.65001066666666
  0
LWPOLYLINE
  5
CAD0003B
  100
AcDbEntity
  3
CAD0003B
  8
0
  67
0
  62
256
  100
AcDbPolyline
  90
37
  70
1
  10
169.719056
  20
-51.14965866666666
  10
169.81658133333332
  20
-51.15917333333333
  10
169.91172799999998
  20
-51.18771733333333
  10
169.99617066666664
  20
-51.23410133333333
  10
170.072288
  20
-51.295946666666666
  10
170.13413333333332
  20
-51.372063999999995
  10
170.18170666666666
  20
-51.45888533333333
  10
170.20906133333332
  20
-51.55284266666666
  10
170.21857599999998
  20
-51.649178666666664
  10
170.21857599999998
  20
-65.65001066666666
  10
170.20906133333332
  20
-65.747536
  10
170.18170666666666
  20
-65.84149333333333
  10
170.13413333333332
  20
-65.92831466666667
  10
170.072288
  20
-66.00324266666667
  10
169.99617066666664
  20
-66.06627733333333
  10
169.91172799999998
  20
-66.11147199999999
  10
169.81658133333332
  20
-66.140016
  10
169.719056
  20
-66.15071999999999
  10
163.72005866666666
  20
-66.15071999999999
  10
163.621344
  20
-66.140016
  10
163.52738666666664
  20
-66.11147199999999
  10
163.44175466666667
  20
-66.06627733333333
  10
163.36563733333332
  20
-66.00324266666667
  10
163.303792
  20
-65.92831466666667
  10
163.257408
  20
-65.84149333333333
  10
163.228864
  20
-65.747536
  10
163.21934933333333
  20
-65.65001066666666
  10
163.21934933333333
  20
-51.649178666666664
  10
163.228864
  20
-51.55284266666666
  10
163.257408
  20
-51.45888533333333
  10
163.303792
  20
-51.372063999999995
  10
163.36563733333332
  20
-51.295946666666666
  10
163.44175466666667
  20
-51.23410133333333
  10
163.52738666666664
  20
-51.18771733333333
  10
163.621344
  20
-51.15917333333333
  10
163.72005866666666
  20
-51.14965866666666
  10
169.719056
  20
-51.14965866666666
  0
LWPOLYLINE
  5
CAD0003C
  100
AcDbEntity
  3
CAD0003C
  8
0
  67
0
  62
256
  100
AcDbPolyline
  90
37
  70
1
  10
145.84318933333333
  20
-51.14965866666666
  10
145.94071466666665
  20
-51.15917333333333
  10
146.034672
  20
-51.18771733333333
  10
146.12149333333332
  20
-51.23410133333333
  10
146.19761066666666
  20
-51.295946666666666
  10
146.259456
  20
-51.372063999999995
  10
146.30465066666665
  20
-51.45888533333333
  10
146.334384
  20
-51.55284266666666
  10
146.34270933333332
  20
-51.649178666666664
  10
146.34270933333332
  20
-65.65001066666666
  10
146.334384
  20
-65.747536
  10
146.30465066666665
  20
-65.84149333333333
  10
146.259456
  20
-65.92831466666667
  10
146.19761066666666
  20
-66.00324266666667
  10
146.12149333333332
  20
-66.06627733333333
  10
146.034672
  20
-66.11147199999999
  10
145.94071466666665
  20
-66.140016
  10
145.84318933333333
  20
-66.15071999999999
  10
139.84300266666665
  20
-66.15071999999999
  10
139.74547733333333
  20
-66.140016
  10
139.65270933333332
  20
-66.11147199999999
  10
139.565888
  20
-66.06627733333333
  10
139.48977066666666
  20
-66.00324266666667
  10
139.42792533333332
  20
-65.92831466666667
  10
139.38154133333333
  20
-65.84149333333333
  10
139.35299733333332
  20
-65.747536
  10
139.34348266666666
  20
-65.65001066666666
  10
139.34348266666666
  20
-51.649178666666664
  10
139.35299733333332
  20
-51.55284266666666
  10
139.38154133333333
  20
-51.45888533333333
  10
139.42792533333332
  20
-51.372063999999995
  10
139.48977066666666
  20
-51.295946666666666
  10
139.565888
  20
-51.23410133333333
  10
139.65270933333332
  20
-51.18771733333333
  10
139.74547733333333
  20
-51.15917333333333
  10
139.84300266666665
  20
-51.14965866666666
  10
145.84318933333333
  20
-51.14965866666666
  0
LWPOLYLINE
  5
CAD0003D
  100
AcDbEntity
  3
CAD0003D
  8
0
  67
0
  62
256
  100
AcDbPolyline
  90
37
  70
1
  10
98.28174933333332
  20
-51.14965866666666
  10
98.37927466666666
  20
-51.15917333333333
  10
98.473232
  20
-51.18771733333333
  10
98.56005333333333
  20
-51.23410133333333
  10
98.63617066666666
  20
-51.295946666666666
  10
98.698016
  20
-51.372063999999995
  10
98.74321066666666
  20
-51.45888533333333
  10
98.772944
  20
-51.55284266666666
  10
98.78126933333333
  20
-51.649178666666664
  10
98.78126933333333
  20
-65.65001066666666
  10
98.772944
  20
-65.747536
  10
98.74321066666666
  20
-65.84149333333333
  10
98.698016
  20
-65.92831466666667
  10
98.63617066666666
  20
-66.00324266666667
  10
98.56005333333333
  20
-66.06627733333333
  10
98.473232
  20
-66.11147199999999
  10
98.37927466666666
  20
-66.140016
  10
98.28174933333332
  20
-66.15071999999999
  10
92.28156266666666
  20
-66.15071999999999
  10
92.18403733333332
  20
-66.140016
  10
92.09126933333333
  20
-66.11147199999999
  10
92.004448
  20
-66.06627733333333
  10
91.92833066666667
  20
-66.00324266666667
  10
91.86648533333333
  20
-65.92831466666667
  10
91.82010133333333
  20
-65.84149333333333
  10
91.79155733333333
  20
-65.747536
  10
91.78204266666665
  20
-65.65001066666666
  10
91.78204266666665
  20
-51.649178666666664
  10
91.79155733333333
  20
-51.55284266666666
  10
91.82010133333333
  20
-51.45888533333333
  10
91.86648533333333
  20
-51.372063999999995
  10
91.92833066666667
  20
-51.295946666666666
  10
92.004448
  20
-51.23410133333333
  10
92.09126933333333
  20
-51.18771733333333
  10
92.18403733333332
  20
-51.15917333333333
  10
92.28156266666666
  20
-51.14965866666666
  10
98.28174933333332
  20
-51.14965866666666
  0
LWPOLYLINE
  5
CAD0003E
  100
AcDbEntity
  3
CAD0003E
  8
0
  67
0
  62
256
  100
AcDbPolyline
  90
33
  70
1
  10
-7.529669333333333
  20
-68.44256533333333
  10
-7.6141119999999995
  20
-68.72443733333333
  10
-7.753264
  20
-68.983712
  10
-7.939989333333333
  20
-69.21087466666667
  10
-8.167152
  20
-69.3976
  10
-8.426426666666666
  20
-69.53556266666666
  10
-8.707109333333333
  20
-69.62119466666667
  10
-9.000874666666666
  20
-69.64973866666666
  10
-9.292261333333332
  20
-69.62119466666667
  10
-9.574133333333332
  20
-69.53556266666666
  10
-9.833407999999999
  20
-69.3976
  10
-10.060570666666665
  20
-69.21087466666667
  10
-10.247295999999999
  20
-68.983712
  10
-10.386448
  20
-68.72443733333333
  10
-10.470890666666666
  20
-68.44256533333333
  10
-10.499434666666666
  20
-68.14998933333332
  10
-10.470890666666666
  20
-67.85741333333333
  10
-10.386448
  20
-67.57554133333333
  10
-10.247295999999999
  20
-67.31626666666666
  10
-10.060570666666665
  20
-67.08910399999999
  10
-9.833407999999999
  20
-66.90237866666666
  10
-9.574133333333332
  20
-66.764416
  10
-9.292261333333332
  20
-66.678784
  10
-9.000874666666666
  20
-66.65024
  10
-8.707109333333333
  20
-66.678784
  10
-8.426426666666666
  20
-66.764416
  10
-8.167152
  20
-66.90237866666666
  10
-7.939989333333333
  20
-67.08910399999999
  10
-7.753264
  20
-67.31626666666666
  10
-7.6141119999999995
  20
-67.57554133333333
  10
-7.529669333333333
  20
-67.85741333333333
  10
-7.499936
  20
-68.14998933333332
  10
-7.529669333333333
  20
-68.44256533333333
  0
ENDSEC
  0
SECTION
  2
OBJECTS
  0
DICTIONARY
  5
C
330
0
100
AcDbDictionary
281
1
  3
ACAD_COLOR
350
524
  3
ACAD_GROUP
350
525
  3
ACAD_LAYOUT
350
526
  3
ACAD_MATERIAL
350
527
  3
ACAD_MLEADERSTYLE
350
528
  3
ACAD_MLINESTYLE
350
529
  3
ACAD_PLOTSETTINGS
350
52A
  3
ACAD_PLOTSTYLENAME
350
52C
  3
ACAD_SCALELIST
350
52D
  3
ACAD_TABLESTYLE
350
52E
  3
ACAD_VISUALSTYLE
350
52F
  0
DICTIONARY
  5
524
330
C
100
AcDbDictionary
281
1
  0
DICTIONARY
  5
525
330
C
100
AcDbDictionary
281
1
  0
DICTIONARY
  5
526
330
C
100
AcDbDictionary
281
1
  3
Model
350
530
  3
Layout1
350
531
  0
DICTIONARY
  5
527
330
C
100
AcDbDictionary
281
1
  0
DICTIONARY
  5
528
330
C
100
AcDbDictionary
281
1
  0
DICTIONARY
  5
529
330
C
100
AcDbDictionary
281
1
  0
DICTIONARY
  5
52A
330
C
100
AcDbDictionary
281
1
  0
ACDBPLACEHOLDER
  5
52B
330
52C
  0
ACDBDICTIONARYWDFLT
  5
52C
330
C
100
AcDbDictionary
281
1
  3
Normal
350
52B
100
AcDbDictionaryWithDefault
340
52B
  0
DICTIONARY
  5
52D
330
C
100
AcDbDictionary
281
1
  0
DICTIONARY
  5
52E
330
C
100
AcDbDictionary
281
1
  0
DICTIONARY
  5
52F
330
C
100
AcDbDictionary
281
1
  0
LAYOUT
  5
530
330
526
100
AcDbPlotSettings
  1

  2
DWFx ePlot (XPS Compatible).pc3
  4
ANSI_A_(8.50_x_11.00_Inches)
  6

 40
5.8
 41
17.8
 42
5.8
 43
17.8
 44
215.9
 45
279.4
 46
0.0
 47
0.0
 48
0.0
 49
0.0
140
0.0
141
0.0
142
1.0
143
14.53
 70
11952
 72
0
 73
1
 74
0
  7

 75
0
147
0.069
148
114.98
149
300.29
100
AcDbLayout
  1
Model
 70
1
 71
0
 10
0.0
 20
0.0
 11
12.0
 21
9.0
 12
0.0
 22
0.0
 32
0.0
 14
0.0
 24
0.0
 34
0.0
 15
0.0
 25
0.0
 35
0.0
146
0.0
 13
0.0
 23
0.0
 33
0.0
 16
1.0
 26
0.0
 36
0.0
 17
0.0
 27
1.0
 37
0.0
 76
0
330
1F
  0
LAYOUT
  5
531
330
526
100
AcDbPlotSettings
  1

  2
DWFx ePlot (XPS Compatible).pc3
  4
ANSI_A_(8.50_x_11.00_Inches)
  6

 40
5.8
 41
17.8
 42
5.8
 43
17.8
 44
215.9
 45
279.4
 46
0.0
 47
0.0
 48
0.0
 49
0.0
140
0.0
141
0.0
142
1.0
143
1.0
 70
688
 72
0
 73
1
 74
5
  7
acad.ctb
 75
16
147
1.0
148
0.0
149
0.0
100
AcDbLayout
  1
Layout1
 70
1
 71
1
 10
-0.7
 20
-0.23
 11
10.3
 21
8.27
 12
0.0
 22
0.0
 32
0.0
 14
0.63
 24
0.8
 34
0.0
 15
9.0
 25
7.2
 35
0.0
146
0.0
 13
0.0
 23
0.0
 33
0.0
 16
1.0
 26
0.0
 36
0.0
 17
0.0
 27
1.0
 37
0.0
 76
0
330
58
  0
ENDSEC
  0
EOF
