0
SECTION
2
HEADER
9
$ACADVER
1
AC1015
9
$INSUNITS
70
4
9
$HANDSEED
5
FFFF
0
ENDSEC
0
SECTION
2
CLASSES
0
ENDSEC
0
SECTION
2
TABLES
0
TABLE
2
VPORT
5
8
330
0
100
AcDbSymbolTable
70
0
0
ENDTAB
0
TABLE
2
LTYPE
5
5
330
0
100
AcDbSymbolTable
70
1
0
LTYPE
5
14
330
5
100
AcDbSymbolTableRecord
100
AcDbLinetypeTableRecord
2
CONTINUOUS
70
0
3
Solid line
72
65
73
0
40
0
0
ENDTAB
0
TABLE
2
LAYER
5
2
330
0
100
AcDbSymbolTable
70
1
0
LAYER
5
10
330
2
100
AcDbSymbolTableRecord
100
AcDbLayerTableRecord
2
0
70
0
62
7
6
CONTINUOUS
0
ENDTAB
0
TABLE
2
STYLE
5
3
330
0
100
AcDbSymbolTable
70
0
0
ENDTAB
0
TABLE
2
VIEW
5
6
330
0
100
AcDbSymbolTable
70
0
0
ENDTAB
0
TABLE
2
UCS
5
7
330
0
100
AcDbSymbolTable
70
0
0
ENDTAB
0
TABLE
2
APPID
5
9
330
0
100
AcDbSymbolTable
70
1
0
APPID
5
12
330
9
100
AcDbSymbolTableRecord
100
AcDbRegAppTableRecord
2
ACAD
70
0
0
ENDTAB
0
TABLE
2
DIMSTYLE
5
A
330
0
100
AcDbSymbolTable
70
0
100
AcDbDimStyleTable
0
ENDTAB
0
TABLE
2
BLOCK_RECORD
5
1
330
0
100
AcDbSymbolTable
70
1
0
BLOCK_RECORD
5
1F
330
1
100
AcDbSymbolTableRecord
100
AcDbBlockTableRecord
2
*MODEL_SPACE
0
BLOCK_RECORD
5
1B
330
1
100
AcDbSymbolTableRecord
100
AcDbBlockTableRecord
2
*PAPER_SPACE
0
ENDTAB
0
ENDSEC
0
SECTION
2
BLOCKS
0
BLOCK
5
20
330
1F
100
AcDbEntity
8
0
100
AcDbBlockBegin
2
*MODEL_SPACE
70
0
10
0
20
0
30
0
3
*MODEL_SPACE
1

0
ENDBLK
5
21
330
1F
100
AcDbEntity
8
0
100
AcDbBlockEnd
0
BLOCK
5
1C
330
1B
100
AcDbEntity
67
1
8
0
100
AcDbBlockBegin
2
*PAPER_SPACE
70
0
10
0
20
0
30
0
3
*PAPER_SPACE
1

0
ENDBLK
5
1D
330
1B
100
AcDbEntity
67
1
8
0
100
AcDbBlockEnd
0
ENDSEC
0
SECTION
2
ENTITIES
0
LWPOLYLINE
5
100
330
1F
100
AcDbEntity
8
0
100
AcDbPolyline
90
16
70
1
10
258.6504
20
12.0005
10
-11.0000
20
12.0005
10
-11.5003
20
11.8657
10
-11.8657
20
11.5003
10
-12.0005
20
11.0000
10
-12.0005
20
-68.1500
10
-11.8657
20
-68.6503
10
-11.5003
20
-69.0157
10
-11.0000
20
-69.1505
10
258.6504
20
-69.1505
10
259.1495
20
-69.0157
10
259.5161
20
-68.6503
10
259.6497
20
-68.1500
10
259.6497
20
11.0000
10
259.5161
20
11.5003
10
259.1495
20
11.8657
0
LWPOLYLINE
5
101
330
1F
100
AcDbEntity
8
0
100
AcDbPolyline
90
36
70
1
10
28.3805
20
-50.6997
10
28.3805
20
-63.5991
10
28.3710
20
-63.6972
10
28.3426
20
-63.7919
10
28.2965
20
-63.8782
10
28.2338
20
-63.9539
10
28.1593
20
-64.0154
10
28.0730
20
-64.0615
10
27.9783
20
-64.0911
10
27.8802
20
-64.0994
10
14.9808
20
-64.0994
10
14.8839
20
-64.0911
10
14.7904
20
-64.0615
10
14.7029
20
-64.0154
10
14.6272
20
-63.9539
10
14.5657
20
-63.8782
10
14.5184
20
-63.7919
10
14.4912
20
-63.6972
10
14.4806
20
-63.5991
10
14.4806
20
-50.6997
10
14.4912
20
-50.6028
10
14.5184
20
-50.5093
10
14.5657
20
-50.4230
10
14.6272
20
-50.3461
10
14.7029
20
-50.2846
10
14.7904
20
-50.2373
10
14.8839
20
-50.2089
10
14.9808
20
-50.2007
10
27.8802
20
-50.2007
10
27.9783
20
-50.2089
10
28.0730
20
-50.2373
10
28.1593
20
-50.2846
10
28.2338
20
-50.3461
10
28.2965
20
-50.4230
10
28.3426
20
-50.5093
10
28.3710
20
-50.6028
0
LWPOLYLINE
5
102
330
1F
100
AcDbEntity
8
0
100
AcDbPolyline
90
36
70
1
10
241.2001
20
-50.2007
10
254.1007
20
-50.2007
10
254.1965
20
-50.2089
10
254.2911
20
-50.2373
10
254.3774
20
-50.2846
10
254.4543
20
-50.3461
10
254.5158
20
-50.4230
10
254.5619
20
-50.5093
10
254.5903
20
-50.6028
10
254.5997
20
-50.6997
10
254.5997
20
-63.5991
10
254.5903
20
-63.6972
10
254.5619
20
-63.7919
10
254.5158
20
-63.8782
10
254.4543
20
-63.9539
10
254.3774
20
-64.0154
10
254.2911
20
-64.0615
10
254.1965
20
-64.0911
10
254.1007
20
-64.0994
10
241.2001
20
-64.0994
10
241.1020
20
-64.0911
10
241.0085
20
-64.0615
10
240.9222
20
-64.0154
10
240.8465
20
-63.9539
10
240.7850
20
-63.8782
10
240.7389
20
-63.7919
10
240.7093
20
-63.6972
10
240.7011
20
-63.5991
10
240.7011
20
-50.6997
10
240.7093
20
-50.6028
10
240.7389
20
-50.5093
10
240.7850
20
-50.4230
10
240.8465
20
-50.3461
10
240.9222
20
-50.2846
10
241.0085
20
-50.2373
10
241.1020
20
-50.2089
0
LWPOLYLINE
5
103
330
1F
100
AcDbEntity
8
0
100
AcDbPolyline
90
36
70
1
10
222.1509
20
-50.2007
10
235.0503
20
-50.2007
10
235.1472
20
-50.2089
10
235.2407
20
-50.2373
10
235.3282
20
-50.2846
10
235.4039
20
-50.3461
10
235.4654
20
-50.4230
10
235.5127
20
-50.5093
10
235.5399
20
-50.6028
10
235.5505
20
-50.6997
10
235.5505
20
-63.5991
10
235.5399
20
-63.6972
10
235.5127
20
-63.7919
10
235.4654
20
-63.8782
10
235.4039
20
-63.9539
10
235.3282
20
-64.0154
10
235.2407
20
-64.0615
10
235.1472
20
-64.0911
10
235.0503
20
-64.0994
10
222.1509
20
-64.0994
10
222.0528
20
-64.0911
10
221.9581
20
-64.0615
10
221.8718
20
-64.0154
10
221.7961
20
-63.9539
10
221.7346
20
-63.8782
10
221.6885
20
-63.7919
10
221.6601
20
-63.6972
10
221.6495
20
-63.5991
10
221.6495
20
-50.6997
10
221.6601
20
-50.6028
10
221.6885
20
-50.5093
10
221.7346
20
-50.4230
10
221.7961
20
-50.3461
10
221.8718
20
-50.2846
10
221.9581
20
-50.2373
10
222.0528
20
-50.2089
0
LWPOLYLINE
5
104
330
1F
100
AcDbEntity
8
0
100
AcDbPolyline
90
36
70
1
10
203.1005
20
-50.2007
10
215.9999
20
-50.2007
10
216.0969
20
-50.2089
10
216.1915
20
-50.2373
10
216.2778
20
-50.2846
10
216.3535
20
-50.3461
10
216.4162
20
-50.4230
10
216.4623
20
-50.5093
10
216.4895
20
-50.6028
10
216.5001
20
-50.6997
10
216.5001
20
-63.5991
10
216.4895
20
-63.6972
10
216.4623
20
-63.7919
10
216.4162
20
-63.8782
10
216.3535
20
-63.9539
10
216.2778
20
-64.0154
10
216.1915
20
-64.0615
10
216.0969
20
-64.0911
10
215.9999
20
-64.0994
10
203.1005
20
-64.0994
10
203.0024
20
-64.0911
10
202.9078
20
-64.0615
10
202.8214
20
-64.0154
10
202.7469
20
-63.9539
10
202.6842
20
-63.8782
10
202.6381
20
-63.7919
10
202.6097
20
-63.6972
10
202.5991
20
-63.5991
10
202.5991
20
-50.6997
10
202.6097
20
-50.6028
10
202.6381
20
-50.5093
10
202.6842
20
-50.4230
10
202.7469
20
-50.3461
10
202.8214
20
-50.2846
10
202.9078
20
-50.2373
10
203.0024
20
-50.2089
0
LWPOLYLINE
5
105
330
1F
100
AcDbEntity
8
0
100
AcDbPolyline
90
36
70
1
10
184.0501
20
-50.2007
10
196.9507
20
-50.2007
10
197.0476
20
-50.2089
10
197.1411
20
-50.2373
10
197.2274
20
-50.2846
10
197.3043
20
-50.3461
10
197.3658
20
-50.4230
10
197.4119
20
-50.5093
10
197.4403
20
-50.6028
10
197.4497
20
-50.6997
10
197.4497
20
-63.5991
10
197.4403
20
-63.6972
10
197.4119
20
-63.7919
10
197.3658
20
-63.8782
10
197.3043
20
-63.9539
10
197.2274
20
-64.0154
10
197.1411
20
-64.0615
10
197.0476
20
-64.0911
10
196.9507
20
-64.0994
10
184.0501
20
-64.0994
10
183.9520
20
-64.0911
10
183.8585
20
-64.0615
10
183.7722
20
-64.0154
10
183.6965
20
-63.9539
10
183.6338
20
-63.8782
10
183.5889
20
-63.7919
10
183.5593
20
-63.6972
10
183.5499
20
-63.5991
10
183.5499
20
-50.6997
10
183.5593
20
-50.6028
10
183.5889
20
-50.5093
10
183.6338
20
-50.4230
10
183.6965
20
-50.3461
10
183.7722
20
-50.2846
10
183.8585
20
-50.2373
10
183.9520
20
-50.2089
0
LWPOLYLINE
5
106
330
1F
100
AcDbEntity
8
0
100
AcDbPolyline
90
36
70
1
10
148.3312
20
-50.2007
10
161.2318
20
-50.2007
10
161.3287
20
-50.2089
10
161.4222
20
-50.2373
10
161.5085
20
-50.2846
10
161.5854
20
-50.3461
10
161.6469
20
-50.4230
10
161.6930
20
-50.5093
10
161.7214
20
-50.6028
10
161.7308
20
-50.6997
10
161.7308
20
-63.5991
10
161.7214
20
-63.6972
10
161.6930
20
-63.7919
10
161.6469
20
-63.8782
10
161.5854
20
-63.9539
10
161.5085
20
-64.0154
10
161.4222
20
-64.0615
10
161.3287
20
-64.0911
10
161.2318
20
-64.0994
10
148.3312
20
-64.0994
10
148.2331
20
-64.0911
10
148.1396
20
-64.0615
10
148.0533
20
-64.0154
10
147.9776
20
-63.9539
10
147.9161
20
-63.8782
10
147.8700
20
-63.7919
10
147.8404
20
-63.6972
10
147.8310
20
-63.5991
10
147.8310
20
-50.6997
10
147.8404
20
-50.6028
10
147.8700
20
-50.5093
10
147.9161
20
-50.4230
10
147.9776
20
-50.3461
10
148.0533
20
-50.2846
10
148.1396
20
-50.2373
10
148.2331
20
-50.2089
0
LWPOLYLINE
5
107
330
1F
100
AcDbEntity
8
0
100
AcDbPolyline
90
36
70
1
10
112.6123
20
-50.2007
10
125.5129
20
-50.2007
10
125.6098
20
-50.2089
10
125.7045
20
-50.2373
10
125.7908
20
-50.2846
10
125.8677
20
-50.3461
10
125.9292
20
-50.4230
10
125.9753
20
-50.5093
10
126.0025
20
-50.6028
10
126.0131
20
-50.6997
10
126.0131
20
-63.5991
10
126.0025
20
-63.6972
10
125.9753
20
-63.7919
10
125.9292
20
-63.8782
10
125.8677
20
-63.9539
10
125.7908
20
-64.0154
10
125.7045
20
-64.0615
10
125.6098
20
-64.0911
10
125.5129
20
-64.0994
10
112.6123
20
-64.0994
10
112.5154
20
-64.0911
10
112.4219
20
-64.0615
10
112.3344
20
-64.0154
10
112.2599
20
-63.9539
10
112.1972
20
-63.8782
10
112.1511
20
-63.7919
10
112.1227
20
-63.6972
10
112.1121
20
-63.5991
10
112.1121
20
-50.6997
10
112.1227
20
-50.6028
10
112.1511
20
-50.5093
10
112.1972
20
-50.4230
10
112.2599
20
-50.3461
10
112.3344
20
-50.2846
10
112.4219
20
-50.2373
10
112.5154
20
-50.2089
0
LWPOLYLINE
5
108
330
1F
100
AcDbEntity
8
0
100
AcDbPolyline
90
36
70
1
10
76.8946
20
-50.2007
10
89.7940
20
-50.2007
10
89.8909
20
-50.2089
10
89.9856
20
-50.2373
10
90.0719
20
-50.2846
10
90.1476
20
-50.3461
10
90.2103
20
-50.4230
10
90.2564
20
-50.5093
10
90.2836
20
-50.6028
10
90.2942
20
-50.6997
10
90.2942
20
-63.5991
10
90.2836
20
-63.6972
10
90.2564
20
-63.7919
10
90.2103
20
-63.8782
10
90.1476
20
-63.9539
10
90.0719
20
-64.0154
10
89.9856
20
-64.0615
10
89.8909
20
-64.0911
10
89.7940
20
-64.0994
10
76.8946
20
-64.0994
10
76.7965
20
-64.0911
10
76.7018
20
-64.0615
10
76.6155
20
-64.0154
10
76.5410
20
-63.9539
10
76.4783
20
-63.8782
10
76.4322
20
-63.7919
10
76.4038
20
-63.6972
10
76.3932
20
-63.5991
10
76.3932
20
-50.6997
10
76.4038
20
-50.6028
10
76.4322
20
-50.5093
10
76.4783
20
-50.4230
10
76.5410
20
-50.3461
10
76.6155
20
-50.2846
10
76.7018
20
-50.2373
10
76.7965
20
-50.2089
0
LWPOLYLINE
5
109
330
1F
100
AcDbEntity
8
0
100
AcDbPolyline
90
36
70
1
10
38.7938
20
-50.2007
10
51.6944
20
-50.2007
10
51.7913
20
-50.2089
10
51.8860
20
-50.2373
10
51.9723
20
-50.2846
10
52.0468
20
-50.3461
10
52.1107
20
-50.4230
10
52.1556
20
-50.5093
10
52.1840
20
-50.6028
10
52.1946
20
-50.6997
10
52.1946
20
-63.5991
10
52.1840
20
-63.6972
10
52.1556
20
-63.7919
10
52.1107
20
-63.8782
10
52.0468
20
-63.9539
10
51.9723
20
-64.0154
10
51.8860
20
-64.0615
10
51.7913
20
-64.0911
10
51.6944
20
-64.0994
10
38.7938
20
-64.0994
10
38.6969
20
-64.0911
10
38.6022
20
-64.0615
10
38.5159
20
-64.0154
10
38.4414
20
-63.9539
10
38.3775
20
-63.8782
10
38.3326
20
-63.7919
10
38.3042
20
-63.6972
10
38.2936
20
-63.5991
10
38.2936
20
-50.6997
10
38.3042
20
-50.6028
10
38.3326
20
-50.5093
10
38.3775
20
-50.4230
10
38.4414
20
-50.3461
10
38.5159
20
-50.2846
10
38.6022
20
-50.2373
10
38.6969
20
-50.2089
0
LWPOLYLINE
5
10A
330
1F
100
AcDbEntity
8
0
100
AcDbPolyline
90
36
70
1
10
-6.4503
20
-50.2007
10
6.4503
20
-50.2007
10
6.5484
20
-50.2089
10
6.6407
20
-50.2373
10
6.7270
20
-50.2846
10
6.8039
20
-50.3461
10
6.8654
20
-50.4230
10
6.9115
20
-50.5093
10
6.9411
20
-50.6028
10
6.9493
20
-50.6997
10
6.9493
20
-63.5991
10
6.9411
20
-63.6972
10
6.9115
20
-63.7919
10
6.8654
20
-63.8782
10
6.8039
20
-63.9539
10
6.7270
20
-64.0154
10
6.6407
20
-64.0615
10
6.5484
20
-64.0911
10
6.4503
20
-64.0994
10
-6.4503
20
-64.0994
10
-6.5484
20
-64.0911
10
-6.6407
20
-64.0615
10
-6.7270
20
-64.0154
10
-6.8039
20
-63.9539
10
-6.8654
20
-63.8782
10
-6.9115
20
-63.7919
10
-6.9411
20
-63.6972
10
-6.9493
20
-63.5991
10
-6.9493
20
-50.6997
10
-6.9411
20
-50.6028
10
-6.9115
20
-50.5093
10
-6.8654
20
-50.4230
10
-6.8039
20
-50.3461
10
-6.7270
20
-50.2846
10
-6.6407
20
-50.2373
10
-6.5484
20
-50.2089
0
LWPOLYLINE
5
10B
330
1F
100
AcDbEntity
8
0
100
AcDbPolyline
90
36
70
1
10
74.8557
20
-51.6991
10
74.8557
20
-65.6002
10
74.8462
20
-65.6971
10
74.8179
20
-65.7917
10
74.7717
20
-65.8781
10
74.7091
20
-65.9538
10
74.6334
20
-66.0153
10
74.5470
20
-66.0626
10
74.4536
20
-66.0898
10
74.3566
20
-66.1004
10
68.4563
20
-66.1004
10
68.3593
20
-66.0898
10
68.2647
20
-66.0626
10
68.1784
20
-66.0153
10
68.1015
20
-65.9538
10
68.0400
20
-65.8781
10
67.9939
20
-65.7917
10
67.9655
20
-65.6971
10
67.9560
20
-65.6002
10
67.9560
20
-51.6991
10
67.9655
20
-51.6021
10
67.9939
20
-51.5087
10
68.0400
20
-51.4223
10
68.1015
20
-51.3467
10
68.1784
20
-51.2840
10
68.2647
20
-51.2379
10
68.3593
20
-51.2095
10
68.4563
20
-51.2000
10
74.3566
20
-51.2000
10
74.4536
20
-51.2095
10
74.5470
20
-51.2379
10
74.6334
20
-51.2840
10
74.7091
20
-51.3467
10
74.7717
20
-51.4223
10
74.8179
20
-51.5087
10
74.8462
20
-51.6021
0
LWPOLYLINE
5
10C
330
1F
100
AcDbEntity
8
0
100
AcDbPolyline
90
36
70
1
10
163.7698
20
-51.2000
10
169.6689
20
-51.2000
10
169.7671
20
-51.2095
10
169.8605
20
-51.2379
10
169.9468
20
-51.2840
10
170.0225
20
-51.3467
10
170.0852
20
-51.4223
10
170.1313
20
-51.5087
10
170.1597
20
-51.6021
10
170.1692
20
-51.6991
10
170.1692
20
-65.6002
10
170.1597
20
-65.6971
10
170.1313
20
-65.7917
10
170.0852
20
-65.8781
10
170.0225
20
-65.9538
10
169.9468
20
-66.0153
10
169.8605
20
-66.0626
10
169.7671
20
-66.0898
10
169.6689
20
-66.1004
10
163.7698
20
-66.1004
10
163.6716
20
-66.0898
10
163.5770
20
-66.0626
10
163.4907
20
-66.0153
10
163.4150
20
-65.9538
10
163.3535
20
-65.8781
10
163.3073
20
-65.7917
10
163.2790
20
-65.6971
10
163.2695
20
-65.6002
10
163.2695
20
-51.6991
10
163.2790
20
-51.6021
10
163.3073
20
-51.5087
10
163.3535
20
-51.4223
10
163.4150
20
-51.3467
10
163.4907
20
-51.2840
10
163.5770
20
-51.2379
10
163.6716
20
-51.2095
0
LWPOLYLINE
5
10D
330
1F
100
AcDbEntity
8
0
100
AcDbPolyline
90
36
70
1
10
139.8929
20
-51.2000
10
145.7932
20
-51.2000
10
145.8902
20
-51.2095
10
145.9848
20
-51.2379
10
146.0712
20
-51.2840
10
146.1457
20
-51.3467
10
146.2095
20
-51.4223
10
146.2545
20
-51.5087
10
146.2829
20
-51.6021
10
146.2935
20
-51.6991
10
146.2935
20
-65.6002
10
146.2829
20
-65.6971
10
146.2545
20
-65.7917
10
146.2095
20
-65.8781
10
146.1457
20
-65.9538
10
146.0712
20
-66.0153
10
145.9848
20
-66.0626
10
145.8902
20
-66.0898
10
145.7932
20
-66.1004
10
139.8929
20
-66.1004
10
139.7959
20
-66.0898
10
139.7013
20
-66.0626
10
139.6150
20
-66.0153
10
139.5393
20
-65.9538
10
139.4766
20
-65.8781
10
139.4305
20
-65.7917
10
139.4033
20
-65.6971
10
139.3926
20
-65.6002
10
139.3926
20
-51.6991
10
139.4033
20
-51.6021
10
139.4305
20
-51.5087
10
139.4766
20
-51.4223
10
139.5393
20
-51.3467
10
139.6150
20
-51.2840
10
139.7013
20
-51.2379
10
139.7959
20
-51.2095
0
LWPOLYLINE
5
10E
330
1F
100
AcDbEntity
8
0
100
AcDbPolyline
90
36
70
1
10
92.3320
20
-51.2000
10
98.2323
20
-51.2000
10
98.3293
20
-51.2095
10
98.4227
20
-51.2379
10
98.5090
20
-51.2840
10
98.5859
20
-51.3467
10
98.6474
20
-51.4223
10
98.6935
20
-51.5087
10
98.7231
20
-51.6021
10
98.7314
20
-51.6991
10
98.7314
20
-65.6002
10
98.7231
20
-65.6971
10
98.6935
20
-65.7917
10
98.6474
20
-65.8781
10
98.5859
20
-65.9538
10
98.5090
20
-66.0153
10
98.4227
20
-66.0626
10
98.3293
20
-66.0898
10
98.2323
20
-66.1004
10
92.3320
20
-66.1004
10
92.2338
20
-66.0898
10
92.1404
20
-66.0626
10
92.0540
20
-66.0153
10
91.9784
20
-65.9538
10
91.9169
20
-65.8781
10
91.8707
20
-65.7917
10
91.8412
20
-65.6971
10
91.8329
20
-65.6002
10
91.8329
20
-51.6991
10
91.8412
20
-51.6021
10
91.8707
20
-51.5087
10
91.9169
20
-51.4223
10
91.9784
20
-51.3467
10
92.0540
20
-51.2840
10
92.1404
20
-51.2379
10
92.2338
20
-51.2095
0
LWPOLYLINE
5
10F
330
1F
100
AcDbEntity
8
0
100
AcDbPolyline
90
36
70
1
10
197.4497
20
-31.6505
10
197.4497
20
-44.5499
10
197.4403
20
-44.6480
10
197.4119
20
-44.7415
10
197.3658
20
-44.8278
10
197.3043
20
-44.9035
10
197.2274
20
-44.9650
10
197.1411
20
-45.0123
10
197.0476
20
-45.0407
10
196.9507
20
-45.0501
10
184.0501
20
-45.0501
10
183.9520
20
-45.0407
10
183.8585
20
-45.0123
10
183.7722
20
-44.9650
10
183.6965
20
-44.9035
10
183.6338
20
-44.8278
10
183.5889
20
-44.7415
10
183.5593
20
-44.6480
10
183.5499
20
-44.5499
10
183.5499
20
-31.6505
10
183.5593
20
-31.5524
10
183.5889
20
-31.4589
10
183.6338
20
-31.3726
10
183.6965
20
-31.2957
10
183.7722
20
-31.2342
10
183.8585
20
-31.1881
10
183.9520
20
-31.1585
10
184.0501
20
-31.1503
10
196.9507
20
-31.1503
10
197.0476
20
-31.1585
10
197.1411
20
-31.1881
10
197.2274
20
-31.2342
10
197.3043
20
-31.2957
10
197.3658
20
-31.3726
10
197.4119
20
-31.4589
10
197.4403
20
-31.5524
0
LWPOLYLINE
5
110
330
1F
100
AcDbEntity
8
0
100
AcDbPolyline
90
36
70
1
10
197.4497
20
6.4503
10
197.4497
20
-6.4503
10
197.4403
20
-6.5484
10
197.4119
20
-6.6407
10
197.3658
20
-6.7270
10
197.3043
20
-6.8039
10
197.2274
20
-6.8654
10
197.1411
20
-6.9115
10
197.0476
20
-6.9411
10
196.9507
20
-6.9493
10
184.0501
20
-6.9493
10
183.9520
20
-6.9411
10
183.8585
20
-6.9115
10
183.7722
20
-6.8654
10
183.6965
20
-6.8039
10
183.6338
20
-6.7270
10
183.5889
20
-6.6407
10
183.5593
20
-6.5484
10
183.5499
20
-6.4503
10
183.5499
20
6.4503
10
183.5593
20
6.5484
10
183.5889
20
6.6407
10
183.6338
20
6.7270
10
183.6965
20
6.8039
10
183.7722
20
6.8654
10
183.8585
20
6.9115
10
183.9520
20
6.9411
10
184.0501
20
6.9493
10
196.9507
20
6.9493
10
197.0476
20
6.9411
10
197.1411
20
6.9115
10
197.2274
20
6.8654
10
197.3043
20
6.8039
10
197.3658
20
6.7270
10
197.4119
20
6.6407
10
197.4403
20
6.5484
0
LWPOLYLINE
5
111
330
1F
100
AcDbEntity
8
0
100
AcDbPolyline
90
36
70
1
10
216.5001
20
-31.6505
10
216.5001
20
-44.5499
10
216.4895
20
-44.6480
10
216.4623
20
-44.7415
10
216.4162
20
-44.8278
10
216.3535
20
-44.9035
10
216.2778
20
-44.9650
10
216.1915
20
-45.0123
10
216.0969
20
-45.0407
10
215.9999
20
-45.0501
10
203.1005
20
-45.0501
10
203.0024
20
-45.0407
10
202.9078
20
-45.0123
10
202.8214
20
-44.9650
10
202.7469
20
-44.9035
10
202.6842
20
-44.8278
10
202.6381
20
-44.7415
10
202.6097
20
-44.6480
10
202.5991
20
-44.5499
10
202.5991
20
-31.6505
10
202.6097
20
-31.5524
10
202.6381
20
-31.4589
10
202.6842
20
-31.3726
10
202.7469
20
-31.2957
10
202.8214
20
-31.2342
10
202.9078
20
-31.1881
10
203.0024
20
-31.1585
10
203.1005
20
-31.1503
10
215.9999
20
-31.1503
10
216.0969
20
-31.1585
10
216.1915
20
-31.1881
10
216.2778
20
-31.2342
10
216.3535
20
-31.2957
10
216.4162
20
-31.3726
10
216.4623
20
-31.4589
10
216.4895
20
-31.5524
0
LWPOLYLINE
5
112
330
1F
100
AcDbEntity
8
0
100
AcDbPolyline
90
36
70
1
10
216.5001
20
6.4503
10
216.5001
20
-6.4503
10
216.4895
20
-6.5484
10
216.4623
20
-6.6407
10
216.4162
20
-6.7270
10
216.3535
20
-6.8039
10
216.2778
20
-6.8654
10
216.1915
20
-6.9115
10
216.0969
20
-6.9411
10
215.9999
20
-6.9493
10
203.1005
20
-6.9493
10
203.0024
20
-6.9411
10
202.9078
20
-6.9115
10
202.8214
20
-6.8654
10
202.7469
20
-6.8039
10
202.6842
20
-6.7270
10
202.6381
20
-6.6407
10
202.6097
20
-6.5484
10
202.5991
20
-6.4503
10
202.5991
20
6.4503
10
202.6097
20
6.5484
10
202.6381
20
6.6407
10
202.6842
20
6.7270
10
202.7469
20
6.8039
10
202.8214
20
6.8654
10
202.9078
20
6.9115
10
203.0024
20
6.9411
10
203.1005
20
6.9493
10
215.9999
20
6.9493
10
216.0969
20
6.9411
10
216.1915
20
6.9115
10
216.2778
20
6.8654
10
216.3535
20
6.8039
10
216.4162
20
6.7270
10
216.4623
20
6.6407
10
216.4895
20
6.5484
0
LWPOLYLINE
5
113
330
1F
100
AcDbEntity
8
0
100
AcDbPolyline
90
36
70
1
10
235.5505
20
6.4503
10
235.5505
20
-6.4503
10
235.5399
20
-6.5484
10
235.5127
20
-6.6407
10
235.4654
20
-6.7270
10
235.4039
20
-6.8039
10
235.3282
20
-6.8654
10
235.2407
20
-6.9115
10
235.1472
20
-6.9411
10
235.0503
20
-6.9493
10
222.1509
20
-6.9493
10
222.0528
20
-6.9411
10
221.9581
20
-6.9115
10
221.8718
20
-6.8654
10
221.7961
20
-6.8039
10
221.7346
20
-6.7270
10
221.6885
20
-6.6407
10
221.6601
20
-6.5484
10
221.6495
20
-6.4503
10
221.6495
20
6.4503
10
221.6601
20
6.5484
10
221.6885
20
6.6407
10
221.7346
20
6.7270
10
221.7961
20
6.8039
10
221.8718
20
6.8654
10
221.9581
20
6.9115
10
222.0528
20
6.9411
10
222.1509
20
6.9493
10
235.0503
20
6.9493
10
235.1472
20
6.9411
10
235.2407
20
6.9115
10
235.3282
20
6.8654
10
235.4039
20
6.8039
10
235.4654
20
6.7270
10
235.5127
20
6.6407
10
235.5399
20
6.5484
0
LWPOLYLINE
5
114
330
1F
100
AcDbEntity
8
0
100
AcDbPolyline
90
36
70
1
10
254.5997
20
6.4503
10
254.5997
20
-6.4503
10
254.5903
20
-6.5484
10
254.5619
20
-6.6407
10
254.5158
20
-6.7270
10
254.4543
20
-6.8039
10
254.3774
20
-6.8654
10
254.2911
20
-6.9115
10
254.1965
20
-6.9411
10
254.1007
20
-6.9493
10
241.2001
20
-6.9493
10
241.1020
20
-6.9411
10
241.0085
20
-6.9115
10
240.9222
20
-6.8654
10
240.8465
20
-6.8039
10
240.7850
20
-6.7270
10
240.7389
20
-6.6407
10
240.7093
20
-6.5484
10
240.7011
20
-6.4503
10
240.7011
20
6.4503
10
240.7093
20
6.5484
10
240.7389
20
6.6407
10
240.7850
20
6.7270
10
240.8465
20
6.8039
10
240.9222
20
6.8654
10
241.0085
20
6.9115
10
241.1020
20
6.9411
10
241.2001
20
6.9493
10
254.1007
20
6.9493
10
254.1965
20
6.9411
10
254.2911
20
6.9115
10
254.3774
20
6.8654
10
254.4543
20
6.8039
10
254.5158
20
6.7270
10
254.5619
20
6.6407
10
254.5903
20
6.5484
0
LWPOLYLINE
5
115
330
1F
100
AcDbEntity
8
0
100
AcDbPolyline
90
36
70
1
10
6.9493
20
6.4503
10
6.9493
20
-6.4503
10
6.9411
20
-6.5484
10
6.9115
20
-6.6407
10
6.8654
20
-6.7270
10
6.8039
20
-6.8039
10
6.7270
20
-6.8654
10
6.6407
20
-6.9115
10
6.5484
20
-6.9411
10
6.4503
20
-6.9493
10
-6.4503
20
-6.9493
10
-6.5484
20
-6.9411
10
-6.6407
20
-6.9115
10
-6.7270
20
-6.8654
10
-6.8039
20
-6.8039
10
-6.8654
20
-6.7270
10
-6.9115
20
-6.6407
10
-6.9411
20
-6.5484
10
-6.9493
20
-6.4503
10
-6.9493
20
6.4503
10
-6.9411
20
6.5484
10
-6.9115
20
6.6407
10
-6.8654
20
6.7270
10
-6.8039
20
6.8039
10
-6.7270
20
6.8654
10
-6.6407
20
6.9115
10
-6.5484
20
6.9411
10
-6.4503
20
6.9493
10
6.4503
20
6.9493
10
6.5484
20
6.9411
10
6.6407
20
6.9115
10
6.7270
20
6.8654
10
6.8039
20
6.8039
10
6.8654
20
6.7270
10
6.9115
20
6.6407
10
6.9411
20
6.5484
0
LWPOLYLINE
5
116
330
1F
100
AcDbEntity
8
0
100
AcDbPolyline
90
36
70
1
10
164.9997
20
6.9493
10
177.9003
20
6.9493
10
177.9972
20
6.9411
10
178.0919
20
6.9115
10
178.1782
20
6.8654
10
178.2539
20
6.8039
10
178.3166
20
6.7270
10
178.3627
20
6.6407
10
178.3899
20
6.5484
10
178.4005
20
6.4503
10
178.4005
20
-6.4503
10
178.3899
20
-6.5484
10
178.3627
20
-6.6407
10
178.3166
20
-6.7270
10
178.2539
20
-6.8039
10
178.1782
20
-6.8654
10
178.0919
20
-6.9115
10
177.9972
20
-6.9411
10
177.9003
20
-6.9493
10
164.9997
20
-6.9493
10
164.9028
20
-6.9411
10
164.8081
20
-6.9115
10
164.7218
20
-6.8654
10
164.6473
20
-6.8039
10
164.5834
20
-6.7270
10
164.5385
20
-6.6407
10
164.5101
20
-6.5484
10
164.4995
20
-6.4503
10
164.4995
20
6.4503
10
164.5101
20
6.5484
10
164.5385
20
6.6407
10
164.5834
20
6.7270
10
164.6473
20
6.8039
10
164.7218
20
6.8654
10
164.8081
20
6.9115
10
164.9028
20
6.9411
0
LWPOLYLINE
5
117
330
1F
100
AcDbEntity
8
0
100
AcDbPolyline
90
36
70
1
10
145.9493
20
6.9493
10
158.8511
20
6.9493
10
158.9469
20
6.9411
10
159.0415
20
6.9115
10
159.1278
20
6.8654
10
159.2035
20
6.8039
10
159.2662
20
6.7270
10
159.3111
20
6.6407
10
159.3407
20
6.5484
10
159.3501
20
6.4503
10
159.3501
20
-6.4503
10
159.3407
20
-6.5484
10
159.3111
20
-6.6407
10
159.2662
20
-6.7270
10
159.2035
20
-6.8039
10
159.1278
20
-6.8654
10
159.0415
20
-6.9115
10
158.9469
20
-6.9411
10
158.8511
20
-6.9493
10
145.9493
20
-6.9493
10
145.8524
20
-6.9411
10
145.7589
20
-6.9115
10
145.6726
20
-6.8654
10
145.5969
20
-6.8039
10
145.5342
20
-6.7270
10
145.4881
20
-6.6407
10
145.4597
20
-6.5484
10
145.4503
20
-6.4503
10
145.4503
20
6.4503
10
145.4597
20
6.5484
10
145.4881
20
6.6407
10
145.5342
20
6.7270
10
145.5969
20
6.8039
10
145.6726
20
6.8654
10
145.7589
20
6.9115
10
145.8524
20
6.9411
0
LWPOLYLINE
5
118
330
1F
100
AcDbEntity
8
0
100
AcDbPolyline
90
36
70
1
10
126.9001
20
6.9493
10
139.8007
20
6.9493
10
139.8976
20
6.9411
10
139.9911
20
6.9115
10
140.0774
20
6.8654
10
140.1531
20
6.8039
10
140.2158
20
6.7270
10
140.2619
20
6.6407
10
140.2903
20
6.5484
10
140.3009
20
6.4503
10
140.3009
20
-6.4503
10
140.2903
20
-6.5484
10
140.2619
20
-6.6407
10
140.2158
20
-6.7270
10
140.1531
20
-6.8039
10
140.0774
20
-6.8654
10
139.9911
20
-6.9115
10
139.8976
20
-6.9411
10
139.8007
20
-6.9493
10
126.9001
20
-6.9493
10
126.8032
20
-6.9411
10
126.7085
20
-6.9115
10
126.6222
20
-6.8654
10
126.5453
20
-6.8039
10
126.4838
20
-6.7270
10
126.4377
20
-6.6407
10
126.4105
20
-6.5484
10
126.3999
20
-6.4503
10
126.3999
20
6.4503
10
126.4105
20
6.5484
10
126.4377
20
6.6407
10
126.4838
20
6.7270
10
126.5453
20
6.8039
10
126.6222
20
6.8654
10
126.7085
20
6.9115
10
126.8032
20
6.9411
0
LWPOLYLINE
5
119
330
1F
100
AcDbEntity
8
0
100
AcDbPolyline
90
36
70
1
10
107.8497
20
6.9493
10
120.7491
20
6.9493
10
120.8472
20
6.9411
10
120.9419
20
6.9115
10
121.0282
20
6.8654
10
121.1027
20
6.8039
10
121.1654
20
6.7270
10
121.2115
20
6.6407
10
121.2399
20
6.5484
10
121.2505
20
6.4503
10
121.2505
20
-6.4503
10
121.2399
20
-6.5484
10
121.2115
20
-6.6407
10
121.1654
20
-6.7270
10
121.1027
20
-6.8039
10
121.0282
20
-6.8654
10
120.9419
20
-6.9115
10
120.8472
20
-6.9411
10
120.7491
20
-6.9493
10
107.8497
20
-6.9493
10
107.7528
20
-6.9411
10
107.6581
20
-6.9115
10
107.5718
20
-6.8654
10
107.4961
20
-6.8039
10
107.4334
20
-6.7270
10
107.3873
20
-6.6407
10
107.3601
20
-6.5484
10
107.3495
20
-6.4503
10
107.3495
20
6.4503
10
107.3601
20
6.5484
10
107.3873
20
6.6407
10
107.4334
20
6.7270
10
107.4961
20
6.8039
10
107.5718
20
6.8654
10
107.6581
20
6.9115
10
107.7528
20
6.9411
0
LWPOLYLINE
5
11A
330
1F
100
AcDbEntity
8
0
100
AcDbPolyline
90
36
70
1
10
88.7993
20
6.9493
10
101.6999
20
6.9493
10
101.7980
20
6.9411
10
101.8915
20
6.9115
10
101.9778
20
6.8654
10
102.0535
20
6.8039
10
102.1150
20
6.7270
10
102.1611
20
6.6407
10
102.1907
20
6.5484
10
102.2001
20
6.4503
10
102.2001
20
-6.4503
10
102.1907
20
-6.5484
10
102.1611
20
-6.6407
10
102.1150
20
-6.7270
10
102.0535
20
-6.8039
10
101.9778
20
-6.8654
10
101.8915
20
-6.9115
10
101.7980
20
-6.9411
10
101.6999
20
-6.9493
10
88.7993
20
-6.9493
10
88.7024
20
-6.9411
10
88.6089
20
-6.9115
10
88.5226
20
-6.8654
10
88.4457
20
-6.8039
10
88.3842
20
-6.7270
10
88.3381
20
-6.6407
10
88.3097
20
-6.5484
10
88.3003
20
-6.4503
10
88.3003
20
6.4503
10
88.3097
20
6.5484
10
88.3381
20
6.6407
10
88.3842
20
6.7270
10
88.4457
20
6.8039
10
88.5226
20
6.8654
10
88.6089
20
6.9115
10
88.7024
20
6.9411
0
LWPOLYLINE
5
11B
330
1F
100
AcDbEntity
8
0
100
AcDbPolyline
90
36
70
1
10
69.7501
20
6.9493
10
82.6495
20
6.9493
10
82.7476
20
6.9411
10
82.8423
20
6.9115
10
82.9286
20
6.8654
10
83.0031
20
6.8039
10
83.0658
20
6.7270
10
83.1119
20
6.6407
10
83.1403
20
6.5484
10
83.1497
20
6.4503
10
83.1497
20
-6.4503
10
83.1403
20
-6.5484
10
83.1119
20
-6.6407
10
83.0658
20
-6.7270
10
83.0031
20
-6.8039
10
82.9286
20
-6.8654
10
82.8423
20
-6.9115
10
82.7476
20
-6.9411
10
82.6495
20
-6.9493
10
69.7501
20
-6.9493
10
69.6532
20
-6.9411
10
69.5585
20
-6.9115
10
69.4722
20
-6.8654
10
69.3965
20
-6.8039
10
69.3338
20
-6.7270
10
69.2877
20
-6.6407
10
69.2605
20
-6.5484
10
69.2499
20
-6.4503
10
69.2499
20
6.4503
10
69.2605
20
6.5484
10
69.2877
20
6.6407
10
69.3338
20
6.7270
10
69.3965
20
6.8039
10
69.4722
20
6.8654
10
69.5585
20
6.9115
10
69.6532
20
6.9411
0
LWPOLYLINE
5
11C
330
1F
100
AcDbEntity
8
0
100
AcDbPolyline
90
36
70
1
10
50.6997
20
6.9493
10
63.5991
20
6.9493
10
63.6972
20
6.9411
10
63.7919
20
6.9115
10
63.8782
20
6.8654
10
63.9539
20
6.8039
10
64.0154
20
6.7270
10
64.0615
20
6.6407
10
64.0911
20
6.5484
10
64.0994
20
6.4503
10
64.0994
20
-6.4503
10
64.0911
20
-6.5484
10
64.0615
20
-6.6407
10
64.0154
20
-6.7270
10
63.9539
20
-6.8039
10
63.8782
20
-6.8654
10
63.7919
20
-6.9115
10
63.6972
20
-6.9411
10
63.5991
20
-6.9493
10
50.6997
20
-6.9493
10
50.6028
20
-6.9411
10
50.5093
20
-6.9115
10
50.4230
20
-6.8654
10
50.3461
20
-6.8039
10
50.2846
20
-6.7270
10
50.2373
20
-6.6407
10
50.2089
20
-6.5484
10
50.2007
20
-6.4503
10
50.2007
20
6.4503
10
50.2089
20
6.5484
10
50.2373
20
6.6407
10
50.2846
20
6.7270
10
50.3461
20
6.8039
10
50.4230
20
6.8654
10
50.5093
20
6.9115
10
50.6028
20
6.9411
0
LWPOLYLINE
5
11D
330
1F
100
AcDbEntity
8
0
100
AcDbPolyline
90
36
70
1
10
31.6505
20
6.9493
10
44.5499
20
6.9493
10
44.6480
20
6.9411
10
44.7415
20
6.9115
10
44.8278
20
6.8654
10
44.9035
20
6.8039
10
44.9650
20
6.7270
10
45.0123
20
6.6407
10
45.0407
20
6.5484
10
45.0501
20
6.4503
10
45.0501
20
-6.4503
10
45.0407
20
-6.5484
10
45.0123
20
-6.6407
10
44.9650
20
-6.7270
10
44.9035
20
-6.8039
10
44.8278
20
-6.8654
10
44.7415
20
-6.9115
10
44.6480
20
-6.9411
10
44.5499
20
-6.9493
10
31.6505
20
-6.9493
10
31.5524
20
-6.9411
10
31.4589
20
-6.9115
10
31.3726
20
-6.8654
10
31.2957
20
-6.8039
10
31.2342
20
-6.7270
10
31.1881
20
-6.6407
10
31.1585
20
-6.5484
10
31.1503
20
-6.4503
10
31.1503
20
6.4503
10
31.1585
20
6.5484
10
31.1881
20
6.6407
10
31.2342
20
6.7270
10
31.2957
20
6.8039
10
31.3726
20
6.8654
10
31.4589
20
6.9115
10
31.5524
20
6.9411
0
LWPOLYLINE
5
11E
330
1F
100
AcDbEntity
8
0
100
AcDbPolyline
90
36
70
1
10
12.6001
20
6.9493
10
25.4995
20
6.9493
10
25.5976
20
6.9411
10
25.6911
20
6.9115
10
25.7774
20
6.8654
10
25.8531
20
6.8039
10
25.9158
20
6.7270
10
25.9619
20
6.6407
10
25.9903
20
6.5484
10
25.9997
20
6.4503
10
25.9997
20
-6.4503
10
25.9903
20
-6.5484
10
25.9619
20
-6.6407
10
25.9158
20
-6.7270
10
25.8531
20
-6.8039
10
25.7774
20
-6.8654
10
25.6911
20
-6.9115
10
25.5976
20
-6.9411
10
25.4995
20
-6.9493
10
12.6001
20
-6.9493
10
12.5020
20
-6.9411
10
12.4085
20
-6.9115
10
12.3222
20
-6.8654
10
12.2465
20
-6.8039
10
12.1838
20
-6.7270
10
12.1377
20
-6.6407
10
12.1093
20
-6.5484
10
12.0999
20
-6.4503
10
12.0999
20
6.4503
10
12.1093
20
6.5484
10
12.1377
20
6.6407
10
12.1838
20
6.7270
10
12.2465
20
6.8039
10
12.3222
20
6.8654
10
12.4085
20
6.9115
10
12.5020
20
6.9411
0
LWPOLYLINE
5
11F
330
1F
100
AcDbEntity
8
0
100
AcDbPolyline
90
36
70
1
10
45.0501
20
-31.6505
10
45.0501
20
-44.5499
10
45.0407
20
-44.6480
10
45.0123
20
-44.7415
10
44.9650
20
-44.8278
10
44.9035
20
-44.9035
10
44.8278
20
-44.9650
10
44.7415
20
-45.0123
10
44.6480
20
-45.0407
10
44.5499
20
-45.0501
10
31.6505
20
-45.0501
10
31.5524
20
-45.0407
10
31.4589
20
-45.0123
10
31.3726
20
-44.9650
10
31.2957
20
-44.9035
10
31.2342
20
-44.8278
10
31.1881
20
-44.7415
10
31.1585
20
-44.6480
10
31.1503
20
-44.5499
10
31.1503
20
-31.6505
10
31.1585
20
-31.5524
10
31.1881
20
-31.4589
10
31.2342
20
-31.3726
10
31.2957
20
-31.2957
10
31.3726
20
-31.2342
10
31.4589
20
-31.1881
10
31.5524
20
-31.1585
10
31.6505
20
-31.1503
10
44.5499
20
-31.1503
10
44.6480
20
-31.1585
10
44.7415
20
-31.1881
10
44.8278
20
-31.2342
10
44.9035
20
-31.2957
10
44.9650
20
-31.3726
10
45.0123
20
-31.4589
10
45.0407
20
-31.5524
0
LWPOLYLINE
5
120
330
1F
100
AcDbEntity
8
0
100
AcDbPolyline
90
36
70
1
10
64.0994
20
-31.6505
10
64.0994
20
-44.5499
10
64.0911
20
-44.6480
10
64.0615
20
-44.7415
10
64.0154
20
-44.8278
10
63.9539
20
-44.9035
10
63.8782
20
-44.9650
10
63.7919
20
-45.0123
10
63.6972
20
-45.0407
10
63.5991
20
-45.0501
10
50.6997
20
-45.0501
10
50.6028
20
-45.0407
10
50.5093
20
-45.0123
10
50.4230
20
-44.9650
10
50.3461
20
-44.9035
10
50.2846
20
-44.8278
10
50.2373
20
-44.7415
10
50.2089
20
-44.6480
10
50.2007
20
-44.5499
10
50.2007
20
-31.6505
10
50.2089
20
-31.5524
10
50.2373
20
-31.4589
10
50.2846
20
-31.3726
10
50.3461
20
-31.2957
10
50.4230
20
-31.2342
10
50.5093
20
-31.1881
10
50.6028
20
-31.1585
10
50.6997
20
-31.1503
10
63.5991
20
-31.1503
10
63.6972
20
-31.1585
10
63.7919
20
-31.1881
10
63.8782
20
-31.2342
10
63.9539
20
-31.2957
10
64.0154
20
-31.3726
10
64.0615
20
-31.4589
10
64.0911
20
-31.5524
0
LWPOLYLINE
5
121
330
1F
100
AcDbEntity
8
0
100
AcDbPolyline
90
36
70
1
10
83.1497
20
-31.6505
10
83.1497
20
-44.5499
10
83.1403
20
-44.6480
10
83.1119
20
-44.7415
10
83.0658
20
-44.8278
10
83.0031
20
-44.9035
10
82.9286
20
-44.9650
10
82.8423
20
-45.0123
10
82.7476
20
-45.0407
10
82.6495
20
-45.0501
10
69.7501
20
-45.0501
10
69.6532
20
-45.0407
10
69.5585
20
-45.0123
10
69.4722
20
-44.9650
10
69.3965
20
-44.9035
10
69.3338
20
-44.8278
10
69.2877
20
-44.7415
10
69.2605
20
-44.6480
10
69.2499
20
-44.5499
10
69.2499
20
-31.6505
10
69.2605
20
-31.5524
10
69.2877
20
-31.4589
10
69.3338
20
-31.3726
10
69.3965
20
-31.2957
10
69.4722
20
-31.2342
10
69.5585
20
-31.1881
10
69.6532
20
-31.1585
10
69.7501
20
-31.1503
10
82.6495
20
-31.1503
10
82.7476
20
-31.1585
10
82.8423
20
-31.1881
10
82.9286
20
-31.2342
10
83.0031
20
-31.2957
10
83.0658
20
-31.3726
10
83.1119
20
-31.4589
10
83.1403
20
-31.5524
0
LWPOLYLINE
5
122
330
1F
100
AcDbEntity
8
0
100
AcDbPolyline
90
36
70
1
10
102.2001
20
-31.6505
10
102.2001
20
-44.5499
10
102.1907
20
-44.6480
10
102.1611
20
-44.7415
10
102.1150
20
-44.8278
10
102.0535
20
-44.9035
10
101.9778
20
-44.9650
10
101.8915
20
-45.0123
10
101.7980
20
-45.0407
10
101.6999
20
-45.0501
10
88.7993
20
-45.0501
10
88.7024
20
-45.0407
10
88.6089
20
-45.0123
10
88.5226
20
-44.9650
10
88.4457
20
-44.9035
10
88.3842
20
-44.8278
10
88.3381
20
-44.7415
10
88.3097
20
-44.6480
10
88.3003
20
-44.5499
10
88.3003
20
-31.6505
10
88.3097
20
-31.5524
10
88.3381
20
-31.4589
10
88.3842
20
-31.3726
10
88.4457
20
-31.2957
10
88.5226
20
-31.2342
10
88.6089
20
-31.1881
10
88.7024
20
-31.1585
10
88.7993
20
-31.1503
10
101.6999
20
-31.1503
10
101.7980
20
-31.1585
10
101.8915
20
-31.1881
10
101.9778
20
-31.2342
10
102.0535
20
-31.2957
10
102.1150
20
-31.3726
10
102.1611
20
-31.4589
10
102.1907
20
-31.5524
0
LWPOLYLINE
5
123
330
1F
100
AcDbEntity
8
0
100
AcDbPolyline
90
36
70
1
10
121.2505
20
-31.6505
10
121.2505
20
-44.5499
10
121.2399
20
-44.6480
10
121.2115
20
-44.7415
10
121.1654
20
-44.8278
10
121.1027
20
-44.9035
10
121.0282
20
-44.9650
10
120.9419
20
-45.0123
10
120.8472
20
-45.0407
10
120.7491
20
-45.0501
10
107.8497
20
-45.0501
10
107.7528
20
-45.0407
10
107.6581
20
-45.0123
10
107.5718
20
-44.9650
10
107.4961
20
-44.9035
10
107.4334
20
-44.8278
10
107.3873
20
-44.7415
10
107.3601
20
-44.6480
10
107.3495
20
-44.5499
10
107.3495
20
-31.6505
10
107.3601
20
-31.5524
10
107.3873
20
-31.4589
10
107.4334
20
-31.3726
10
107.4961
20
-31.2957
10
107.5718
20
-31.2342
10
107.6581
20
-31.1881
10
107.7528
20
-31.1585
10
107.8497
20
-31.1503
10
120.7491
20
-31.1503
10
120.8472
20
-31.1585
10
120.9419
20
-31.1881
10
121.0282
20
-31.2342
10
121.1027
20
-31.2957
10
121.1654
20
-31.3726
10
121.2115
20
-31.4589
10
121.2399
20
-31.5524
0
LWPOLYLINE
5
124
330
1F
100
AcDbEntity
8
0
100
AcDbPolyline
90
36
70
1
10
140.3009
20
-31.6505
10
140.3009
20
-44.5499
10
140.2903
20
-44.6480
10
140.2619
20
-44.7415
10
140.2158
20
-44.8278
10
140.1531
20
-44.9035
10
140.0774
20
-44.9650
10
139.9911
20
-45.0123
10
139.8976
20
-45.0407
10
139.8007
20
-45.0501
10
126.9001
20
-45.0501
10
126.8032
20
-45.0407
10
126.7085
20
-45.0123
10
126.6222
20
-44.9650
10
126.5453
20
-44.9035
10
126.4838
20
-44.8278
10
126.4377
20
-44.7415
10
126.4105
20
-44.6480
10
126.3999
20
-44.5499
10
126.3999
20
-31.6505
10
126.4105
20
-31.5524
10
126.4377
20
-31.4589
10
126.4838
20
-31.3726
10
126.5453
20
-31.2957
10
126.6222
20
-31.2342
10
126.7085
20
-31.1881
10
126.8032
20
-31.1585
10
126.9001
20
-31.1503
10
139.8007
20
-31.1503
10
139.8976
20
-31.1585
10
139.9911
20
-31.1881
10
140.0774
20
-31.2342
10
140.1531
20
-31.2957
10
140.2158
20
-31.3726
10
140.2619
20
-31.4589
10
140.2903
20
-31.5524
0
LWPOLYLINE
5
125
330
1F
100
AcDbEntity
8
0
100
AcDbPolyline
90
36
70
1
10
159.3501
20
-31.6505
10
159.3501
20
-44.5499
10
159.3407
20
-44.6480
10
159.3111
20
-44.7415
10
159.2662
20
-44.8278
10
159.2035
20
-44.9035
10
159.1278
20
-44.9650
10
159.0415
20
-45.0123
10
158.9469
20
-45.0407
10
158.8511
20
-45.0501
10
145.9493
20
-45.0501
10
145.8524
20
-45.0407
10
145.7589
20
-45.0123
10
145.6726
20
-44.9650
10
145.5969
20
-44.9035
10
145.5342
20
-44.8278
10
145.4881
20
-44.7415
10
145.4597
20
-44.6480
10
145.4503
20
-44.5499
10
145.4503
20
-31.6505
10
145.4597
20
-31.5524
10
145.4881
20
-31.4589
10
145.5342
20
-31.3726
10
145.5969
20
-31.2957
10
145.6726
20
-31.2342
10
145.7589
20
-31.1881
10
145.8524
20
-31.1585
10
145.9493
20
-31.1503
10
158.8511
20
-31.1503
10
158.9469
20
-31.1585
10
159.0415
20
-31.1881
10
159.1278
20
-31.2342
10
159.2035
20
-31.2957
10
159.2662
20
-31.3726
10
159.3111
20
-31.4589
10
159.3407
20
-31.5524
0
LWPOLYLINE
5
126
330
1F
100
AcDbEntity
8
0
100
AcDbPolyline
90
36
70
1
10
178.4005
20
-31.6505
10
178.4005
20
-44.5499
10
178.3899
20
-44.6480
10
178.3627
20
-44.7415
10
178.3166
20
-44.8278
10
178.2539
20
-44.9035
10
178.1782
20
-44.9650
10
178.0919
20
-45.0123
10
177.9972
20
-45.0407
10
177.9003
20
-45.0501
10
164.9997
20
-45.0501
10
164.9028
20
-45.0407
10
164.8081
20
-45.0123
10
164.7218
20
-44.9650
10
164.6473
20
-44.9035
10
164.5834
20
-44.8278
10
164.5385
20
-44.7415
10
164.5101
20
-44.6480
10
164.4995
20
-44.5499
10
164.4995
20
-31.6505
10
164.5101
20
-31.5524
10
164.5385
20
-31.4589
10
164.5834
20
-31.3726
10
164.6473
20
-31.2957
10
164.7218
20
-31.2342
10
164.8081
20
-31.1881
10
164.9028
20
-31.1585
10
164.9997
20
-31.1503
10
177.9003
20
-31.1503
10
177.9972
20
-31.1585
10
178.0919
20
-31.1881
10
178.1782
20
-31.2342
10
178.2539
20
-31.2957
10
178.3166
20
-31.3726
10
178.3627
20
-31.4589
10
178.3899
20
-31.5524
0
LWPOLYLINE
5
127
330
1F
100
AcDbEntity
8
0
100
AcDbPolyline
90
36
70
1
10
11.7131
20
-12.6001
10
11.7131
20
-25.4995
10
11.7037
20
-25.5976
10
11.6741
20
-25.6911
10
11.6280
20
-25.7774
10
11.5665
20
-25.8531
10
11.4908
20
-25.9158
10
11.4045
20
-25.9619
10
11.3110
20
-25.9903
10
11.2129
20
-25.9997
10
-1.6877
20
-25.9997
10
-1.7846
20
-25.9903
10
-1.8781
20
-25.9619
10
-1.9644
20
-25.9158
10
-2.0413
20
-25.8531
10
-2.1028
20
-25.7774
10
-2.1489
20
-25.6911
10
-2.1773
20
-25.5976
10
-2.1868
20
-25.4995
10
-2.1868
20
-12.6001
10
-2.1773
20
-12.5020
10
-2.1489
20
-12.4085
10
-2.1028
20
-12.3222
10
-2.0413
20
-12.2465
10
-1.9644
20
-12.1838
10
-1.8781
20
-12.1377
10
-1.7846
20
-12.1093
10
-1.6877
20
-12.0999
10
11.2129
20
-12.0999
10
11.3110
20
-12.1093
10
11.4045
20
-12.1377
10
11.4908
20
-12.1838
10
11.5665
20
-12.2465
10
11.6280
20
-12.3222
10
11.6741
20
-12.4085
10
11.7037
20
-12.5020
0
LWPOLYLINE
5
128
330
1F
100
AcDbEntity
8
0
100
AcDbPolyline
90
36
70
1
10
236.4375
20
-12.0999
10
249.3381
20
-12.0999
10
249.4350
20
-12.1093
10
249.5297
20
-12.1377
10
249.6160
20
-12.1838
10
249.6905
20
-12.2465
10
249.7544
20
-12.3222
10
249.7993
20
-12.4085
10
249.8277
20
-12.5020
10
249.8383
20
-12.6001
10
249.8383
20
-25.4995
10
249.8277
20
-25.5976
10
249.7993
20
-25.6911
10
249.7544
20
-25.7774
10
249.6905
20
-25.8531
10
249.6160
20
-25.9158
10
249.5297
20
-25.9619
10
249.4350
20
-25.9903
10
249.3381
20
-25.9997
10
236.4375
20
-25.9997
10
236.3406
20
-25.9903
10
236.2459
20
-25.9619
10
236.1596
20
-25.9158
10
236.0851
20
-25.8531
10
236.0212
20
-25.7774
10
235.9763
20
-25.6911
10
235.9479
20
-25.5976
10
235.9373
20
-25.4995
10
235.9373
20
-12.6001
10
235.9479
20
-12.5020
10
235.9763
20
-12.4085
10
236.0212
20
-12.3222
10
236.0851
20
-12.2465
10
236.1596
20
-12.1838
10
236.2459
20
-12.1377
10
236.3406
20
-12.1093
0
LWPOLYLINE
5
129
330
1F
100
AcDbEntity
8
0
100
AcDbPolyline
90
36
70
1
10
212.6245
20
-12.0999
10
225.5251
20
-12.0999
10
225.6232
20
-12.1093
10
225.7167
20
-12.1377
10
225.8030
20
-12.1838
10
225.8787
20
-12.2465
10
225.9402
20
-12.3222
10
225.9863
20
-12.4085
10
226.0159
20
-12.5020
10
226.0242
20
-12.6001
10
226.0242
20
-25.4995
10
226.0159
20
-25.5976
10
225.9863
20
-25.6911
10
225.9402
20
-25.7774
10
225.8787
20
-25.8531
10
225.8030
20
-25.9158
10
225.7167
20
-25.9619
10
225.6232
20
-25.9903
10
225.5251
20
-25.9997
10
212.6245
20
-25.9997
10
212.5276
20
-25.9903
10
212.4341
20
-25.9619
10
212.3478
20
-25.9158
10
212.2709
20
-25.8531
10
212.2094
20
-25.7774
10
212.1633
20
-25.6911
10
212.1349
20
-25.5976
10
212.1255
20
-25.4995
10
212.1255
20
-12.6001
10
212.1349
20
-12.5020
10
212.1633
20
-12.4085
10
212.2094
20
-12.3222
10
212.2709
20
-12.2465
10
212.3478
20
-12.1838
10
212.4341
20
-12.1377
10
212.5276
20
-12.1093
0
LWPOLYLINE
5
12A
330
1F
100
AcDbEntity
8
0
100
AcDbPolyline
90
36
70
1
10
193.5753
20
-12.0999
10
206.4747
20
-12.0999
10
206.5728
20
-12.1093
10
206.6663
20
-12.1377
10
206.7538
20
-12.1838
10
206.8283
20
-12.2465
10
206.8910
20
-12.3222
10
206.9371
20
-12.4085
10
206.9655
20
-12.5020
10
206.9749
20
-12.6001
10
206.9749
20
-25.4995
10
206.9655
20
-25.5976
10
206.9371
20
-25.6911
10
206.8910
20
-25.7774
10
206.8283
20
-25.8531
10
206.7538
20
-25.9158
10
206.6663
20
-25.9619
10
206.5728
20
-25.9903
10
206.4747
20
-25.9997
10
193.5753
20
-25.9997
10
193.4772
20
-25.9903
10
193.3837
20
-25.9619
10
193.2974
20
-25.9158
10
193.2217
20
-25.8531
10
193.1590
20
-25.7774
10
193.1129
20
-25.6911
10
193.0845
20
-25.5976
10
193.0751
20
-25.4995
10
193.0751
20
-12.6001
10
193.0845
20
-12.5020
10
193.1129
20
-12.4085
10
193.1590
20
-12.3222
10
193.2217
20
-12.2465
10
193.2974
20
-12.1838
10
193.3837
20
-12.1377
10
193.4772
20
-12.1093
0
LWPOLYLINE
5
12B
330
1F
100
AcDbEntity
8
0
100
AcDbPolyline
90
36
70
1
10
174.5249
20
-12.0999
10
187.4243
20
-12.0999
10
187.5224
20
-12.1093
10
187.6159
20
-12.1377
10
187.7022
20
-12.1838
10
187.7791
20
-12.2465
10
187.8406
20
-12.3222
10
187.8867
20
-12.4085
10
187.9151
20
-12.5020
10
187.9246
20
-12.6001
10
187.9246
20
-25.4995
10
187.9151
20
-25.5976
10
187.8867
20
-25.6911
10
187.8406
20
-25.7774
10
187.7791
20
-25.8531
10
187.7022
20
-25.9158
10
187.6159
20
-25.9619
10
187.5224
20
-25.9903
10
187.4243
20
-25.9997
10
174.5249
20
-25.9997
10
174.4268
20
-25.9903
10
174.3345
20
-25.9619
10
174.2482
20
-25.9158
10
174.1713
20
-25.8531
10
174.1098
20
-25.7774
10
174.0625
20
-25.6911
10
174.0341
20
-25.5976
10
174.0247
20
-25.4995
10
174.0247
20
-12.6001
10
174.0341
20
-12.5020
10
174.0625
20
-12.4085
10
174.1098
20
-12.3222
10
174.1713
20
-12.2465
10
174.2482
20
-12.1838
10
174.3345
20
-12.1377
10
174.4268
20
-12.1093
0
LWPOLYLINE
5
12C
330
1F
100
AcDbEntity
8
0
100
AcDbPolyline
90
36
70
1
10
155.4745
20
-12.0999
10
168.3751
20
-12.0999
10
168.4732
20
-12.1093
10
168.5655
20
-12.1377
10
168.6518
20
-12.1838
10
168.7287
20
-12.2465
10
168.7902
20
-12.3222
10
168.8375
20
-12.4085
10
168.8659
20
-12.5020
10
168.8742
20
-12.6001
10
168.8742
20
-25.4995
10
168.8659
20
-25.5976
10
168.8375
20
-25.6911
10
168.7902
20
-25.7774
10
168.7287
20
-25.8531
10
168.6518
20
-25.9158
10
168.5655
20
-25.9619
10
168.4732
20
-25.9903
10
168.3751
20
-25.9997
10
155.4745
20
-25.9997
10
155.3776
20
-25.9903
10
155.2841
20
-25.9619
10
155.1978
20
-25.9158
10
155.1209
20
-25.8531
10
155.0594
20
-25.7774
10
155.0133
20
-25.6911
10
154.9837
20
-25.5976
10
154.9755
20
-25.4995
10
154.9755
20
-12.6001
10
154.9837
20
-12.5020
10
155.0133
20
-12.4085
10
155.0594
20
-12.3222
10
155.1209
20
-12.2465
10
155.1978
20
-12.1838
10
155.2841
20
-12.1377
10
155.3776
20
-12.1093
0
LWPOLYLINE
5
12D
330
1F
100
AcDbEntity
8
0
100
AcDbPolyline
90
36
70
1
10
136.4253
20
-12.0999
10
149.3247
20
-12.0999
10
149.4228
20
-12.1093
10
149.5163
20
-12.1377
10
149.6026
20
-12.1838
10
149.6783
20
-12.2465
10
149.7410
20
-12.3222
10
149.7871
20
-12.4085
10
149.8155
20
-12.5020
10
149.8249
20
-12.6001
10
149.8249
20
-25.4995
10
149.8155
20
-25.5976
10
149.7871
20
-25.6911
10
149.7410
20
-25.7774
10
149.6783
20
-25.8531
10
149.6026
20
-25.9158
10
149.5163
20
-25.9619
10
149.4228
20
-25.9903
10
149.3247
20
-25.9997
10
136.4253
20
-25.9997
10
136.3272
20
-25.9903
10
136.2337
20
-25.9619
10
136.1474
20
-25.9158
10
136.0717
20
-25.8531
10
136.0090
20
-25.7774
10
135.9629
20
-25.6911
10
135.9345
20
-25.5976
10
135.9251
20
-25.4995
10
135.9251
20
-12.6001
10
135.9345
20
-12.5020
10
135.9629
20
-12.4085
10
136.0090
20
-12.3222
10
136.0717
20
-12.2465
10
136.1474
20
-12.1838
10
136.2337
20
-12.1377
10
136.3272
20
-12.1093
0
LWPOLYLINE
5
12E
330
1F
100
AcDbEntity
8
0
100
AcDbPolyline
90
36
70
1
10
117.3749
20
-12.0999
10
130.2755
20
-12.0999
10
130.3736
20
-12.1093
10
130.4659
20
-12.1377
10
130.5522
20
-12.1838
10
130.6291
20
-12.2465
10
130.6906
20
-12.3222
10
130.7367
20
-12.4085
10
130.7663
20
-12.5020
10
130.7745
20
-12.6001
10
130.7745
20
-25.4995
10
130.7663
20
-25.5976
10
130.7367
20
-25.6911
10
130.6906
20
-25.7774
10
130.6291
20
-25.8531
10
130.5522
20
-25.9158
10
130.4659
20
-25.9619
10
130.3736
20
-25.9903
10
130.2755
20
-25.9997
10
117.3749
20
-25.9997
10
117.2768
20
-25.9903
10
117.1845
20
-25.9619
10
117.0970
20
-25.9158
10
117.0213
20
-25.8531
10
116.9598
20
-25.7774
10
116.9137
20
-25.6911
10
116.8841
20
-25.5976
10
116.8759
20
-25.4995
10
116.8759
20
-12.6001
10
116.8841
20
-12.5020
10
116.9137
20
-12.4085
10
116.9598
20
-12.3222
10
117.0213
20
-12.2465
10
117.0970
20
-12.1838
10
117.1845
20
-12.1377
10
117.2768
20
-12.1093
0
LWPOLYLINE
5
12F
330
1F
100
AcDbEntity
8
0
100
AcDbPolyline
90
36
70
1
10
98.3257
20
-12.0999
10
111.2251
20
-12.0999
10
111.3220
20
-12.1093
10
111.4167
20
-12.1377
10
111.5030
20
-12.1838
10
111.5787
20
-12.2465
10
111.6414
20
-12.3222
10
111.6875
20
-12.4085
10
111.7159
20
-12.5020
10
111.7253
20
-12.6001
10
111.7253
20
-25.4995
10
111.7159
20
-25.5976
10
111.6875
20
-25.6911
10
111.6414
20
-25.7774
10
111.5787
20
-25.8531
10
111.5030
20
-25.9158
10
111.4167
20
-25.9619
10
111.3220
20
-25.9903
10
111.2251
20
-25.9997
10
98.3257
20
-25.9997
10
98.2276
20
-25.9903
10
98.1329
20
-25.9619
10
98.0466
20
-25.9158
10
97.9721
20
-25.8531
10
97.9094
20
-25.7774
10
97.8633
20
-25.6911
10
97.8349
20
-25.5976
10
97.8255
20
-25.4995
10
97.8255
20
-12.6001
10
97.8349
20
-12.5020
10
97.8633
20
-12.4085
10
97.9094
20
-12.3222
10
97.9721
20
-12.2465
10
98.0466
20
-12.1838
10
98.1329
20
-12.1377
10
98.2276
20
-12.1093
0
LWPOLYLINE
5
130
330
1F
100
AcDbEntity
8
0
100
AcDbPolyline
90
36
70
1
10
79.2753
20
-12.0999
10
92.1747
20
-12.0999
10
92.2717
20
-12.1093
10
92.3663
20
-12.1377
10
92.4526
20
-12.1838
10
92.5283
20
-12.2465
10
92.5910
20
-12.3222
10
92.6371
20
-12.4085
10
92.6643
20
-12.5020
10
92.6749
20
-12.6001
10
92.6749
20
-25.4995
10
92.6643
20
-25.5976
10
92.6371
20
-25.6911
10
92.5910
20
-25.7774
10
92.5283
20
-25.8531
10
92.4526
20
-25.9158
10
92.3663
20
-25.9619
10
92.2717
20
-25.9903
10
92.1747
20
-25.9997
10
79.2753
20
-25.9997
10
79.1772
20
-25.9903
10
79.0837
20
-25.9619
10
78.9962
20
-25.9158
10
78.9217
20
-25.8531
10
78.8602
20
-25.7774
10
78.8129
20
-25.6911
10
78.7845
20
-25.5976
10
78.7751
20
-25.4995
10
78.7751
20
-12.6001
10
78.7845
20
-12.5020
10
78.8129
20
-12.4085
10
78.8602
20
-12.3222
10
78.9217
20
-12.2465
10
78.9962
20
-12.1838
10
79.0837
20
-12.1377
10
79.1772
20
-12.1093
0
LWPOLYLINE
5
131
330
1F
100
AcDbEntity
8
0
100
AcDbPolyline
90
36
70
1
10
60.2249
20
-12.0999
10
73.1255
20
-12.0999
10
73.2224
20
-12.1093
10
73.3159
20
-12.1377
10
73.4022
20
-12.1838
10
73.4791
20
-12.2465
10
73.5406
20
-12.3222
10
73.5867
20
-12.4085
10
73.6151
20
-12.5020
10
73.6245
20
-12.6001
10
73.6245
20
-25.4995
10
73.6151
20
-25.5976
10
73.5867
20
-25.6911
10
73.5406
20
-25.7774
10
73.4791
20
-25.8531
10
73.4022
20
-25.9158
10
73.3159
20
-25.9619
10
73.2224
20
-25.9903
10
73.1255
20
-25.9997
10
60.2249
20
-25.9997
10
60.1280
20
-25.9903
10
60.0333
20
-25.9619
10
59.9470
20
-25.9158
10
59.8713
20
-25.8531
10
59.8098
20
-25.7774
10
59.7637
20
-25.6911
10
59.7341
20
-25.5976
10
59.7247
20
-25.4995
10
59.7247
20
-12.6001
10
59.7341
20
-12.5020
10
59.7637
20
-12.4085
10
59.8098
20
-12.3222
10
59.8713
20
-12.2465
10
59.9470
20
-12.1838
10
60.0333
20
-12.1377
10
60.1280
20
-12.1093
0
LWPOLYLINE
5
132
330
1F
100
AcDbEntity
8
0
100
AcDbPolyline
90
36
70
1
10
41.1757
20
-12.0999
10
54.0751
20
-12.0999
10
54.1720
20
-12.1093
10
54.2667
20
-12.1377
10
54.3530
20
-12.1838
10
54.4287
20
-12.2465
10
54.4914
20
-12.3222
10
54.5375
20
-12.4085
10
54.5647
20
-12.5020
10
54.5753
20
-12.6001
10
54.5753
20
-25.4995
10
54.5647
20
-25.5976
10
54.5375
20
-25.6911
10
54.4914
20
-25.7774
10
54.4287
20
-25.8531
10
54.3530
20
-25.9158
10
54.2667
20
-25.9619
10
54.1720
20
-25.9903
10
54.0751
20
-25.9997
10
41.1757
20
-25.9997
10
41.0776
20
-25.9903
10
40.9829
20
-25.9619
10
40.8966
20
-25.9158
10
40.8221
20
-25.8531
10
40.7594
20
-25.7774
10
40.7133
20
-25.6911
10
40.6849
20
-25.5976
10
40.6743
20
-25.4995
10
40.6743
20
-12.6001
10
40.6849
20
-12.5020
10
40.7133
20
-12.4085
10
40.7594
20
-12.3222
10
40.8221
20
-12.2465
10
40.8966
20
-12.1838
10
40.9829
20
-12.1377
10
41.0776
20
-12.1093
0
LWPOLYLINE
5
133
330
1F
100
AcDbEntity
8
0
100
AcDbPolyline
90
36
70
1
10
22.1241
20
-12.0999
10
35.0259
20
-12.0999
10
35.1228
20
-12.1093
10
35.2163
20
-12.1377
10
35.3026
20
-12.1838
10
35.3795
20
-12.2465
10
35.4410
20
-12.3222
10
35.4871
20
-12.4085
10
35.5155
20
-12.5020
10
35.5249
20
-12.6001
10
35.5249
20
-25.4995
10
35.5155
20
-25.5976
10
35.4871
20
-25.6911
10
35.4410
20
-25.7774
10
35.3795
20
-25.8531
10
35.3026
20
-25.9158
10
35.2163
20
-25.9619
10
35.1228
20
-25.9903
10
35.0259
20
-25.9997
10
22.1241
20
-25.9997
10
22.0272
20
-25.9903
10
21.9337
20
-25.9619
10
21.8474
20
-25.9158
10
21.7717
20
-25.8531
10
21.7090
20
-25.7774
10
21.6641
20
-25.6911
10
21.6345
20
-25.5976
10
21.6251
20
-25.4995
10
21.6251
20
-12.6001
10
21.6345
20
-12.5020
10
21.6641
20
-12.4085
10
21.7090
20
-12.3222
10
21.7717
20
-12.2465
10
21.8474
20
-12.1838
10
21.9337
20
-12.1377
10
22.0272
20
-12.1093
0
LWPOLYLINE
5
134
330
1F
100
AcDbEntity
8
0
100
AcDbPolyline
90
36
70
1
10
16.4757
20
-31.6505
10
16.4757
20
-44.5499
10
16.4651
20
-44.6480
10
16.4379
20
-44.7415
10
16.3906
20
-44.8278
10
16.3279
20
-44.9035
10
16.2534
20
-44.9650
10
16.1671
20
-45.0123
10
16.0724
20
-45.0407
10
15.9755
20
-45.0501
10
3.0749
20
-45.0501
10
2.9780
20
-45.0407
10
2.8833
20
-45.0123
10
2.7970
20
-44.9650
10
2.7225
20
-44.9035
10
2.6586
20
-44.8278
10
2.6137
20
-44.7415
10
2.5853
20
-44.6480
10
2.5747
20
-44.5499
10
2.5747
20
-31.6505
10
2.5853
20
-31.5524
10
2.6137
20
-31.4589
10
2.6586
20
-31.3726
10
2.7225
20
-31.2957
10
2.7970
20
-31.2342
10
2.8833
20
-31.1881
10
2.9780
20
-31.1585
10
3.0749
20
-31.1503
10
15.9755
20
-31.1503
10
16.0724
20
-31.1585
10
16.1671
20
-31.1881
10
16.2534
20
-31.2342
10
16.3279
20
-31.2957
10
16.3906
20
-31.3726
10
16.4379
20
-31.4589
10
16.4651
20
-31.5524
0
LWPOLYLINE
5
135
330
1F
100
AcDbEntity
8
0
100
AcDbPolyline
90
36
70
1
10
231.6749
20
-31.1503
10
244.5743
20
-31.1503
10
244.6724
20
-31.1585
10
244.7671
20
-31.1881
10
244.8534
20
-31.2342
10
244.9279
20
-31.2957
10
244.9906
20
-31.3726
10
245.0367
20
-31.4589
10
245.0651
20
-31.5524
10
245.0757
20
-31.6505
10
245.0757
20
-44.5499
10
245.0651
20
-44.6480
10
245.0367
20
-44.7415
10
244.9906
20
-44.8278
10
244.9279
20
-44.9035
10
244.8534
20
-44.9650
10
244.7671
20
-45.0123
10
244.6724
20
-45.0407
10
244.5743
20
-45.0501
10
231.6749
20
-45.0501
10
231.5780
20
-45.0407
10
231.4833
20
-45.0123
10
231.3970
20
-44.9650
10
231.3213
20
-44.9035
10
231.2586
20
-44.8278
10
231.2125
20
-44.7415
10
231.1853
20
-44.6480
10
231.1747
20
-44.5499
10
231.1747
20
-31.6505
10
231.1853
20
-31.5524
10
231.2125
20
-31.4589
10
231.2586
20
-31.3726
10
231.3213
20
-31.2957
10
231.3970
20
-31.2342
10
231.4833
20
-31.1881
10
231.5780
20
-31.1585
0
LWPOLYLINE
5
136
330
1F
100
AcDbEntity
8
0
100
AcDbPolyline
90
36
70
1
10
1.0372
20
-32.6499
10
1.0372
20
-46.5498
10
1.0277
20
-46.6467
10
0.9982
20
-46.7414
10
0.9520
20
-46.8277
10
0.8905
20
-46.9034
10
0.8149
20
-46.9661
10
0.7285
20
-47.0122
10
0.6351
20
-47.0394
10
0.5369
20
-47.0500
10
-5.3634
20
-47.0500
10
-5.4604
20
-47.0394
10
-5.5538
20
-47.0122
10
-5.6401
20
-46.9661
10
-5.7170
20
-46.9034
10
-5.7785
20
-46.8277
10
-5.8258
20
-46.7414
10
-5.8530
20
-46.6467
10
-5.8637
20
-46.5498
10
-5.8637
20
-32.6499
10
-5.8530
20
-32.5529
10
-5.8258
20
-32.4583
10
-5.7785
20
-32.3720
10
-5.7170
20
-32.2963
10
-5.6401
20
-32.2336
10
-5.5538
20
-32.1875
10
-5.4604
20
-32.1603
10
-5.3634
20
-32.1496
10
0.5369
20
-32.1496
10
0.6351
20
-32.1603
10
0.7285
20
-32.1875
10
0.8149
20
-32.2336
10
0.8905
20
-32.2963
10
0.9520
20
-32.3720
10
0.9982
20
-32.4583
10
1.0277
20
-32.5529
0
LWPOLYLINE
5
137
330
1F
100
AcDbEntity
8
0
100
AcDbPolyline
90
36
70
1
10
247.1123
20
-32.1496
10
253.0138
20
-32.1496
10
253.1108
20
-32.1603
10
253.2042
20
-32.1875
10
253.2905
20
-32.2336
10
253.3662
20
-32.2963
10
253.4289
20
-32.3720
10
253.4750
20
-32.4583
10
253.5034
20
-32.5529
10
253.5129
20
-32.6499
10
253.5129
20
-46.5498
10
253.5034
20
-46.6467
10
253.4750
20
-46.7414
10
253.4289
20
-46.8277
10
253.3662
20
-46.9034
10
253.2905
20
-46.9661
10
253.2042
20
-47.0122
10
253.1108
20
-47.0394
10
253.0138
20
-47.0500
10
247.1123
20
-47.0500
10
247.0153
20
-47.0394
10
246.9219
20
-47.0122
10
246.8355
20
-46.9661
10
246.7599
20
-46.9034
10
246.6972
20
-46.8277
10
246.6499
20
-46.7414
10
246.6227
20
-46.6467
10
246.6132
20
-46.5498
10
246.6132
20
-32.6499
10
246.6227
20
-32.5529
10
246.6499
20
-32.4583
10
246.6972
20
-32.3720
10
246.7599
20
-32.2963
10
246.8355
20
-32.2336
10
246.9219
20
-32.1875
10
247.0153
20
-32.1603
0
LWPOLYLINE
5
138
330
1F
100
AcDbEntity
8
0
100
AcDbPolyline
90
36
70
1
10
223.2366
20
-32.1496
10
229.1369
20
-32.1496
10
229.2351
20
-32.1603
10
229.3273
20
-32.1875
10
229.4149
20
-32.2336
10
229.4906
20
-32.2963
10
229.5521
20
-32.3720
10
229.5994
20
-32.4583
10
229.6277
20
-32.5529
10
229.6372
20
-32.6499
10
229.6372
20
-46.5498
10
229.6277
20
-46.6467
10
229.5994
20
-46.7414
10
229.5521
20
-46.8277
10
229.4906
20
-46.9034
10
229.4149
20
-46.9661
10
229.3273
20
-47.0122
10
229.2351
20
-47.0394
10
229.1369
20
-47.0500
10
223.2366
20
-47.0500
10
223.1385
20
-47.0394
10
223.0462
20
-47.0122
10
222.9599
20
-46.9661
10
222.8830
20
-46.9034
10
222.8215
20
-46.8277
10
222.7754
20
-46.7414
10
222.7458
20
-46.6467
10
222.7375
20
-46.5498
10
222.7375
20
-32.6499
10
222.7458
20
-32.5529
10
222.7754
20
-32.4583
10
222.8215
20
-32.3720
10
222.8830
20
-32.2963
10
222.9599
20
-32.2336
10
223.0462
20
-32.1875
10
223.1385
20
-32.1603
0
LWPOLYLINE
5
139
330
1F
100
AcDbEntity
8
0
100
AcDbPolyline
90
36
70
1
10
18.5135
20
-32.1496
10
24.4126
20
-32.1496
10
24.5096
20
-32.1603
10
24.6042
20
-32.1875
10
24.6905
20
-32.2336
10
24.7674
20
-32.2963
10
24.8289
20
-32.3720
10
24.8750
20
-32.4583
10
24.9034
20
-32.5529
10
24.9129
20
-32.6499
10
24.9129
20
-46.5498
10
24.9034
20
-46.6467
10
24.8750
20
-46.7414
10
24.8289
20
-46.8277
10
24.7674
20
-46.9034
10
24.6905
20
-46.9661
10
24.6042
20
-47.0122
10
24.5096
20
-47.0394
10
24.4126
20
-47.0500
10
18.5135
20
-47.0500
10
18.4153
20
-47.0394
10
18.3219
20
-47.0122
10
18.2344
20
-46.9661
10
18.1598
20
-46.9034
10
18.0983
20
-46.8277
10
18.0510
20
-46.7414
10
18.0227
20
-46.6467
10
18.0120
20
-46.5498
10
18.0120
20
-32.6499
10
18.0227
20
-32.5529
10
18.0510
20
-32.4583
10
18.0983
20
-32.3720
10
18.1598
20
-32.2963
10
18.2344
20
-32.2336
10
18.3219
20
-32.1875
10
18.4153
20
-32.1603
0
ENDSEC
0
SECTION
2
OBJECTS
0
DICTIONARY
5
C
330
0
100
AcDbDictionary
281
1
3
ACAD_GROUP
350
D
0
DICTIONARY
5
D
330
C
100
AcDbDictionary
281
1
0
ENDSEC
0
EOF
