0
SECTION
2
HEADER
9
$ACADVER
1
AC1015
9
$INSUNITS
70
4
9
$HANDSEED
5
FFFF
0
ENDSEC
0
SECTION
2
CLASSES
0
ENDSEC
0
SECTION
2
TABLES
0
TABLE
2
VPORT
5
8
330
0
100
AcDbSymbolTable
70
0
0
ENDTAB
0
TABLE
2
LTYPE
5
5
330
0
100
AcDbSymbolTable
70
1
0
LTYPE
5
14
330
5
100
AcDbSymbolTableRecord
100
AcDbLinetypeTableRecord
2
CONTINUOUS
70
0
3
Solid line
72
65
73
0
40
0
0
ENDTAB
0
TABLE
2
LAYER
5
2
330
0
100
AcDbSymbolTable
70
1
0
LAYER
5
10
330
2
100
AcDbSymbolTableRecord
100
AcDbLayerTableRecord
2
0
70
0
62
7
6
CONTINUOUS
0
ENDTAB
0
TABLE
2
STYLE
5
3
330
0
100
AcDbSymbolTable
70
0
0
ENDTAB
0
TABLE
2
VIEW
5
6
330
0
100
AcDbSymbolTable
70
0
0
ENDTAB
0
TABLE
2
UCS
5
7
330
0
100
AcDbSymbolTable
70
0
0
ENDTAB
0
TABLE
2
APPID
5
9
330
0
100
AcDbSymbolTable
70
1
0
APPID
5
12
330
9
100
AcDbSymbolTableRecord
100
AcDbRegAppTableRecord
2
ACAD
70
0
0
ENDTAB
0
TABLE
2
DIMSTYLE
5
A
330
0
100
AcDbSymbolTable
70
0
100
AcDbDimStyleTable
0
ENDTAB
0
TABLE
2
BLOCK_RECORD
5
1
330
0
100
AcDbSymbolTable
70
1
0
BLOCK_RECORD
5
1F
330
1
100
AcDbSymbolTableRecord
100
AcDbBlockTableRecord
2
*MODEL_SPACE
0
BLOCK_RECORD
5
1B
330
1
100
AcDbSymbolTableRecord
100
AcDbBlockTableRecord
2
*PAPER_SPACE
0
ENDTAB
0
ENDSEC
0
SECTION
2
BLOCKS
0
BLOCK
5
20
330
1F
100
AcDbEntity
8
0
100
AcDbBlockBegin
2
*MODEL_SPACE
70
0
10
0
20
0
30
0
3
*MODEL_SPACE
1

0
ENDBLK
5
21
330
1F
100
AcDbEntity
8
0
100
AcDbBlockEnd
0
BLOCK
5
1C
330
1B
100
AcDbEntity
67
1
8
0
100
AcDbBlockBegin
2
*PAPER_SPACE
70
0
10
0
20
0
30
0
3
*PAPER_SPACE
1

0
ENDBLK
5
1D
330
1B
100
AcDbEntity
67
1
8
0
100
AcDbBlockEnd
0
ENDSEC
0
SECTION
2
ENTITIES
0
LWPOLYLINE
5
100
330
1F
100
AcDbEntity
8
0
100
AcDbPolyline
90
36
70
1
10
259.6000
20
-70.1004
10
259.6000
20
10.9500
10
259.5810
20
11.1449
10
259.5240
20
11.3327
10
259.4313
20
11.5051
10
259.3076
20
11.6573
10
259.1555
20
11.7809
10
258.9831
20
11.8736
10
258.7953
20
11.9306
10
258.6004
20
11.9497
10
-10.9500
20
11.9497
10
-11.1449
20
11.9306
10
-11.3327
20
11.8736
10
-11.5051
20
11.7809
10
-11.6573
20
11.6573
10
-11.7809
20
11.5051
10
-11.8736
20
11.3327
10
-11.9306
20
11.1449
10
-11.9497
20
10.9500
10
-11.9497
20
-70.1004
10
-11.9306
20
-70.2954
10
-11.8736
20
-70.4832
10
-11.7809
20
-70.6555
10
-11.6573
20
-70.8077
10
-11.5051
20
-70.9313
10
-11.3327
20
-71.0240
10
-11.1449
20
-71.0811
10
-10.9500
20
-71.1001
10
258.6004
20
-71.1001
10
258.7953
20
-71.0811
10
258.9831
20
-71.0240
10
259.1555
20
-70.9313
10
259.3076
20
-70.8077
10
259.4313
20
-70.6555
10
259.5240
20
-70.4832
10
259.5810
20
-70.2954
0
LWPOLYLINE
5
101
330
1F
100
AcDbEntity
8
0
100
AcDbPolyline
90
36
70
1
10
126.0129
20
-50.7002
10
126.0129
20
-63.5996
10
126.0034
20
-63.6971
10
125.9749
20
-63.7910
10
125.9285
20
-63.8778
10
125.8667
20
-63.9538
10
125.7907
20
-64.0156
10
125.7039
20
-64.0620
10
125.6100
20
-64.0905
10
125.5125
20
-64.1000
10
112.6131
20
-64.1000
10
112.5156
20
-64.0905
10
112.4217
20
-64.0620
10
112.3349
20
-64.0156
10
112.2601
20
-63.9538
10
112.1982
20
-63.8778
10
112.1507
20
-63.7910
10
112.1222
20
-63.6971
10
112.1127
20
-63.5996
10
112.1127
20
-50.7002
10
112.1222
20
-50.6027
10
112.1507
20
-50.5088
10
112.1982
20
-50.4232
10
112.2601
20
-50.3460
10
112.3349
20
-50.2842
10
112.4217
20
-50.2378
10
112.5156
20
-50.2093
10
112.6131
20
-50.2010
10
125.5125
20
-50.2010
10
125.6100
20
-50.2093
10
125.7039
20
-50.2378
10
125.7907
20
-50.2842
10
125.8667
20
-50.3460
10
125.9285
20
-50.4232
10
125.9749
20
-50.5088
10
126.0034
20
-50.6027
0
LWPOLYLINE
5
102
330
1F
100
AcDbEntity
8
0
100
AcDbPolyline
90
36
70
1
10
241.1995
20
-50.2010
10
254.1001
20
-50.2010
10
254.1976
20
-50.2093
10
254.2915
20
-50.2378
10
254.3782
20
-50.2842
10
254.4543
20
-50.3460
10
254.5161
20
-50.4232
10
254.5613
20
-50.5088
10
254.5910
20
-50.6027
10
254.5993
20
-50.7002
10
254.5993
20
-63.5996
10
254.5910
20
-63.6971
10
254.5613
20
-63.7910
10
254.5161
20
-63.8778
10
254.4543
20
-63.9538
10
254.3782
20
-64.0156
10
254.2915
20
-64.0620
10
254.1976
20
-64.0905
10
254.1001
20
-64.1000
10
241.1995
20
-64.1000
10
241.1020
20
-64.0905
10
241.0093
20
-64.0620
10
240.9225
20
-64.0156
10
240.8465
20
-63.9538
10
240.7846
20
-63.8778
10
240.7383
20
-63.7910
10
240.7098
20
-63.6971
10
240.7002
20
-63.5996
10
240.7002
20
-50.7002
10
240.7098
20
-50.6027
10
240.7383
20
-50.5088
10
240.7846
20
-50.4232
10
240.8465
20
-50.3460
10
240.9225
20
-50.2842
10
241.0093
20
-50.2378
10
241.1020
20
-50.2093
0
LWPOLYLINE
5
103
330
1F
100
AcDbEntity
8
0
100
AcDbPolyline
90
36
70
1
10
222.1499
20
-50.2010
10
235.0505
20
-50.2010
10
235.1480
20
-50.2093
10
235.2407
20
-50.2378
10
235.3287
20
-50.2842
10
235.4035
20
-50.3460
10
235.4654
20
-50.4232
10
235.5129
20
-50.5088
10
235.5402
20
-50.6027
10
235.5509
20
-50.7002
10
235.5509
20
-63.5996
10
235.5402
20
-63.6971
10
235.5129
20
-63.7910
10
235.4654
20
-63.8778
10
235.4035
20
-63.9538
10
235.3287
20
-64.0156
10
235.2407
20
-64.0620
10
235.1480
20
-64.0905
10
235.0505
20
-64.1000
10
222.1499
20
-64.1000
10
222.0524
20
-64.0905
10
221.9585
20
-64.0620
10
221.8718
20
-64.0156
10
221.7957
20
-63.9538
10
221.7339
20
-63.8778
10
221.6887
20
-63.7910
10
221.6602
20
-63.6971
10
221.6495
20
-63.5996
10
221.6495
20
-50.7002
10
221.6602
20
-50.6027
10
221.6887
20
-50.5088
10
221.7339
20
-50.4232
10
221.7957
20
-50.3460
10
221.8718
20
-50.2842
10
221.9585
20
-50.2378
10
222.0524
20
-50.2093
0
LWPOLYLINE
5
104
330
1F
100
AcDbEntity
8
0
100
AcDbPolyline
90
36
70
1
10
203.1003
20
-50.2010
10
215.9998
20
-50.2010
10
216.0972
20
-50.2093
10
216.1911
20
-50.2378
10
216.2779
20
-50.2842
10
216.3528
20
-50.3460
10
216.4158
20
-50.4232
10
216.4621
20
-50.5088
10
216.4895
20
-50.6027
10
216.5002
20
-50.7002
10
216.5002
20
-63.5996
10
216.4895
20
-63.6971
10
216.4621
20
-63.7910
10
216.4158
20
-63.8778
10
216.3528
20
-63.9538
10
216.2779
20
-64.0156
10
216.1911
20
-64.0620
10
216.0972
20
-64.0905
10
215.9998
20
-64.1000
10
203.1003
20
-64.1000
10
203.0029
20
-64.0905
10
202.9078
20
-64.0620
10
202.8222
20
-64.0156
10
202.7461
20
-63.9538
10
202.6843
20
-63.8778
10
202.6380
20
-63.7910
10
202.6094
20
-63.6971
10
202.5999
20
-63.5996
10
202.5999
20
-50.7002
10
202.6094
20
-50.6027
10
202.6380
20
-50.5088
10
202.6843
20
-50.4232
10
202.7461
20
-50.3460
10
202.8222
20
-50.2842
10
202.9078
20
-50.2378
10
203.0029
20
-50.2093
0
LWPOLYLINE
5
105
330
1F
100
AcDbEntity
8
0
100
AcDbPolyline
90
36
70
1
10
184.0496
20
-50.2010
10
196.9502
20
-50.2010
10
197.0477
20
-50.2093
10
197.1416
20
-50.2378
10
197.2271
20
-50.2842
10
197.3032
20
-50.3460
10
197.3650
20
-50.4232
10
197.4114
20
-50.5088
10
197.4411
20
-50.6027
10
197.4494
20
-50.7002
10
197.4494
20
-63.5996
10
197.4411
20
-63.6971
10
197.4114
20
-63.7910
10
197.3650
20
-63.8778
10
197.3032
20
-63.9538
10
197.2271
20
-64.0156
10
197.1416
20
-64.0620
10
197.0477
20
-64.0905
10
196.9502
20
-64.1000
10
184.0496
20
-64.1000
10
183.9521
20
-64.0905
10
183.8594
20
-64.0620
10
183.7726
20
-64.0156
10
183.6965
20
-63.9538
10
183.6347
20
-63.8778
10
183.5884
20
-63.7910
10
183.5587
20
-63.6971
10
183.5503
20
-63.5996
10
183.5503
20
-50.7002
10
183.5587
20
-50.6027
10
183.5884
20
-50.5088
10
183.6347
20
-50.4232
10
183.6965
20
-50.3460
10
183.7726
20
-50.2842
10
183.8594
20
-50.2378
10
183.9521
20
-50.2093
0
LWPOLYLINE
5
106
330
1F
100
AcDbEntity
8
0
100
AcDbPolyline
90
36
70
1
10
148.3301
20
-50.2010
10
161.2319
20
-50.2010
10
161.3294
20
-50.2093
10
161.4221
20
-50.2378
10
161.5089
20
-50.2842
10
161.5850
20
-50.3460
10
161.6468
20
-50.4232
10
161.6931
20
-50.5088
10
161.7217
20
-50.6027
10
161.7312
20
-50.7002
10
161.7312
20
-63.5996
10
161.7217
20
-63.6971
10
161.6931
20
-63.7910
10
161.6468
20
-63.8778
10
161.5850
20
-63.9538
10
161.5089
20
-64.0156
10
161.4221
20
-64.0620
10
161.3294
20
-64.0905
10
161.2319
20
-64.1000
10
148.3301
20
-64.1000
10
148.2327
20
-64.0905
10
148.1400
20
-64.0620
10
148.0532
20
-64.0156
10
147.9771
20
-63.9538
10
147.9153
20
-63.8778
10
147.8689
20
-63.7910
10
147.8404
20
-63.6971
10
147.8309
20
-63.5996
10
147.8309
20
-50.7002
10
147.8404
20
-50.6027
10
147.8689
20
-50.5088
10
147.9153
20
-50.4232
10
147.9771
20
-50.3460
10
148.0532
20
-50.2842
10
148.1400
20
-50.2378
10
148.2327
20
-50.2093
0
LWPOLYLINE
5
107
330
1F
100
AcDbEntity
8
0
100
AcDbPolyline
90
36
70
1
10
76.8937
20
-50.2010
10
89.7943
20
-50.2010
10
89.8917
20
-50.2093
10
89.9856
20
-50.2378
10
90.0724
20
-50.2842
10
90.1473
20
-50.3460
10
90.2103
20
-50.4232
10
90.2555
20
-50.5088
10
90.2840
20
-50.6027
10
90.2935
20
-50.7002
10
90.2935
20
-63.5996
10
90.2840
20
-63.6971
10
90.2555
20
-63.7910
10
90.2103
20
-63.8778
10
90.1473
20
-63.9538
10
90.0724
20
-64.0156
10
89.9856
20
-64.0620
10
89.8917
20
-64.0905
10
89.7943
20
-64.1000
10
76.8937
20
-64.1000
10
76.7962
20
-64.0905
10
76.7023
20
-64.0620
10
76.6155
20
-64.0156
10
76.5406
20
-63.9538
10
76.4776
20
-63.8778
10
76.4313
20
-63.7910
10
76.4039
20
-63.6971
10
76.3932
20
-63.5996
10
76.3932
20
-50.7002
10
76.4039
20
-50.6027
10
76.4313
20
-50.5088
10
76.4776
20
-50.4232
10
76.5406
20
-50.3460
10
76.6155
20
-50.2842
10
76.7023
20
-50.2378
10
76.7962
20
-50.2093
0
LWPOLYLINE
5
108
330
1F
100
AcDbEntity
8
0
100
AcDbPolyline
90
36
70
1
10
38.7945
20
-50.2010
10
51.6939
20
-50.2010
10
51.7914
20
-50.2093
10
51.8853
20
-50.2378
10
51.9721
20
-50.2842
10
52.0470
20
-50.3460
10
52.1100
20
-50.4232
10
52.1563
20
-50.5088
10
52.1837
20
-50.6027
10
52.1944
20
-50.7002
10
52.1944
20
-63.5996
10
52.1837
20
-63.6971
10
52.1563
20
-63.7910
10
52.1100
20
-63.8778
10
52.0470
20
-63.9538
10
51.9721
20
-64.0156
10
51.8853
20
-64.0620
10
51.7914
20
-64.0905
10
51.6939
20
-64.1000
10
38.7945
20
-64.1000
10
38.6970
20
-64.0905
10
38.6020
20
-64.0620
10
38.5164
20
-64.0156
10
38.4403
20
-63.9538
10
38.3785
20
-63.8778
10
38.3321
20
-63.7910
10
38.3036
20
-63.6971
10
38.2941
20
-63.5996
10
38.2941
20
-50.7002
10
38.3036
20
-50.6027
10
38.3321
20
-50.5088
10
38.3785
20
-50.4232
10
38.4403
20
-50.3460
10
38.5164
20
-50.2842
10
38.6020
20
-50.2378
10
38.6970
20
-50.2093
0
LWPOLYLINE
5
109
330
1F
100
AcDbEntity
8
0
100
AcDbPolyline
90
36
70
1
10
14.9808
20
-50.2010
10
27.8802
20
-50.2010
10
27.9776
20
-50.2093
10
28.0727
20
-50.2378
10
28.1583
20
-50.2842
10
28.2344
20
-50.3460
10
28.2974
20
-50.4232
10
28.3426
20
-50.5088
10
28.3711
20
-50.6027
10
28.3806
20
-50.7002
10
28.3806
20
-63.5996
10
28.3711
20
-63.6971
10
28.3426
20
-63.7910
10
28.2974
20
-63.8778
10
28.2344
20
-63.9538
10
28.1583
20
-64.0156
10
28.0727
20
-64.0620
10
27.9776
20
-64.0905
10
27.8802
20
-64.1000
10
14.9808
20
-64.1000
10
14.8833
20
-64.0905
10
14.7906
20
-64.0620
10
14.7026
20
-64.0156
10
14.6277
20
-63.9538
10
14.5659
20
-63.8778
10
14.5184
20
-63.7910
10
14.4910
20
-63.6971
10
14.4803
20
-63.5996
10
14.4803
20
-50.7002
10
14.4910
20
-50.6027
10
14.5184
20
-50.5088
10
14.5659
20
-50.4232
10
14.6277
20
-50.3460
10
14.7026
20
-50.2842
10
14.7906
20
-50.2378
10
14.8833
20
-50.2093
0
LWPOLYLINE
5
10A
330
1F
100
AcDbEntity
8
0
100
AcDbPolyline
90
36
70
1
10
-6.4509
20
-50.2010
10
6.4509
20
-50.2010
10
6.5484
20
-50.2093
10
6.6411
20
-50.2378
10
6.7279
20
-50.2842
10
6.8039
20
-50.3460
10
6.8657
20
-50.4232
10
6.9121
20
-50.5088
10
6.9406
20
-50.6027
10
6.9501
20
-50.7002
10
6.9501
20
-63.5996
10
6.9406
20
-63.6971
10
6.9121
20
-63.7910
10
6.8657
20
-63.8778
10
6.8039
20
-63.9538
10
6.7279
20
-64.0156
10
6.6411
20
-64.0620
10
6.5484
20
-64.0905
10
6.4509
20
-64.1000
10
-6.4509
20
-64.1000
10
-6.5484
20
-64.0905
10
-6.6411
20
-64.0620
10
-6.7279
20
-64.0156
10
-6.8039
20
-63.9538
10
-6.8657
20
-63.8778
10
-6.9121
20
-63.7910
10
-6.9406
20
-63.6971
10
-6.9501
20
-63.5996
10
-6.9501
20
-50.7002
10
-6.9406
20
-50.6027
10
-6.9121
20
-50.5088
10
-6.8657
20
-50.4232
10
-6.8039
20
-50.3460
10
-6.7279
20
-50.2842
10
-6.6411
20
-50.2378
10
-6.5484
20
-50.2093
0
LWPOLYLINE
5
10B
330
1F
100
AcDbEntity
8
0
100
AcDbPolyline
90
36
70
1
10
146.2928
20
-51.6999
10
146.2928
20
-65.6001
10
146.2833
20
-65.6976
10
146.2547
20
-65.7915
10
146.2096
20
-65.8783
10
146.1466
20
-65.9532
10
146.0705
20
-66.0150
10
145.9849
20
-66.0625
10
145.8898
20
-66.0899
10
145.7923
20
-66.1006
10
139.8930
20
-66.1006
10
139.7955
20
-66.0899
10
139.7016
20
-66.0625
10
139.6148
20
-66.0150
10
139.5400
20
-65.9532
10
139.4770
20
-65.8783
10
139.4306
20
-65.7915
10
139.4033
20
-65.6976
10
139.3926
20
-65.6001
10
139.3926
20
-51.6999
10
139.4033
20
-51.6024
10
139.4306
20
-51.5085
10
139.4770
20
-51.4229
10
139.5400
20
-51.3456
10
139.6148
20
-51.2838
10
139.7016
20
-51.2387
10
139.7955
20
-51.2089
10
139.8930
20
-51.2006
10
145.7923
20
-51.2006
10
145.8898
20
-51.2089
10
145.9849
20
-51.2387
10
146.0705
20
-51.2838
10
146.1466
20
-51.3456
10
146.2096
20
-51.4229
10
146.2547
20
-51.5085
10
146.2833
20
-51.6024
0
LWPOLYLINE
5
10C
330
1F
100
AcDbEntity
8
0
100
AcDbPolyline
90
36
70
1
10
163.7697
20
-51.2006
10
169.6691
20
-51.2006
10
169.7666
20
-51.2089
10
169.8605
20
-51.2387
10
169.9472
20
-51.2838
10
170.0221
20
-51.3456
10
170.0851
20
-51.4229
10
170.1315
20
-51.5085
10
170.1588
20
-51.6024
10
170.1695
20
-51.6999
10
170.1695
20
-65.6001
10
170.1588
20
-65.6976
10
170.1315
20
-65.7915
10
170.0851
20
-65.8783
10
170.0221
20
-65.9532
10
169.9472
20
-66.0150
10
169.8605
20
-66.0625
10
169.7666
20
-66.0899
10
169.6691
20
-66.1006
10
163.7697
20
-66.1006
10
163.6723
20
-66.0899
10
163.5772
20
-66.0625
10
163.4916
20
-66.0150
10
163.4143
20
-65.9532
10
163.3537
20
-65.8783
10
163.3073
20
-65.7915
10
163.2788
20
-65.6976
10
163.2693
20
-65.6001
10
163.2693
20
-51.6999
10
163.2788
20
-51.6024
10
163.3073
20
-51.5085
10
163.3537
20
-51.4229
10
163.4143
20
-51.3456
10
163.4916
20
-51.2838
10
163.5772
20
-51.2387
10
163.6723
20
-51.2089
0
LWPOLYLINE
5
10D
330
1F
100
AcDbEntity
8
0
100
AcDbPolyline
90
36
70
1
10
92.3321
20
-51.2006
10
98.2326
20
-51.2006
10
98.3301
20
-51.2089
10
98.4228
20
-51.2387
10
98.5096
20
-51.2838
10
98.5856
20
-51.3456
10
98.6474
20
-51.4229
10
98.6938
20
-51.5085
10
98.7223
20
-51.6024
10
98.7318
20
-51.6999
10
98.7318
20
-65.6001
10
98.7223
20
-65.6976
10
98.6938
20
-65.7915
10
98.6474
20
-65.8783
10
98.5856
20
-65.9532
10
98.5096
20
-66.0150
10
98.4228
20
-66.0625
10
98.3301
20
-66.0899
10
98.2326
20
-66.1006
10
92.3321
20
-66.1006
10
92.2346
20
-66.0899
10
92.1407
20
-66.0625
10
92.0551
20
-66.0150
10
91.9778
20
-65.9532
10
91.9160
20
-65.8783
10
91.8709
20
-65.7915
10
91.8411
20
-65.6976
10
91.8328
20
-65.6001
10
91.8328
20
-51.6999
10
91.8411
20
-51.6024
10
91.8709
20
-51.5085
10
91.9160
20
-51.4229
10
91.9778
20
-51.3456
10
92.0551
20
-51.2838
10
92.1407
20
-51.2387
10
92.2346
20
-51.2089
0
LWPOLYLINE
5
10E
330
1F
100
AcDbEntity
8
0
100
AcDbPolyline
90
36
70
1
10
68.4565
20
-51.2006
10
74.3559
20
-51.2006
10
74.4533
20
-51.2089
10
74.5472
20
-51.2387
10
74.6328
20
-51.2838
10
74.7101
20
-51.3456
10
74.7707
20
-51.4229
10
74.8182
20
-51.5085
10
74.8468
20
-51.6024
10
74.8551
20
-51.6999
10
74.8551
20
-65.6001
10
74.8468
20
-65.6976
10
74.8182
20
-65.7915
10
74.7707
20
-65.8783
10
74.7101
20
-65.9532
10
74.6328
20
-66.0150
10
74.5472
20
-66.0625
10
74.4533
20
-66.0899
10
74.3559
20
-66.1006
10
68.4565
20
-66.1006
10
68.3590
20
-66.0899
10
68.2651
20
-66.0625
10
68.1784
20
-66.0150
10
68.1023
20
-65.9532
10
68.0405
20
-65.8783
10
67.9941
20
-65.7915
10
67.9656
20
-65.6976
10
67.9561
20
-65.6001
10
67.9561
20
-51.6999
10
67.9656
20
-51.6024
10
67.9941
20
-51.5085
10
68.0405
20
-51.4229
10
68.1023
20
-51.3456
10
68.1784
20
-51.2838
10
68.2651
20
-51.2387
10
68.3590
20
-51.2089
0
LWPOLYLINE
5
10F
330
1F
100
AcDbEntity
8
0
100
AcDbPolyline
90
36
70
1
10
197.4494
20
-31.6506
10
197.4494
20
-44.5500
10
197.4411
20
-44.6475
10
197.4114
20
-44.7414
10
197.3650
20
-44.8270
10
197.3032
20
-44.9031
10
197.2271
20
-44.9649
10
197.1416
20
-45.0124
10
197.0477
20
-45.0410
10
196.9502
20
-45.0505
10
184.0496
20
-45.0505
10
183.9521
20
-45.0410
10
183.8594
20
-45.0124
10
183.7726
20
-44.9649
10
183.6965
20
-44.9031
10
183.6347
20
-44.8270
10
183.5884
20
-44.7414
10
183.5587
20
-44.6475
10
183.5503
20
-44.5500
10
183.5503
20
-31.6506
10
183.5587
20
-31.5532
10
183.5884
20
-31.4581
10
183.6347
20
-31.3725
10
183.6965
20
-31.2964
10
183.7726
20
-31.2346
10
183.8594
20
-31.1882
10
183.9521
20
-31.1585
10
184.0496
20
-31.1502
10
196.9502
20
-31.1502
10
197.0477
20
-31.1585
10
197.1416
20
-31.1882
10
197.2271
20
-31.2346
10
197.3032
20
-31.2964
10
197.3650
20
-31.3725
10
197.4114
20
-31.4581
10
197.4411
20
-31.5532
0
LWPOLYLINE
5
110
330
1F
100
AcDbEntity
8
0
100
AcDbPolyline
90
36
70
1
10
197.4494
20
6.4509
10
197.4494
20
-6.4509
10
197.4411
20
-6.5484
10
197.4114
20
-6.6411
10
197.3650
20
-6.7279
10
197.3032
20
-6.8039
10
197.2271
20
-6.8657
10
197.1416
20
-6.9121
10
197.0477
20
-6.9406
10
196.9502
20
-6.9501
10
184.0496
20
-6.9501
10
183.9521
20
-6.9406
10
183.8594
20
-6.9121
10
183.7726
20
-6.8657
10
183.6965
20
-6.8039
10
183.6347
20
-6.7279
10
183.5884
20
-6.6411
10
183.5587
20
-6.5484
10
183.5503
20
-6.4509
10
183.5503
20
6.4509
10
183.5587
20
6.5484
10
183.5884
20
6.6411
10
183.6347
20
6.7279
10
183.6965
20
6.8039
10
183.7726
20
6.8657
10
183.8594
20
6.9121
10
183.9521
20
6.9406
10
184.0496
20
6.9501
10
196.9502
20
6.9501
10
197.0477
20
6.9406
10
197.1416
20
6.9121
10
197.2271
20
6.8657
10
197.3032
20
6.8039
10
197.3650
20
6.7279
10
197.4114
20
6.6411
10
197.4411
20
6.5484
0
LWPOLYLINE
5
111
330
1F
100
AcDbEntity
8
0
100
AcDbPolyline
90
36
70
1
10
216.5002
20
-31.6506
10
216.5002
20
-44.5500
10
216.4895
20
-44.6475
10
216.4621
20
-44.7414
10
216.4158
20
-44.8270
10
216.3528
20
-44.9031
10
216.2779
20
-44.9649
10
216.1911
20
-45.0124
10
216.0972
20
-45.0410
10
215.9998
20
-45.0505
10
203.1003
20
-45.0505
10
203.0029
20
-45.0410
10
202.9078
20
-45.0124
10
202.8222
20
-44.9649
10
202.7461
20
-44.9031
10
202.6843
20
-44.8270
10
202.6380
20
-44.7414
10
202.6094
20
-44.6475
10
202.5999
20
-44.5500
10
202.5999
20
-31.6506
10
202.6094
20
-31.5532
10
202.6380
20
-31.4581
10
202.6843
20
-31.3725
10
202.7461
20
-31.2964
10
202.8222
20
-31.2346
10
202.9078
20
-31.1882
10
203.0029
20
-31.1585
10
203.1003
20
-31.1502
10
215.9998
20
-31.1502
10
216.0972
20
-31.1585
10
216.1911
20
-31.1882
10
216.2779
20
-31.2346
10
216.3528
20
-31.2964
10
216.4158
20
-31.3725
10
216.4621
20
-31.4581
10
216.4895
20
-31.5532
0
LWPOLYLINE
5
112
330
1F
100
AcDbEntity
8
0
100
AcDbPolyline
90
36
70
1
10
216.5002
20
6.4509
10
216.5002
20
-6.4509
10
216.4895
20
-6.5484
10
216.4621
20
-6.6411
10
216.4158
20
-6.7279
10
216.3528
20
-6.8039
10
216.2779
20
-6.8657
10
216.1911
20
-6.9121
10
216.0972
20
-6.9406
10
215.9998
20
-6.9501
10
203.1003
20
-6.9501
10
203.0029
20
-6.9406
10
202.9078
20
-6.9121
10
202.8222
20
-6.8657
10
202.7461
20
-6.8039
10
202.6843
20
-6.7279
10
202.6380
20
-6.6411
10
202.6094
20
-6.5484
10
202.5999
20
-6.4509
10
202.5999
20
6.4509
10
202.6094
20
6.5484
10
202.6380
20
6.6411
10
202.6843
20
6.7279
10
202.7461
20
6.8039
10
202.8222
20
6.8657
10
202.9078
20
6.9121
10
203.0029
20
6.9406
10
203.1003
20
6.9501
10
215.9998
20
6.9501
10
216.0972
20
6.9406
10
216.1911
20
6.9121
10
216.2779
20
6.8657
10
216.3528
20
6.8039
10
216.4158
20
6.7279
10
216.4621
20
6.6411
10
216.4895
20
6.5484
0
LWPOLYLINE
5
113
330
1F
100
AcDbEntity
8
0
100
AcDbPolyline
90
36
70
1
10
235.5509
20
6.4509
10
235.5509
20
-6.4509
10
235.5402
20
-6.5484
10
235.5129
20
-6.6411
10
235.4654
20
-6.7279
10
235.4035
20
-6.8039
10
235.3287
20
-6.8657
10
235.2407
20
-6.9121
10
235.1480
20
-6.9406
10
235.0505
20
-6.9501
10
222.1499
20
-6.9501
10
222.0524
20
-6.9406
10
221.9585
20
-6.9121
10
221.8718
20
-6.8657
10
221.7957
20
-6.8039
10
221.7339
20
-6.7279
10
221.6887
20
-6.6411
10
221.6602
20
-6.5484
10
221.6495
20
-6.4509
10
221.6495
20
6.4509
10
221.6602
20
6.5484
10
221.6887
20
6.6411
10
221.7339
20
6.7279
10
221.7957
20
6.8039
10
221.8718
20
6.8657
10
221.9585
20
6.9121
10
222.0524
20
6.9406
10
222.1499
20
6.9501
10
235.0505
20
6.9501
10
235.1480
20
6.9406
10
235.2407
20
6.9121
10
235.3287
20
6.8657
10
235.4035
20
6.8039
10
235.4654
20
6.7279
10
235.5129
20
6.6411
10
235.5402
20
6.5484
0
LWPOLYLINE
5
114
330
1F
100
AcDbEntity
8
0
100
AcDbPolyline
90
36
70
1
10
254.5993
20
6.4509
10
254.5993
20
-6.4509
10
254.5910
20
-6.5484
10
254.5613
20
-6.6411
10
254.5161
20
-6.7279
10
254.4543
20
-6.8039
10
254.3782
20
-6.8657
10
254.2915
20
-6.9121
10
254.1976
20
-6.9406
10
254.1001
20
-6.9501
10
241.1995
20
-6.9501
10
241.1020
20
-6.9406
10
241.0093
20
-6.9121
10
240.9225
20
-6.8657
10
240.8465
20
-6.8039
10
240.7846
20
-6.7279
10
240.7383
20
-6.6411
10
240.7098
20
-6.5484
10
240.7002
20
-6.4509
10
240.7002
20
6.4509
10
240.7098
20
6.5484
10
240.7383
20
6.6411
10
240.7846
20
6.7279
10
240.8465
20
6.8039
10
240.9225
20
6.8657
10
241.0093
20
6.9121
10
241.1020
20
6.9406
10
241.1995
20
6.9501
10
254.1001
20
6.9501
10
254.1976
20
6.9406
10
254.2915
20
6.9121
10
254.3782
20
6.8657
10
254.4543
20
6.8039
10
254.5161
20
6.7279
10
254.5613
20
6.6411
10
254.5910
20
6.5484
0
LWPOLYLINE
5
115
330
1F
100
AcDbEntity
8
0
100
AcDbPolyline
90
32
70
1
10
87.2255
20
-29.5277
10
87.1958
20
-29.8201
10
87.1114
20
-30.1018
10
86.9724
20
-30.3609
10
86.7857
20
-30.5891
10
86.5575
20
-30.7758
10
86.2984
20
-30.9137
10
86.0179
20
-30.9980
10
85.7255
20
-31.0278
10
85.4330
20
-30.9980
10
85.1513
20
-30.9137
10
84.8922
20
-30.7758
10
84.6640
20
-30.5891
10
84.4774
20
-30.3609
10
84.3395
20
-30.1018
10
84.2539
20
-29.8201
10
84.2254
20
-29.5277
10
84.2539
20
-29.2353
10
84.3395
20
-28.9547
10
84.4774
20
-28.6956
10
84.6640
20
-28.4674
10
84.8922
20
-28.2808
10
85.1513
20
-28.1417
10
85.4330
20
-28.0573
10
85.7255
20
-28.0276
10
86.0179
20
-28.0573
10
86.2984
20
-28.1417
10
86.5575
20
-28.2808
10
86.7857
20
-28.4674
10
86.9724
20
-28.6956
10
87.1114
20
-28.9547
10
87.1958
20
-29.2353
0
LWPOLYLINE
5
116
330
1F
100
AcDbEntity
8
0
100
AcDbPolyline
90
32
70
1
10
144.3743
20
-29.5277
10
144.3469
20
-29.8201
10
144.2613
20
-30.1018
10
144.1223
20
-30.3609
10
143.9356
20
-30.5891
10
143.7086
20
-30.7758
10
143.4483
20
-30.9137
10
143.1678
20
-30.9980
10
142.8754
20
-31.0278
10
142.5829
20
-30.9980
10
142.3012
20
-30.9137
10
142.0421
20
-30.7758
10
141.8139
20
-30.5891
10
141.6273
20
-30.3609
10
141.4882
20
-30.1018
10
141.4038
20
-29.8201
10
141.3753
20
-29.5277
10
141.4038
20
-29.2353
10
141.4882
20
-28.9547
10
141.6273
20
-28.6956
10
141.8139
20
-28.4674
10
142.0421
20
-28.2808
10
142.3012
20
-28.1417
10
142.5829
20
-28.0573
10
142.8754
20
-28.0276
10
143.1678
20
-28.0573
10
143.4483
20
-28.1417
10
143.7086
20
-28.2808
10
143.9356
20
-28.4674
10
144.1223
20
-28.6956
10
144.2613
20
-28.9547
10
144.3469
20
-29.2353
0
LWPOLYLINE
5
117
330
1F
100
AcDbEntity
8
0
100
AcDbPolyline
90
36
70
1
10
6.9501
20
6.4509
10
6.9501
20
-6.4509
10
6.9406
20
-6.5484
10
6.9121
20
-6.6411
10
6.8657
20
-6.7279
10
6.8039
20
-6.8039
10
6.7279
20
-6.8657
10
6.6411
20
-6.9121
10
6.5484
20
-6.9406
10
6.4509
20
-6.9501
10
-6.4509
20
-6.9501
10
-6.5484
20
-6.9406
10
-6.6411
20
-6.9121
10
-6.7279
20
-6.8657
10
-6.8039
20
-6.8039
10
-6.8657
20
-6.7279
10
-6.9121
20
-6.6411
10
-6.9406
20
-6.5484
10
-6.9501
20
-6.4509
10
-6.9501
20
6.4509
10
-6.9406
20
6.5484
10
-6.9121
20
6.6411
10
-6.8657
20
6.7279
10
-6.8039
20
6.8039
10
-6.7279
20
6.8657
10
-6.6411
20
6.9121
10
-6.5484
20
6.9406
10
-6.4509
20
6.9501
10
6.4509
20
6.9501
10
6.5484
20
6.9406
10
6.6411
20
6.9121
10
6.7279
20
6.8657
10
6.8039
20
6.8039
10
6.8657
20
6.7279
10
6.9121
20
6.6411
10
6.9406
20
6.5484
0
LWPOLYLINE
5
118
330
1F
100
AcDbEntity
8
0
100
AcDbPolyline
90
36
70
1
10
165.0000
20
6.9501
10
177.8994
20
6.9501
10
177.9969
20
6.9406
10
178.0920
20
6.9121
10
178.1776
20
6.8657
10
178.2536
20
6.8039
10
178.3166
20
6.7279
10
178.3618
20
6.6411
10
178.3903
20
6.5484
10
178.3998
20
6.4509
10
178.3998
20
-6.4509
10
178.3903
20
-6.5484
10
178.3618
20
-6.6411
10
178.3166
20
-6.7279
10
178.2536
20
-6.8039
10
178.1776
20
-6.8657
10
178.0920
20
-6.9121
10
177.9969
20
-6.9406
10
177.8994
20
-6.9501
10
165.0000
20
-6.9501
10
164.9025
20
-6.9406
10
164.8086
20
-6.9121
10
164.7219
20
-6.8657
10
164.6470
20
-6.8039
10
164.5840
20
-6.7279
10
164.5376
20
-6.6411
10
164.5103
20
-6.5484
10
164.4996
20
-6.4509
10
164.4996
20
6.4509
10
164.5103
20
6.5484
10
164.5376
20
6.6411
10
164.5840
20
6.7279
10
164.6470
20
6.8039
10
164.7219
20
6.8657
10
164.8086
20
6.9121
10
164.9025
20
6.9406
0
LWPOLYLINE
5
119
330
1F
100
AcDbEntity
8
0
100
AcDbPolyline
90
36
70
1
10
145.9492
20
6.9501
10
158.8510
20
6.9501
10
158.9473
20
6.9406
10
159.0412
20
6.9121
10
159.1280
20
6.8657
10
159.2041
20
6.8039
10
159.2659
20
6.7279
10
159.3122
20
6.6411
10
159.3408
20
6.5484
10
159.3503
20
6.4509
10
159.3503
20
-6.4509
10
159.3408
20
-6.5484
10
159.3122
20
-6.6411
10
159.2659
20
-6.7279
10
159.2041
20
-6.8039
10
159.1280
20
-6.8657
10
159.0412
20
-6.9121
10
158.9473
20
-6.9406
10
158.8510
20
-6.9501
10
145.9492
20
-6.9501
10
145.8518
20
-6.9406
10
145.7591
20
-6.9121
10
145.6723
20
-6.8657
10
145.5962
20
-6.8039
10
145.5344
20
-6.7279
10
145.4880
20
-6.6411
10
145.4595
20
-6.5484
10
145.4500
20
-6.4509
10
145.4500
20
6.4509
10
145.4595
20
6.5484
10
145.4880
20
6.6411
10
145.5344
20
6.7279
10
145.5962
20
6.8039
10
145.6723
20
6.8657
10
145.7591
20
6.9121
10
145.8518
20
6.9406
0
LWPOLYLINE
5
11A
330
1F
100
AcDbEntity
8
0
100
AcDbPolyline
90
36
70
1
10
126.9009
20
6.9501
10
139.8003
20
6.9501
10
139.8977
20
6.9406
10
139.9905
20
6.9121
10
140.0772
20
6.8657
10
140.1533
20
6.8039
10
140.2151
20
6.7279
10
140.2627
20
6.6411
10
140.2900
20
6.5484
10
140.3007
20
6.4509
10
140.3007
20
-6.4509
10
140.2900
20
-6.5484
10
140.2627
20
-6.6411
10
140.2151
20
-6.7279
10
140.1533
20
-6.8039
10
140.0772
20
-6.8657
10
139.9905
20
-6.9121
10
139.8977
20
-6.9406
10
139.8003
20
-6.9501
10
126.9009
20
-6.9501
10
126.8034
20
-6.9406
10
126.7083
20
-6.9121
10
126.6227
20
-6.8657
10
126.5455
20
-6.8039
10
126.4836
20
-6.7279
10
126.4385
20
-6.6411
10
126.4099
20
-6.5484
10
126.4004
20
-6.4509
10
126.4004
20
6.4509
10
126.4099
20
6.5484
10
126.4385
20
6.6411
10
126.4836
20
6.7279
10
126.5455
20
6.8039
10
126.6227
20
6.8657
10
126.7083
20
6.9121
10
126.8034
20
6.9406
0
LWPOLYLINE
5
11B
330
1F
100
AcDbEntity
8
0
100
AcDbPolyline
90
36
70
1
10
107.8501
20
6.9501
10
120.7495
20
6.9501
10
120.8470
20
6.9406
10
120.9421
20
6.9121
10
121.0277
20
6.8657
10
121.1025
20
6.8039
10
121.1655
20
6.7279
10
121.2119
20
6.6411
10
121.2404
20
6.5484
10
121.2499
20
6.4509
10
121.2499
20
-6.4509
10
121.2404
20
-6.5484
10
121.2119
20
-6.6411
10
121.1655
20
-6.7279
10
121.1025
20
-6.8039
10
121.0277
20
-6.8657
10
120.9421
20
-6.9121
10
120.8470
20
-6.9406
10
120.7495
20
-6.9501
10
107.8501
20
-6.9501
10
107.7526
20
-6.9406
10
107.6587
20
-6.9121
10
107.5720
20
-6.8657
10
107.4971
20
-6.8039
10
107.4341
20
-6.7279
10
107.3877
20
-6.6411
10
107.3592
20
-6.5484
10
107.3497
20
-6.4509
10
107.3497
20
6.4509
10
107.3592
20
6.5484
10
107.3877
20
6.6411
10
107.4341
20
6.7279
10
107.4971
20
6.8039
10
107.5720
20
6.8657
10
107.6587
20
6.9121
10
107.7526
20
6.9406
0
LWPOLYLINE
5
11C
330
1F
100
AcDbEntity
8
0
100
AcDbPolyline
90
36
70
1
10
88.7993
20
6.9501
10
101.6999
20
6.9501
10
101.7974
20
6.9406
10
101.8913
20
6.9121
10
101.9769
20
6.8657
10
102.0542
20
6.8039
10
102.1160
20
6.7279
10
102.1611
20
6.6411
10
102.1909
20
6.5484
10
102.1992
20
6.4509
10
102.1992
20
-6.4509
10
102.1909
20
-6.5484
10
102.1611
20
-6.6411
10
102.1160
20
-6.7279
10
102.0542
20
-6.8039
10
101.9769
20
-6.8657
10
101.8913
20
-6.9121
10
101.7974
20
-6.9406
10
101.6999
20
-6.9501
10
88.7993
20
-6.9501
10
88.7019
20
-6.9406
10
88.6092
20
-6.9121
10
88.5224
20
-6.8657
10
88.4463
20
-6.8039
10
88.3845
20
-6.7279
10
88.3381
20
-6.6411
10
88.3096
20
-6.5484
10
88.3001
20
-6.4509
10
88.3001
20
6.4509
10
88.3096
20
6.5484
10
88.3381
20
6.6411
10
88.3845
20
6.7279
10
88.4463
20
6.8039
10
88.5224
20
6.8657
10
88.6092
20
6.9121
10
88.7019
20
6.9406
0
LWPOLYLINE
5
11D
330
1F
100
AcDbEntity
8
0
100
AcDbPolyline
90
36
70
1
10
69.7498
20
6.9501
10
82.6504
20
6.9501
10
82.7478
20
6.9406
10
82.8417
20
6.9121
10
82.9285
20
6.8657
10
83.0034
20
6.8039
10
83.0664
20
6.7279
10
83.1128
20
6.6411
10
83.1401
20
6.5484
10
83.1508
20
6.4509
10
83.1508
20
-6.4509
10
83.1401
20
-6.5484
10
83.1128
20
-6.6411
10
83.0664
20
-6.7279
10
83.0034
20
-6.8039
10
82.9285
20
-6.8657
10
82.8417
20
-6.9121
10
82.7478
20
-6.9406
10
82.6504
20
-6.9501
10
69.7498
20
-6.9501
10
69.6523
20
-6.9406
10
69.5584
20
-6.9121
10
69.4716
20
-6.8657
10
69.3967
20
-6.8039
10
69.3337
20
-6.7279
10
69.2886
20
-6.6411
10
69.2600
20
-6.5484
10
69.2493
20
-6.4509
10
69.2493
20
6.4509
10
69.2600
20
6.5484
10
69.2886
20
6.6411
10
69.3337
20
6.7279
10
69.3967
20
6.8039
10
69.4716
20
6.8657
10
69.5584
20
6.9121
10
69.6523
20
6.9406
0
LWPOLYLINE
5
11E
330
1F
100
AcDbEntity
8
0
100
AcDbPolyline
90
36
70
1
10
50.7002
20
6.9501
10
63.5996
20
6.9501
10
63.6971
20
6.9406
10
63.7910
20
6.9121
10
63.8778
20
6.8657
10
63.9538
20
6.8039
10
64.0156
20
6.7279
10
64.0620
20
6.6411
10
64.0905
20
6.5484
10
64.1000
20
6.4509
10
64.1000
20
-6.4509
10
64.0905
20
-6.5484
10
64.0620
20
-6.6411
10
64.0156
20
-6.7279
10
63.9538
20
-6.8039
10
63.8778
20
-6.8657
10
63.7910
20
-6.9121
10
63.6971
20
-6.9406
10
63.5996
20
-6.9501
10
50.7002
20
-6.9501
10
50.6027
20
-6.9406
10
50.5088
20
-6.9121
10
50.4232
20
-6.8657
10
50.3460
20
-6.8039
10
50.2842
20
-6.7279
10
50.2378
20
-6.6411
10
50.2093
20
-6.5484
10
50.2010
20
-6.4509
10
50.2010
20
6.4509
10
50.2093
20
6.5484
10
50.2378
20
6.6411
10
50.2842
20
6.7279
10
50.3460
20
6.8039
10
50.4232
20
6.8657
10
50.5088
20
6.9121
10
50.6027
20
6.9406
0
LWPOLYLINE
5
11F
330
1F
100
AcDbEntity
8
0
100
AcDbPolyline
90
36
70
1
10
31.6506
20
6.9501
10
44.5500
20
6.9501
10
44.6475
20
6.9406
10
44.7414
20
6.9121
10
44.8270
20
6.8657
10
44.9031
20
6.8039
10
44.9649
20
6.7279
10
45.0124
20
6.6411
10
45.0410
20
6.5484
10
45.0505
20
6.4509
10
45.0505
20
-6.4509
10
45.0410
20
-6.5484
10
45.0124
20
-6.6411
10
44.9649
20
-6.7279
10
44.9031
20
-6.8039
10
44.8270
20
-6.8657
10
44.7414
20
-6.9121
10
44.6475
20
-6.9406
10
44.5500
20
-6.9501
10
31.6506
20
-6.9501
10
31.5532
20
-6.9406
10
31.4581
20
-6.9121
10
31.3725
20
-6.8657
10
31.2964
20
-6.8039
10
31.2346
20
-6.7279
10
31.1882
20
-6.6411
10
31.1585
20
-6.5484
10
31.1502
20
-6.4509
10
31.1502
20
6.4509
10
31.1585
20
6.5484
10
31.1882
20
6.6411
10
31.2346
20
6.7279
10
31.2964
20
6.8039
10
31.3725
20
6.8657
10
31.4581
20
6.9121
10
31.5532
20
6.9406
0
LWPOLYLINE
5
120
330
1F
100
AcDbEntity
8
0
100
AcDbPolyline
90
36
70
1
10
12.5999
20
6.9501
10
25.4993
20
6.9501
10
25.5967
20
6.9406
10
25.6918
20
6.9121
10
25.7774
20
6.8657
10
25.8535
20
6.8039
10
25.9165
20
6.7279
10
25.9617
20
6.6411
10
25.9902
20
6.5484
10
25.9997
20
6.4509
10
25.9997
20
-6.4509
10
25.9902
20
-6.5484
10
25.9617
20
-6.6411
10
25.9165
20
-6.7279
10
25.8535
20
-6.8039
10
25.7774
20
-6.8657
10
25.6918
20
-6.9121
10
25.5967
20
-6.9406
10
25.4993
20
-6.9501
10
12.5999
20
-6.9501
10
12.5024
20
-6.9406
10
12.4085
20
-6.9121
10
12.3217
20
-6.8657
10
12.2468
20
-6.8039
10
12.1838
20
-6.7279
10
12.1375
20
-6.6411
10
12.1101
20
-6.5484
10
12.0994
20
-6.4509
10
12.0994
20
6.4509
10
12.1101
20
6.5484
10
12.1375
20
6.6411
10
12.1838
20
6.7279
10
12.2468
20
6.8039
10
12.3217
20
6.8657
10
12.4085
20
6.9121
10
12.5024
20
6.9406
0
LWPOLYLINE
5
121
330
1F
100
AcDbEntity
8
0
100
AcDbPolyline
90
36
70
1
10
45.0505
20
-31.6506
10
45.0505
20
-44.5500
10
45.0410
20
-44.6475
10
45.0124
20
-44.7414
10
44.9649
20
-44.8270
10
44.9031
20
-44.9031
10
44.8270
20
-44.9649
10
44.7414
20
-45.0124
10
44.6475
20
-45.0410
10
44.5500
20
-45.0505
10
31.6506
20
-45.0505
10
31.5532
20
-45.0410
10
31.4581
20
-45.0124
10
31.3725
20
-44.9649
10
31.2964
20
-44.9031
10
31.2346
20
-44.8270
10
31.1882
20
-44.7414
10
31.1585
20
-44.6475
10
31.1502
20
-44.5500
10
31.1502
20
-31.6506
10
31.1585
20
-31.5532
10
31.1882
20
-31.4581
10
31.2346
20
-31.3725
10
31.2964
20
-31.2964
10
31.3725
20
-31.2346
10
31.4581
20
-31.1882
10
31.5532
20
-31.1585
10
31.6506
20
-31.1502
10
44.5500
20
-31.1502
10
44.6475
20
-31.1585
10
44.7414
20
-31.1882
10
44.8270
20
-31.2346
10
44.9031
20
-31.2964
10
44.9649
20
-31.3725
10
45.0124
20
-31.4581
10
45.0410
20
-31.5532
0
LWPOLYLINE
5
122
330
1F
100
AcDbEntity
8
0
100
AcDbPolyline
90
36
70
1
10
64.1000
20
-31.6506
10
64.1000
20
-44.5500
10
64.0905
20
-44.6475
10
64.0620
20
-44.7414
10
64.0156
20
-44.8270
10
63.9538
20
-44.9031
10
63.8778
20
-44.9649
10
63.7910
20
-45.0124
10
63.6971
20
-45.0410
10
63.5996
20
-45.0505
10
50.7002
20
-45.0505
10
50.6027
20
-45.0410
10
50.5088
20
-45.0124
10
50.4232
20
-44.9649
10
50.3460
20
-44.9031
10
50.2842
20
-44.8270
10
50.2378
20
-44.7414
10
50.2093
20
-44.6475
10
50.2010
20
-44.5500
10
50.2010
20
-31.6506
10
50.2093
20
-31.5532
10
50.2378
20
-31.4581
10
50.2842
20
-31.3725
10
50.3460
20
-31.2964
10
50.4232
20
-31.2346
10
50.5088
20
-31.1882
10
50.6027
20
-31.1585
10
50.7002
20
-31.1502
10
63.5996
20
-31.1502
10
63.6971
20
-31.1585
10
63.7910
20
-31.1882
10
63.8778
20
-31.2346
10
63.9538
20
-31.2964
10
64.0156
20
-31.3725
10
64.0620
20
-31.4581
10
64.0905
20
-31.5532
0
LWPOLYLINE
5
123
330
1F
100
AcDbEntity
8
0
100
AcDbPolyline
90
36
70
1
10
83.1508
20
-31.6506
10
83.1508
20
-44.5500
10
83.1401
20
-44.6475
10
83.1128
20
-44.7414
10
83.0664
20
-44.8270
10
83.0034
20
-44.9031
10
82.9285
20
-44.9649
10
82.8417
20
-45.0124
10
82.7478
20
-45.0410
10
82.6504
20
-45.0505
10
69.7498
20
-45.0505
10
69.6523
20
-45.0410
10
69.5584
20
-45.0124
10
69.4716
20
-44.9649
10
69.3967
20
-44.9031
10
69.3337
20
-44.8270
10
69.2886
20
-44.7414
10
69.2600
20
-44.6475
10
69.2493
20
-44.5500
10
69.2493
20
-31.6506
10
69.2600
20
-31.5532
10
69.2886
20
-31.4581
10
69.3337
20
-31.3725
10
69.3967
20
-31.2964
10
69.4716
20
-31.2346
10
69.5584
20
-31.1882
10
69.6523
20
-31.1585
10
69.7498
20
-31.1502
10
82.6504
20
-31.1502
10
82.7478
20
-31.1585
10
82.8417
20
-31.1882
10
82.9285
20
-31.2346
10
83.0034
20
-31.2964
10
83.0664
20
-31.3725
10
83.1128
20
-31.4581
10
83.1401
20
-31.5532
0
LWPOLYLINE
5
124
330
1F
100
AcDbEntity
8
0
100
AcDbPolyline
90
36
70
1
10
102.1992
20
-31.6506
10
102.1992
20
-44.5500
10
102.1909
20
-44.6475
10
102.1611
20
-44.7414
10
102.1160
20
-44.8270
10
102.0542
20
-44.9031
10
101.9769
20
-44.9649
10
101.8913
20
-45.0124
10
101.7974
20
-45.0410
10
101.6999
20
-45.0505
10
88.7993
20
-45.0505
10
88.7019
20
-45.0410
10
88.6092
20
-45.0124
10
88.5224
20
-44.9649
10
88.4463
20
-44.9031
10
88.3845
20
-44.8270
10
88.3381
20
-44.7414
10
88.3096
20
-44.6475
10
88.3001
20
-44.5500
10
88.3001
20
-31.6506
10
88.3096
20
-31.5532
10
88.3381
20
-31.4581
10
88.3845
20
-31.3725
10
88.4463
20
-31.2964
10
88.5224
20
-31.2346
10
88.6092
20
-31.1882
10
88.7019
20
-31.1585
10
88.7993
20
-31.1502
10
101.6999
20
-31.1502
10
101.7974
20
-31.1585
10
101.8913
20
-31.1882
10
101.9769
20
-31.2346
10
102.0542
20
-31.2964
10
102.1160
20
-31.3725
10
102.1611
20
-31.4581
10
102.1909
20
-31.5532
0
LWPOLYLINE
5
125
330
1F
100
AcDbEntity
8
0
100
AcDbPolyline
90
36
70
1
10
121.2499
20
-31.6506
10
121.2499
20
-44.5500
10
121.2404
20
-44.6475
10
121.2119
20
-44.7414
10
121.1655
20
-44.8270
10
121.1025
20
-44.9031
10
121.0277
20
-44.9649
10
120.9421
20
-45.0124
10
120.8470
20
-45.0410
10
120.7495
20
-45.0505
10
107.8501
20
-45.0505
10
107.7526
20
-45.0410
10
107.6587
20
-45.0124
10
107.5720
20
-44.9649
10
107.4971
20
-44.9031
10
107.4341
20
-44.8270
10
107.3877
20
-44.7414
10
107.3592
20
-44.6475
10
107.3497
20
-44.5500
10
107.3497
20
-31.6506
10
107.3592
20
-31.5532
10
107.3877
20
-31.4581
10
107.4341
20
-31.3725
10
107.4971
20
-31.2964
10
107.5720
20
-31.2346
10
107.6587
20
-31.1882
10
107.7526
20
-31.1585
10
107.8501
20
-31.1502
10
120.7495
20
-31.1502
10
120.8470
20
-31.1585
10
120.9421
20
-31.1882
10
121.0277
20
-31.2346
10
121.1025
20
-31.2964
10
121.1655
20
-31.3725
10
121.2119
20
-31.4581
10
121.2404
20
-31.5532
0
LWPOLYLINE
5
126
330
1F
100
AcDbEntity
8
0
100
AcDbPolyline
90
36
70
1
10
140.3007
20
-31.6506
10
140.3007
20
-44.5500
10
140.2900
20
-44.6475
10
140.2627
20
-44.7414
10
140.2151
20
-44.8270
10
140.1533
20
-44.9031
10
140.0772
20
-44.9649
10
139.9905
20
-45.0124
10
139.8977
20
-45.0410
10
139.8003
20
-45.0505
10
126.9009
20
-45.0505
10
126.8034
20
-45.0410
10
126.7083
20
-45.0124
10
126.6227
20
-44.9649
10
126.5455
20
-44.9031
10
126.4836
20
-44.8270
10
126.4385
20
-44.7414
10
126.4099
20
-44.6475
10
126.4004
20
-44.5500
10
126.4004
20
-31.6506
10
126.4099
20
-31.5532
10
126.4385
20
-31.4581
10
126.4836
20
-31.3725
10
126.5455
20
-31.2964
10
126.6227
20
-31.2346
10
126.7083
20
-31.1882
10
126.8034
20
-31.1585
10
126.9009
20
-31.1502
10
139.8003
20
-31.1502
10
139.8977
20
-31.1585
10
139.9905
20
-31.1882
10
140.0772
20
-31.2346
10
140.1533
20
-31.2964
10
140.2151
20
-31.3725
10
140.2627
20
-31.4581
10
140.2900
20
-31.5532
0
LWPOLYLINE
5
127
330
1F
100
AcDbEntity
8
0
100
AcDbPolyline
90
36
70
1
10
159.3503
20
-31.6506
10
159.3503
20
-44.5500
10
159.3408
20
-44.6475
10
159.3122
20
-44.7414
10
159.2659
20
-44.8270
10
159.2041
20
-44.9031
10
159.1280
20
-44.9649
10
159.0412
20
-45.0124
10
158.9473
20
-45.0410
10
158.8510
20
-45.0505
10
145.9492
20
-45.0505
10
145.8518
20
-45.0410
10
145.7591
20
-45.0124
10
145.6723
20
-44.9649
10
145.5962
20
-44.9031
10
145.5344
20
-44.8270
10
145.4880
20
-44.7414
10
145.4595
20
-44.6475
10
145.4500
20
-44.5500
10
145.4500
20
-31.6506
10
145.4595
20
-31.5532
10
145.4880
20
-31.4581
10
145.5344
20
-31.3725
10
145.5962
20
-31.2964
10
145.6723
20
-31.2346
10
145.7591
20
-31.1882
10
145.8518
20
-31.1585
10
145.9492
20
-31.1502
10
158.8510
20
-31.1502
10
158.9473
20
-31.1585
10
159.0412
20
-31.1882
10
159.1280
20
-31.2346
10
159.2041
20
-31.2964
10
159.2659
20
-31.3725
10
159.3122
20
-31.4581
10
159.3408
20
-31.5532
0
LWPOLYLINE
5
128
330
1F
100
AcDbEntity
8
0
100
AcDbPolyline
90
36
70
1
10
178.3998
20
-31.6506
10
178.3998
20
-44.5500
10
178.3903
20
-44.6475
10
178.3618
20
-44.7414
10
178.3166
20
-44.8270
10
178.2536
20
-44.9031
10
178.1776
20
-44.9649
10
178.0920
20
-45.0124
10
177.9969
20
-45.0410
10
177.8994
20
-45.0505
10
165.0000
20
-45.0505
10
164.9025
20
-45.0410
10
164.8086
20
-45.0124
10
164.7219
20
-44.9649
10
164.6470
20
-44.9031
10
164.5840
20
-44.8270
10
164.5376
20
-44.7414
10
164.5103
20
-44.6475
10
164.4996
20
-44.5500
10
164.4996
20
-31.6506
10
164.5103
20
-31.5532
10
164.5376
20
-31.4581
10
164.5840
20
-31.3725
10
164.6470
20
-31.2964
10
164.7219
20
-31.2346
10
164.8086
20
-31.1882
10
164.9025
20
-31.1585
10
165.0000
20
-31.1502
10
177.8994
20
-31.1502
10
177.9969
20
-31.1585
10
178.0920
20
-31.1882
10
178.1776
20
-31.2346
10
178.2536
20
-31.2964
10
178.3166
20
-31.3725
10
178.3618
20
-31.4581
10
178.3903
20
-31.5532
0
LWPOLYLINE
5
129
330
1F
100
AcDbEntity
8
0
100
AcDbPolyline
90
36
70
1
10
11.7131
20
-12.5999
10
11.7131
20
-25.4993
10
11.7036
20
-25.5967
10
11.6739
20
-25.6918
10
11.6287
20
-25.7774
10
11.5669
20
-25.8535
10
11.4908
20
-25.9165
10
11.4041
20
-25.9617
10
11.3114
20
-25.9902
10
11.2127
20
-25.9997
10
-1.6879
20
-25.9997
10
-1.7854
20
-25.9902
10
-1.8781
20
-25.9617
10
-1.9649
20
-25.9165
10
-2.0409
20
-25.8535
10
-2.1028
20
-25.7774
10
-2.1491
20
-25.6918
10
-2.1776
20
-25.5967
10
-2.1871
20
-25.4993
10
-2.1871
20
-12.5999
10
-2.1776
20
-12.5024
10
-2.1491
20
-12.4085
10
-2.1028
20
-12.3217
10
-2.0409
20
-12.2468
10
-1.9649
20
-12.1838
10
-1.8781
20
-12.1375
10
-1.7854
20
-12.1101
10
-1.6879
20
-12.0994
10
11.2127
20
-12.0994
10
11.3114
20
-12.1101
10
11.4041
20
-12.1375
10
11.4908
20
-12.1838
10
11.5669
20
-12.2468
10
11.6287
20
-12.3217
10
11.6739
20
-12.4085
10
11.7036
20
-12.5024
0
LWPOLYLINE
5
12A
330
1F
100
AcDbEntity
8
0
100
AcDbPolyline
90
36
70
1
10
236.4377
20
-12.0994
10
249.3371
20
-12.0994
10
249.4358
20
-12.1101
10
249.5297
20
-12.1375
10
249.6164
20
-12.1838
10
249.6913
20
-12.2468
10
249.7543
20
-12.3217
10
249.7995
20
-12.4085
10
249.8280
20
-12.5024
10
249.8375
20
-12.5999
10
249.8375
20
-25.4993
10
249.8280
20
-25.5967
10
249.7995
20
-25.6918
10
249.7543
20
-25.7774
10
249.6913
20
-25.8535
10
249.6164
20
-25.9165
10
249.5297
20
-25.9617
10
249.4358
20
-25.9902
10
249.3371
20
-25.9997
10
236.4377
20
-25.9997
10
236.3402
20
-25.9902
10
236.2463
20
-25.9617
10
236.1595
20
-25.9165
10
236.0847
20
-25.8535
10
236.0217
20
-25.7774
10
235.9753
20
-25.6918
10
235.9480
20
-25.5967
10
235.9373
20
-25.4993
10
235.9373
20
-12.5999
10
235.9480
20
-12.5024
10
235.9753
20
-12.4085
10
236.0217
20
-12.3217
10
236.0847
20
-12.2468
10
236.1595
20
-12.1838
10
236.2463
20
-12.1375
10
236.3402
20
-12.1101
0
LWPOLYLINE
5
12B
330
1F
100
AcDbEntity
8
0
100
AcDbPolyline
90
36
70
1
10
212.6251
20
-12.0994
10
225.5257
20
-12.0994
10
225.6232
20
-12.1101
10
225.7159
20
-12.1375
10
225.8027
20
-12.1838
10
225.8788
20
-12.2468
10
225.9406
20
-12.3217
10
225.9869
20
-12.4085
10
226.0155
20
-12.5024
10
226.0250
20
-12.5999
10
226.0250
20
-25.4993
10
226.0155
20
-25.5967
10
225.9869
20
-25.6918
10
225.9406
20
-25.7774
10
225.8788
20
-25.8535
10
225.8027
20
-25.9165
10
225.7159
20
-25.9617
10
225.6232
20
-25.9902
10
225.5257
20
-25.9997
10
212.6251
20
-25.9997
10
212.5265
20
-25.9902
10
212.4338
20
-25.9617
10
212.3470
20
-25.9165
10
212.2709
20
-25.8535
10
212.2091
20
-25.7774
10
212.1639
20
-25.6918
10
212.1342
20
-25.5967
10
212.1259
20
-25.4993
10
212.1259
20
-12.5999
10
212.1342
20
-12.5024
10
212.1639
20
-12.4085
10
212.2091
20
-12.3217
10
212.2709
20
-12.2468
10
212.3470
20
-12.1838
10
212.4338
20
-12.1375
10
212.5265
20
-12.1101
0
LWPOLYLINE
5
12C
330
1F
100
AcDbEntity
8
0
100
AcDbPolyline
90
36
70
1
10
193.5756
20
-12.0994
10
206.4750
20
-12.0994
10
206.5724
20
-12.1101
10
206.6663
20
-12.1375
10
206.7531
20
-12.1838
10
206.8280
20
-12.2468
10
206.8910
20
-12.3217
10
206.9374
20
-12.4085
10
206.9647
20
-12.5024
10
206.9754
20
-12.5999
10
206.9754
20
-25.4993
10
206.9647
20
-25.5967
10
206.9374
20
-25.6918
10
206.8910
20
-25.7774
10
206.8280
20
-25.8535
10
206.7531
20
-25.9165
10
206.6663
20
-25.9617
10
206.5724
20
-25.9902
10
206.4750
20
-25.9997
10
193.5756
20
-25.9997
10
193.4781
20
-25.9902
10
193.3830
20
-25.9617
10
193.2974
20
-25.9165
10
193.2213
20
-25.8535
10
193.1595
20
-25.7774
10
193.1132
20
-25.6918
10
193.0846
20
-25.5967
10
193.0751
20
-25.4993
10
193.0751
20
-12.5999
10
193.0846
20
-12.5024
10
193.1132
20
-12.4085
10
193.1595
20
-12.3217
10
193.2213
20
-12.2468
10
193.2974
20
-12.1838
10
193.3830
20
-12.1375
10
193.4781
20
-12.1101
0
LWPOLYLINE
5
12D
330
1F
100
AcDbEntity
8
0
100
AcDbPolyline
90
36
70
1
10
174.5248
20
-12.0994
10
187.4242
20
-12.0994
10
187.5217
20
-12.1101
10
187.6168
20
-12.1375
10
187.7024
20
-12.1838
10
187.7796
20
-12.2468
10
187.8402
20
-12.3217
10
187.8866
20
-12.4085
10
187.9151
20
-12.5024
10
187.9246
20
-12.5999
10
187.9246
20
-25.4993
10
187.9151
20
-25.5967
10
187.8866
20
-25.6918
10
187.8402
20
-25.7774
10
187.7796
20
-25.8535
10
187.7024
20
-25.9165
10
187.6168
20
-25.9617
10
187.5217
20
-25.9902
10
187.4242
20
-25.9997
10
174.5248
20
-25.9997
10
174.4273
20
-25.9902
10
174.3346
20
-25.9617
10
174.2478
20
-25.9165
10
174.1718
20
-25.8535
10
174.1100
20
-25.7774
10
174.0624
20
-25.6918
10
174.0351
20
-25.5967
10
174.0244
20
-25.4993
10
174.0244
20
-12.5999
10
174.0351
20
-12.5024
10
174.0624
20
-12.4085
10
174.1100
20
-12.3217
10
174.1718
20
-12.2468
10
174.2478
20
-12.1838
10
174.3346
20
-12.1375
10
174.4273
20
-12.1101
0
LWPOLYLINE
5
12E
330
1F
100
AcDbEntity
8
0
100
AcDbPolyline
90
36
70
1
10
155.4740
20
-12.0994
10
168.3746
20
-12.0994
10
168.4733
20
-12.1101
10
168.5660
20
-12.1375
10
168.6528
20
-12.1838
10
168.7289
20
-12.2468
10
168.7907
20
-12.3217
10
168.8370
20
-12.4085
10
168.8656
20
-12.5024
10
168.8751
20
-12.5999
10
168.8751
20
-25.4993
10
168.8656
20
-25.5967
10
168.8370
20
-25.6918
10
168.7907
20
-25.7774
10
168.7289
20
-25.8535
10
168.6528
20
-25.9165
10
168.5660
20
-25.9617
10
168.4733
20
-25.9902
10
168.3746
20
-25.9997
10
155.4740
20
-25.9997
10
155.3778
20
-25.9902
10
155.2838
20
-25.9617
10
155.1971
20
-25.9165
10
155.1210
20
-25.8535
10
155.0592
20
-25.7774
10
155.0128
20
-25.6918
10
154.9843
20
-25.5967
10
154.9748
20
-25.4993
10
154.9748
20
-12.5999
10
154.9843
20
-12.5024
10
155.0128
20
-12.4085
10
155.0592
20
-12.3217
10
155.1210
20
-12.2468
10
155.1971
20
-12.1838
10
155.2838
20
-12.1375
10
155.3778
20
-12.1101
0
LWPOLYLINE
5
12F
330
1F
100
AcDbEntity
8
0
100
AcDbPolyline
90
36
70
1
10
136.4257
20
-12.0994
10
149.3251
20
-12.0994
10
149.4225
20
-12.1101
10
149.5164
20
-12.1375
10
149.6032
20
-12.1838
10
149.6781
20
-12.2468
10
149.7411
20
-12.3217
10
149.7875
20
-12.4085
10
149.8148
20
-12.5024
10
149.8255
20
-12.5999
10
149.8255
20
-25.4993
10
149.8148
20
-25.5967
10
149.7875
20
-25.6918
10
149.7411
20
-25.7774
10
149.6781
20
-25.8535
10
149.6032
20
-25.9165
10
149.5164
20
-25.9617
10
149.4225
20
-25.9902
10
149.3251
20
-25.9997
10
136.4257
20
-25.9997
10
136.3270
20
-25.9902
10
136.2331
20
-25.9617
10
136.1463
20
-25.9165
10
136.0714
20
-25.8535
10
136.0084
20
-25.7774
10
135.9633
20
-25.6918
10
135.9347
20
-25.5967
10
135.9252
20
-25.4993
10
135.9252
20
-12.5999
10
135.9347
20
-12.5024
10
135.9633
20
-12.4085
10
136.0084
20
-12.3217
10
136.0714
20
-12.2468
10
136.1463
20
-12.1838
10
136.2331
20
-12.1375
10
136.3270
20
-12.1101
0
LWPOLYLINE
5
130
330
1F
100
AcDbEntity
8
0
100
AcDbPolyline
90
36
70
1
10
117.3749
20
-12.0994
10
130.2755
20
-12.0994
10
130.3730
20
-12.1101
10
130.4657
20
-12.1375
10
130.5524
20
-12.1838
10
130.6285
20
-12.2468
10
130.6903
20
-12.3217
10
130.7367
20
-12.4085
10
130.7652
20
-12.5024
10
130.7747
20
-12.5999
10
130.7747
20
-25.4993
10
130.7652
20
-25.5967
10
130.7367
20
-25.6918
10
130.6903
20
-25.7774
10
130.6285
20
-25.8535
10
130.5524
20
-25.9165
10
130.4657
20
-25.9617
10
130.3730
20
-25.9902
10
130.2755
20
-25.9997
10
117.3749
20
-25.9997
10
117.2774
20
-25.9902
10
117.1835
20
-25.9617
10
117.0979
20
-25.9165
10
117.0207
20
-25.8535
10
116.9600
20
-25.7774
10
116.9137
20
-25.6918
10
116.8840
20
-25.5967
10
116.8757
20
-25.4993
10
116.8757
20
-12.5999
10
116.8840
20
-12.5024
10
116.9137
20
-12.4085
10
116.9600
20
-12.3217
10
117.0207
20
-12.2468
10
117.0979
20
-12.1838
10
117.1835
20
-12.1375
10
117.2774
20
-12.1101
0
LWPOLYLINE
5
131
330
1F
100
AcDbEntity
8
0
100
AcDbPolyline
90
36
70
1
10
98.3253
20
-12.0994
10
111.2247
20
-12.0994
10
111.3222
20
-12.1101
10
111.4173
20
-12.1375
10
111.5029
20
-12.1838
10
111.5790
20
-12.2468
10
111.6408
20
-12.3217
10
111.6871
20
-12.4085
10
111.7156
20
-12.5024
10
111.7252
20
-12.5999
10
111.7252
20
-25.4993
10
111.7156
20
-25.5967
10
111.6871
20
-25.6918
10
111.6408
20
-25.7774
10
111.5790
20
-25.8535
10
111.5029
20
-25.9165
10
111.4173
20
-25.9617
10
111.3222
20
-25.9902
10
111.2247
20
-25.9997
10
98.3253
20
-25.9997
10
98.2278
20
-25.9902
10
98.1339
20
-25.9617
10
98.0472
20
-25.9165
10
97.9723
20
-25.8535
10
97.9093
20
-25.7774
10
97.8629
20
-25.6918
10
97.8356
20
-25.5967
10
97.8249
20
-25.4993
10
97.8249
20
-12.5999
10
97.8356
20
-12.5024
10
97.8629
20
-12.4085
10
97.9093
20
-12.3217
10
97.9723
20
-12.2468
10
98.0472
20
-12.1838
10
98.1339
20
-12.1375
10
98.2278
20
-12.1101
0
LWPOLYLINE
5
132
330
1F
100
AcDbEntity
8
0
100
AcDbPolyline
90
36
70
1
10
79.2746
20
-12.0994
10
92.1752
20
-12.0994
10
92.2726
20
-12.1101
10
92.3665
20
-12.1375
10
92.4533
20
-12.1838
10
92.5282
20
-12.2468
10
92.5912
20
-12.3217
10
92.6364
20
-12.4085
10
92.6649
20
-12.5024
10
92.6744
20
-12.5999
10
92.6744
20
-25.4993
10
92.6649
20
-25.5967
10
92.6364
20
-25.6918
10
92.5912
20
-25.7774
10
92.5282
20
-25.8535
10
92.4533
20
-25.9165
10
92.3665
20
-25.9617
10
92.2726
20
-25.9902
10
92.1752
20
-25.9997
10
79.2746
20
-25.9997
10
79.1771
20
-25.9902
10
79.0844
20
-25.9617
10
78.9964
20
-25.9165
10
78.9215
20
-25.8535
10
78.8597
20
-25.7774
10
78.8122
20
-25.6918
10
78.7848
20
-25.5967
10
78.7741
20
-25.4993
10
78.7741
20
-12.5999
10
78.7848
20
-12.5024
10
78.8122
20
-12.4085
10
78.8597
20
-12.3217
10
78.9215
20
-12.2468
10
78.9964
20
-12.1838
10
79.0844
20
-12.1375
10
79.1771
20
-12.1101
0
LWPOLYLINE
5
133
330
1F
100
AcDbEntity
8
0
100
AcDbPolyline
90
36
70
1
10
60.2250
20
-12.0994
10
73.1256
20
-12.0994
10
73.2231
20
-12.1101
10
73.3158
20
-12.1375
10
73.4025
20
-12.1838
10
73.4786
20
-12.2468
10
73.5404
20
-12.3217
10
73.5868
20
-12.4085
10
73.6153
20
-12.5024
10
73.6248
20
-12.5999
10
73.6248
20
-25.4993
10
73.6153
20
-25.5967
10
73.5868
20
-25.6918
10
73.5404
20
-25.7774
10
73.4786
20
-25.8535
10
73.4025
20
-25.9165
10
73.3158
20
-25.9617
10
73.2231
20
-25.9902
10
73.1256
20
-25.9997
10
60.2250
20
-25.9997
10
60.1275
20
-25.9902
10
60.0336
20
-25.9617
10
59.9468
20
-25.9165
10
59.8708
20
-25.8535
10
59.8090
20
-25.7774
10
59.7638
20
-25.6918
10
59.7341
20
-25.5967
10
59.7257
20
-25.4993
10
59.7257
20
-12.5999
10
59.7341
20
-12.5024
10
59.7638
20
-12.4085
10
59.8090
20
-12.3217
10
59.8708
20
-12.2468
10
59.9468
20
-12.1838
10
60.0336
20
-12.1375
10
60.1275
20
-12.1101
0
LWPOLYLINE
5
134
330
1F
100
AcDbEntity
8
0
100
AcDbPolyline
90
36
70
1
10
41.1754
20
-12.0994
10
54.0748
20
-12.0994
10
54.1723
20
-12.1101
10
54.2662
20
-12.1375
10
54.3530
20
-12.1838
10
54.4279
20
-12.2468
10
54.4909
20
-12.3217
10
54.5372
20
-12.4085
10
54.5646
20
-12.5024
10
54.5753
20
-12.5999
10
54.5753
20
-25.4993
10
54.5646
20
-25.5967
10
54.5372
20
-25.6918
10
54.4909
20
-25.7774
10
54.4279
20
-25.8535
10
54.3530
20
-25.9165
10
54.2662
20
-25.9617
10
54.1723
20
-25.9902
10
54.0748
20
-25.9997
10
41.1754
20
-25.9997
10
41.0779
20
-25.9902
10
40.9828
20
-25.9617
10
40.8973
20
-25.9165
10
40.8212
20
-25.8535
10
40.7594
20
-25.7774
10
40.7130
20
-25.6918
10
40.6845
20
-25.5967
10
40.6750
20
-25.4993
10
40.6750
20
-12.5999
10
40.6845
20
-12.5024
10
40.7130
20
-12.4085
10
40.7594
20
-12.3217
10
40.8212
20
-12.2468
10
40.8973
20
-12.1838
10
40.9828
20
-12.1375
10
41.0779
20
-12.1101
0
LWPOLYLINE
5
135
330
1F
100
AcDbEntity
8
0
100
AcDbPolyline
90
36
70
1
10
22.1247
20
-12.0994
10
35.0253
20
-12.0994
10
35.1227
20
-12.1101
10
35.2166
20
-12.1375
10
35.3022
20
-12.1838
10
35.3795
20
-12.2468
10
35.4401
20
-12.3217
10
35.4865
20
-12.4085
10
35.5162
20
-12.5024
10
35.5245
20
-12.5999
10
35.5245
20
-25.4993
10
35.5162
20
-25.5967
10
35.4865
20
-25.6918
10
35.4401
20
-25.7774
10
35.3795
20
-25.8535
10
35.3022
20
-25.9165
10
35.2166
20
-25.9617
10
35.1227
20
-25.9902
10
35.0253
20
-25.9997
10
22.1247
20
-25.9997
10
22.0272
20
-25.9902
10
21.9345
20
-25.9617
10
21.8477
20
-25.9165
10
21.7716
20
-25.8535
10
21.7098
20
-25.7774
10
21.6635
20
-25.6918
10
21.6349
20
-25.5967
10
21.6254
20
-25.4993
10
21.6254
20
-12.5999
10
21.6349
20
-12.5024
10
21.6635
20
-12.4085
10
21.7098
20
-12.3217
10
21.7716
20
-12.2468
10
21.8477
20
-12.1838
10
21.9345
20
-12.1375
10
22.0272
20
-12.1101
0
LWPOLYLINE
5
136
330
1F
100
AcDbEntity
8
0
100
AcDbPolyline
90
36
70
1
10
16.4749
20
-31.6506
10
16.4749
20
-44.5500
10
16.4654
20
-44.6475
10
16.4369
20
-44.7414
10
16.3905
20
-44.8270
10
16.3287
20
-44.9031
10
16.2538
20
-44.9649
10
16.1671
20
-45.0124
10
16.0732
20
-45.0410
10
15.9745
20
-45.0505
10
3.0751
20
-45.0505
10
2.9776
20
-45.0410
10
2.8837
20
-45.0124
10
2.7969
20
-44.9649
10
2.7220
20
-44.9031
10
2.6590
20
-44.8270
10
2.6127
20
-44.7414
10
2.5854
20
-44.6475
10
2.5747
20
-44.5500
10
2.5747
20
-31.6506
10
2.5854
20
-31.5532
10
2.6127
20
-31.4581
10
2.6590
20
-31.3725
10
2.7220
20
-31.2964
10
2.7969
20
-31.2346
10
2.8837
20
-31.1882
10
2.9776
20
-31.1585
10
3.0751
20
-31.1502
10
15.9745
20
-31.1502
10
16.0732
20
-31.1585
10
16.1671
20
-31.1882
10
16.2538
20
-31.2346
10
16.3287
20
-31.2964
10
16.3905
20
-31.3725
10
16.4369
20
-31.4581
10
16.4654
20
-31.5532
0
LWPOLYLINE
5
137
330
1F
100
AcDbEntity
8
0
100
AcDbPolyline
90
36
70
1
10
231.6747
20
-31.1502
10
244.5753
20
-31.1502
10
244.6728
20
-31.1585
10
244.7667
20
-31.1882
10
244.8534
20
-31.2346
10
244.9283
20
-31.2964
10
244.9913
20
-31.3725
10
245.0365
20
-31.4581
10
245.0650
20
-31.5532
10
245.0757
20
-31.6506
10
245.0757
20
-44.5500
10
245.0650
20
-44.6475
10
245.0365
20
-44.7414
10
244.9913
20
-44.8270
10
244.9283
20
-44.9031
10
244.8534
20
-44.9649
10
244.7667
20
-45.0124
10
244.6728
20
-45.0410
10
244.5753
20
-45.0505
10
231.6747
20
-45.0505
10
231.5772
20
-45.0410
10
231.4833
20
-45.0124
10
231.3966
20
-44.9649
10
231.3217
20
-44.9031
10
231.2587
20
-44.8270
10
231.2123
20
-44.7414
10
231.1850
20
-44.6475
10
231.1743
20
-44.5500
10
231.1743
20
-31.6506
10
231.1850
20
-31.5532
10
231.2123
20
-31.4581
10
231.2587
20
-31.3725
10
231.3217
20
-31.2964
10
231.3966
20
-31.2346
10
231.4833
20
-31.1882
10
231.5772
20
-31.1585
0
LWPOLYLINE
5
138
330
1F
100
AcDbEntity
8
0
100
AcDbPolyline
90
36
70
1
10
1.0365
20
-32.6503
10
1.0365
20
-46.5494
10
1.0282
20
-46.6468
10
0.9985
20
-46.7419
10
0.9521
20
-46.8275
10
0.8903
20
-46.9024
10
0.8142
20
-46.9654
10
0.7287
20
-47.0118
10
0.6347
20
-47.0403
10
0.5373
20
-47.0498
10
-5.3633
20
-47.0498
10
-5.4607
20
-47.0403
10
-5.5535
20
-47.0118
10
-5.6402
20
-46.9654
10
-5.7163
20
-46.9024
10
-5.7781
20
-46.8275
10
-5.8257
20
-46.7419
10
-5.8530
20
-46.6468
10
-5.8637
20
-46.5494
10
-5.8637
20
-32.6503
10
-5.8530
20
-32.5528
10
-5.8257
20
-32.4589
10
-5.7781
20
-32.3721
10
-5.7163
20
-32.2973
10
-5.6402
20
-32.2343
10
-5.5535
20
-32.1879
10
-5.4607
20
-32.1594
10
-5.3633
20
-32.1499
10
0.5373
20
-32.1499
10
0.6347
20
-32.1594
10
0.7287
20
-32.1879
10
0.8142
20
-32.2343
10
0.8903
20
-32.2973
10
0.9521
20
-32.3721
10
0.9985
20
-32.4589
10
1.0282
20
-32.5528
0
LWPOLYLINE
5
139
330
1F
100
AcDbEntity
8
0
100
AcDbPolyline
90
36
70
1
10
247.1131
20
-32.1499
10
253.0136
20
-32.1499
10
253.1111
20
-32.1594
10
253.2038
20
-32.1879
10
253.2906
20
-32.2343
10
253.3667
20
-32.2973
10
253.4285
20
-32.3721
10
253.4760
20
-32.4589
10
253.5034
20
-32.5528
10
253.5129
20
-32.6503
10
253.5129
20
-46.5494
10
253.5034
20
-46.6468
10
253.4760
20
-46.7419
10
253.4285
20
-46.8275
10
253.3667
20
-46.9024
10
253.2906
20
-46.9654
10
253.2038
20
-47.0118
10
253.1111
20
-47.0403
10
253.0136
20
-47.0498
10
247.1131
20
-47.0498
10
247.0156
20
-47.0403
10
246.9217
20
-47.0118
10
246.8361
20
-46.9654
10
246.7589
20
-46.9024
10
246.6971
20
-46.8275
10
246.6507
20
-46.7419
10
246.6222
20
-46.6468
10
246.6139
20
-46.5494
10
246.6139
20
-32.6503
10
246.6222
20
-32.5528
10
246.6507
20
-32.4589
10
246.6971
20
-32.3721
10
246.7589
20
-32.2973
10
246.8361
20
-32.2343
10
246.9217
20
-32.1879
10
247.0156
20
-32.1594
0
LWPOLYLINE
5
13A
330
1F
100
AcDbEntity
8
0
100
AcDbPolyline
90
36
70
1
10
223.2364
20
-32.1499
10
229.1369
20
-32.1499
10
229.2344
20
-32.1594
10
229.3283
20
-32.1879
10
229.4150
20
-32.2343
10
229.4911
20
-32.2973
10
229.5517
20
-32.3721
10
229.5993
20
-32.4589
10
229.6278
20
-32.5528
10
229.6373
20
-32.6503
10
229.6373
20
-46.5494
10
229.6278
20
-46.6468
10
229.5993
20
-46.7419
10
229.5517
20
-46.8275
10
229.4911
20
-46.9024
10
229.4150
20
-46.9654
10
229.3283
20
-47.0118
10
229.2344
20
-47.0403
10
229.1369
20
-47.0498
10
223.2364
20
-47.0498
10
223.1389
20
-47.0403
10
223.0462
20
-47.0118
10
222.9594
20
-46.9654
10
222.8833
20
-46.9024
10
222.8215
20
-46.8275
10
222.7752
20
-46.7419
10
222.7466
20
-46.6468
10
222.7371
20
-46.5494
10
222.7371
20
-32.6503
10
222.7466
20
-32.5528
10
222.7752
20
-32.4589
10
222.8215
20
-32.3721
10
222.8833
20
-32.2973
10
222.9594
20
-32.2343
10
223.0462
20
-32.1879
10
223.1389
20
-32.1594
0
LWPOLYLINE
5
13B
330
1F
100
AcDbEntity
8
0
100
AcDbPolyline
90
36
70
1
10
18.5135
20
-32.1499
10
24.4128
20
-32.1499
10
24.5103
20
-32.1594
10
24.6042
20
-32.1879
10
24.6910
20
-32.2343
10
24.7671
20
-32.2973
10
24.8289
20
-32.3721
10
24.8752
20
-32.4589
10
24.9038
20
-32.5528
10
24.9133
20
-32.6503
10
24.9133
20
-46.5494
10
24.9038
20
-46.6468
10
24.8752
20
-46.7419
10
24.8289
20
-46.8275
10
24.7671
20
-46.9024
10
24.6910
20
-46.9654
10
24.6042
20
-47.0118
10
24.5103
20
-47.0403
10
24.4128
20
-47.0498
10
18.5135
20
-47.0498
10
18.4148
20
-47.0403
10
18.3221
20
-47.0118
10
18.2353
20
-46.9654
10
18.1593
20
-46.9024
10
18.0975
20
-46.8275
10
18.0511
20
-46.7419
10
18.0226
20
-46.6468
10
18.0131
20
-46.5494
10
18.0131
20
-32.6503
10
18.0226
20
-32.5528
10
18.0511
20
-32.4589
10
18.0975
20
-32.3721
10
18.1593
20
-32.2973
10
18.2353
20
-32.2343
10
18.3221
20
-32.1879
10
18.4148
20
-32.1594
0
ENDSEC
0
SECTION
2
OBJECTS
0
DICTIONARY
5
C
330
0
100
AcDbDictionary
281
1
3
ACAD_GROUP
350
D
0
DICTIONARY
5
D
330
C
100
AcDbDictionary
281
1
0
ENDSEC
0
EOF
