M48
; DRILL file {KiCad 9.0.0} date 2026-05-10T02:31:47+0900
; FORMAT={-:-/ absolute / metric / decimal}
; #@! TF.CreationDate,2026-05-10T02:31:47+09:00
; #@! TF.GenerationSoftware,Kicad,Pcbnew,9.0.0
; #@! TF.FileFunction,Plated,1,2,PTH
FMAT,2
METRIC
; #@! TA.AperFunction,Plated,PTH,ComponentDrill
T1C1.000
; #@! TA.AperFunction,Plated,PTH,ComponentDrill
T2C1.500
%
G90
G05
T1
X34.563Y-74.95
X34.563Y-84.95
X40.063Y-36.95
X40.063Y-47.45
T2
X21.523Y-28.53
X21.523Y-85.68
X26.285Y-47.58
X27.873Y-25.99
X27.873Y-83.14
X31.048Y-66.63
X32.635Y-45.04
X37.398Y-64.09
X40.573Y-28.53
X42.954Y-85.68
X46.923Y-25.99
X49.304Y-83.14
X50.098Y-47.58
X56.448Y-45.04
X59.623Y-28.53
X59.623Y-66.63
X65.973Y-25.99
X65.973Y-64.09
X66.766Y-85.68
X69.148Y-47.58
X73.116Y-83.14
X75.498Y-45.04
X78.673Y-28.53
X78.673Y-66.63
X85.023Y-25.99
X85.023Y-64.09
X88.198Y-47.58
X94.548Y-45.04
X97.723Y-28.53
X97.723Y-66.63
X104.073Y-25.99
X104.073Y-64.09
X104.866Y-85.68
X107.248Y-47.58
X111.216Y-83.14
X113.598Y-45.04
X116.773Y-28.53
X116.773Y-66.63
X123.123Y-25.99
X123.123Y-64.09
X126.298Y-47.58
X132.648Y-45.04
X135.823Y-28.53
X135.823Y-66.63
X140.585Y-85.68
X142.173Y-25.99
X142.173Y-64.09
X145.348Y-47.58
X146.935Y-83.14
X151.698Y-45.04
X154.873Y-28.53
X154.873Y-66.63
X161.223Y-25.99
X161.223Y-64.09
X164.398Y-47.58
X170.748Y-45.04
X173.923Y-28.53
X173.923Y-66.63
X176.304Y-85.68
X180.273Y-25.99
X180.273Y-64.09
X182.654Y-83.14
X183.448Y-47.58
X189.798Y-45.04
X192.973Y-28.53
X192.973Y-66.63
X199.323Y-25.99
X199.323Y-64.09
X202.498Y-47.58
X208.848Y-45.04
X212.023Y-28.53
X212.023Y-66.63
X212.023Y-85.68
X218.373Y-25.99
X218.373Y-64.09
X218.373Y-83.14
X221.548Y-47.58
X227.898Y-45.04
X231.073Y-28.53
X231.073Y-66.63
X231.073Y-85.68
X237.423Y-25.99
X237.423Y-64.09
X237.423Y-83.14
X240.598Y-47.58
X246.948Y-45.04
X250.123Y-28.53
X250.123Y-85.68
X256.473Y-25.99
X256.473Y-83.14
X259.648Y-66.63
X264.41Y-47.58
X265.998Y-64.09
X269.173Y-28.53
X269.173Y-85.68
X270.76Y-45.04
X275.523Y-25.99
X275.523Y-83.14
M30
