0
SECTION
2
HEADER
9
$INSUNITS
70
4
0
ENDSEC
0
SECTION
2
TABLES
0
TABLE
2
LTYPE
0
LTYPE
72
65
70
0
2
CONTINUOUS
3
______
73
0
40
0
0
LTYPE
72
65
70
0
2
DASHED
3
_ _ _ 
73
2
40
7.5
49
5
49
-2.5
0
LTYPE
72
65
70
0
2
DOTTED
3
. . . 
73
2
40
1.5
49
0.5
49
-1
0
ENDTAB
0
TABLE
2
LAYER
0
ENDTAB
0
ENDSEC
0
SECTION
2
ENTITIES
0
POLYLINE
8
0
6
CONTINUOUS
66
1
70
1
0
VERTEX
8
0
10
-7
20
-6.5
42
0.4142136
0
VERTEX
8
0
10
-6.5
20
-7
0
VERTEX
8
0
10
6.5
20
-7
42
0.4142136
0
VERTEX
8
0
10
7
20
-6.5
0
VERTEX
8
0
10
7
20
6.5
42
0.4142136
0
VERTEX
8
0
10
6.5
20
7
0
VERTEX
8
0
10
-6.5
20
7
42
0.4142136
0
VERTEX
8
0
10
-7
20
6.5
0
SEQEND
0
POLYLINE
8
0
6
CONTINUOUS
66
1
70
1
0
VERTEX
8
0
10
-64.15
20
-25.55
42
0.4142136
0
VERTEX
8
0
10
-63.65
20
-26.05
0
VERTEX
8
0
10
-50.65
20
-26.05
42
0.4142136
0
VERTEX
8
0
10
-50.15
20
-25.55
0
VERTEX
8
0
10
-50.15
20
-12.55
42
0.4142136
0
VERTEX
8
0
10
-50.65
20
-12.05
0
VERTEX
8
0
10
-63.65
20
-12.05
42
0.4142136
0
VERTEX
8
0
10
-64.15
20
-12.55
0
SEQEND
0
POLYLINE
8
0
6
CONTINUOUS
66
1
70
1
0
VERTEX
8
0
10
-45.1
20
-25.55
42
0.4142136
0
VERTEX
8
0
10
-44.6
20
-26.05
0
VERTEX
8
0
10
-31.6
20
-26.05
42
0.4142136
0
VERTEX
8
0
10
-31.1
20
-25.55
0
VERTEX
8
0
10
-31.1
20
-12.55
42
0.4142136
0
VERTEX
8
0
10
-31.6
20
-12.05
0
VERTEX
8
0
10
-44.6
20
-12.05
42
0.4142136
0
VERTEX
8
0
10
-45.1
20
-12.55
0
SEQEND
0
POLYLINE
8
0
6
CONTINUOUS
66
1
70
1
0
VERTEX
8
0
10
-26.05
20
-25.55
42
0.4142136
0
VERTEX
8
0
10
-25.55
20
-26.05
0
VERTEX
8
0
10
-12.55
20
-26.05
42
0.4142136
0
VERTEX
8
0
10
-12.05
20
-25.55
0
VERTEX
8
0
10
-12.05
20
-12.55
42
0.4142136
0
VERTEX
8
0
10
-12.55
20
-12.05
0
VERTEX
8
0
10
-25.55
20
-12.05
42
0.4142136
0
VERTEX
8
0
10
-26.05
20
-12.55
0
SEQEND
0
POLYLINE
8
0
6
CONTINUOUS
66
1
70
1
0
VERTEX
8
0
10
-7
20
-35.075
42
0.4142136
0
VERTEX
8
0
10
-6.5
20
-35.575
0
VERTEX
8
0
10
6.5
20
-35.575
42
0.4142136
0
VERTEX
8
0
10
7
20
-35.075
0
VERTEX
8
0
10
7
20
-22.075
42
0.4142136
0
VERTEX
8
0
10
6.5
20
-21.575
0
VERTEX
8
0
10
-6.5
20
-21.575
42
0.4142136
0
VERTEX
8
0
10
-7
20
-22.075
0
SEQEND
0
POLYLINE
8
0
6
CONTINUOUS
66
1
70
1
0
VERTEX
8
0
10
-64.15
20
-44.6
42
0.4142136
0
VERTEX
8
0
10
-63.65
20
-45.1
0
VERTEX
8
0
10
-50.65
20
-45.1
42
0.4142136
0
VERTEX
8
0
10
-50.15
20
-44.6
0
VERTEX
8
0
10
-50.15
20
-31.6
42
0.4142136
0
VERTEX
8
0
10
-50.65
20
-31.1
0
VERTEX
8
0
10
-63.65
20
-31.1
42
0.4142136
0
VERTEX
8
0
10
-64.15
20
-31.6
0
SEQEND
0
POLYLINE
8
0
6
CONTINUOUS
66
1
70
1
0
VERTEX
8
0
10
-45.1
20
-44.6
42
0.4142136
0
VERTEX
8
0
10
-44.6
20
-45.1
0
VERTEX
8
0
10
-31.6
20
-45.1
42
0.4142136
0
VERTEX
8
0
10
-31.1
20
-44.6
0
VERTEX
8
0
10
-31.1
20
-31.6
42
0.4142136
0
VERTEX
8
0
10
-31.6
20
-31.1
0
VERTEX
8
0
10
-44.6
20
-31.1
42
0.4142136
0
VERTEX
8
0
10
-45.1
20
-31.6
0
SEQEND
0
POLYLINE
8
0
6
CONTINUOUS
66
1
70
1
0
VERTEX
8
0
10
-26.05
20
-44.6
42
0.4142136
0
VERTEX
8
0
10
-25.55
20
-45.1
0
VERTEX
8
0
10
-12.55
20
-45.1
42
0.4142136
0
VERTEX
8
0
10
-12.05
20
-44.6
0
VERTEX
8
0
10
-12.05
20
-31.6
42
0.4142136
0
VERTEX
8
0
10
-12.55
20
-31.1
0
VERTEX
8
0
10
-25.55
20
-31.1
42
0.4142136
0
VERTEX
8
0
10
-26.05
20
-31.6
0
SEQEND
0
POLYLINE
8
0
6
CONTINUOUS
66
1
70
1
0
VERTEX
8
0
10
-64.15
20
-63.65
42
0.4142136
0
VERTEX
8
0
10
-63.65
20
-64.15
0
VERTEX
8
0
10
-50.65
20
-64.15
42
0.4142136
0
VERTEX
8
0
10
-50.15
20
-63.65
0
VERTEX
8
0
10
-50.15
20
-50.65
42
0.4142136
0
VERTEX
8
0
10
-50.65
20
-50.15
0
VERTEX
8
0
10
-63.65
20
-50.15
42
0.4142136
0
VERTEX
8
0
10
-64.15
20
-50.65
0
SEQEND
0
POLYLINE
8
0
6
CONTINUOUS
66
1
70
1
0
VERTEX
8
0
10
-45.1
20
-63.65
42
0.4142136
0
VERTEX
8
0
10
-44.6
20
-64.15
0
VERTEX
8
0
10
-31.6
20
-64.15
42
0.4142136
0
VERTEX
8
0
10
-31.1
20
-63.65
0
VERTEX
8
0
10
-31.1
20
-50.65
42
0.4142136
0
VERTEX
8
0
10
-31.6
20
-50.15
0
VERTEX
8
0
10
-44.6
20
-50.15
42
0.4142136
0
VERTEX
8
0
10
-45.1
20
-50.65
0
SEQEND
0
POLYLINE
8
0
6
CONTINUOUS
66
1
70
1
0
VERTEX
8
0
10
-26.05
20
-63.65
42
0.4142136
0
VERTEX
8
0
10
-25.55
20
-64.15
0
VERTEX
8
0
10
-12.55
20
-64.15
42
0.4142136
0
VERTEX
8
0
10
-12.05
20
-63.65
0
VERTEX
8
0
10
-12.05
20
-50.65
42
0.4142136
0
VERTEX
8
0
10
-12.55
20
-50.15
0
VERTEX
8
0
10
-25.55
20
-50.15
42
0.4142136
0
VERTEX
8
0
10
-26.05
20
-50.65
0
SEQEND
0
POLYLINE
8
0
6
CONTINUOUS
66
1
70
1
0
VERTEX
8
0
10
-7
20
-73.175
42
0.4142136
0
VERTEX
8
0
10
-6.5
20
-73.675
0
VERTEX
8
0
10
6.5
20
-73.675
42
0.4142136
0
VERTEX
8
0
10
7
20
-73.175
0
VERTEX
8
0
10
7
20
-60.175
42
0.4142136
0
VERTEX
8
0
10
6.5
20
-59.675
0
VERTEX
8
0
10
-6.5
20
-59.675
42
0.4142136
0
VERTEX
8
0
10
-7
20
-60.175
0
SEQEND
0
POLYLINE
8
0
6
CONTINUOUS
66
1
70
1
0
VERTEX
8
0
10
-54.625
20
-82.7
42
0.4142136
0
VERTEX
8
0
10
-54.125
20
-83.2
0
VERTEX
8
0
10
-41.125
20
-83.2
42
0.4142136
0
VERTEX
8
0
10
-40.625
20
-82.7
0
VERTEX
8
0
10
-40.625
20
-69.7
42
0.4142136
0
VERTEX
8
0
10
-41.125
20
-69.2
0
VERTEX
8
0
10
-54.125
20
-69.2
42
0.4142136
0
VERTEX
8
0
10
-54.625
20
-69.7
0
SEQEND
0
POLYLINE
8
0
6
CONTINUOUS
66
1
70
1
0
VERTEX
8
0
10
-26.05
20
-82.7
42
0.4142136
0
VERTEX
8
0
10
-25.55
20
-83.2
0
VERTEX
8
0
10
-12.55
20
-83.2
42
0.4142136
0
VERTEX
8
0
10
-12.05
20
-82.7
0
VERTEX
8
0
10
-12.05
20
-69.7
42
0.4142136
0
VERTEX
8
0
10
-12.55
20
-69.2
0
VERTEX
8
0
10
-25.55
20
-69.2
42
0.4142136
0
VERTEX
8
0
10
-26.05
20
-69.7
0
SEQEND
0
POLYLINE
8
0
6
CONTINUOUS
66
1
70
1
0
VERTEX
8
0
10
-8.5
20
-13.137
42
0.4142136
0
VERTEX
8
0
10
-9
20
-13.637
0
VERTEX
8
0
10
-9
20
-19.637
42
0.4142136
0
VERTEX
8
0
10
-8.5
20
-20.137
0
VERTEX
8
0
10
5.5
20
-20.137
42
0.4142136
0
VERTEX
8
0
10
6
20
-19.637
0
VERTEX
8
0
10
6
20
-13.637
42
0.4142136
0
VERTEX
8
0
10
5.5
20
-13.137
0
SEQEND
0
POLYLINE
8
0
6
CONTINUOUS
66
1
70
1
0
VERTEX
8
0
10
-8.5
20
-37.013
42
0.4142136
0
VERTEX
8
0
10
-9
20
-37.513
0
VERTEX
8
0
10
-9
20
-43.513
42
0.4142136
0
VERTEX
8
0
10
-8.5
20
-44.013
0
VERTEX
8
0
10
5.5
20
-44.013
42
0.4142136
0
VERTEX
8
0
10
6
20
-43.513
0
VERTEX
8
0
10
6
20
-37.513
42
0.4142136
0
VERTEX
8
0
10
5.5
20
-37.013
0
SEQEND
0
POLYLINE
8
0
6
CONTINUOUS
66
1
70
1
0
VERTEX
8
0
10
-8.5
20
-51.237
42
0.4142136
0
VERTEX
8
0
10
-9
20
-51.737
0
VERTEX
8
0
10
-9
20
-57.737
42
0.4142136
0
VERTEX
8
0
10
-8.5
20
-58.237
0
VERTEX
8
0
10
5.5
20
-58.237
42
0.4142136
0
VERTEX
8
0
10
6
20
-57.737
0
VERTEX
8
0
10
6
20
-51.737
42
0.4142136
0
VERTEX
8
0
10
5.5
20
-51.237
0
SEQEND
0
POLYLINE
8
0
6
CONTINUOUS
66
1
70
1
0
VERTEX
8
0
10
-8.5
20
-75.113
42
0.4142136
0
VERTEX
8
0
10
-9
20
-75.613
0
VERTEX
8
0
10
-9
20
-81.613
42
0.4142136
0
VERTEX
8
0
10
-8.5
20
-82.113
0
VERTEX
8
0
10
5.5
20
-82.113
42
0.4142136
0
VERTEX
8
0
10
6
20
-81.613
0
VERTEX
8
0
10
6
20
-75.613
42
0.4142136
0
VERTEX
8
0
10
5.5
20
-75.113
0
SEQEND
0
POLYLINE
8
0
6
CONTINUOUS
66
1
70
1
0
VERTEX
8
0
10
-63.063
20
-84.7
42
0.4142136
0
VERTEX
8
0
10
-62.563
20
-85.2
0
VERTEX
8
0
10
-56.563
20
-85.2
42
0.4142136
0
VERTEX
8
0
10
-56.063
20
-84.7
0
VERTEX
8
0
10
-56.063
20
-70.7
42
0.4142136
0
VERTEX
8
0
10
-56.563
20
-70.2
0
VERTEX
8
0
10
-62.563
20
-70.2
42
0.4142136
0
VERTEX
8
0
10
-63.063
20
-70.7
0
SEQEND
0
POLYLINE
8
0
6
CONTINUOUS
66
1
70
1
0
VERTEX
8
0
10
-39.187
20
-84.7
42
0.4142136
0
VERTEX
8
0
10
-38.687
20
-85.2
0
VERTEX
8
0
10
-32.687
20
-85.2
42
0.4142136
0
VERTEX
8
0
10
-32.187
20
-84.7
0
VERTEX
8
0
10
-32.187
20
-70.7
42
0.4142136
0
VERTEX
8
0
10
-32.687
20
-70.2
0
VERTEX
8
0
10
-38.687
20
-70.2
42
0.4142136
0
VERTEX
8
0
10
-39.187
20
-70.7
0
SEQEND
0
POLYLINE
8
0
6
CONTINUOUS
66
1
70
1
0
VERTEX
8
0
10
-63.9
20
-88.95
42
0.1989125
0
VERTEX
8
0
10
-64.3393398
20
-87.8893398
42
0.1989125
0
VERTEX
8
0
10
-65.4
20
-87.45
42
0.1989125
0
VERTEX
8
0
10
-66.4606602
20
-87.8893398
42
0.1989125
0
VERTEX
8
0
10
-66.9
20
-88.95
42
0.1989125
0
VERTEX
8
0
10
-66.4606602
20
-90.0106602
42
0.1989125
0
VERTEX
8
0
10
-65.4
20
-90.45
42
0.1989125
0
VERTEX
8
0
10
-64.3393398
20
-90.0106602
42
0.1989125
0
SEQEND
0
POLYLINE
8
0
6
CONTINUOUS
66
1
70
1
0
VERTEX
8
0
10
9.75
20
-88.95
42
0.1989125
0
VERTEX
8
0
10
9.3106602
20
-87.8893398
42
0.1989125
0
VERTEX
8
0
10
8.25
20
-87.45
42
0.1989125
0
VERTEX
8
0
10
7.1893398
20
-87.8893398
42
0.1989125
0
VERTEX
8
0
10
6.75
20
-88.95
42
0.1989125
0
VERTEX
8
0
10
7.1893398
20
-90.0106602
42
0.1989125
0
VERTEX
8
0
10
8.25
20
-90.45
42
0.1989125
0
VERTEX
8
0
10
9.3106602
20
-90.0106602
42
0.1989125
0
SEQEND
0
POLYLINE
8
0
6
CONTINUOUS
66
1
70
1
0
VERTEX
8
0
10
-63.9
20
10.75
42
0.1989125
0
VERTEX
8
0
10
-64.3393398
20
11.8106602
42
0.1989125
0
VERTEX
8
0
10
-65.4
20
12.25
42
0.1989125
0
VERTEX
8
0
10
-66.4606602
20
11.8106602
42
0.1989125
0
VERTEX
8
0
10
-66.9
20
10.75
42
0.1989125
0
VERTEX
8
0
10
-66.4606602
20
9.6893398
42
0.1989125
0
VERTEX
8
0
10
-65.4
20
9.25
42
0.1989125
0
VERTEX
8
0
10
-64.3393398
20
9.6893398
42
0.1989125
0
SEQEND
0
POLYLINE
8
0
6
CONTINUOUS
66
1
70
1
0
VERTEX
8
0
10
9.75
20
10.75
42
0.1989125
0
VERTEX
8
0
10
9.3106602
20
11.8106602
42
0.1989125
0
VERTEX
8
0
10
8.25
20
12.25
42
0.1989125
0
VERTEX
8
0
10
7.1893398
20
11.8106602
42
0.1989125
0
VERTEX
8
0
10
6.75
20
10.75
42
0.1989125
0
VERTEX
8
0
10
7.1893398
20
9.6893398
42
0.1989125
0
VERTEX
8
0
10
8.25
20
9.25
42
0.1989125
0
VERTEX
8
0
10
9.3106602
20
9.6893398
42
0.1989125
0
SEQEND
0
POLYLINE
8
outline
6
CONTINUOUS
66
1
70
1
0
VERTEX
8
outline
10
-69.15
20
-92.2
42
0.4142136
0
VERTEX
8
outline
10
-68.65
20
-92.7
0
VERTEX
8
outline
10
11.5
20
-92.7
42
0.4142136
0
VERTEX
8
outline
10
12
20
-92.2
0
VERTEX
8
outline
10
12
20
14
42
0.4142136
0
VERTEX
8
outline
10
11.5
20
14.5
0
VERTEX
8
outline
10
-68.65
20
14.5
42
0.4142136
0
VERTEX
8
outline
10
-69.15
20
14
0
SEQEND
0
ENDSEC
0
EOF