<svg width="81.15mm" height="107.2mm" viewBox="0 0 81.15 107.2" xmlns="http://www.w3.org/2000/svg"><g id="svgGroup" stroke-linecap="round" fill-rule="evenodd" font-size="9pt" stroke="#000" stroke-width="0.25mm" fill="none" style="stroke:#000;stroke-width:0.25mm;fill:none"><path d="M 62.15 21 L 62.15 8 A 0.5 0.5 0 0 1 62.65 7.5 L 75.65 7.5 A 0.5 0.5 0 0 1 76.15 8 L 76.15 21 A 0.5 0.5 0 0 1 75.65 21.5 L 62.65 21.5 A 0.5 0.5 0 0 1 62.15 21 Z M 5 40.05 L 5 27.05 A 0.5 0.5 0 0 1 5.5 26.55 L 18.5 26.55 A 0.5 0.5 0 0 1 19 27.05 L 19 40.05 A 0.5 0.5 0 0 1 18.5 40.55 L 5.5 40.55 A 0.5 0.5 0 0 1 5 40.05 Z M 24.05 40.05 L 24.05 27.05 A 0.5 0.5 0 0 1 24.55 26.55 L 37.55 26.55 A 0.5 0.5 0 0 1 38.05 27.05 L 38.05 40.05 A 0.5 0.5 0 0 1 37.55 40.55 L 24.55 40.55 A 0.5 0.5 0 0 1 24.05 40.05 Z M 43.1 40.05 L 43.1 27.05 A 0.5 0.5 0 0 1 43.6 26.55 L 56.6 26.55 A 0.5 0.5 0 0 1 57.1 27.05 L 57.1 40.05 A 0.5 0.5 0 0 1 56.6 40.55 L 43.6 40.55 A 0.5 0.5 0 0 1 43.1 40.05 Z M 62.15 49.575 L 62.15 36.575 A 0.5 0.5 0 0 1 62.65 36.075 L 75.65 36.075 A 0.5 0.5 0 0 1 76.15 36.575 L 76.15 49.575 A 0.5 0.5 0 0 1 75.65 50.075 L 62.65 50.075 A 0.5 0.5 0 0 1 62.15 49.575 Z M 5 59.1 L 5 46.1 A 0.5 0.5 0 0 1 5.5 45.6 L 18.5 45.6 A 0.5 0.5 0 0 1 19 46.1 L 19 59.1 A 0.5 0.5 0 0 1 18.5 59.6 L 5.5 59.6 A 0.5 0.5 0 0 1 5 59.1 Z M 24.05 59.1 L 24.05 46.1 A 0.5 0.5 0 0 1 24.55 45.6 L 37.55 45.6 A 0.5 0.5 0 0 1 38.05 46.1 L 38.05 59.1 A 0.5 0.5 0 0 1 37.55 59.6 L 24.55 59.6 A 0.5 0.5 0 0 1 24.05 59.1 Z M 43.1 59.1 L 43.1 46.1 A 0.5 0.5 0 0 1 43.6 45.6 L 56.6 45.6 A 0.5 0.5 0 0 1 57.1 46.1 L 57.1 59.1 A 0.5 0.5 0 0 1 56.6 59.6 L 43.6 59.6 A 0.5 0.5 0 0 1 43.1 59.1 Z M 5 78.15 L 5 65.15 A 0.5 0.5 0 0 1 5.5 64.65 L 18.5 64.65 A 0.5 0.5 0 0 1 19 65.15 L 19 78.15 A 0.5 0.5 0 0 1 18.5 78.65 L 5.5 78.65 A 0.5 0.5 0 0 1 5 78.15 Z M 24.05 78.15 L 24.05 65.15 A 0.5 0.5 0 0 1 24.55 64.65 L 37.55 64.65 A 0.5 0.5 0 0 1 38.05 65.15 L 38.05 78.15 A 0.5 0.5 0 0 1 37.55 78.65 L 24.55 78.65 A 0.5 0.5 0 0 1 24.05 78.15 Z M 43.1 78.15 L 43.1 65.15 A 0.5 0.5 0 0 1 43.6 64.65 L 56.6 64.65 A 0.5 0.5 0 0 1 57.1 65.15 L 57.1 78.15 A 0.5 0.5 0 0 1 56.6 78.65 L 43.6 78.65 A 0.5 0.5 0 0 1 43.1 78.15 Z M 62.15 87.675 L 62.15 74.675 A 0.5 0.5 0 0 1 62.65 74.175 L 75.65 74.175 A 0.5 0.5 0 0 1 76.15 74.675 L 76.15 87.675 A 0.5 0.5 0 0 1 75.65 88.175 L 62.65 88.175 A 0.5 0.5 0 0 1 62.15 87.675 Z M 14.525 97.2 L 14.525 84.2 A 0.5 0.5 0 0 1 15.025 83.7 L 28.025 83.7 A 0.5 0.5 0 0 1 28.525 84.2 L 28.525 97.2 A 0.5 0.5 0 0 1 28.025 97.7 L 15.025 97.7 A 0.5 0.5 0 0 1 14.525 97.2 Z M 43.1 97.2 L 43.1 84.2 A 0.5 0.5 0 0 1 43.6 83.7 L 56.6 83.7 A 0.5 0.5 0 0 1 57.1 84.2 L 57.1 97.2 A 0.5 0.5 0 0 1 56.6 97.7 L 43.6 97.7 A 0.5 0.5 0 0 1 43.1 97.2 Z M 60.65 27.637 L 74.65 27.637 A 0.5 0.5 0 0 1 75.15 28.137 L 75.15 34.137 A 0.5 0.5 0 0 1 74.65 34.637 L 60.65 34.637 A 0.5 0.5 0 0 1 60.15 34.137 L 60.15 28.137 A 0.5 0.5 0 0 1 60.65 27.637 Z M 60.65 51.513 L 74.65 51.513 A 0.5 0.5 0 0 1 75.15 52.013 L 75.15 58.013 A 0.5 0.5 0 0 1 74.65 58.513 L 60.65 58.513 A 0.5 0.5 0 0 1 60.15 58.013 L 60.15 52.013 A 0.5 0.5 0 0 1 60.65 51.513 Z M 60.65 65.737 L 74.65 65.737 A 0.5 0.5 0 0 1 75.15 66.237 L 75.15 72.237 A 0.5 0.5 0 0 1 74.65 72.737 L 60.65 72.737 A 0.5 0.5 0 0 1 60.15 72.237 L 60.15 66.237 A 0.5 0.5 0 0 1 60.65 65.737 Z M 60.65 89.613 L 74.65 89.613 A 0.5 0.5 0 0 1 75.15 90.113 L 75.15 96.113 A 0.5 0.5 0 0 1 74.65 96.613 L 60.65 96.613 A 0.5 0.5 0 0 1 60.15 96.113 L 60.15 90.113 A 0.5 0.5 0 0 1 60.65 89.613 Z M 6.087 99.2 L 6.087 85.2 A 0.5 0.5 0 0 1 6.587 84.7 L 12.587 84.7 A 0.5 0.5 0 0 1 13.087 85.2 L 13.087 99.2 A 0.5 0.5 0 0 1 12.587 99.7 L 6.587 99.7 A 0.5 0.5 0 0 1 6.087 99.2 Z M 29.963 99.2 L 29.963 85.2 A 0.5 0.5 0 0 1 30.463 84.7 L 36.463 84.7 A 0.5 0.5 0 0 1 36.963 85.2 L 36.963 99.2 A 0.5 0.5 0 0 1 36.463 99.7 L 30.463 99.7 A 0.5 0.5 0 0 1 29.963 99.2 Z M 5.25 103.45 C 5.25 103.848 5.092 104.229 4.811 104.511 C 4.529 104.792 4.148 104.95 3.75 104.95 C 3.352 104.95 2.971 104.792 2.689 104.511 C 2.408 104.229 2.25 103.848 2.25 103.45 C 2.25 103.052 2.408 102.671 2.689 102.389 C 2.971 102.108 3.352 101.95 3.75 101.95 C 4.148 101.95 4.529 102.108 4.811 102.389 C 5.092 102.671 5.25 103.052 5.25 103.45 Z M 78.9 103.45 C 78.9 103.848 78.742 104.229 78.461 104.511 C 78.179 104.792 77.798 104.95 77.4 104.95 C 77.002 104.95 76.621 104.792 76.339 104.511 C 76.058 104.229 75.9 103.848 75.9 103.45 C 75.9 103.052 76.058 102.671 76.339 102.389 C 76.621 102.108 77.002 101.95 77.4 101.95 C 77.798 101.95 78.179 102.108 78.461 102.389 C 78.742 102.671 78.9 103.052 78.9 103.45 Z M 5.25 3.75 C 5.25 4.148 5.092 4.529 4.811 4.811 C 4.529 5.092 4.148 5.25 3.75 5.25 C 3.352 5.25 2.971 5.092 2.689 4.811 C 2.408 4.529 2.25 4.148 2.25 3.75 C 2.25 3.352 2.408 2.971 2.689 2.689 C 2.971 2.408 3.352 2.25 3.75 2.25 C 4.148 2.25 4.529 2.408 4.811 2.689 C 5.092 2.971 5.25 3.352 5.25 3.75 Z M 78.9 3.75 C 78.9 4.148 78.742 4.529 78.461 4.811 C 78.179 5.092 77.798 5.25 77.4 5.25 C 77.002 5.25 76.621 5.092 76.339 4.811 C 76.058 4.529 75.9 4.148 75.9 3.75 C 75.9 3.352 76.058 2.971 76.339 2.689 C 76.621 2.408 77.002 2.25 77.4 2.25 C 77.798 2.25 78.179 2.408 78.461 2.689 C 78.742 2.971 78.9 3.352 78.9 3.75 Z" vector-effect="non-scaling-stroke"/><path d="M 0 106.7 L 0 0.5 A 0.5 0.5 0 0 1 0.5 0 L 80.65 0 A 0.5 0.5 0 0 1 81.15 0.5 L 81.15 106.7 A 0.5 0.5 0 0 1 80.65 107.2 L 0.5 107.2 A 0.5 0.5 0 0 1 0 106.7 Z" id="outline" vector-effect="non-scaling-stroke"/></g></svg>