<svg width="275.65mm" height="87.15mm" viewBox="0 0 275.65 87.15" xmlns="http://www.w3.org/2000/svg"><g id="svgGroup" stroke-linecap="round" fill-rule="evenodd" font-size="9pt" stroke="#000" stroke-width="0.25mm" fill="none" style="stroke:#000;stroke-width:0.25mm;fill:none"><path d="M 7 20.5 L 7 7.5 A 0.5 0.5 0 0 1 7.5 7 L 20.5 7 A 0.5 0.5 0 0 1 21 7.5 L 21 20.5 A 0.5 0.5 0 0 1 20.5 21 L 7.5 21 A 0.5 0.5 0 0 1 7 20.5 Z M 26.05 20.5 L 26.05 7.5 A 0.5 0.5 0 0 1 26.55 7 L 39.55 7 A 0.5 0.5 0 0 1 40.05 7.5 L 40.05 20.5 A 0.5 0.5 0 0 1 39.55 21 L 26.55 21 A 0.5 0.5 0 0 1 26.05 20.5 Z M 45.1 20.5 L 45.1 7.5 A 0.5 0.5 0 0 1 45.6 7 L 58.6 7 A 0.5 0.5 0 0 1 59.1 7.5 L 59.1 20.5 A 0.5 0.5 0 0 1 58.6 21 L 45.6 21 A 0.5 0.5 0 0 1 45.1 20.5 Z M 64.15 20.5 L 64.15 7.5 A 0.5 0.5 0 0 1 64.65 7 L 77.65 7 A 0.5 0.5 0 0 1 78.15 7.5 L 78.15 20.5 A 0.5 0.5 0 0 1 77.65 21 L 64.65 21 A 0.5 0.5 0 0 1 64.15 20.5 Z M 83.2 20.5 L 83.2 7.5 A 0.5 0.5 0 0 1 83.7 7 L 96.7 7 A 0.5 0.5 0 0 1 97.2 7.5 L 97.2 20.5 A 0.5 0.5 0 0 1 96.7 21 L 83.7 21 A 0.5 0.5 0 0 1 83.2 20.5 Z M 102.25 20.5 L 102.25 7.5 A 0.5 0.5 0 0 1 102.75 7 L 115.75 7 A 0.5 0.5 0 0 1 116.25 7.5 L 116.25 20.5 A 0.5 0.5 0 0 1 115.75 21 L 102.75 21 A 0.5 0.5 0 0 1 102.25 20.5 Z M 121.3 20.5 L 121.3 7.5 A 0.5 0.5 0 0 1 121.8 7 L 134.8 7 A 0.5 0.5 0 0 1 135.3 7.5 L 135.3 20.5 A 0.5 0.5 0 0 1 134.8 21 L 121.8 21 A 0.5 0.5 0 0 1 121.3 20.5 Z M 140.35 20.5 L 140.35 7.5 A 0.5 0.5 0 0 1 140.85 7 L 153.85 7 A 0.5 0.5 0 0 1 154.35 7.5 L 154.35 20.5 A 0.5 0.5 0 0 1 153.85 21 L 140.85 21 A 0.5 0.5 0 0 1 140.35 20.5 Z M 159.4 20.5 L 159.4 7.5 A 0.5 0.5 0 0 1 159.9 7 L 172.9 7 A 0.5 0.5 0 0 1 173.4 7.5 L 173.4 20.5 A 0.5 0.5 0 0 1 172.9 21 L 159.9 21 A 0.5 0.5 0 0 1 159.4 20.5 Z M 178.45 20.5 L 178.45 7.5 A 0.5 0.5 0 0 1 178.95 7 L 191.95 7 A 0.5 0.5 0 0 1 192.45 7.5 L 192.45 20.5 A 0.5 0.5 0 0 1 191.95 21 L 178.95 21 A 0.5 0.5 0 0 1 178.45 20.5 Z M 197.5 20.5 L 197.5 7.5 A 0.5 0.5 0 0 1 198 7 L 211 7 A 0.5 0.5 0 0 1 211.5 7.5 L 211.5 20.5 A 0.5 0.5 0 0 1 211 21 L 198 21 A 0.5 0.5 0 0 1 197.5 20.5 Z M 216.55 20.5 L 216.55 7.5 A 0.5 0.5 0 0 1 217.05 7 L 230.05 7 A 0.5 0.5 0 0 1 230.55 7.5 L 230.55 20.5 A 0.5 0.5 0 0 1 230.05 21 L 217.05 21 A 0.5 0.5 0 0 1 216.55 20.5 Z M 235.6 20.5 L 235.6 7.5 A 0.5 0.5 0 0 1 236.1 7 L 249.1 7 A 0.5 0.5 0 0 1 249.6 7.5 L 249.6 20.5 A 0.5 0.5 0 0 1 249.1 21 L 236.1 21 A 0.5 0.5 0 0 1 235.6 20.5 Z M 254.65 20.5 L 254.65 7.5 A 0.5 0.5 0 0 1 255.15 7 L 268.15 7 A 0.5 0.5 0 0 1 268.65 7.5 L 268.65 20.5 A 0.5 0.5 0 0 1 268.15 21 L 255.15 21 A 0.5 0.5 0 0 1 254.65 20.5 Z M 11.763 39.55 L 11.763 26.55 A 0.5 0.5 0 0 1 12.263 26.05 L 25.263 26.05 A 0.5 0.5 0 0 1 25.763 26.55 L 25.763 39.55 A 0.5 0.5 0 0 1 25.263 40.05 L 12.263 40.05 A 0.5 0.5 0 0 1 11.763 39.55 Z M 35.575 39.55 L 35.575 26.55 A 0.5 0.5 0 0 1 36.075 26.05 L 49.075 26.05 A 0.5 0.5 0 0 1 49.575 26.55 L 49.575 39.55 A 0.5 0.5 0 0 1 49.075 40.05 L 36.075 40.05 A 0.5 0.5 0 0 1 35.575 39.55 Z M 54.625 39.55 L 54.625 26.55 A 0.5 0.5 0 0 1 55.125 26.05 L 68.125 26.05 A 0.5 0.5 0 0 1 68.625 26.55 L 68.625 39.55 A 0.5 0.5 0 0 1 68.125 40.05 L 55.125 40.05 A 0.5 0.5 0 0 1 54.625 39.55 Z M 73.675 39.55 L 73.675 26.55 A 0.5 0.5 0 0 1 74.175 26.05 L 87.175 26.05 A 0.5 0.5 0 0 1 87.675 26.55 L 87.675 39.55 A 0.5 0.5 0 0 1 87.175 40.05 L 74.175 40.05 A 0.5 0.5 0 0 1 73.675 39.55 Z M 92.725 39.55 L 92.725 26.55 A 0.5 0.5 0 0 1 93.225 26.05 L 106.225 26.05 A 0.5 0.5 0 0 1 106.725 26.55 L 106.725 39.55 A 0.5 0.5 0 0 1 106.225 40.05 L 93.225 40.05 A 0.5 0.5 0 0 1 92.725 39.55 Z M 111.775 39.55 L 111.775 26.55 A 0.5 0.5 0 0 1 112.275 26.05 L 125.275 26.05 A 0.5 0.5 0 0 1 125.775 26.55 L 125.775 39.55 A 0.5 0.5 0 0 1 125.275 40.05 L 112.275 40.05 A 0.5 0.5 0 0 1 111.775 39.55 Z M 130.825 39.55 L 130.825 26.55 A 0.5 0.5 0 0 1 131.325 26.05 L 144.325 26.05 A 0.5 0.5 0 0 1 144.825 26.55 L 144.825 39.55 A 0.5 0.5 0 0 1 144.325 40.05 L 131.325 40.05 A 0.5 0.5 0 0 1 130.825 39.55 Z M 149.875 39.55 L 149.875 26.55 A 0.5 0.5 0 0 1 150.375 26.05 L 163.375 26.05 A 0.5 0.5 0 0 1 163.875 26.55 L 163.875 39.55 A 0.5 0.5 0 0 1 163.375 40.05 L 150.375 40.05 A 0.5 0.5 0 0 1 149.875 39.55 Z M 168.925 39.55 L 168.925 26.55 A 0.5 0.5 0 0 1 169.425 26.05 L 182.425 26.05 A 0.5 0.5 0 0 1 182.925 26.55 L 182.925 39.55 A 0.5 0.5 0 0 1 182.425 40.05 L 169.425 40.05 A 0.5 0.5 0 0 1 168.925 39.55 Z M 187.975 39.55 L 187.975 26.55 A 0.5 0.5 0 0 1 188.475 26.05 L 201.475 26.05 A 0.5 0.5 0 0 1 201.975 26.55 L 201.975 39.55 A 0.5 0.5 0 0 1 201.475 40.05 L 188.475 40.05 A 0.5 0.5 0 0 1 187.975 39.55 Z M 207.025 39.55 L 207.025 26.55 A 0.5 0.5 0 0 1 207.525 26.05 L 220.525 26.05 A 0.5 0.5 0 0 1 221.025 26.55 L 221.025 39.55 A 0.5 0.5 0 0 1 220.525 40.05 L 207.525 40.05 A 0.5 0.5 0 0 1 207.025 39.55 Z M 226.075 39.55 L 226.075 26.55 A 0.5 0.5 0 0 1 226.575 26.05 L 239.575 26.05 A 0.5 0.5 0 0 1 240.075 26.55 L 240.075 39.55 A 0.5 0.5 0 0 1 239.575 40.05 L 226.575 40.05 A 0.5 0.5 0 0 1 226.075 39.55 Z M 249.888 39.55 L 249.888 26.55 A 0.5 0.5 0 0 1 250.388 26.05 L 263.388 26.05 A 0.5 0.5 0 0 1 263.888 26.55 L 263.888 39.55 A 0.5 0.5 0 0 1 263.388 40.05 L 250.388 40.05 A 0.5 0.5 0 0 1 249.888 39.55 Z M 16.525 58.6 L 16.525 45.6 A 0.5 0.5 0 0 1 17.025 45.1 L 30.025 45.1 A 0.5 0.5 0 0 1 30.525 45.6 L 30.525 58.6 A 0.5 0.5 0 0 1 30.025 59.1 L 17.025 59.1 A 0.5 0.5 0 0 1 16.525 58.6 Z M 45.1 58.6 L 45.1 45.6 A 0.5 0.5 0 0 1 45.6 45.1 L 58.6 45.1 A 0.5 0.5 0 0 1 59.1 45.6 L 59.1 58.6 A 0.5 0.5 0 0 1 58.6 59.1 L 45.6 59.1 A 0.5 0.5 0 0 1 45.1 58.6 Z M 64.15 58.6 L 64.15 45.6 A 0.5 0.5 0 0 1 64.65 45.1 L 77.65 45.1 A 0.5 0.5 0 0 1 78.15 45.6 L 78.15 58.6 A 0.5 0.5 0 0 1 77.65 59.1 L 64.65 59.1 A 0.5 0.5 0 0 1 64.15 58.6 Z M 83.2 58.6 L 83.2 45.6 A 0.5 0.5 0 0 1 83.7 45.1 L 96.7 45.1 A 0.5 0.5 0 0 1 97.2 45.6 L 97.2 58.6 A 0.5 0.5 0 0 1 96.7 59.1 L 83.7 59.1 A 0.5 0.5 0 0 1 83.2 58.6 Z M 102.25 58.6 L 102.25 45.6 A 0.5 0.5 0 0 1 102.75 45.1 L 115.75 45.1 A 0.5 0.5 0 0 1 116.25 45.6 L 116.25 58.6 A 0.5 0.5 0 0 1 115.75 59.1 L 102.75 59.1 A 0.5 0.5 0 0 1 102.25 58.6 Z M 121.3 58.6 L 121.3 45.6 A 0.5 0.5 0 0 1 121.8 45.1 L 134.8 45.1 A 0.5 0.5 0 0 1 135.3 45.6 L 135.3 58.6 A 0.5 0.5 0 0 1 134.8 59.1 L 121.8 59.1 A 0.5 0.5 0 0 1 121.3 58.6 Z M 140.35 58.6 L 140.35 45.6 A 0.5 0.5 0 0 1 140.85 45.1 L 153.85 45.1 A 0.5 0.5 0 0 1 154.35 45.6 L 154.35 58.6 A 0.5 0.5 0 0 1 153.85 59.1 L 140.85 59.1 A 0.5 0.5 0 0 1 140.35 58.6 Z M 159.4 58.6 L 159.4 45.6 A 0.5 0.5 0 0 1 159.9 45.1 L 172.9 45.1 A 0.5 0.5 0 0 1 173.4 45.6 L 173.4 58.6 A 0.5 0.5 0 0 1 172.9 59.1 L 159.9 59.1 A 0.5 0.5 0 0 1 159.4 58.6 Z M 178.45 58.6 L 178.45 45.6 A 0.5 0.5 0 0 1 178.95 45.1 L 191.95 45.1 A 0.5 0.5 0 0 1 192.45 45.6 L 192.45 58.6 A 0.5 0.5 0 0 1 191.95 59.1 L 178.95 59.1 A 0.5 0.5 0 0 1 178.45 58.6 Z M 197.5 58.6 L 197.5 45.6 A 0.5 0.5 0 0 1 198 45.1 L 211 45.1 A 0.5 0.5 0 0 1 211.5 45.6 L 211.5 58.6 A 0.5 0.5 0 0 1 211 59.1 L 198 59.1 A 0.5 0.5 0 0 1 197.5 58.6 Z M 216.55 58.6 L 216.55 45.6 A 0.5 0.5 0 0 1 217.05 45.1 L 230.05 45.1 A 0.5 0.5 0 0 1 230.55 45.6 L 230.55 58.6 A 0.5 0.5 0 0 1 230.05 59.1 L 217.05 59.1 A 0.5 0.5 0 0 1 216.55 58.6 Z M 245.125 58.6 L 245.125 45.6 A 0.5 0.5 0 0 1 245.625 45.1 L 258.625 45.1 A 0.5 0.5 0 0 1 259.125 45.6 L 259.125 58.6 A 0.5 0.5 0 0 1 258.625 59.1 L 245.625 59.1 A 0.5 0.5 0 0 1 245.125 58.6 Z M 7 77.65 L 7 64.65 A 0.5 0.5 0 0 1 7.5 64.15 L 20.5 64.15 A 0.5 0.5 0 0 1 21 64.65 L 21 77.65 A 0.5 0.5 0 0 1 20.5 78.15 L 7.5 78.15 A 0.5 0.5 0 0 1 7 77.65 Z M 28.431 77.65 L 28.431 64.65 A 0.5 0.5 0 0 1 28.931 64.15 L 41.931 64.15 A 0.5 0.5 0 0 1 42.431 64.65 L 42.431 77.65 A 0.5 0.5 0 0 1 41.931 78.15 L 28.931 78.15 A 0.5 0.5 0 0 1 28.431 77.65 Z M 52.244 77.65 L 52.244 64.65 A 0.5 0.5 0 0 1 52.744 64.15 L 65.744 64.15 A 0.5 0.5 0 0 1 66.244 64.65 L 66.244 77.65 A 0.5 0.5 0 0 1 65.744 78.15 L 52.744 78.15 A 0.5 0.5 0 0 1 52.244 77.65 Z M 123.681 77.65 L 123.681 64.65 A 0.5 0.5 0 0 1 124.181 64.15 L 137.181 64.15 A 0.5 0.5 0 0 1 137.681 64.65 L 137.681 77.65 A 0.5 0.5 0 0 1 137.181 78.15 L 124.181 78.15 A 0.5 0.5 0 0 1 123.681 77.65 Z M 195.119 77.65 L 195.119 64.65 A 0.5 0.5 0 0 1 195.619 64.15 L 208.619 64.15 A 0.5 0.5 0 0 1 209.119 64.65 L 209.119 77.65 A 0.5 0.5 0 0 1 208.619 78.15 L 195.619 78.15 A 0.5 0.5 0 0 1 195.119 77.65 Z M 216.55 77.65 L 216.55 64.65 A 0.5 0.5 0 0 1 217.05 64.15 L 230.05 64.15 A 0.5 0.5 0 0 1 230.55 64.65 L 230.55 77.65 A 0.5 0.5 0 0 1 230.05 78.15 L 217.05 78.15 A 0.5 0.5 0 0 1 216.55 77.65 Z M 235.6 77.65 L 235.6 64.65 A 0.5 0.5 0 0 1 236.1 64.15 L 249.1 64.15 A 0.5 0.5 0 0 1 249.6 64.65 L 249.6 77.65 A 0.5 0.5 0 0 1 249.1 78.15 L 236.1 78.15 A 0.5 0.5 0 0 1 235.6 77.65 Z M 254.65 77.65 L 254.65 64.65 A 0.5 0.5 0 0 1 255.15 64.15 L 268.15 64.15 A 0.5 0.5 0 0 1 268.65 64.65 L 268.65 77.65 A 0.5 0.5 0 0 1 268.15 78.15 L 255.15 78.15 A 0.5 0.5 0 0 1 254.65 77.65 Z M 8.087 60.6 L 8.087 46.6 A 0.5 0.5 0 0 1 8.587 46.1 L 14.587 46.1 A 0.5 0.5 0 0 1 15.087 46.6 L 15.087 60.6 A 0.5 0.5 0 0 1 14.587 61.1 L 8.587 61.1 A 0.5 0.5 0 0 1 8.087 60.6 Z M 31.963 60.6 L 31.963 46.6 A 0.5 0.5 0 0 1 32.463 46.1 L 38.463 46.1 A 0.5 0.5 0 0 1 38.963 46.6 L 38.963 60.6 A 0.5 0.5 0 0 1 38.463 61.1 L 32.463 61.1 A 0.5 0.5 0 0 1 31.963 60.6 Z M 236.687 60.6 L 236.687 46.6 A 0.5 0.5 0 0 1 237.187 46.1 L 243.187 46.1 A 0.5 0.5 0 0 1 243.687 46.6 L 243.687 60.6 A 0.5 0.5 0 0 1 243.187 61.1 L 237.187 61.1 A 0.5 0.5 0 0 1 236.687 60.6 Z M 260.563 60.6 L 260.563 46.6 A 0.5 0.5 0 0 1 261.063 46.1 L 267.063 46.1 A 0.5 0.5 0 0 1 267.563 46.6 L 267.563 60.6 A 0.5 0.5 0 0 1 267.063 61.1 L 261.063 61.1 A 0.5 0.5 0 0 1 260.563 60.6 Z M 77.181 79.65 L 77.181 65.65 A 0.5 0.5 0 0 1 77.681 65.15 L 83.681 65.15 A 0.5 0.5 0 0 1 84.181 65.65 L 84.181 79.65 A 0.5 0.5 0 0 1 83.681 80.15 L 77.681 80.15 A 0.5 0.5 0 0 1 77.181 79.65 Z M 177.181 79.65 L 177.181 65.65 A 0.5 0.5 0 0 1 177.681 65.15 L 183.681 65.15 A 0.5 0.5 0 0 1 184.181 65.65 L 184.181 79.65 A 0.5 0.5 0 0 1 183.681 80.15 L 177.681 80.15 A 0.5 0.5 0 0 1 177.181 79.65 Z M 5.25 83.4 C 5.25 83.798 5.092 84.179 4.811 84.461 C 4.529 84.742 4.148 84.9 3.75 84.9 C 3.352 84.9 2.971 84.742 2.689 84.461 C 2.408 84.179 2.25 83.798 2.25 83.4 C 2.25 83.002 2.408 82.621 2.689 82.339 C 2.971 82.058 3.352 81.9 3.75 81.9 C 4.148 81.9 4.529 82.058 4.811 82.339 C 5.092 82.621 5.25 83.002 5.25 83.4 Z M 273.4 83.4 C 273.4 83.798 273.242 84.179 272.961 84.461 C 272.679 84.742 272.298 84.9 271.9 84.9 C 271.502 84.9 271.121 84.742 270.839 84.461 C 270.558 84.179 270.4 83.798 270.4 83.4 C 270.4 83.002 270.558 82.621 270.839 82.339 C 271.121 82.058 271.502 81.9 271.9 81.9 C 272.298 81.9 272.679 82.058 272.961 82.339 C 273.242 82.621 273.4 83.002 273.4 83.4 Z M 5.25 3.75 C 5.25 4.148 5.092 4.529 4.811 4.811 C 4.529 5.092 4.148 5.25 3.75 5.25 C 3.352 5.25 2.971 5.092 2.689 4.811 C 2.408 4.529 2.25 4.148 2.25 3.75 C 2.25 3.352 2.408 2.971 2.689 2.689 C 2.971 2.408 3.352 2.25 3.75 2.25 C 4.148 2.25 4.529 2.408 4.811 2.689 C 5.092 2.971 5.25 3.352 5.25 3.75 Z M 273.4 3.75 C 273.4 4.148 273.242 4.529 272.961 4.811 C 272.679 5.092 272.298 5.25 271.9 5.25 C 271.502 5.25 271.121 5.092 270.839 4.811 C 270.558 4.529 270.4 4.148 270.4 3.75 C 270.4 3.352 270.558 2.971 270.839 2.689 C 271.121 2.408 271.502 2.25 271.9 2.25 C 272.298 2.25 272.679 2.408 272.961 2.689 C 273.242 2.971 273.4 3.352 273.4 3.75 Z M 120.275 43.051 C 120.275 43.449 120.117 43.831 119.836 44.112 C 119.554 44.393 119.173 44.551 118.775 44.551 C 118.377 44.551 117.996 44.393 117.714 44.112 C 117.433 43.831 117.275 43.449 117.275 43.051 C 117.275 42.653 117.433 42.272 117.714 41.991 C 117.996 41.709 118.377 41.551 118.775 41.551 C 119.173 41.551 119.554 41.709 119.836 41.991 C 120.117 42.272 120.275 42.653 120.275 43.051 Z M 158.375 43.051 C 158.375 43.449 158.217 43.831 157.936 44.112 C 157.654 44.393 157.273 44.551 156.875 44.551 C 156.477 44.551 156.096 44.393 155.814 44.112 C 155.533 43.831 155.375 43.449 155.375 43.051 C 155.375 42.653 155.533 42.272 155.814 41.991 C 156.096 41.709 156.477 41.551 156.875 41.551 C 157.273 41.551 157.654 41.709 157.936 41.991 C 158.217 42.272 158.375 42.653 158.375 43.051 Z" vector-effect="non-scaling-stroke"/><path d="M 0 86.65 L 0 0.5 A 0.5 0.5 0 0 1 0.5 0 L 275.15 0 A 0.5 0.5 0 0 1 275.65 0.5 L 275.65 86.65 A 0.5 0.5 0 0 1 275.15 87.15 L 0.5 87.15 A 0.5 0.5 0 0 1 0 86.65 Z" id="outline" vector-effect="non-scaling-stroke"/></g></svg>