M48
; DRILL file KiCad 10.0.3 date 2026-07-08T09:26:37
; FORMAT={-:-/ absolute / metric / decimal}
; #@! TF.CreationDate,2026-07-08T09:26:37+09:00
; #@! TF.GenerationSoftware,Kicad,Pcbnew,10.0.3
; #@! TF.FileFunction,MixedPlating,1,2
FMAT,2
METRIC
; #@! TA.AperFunction,Plated,PTH,ComponentDrill
T1C0.800
; #@! TA.AperFunction,Plated,PTH,ComponentDrill
T2C1.000
; #@! TA.AperFunction,NonPlated,NPTH,ComponentDrill
T3C1.750
; #@! TA.AperFunction,NonPlated,NPTH,ComponentDrill
T4C3.048
; #@! TA.AperFunction,NonPlated,NPTH,ComponentDrill
T5C3.050
; #@! TA.AperFunction,NonPlated,NPTH,ComponentDrill
T6C3.988
; #@! TA.AperFunction,NonPlated,NPTH,ComponentDrill
T7C4.000
; #@! TA.AperFunction,NonPlated,NPTH,ComponentDrill
T8C5.400
%
G90
G05
T1
X-6.73Y4.0
X-6.73Y-15.05
X-6.73Y-72.2
X-4.349Y-34.1
X0.414Y-53.15
X0.89Y4.0
X0.89Y-15.05
X0.89Y-72.2
X3.271Y-34.1
X8.034Y-53.15
X12.32Y4.0
X12.32Y-15.05
X12.32Y-72.2
X17.082Y-34.1
X19.94Y4.0
X19.94Y-15.05
X19.94Y-72.2
X24.703Y-34.1
X26.607Y-53.15
X31.37Y4.0
X31.37Y-15.05
X33.751Y-72.2
X34.227Y-53.15
X36.133Y-34.1
X38.99Y4.0
X38.99Y-15.05
X41.371Y-72.2
X43.752Y-34.1
X45.657Y-53.15
X50.42Y4.0
X50.42Y-15.05
X53.277Y-53.15
X55.182Y-34.1
X58.04Y4.0
X58.04Y-15.05
X62.802Y-34.1
X64.707Y-53.15
X69.47Y4.0
X69.47Y-15.05
X72.328Y-53.15
X74.233Y-34.1
X77.09Y4.0
X77.09Y-15.05
X81.852Y-34.1
X83.757Y-53.15
X86.139Y-72.2
X88.52Y4.0
X88.52Y-15.05
X91.377Y-53.15
X93.282Y-34.1
X93.759Y-72.2
X96.14Y4.0
X96.14Y-15.05
X100.902Y-34.1
X102.807Y-53.15
X107.57Y4.0
X107.57Y-15.05
X110.427Y-53.15
X115.19Y4.0
X115.19Y-15.05
T2
X43.18Y12.0
X45.72Y12.0
X48.26Y12.0
X50.8Y12.0
X53.34Y12.0
X55.88Y12.0
X58.42Y12.0
X60.96Y12.0
X63.5Y12.0
X66.04Y12.0
X68.58Y12.0
X71.12Y12.0
T3
X-5.08Y0.0
X-5.08Y-19.05
X-5.08Y-76.2
X-2.699Y-38.1
X2.064Y-57.15
X5.08Y0.0
X5.08Y-19.05
X5.08Y-76.2
X7.461Y-38.1
X12.224Y-57.15
X13.97Y0.0
X13.97Y-19.05
X13.97Y-76.2
X18.732Y-38.1
X24.13Y0.0
X24.13Y-19.05
X24.13Y-76.2
X28.258Y-57.15
X28.892Y-38.1
X33.02Y0.0
X33.02Y-19.05
X35.401Y-76.2
X37.782Y-38.1
X38.417Y-57.15
X43.18Y0.0
X43.18Y-19.05
X45.561Y-76.2
X47.307Y-57.15
X47.942Y-38.1
X52.07Y0.0
X52.07Y-19.05
X56.832Y-38.1
X57.467Y-57.15
X62.23Y0.0
X62.23Y-19.05
X66.358Y-57.15
X66.992Y-38.1
X71.12Y0.0
X71.12Y-19.05
X75.882Y-38.1
X76.517Y-57.15
X81.28Y0.0
X81.28Y-19.05
X85.407Y-57.15
X86.042Y-38.1
X87.789Y-76.2
X90.17Y0.0
X90.17Y-19.05
X94.932Y-38.1
X95.567Y-57.15
X97.949Y-76.2
X100.33Y0.0
X100.33Y-19.05
X104.457Y-57.15
X105.093Y-38.1
X109.22Y0.0
X109.22Y-19.05
X114.617Y-57.15
X119.38Y0.0
X119.38Y-19.05
T4
X80.931Y-83.185
X104.807Y-83.185
T5
X-2.54Y-5.08
X-2.54Y-24.13
X-2.54Y-81.28
X-0.159Y-43.18
X3.81Y-2.54
X3.81Y-21.59
X3.81Y-78.74
X4.604Y-62.23
X6.191Y-40.64
X10.954Y-59.69
X16.51Y-5.08
X16.51Y-24.13
X16.51Y-81.28
X21.272Y-43.18
X22.86Y-2.54
X22.86Y-21.59
X22.86Y-78.74
X27.622Y-40.64
X30.797Y-62.23
X35.56Y-5.08
X35.56Y-24.13
X37.148Y-59.69
X37.941Y-81.28
X40.322Y-43.18
X41.91Y-2.54
X41.91Y-21.59
X44.291Y-78.74
X46.672Y-40.64
X49.847Y-62.23
X54.61Y-5.08
X54.61Y-24.13
X56.197Y-59.69
X59.372Y-43.18
X60.96Y-2.54
X60.96Y-21.59
X65.722Y-40.64
X68.897Y-62.23
X73.66Y-5.08
X73.66Y-24.13
X75.248Y-59.69
X78.422Y-43.18
X80.01Y-2.54
X80.01Y-21.59
X84.772Y-40.64
X87.947Y-62.23
X90.329Y-81.28
X92.71Y-5.08
X92.71Y-24.13
X94.297Y-59.69
X96.679Y-78.74
X97.472Y-43.18
X99.06Y-2.54
X99.06Y-21.59
X103.822Y-40.64
X106.997Y-62.23
X111.76Y-5.08
X111.76Y-24.13
X113.347Y-59.69
X118.11Y-2.54
X118.11Y-21.59
T6
X80.931Y-67.975
X104.807Y-67.975
T7
X0.0Y0.0
X0.0Y-19.05
X0.0Y-76.2
X2.381Y-38.1
X7.144Y-57.15
X19.05Y0.0
X19.05Y-19.05
X19.05Y-76.2
X23.812Y-38.1
X33.337Y-57.15
X38.1Y0.0
X38.1Y-19.05
X40.481Y-76.2
X42.862Y-38.1
X52.387Y-57.15
X57.15Y0.0
X57.15Y-19.05
X61.912Y-38.1
X71.438Y-57.15
X76.2Y0.0
X76.2Y-19.05
X80.962Y-38.1
X90.487Y-57.15
X92.869Y-76.2
X95.25Y0.0
X95.25Y-19.05
X100.012Y-38.1
X109.537Y-57.15
X114.3Y0.0
X114.3Y-19.05
T8
X-12.025Y12.025
X-12.025Y-38.1
X-12.025Y-88.225
X126.325Y12.025
X126.325Y-38.1
X126.325Y-88.225
M30
