%TF.GenerationSoftware,KiCad,Pcbnew,10.0.3*%
%TF.CreationDate,2026-07-08T09:26:37+09:00*%
%TF.ProjectId,keyboard,6b657962-6f61-4726-942e-6b696361645f,rev?*%
%TF.SameCoordinates,Original*%
%TF.FileFunction,Soldermask,Top*%
%TF.FilePolarity,Negative*%
%FSLAX46Y46*%
G04 Gerber Fmt 4.6, Leading zero omitted, Abs format (unit mm)*
G04 Created by KiCad (PCBNEW 10.0.3) date 2026-07-08 09:26:37*
%MOMM*%
%LPD*%
G01*
G04 APERTURE LIST*
%ADD10C,1.750000*%
%ADD11C,3.050000*%
%ADD12C,4.000000*%
%ADD13C,1.600000*%
%ADD14C,3.048000*%
%ADD15C,3.987800*%
%ADD16C,5.400000*%
%ADD17R,1.700000X1.700000*%
%ADD18C,1.700000*%
G04 APERTURE END LIST*
D10*
%TO.C,SW5*%
X81280000Y0D03*
D11*
X80010000Y-2540000D03*
D12*
X76200000Y0D03*
D11*
X73660000Y-5080000D03*
D10*
X71120000Y0D03*
%TD*%
%TO.C,SW21*%
X12223750Y-57150000D03*
D11*
X10953750Y-59690000D03*
D12*
X7143750Y-57150000D03*
D11*
X4603750Y-62230000D03*
D10*
X2063750Y-57150000D03*
%TD*%
D13*
%TO.C,D28*%
X19940000Y-72200000D03*
X12320000Y-72200000D03*
%TD*%
D14*
%TO.C,ST30*%
X104806750Y-83185000D03*
D15*
X104806750Y-67975000D03*
D14*
X80930750Y-83185000D03*
D15*
X80930750Y-67975000D03*
%TD*%
D10*
%TO.C,SW23*%
X57467500Y-57150000D03*
D11*
X56197500Y-59690000D03*
D12*
X52387500Y-57150000D03*
D11*
X49847500Y-62230000D03*
D10*
X47307500Y-57150000D03*
%TD*%
D16*
%TO.C,H5*%
X-12025000Y-38100000D03*
%TD*%
D10*
%TO.C,SW14*%
X119380000Y-19050000D03*
D11*
X118110000Y-21590000D03*
D12*
X114300000Y-19050000D03*
D11*
X111760000Y-24130000D03*
D10*
X109220000Y-19050000D03*
%TD*%
%TO.C,SW28*%
X24130000Y-76200000D03*
D11*
X22860000Y-78740000D03*
D12*
X19050000Y-76200000D03*
D11*
X16510000Y-81280000D03*
D10*
X13970000Y-76200000D03*
%TD*%
D13*
%TO.C,D20*%
X100902500Y-34100000D03*
X93282500Y-34100000D03*
%TD*%
D10*
%TO.C,SW6*%
X100330000Y0D03*
D11*
X99060000Y-2540000D03*
D12*
X95250000Y0D03*
D11*
X92710000Y-5080000D03*
D10*
X90170000Y0D03*
%TD*%
%TO.C,SW20*%
X105092500Y-38100000D03*
D11*
X103822500Y-40640000D03*
D12*
X100012500Y-38100000D03*
D11*
X97472500Y-43180000D03*
D10*
X94932500Y-38100000D03*
%TD*%
D13*
%TO.C,D11*%
X58040000Y-15050000D03*
X50420000Y-15050000D03*
%TD*%
%TO.C,D17*%
X43752500Y-34100000D03*
X36132500Y-34100000D03*
%TD*%
D10*
%TO.C,SW2*%
X24130000Y0D03*
D11*
X22860000Y-2540000D03*
D12*
X19050000Y0D03*
D11*
X16510000Y-5080000D03*
D10*
X13970000Y0D03*
%TD*%
%TO.C,SW8*%
X5080000Y-19050000D03*
D11*
X3810000Y-21590000D03*
D12*
X0Y-19050000D03*
D11*
X-2540000Y-24130000D03*
D10*
X-5080000Y-19050000D03*
%TD*%
%TO.C,SW17*%
X47942500Y-38100000D03*
D11*
X46672500Y-40640000D03*
D12*
X42862500Y-38100000D03*
D11*
X40322500Y-43180000D03*
D10*
X37782500Y-38100000D03*
%TD*%
D13*
%TO.C,D26*%
X110427500Y-53150000D03*
X102807500Y-53150000D03*
%TD*%
D16*
%TO.C,H3*%
X-12025000Y-88225000D03*
%TD*%
D13*
%TO.C,D14*%
X115190000Y-15050000D03*
X107570000Y-15050000D03*
%TD*%
%TO.C,D8*%
X890000Y-15050000D03*
X-6730000Y-15050000D03*
%TD*%
D10*
%TO.C,SW15*%
X7461250Y-38100000D03*
D11*
X6191250Y-40640000D03*
D12*
X2381250Y-38100000D03*
D11*
X-158750Y-43180000D03*
D10*
X-2698750Y-38100000D03*
%TD*%
D13*
%TO.C,D16*%
X24702500Y-34100000D03*
X17082500Y-34100000D03*
%TD*%
D10*
%TO.C,SW11*%
X62230000Y-19050000D03*
D11*
X60960000Y-21590000D03*
D12*
X57150000Y-19050000D03*
D11*
X54610000Y-24130000D03*
D10*
X52070000Y-19050000D03*
%TD*%
D16*
%TO.C,H6*%
X126325000Y-38100000D03*
%TD*%
D10*
%TO.C,SW24*%
X76517500Y-57150000D03*
D11*
X75247500Y-59690000D03*
D12*
X71437500Y-57150000D03*
D11*
X68897500Y-62230000D03*
D10*
X66357500Y-57150000D03*
%TD*%
D13*
%TO.C,D19*%
X81852500Y-34100000D03*
X74232500Y-34100000D03*
%TD*%
D10*
%TO.C,SW16*%
X28892500Y-38100000D03*
D11*
X27622500Y-40640000D03*
D12*
X23812500Y-38100000D03*
D11*
X21272500Y-43180000D03*
D10*
X18732500Y-38100000D03*
%TD*%
D13*
%TO.C,D5*%
X77090000Y4000000D03*
X69470000Y4000000D03*
%TD*%
%TO.C,D9*%
X19940000Y-15050000D03*
X12320000Y-15050000D03*
%TD*%
%TO.C,D15*%
X3271250Y-34100000D03*
X-4348750Y-34100000D03*
%TD*%
D16*
%TO.C,H1*%
X-12025000Y12025000D03*
%TD*%
D13*
%TO.C,D30*%
X93758750Y-72200000D03*
X86138750Y-72200000D03*
%TD*%
%TO.C,D4*%
X58040000Y4000000D03*
X50420000Y4000000D03*
%TD*%
%TO.C,D22*%
X34227500Y-53150000D03*
X26607500Y-53150000D03*
%TD*%
D10*
%TO.C,SW4*%
X62230000Y0D03*
D11*
X60960000Y-2540000D03*
D12*
X57150000Y0D03*
D11*
X54610000Y-5080000D03*
D10*
X52070000Y0D03*
%TD*%
D13*
%TO.C,D10*%
X38990000Y-15050000D03*
X31370000Y-15050000D03*
%TD*%
D17*
%TO.C,J1*%
X43180000Y12000000D03*
D18*
X45720000Y12000000D03*
X48260000Y12000000D03*
X50800000Y12000000D03*
X53340000Y12000000D03*
X55880000Y12000000D03*
X58420000Y12000000D03*
X60960000Y12000000D03*
X63500000Y12000000D03*
X66040000Y12000000D03*
X68580000Y12000000D03*
X71120000Y12000000D03*
%TD*%
D13*
%TO.C,D23*%
X53277500Y-53150000D03*
X45657500Y-53150000D03*
%TD*%
D16*
%TO.C,H2*%
X126325000Y12025000D03*
%TD*%
D10*
%TO.C,SW7*%
X119380000Y0D03*
D11*
X118110000Y-2540000D03*
D12*
X114300000Y0D03*
D11*
X111760000Y-5080000D03*
D10*
X109220000Y0D03*
%TD*%
D13*
%TO.C,D18*%
X62802500Y-34100000D03*
X55182500Y-34100000D03*
%TD*%
D10*
%TO.C,SW18*%
X66992500Y-38100000D03*
D11*
X65722500Y-40640000D03*
D12*
X61912500Y-38100000D03*
D11*
X59372500Y-43180000D03*
D10*
X56832500Y-38100000D03*
%TD*%
%TO.C,SW13*%
X100330000Y-19050000D03*
D11*
X99060000Y-21590000D03*
D12*
X95250000Y-19050000D03*
D11*
X92710000Y-24130000D03*
D10*
X90170000Y-19050000D03*
%TD*%
D13*
%TO.C,D3*%
X38990000Y4000000D03*
X31370000Y4000000D03*
%TD*%
%TO.C,D13*%
X96140000Y-15050000D03*
X88520000Y-15050000D03*
%TD*%
D10*
%TO.C,SW26*%
X114617500Y-57150000D03*
D11*
X113347500Y-59690000D03*
D12*
X109537500Y-57150000D03*
D11*
X106997500Y-62230000D03*
D10*
X104457500Y-57150000D03*
%TD*%
D13*
%TO.C,D6*%
X96140000Y4000000D03*
X88520000Y4000000D03*
%TD*%
D10*
%TO.C,SW29*%
X45561250Y-76200000D03*
D11*
X44291250Y-78740000D03*
D12*
X40481250Y-76200000D03*
D11*
X37941250Y-81280000D03*
D10*
X35401250Y-76200000D03*
%TD*%
%TO.C,SW1*%
X5080000Y0D03*
D11*
X3810000Y-2540000D03*
D12*
X0Y0D03*
D11*
X-2540000Y-5080000D03*
D10*
X-5080000Y0D03*
%TD*%
D13*
%TO.C,D21*%
X8033750Y-53150000D03*
X413750Y-53150000D03*
%TD*%
D10*
%TO.C,SW19*%
X86042500Y-38100000D03*
D11*
X84772500Y-40640000D03*
D12*
X80962500Y-38100000D03*
D11*
X78422500Y-43180000D03*
D10*
X75882500Y-38100000D03*
%TD*%
D13*
%TO.C,D12*%
X77090000Y-15050000D03*
X69470000Y-15050000D03*
%TD*%
D10*
%TO.C,SW12*%
X81280000Y-19050000D03*
D11*
X80010000Y-21590000D03*
D12*
X76200000Y-19050000D03*
D11*
X73660000Y-24130000D03*
D10*
X71120000Y-19050000D03*
%TD*%
%TO.C,SW9*%
X24130000Y-19050000D03*
D11*
X22860000Y-21590000D03*
D12*
X19050000Y-19050000D03*
D11*
X16510000Y-24130000D03*
D10*
X13970000Y-19050000D03*
%TD*%
D13*
%TO.C,D27*%
X890000Y-72200000D03*
X-6730000Y-72200000D03*
%TD*%
D10*
%TO.C,SW27*%
X5080000Y-76200000D03*
D11*
X3810000Y-78740000D03*
D12*
X0Y-76200000D03*
D11*
X-2540000Y-81280000D03*
D10*
X-5080000Y-76200000D03*
%TD*%
%TO.C,SW22*%
X38417500Y-57150000D03*
D11*
X37147500Y-59690000D03*
D12*
X33337500Y-57150000D03*
D11*
X30797500Y-62230000D03*
D10*
X28257500Y-57150000D03*
%TD*%
D13*
%TO.C,D1*%
X890000Y4000000D03*
X-6730000Y4000000D03*
%TD*%
D10*
%TO.C,SW3*%
X43180000Y0D03*
D11*
X41910000Y-2540000D03*
D12*
X38100000Y0D03*
D11*
X35560000Y-5080000D03*
D10*
X33020000Y0D03*
%TD*%
D13*
%TO.C,D2*%
X19940000Y4000000D03*
X12320000Y4000000D03*
%TD*%
%TO.C,D7*%
X115190000Y4000000D03*
X107570000Y4000000D03*
%TD*%
%TO.C,D25*%
X91377500Y-53150000D03*
X83757500Y-53150000D03*
%TD*%
%TO.C,D29*%
X41371250Y-72200000D03*
X33751250Y-72200000D03*
%TD*%
D16*
%TO.C,H4*%
X126325000Y-88225000D03*
%TD*%
D13*
%TO.C,D24*%
X72327500Y-53150000D03*
X64707500Y-53150000D03*
%TD*%
D10*
%TO.C,SW25*%
X95567500Y-57150000D03*
D11*
X94297500Y-59690000D03*
D12*
X90487500Y-57150000D03*
D11*
X87947500Y-62230000D03*
D10*
X85407500Y-57150000D03*
%TD*%
%TO.C,SW10*%
X43180000Y-19050000D03*
D11*
X41910000Y-21590000D03*
D12*
X38100000Y-19050000D03*
D11*
X35560000Y-24130000D03*
D10*
X33020000Y-19050000D03*
%TD*%
%TO.C,SW30*%
X97948750Y-76200000D03*
D11*
X96678750Y-78740000D03*
D12*
X92868750Y-76200000D03*
D11*
X90328750Y-81280000D03*
D10*
X87788750Y-76200000D03*
%TD*%
M02*
