%TF.GenerationSoftware,KiCad,Pcbnew,10.0.3*%
%TF.CreationDate,2026-07-08T09:26:37+09:00*%
%TF.ProjectId,keyboard,6b657962-6f61-4726-942e-6b696361645f,rev?*%
%TF.SameCoordinates,Original*%
%TF.FileFunction,Copper,L1,Top*%
%TF.FilePolarity,Positive*%
%FSLAX46Y46*%
G04 Gerber Fmt 4.6, Leading zero omitted, Abs format (unit mm)*
G04 Created by KiCad (PCBNEW 10.0.3) date 2026-07-08 09:26:37*
%MOMM*%
%LPD*%
G01*
G04 APERTURE LIST*
%TA.AperFunction,ComponentPad*%
%ADD10C,1.600000*%
%TD*%
%TA.AperFunction,ComponentPad*%
%ADD11R,1.700000X1.700000*%
%TD*%
%TA.AperFunction,ComponentPad*%
%ADD12C,1.700000*%
%TD*%
%TA.AperFunction,Conductor*%
%ADD13C,0.250000*%
%TD*%
G04 APERTURE END LIST*
D10*
%TO.P,D28,1*%
%TO.N,ROW4*%
X19940000Y-72200000D03*
%TO.P,D28,2*%
%TO.N,Net-(D28-A)*%
X12320000Y-72200000D03*
%TD*%
%TO.P,D20,1*%
%TO.N,ROW2*%
X100902500Y-34100000D03*
%TO.P,D20,2*%
%TO.N,Net-(D20-A)*%
X93282500Y-34100000D03*
%TD*%
%TO.P,D11,1*%
%TO.N,ROW1*%
X58040000Y-15050000D03*
%TO.P,D11,2*%
%TO.N,Net-(D11-A)*%
X50420000Y-15050000D03*
%TD*%
%TO.P,D17,1*%
%TO.N,ROW2*%
X43752500Y-34100000D03*
%TO.P,D17,2*%
%TO.N,Net-(D17-A)*%
X36132500Y-34100000D03*
%TD*%
%TO.P,D26,1*%
%TO.N,ROW3*%
X110427500Y-53150000D03*
%TO.P,D26,2*%
%TO.N,Net-(D26-A)*%
X102807500Y-53150000D03*
%TD*%
%TO.P,D14,1*%
%TO.N,ROW1*%
X115190000Y-15050000D03*
%TO.P,D14,2*%
%TO.N,Net-(D14-A)*%
X107570000Y-15050000D03*
%TD*%
%TO.P,D8,1*%
%TO.N,ROW1*%
X890000Y-15050000D03*
%TO.P,D8,2*%
%TO.N,Net-(D8-A)*%
X-6730000Y-15050000D03*
%TD*%
%TO.P,D16,1*%
%TO.N,ROW2*%
X24702500Y-34100000D03*
%TO.P,D16,2*%
%TO.N,Net-(D16-A)*%
X17082500Y-34100000D03*
%TD*%
%TO.P,D19,1*%
%TO.N,ROW2*%
X81852500Y-34100000D03*
%TO.P,D19,2*%
%TO.N,Net-(D19-A)*%
X74232500Y-34100000D03*
%TD*%
%TO.P,D5,1*%
%TO.N,ROW0*%
X77090000Y4000000D03*
%TO.P,D5,2*%
%TO.N,Net-(D5-A)*%
X69470000Y4000000D03*
%TD*%
%TO.P,D9,1*%
%TO.N,ROW1*%
X19940000Y-15050000D03*
%TO.P,D9,2*%
%TO.N,Net-(D9-A)*%
X12320000Y-15050000D03*
%TD*%
%TO.P,D15,1*%
%TO.N,ROW2*%
X3271250Y-34100000D03*
%TO.P,D15,2*%
%TO.N,Net-(D15-A)*%
X-4348750Y-34100000D03*
%TD*%
%TO.P,D30,1*%
%TO.N,ROW4*%
X93758750Y-72200000D03*
%TO.P,D30,2*%
%TO.N,Net-(D30-A)*%
X86138750Y-72200000D03*
%TD*%
%TO.P,D4,1*%
%TO.N,ROW0*%
X58040000Y4000000D03*
%TO.P,D4,2*%
%TO.N,Net-(D4-A)*%
X50420000Y4000000D03*
%TD*%
%TO.P,D22,1*%
%TO.N,ROW3*%
X34227500Y-53150000D03*
%TO.P,D22,2*%
%TO.N,Net-(D22-A)*%
X26607500Y-53150000D03*
%TD*%
%TO.P,D10,1*%
%TO.N,ROW1*%
X38990000Y-15050000D03*
%TO.P,D10,2*%
%TO.N,Net-(D10-A)*%
X31370000Y-15050000D03*
%TD*%
D11*
%TO.P,J1,1*%
%TO.N,COL0*%
X43180000Y12000000D03*
D12*
%TO.P,J1,2*%
%TO.N,COL1*%
X45720000Y12000000D03*
%TO.P,J1,3*%
%TO.N,COL2*%
X48260000Y12000000D03*
%TO.P,J1,4*%
%TO.N,COL3*%
X50800000Y12000000D03*
%TO.P,J1,5*%
%TO.N,COL4*%
X53340000Y12000000D03*
%TO.P,J1,6*%
%TO.N,COL5*%
X55880000Y12000000D03*
%TO.P,J1,7*%
%TO.N,COL6*%
X58420000Y12000000D03*
%TO.P,J1,8*%
%TO.N,ROW0*%
X60960000Y12000000D03*
%TO.P,J1,9*%
%TO.N,ROW1*%
X63500000Y12000000D03*
%TO.P,J1,10*%
%TO.N,ROW2*%
X66040000Y12000000D03*
%TO.P,J1,11*%
%TO.N,ROW3*%
X68580000Y12000000D03*
%TO.P,J1,12*%
%TO.N,ROW4*%
X71120000Y12000000D03*
%TD*%
D10*
%TO.P,D23,1*%
%TO.N,ROW3*%
X53277500Y-53150000D03*
%TO.P,D23,2*%
%TO.N,Net-(D23-A)*%
X45657500Y-53150000D03*
%TD*%
%TO.P,D18,1*%
%TO.N,ROW2*%
X62802500Y-34100000D03*
%TO.P,D18,2*%
%TO.N,Net-(D18-A)*%
X55182500Y-34100000D03*
%TD*%
%TO.P,D3,1*%
%TO.N,ROW0*%
X38990000Y4000000D03*
%TO.P,D3,2*%
%TO.N,Net-(D3-A)*%
X31370000Y4000000D03*
%TD*%
%TO.P,D13,1*%
%TO.N,ROW1*%
X96140000Y-15050000D03*
%TO.P,D13,2*%
%TO.N,Net-(D13-A)*%
X88520000Y-15050000D03*
%TD*%
%TO.P,D6,1*%
%TO.N,ROW0*%
X96140000Y4000000D03*
%TO.P,D6,2*%
%TO.N,Net-(D6-A)*%
X88520000Y4000000D03*
%TD*%
%TO.P,D21,1*%
%TO.N,ROW3*%
X8033750Y-53150000D03*
%TO.P,D21,2*%
%TO.N,Net-(D21-A)*%
X413750Y-53150000D03*
%TD*%
%TO.P,D12,1*%
%TO.N,ROW1*%
X77090000Y-15050000D03*
%TO.P,D12,2*%
%TO.N,Net-(D12-A)*%
X69470000Y-15050000D03*
%TD*%
%TO.P,D27,1*%
%TO.N,ROW4*%
X890000Y-72200000D03*
%TO.P,D27,2*%
%TO.N,Net-(D27-A)*%
X-6730000Y-72200000D03*
%TD*%
%TO.P,D1,1*%
%TO.N,ROW0*%
X890000Y4000000D03*
%TO.P,D1,2*%
%TO.N,Net-(D1-A)*%
X-6730000Y4000000D03*
%TD*%
%TO.P,D2,1*%
%TO.N,ROW0*%
X19940000Y4000000D03*
%TO.P,D2,2*%
%TO.N,Net-(D2-A)*%
X12320000Y4000000D03*
%TD*%
%TO.P,D7,1*%
%TO.N,ROW0*%
X115190000Y4000000D03*
%TO.P,D7,2*%
%TO.N,Net-(D7-A)*%
X107570000Y4000000D03*
%TD*%
%TO.P,D25,1*%
%TO.N,ROW3*%
X91377500Y-53150000D03*
%TO.P,D25,2*%
%TO.N,Net-(D25-A)*%
X83757500Y-53150000D03*
%TD*%
%TO.P,D29,1*%
%TO.N,ROW4*%
X41371250Y-72200000D03*
%TO.P,D29,2*%
%TO.N,Net-(D29-A)*%
X33751250Y-72200000D03*
%TD*%
%TO.P,D24,1*%
%TO.N,ROW3*%
X72327500Y-53150000D03*
%TO.P,D24,2*%
%TO.N,Net-(D24-A)*%
X64707500Y-53150000D03*
%TD*%
%TO.N,ROW4*%
D13*
X92500000Y-69500000D02*
X93758750Y-70758750D01*
X124000000Y-83000000D02*
X121500000Y-85500000D01*
X124000000Y8500000D02*
X124000000Y-30500000D01*
X85000000Y-69500000D02*
X92500000Y-69500000D01*
X890000Y-67390000D02*
X890000Y-72200000D01*
X120500000Y-42000000D02*
X124000000Y-45500000D01*
X-9500000Y-67000000D02*
X500000Y-67000000D01*
X500000Y-67000000D02*
X890000Y-67390000D01*
X71120000Y12000000D02*
X120500000Y12000000D01*
X93758750Y-70758750D02*
X93758750Y-72200000D01*
X82300000Y-72200000D02*
X85000000Y-69500000D01*
X19940000Y-72200000D02*
X21065000Y-71075000D01*
X21065000Y-71075000D02*
X40246250Y-71075000D01*
X-9500000Y-85500000D02*
X-9500000Y-67000000D01*
X2015000Y-71075000D02*
X18815000Y-71075000D01*
X120500000Y12000000D02*
X124000000Y8500000D01*
X124000000Y-30500000D02*
X120500000Y-34000000D01*
X120500000Y-34000000D02*
X120500000Y-42000000D01*
X124000000Y-45500000D02*
X124000000Y-83000000D01*
X890000Y-72200000D02*
X2015000Y-71075000D01*
X121500000Y-85500000D02*
X-9500000Y-85500000D01*
X41371250Y-72200000D02*
X82300000Y-72200000D01*
X40246250Y-71075000D02*
X41371250Y-72200000D01*
X18815000Y-71075000D02*
X19940000Y-72200000D01*
%TO.N,ROW2*%
X93773491Y-33000000D02*
X99802500Y-33000000D01*
X66040000Y12000000D02*
X68540000Y9500000D01*
X44877500Y-32975000D02*
X61677500Y-32975000D01*
X81852500Y-34100000D02*
X82952500Y-33000000D01*
X122000000Y-29500000D02*
X117400000Y-34100000D01*
X61677500Y-32975000D02*
X62802500Y-34100000D01*
X92791509Y-33000000D02*
X92816509Y-32975000D01*
X122000000Y8000000D02*
X122000000Y-29500000D01*
X117400000Y-34100000D02*
X100902500Y-34100000D01*
X99802500Y-33000000D02*
X100902500Y-34100000D01*
X24702500Y-34100000D02*
X25827500Y-32975000D01*
X23577500Y-32975000D02*
X24702500Y-34100000D01*
X80727500Y-32975000D02*
X81852500Y-34100000D01*
X3271250Y-34100000D02*
X4396250Y-32975000D01*
X43752500Y-34100000D02*
X44877500Y-32975000D01*
X42627500Y-32975000D02*
X43752500Y-34100000D01*
X120500000Y9500000D02*
X122000000Y8000000D01*
X25827500Y-32975000D02*
X42627500Y-32975000D01*
X82952500Y-33000000D02*
X92791509Y-33000000D01*
X4396250Y-32975000D02*
X23577500Y-32975000D01*
X62802500Y-34100000D02*
X63927500Y-32975000D01*
X93748491Y-32975000D02*
X93773491Y-33000000D01*
X63927500Y-32975000D02*
X80727500Y-32975000D01*
X68540000Y9500000D02*
X120500000Y9500000D01*
X92816509Y-32975000D02*
X93748491Y-32975000D01*
%TO.N,ROW1*%
X18815000Y-13925000D02*
X19940000Y-15050000D01*
X21065000Y-13925000D02*
X37865000Y-13925000D01*
X119500000Y8500000D02*
X121000000Y7000000D01*
X121000000Y7000000D02*
X121000000Y-13000000D01*
X95015000Y-13925000D02*
X96140000Y-15050000D01*
X77090000Y-15050000D02*
X78215000Y-13925000D01*
X78215000Y-13925000D02*
X95015000Y-13925000D01*
X96140000Y-15050000D02*
X97265000Y-13925000D01*
X40115000Y-13925000D02*
X56915000Y-13925000D01*
X19940000Y-15050000D02*
X21065000Y-13925000D01*
X114065000Y-13925000D02*
X115190000Y-15050000D01*
X97265000Y-13925000D02*
X114065000Y-13925000D01*
X58040000Y-15050000D02*
X59165000Y-13925000D01*
X890000Y-15050000D02*
X2015000Y-13925000D01*
X63500000Y12000000D02*
X67000000Y8500000D01*
X56915000Y-13925000D02*
X58040000Y-15050000D01*
X121000000Y-13000000D02*
X118950000Y-15050000D01*
X75965000Y-13925000D02*
X77090000Y-15050000D01*
X38990000Y-15050000D02*
X40115000Y-13925000D01*
X118950000Y-15050000D02*
X115190000Y-15050000D01*
X37865000Y-13925000D02*
X38990000Y-15050000D01*
X67000000Y8500000D02*
X119500000Y8500000D01*
X2015000Y-13925000D02*
X18815000Y-13925000D01*
X59165000Y-13925000D02*
X75965000Y-13925000D01*
%TO.N,ROW3*%
X92502500Y-52025000D02*
X109302500Y-52025000D01*
X52152500Y-52025000D02*
X53277500Y-53150000D01*
X123000000Y8500000D02*
X123000000Y-30000000D01*
X35352500Y-52025000D02*
X52152500Y-52025000D01*
X8033750Y-53150000D02*
X9158750Y-52025000D01*
X70080000Y10500000D02*
X121000000Y10500000D01*
X33102500Y-52025000D02*
X34227500Y-53150000D01*
X119500000Y-53150000D02*
X110427500Y-53150000D01*
X109302500Y-52025000D02*
X110427500Y-53150000D01*
X68580000Y12000000D02*
X70080000Y10500000D01*
X34227500Y-53150000D02*
X35352500Y-52025000D01*
X9158750Y-52025000D02*
X33102500Y-52025000D01*
X119500000Y-33500000D02*
X119500000Y-53150000D01*
X54402500Y-52025000D02*
X71202500Y-52025000D01*
X72327500Y-53150000D02*
X73452500Y-52025000D01*
X123000000Y-30000000D02*
X119500000Y-33500000D01*
X90252500Y-52025000D02*
X91377500Y-53150000D01*
X73452500Y-52025000D02*
X90252500Y-52025000D01*
X121000000Y10500000D02*
X123000000Y8500000D01*
X53277500Y-53150000D02*
X54402500Y-52025000D01*
X71202500Y-52025000D02*
X72327500Y-53150000D01*
X91377500Y-53150000D02*
X92502500Y-52025000D01*
%TO.N,ROW0*%
X37865000Y5125000D02*
X38990000Y4000000D01*
X114065000Y5125000D02*
X115190000Y4000000D01*
X65460000Y7500000D02*
X119000000Y7500000D01*
X18815000Y5125000D02*
X19940000Y4000000D01*
X75965000Y5125000D02*
X77090000Y4000000D01*
X56915000Y5125000D02*
X58040000Y4000000D01*
X96140000Y4000000D02*
X97265000Y5125000D01*
X120000000Y6500000D02*
X120000000Y4000000D01*
X21065000Y5125000D02*
X37865000Y5125000D01*
X19940000Y4000000D02*
X21065000Y5125000D01*
X119000000Y7500000D02*
X120000000Y6500000D01*
X38990000Y4000000D02*
X40115000Y5125000D01*
X77090000Y4000000D02*
X78215000Y5125000D01*
X120000000Y4000000D02*
X115190000Y4000000D01*
X890000Y4000000D02*
X2015000Y5125000D01*
X60960000Y12000000D02*
X65460000Y7500000D01*
X58040000Y4000000D02*
X59165000Y5125000D01*
X78215000Y5125000D02*
X95015000Y5125000D01*
X97265000Y5125000D02*
X114065000Y5125000D01*
X2015000Y5125000D02*
X18815000Y5125000D01*
X59165000Y5125000D02*
X75965000Y5125000D01*
X40115000Y5125000D02*
X56915000Y5125000D01*
X95015000Y5125000D02*
X96140000Y4000000D01*
%TD*%
M02*
