%TF.GenerationSoftware,KiCad,Pcbnew,10.0.3*%
%TF.CreationDate,2026-07-08T09:26:37+09:00*%
%TF.ProjectId,keyboard,6b657962-6f61-4726-942e-6b696361645f,rev?*%
%TF.SameCoordinates,Original*%
%TF.FileFunction,Copper,L2,Bot*%
%TF.FilePolarity,Positive*%
%FSLAX46Y46*%
G04 Gerber Fmt 4.6, Leading zero omitted, Abs format (unit mm)*
G04 Created by KiCad (PCBNEW 10.0.3) date 2026-07-08 09:26:37*
%MOMM*%
%LPD*%
G01*
G04 APERTURE LIST*
%TA.AperFunction,SMDPad,CuDef*%
%ADD10R,2.900000X2.500000*%
%TD*%
%TA.AperFunction,ComponentPad*%
%ADD11C,1.600000*%
%TD*%
%TA.AperFunction,ComponentPad*%
%ADD12R,1.700000X1.700000*%
%TD*%
%TA.AperFunction,ComponentPad*%
%ADD13C,1.700000*%
%TD*%
%TA.AperFunction,Conductor*%
%ADD14C,0.250000*%
%TD*%
G04 APERTURE END LIST*
D10*
%TO.P,SW5,1*%
%TO.N,COL4*%
X83235000Y-2540000D03*
%TO.P,SW5,2*%
%TO.N,Net-(D5-A)*%
X70435000Y-5080000D03*
%TD*%
%TO.P,SW21,1*%
%TO.N,COL0*%
X14178750Y-59690000D03*
%TO.P,SW21,2*%
%TO.N,Net-(D21-A)*%
X1378750Y-62230000D03*
%TD*%
D11*
%TO.P,D28,1*%
%TO.N,ROW4*%
X19940000Y-72200000D03*
%TO.P,D28,2*%
%TO.N,Net-(D28-A)*%
X12320000Y-72200000D03*
%TD*%
D10*
%TO.P,SW23,1*%
%TO.N,COL2*%
X59422500Y-59690000D03*
%TO.P,SW23,2*%
%TO.N,Net-(D23-A)*%
X46622500Y-62230000D03*
%TD*%
%TO.P,SW14,1*%
%TO.N,COL6*%
X121335000Y-21590000D03*
%TO.P,SW14,2*%
%TO.N,Net-(D14-A)*%
X108535000Y-24130000D03*
%TD*%
%TO.P,SW28,1*%
%TO.N,COL1*%
X26085000Y-78740000D03*
%TO.P,SW28,2*%
%TO.N,Net-(D28-A)*%
X13285000Y-81280000D03*
%TD*%
D11*
%TO.P,D20,1*%
%TO.N,ROW2*%
X100902500Y-34100000D03*
%TO.P,D20,2*%
%TO.N,Net-(D20-A)*%
X93282500Y-34100000D03*
%TD*%
D10*
%TO.P,SW6,1*%
%TO.N,COL5*%
X102285000Y-2540000D03*
%TO.P,SW6,2*%
%TO.N,Net-(D6-A)*%
X89485000Y-5080000D03*
%TD*%
%TO.P,SW20,1*%
%TO.N,COL5*%
X107047500Y-40640000D03*
%TO.P,SW20,2*%
%TO.N,Net-(D20-A)*%
X94247500Y-43180000D03*
%TD*%
D11*
%TO.P,D11,1*%
%TO.N,ROW1*%
X58040000Y-15050000D03*
%TO.P,D11,2*%
%TO.N,Net-(D11-A)*%
X50420000Y-15050000D03*
%TD*%
%TO.P,D17,1*%
%TO.N,ROW2*%
X43752500Y-34100000D03*
%TO.P,D17,2*%
%TO.N,Net-(D17-A)*%
X36132500Y-34100000D03*
%TD*%
D10*
%TO.P,SW2,1*%
%TO.N,COL1*%
X26085000Y-2540000D03*
%TO.P,SW2,2*%
%TO.N,Net-(D2-A)*%
X13285000Y-5080000D03*
%TD*%
%TO.P,SW8,1*%
%TO.N,COL0*%
X7035000Y-21590000D03*
%TO.P,SW8,2*%
%TO.N,Net-(D8-A)*%
X-5765000Y-24130000D03*
%TD*%
%TO.P,SW17,1*%
%TO.N,COL2*%
X49897500Y-40640000D03*
%TO.P,SW17,2*%
%TO.N,Net-(D17-A)*%
X37097500Y-43180000D03*
%TD*%
D11*
%TO.P,D26,1*%
%TO.N,ROW3*%
X110427500Y-53150000D03*
%TO.P,D26,2*%
%TO.N,Net-(D26-A)*%
X102807500Y-53150000D03*
%TD*%
%TO.P,D14,1*%
%TO.N,ROW1*%
X115190000Y-15050000D03*
%TO.P,D14,2*%
%TO.N,Net-(D14-A)*%
X107570000Y-15050000D03*
%TD*%
%TO.P,D8,1*%
%TO.N,ROW1*%
X890000Y-15050000D03*
%TO.P,D8,2*%
%TO.N,Net-(D8-A)*%
X-6730000Y-15050000D03*
%TD*%
D10*
%TO.P,SW15,1*%
%TO.N,COL0*%
X9416250Y-40640000D03*
%TO.P,SW15,2*%
%TO.N,Net-(D15-A)*%
X-3383750Y-43180000D03*
%TD*%
D11*
%TO.P,D16,1*%
%TO.N,ROW2*%
X24702500Y-34100000D03*
%TO.P,D16,2*%
%TO.N,Net-(D16-A)*%
X17082500Y-34100000D03*
%TD*%
D10*
%TO.P,SW11,1*%
%TO.N,COL3*%
X64185000Y-21590000D03*
%TO.P,SW11,2*%
%TO.N,Net-(D11-A)*%
X51385000Y-24130000D03*
%TD*%
%TO.P,SW24,1*%
%TO.N,COL3*%
X78472500Y-59690000D03*
%TO.P,SW24,2*%
%TO.N,Net-(D24-A)*%
X65672500Y-62230000D03*
%TD*%
D11*
%TO.P,D19,1*%
%TO.N,ROW2*%
X81852500Y-34100000D03*
%TO.P,D19,2*%
%TO.N,Net-(D19-A)*%
X74232500Y-34100000D03*
%TD*%
D10*
%TO.P,SW16,1*%
%TO.N,COL1*%
X30847500Y-40640000D03*
%TO.P,SW16,2*%
%TO.N,Net-(D16-A)*%
X18047500Y-43180000D03*
%TD*%
D11*
%TO.P,D5,1*%
%TO.N,ROW0*%
X77090000Y4000000D03*
%TO.P,D5,2*%
%TO.N,Net-(D5-A)*%
X69470000Y4000000D03*
%TD*%
%TO.P,D9,1*%
%TO.N,ROW1*%
X19940000Y-15050000D03*
%TO.P,D9,2*%
%TO.N,Net-(D9-A)*%
X12320000Y-15050000D03*
%TD*%
%TO.P,D15,1*%
%TO.N,ROW2*%
X3271250Y-34100000D03*
%TO.P,D15,2*%
%TO.N,Net-(D15-A)*%
X-4348750Y-34100000D03*
%TD*%
%TO.P,D30,1*%
%TO.N,ROW4*%
X93758750Y-72200000D03*
%TO.P,D30,2*%
%TO.N,Net-(D30-A)*%
X86138750Y-72200000D03*
%TD*%
%TO.P,D4,1*%
%TO.N,ROW0*%
X58040000Y4000000D03*
%TO.P,D4,2*%
%TO.N,Net-(D4-A)*%
X50420000Y4000000D03*
%TD*%
%TO.P,D22,1*%
%TO.N,ROW3*%
X34227500Y-53150000D03*
%TO.P,D22,2*%
%TO.N,Net-(D22-A)*%
X26607500Y-53150000D03*
%TD*%
D10*
%TO.P,SW4,1*%
%TO.N,COL3*%
X64185000Y-2540000D03*
%TO.P,SW4,2*%
%TO.N,Net-(D4-A)*%
X51385000Y-5080000D03*
%TD*%
D11*
%TO.P,D10,1*%
%TO.N,ROW1*%
X38990000Y-15050000D03*
%TO.P,D10,2*%
%TO.N,Net-(D10-A)*%
X31370000Y-15050000D03*
%TD*%
D12*
%TO.P,J1,1*%
%TO.N,COL0*%
X43180000Y12000000D03*
D13*
%TO.P,J1,2*%
%TO.N,COL1*%
X45720000Y12000000D03*
%TO.P,J1,3*%
%TO.N,COL2*%
X48260000Y12000000D03*
%TO.P,J1,4*%
%TO.N,COL3*%
X50800000Y12000000D03*
%TO.P,J1,5*%
%TO.N,COL4*%
X53340000Y12000000D03*
%TO.P,J1,6*%
%TO.N,COL5*%
X55880000Y12000000D03*
%TO.P,J1,7*%
%TO.N,COL6*%
X58420000Y12000000D03*
%TO.P,J1,8*%
%TO.N,ROW0*%
X60960000Y12000000D03*
%TO.P,J1,9*%
%TO.N,ROW1*%
X63500000Y12000000D03*
%TO.P,J1,10*%
%TO.N,ROW2*%
X66040000Y12000000D03*
%TO.P,J1,11*%
%TO.N,ROW3*%
X68580000Y12000000D03*
%TO.P,J1,12*%
%TO.N,ROW4*%
X71120000Y12000000D03*
%TD*%
D11*
%TO.P,D23,1*%
%TO.N,ROW3*%
X53277500Y-53150000D03*
%TO.P,D23,2*%
%TO.N,Net-(D23-A)*%
X45657500Y-53150000D03*
%TD*%
D10*
%TO.P,SW7,1*%
%TO.N,COL6*%
X121335000Y-2540000D03*
%TO.P,SW7,2*%
%TO.N,Net-(D7-A)*%
X108535000Y-5080000D03*
%TD*%
D11*
%TO.P,D18,1*%
%TO.N,ROW2*%
X62802500Y-34100000D03*
%TO.P,D18,2*%
%TO.N,Net-(D18-A)*%
X55182500Y-34100000D03*
%TD*%
D10*
%TO.P,SW18,1*%
%TO.N,COL3*%
X68947500Y-40640000D03*
%TO.P,SW18,2*%
%TO.N,Net-(D18-A)*%
X56147500Y-43180000D03*
%TD*%
%TO.P,SW13,1*%
%TO.N,COL5*%
X102285000Y-21590000D03*
%TO.P,SW13,2*%
%TO.N,Net-(D13-A)*%
X89485000Y-24130000D03*
%TD*%
D11*
%TO.P,D3,1*%
%TO.N,ROW0*%
X38990000Y4000000D03*
%TO.P,D3,2*%
%TO.N,Net-(D3-A)*%
X31370000Y4000000D03*
%TD*%
%TO.P,D13,1*%
%TO.N,ROW1*%
X96140000Y-15050000D03*
%TO.P,D13,2*%
%TO.N,Net-(D13-A)*%
X88520000Y-15050000D03*
%TD*%
D10*
%TO.P,SW26,1*%
%TO.N,COL5*%
X116572500Y-59690000D03*
%TO.P,SW26,2*%
%TO.N,Net-(D26-A)*%
X103772500Y-62230000D03*
%TD*%
D11*
%TO.P,D6,1*%
%TO.N,ROW0*%
X96140000Y4000000D03*
%TO.P,D6,2*%
%TO.N,Net-(D6-A)*%
X88520000Y4000000D03*
%TD*%
D10*
%TO.P,SW29,1*%
%TO.N,COL2*%
X47516250Y-78740000D03*
%TO.P,SW29,2*%
%TO.N,Net-(D29-A)*%
X34716250Y-81280000D03*
%TD*%
%TO.P,SW1,1*%
%TO.N,COL0*%
X7035000Y-2540000D03*
%TO.P,SW1,2*%
%TO.N,Net-(D1-A)*%
X-5765000Y-5080000D03*
%TD*%
D11*
%TO.P,D21,1*%
%TO.N,ROW3*%
X8033750Y-53150000D03*
%TO.P,D21,2*%
%TO.N,Net-(D21-A)*%
X413750Y-53150000D03*
%TD*%
D10*
%TO.P,SW19,1*%
%TO.N,COL4*%
X87997500Y-40640000D03*
%TO.P,SW19,2*%
%TO.N,Net-(D19-A)*%
X75197500Y-43180000D03*
%TD*%
D11*
%TO.P,D12,1*%
%TO.N,ROW1*%
X77090000Y-15050000D03*
%TO.P,D12,2*%
%TO.N,Net-(D12-A)*%
X69470000Y-15050000D03*
%TD*%
D10*
%TO.P,SW12,1*%
%TO.N,COL4*%
X83235000Y-21590000D03*
%TO.P,SW12,2*%
%TO.N,Net-(D12-A)*%
X70435000Y-24130000D03*
%TD*%
%TO.P,SW9,1*%
%TO.N,COL1*%
X26085000Y-21590000D03*
%TO.P,SW9,2*%
%TO.N,Net-(D9-A)*%
X13285000Y-24130000D03*
%TD*%
D11*
%TO.P,D27,1*%
%TO.N,ROW4*%
X890000Y-72200000D03*
%TO.P,D27,2*%
%TO.N,Net-(D27-A)*%
X-6730000Y-72200000D03*
%TD*%
D10*
%TO.P,SW27,1*%
%TO.N,COL0*%
X7035000Y-78740000D03*
%TO.P,SW27,2*%
%TO.N,Net-(D27-A)*%
X-5765000Y-81280000D03*
%TD*%
%TO.P,SW22,1*%
%TO.N,COL1*%
X40372500Y-59690000D03*
%TO.P,SW22,2*%
%TO.N,Net-(D22-A)*%
X27572500Y-62230000D03*
%TD*%
D11*
%TO.P,D1,1*%
%TO.N,ROW0*%
X890000Y4000000D03*
%TO.P,D1,2*%
%TO.N,Net-(D1-A)*%
X-6730000Y4000000D03*
%TD*%
D10*
%TO.P,SW3,1*%
%TO.N,COL2*%
X45135000Y-2540000D03*
%TO.P,SW3,2*%
%TO.N,Net-(D3-A)*%
X32335000Y-5080000D03*
%TD*%
D11*
%TO.P,D2,1*%
%TO.N,ROW0*%
X19940000Y4000000D03*
%TO.P,D2,2*%
%TO.N,Net-(D2-A)*%
X12320000Y4000000D03*
%TD*%
%TO.P,D7,1*%
%TO.N,ROW0*%
X115190000Y4000000D03*
%TO.P,D7,2*%
%TO.N,Net-(D7-A)*%
X107570000Y4000000D03*
%TD*%
%TO.P,D25,1*%
%TO.N,ROW3*%
X91377500Y-53150000D03*
%TO.P,D25,2*%
%TO.N,Net-(D25-A)*%
X83757500Y-53150000D03*
%TD*%
%TO.P,D29,1*%
%TO.N,ROW4*%
X41371250Y-72200000D03*
%TO.P,D29,2*%
%TO.N,Net-(D29-A)*%
X33751250Y-72200000D03*
%TD*%
%TO.P,D24,1*%
%TO.N,ROW3*%
X72327500Y-53150000D03*
%TO.P,D24,2*%
%TO.N,Net-(D24-A)*%
X64707500Y-53150000D03*
%TD*%
D10*
%TO.P,SW25,1*%
%TO.N,COL4*%
X97522500Y-59690000D03*
%TO.P,SW25,2*%
%TO.N,Net-(D25-A)*%
X84722500Y-62230000D03*
%TD*%
%TO.P,SW10,1*%
%TO.N,COL2*%
X45135000Y-21590000D03*
%TO.P,SW10,2*%
%TO.N,Net-(D10-A)*%
X32335000Y-24130000D03*
%TD*%
%TO.P,SW30,1*%
%TO.N,COL4*%
X99903750Y-78740000D03*
%TO.P,SW30,2*%
%TO.N,Net-(D30-A)*%
X87103750Y-81280000D03*
%TD*%
%TO.N,COL4*%
D14*
X99903750Y-69096250D02*
X99903750Y-78740000D01*
X83235000Y-2540000D02*
X83235000Y-21590000D01*
X97522500Y-66522500D02*
X100000000Y-69000000D01*
X97500000Y-53000000D02*
X97522500Y-53022500D01*
X82500000Y8000000D02*
X83235000Y7265000D01*
X97522500Y-53022500D02*
X97522500Y-59690000D01*
X87997500Y-43997500D02*
X96000000Y-52000000D01*
X100000000Y-69000000D02*
X99903750Y-69096250D01*
X83235000Y-28735000D02*
X88000000Y-33500000D01*
X97500000Y-52000000D02*
X97500000Y-53000000D01*
X87997500Y-33502500D02*
X87997500Y-40640000D01*
X96000000Y-52000000D02*
X97500000Y-52000000D01*
X87997500Y-40640000D02*
X87997500Y-43997500D01*
X83235000Y7265000D02*
X83235000Y-2540000D01*
X56500000Y8000000D02*
X82500000Y8000000D01*
X53340000Y12000000D02*
X53340000Y11160000D01*
X83235000Y-21590000D02*
X83235000Y-28735000D01*
X97522500Y-59690000D02*
X97522500Y-66522500D01*
X53340000Y11160000D02*
X56500000Y8000000D01*
X88000000Y-33500000D02*
X87997500Y-33502500D01*
%TO.N,Net-(D5-A)*%
X69470000Y-4115000D02*
X70435000Y-5080000D01*
X69470000Y4000000D02*
X69470000Y-4115000D01*
%TO.N,COL0*%
X9000000Y-70000000D02*
X9000000Y-73000000D01*
X9416250Y-23971250D02*
X9416250Y-40640000D01*
X14178750Y-59690000D02*
X14178750Y-64821250D01*
X7035000Y-2540000D02*
X7035000Y-21590000D01*
X15312233Y12000000D02*
X7035000Y3722767D01*
X7035000Y3722767D02*
X7035000Y-2540000D01*
X7035000Y-74965000D02*
X7035000Y-78740000D01*
X7035000Y-21590000D02*
X9416250Y-23971250D01*
X9000000Y-73000000D02*
X7035000Y-74965000D01*
X14178750Y-45402500D02*
X14178750Y-59690000D01*
X9416250Y-40640000D02*
X14178750Y-45402500D01*
X14178750Y-64821250D02*
X9000000Y-70000000D01*
X43180000Y12000000D02*
X15312233Y12000000D01*
%TO.N,Net-(D21-A)*%
X413750Y-53150000D02*
X413750Y-61265000D01*
X413750Y-61265000D02*
X1378750Y-62230000D01*
%TO.N,Net-(D28-A)*%
X12320000Y-72200000D02*
X12320000Y-80315000D01*
X12320000Y-80315000D02*
X13285000Y-81280000D01*
%TO.N,COL2*%
X45135000Y8875000D02*
X45135000Y-2540000D01*
X59422500Y-52422500D02*
X59422500Y-59690000D01*
X47516250Y-71983750D02*
X47516250Y-78740000D01*
X48260000Y12000000D02*
X45135000Y8875000D01*
X45135000Y-21590000D02*
X47500000Y-23955000D01*
X47500000Y-23955000D02*
X47500000Y-25500000D01*
X47500000Y-25500000D02*
X49897500Y-27897500D01*
X45135000Y-2540000D02*
X45135000Y-21590000D01*
X49897500Y-40640000D02*
X49897500Y-42897500D01*
X59422500Y-60077500D02*
X47516250Y-71983750D01*
X49897500Y-42897500D02*
X59422500Y-52422500D01*
X49897500Y-27897500D02*
X49897500Y-40640000D01*
X59422500Y-59690000D02*
X59422500Y-60077500D01*
%TO.N,Net-(D23-A)*%
X45657500Y-61265000D02*
X46622500Y-62230000D01*
X45657500Y-53150000D02*
X45657500Y-61265000D01*
%TO.N,COL6*%
X121335000Y-2540000D02*
X121335000Y-21590000D01*
X112500000Y10000000D02*
X121335000Y1165000D01*
X58420000Y12000000D02*
X58420000Y10290000D01*
X121335000Y1165000D02*
X121335000Y-2540000D01*
X58710000Y10000000D02*
X112500000Y10000000D01*
X58420000Y10290000D02*
X58710000Y10000000D01*
%TO.N,Net-(D14-A)*%
X107570000Y-15050000D02*
X107570000Y-23165000D01*
X107570000Y-23165000D02*
X108535000Y-24130000D01*
%TO.N,COL1*%
X26085000Y8585000D02*
X26085000Y-2540000D01*
X26085000Y-73977500D02*
X26085000Y-78740000D01*
X27000000Y9500000D02*
X26085000Y8585000D01*
X40372500Y-50165000D02*
X40372500Y-59690000D01*
X40372500Y-59690000D02*
X26085000Y-73977500D01*
X26085000Y-21590000D02*
X30847500Y-26352500D01*
X45720000Y12000000D02*
X43220000Y9500000D01*
X43220000Y9500000D02*
X27000000Y9500000D01*
X30847500Y-40640000D02*
X40372500Y-50165000D01*
X26085000Y-2540000D02*
X26085000Y-21590000D01*
X30847500Y-26352500D02*
X30847500Y-40640000D01*
%TO.N,Net-(D20-A)*%
X93282500Y-34100000D02*
X93282500Y-42215000D01*
X93282500Y-42215000D02*
X94247500Y-43180000D01*
%TO.N,COL5*%
X101910000Y-21965000D02*
X101910000Y-29410000D01*
X102285000Y-2540000D02*
X102285000Y-21590000D01*
X107047500Y-34547500D02*
X107047500Y-40640000D01*
X56500000Y11380000D02*
X56500000Y10000000D01*
X100000000Y9000000D02*
X102285000Y6715000D01*
X57500000Y9000000D02*
X100000000Y9000000D01*
X107140000Y-40640000D02*
X116572500Y-50072500D01*
X107047500Y-40640000D02*
X107140000Y-40640000D01*
X102285000Y-21590000D02*
X101910000Y-21965000D01*
X55880000Y12000000D02*
X56500000Y11380000D01*
X102285000Y6715000D02*
X102285000Y-2540000D01*
X101910000Y-29410000D02*
X107047500Y-34547500D01*
X116572500Y-50072500D02*
X116572500Y-59690000D01*
X56500000Y10000000D02*
X57500000Y9000000D01*
%TO.N,Net-(D6-A)*%
X88520000Y4000000D02*
X88520000Y-4115000D01*
X88520000Y-4115000D02*
X89485000Y-5080000D01*
%TO.N,Net-(D11-A)*%
X50420000Y-23165000D02*
X51385000Y-24130000D01*
X50420000Y-15050000D02*
X50420000Y-23165000D01*
%TO.N,Net-(D17-A)*%
X36132500Y-34100000D02*
X36132500Y-42215000D01*
X36132500Y-42215000D02*
X37097500Y-43180000D01*
%TO.N,Net-(D2-A)*%
X12320000Y-4115000D02*
X13285000Y-5080000D01*
X12320000Y4000000D02*
X12320000Y-4115000D01*
%TO.N,Net-(D8-A)*%
X-6730000Y-23165000D02*
X-5765000Y-24130000D01*
X-6730000Y-15050000D02*
X-6730000Y-23165000D01*
%TO.N,Net-(D26-A)*%
X102807500Y-53150000D02*
X102807500Y-61265000D01*
X102807500Y-61265000D02*
X103772500Y-62230000D01*
%TO.N,Net-(D15-A)*%
X-4348750Y-34100000D02*
X-4348750Y-42215000D01*
X-4348750Y-42215000D02*
X-3383750Y-43180000D01*
%TO.N,Net-(D16-A)*%
X17082500Y-42215000D02*
X18047500Y-43180000D01*
X17082500Y-34100000D02*
X17082500Y-42215000D01*
%TO.N,COL3*%
X68947500Y-44947500D02*
X74000000Y-50000000D01*
X78500000Y-50000000D02*
X78500000Y-50500000D01*
X64185000Y6815000D02*
X64185000Y-2540000D01*
X69000000Y-33000000D02*
X68947500Y-33052500D01*
X78472500Y-50527500D02*
X78472500Y-59690000D01*
X78500000Y-50500000D02*
X78472500Y-50527500D01*
X55800000Y7000000D02*
X64000000Y7000000D01*
X64185000Y-2540000D02*
X64185000Y-21590000D01*
X64185000Y-28185000D02*
X69000000Y-33000000D01*
X74000000Y-50000000D02*
X78500000Y-50000000D01*
X68947500Y-33052500D02*
X68947500Y-40640000D01*
X64000000Y7000000D02*
X64185000Y6815000D01*
X50800000Y12000000D02*
X55800000Y7000000D01*
X64185000Y-21590000D02*
X64185000Y-28185000D01*
X68947500Y-40640000D02*
X68947500Y-44947500D01*
%TO.N,Net-(D24-A)*%
X64707500Y-61265000D02*
X65672500Y-62230000D01*
X64707500Y-53150000D02*
X64707500Y-61265000D01*
%TO.N,Net-(D19-A)*%
X74232500Y-34100000D02*
X74232500Y-42215000D01*
X74232500Y-42215000D02*
X75197500Y-43180000D01*
%TO.N,Net-(D9-A)*%
X12320000Y-15050000D02*
X12320000Y-23165000D01*
X12320000Y-23165000D02*
X13285000Y-24130000D01*
%TO.N,Net-(D30-A)*%
X86138750Y-72200000D02*
X86138750Y-80315000D01*
X86138750Y-80315000D02*
X87103750Y-81280000D01*
%TO.N,Net-(D4-A)*%
X50420000Y4000000D02*
X50420000Y-4115000D01*
X50420000Y-4115000D02*
X51385000Y-5080000D01*
%TO.N,Net-(D22-A)*%
X26607500Y-61265000D02*
X27572500Y-62230000D01*
X26607500Y-53150000D02*
X26607500Y-61265000D01*
%TO.N,Net-(D10-A)*%
X31370000Y-23165000D02*
X32335000Y-24130000D01*
X31370000Y-15050000D02*
X31370000Y-23165000D01*
%TO.N,Net-(D7-A)*%
X107570000Y-4115000D02*
X108535000Y-5080000D01*
X107570000Y4000000D02*
X107570000Y-4115000D01*
%TO.N,Net-(D18-A)*%
X55182500Y-34100000D02*
X55182500Y-42215000D01*
X55182500Y-42215000D02*
X56147500Y-43180000D01*
%TO.N,Net-(D13-A)*%
X88520000Y-15050000D02*
X88520000Y-23165000D01*
X88520000Y-23165000D02*
X89485000Y-24130000D01*
%TO.N,Net-(D3-A)*%
X31370000Y4000000D02*
X31370000Y-4115000D01*
X31370000Y-4115000D02*
X32335000Y-5080000D01*
%TO.N,Net-(D29-A)*%
X33751250Y-80315000D02*
X34716250Y-81280000D01*
X33751250Y-72200000D02*
X33751250Y-80315000D01*
%TO.N,Net-(D1-A)*%
X-6730000Y4000000D02*
X-6730000Y-4115000D01*
X-6730000Y-4115000D02*
X-5765000Y-5080000D01*
%TO.N,Net-(D12-A)*%
X69470000Y-15050000D02*
X69470000Y-23165000D01*
X69470000Y-23165000D02*
X70435000Y-24130000D01*
%TO.N,Net-(D27-A)*%
X-6730000Y-80315000D02*
X-5765000Y-81280000D01*
X-6730000Y-72200000D02*
X-6730000Y-80315000D01*
%TO.N,Net-(D25-A)*%
X83757500Y-53150000D02*
X83757500Y-61265000D01*
X83757500Y-61265000D02*
X84722500Y-62230000D01*
%TD*%
M02*
